<svg xmlns="http://www.w3.org/2000/svg" xmlns:xlink="http://www.w3.org/1999/xlink" width="400" zoomAndPan="magnify" viewBox="0 0 300 112.499997" height="150" preserveAspectRatio="xMidYMid meet" version="1.0"><defs><g/><clipPath id="8c2354fd93"><path d="M 0.664062 0 L 299.335938 0 L 299.335938 112.003906 L 0.664062 112.003906 Z M 0.664062 0 " clip-rule="nonzero"/></clipPath><clipPath id="b90b8c132a"><path d="M 10 15 L 299.335938 15 L 299.335938 97 L 10 97 Z M 10 15 " clip-rule="nonzero"/></clipPath><clipPath id="1664a4417a"><path d="M 238 17 L 279 17 L 279 65 L 238 65 Z M 238 17 " clip-rule="nonzero"/></clipPath><clipPath id="4774dd1a7b"><path d="M 258.246094 8.46875 L 290.902344 33.566406 L 260.152344 73.574219 L 227.496094 48.472656 Z M 258.246094 8.46875 " clip-rule="nonzero"/></clipPath><clipPath id="8249486747"><path d="M 258.246094 8.46875 L 290.902344 33.566406 L 260.152344 73.574219 L 227.496094 48.472656 Z M 258.246094 8.46875 " clip-rule="nonzero"/></clipPath><clipPath id="a841402dad"><path d="M 0.222656 0.53125 L 241 0.53125 L 241 81.53125 L 0.222656 81.53125 Z M 0.222656 0.53125 " clip-rule="nonzero"/></clipPath><clipPath id="d0916afd7e"><path d="M 0.222656 3 L 46 3 L 46 63 L 0.222656 63 Z M 0.222656 3 " clip-rule="nonzero"/></clipPath><clipPath id="fa8a412464"><rect x="0" width="241" y="0" height="82"/></clipPath><clipPath id="829640a40f"><rect x="0" width="290" y="0" height="82"/></clipPath></defs><g clip-path="url(#8c2354fd93)"><path fill="#ffffff" d="M 0.664062 0 L 299.335938 0 L 299.335938 112.003906 L 0.664062 112.003906 Z M 0.664062 0 " fill-opacity="1" fill-rule="nonzero"/><path fill="#ffffff" d="M 0.664062 0 L 299.335938 0 L 299.335938 112.003906 L 0.664062 112.003906 Z M 0.664062 0 " fill-opacity="1" fill-rule="nonzero"/></g><g clip-path="url(#b90b8c132a)"><g transform="matrix(1, 0, 0, 1, 10, 15)"><g clip-path="url(#829640a40f)"><g clip-path="url(#1664a4417a)"><g clip-path="url(#4774dd1a7b)"><g clip-path="url(#8249486747)"><path fill="#ff914d" d="M 259.46875 21.128906 C 261.085938 20.9375 261.925781 20.039062 262.910156 19.472656 C 264.785156 18.386719 266.757812 17.929688 268.804688 17.945312 C 270.59375 17.960938 272.28125 19.515625 272.300781 21.308594 C 272.324219 22.601562 272.226562 23.910156 272.191406 25.058594 C 272.757812 26.15625 273.832031 25.855469 274.625 26.148438 C 275.820312 26.585938 276.828125 27.238281 277.5 28.34375 C 278.074219 29.285156 278.363281 30.296875 277.800781 31.492188 C 277.222656 32.703125 276.691406 33.9375 276.1875 35.058594 C 278.1875 38.742188 278.148438 38.746094 278.21875 42.417969 C 278.253906 44.273438 277.515625 45.742188 276.15625 47 C 275.457031 47.640625 274.722656 48.242188 274.007812 48.855469 C 274.015625 49.511719 273.925781 50.09375 274.035156 50.605469 C 274.816406 54.183594 272.96875 56.824219 270.355469 59.105469 C 269.835938 59.5625 268.976562 59.75 268.289062 59.785156 C 267.1875 59.847656 266.179688 59.515625 265.253906 58.949219 C 264.371094 58.40625 263.425781 57.914062 262.425781 57.609375 C 262.027344 57.484375 261.328125 57.804688 260.921875 58.144531 C 260.5 58.484375 260.28125 59.085938 259.957031 59.574219 C 259.316406 60.550781 258.773438 61.605469 258.023438 62.488281 C 256.84375 63.863281 255.375 64.769531 253.605469 64.804688 C 252.691406 64.828125 251.785156 64.84375 250.886719 64.789062 C 250.132812 64.746094 249.488281 64.4375 249.234375 63.679688 C 248.601562 61.808594 248.023438 59.914062 247.414062 58.011719 C 246.136719 57.632812 244.988281 58.613281 243.753906 58.816406 C 242.171875 59.070312 240.902344 58.730469 239.871094 57.597656 C 238.769531 56.371094 238.132812 54.996094 238.3125 53.148438 C 238.539062 50.652344 239.144531 48.285156 240.585938 46.09375 C 241.222656 45.125 241.8125 44.117188 242.335938 43.085938 C 242.484375 42.796875 242.484375 42.269531 242.320312 42.019531 C 241.652344 40.992188 240.886719 40.023438 240.171875 39.023438 C 239.324219 37.816406 239.050781 36.417969 239.171875 34.855469 C 239.246094 33.882812 239.496094 32.984375 240.085938 32.164062 C 240.546875 31.535156 241.027344 30.910156 241.539062 30.324219 C 242.621094 29.074219 243.953125 28.390625 245.5 28.34375 C 246.046875 28.320312 246.585938 28.429688 247.125 28.414062 C 247.980469 28.386719 248.570312 27.90625 248.765625 27.136719 C 249.058594 26.027344 249.242188 24.894531 249.628906 23.800781 C 250.515625 21.273438 252.210938 19.484375 254.691406 18.535156 C 255.820312 18.105469 256.867188 18.101562 257.667969 19.019531 C 258.230469 19.675781 258.796875 20.34375 259.46875 21.128906 Z M 261.511719 38.136719 C 259.953125 36.976562 258.234375 37.125 256.429688 38.003906 C 254.308594 39.035156 253.648438 40.550781 254.207031 42.550781 C 254.882812 44.957031 256.632812 45.886719 258.859375 46.101562 C 259.890625 46.195312 261.011719 45.917969 262.085938 45.699219 C 263.183594 45.488281 264.246094 43.753906 264.054688 42.566406 C 263.75 40.726562 262.988281 39.183594 261.511719 38.136719 Z M 261.511719 38.136719 " fill-opacity="1" fill-rule="nonzero"/></g></g></g><g clip-path="url(#a841402dad)"><g><g clip-path="url(#fa8a412464)"><g clip-path="url(#d0916afd7e)"><g fill="#ff914d" fill-opacity="1"><g transform="translate(1.090772, 62.630711)"><g><path d="M 0.296875 -51.578125 C 0.210938 -51.609375 0.046875 -51.660156 -0.203125 -51.734375 C -0.460938 -51.816406 -0.59375 -52.035156 -0.59375 -52.390625 C -0.59375 -52.703125 -0.492188 -52.894531 -0.296875 -52.96875 C -0.0976562 -53.050781 0.0195312 -53.113281 0.0625 -53.15625 C 0.53125 -53.394531 1.28125 -53.753906 2.3125 -54.234375 C 3.351562 -54.722656 4.535156 -55.269531 5.859375 -55.875 C 7.191406 -56.488281 8.550781 -57.066406 9.9375 -57.609375 C 11.332031 -58.160156 12.613281 -58.617188 13.78125 -58.984375 C 14.957031 -59.359375 15.898438 -59.546875 16.609375 -59.546875 C 17.460938 -59.546875 17.96875 -59.3125 18.125 -58.84375 C 18.28125 -58.375 18.359375 -57.847656 18.359375 -57.265625 L 18.359375 -33.796875 C 18.441406 -33.796875 18.519531 -33.796875 18.59375 -33.796875 C 18.675781 -33.796875 18.738281 -33.796875 18.78125 -33.796875 C 19.25 -33.796875 19.707031 -34.066406 20.15625 -34.609375 C 20.601562 -35.160156 21.128906 -35.847656 21.734375 -36.671875 C 22.335938 -37.492188 23.078125 -38.304688 23.953125 -39.109375 C 24.835938 -39.910156 25.957031 -40.582031 27.3125 -41.125 C 28.664062 -41.675781 30.335938 -41.953125 32.328125 -41.953125 C 34.484375 -41.953125 36.210938 -41.53125 37.515625 -40.6875 C 38.828125 -39.84375 39.832031 -38.726562 40.53125 -37.34375 C 41.238281 -35.957031 41.71875 -34.460938 41.96875 -32.859375 C 42.226562 -31.253906 42.359375 -29.6875 42.359375 -28.15625 L 42.421875 -16.953125 L 42.421875 -6.921875 C 42.421875 -5.242188 42.566406 -3.863281 42.859375 -2.78125 C 43.148438 -1.707031 43.6875 -0.78125 44.46875 0 L 24.8125 0 C 25.59375 -0.78125 26.128906 -1.707031 26.421875 -2.78125 C 26.722656 -3.863281 26.875 -5.242188 26.875 -6.921875 L 26.875 -25.984375 C 26.875 -27.359375 26.640625 -28.570312 26.171875 -29.625 C 25.703125 -30.6875 24.820312 -31.21875 23.53125 -31.21875 C 22.625 -31.21875 21.78125 -30.972656 21 -30.484375 C 20.21875 -29.992188 19.582031 -29.148438 19.09375 -27.953125 C 18.601562 -26.765625 18.359375 -25.070312 18.359375 -22.875 L 18.359375 -6.921875 C 18.359375 -5.242188 18.503906 -3.863281 18.796875 -2.78125 C 19.097656 -1.707031 19.640625 -0.78125 20.421875 0 L 0.765625 0 C 1.546875 -0.78125 2.082031 -1.707031 2.375 -2.78125 C 2.664062 -3.863281 2.8125 -5.242188 2.8125 -6.921875 L 2.8125 -47.0625 C 2.8125 -47.289062 2.800781 -47.71875 2.78125 -48.34375 C 2.757812 -48.96875 2.570312 -49.601562 2.21875 -50.25 C 1.875 -50.894531 1.234375 -51.335938 0.296875 -51.578125 Z M 0.296875 -51.578125 "/></g></g></g></g><g fill="#ff914d" fill-opacity="1"><g transform="translate(46.734893, 62.630711)"><g><path d="M 1.46875 -9.15625 C 1.46875 -12.28125 2.09375 -15.023438 3.34375 -17.390625 C 4.59375 -19.765625 6.28125 -21.800781 8.40625 -23.5 C 10.539062 -25.195312 12.925781 -26.59375 15.5625 -27.6875 C 18.207031 -28.789062 20.898438 -29.632812 23.640625 -30.21875 C 24.503906 -30.414062 25.070312 -30.765625 25.34375 -31.265625 C 25.613281 -31.773438 25.75 -32.285156 25.75 -32.796875 C 25.75 -33.660156 25.625 -34.550781 25.375 -35.46875 C 25.125 -36.382812 24.632812 -37.164062 23.90625 -37.8125 C 23.1875 -38.457031 22.101562 -38.757812 20.65625 -38.71875 C 19.164062 -38.6875 17.8125 -38.257812 16.59375 -37.4375 C 15.382812 -36.613281 14.28125 -35.601562 13.28125 -34.40625 C 12.289062 -33.21875 11.363281 -32.023438 10.5 -30.828125 C 9.644531 -29.640625 8.832031 -28.644531 8.0625 -27.84375 C 7.300781 -27.039062 6.550781 -26.640625 5.8125 -26.640625 C 5.34375 -26.640625 4.921875 -26.820312 4.546875 -27.1875 C 4.171875 -27.5625 3.984375 -28.003906 3.984375 -28.515625 L 3.984375 -31.734375 C 3.984375 -32.753906 3.992188 -33.753906 4.015625 -34.734375 C 4.035156 -35.710938 4.414062 -36.550781 5.15625 -37.25 C 7.15625 -39.164062 9.609375 -40.425781 12.515625 -41.03125 C 15.429688 -41.644531 18.4375 -41.953125 21.53125 -41.953125 C 24.894531 -41.953125 27.828125 -41.429688 30.328125 -40.390625 C 32.835938 -39.359375 34.898438 -37.988281 36.515625 -36.28125 C 38.140625 -34.582031 39.351562 -32.695312 40.15625 -30.625 C 40.957031 -28.550781 41.359375 -26.457031 41.359375 -24.34375 L 41.359375 -6.921875 C 41.359375 -5.242188 41.503906 -3.863281 41.796875 -2.78125 C 42.097656 -1.707031 42.640625 -0.78125 43.421875 0 L 29.046875 0 C 27.328125 0 26.304688 -0.835938 25.984375 -2.515625 C 25.910156 -3.023438 25.742188 -3.492188 25.484375 -3.921875 C 25.234375 -4.359375 24.894531 -4.578125 24.46875 -4.578125 C 23.84375 -4.578125 23.222656 -4.300781 22.609375 -3.75 C 22.003906 -3.207031 21.269531 -2.570312 20.40625 -1.84375 C 19.550781 -1.125 18.445312 -0.492188 17.09375 0.046875 C 15.75 0.597656 14.019531 0.875 11.90625 0.875 C 10.03125 0.875 8.300781 0.425781 6.71875 -0.46875 C 5.132812 -1.363281 3.863281 -2.566406 2.90625 -4.078125 C 1.945312 -5.585938 1.46875 -7.28125 1.46875 -9.15625 Z M 23.640625 -26.40625 C 22.390625 -26.40625 21.128906 -25.925781 19.859375 -24.96875 C 18.585938 -24.007812 17.539062 -22.660156 16.71875 -20.921875 C 15.894531 -19.179688 15.484375 -17.097656 15.484375 -14.671875 C 15.484375 -13.296875 15.648438 -11.992188 15.984375 -10.765625 C 16.316406 -9.535156 16.882812 -8.53125 17.6875 -7.75 C 18.488281 -6.96875 19.613281 -6.578125 21.0625 -6.578125 C 22.664062 -6.578125 23.859375 -7.210938 24.640625 -8.484375 C 25.421875 -9.753906 25.8125 -11.347656 25.8125 -13.265625 C 25.8125 -15.097656 25.800781 -16.6875 25.78125 -18.03125 C 25.757812 -19.382812 25.75 -20.960938 25.75 -22.765625 C 25.75 -24.097656 25.59375 -25.035156 25.28125 -25.578125 C 24.96875 -26.128906 24.421875 -26.40625 23.640625 -26.40625 Z M 23.640625 -26.40625 "/></g></g></g><g fill="#ff914d" fill-opacity="1"><g transform="translate(90.442944, 62.630711)"><g><path d="M 0.875 -29.34375 C 0.875 -31.800781 1.429688 -33.84375 2.546875 -35.46875 C 3.660156 -37.09375 5.144531 -38.375 7 -39.3125 C 8.863281 -40.25 10.898438 -40.921875 13.109375 -41.328125 C 15.316406 -41.742188 17.535156 -41.953125 19.765625 -41.953125 C 22.347656 -41.953125 24.773438 -41.742188 27.046875 -41.328125 C 29.316406 -40.921875 31.320312 -40.375 33.0625 -39.6875 C 34.800781 -39.007812 36.160156 -38.257812 37.140625 -37.4375 C 38.117188 -36.613281 38.609375 -35.769531 38.609375 -34.90625 C 38.609375 -33.613281 38.300781 -32.351562 37.6875 -31.125 C 37.082031 -29.894531 36.347656 -28.890625 35.484375 -28.109375 C 34.628906 -27.328125 33.851562 -26.9375 33.15625 -26.9375 C 31.582031 -26.9375 30.09375 -27.328125 28.6875 -28.109375 C 27.28125 -28.890625 25.910156 -29.851562 24.578125 -31 C 23.253906 -32.15625 21.9375 -33.300781 20.625 -34.4375 C 19.3125 -35.570312 17.976562 -36.53125 16.625 -37.3125 C 15.28125 -38.09375 13.863281 -38.484375 12.375 -38.484375 C 11.707031 -38.484375 11.003906 -38.347656 10.265625 -38.078125 C 9.523438 -37.804688 8.910156 -37.375 8.421875 -36.78125 C 7.929688 -36.195312 7.6875 -35.414062 7.6875 -34.4375 C 7.6875 -33.5 8.078125 -32.71875 8.859375 -32.09375 C 9.640625 -31.46875 10.703125 -30.957031 12.046875 -30.5625 C 13.398438 -30.175781 14.898438 -29.828125 16.546875 -29.515625 C 19.128906 -29.046875 21.71875 -28.46875 24.3125 -27.78125 C 26.914062 -27.09375 29.28125 -26.160156 31.40625 -24.984375 C 33.539062 -23.816406 35.253906 -22.285156 36.546875 -20.390625 C 37.835938 -18.492188 38.484375 -16.132812 38.484375 -13.3125 C 38.484375 -10.613281 37.882812 -8.34375 36.6875 -6.5 C 35.5 -4.664062 33.984375 -3.210938 32.140625 -2.140625 C 30.304688 -1.066406 28.378906 -0.296875 26.359375 0.171875 C 24.347656 0.640625 22.523438 0.875 20.890625 0.875 C 18.890625 0.875 16.742188 0.738281 14.453125 0.46875 C 12.171875 0.195312 10.019531 -0.171875 8 -0.640625 C 5.988281 -1.109375 4.347656 -1.664062 3.078125 -2.3125 C 1.804688 -2.957031 1.171875 -3.65625 1.171875 -4.40625 C 1.171875 -5.03125 1.347656 -5.9375 1.703125 -7.125 C 2.054688 -8.320312 2.515625 -9.554688 3.078125 -10.828125 C 3.648438 -12.097656 4.265625 -13.171875 4.921875 -14.046875 C 5.585938 -14.929688 6.21875 -15.375 6.8125 -15.375 C 7.707031 -15.375 8.757812 -14.984375 9.96875 -14.203125 C 11.1875 -13.421875 12.601562 -12.519531 14.21875 -11.5 C 15.84375 -10.476562 17.710938 -9.578125 19.828125 -8.796875 C 21.941406 -8.015625 24.347656 -7.625 27.046875 -7.625 C 28.410156 -7.625 29.71875 -7.859375 30.96875 -8.328125 C 32.226562 -8.796875 33.269531 -9.441406 34.09375 -10.265625 C 34.914062 -11.085938 35.328125 -12.007812 35.328125 -13.03125 C 35.328125 -13.726562 35.109375 -14.203125 34.671875 -14.453125 C 34.242188 -14.710938 33.640625 -14.84375 32.859375 -14.84375 C 31.765625 -14.84375 30.363281 -14.710938 28.65625 -14.453125 C 26.957031 -14.203125 24.992188 -14.078125 22.765625 -14.078125 C 20.378906 -14.078125 17.914062 -14.332031 15.375 -14.84375 C 12.832031 -15.351562 10.460938 -16.203125 8.265625 -17.390625 C 6.078125 -18.585938 4.296875 -20.160156 2.921875 -22.109375 C 1.554688 -24.066406 0.875 -26.476562 0.875 -29.34375 Z M 0.875 -29.34375 "/></g></g></g><g fill="#ff914d" fill-opacity="1"><g transform="translate(129.926864, 62.630711)"><g><path d="M 0.296875 -51.578125 C 0.210938 -51.609375 0.046875 -51.660156 -0.203125 -51.734375 C -0.460938 -51.816406 -0.59375 -52.035156 -0.59375 -52.390625 C -0.59375 -52.703125 -0.492188 -52.894531 -0.296875 -52.96875 C -0.0976562 -53.050781 0.0195312 -53.113281 0.0625 -53.15625 C 0.53125 -53.394531 1.28125 -53.753906 2.3125 -54.234375 C 3.351562 -54.722656 4.535156 -55.269531 5.859375 -55.875 C 7.191406 -56.488281 8.550781 -57.066406 9.9375 -57.609375 C 11.332031 -58.160156 12.613281 -58.617188 13.78125 -58.984375 C 14.957031 -59.359375 15.898438 -59.546875 16.609375 -59.546875 C 17.460938 -59.546875 17.96875 -59.3125 18.125 -58.84375 C 18.28125 -58.375 18.359375 -57.847656 18.359375 -57.265625 L 18.359375 -33.796875 C 18.441406 -33.796875 18.519531 -33.796875 18.59375 -33.796875 C 18.675781 -33.796875 18.738281 -33.796875 18.78125 -33.796875 C 19.25 -33.796875 19.707031 -34.066406 20.15625 -34.609375 C 20.601562 -35.160156 21.128906 -35.847656 21.734375 -36.671875 C 22.335938 -37.492188 23.078125 -38.304688 23.953125 -39.109375 C 24.835938 -39.910156 25.957031 -40.582031 27.3125 -41.125 C 28.664062 -41.675781 30.335938 -41.953125 32.328125 -41.953125 C 34.484375 -41.953125 36.210938 -41.53125 37.515625 -40.6875 C 38.828125 -39.84375 39.832031 -38.726562 40.53125 -37.34375 C 41.238281 -35.957031 41.71875 -34.460938 41.96875 -32.859375 C 42.226562 -31.253906 42.359375 -29.6875 42.359375 -28.15625 L 42.421875 -16.953125 L 42.421875 -6.921875 C 42.421875 -5.242188 42.566406 -3.863281 42.859375 -2.78125 C 43.148438 -1.707031 43.6875 -0.78125 44.46875 0 L 24.8125 0 C 25.59375 -0.78125 26.128906 -1.707031 26.421875 -2.78125 C 26.722656 -3.863281 26.875 -5.242188 26.875 -6.921875 L 26.875 -25.984375 C 26.875 -27.359375 26.640625 -28.570312 26.171875 -29.625 C 25.703125 -30.6875 24.820312 -31.21875 23.53125 -31.21875 C 22.625 -31.21875 21.78125 -30.972656 21 -30.484375 C 20.21875 -29.992188 19.582031 -29.148438 19.09375 -27.953125 C 18.601562 -26.765625 18.359375 -25.070312 18.359375 -22.875 L 18.359375 -6.921875 C 18.359375 -5.242188 18.503906 -3.863281 18.796875 -2.78125 C 19.097656 -1.707031 19.640625 -0.78125 20.421875 0 L 0.765625 0 C 1.546875 -0.78125 2.082031 -1.707031 2.375 -2.78125 C 2.664062 -3.863281 2.8125 -5.242188 2.8125 -6.921875 L 2.8125 -47.0625 C 2.8125 -47.289062 2.800781 -47.71875 2.78125 -48.34375 C 2.757812 -48.96875 2.570312 -49.601562 2.21875 -50.25 C 1.875 -50.894531 1.234375 -51.335938 0.296875 -51.578125 Z M 0.296875 -51.578125 "/></g></g></g><g fill="#ff914d" fill-opacity="1"><g transform="translate(175.570994, 62.630711)"><g><path d="M 0 -41.078125 C 1.175781 -41.078125 2.488281 -41.484375 3.9375 -42.296875 C 5.382812 -43.117188 6.847656 -44.144531 8.328125 -45.375 C 9.816406 -46.613281 11.222656 -47.835938 12.546875 -49.046875 C 13.878906 -50.265625 15.054688 -51.28125 16.078125 -52.09375 C 17.097656 -52.914062 17.84375 -53.328125 18.3125 -53.328125 C 19.050781 -53.328125 19.421875 -52.859375 19.421875 -51.921875 L 19.421875 -41.078125 L 24.46875 -41.078125 L 24.46875 -38.140625 L 19.421875 -38.140625 L 19.421875 -14.4375 C 19.421875 -12.90625 19.4375 -11.375 19.46875 -9.84375 C 19.507812 -8.320312 19.726562 -6.957031 20.125 -5.75 C 20.519531 -4.539062 21.222656 -3.601562 22.234375 -2.9375 C 22.472656 -2.78125 22.71875 -2.703125 22.96875 -2.703125 C 23.21875 -2.703125 23.484375 -2.660156 23.765625 -2.578125 C 23.679688 -1.878906 23.296875 -1.265625 22.609375 -0.734375 C 21.929688 -0.203125 21.125 0.195312 20.1875 0.46875 C 19.25 0.738281 18.304688 0.875 17.359375 0.875 C 14.546875 0.875 12.285156 0.40625 10.578125 -0.53125 C 8.878906 -1.46875 7.585938 -2.726562 6.703125 -4.3125 C 5.828125 -5.894531 5.242188 -7.664062 4.953125 -9.625 C 4.660156 -11.582031 4.515625 -13.554688 4.515625 -15.546875 L 4.515625 -34.375 C 4.515625 -34.96875 4.484375 -35.554688 4.421875 -36.140625 C 4.367188 -36.722656 4.15625 -37.203125 3.78125 -37.578125 C 3.414062 -37.953125 2.757812 -38.140625 1.8125 -38.140625 L 0 -38.140625 Z M 0 -41.078125 "/></g></g></g><g fill="#ff914d" fill-opacity="1"><g transform="translate(200.622441, 62.630711)"><g><path d="M 0.59375 0 C 1.375 -0.78125 1.910156 -1.707031 2.203125 -2.78125 C 2.492188 -3.863281 2.640625 -5.242188 2.640625 -6.921875 L 2.640625 -34.140625 C 2.640625 -35.828125 2.492188 -37.207031 2.203125 -38.28125 C 1.910156 -39.351562 1.375 -40.285156 0.59375 -41.078125 L 14.96875 -41.078125 C 16.21875 -41.078125 17.066406 -40.632812 17.515625 -39.75 C 17.960938 -38.875 18.1875 -37.691406 18.1875 -36.203125 L 18.1875 -35.203125 C 18.1875 -34.492188 18.222656 -34.082031 18.296875 -33.96875 C 18.378906 -33.851562 18.476562 -33.796875 18.59375 -33.796875 C 19.03125 -33.796875 19.453125 -34.066406 19.859375 -34.609375 C 20.265625 -35.160156 20.742188 -35.847656 21.296875 -36.671875 C 21.847656 -37.492188 22.550781 -38.304688 23.40625 -39.109375 C 24.269531 -39.910156 25.335938 -40.582031 26.609375 -41.125 C 27.878906 -41.675781 29.429688 -41.953125 31.265625 -41.953125 C 32.328125 -41.953125 33.425781 -41.8125 34.5625 -41.53125 C 35.695312 -41.257812 36.65625 -40.867188 37.4375 -40.359375 C 38.21875 -39.859375 38.609375 -39.21875 38.609375 -38.4375 C 38.609375 -38.082031 38.265625 -37.25 37.578125 -35.9375 C 36.890625 -34.625 36.175781 -33.222656 35.4375 -31.734375 C 34.613281 -30.140625 33.867188 -28.6875 33.203125 -27.375 C 32.535156 -26.0625 31.929688 -25.40625 31.390625 -25.40625 C 30.765625 -25.40625 30.273438 -25.664062 29.921875 -26.1875 C 29.566406 -26.71875 29.191406 -27.316406 28.796875 -27.984375 C 28.410156 -28.648438 27.835938 -29.242188 27.078125 -29.765625 C 26.316406 -30.296875 25.234375 -30.5625 23.828125 -30.5625 C 22.179688 -30.5625 20.957031 -30.140625 20.15625 -29.296875 C 19.351562 -28.460938 18.820312 -27.457031 18.5625 -26.28125 C 18.3125 -25.113281 18.1875 -23.976562 18.1875 -22.875 L 18.1875 -6.921875 C 18.1875 -5.242188 18.332031 -3.863281 18.625 -2.78125 C 18.914062 -1.707031 19.453125 -0.78125 20.234375 0 Z M 0.59375 0 "/></g></g></g></g></g></g></g></g></g></svg>