<svg xmlns="http://www.w3.org/2000/svg" xmlns:xlink="http://www.w3.org/1999/xlink" width="50" zoomAndPan="magnify" viewBox="0 0 37.5 37.499999" height="50" preserveAspectRatio="xMidYMid meet" version="1.0"><defs><clipPath id="e18202cb05"><path d="M 0 0 L 37.007812 0 L 37.007812 37.007812 L 0 37.007812 Z M 0 0 " clip-rule="nonzero"/></clipPath><clipPath id="055f37a625"><path d="M 3 1 L 33 1 L 33 36 L 3 36 Z M 3 1 " clip-rule="nonzero"/></clipPath><clipPath id="8a0b1215e0"><path d="M 18.300781 -5.625 L 42.359375 12.867188 L 19.808594 42.207031 L -4.253906 23.714844 Z M 18.300781 -5.625 " clip-rule="nonzero"/></clipPath><clipPath id="60ed639aea"><path d="M 18.300781 -5.625 L 42.359375 12.867188 L 19.808594 42.207031 L -4.253906 23.714844 Z M 18.300781 -5.625 " clip-rule="nonzero"/></clipPath></defs><g clip-path="url(#e18202cb05)"><path fill="#ffffff" d="M 0 0 L 37.007812 0 L 37.007812 37.007812 L 0 37.007812 Z M 0 0 " fill-opacity="1" fill-rule="nonzero"/><path fill="#ffffff" d="M 0 0 L 37.007812 0 L 37.007812 37.007812 L 0 37.007812 Z M 0 0 " fill-opacity="1" fill-rule="nonzero"/></g><g clip-path="url(#055f37a625)"><g clip-path="url(#8a0b1215e0)"><g clip-path="url(#60ed639aea)"><path fill="#ff914d" d="M 19.191406 3.609375 C 20.371094 3.472656 20.984375 2.8125 21.703125 2.402344 C 23.070312 1.609375 24.511719 1.277344 26.003906 1.289062 C 27.308594 1.300781 28.539062 2.433594 28.554688 3.742188 C 28.574219 4.683594 28.5 5.640625 28.472656 6.476562 C 28.886719 7.277344 29.671875 7.058594 30.25 7.273438 C 31.121094 7.59375 31.859375 8.066406 32.347656 8.875 C 32.765625 9.5625 32.980469 10.296875 32.566406 11.171875 C 32.148438 12.054688 31.757812 12.957031 31.390625 13.773438 C 32.847656 16.460938 32.820312 16.464844 32.871094 19.144531 C 32.898438 20.496094 32.359375 21.566406 31.367188 22.484375 C 30.855469 22.953125 30.320312 23.390625 29.796875 23.839844 C 29.804688 24.320312 29.738281 24.742188 29.820312 25.117188 C 30.386719 27.726562 29.042969 29.652344 27.136719 31.320312 C 26.753906 31.652344 26.128906 31.789062 25.628906 31.8125 C 24.824219 31.859375 24.089844 31.617188 23.414062 31.203125 C 22.769531 30.808594 22.082031 30.449219 21.347656 30.226562 C 21.058594 30.136719 20.546875 30.371094 20.25 30.617188 C 19.945312 30.863281 19.785156 31.304688 19.546875 31.660156 C 19.082031 32.371094 18.683594 33.140625 18.136719 33.785156 C 17.277344 34.789062 16.207031 35.449219 14.914062 35.476562 C 14.25 35.492188 13.585938 35.503906 12.929688 35.464844 C 12.378906 35.433594 11.910156 35.207031 11.726562 34.65625 C 11.265625 33.289062 10.839844 31.90625 10.398438 30.519531 C 9.464844 30.242188 8.628906 30.957031 7.726562 31.105469 C 6.574219 31.292969 5.644531 31.046875 4.894531 30.21875 C 4.089844 29.320312 3.625 28.320312 3.757812 26.972656 C 3.921875 25.152344 4.367188 23.421875 5.414062 21.824219 C 5.878906 21.117188 6.308594 20.382812 6.691406 19.628906 C 6.800781 19.417969 6.800781 19.035156 6.679688 18.851562 C 6.191406 18.101562 5.636719 17.394531 5.113281 16.664062 C 4.492188 15.785156 4.292969 14.765625 4.382812 13.625 C 4.4375 12.914062 4.617188 12.257812 5.050781 11.660156 C 5.386719 11.203125 5.738281 10.746094 6.109375 10.320312 C 6.902344 9.40625 7.875 8.910156 9 8.875 C 9.398438 8.855469 9.792969 8.9375 10.1875 8.925781 C 10.8125 8.90625 11.242188 8.554688 11.386719 7.996094 C 11.597656 7.183594 11.730469 6.355469 12.011719 5.5625 C 12.660156 3.714844 13.894531 2.410156 15.707031 1.71875 C 16.53125 1.40625 17.292969 1.402344 17.878906 2.074219 C 18.289062 2.550781 18.703125 3.039062 19.191406 3.609375 Z M 20.683594 16.019531 C 19.546875 15.171875 18.289062 15.28125 16.972656 15.921875 C 15.429688 16.675781 14.945312 17.78125 15.355469 19.238281 C 15.847656 20.996094 17.125 21.671875 18.75 21.832031 C 19.5 21.898438 20.320312 21.695312 21.101562 21.539062 C 21.902344 21.382812 22.675781 20.117188 22.539062 19.25 C 22.316406 17.910156 21.757812 16.785156 20.683594 16.019531 Z M 20.683594 16.019531 " fill-opacity="1" fill-rule="nonzero"/></g></g></g></svg>