<?xml version="1.0" encoding="utf-8"?>
<!-- Generator: Adobe Illustrator 30.1.0, SVG Export Plug-In . SVG Version: 9.03 Build 0)  -->
<svg version="1.0" id="Layer_1" xmlns="http://www.w3.org/2000/svg" xmlns:xlink="http://www.w3.org/1999/xlink" x="0px" y="0px"
	 viewBox="0 0 50 50" style="enable-background:new 0 0 50 50;" xml:space="preserve">
<style type="text/css">
	.st0{clip-path:url(#SVGID_00000119833562504533026830000001128074790748228743_);}
	.st1{clip-path:url(#SVGID_00000079451962213288639540000000438393739912067515_);}
	.st2{fill:#FF914D;}
</style>
<g>
	<defs>
		<rect id="SVGID_1_" y="0" width="49.34" height="49.34"/>
	</defs>
	<clipPath id="SVGID_00000145040534913763262220000018077662289605379728_">
		<use xlink:href="#SVGID_1_"  style="overflow:visible;"/>
	</clipPath>
</g>
<g>
	<g>
		<g>
			<defs>
				
					<rect id="SVGID_00000155831972457720615150000007425635689860853940_" x="0.73" y="4.16" transform="matrix(0.6094 -0.7929 0.7929 0.6094 -9.4133 29.6681)" width="49.34" height="40.46"/>
			</defs>
			<clipPath id="SVGID_00000113336743312134431920000003661083259511917958_">
				<use xlink:href="#SVGID_00000155831972457720615150000007425635689860853940_"  style="overflow:visible;"/>
			</clipPath>
			<g style="clip-path:url(#SVGID_00000113336743312134431920000003661083259511917958_);">
				<g>
					<defs>
						
							<rect id="SVGID_00000029009731875021632210000012756903701547453625_" x="0.73" y="4.16" transform="matrix(0.6094 -0.7929 0.7929 0.6094 -9.4133 29.6681)" width="49.34" height="40.46"/>
					</defs>
					<clipPath id="SVGID_00000098196892996652992720000002931114645404862137_">
						<use xlink:href="#SVGID_00000029009731875021632210000012756903701547453625_"  style="overflow:visible;"/>
					</clipPath>
					<g style="clip-path:url(#SVGID_00000098196892996652992720000002931114645404862137_);">
						<path class="st2" d="M25.59,4.81c1.57-0.18,2.39-1.06,3.35-1.61c1.82-1.06,3.74-1.5,5.73-1.48c1.74,0.02,3.38,1.53,3.4,3.27
							C38.1,6.24,38,7.52,37.96,8.64c0.55,1.07,1.6,0.78,2.37,1.06c1.16,0.43,2.15,1.06,2.8,2.14c0.56,0.92,0.84,1.9,0.29,3.06
							c-0.56,1.18-1.08,2.38-1.57,3.47c1.94,3.58,1.91,3.59,1.97,7.16c0.04,1.8-0.68,3.23-2.01,4.45c-0.68,0.62-1.4,1.21-2.09,1.81
							c0.01,0.64-0.08,1.2,0.03,1.7c0.76,3.48-1.04,6.05-3.58,8.27c-0.51,0.44-1.34,0.62-2.01,0.66c-1.07,0.06-2.05-0.26-2.95-0.81
							c-0.86-0.53-1.78-1.01-2.76-1.3c-0.39-0.12-1.07,0.19-1.46,0.52c-0.41,0.33-0.62,0.92-0.94,1.39
							c-0.62,0.95-1.15,1.97-1.88,2.83c-1.15,1.34-2.57,2.22-4.3,2.26c-0.89,0.02-1.77,0.04-2.65-0.02
							c-0.73-0.04-1.36-0.34-1.6-1.08c-0.61-1.82-1.18-3.67-1.77-5.52c-1.24-0.37-2.36,0.58-3.56,0.78
							c-1.54,0.25-2.78-0.08-3.78-1.18c-1.07-1.2-1.69-2.53-1.52-4.33c0.22-2.43,0.81-4.73,2.21-6.86c0.62-0.94,1.19-1.92,1.7-2.93
							c0.15-0.28,0.15-0.79-0.02-1.04c-0.65-1-1.39-1.94-2.09-2.92c-0.83-1.17-1.09-2.53-0.97-4.05c0.07-0.95,0.31-1.82,0.89-2.62
							c0.45-0.61,0.92-1.22,1.41-1.79c1.06-1.22,2.35-1.88,3.85-1.93c0.53-0.03,1.06,0.08,1.58,0.07c0.83-0.03,1.41-0.49,1.6-1.24
							c0.28-1.08,0.46-2.19,0.83-3.24c0.86-2.46,2.51-4.2,4.93-5.12c1.1-0.42,2.11-0.42,2.9,0.47C24.39,3.4,24.94,4.05,25.59,4.81z
							 M27.58,21.36c-1.52-1.13-3.19-0.98-4.95-0.13c-2.06,1.01-2.7,2.48-2.16,4.42c0.66,2.34,2.36,3.24,4.53,3.46
							c1,0.09,2.09-0.18,3.14-0.39c1.07-0.21,2.1-1.9,1.92-3.05C29.76,23.88,29.01,22.38,27.58,21.36z"/>
					</g>
				</g>
			</g>
		</g>
	</g>
</g>
</svg>
