<svg width="88" height="90" viewBox="0 0 88 90" fill="none" xmlns="http://www.w3.org/2000/svg">
<path d="M55.7172 24.5997L38.6292 24.5697L37.1592 21.5547L55.7222 21.5867" stroke="#60423A" stroke-width="0.75" stroke-miterlimit="10" stroke-linecap="round" stroke-linejoin="round"/>
<path d="M55.711 27.8483L41.012 27.8223L39.792 24.5713" stroke="#60423A" stroke-width="0.75" stroke-miterlimit="10" stroke-linecap="round" stroke-linejoin="round"/>
<path d="M55.6909 39.1573L44.6659 39.1373C44.6659 39.1373 46.0519 36.8533 41.9219 27.8223" stroke="#60423A" stroke-width="0.75" stroke-miterlimit="10" stroke-linecap="round" stroke-linejoin="round"/>
<path d="M54.9829 79.1018L49.0069 79.0918C49.0069 79.0918 30.0709 59.8078 31.7299 51.7088C33.3889 43.6098 40.9769 39.1318 40.9769 39.1318L66.2789 39.1768C66.2789 39.1768 73.8509 43.6818 75.4809 51.7858C77.1109 59.8898 58.1069 79.1068 58.1069 79.1068L52.1309 79.0958" stroke="#60423A" stroke-width="0.75" stroke-miterlimit="10" stroke-linecap="round" stroke-linejoin="round"/>
<path d="M54.9789 81.3478L49.0029 81.3378L49.0069 79.0918" stroke="#60423A" stroke-width="0.75" stroke-miterlimit="10" stroke-linecap="round" stroke-linejoin="round"/>
<path d="M54.9716 85.3589L41.9766 85.3359L43.2746 82.7509L49.0026 81.3379" stroke="#60423A" stroke-width="0.75" stroke-miterlimit="10" stroke-linecap="round" stroke-linejoin="round"/>
<path d="M34.709 45.0635L55.043 45.0995" stroke="#60423A" stroke-width="0.75" stroke-miterlimit="10" stroke-linecap="round" stroke-linejoin="round"/>
<path d="M35.8115 62.9385L55.0105 62.9725" stroke="#60423A" stroke-width="0.75" stroke-miterlimit="10" stroke-linecap="round" stroke-linejoin="round"/>
<path d="M62.6309 57.4797L70.4759 57.4937L70.4859 51.7137L68.3969 51.7097L68.3519 55.2697L65.2739 55.2647L65.3239 48.6797L72.6349 48.6927L72.6199 57.4977L74.3679 57.5007" stroke="#60423A" stroke-width="0.75" stroke-miterlimit="10" stroke-linecap="round" stroke-linejoin="round"/>
<path d="M53.4884 21.584L72.0514 21.616L70.5704 24.626L53.4834 24.596" stroke="#60423A" stroke-width="0.75" stroke-miterlimit="10" stroke-linecap="round" stroke-linejoin="round"/>
<path d="M53.4766 27.845L68.1766 27.871L69.4066 24.624" stroke="#60423A" stroke-width="0.75" stroke-miterlimit="10" stroke-linecap="round" stroke-linejoin="round"/>
<path d="M53.457 39.1542L64.482 39.1732C64.482 39.1732 63.104 36.8852 67.266 27.8682" stroke="#60423A" stroke-width="0.75" stroke-miterlimit="10" stroke-linecap="round" stroke-linejoin="round"/>
<path d="M52.126 81.3424L58.102 81.3534L58.106 79.1074" stroke="#60423A" stroke-width="0.75" stroke-miterlimit="10" stroke-linecap="round" stroke-linejoin="round"/>
<path d="M52.1191 85.3535L65.1131 85.3765L63.8251 82.7875L58.1021 81.3535" stroke="#60423A" stroke-width="0.75" stroke-miterlimit="10" stroke-linecap="round" stroke-linejoin="round"/>
<path d="M72.5244 45.1307L52.1904 45.0947" stroke="#60423A" stroke-width="0.75" stroke-miterlimit="10" stroke-linecap="round" stroke-linejoin="round"/>
<path d="M71.3582 63.0018L52.1592 62.9678" stroke="#60423A" stroke-width="0.75" stroke-miterlimit="10" stroke-linecap="round" stroke-linejoin="round"/>
<path d="M69.3767 41.5808C69.3767 41.5808 72.9277 31.8928 82.0097 35.9568C91.3267 40.1258 89.1347 67.1848 68.4297 67.1478" stroke="#60423A" stroke-width="0.75" stroke-miterlimit="10" stroke-linecap="round" stroke-linejoin="round"/>
<path d="M62.6306 57.4801L62.6456 48.6761L55.3346 48.6631L55.2846 55.2471L58.3626 55.2521L58.4076 51.6921L60.4966 51.6961L60.4866 57.4761L52.6416 57.4621" stroke="#60423A" stroke-width="0.75" stroke-miterlimit="10" stroke-linecap="round" stroke-linejoin="round"/>
<path d="M52.6423 57.4615L52.6573 48.6575L45.3463 48.6445L45.2963 55.2285L48.3743 55.2345L48.4193 51.6745L50.5083 51.6775L50.4983 57.4585L42.6533 57.4445" stroke="#60423A" stroke-width="0.75" stroke-miterlimit="10" stroke-linecap="round" stroke-linejoin="round"/>
<path d="M42.6525 57.4449L42.6675 48.64L35.3565 48.627L35.3065 55.2119L38.3845 55.2169L38.4295 51.657L40.5185 51.6609L40.5085 57.4409L33.0225 57.4279" stroke="#60423A" stroke-width="0.75" stroke-miterlimit="10" stroke-linecap="round" stroke-linejoin="round"/>
<path d="M7.47299 64.209C4.13699 66.654 3.92398 70.917 3.92398 70.917C3.92398 70.917 3.711 66.655 0.375 64.209C3.711 61.764 3.92398 57.501 3.92398 57.501C3.92398 57.501 4.13599 61.763 7.47299 64.209Z" stroke="#60423A" stroke-width="0.75" stroke-miterlimit="10" stroke-linecap="round" stroke-linejoin="round"/>
<path d="M81.3997 23.3574C78.0637 25.8024 77.8507 30.0654 77.8507 30.0654C77.8507 30.0654 77.6378 25.8034 74.3018 23.3574C77.6378 20.9114 77.8507 16.6494 77.8507 16.6494C77.8507 16.6494 78.0637 20.9114 81.3997 23.3574Z" stroke="#60423A" stroke-width="0.75" stroke-miterlimit="10" stroke-linecap="round" stroke-linejoin="round"/>
<path d="M40.7952 76.141C37.1962 72.925 31.5892 73.147 28.2672 76.809C24.7312 80.708 18.6032 80.708 15.0662 76.809C11.5302 72.91 5.40223 72.91 1.86523 76.809" stroke="#60423A" stroke-width="0.75" stroke-miterlimit="10" stroke-linecap="round" stroke-linejoin="round"/>
<path d="M40.386 80.6049C36.787 77.3889 31.1801 77.6109 27.8581 81.2729C24.3221 85.1719 18.194 85.1719 14.657 81.2729C11.121 77.3739 4.99305 77.3739 1.45605 81.2729" stroke="#60423A" stroke-width="0.75" stroke-miterlimit="10" stroke-linecap="round" stroke-linejoin="round"/>
<path d="M40.386 85.2719C36.787 82.0559 31.1801 82.2779 27.8581 85.9399C24.3221 89.8389 18.194 89.8389 14.657 85.9399C11.121 82.0409 4.99305 82.0409 1.45605 85.9399" stroke="#60423A" stroke-width="0.75" stroke-miterlimit="10" stroke-linecap="round" stroke-linejoin="round"/>
<path d="M45.2036 21.5551L45.0856 21.2531C43.1286 16.2481 38.3046 12.9541 32.9306 12.9541H28.9726C18.3206 12.9541 9.68457 21.5901 9.68457 32.2421V73.8851" stroke="#60423A" stroke-width="0.75" stroke-miterlimit="10" stroke-linecap="round" stroke-linejoin="round"/>
<path d="M12.791 49.2822V74.7842" stroke="#60423A" stroke-width="0.75" stroke-miterlimit="10" stroke-linecap="round" stroke-linejoin="round"/>
<path d="M16.7461 64.8828V77.9568" stroke="#60423A" stroke-width="0.75" stroke-miterlimit="10" stroke-linecap="round" stroke-linejoin="round"/>
<path d="M20.6758 56.7012V79.4812" stroke="#60423A" stroke-width="0.75" stroke-miterlimit="10" stroke-linecap="round" stroke-linejoin="round"/>
<path d="M24.4863 64.7744V79.0924" stroke="#60423A" stroke-width="0.75" stroke-miterlimit="10" stroke-linecap="round" stroke-linejoin="round"/>
<path d="M37.1587 21.5547C32.6367 21.5547 28.9707 25.2207 28.9707 29.7427V75.9477" stroke="#60423A" stroke-width="0.75" stroke-miterlimit="10" stroke-linecap="round" stroke-linejoin="round"/>
<path d="M60.8666 15.499C62.1686 15.499 63.3656 15.078 64.3256 14.368C62.7076 17.104 59.7356 18.932 56.3426 18.932C51.2136 18.932 47.0576 14.776 47.0576 9.66C47.0576 4.531 51.2136 0.375 56.3426 0.375C59.7356 0.375 62.7086 2.20303 64.3256 4.93903C63.3656 4.22903 62.1686 3.80801 60.8666 3.80801C57.6316 3.80801 55.0136 6.42501 55.0136 9.66101C55.0136 12.882 57.6306 15.499 60.8666 15.499Z" stroke="#60423A" stroke-width="0.75" stroke-miterlimit="10" stroke-linecap="round" stroke-linejoin="round"/>
</svg>
