<svg width="119" height="96" viewBox="0 0 119 96" fill="none" xmlns="http://www.w3.org/2000/svg">
<path d="M44.0669 57.0157C40.6219 55.8297 38.9709 52.5127 38.9709 52.5127C38.9709 52.5127 37.9419 41.7487 37.7129 38.4117C37.4769 35.0667 38.5059 34.1017 38.5059 34.1017C52.1779 32.6437 56.7169 23.6387 56.7169 23.6387" stroke="#60423A" stroke-width="0.75" stroke-miterlimit="10" stroke-linecap="round" stroke-linejoin="round"/>
<path d="M37.7113 38.4083C34.7603 35.9753 30.6133 35.6163 27.2883 37.5063L21.1543 40.9913L27.6993 45.7363C30.2263 47.5683 33.5083 47.9983 36.4213 46.8783L38.3733 46.1283" stroke="#60423A" stroke-width="0.75" stroke-miterlimit="10" stroke-linecap="round" stroke-linejoin="round"/>
<path d="M38.5063 34.1035C38.5063 34.1035 35.8573 18.6065 27.5123 17.9105C19.1673 17.2155 17.1803 30.8245 16.4853 34.1035C15.7903 37.3825 13.0693 58.9685 13.0693 58.9685" stroke="#60423A" stroke-width="0.75" stroke-miterlimit="10" stroke-linecap="round" stroke-linejoin="round"/>
<path d="M19.0088 24.7959C19.0088 24.7959 22.8898 10.1589 36.5548 12.0459C42.5508 12.8749 47.1758 15.2189 50.4698 17.5779" stroke="#60423A" stroke-width="0.75" stroke-miterlimit="10" stroke-linecap="round" stroke-linejoin="round"/>
<path d="M29.5 46.7512L22.265 66.6652C19.978 72.9602 11.09 73.0022 8.743 66.7302L0.375 44.3682L12.619 58.4502C15.174 61.3892 19.629 61.6972 22.564 59.1372L26.13 56.0282" stroke="#60423A" stroke-width="0.75" stroke-miterlimit="10" stroke-linecap="round" stroke-linejoin="round"/>
<path d="M48.4229 66.7452L48.6519 66.1442C50.0799 62.3932 53.0019 59.4032 56.7189 57.8892L59.1689 47.4922" stroke="#60423A" stroke-width="0.75" stroke-miterlimit="10" stroke-linecap="round" stroke-linejoin="round"/>
<path d="M59.1691 67.317C59.1691 65.33 57.0831 65.843 55.1291 65.396C53.1751 64.949 53.7961 62.416 53.7961 62.416C53.7961 62.416 52.3481 62.962 52.5131 66.456C52.6791 69.95 55.5261 66.456 57.2481 67.317C58.9701 68.178 59.1691 69.569 59.1691 69.569" stroke="#60423A" stroke-width="0.75" stroke-miterlimit="10" stroke-linecap="round" stroke-linejoin="round"/>
<path d="M45.3004 48.7404C46.442 48.7404 47.3674 47.815 47.3674 46.6734C47.3674 45.5319 46.442 44.6064 45.3004 44.6064C44.1588 44.6064 43.2334 45.5319 43.2334 46.6734C43.2334 47.815 44.1588 48.7404 45.3004 48.7404Z" stroke="#60423A" stroke-width="0.75" stroke-miterlimit="10" stroke-linecap="round" stroke-linejoin="round"/>
<path d="M13.8262 54.6055L19.6562 60.4355" stroke="#60423A" stroke-width="0.75" stroke-miterlimit="10" stroke-linecap="round" stroke-linejoin="round"/>
<path d="M14.9375 46.3477L25.3475 56.7577" stroke="#60423A" stroke-width="0.75" stroke-miterlimit="10" stroke-linecap="round" stroke-linejoin="round"/>
<path d="M15.8682 37.9111L28.2232 50.2661" stroke="#60423A" stroke-width="0.75" stroke-miterlimit="10" stroke-linecap="round" stroke-linejoin="round"/>
<path d="M17.3447 30.0195L25.7207 38.3955" stroke="#60423A" stroke-width="0.75" stroke-miterlimit="10" stroke-linecap="round" stroke-linejoin="round"/>
<path d="M19.6562 22.9629L32.9953 36.3019" stroke="#60423A" stroke-width="0.75" stroke-miterlimit="10" stroke-linecap="round" stroke-linejoin="round"/>
<path d="M24.4521 18.3896L38.0401 31.9777" stroke="#60423A" stroke-width="0.75" stroke-miterlimit="10" stroke-linecap="round" stroke-linejoin="round"/>
<path d="M38.985 70.6588L29.501 59.0598L35.511 47.1738" stroke="#60423A" stroke-width="0.75" stroke-miterlimit="10" stroke-linecap="round" stroke-linejoin="round"/>
<path d="M61.627 23.6387C61.627 23.6387 66.158 32.6507 79.838 34.1087C79.838 34.1087 80.86 35.0667 80.631 38.4117C80.402 41.7567 79.373 52.5197 79.373 52.5197C79.373 52.5197 77.715 55.8287 74.27 57.0227" stroke="#60423A" stroke-width="0.75" stroke-miterlimit="10" stroke-linecap="round" stroke-linejoin="round"/>
<path d="M80.6307 38.4103C83.5817 35.9773 87.7287 35.6183 91.0537 37.5083L97.1877 40.9933L90.6427 45.7382C88.1157 47.5702 84.8337 48.0003 81.9207 46.8803L79.9688 46.1303" stroke="#60423A" stroke-width="0.75" stroke-miterlimit="10" stroke-linecap="round" stroke-linejoin="round"/>
<path d="M79.8359 34.1064C79.8359 34.1064 82.4849 18.6094 90.8299 17.9134C99.1749 17.2184 101.162 30.8274 101.857 34.1064C102.552 37.3844 105.273 58.9714 105.273 58.9714" stroke="#60423A" stroke-width="0.75" stroke-miterlimit="10" stroke-linecap="round" stroke-linejoin="round"/>
<path d="M67.874 17.5847C71.162 15.2187 75.786 12.8817 81.789 12.0527C95.447 10.1657 99.328 24.8027 99.328 24.8027" stroke="#60423A" stroke-width="0.75" stroke-miterlimit="10" stroke-linecap="round" stroke-linejoin="round"/>
<path d="M88.8428 46.7531L96.0778 66.6671C98.3648 72.9621 107.253 73.0041 109.6 66.7321L117.968 44.3701L105.724 58.4521C103.169 61.3911 98.7138 61.6991 95.7788 59.1391L92.2128 56.0301" stroke="#60423A" stroke-width="0.75" stroke-miterlimit="10" stroke-linecap="round" stroke-linejoin="round"/>
<path d="M69.9189 66.7471L69.6899 66.1461C68.2619 62.3951 65.3399 59.4051 61.6229 57.8911L59.1729 47.4941" stroke="#60423A" stroke-width="0.75" stroke-miterlimit="10" stroke-linecap="round" stroke-linejoin="round"/>
<path d="M59.1732 69.5713C59.1732 69.5713 57.7032 77.8783 53.4072 77.8783" stroke="#60423A" stroke-width="0.75" stroke-miterlimit="10" stroke-linecap="round" stroke-linejoin="round"/>
<path d="M59.1729 67.319C59.1729 65.332 61.2589 65.845 63.2129 65.398C65.1669 64.951 64.5459 62.418 64.5459 62.418C64.5459 62.418 65.9939 62.964 65.8289 66.458C65.6629 69.952 62.8159 66.458 61.0939 67.319C59.3719 68.18 59.1729 69.571 59.1729 69.571" stroke="#60423A" stroke-width="0.75" stroke-miterlimit="10" stroke-linecap="round" stroke-linejoin="round"/>
<path d="M73.0426 48.7424C74.1842 48.7424 75.1096 47.817 75.1096 46.6754C75.1096 45.5338 74.1842 44.6084 73.0426 44.6084C71.901 44.6084 70.9756 45.5338 70.9756 46.6754C70.9756 47.817 71.901 48.7424 73.0426 48.7424Z" stroke="#60423A" stroke-width="0.75" stroke-miterlimit="10" stroke-linecap="round" stroke-linejoin="round"/>
<path d="M104.516 54.6074L98.6855 60.4374" stroke="#60423A" stroke-width="0.75" stroke-miterlimit="10" stroke-linecap="round" stroke-linejoin="round"/>
<path d="M103.405 46.3496L92.9951 56.7596" stroke="#60423A" stroke-width="0.75" stroke-miterlimit="10" stroke-linecap="round" stroke-linejoin="round"/>
<path d="M102.474 37.9121L90.1201 50.2671" stroke="#60423A" stroke-width="0.75" stroke-miterlimit="10" stroke-linecap="round" stroke-linejoin="round"/>
<path d="M100.997 30.0215L92.6211 38.3975" stroke="#60423A" stroke-width="0.75" stroke-miterlimit="10" stroke-linecap="round" stroke-linejoin="round"/>
<path d="M98.6857 22.9648L85.3467 36.3038" stroke="#60423A" stroke-width="0.75" stroke-miterlimit="10" stroke-linecap="round" stroke-linejoin="round"/>
<path d="M93.8897 18.3926L80.3027 31.9796" stroke="#60423A" stroke-width="0.75" stroke-miterlimit="10" stroke-linecap="round" stroke-linejoin="round"/>
<path d="M58.5508 33.7661L55.4158 31.5361L57.7058 34.6281L50.7588 35.2681L57.7178 35.8341L55.4888 38.9701L58.5798 36.6791L59.2198 45.7291L59.7858 36.6681L62.9218 38.8971L60.6318 35.8061L67.5788 35.1661L60.6198 34.5991L62.8488 31.4641L59.7578 33.7541L59.1178 24.7051L58.5508 33.7661Z" stroke="#60423A" stroke-width="0.75" stroke-miterlimit="10" stroke-linecap="round" stroke-linejoin="round"/>
<path d="M67.8737 17.585C63.6717 20.594 61.6267 23.639 61.6267 23.639H56.7167C56.7167 23.639 54.6727 20.594 50.4697 17.578L59.1677 0.375L67.8737 17.585Z" stroke="#60423A" stroke-width="0.75" stroke-miterlimit="10" stroke-linecap="round" stroke-linejoin="round"/>
<path d="M82.8324 47.1807L88.8434 59.0597L79.3594 70.6657" stroke="#60423A" stroke-width="0.75" stroke-miterlimit="10" stroke-linecap="round" stroke-linejoin="round"/>
<path d="M79.3594 70.6656L59.1764 95.3587L38.9854 70.6587L44.0674 57.0146L48.4274 66.7417L53.4093 77.8766C53.4093 77.8766 55.1603 80.1996 59.1703 80.1996H59.1774C63.1794 80.1996 64.9383 77.8837 64.9383 77.8837L69.9203 66.7486L74.2734 57.0217L79.3594 70.6656Z" stroke="#60423A" stroke-width="0.75" stroke-miterlimit="10" stroke-linecap="round" stroke-linejoin="round"/>
<path d="M61.9884 18.4524C62.6964 18.4524 63.3464 18.2234 63.8684 17.8374C62.9894 19.3244 61.3744 20.3174 59.5304 20.3174C56.7434 20.3174 54.4844 18.0594 54.4844 15.2784C54.4844 12.4914 56.7424 10.2324 59.5304 10.2324C61.3744 10.2324 62.9894 11.2254 63.8684 12.7124C63.3464 12.3264 62.6964 12.0974 61.9884 12.0974C60.2304 12.0974 58.8084 13.5194 58.8084 15.2774C58.8074 17.0304 60.2304 18.4524 61.9884 18.4524Z" stroke="#60423A" stroke-width="0.75" stroke-miterlimit="10" stroke-linecap="round" stroke-linejoin="round"/>
<path d="M96.627 40.9102H80.687C74.467 40.9102 68.759 44.3542 65.859 49.8562L61.624 57.8902" stroke="#60423A" stroke-width="0.75" stroke-miterlimit="10" stroke-linecap="round" stroke-linejoin="round"/>
<path d="M59.1689 69.5713C59.1689 69.5713 60.6389 77.8783 64.9349 77.8783" stroke="#60423A" stroke-width="0.75" stroke-miterlimit="10" stroke-linecap="round" stroke-linejoin="round"/>
<path d="M49.9167 5.913C47.1617 7.932 46.9857 11.451 46.9857 11.451C46.9857 11.451 46.8097 7.932 44.0547 5.913C46.8097 3.894 46.9857 0.375 46.9857 0.375C46.9857 0.375 47.1617 3.894 49.9167 5.913Z" stroke="#60423A" stroke-width="0.75" stroke-miterlimit="10" stroke-linecap="round" stroke-linejoin="round"/>
<path d="M30.1833 74.8241C27.4283 76.8431 27.2523 80.3621 27.2523 80.3621C27.2523 80.3621 27.0763 76.8431 24.3213 74.8241C27.0763 72.8051 27.2523 69.2861 27.2523 69.2861C27.2523 69.2861 27.4283 72.8051 30.1833 74.8241Z" stroke="#60423A" stroke-width="0.75" stroke-miterlimit="10" stroke-linecap="round" stroke-linejoin="round"/>
<path d="M94.029 74.8241C91.274 76.8431 91.098 80.3621 91.098 80.3621C91.098 80.3621 90.922 76.8431 88.167 74.8241C90.922 72.8051 91.098 69.2861 91.098 69.2861C91.098 69.2861 91.274 72.8051 94.029 74.8241Z" stroke="#60423A" stroke-width="0.75" stroke-miterlimit="10" stroke-linecap="round" stroke-linejoin="round"/>
<path d="M21.4834 40.9102H37.4234C43.6434 40.9102 49.3514 44.3542 52.2514 49.8562L56.4864 57.8902" stroke="#60423A" stroke-width="0.75" stroke-miterlimit="10" stroke-linecap="round" stroke-linejoin="round"/>
</svg>
