<svg width="94" height="102" viewBox="0 0 94 102" fill="none" xmlns="http://www.w3.org/2000/svg">
<path d="M26.9883 74.2184C26.5883 73.7394 26.1803 73.2464 25.7803 72.7314" stroke="#60423A" stroke-width="0.75" stroke-miterlimit="10" stroke-linecap="round" stroke-linejoin="round"/>
<path d="M22.8434 68.4433C22.6794 68.1643 22.5144 67.8933 22.3574 67.6143" stroke="#60423A" stroke-width="0.75" stroke-miterlimit="10" stroke-linecap="round" stroke-linejoin="round"/>
<path d="M20.1768 62.8747C20.0338 62.4527 19.9049 62.0457 19.7979 61.6387" stroke="#60423A" stroke-width="0.75" stroke-miterlimit="10" stroke-linecap="round" stroke-linejoin="round"/>
<path d="M19.6621 56.4931C19.7411 56.2361 19.8411 55.9781 19.9621 55.7351C20.0621 55.5281 20.1691 55.3201 20.2841 55.1201" stroke="#60423A" stroke-width="0.75" stroke-miterlimit="10" stroke-linecap="round" stroke-linejoin="round"/>
<path d="M20.2837 55.1213C19.1547 53.9563 18.4688 52.3693 18.4688 50.6183C18.4688 47.0303 21.3847 44.1143 24.9797 44.1143C26.7597 44.1143 28.3677 44.8293 29.5467 45.9943C26.0447 47.8093 22.6357 50.6683 20.2837 55.1213Z" stroke="#60423A" stroke-width="0.75" stroke-miterlimit="10" stroke-linecap="round" stroke-linejoin="round"/>
<path d="M22.3573 67.614C22.0643 67.693 21.7423 67.721 21.4213 67.685C19.9633 67.542 18.8983 66.241 19.0483 64.79C19.1273 63.982 19.5553 63.303 20.1773 62.875C20.7063 64.426 21.4633 66.034 22.3573 67.614Z" stroke="#60423A" stroke-width="0.75" stroke-miterlimit="10" stroke-linecap="round" stroke-linejoin="round"/>
<path d="M30.7051 77.9488C30.1831 78.3558 29.5111 78.5778 28.7971 78.5058C27.3391 78.3558 26.2811 77.0618 26.4241 75.6038C26.4741 75.0748 26.6811 74.6028 26.9891 74.2168C28.2891 75.7468 29.5831 77.0478 30.7051 77.9488Z" stroke="#60423A" stroke-width="0.75" stroke-miterlimit="10" stroke-linecap="round" stroke-linejoin="round"/>
<path d="M19.7983 61.6392C18.4973 61.3602 17.5973 60.1382 17.7333 58.7872C17.8473 57.6652 18.6413 56.7792 19.6633 56.4932C19.1983 57.9722 19.3053 59.7452 19.7983 61.6392Z" stroke="#60423A" stroke-width="0.75" stroke-miterlimit="10" stroke-linecap="round" stroke-linejoin="round"/>
<path d="M22.843 68.4434C23.744 69.9444 24.751 71.3954 25.781 72.7314C25.381 72.9034 24.93 72.9814 24.466 72.9384C23.008 72.7884 21.95 71.4874 22.093 70.0364C22.157 69.4084 22.435 68.8574 22.843 68.4434Z" stroke="#60423A" stroke-width="0.75" stroke-miterlimit="10" stroke-linecap="round" stroke-linejoin="round"/>
<path d="M18.7589 56.9507L9.58496 54.0967C9.58496 54.0967 9.58494 59.8257 18.7589 61.1497" stroke="#60423A" stroke-width="0.75" stroke-miterlimit="10" stroke-linecap="round" stroke-linejoin="round"/>
<path d="M9.58398 54.0968L12.714 39.5928L14.171 55.5238L9.58398 54.0968Z" stroke="#60423A" stroke-width="0.75" stroke-miterlimit="10" stroke-linecap="round" stroke-linejoin="round"/>
<path d="M20.7031 67.5098L5.66113 68.9078C5.66113 68.9078 9.99812 63.0548 19.2501 63.6228" stroke="#60423A" stroke-width="0.75" stroke-miterlimit="10" stroke-linecap="round" stroke-linejoin="round"/>
<path d="M5.65967 68.9084L2.38867 81.0394L10.4417 68.4434L5.65967 68.9084Z" stroke="#60423A" stroke-width="0.75" stroke-miterlimit="10" stroke-linecap="round" stroke-linejoin="round"/>
<path d="M24.5564 72.9692L10.7324 78.6472C10.7324 78.6472 13.1654 71.7812 22.1794 69.6162" stroke="#60423A" stroke-width="0.75" stroke-miterlimit="10" stroke-linecap="round" stroke-linejoin="round"/>
<path d="M10.7324 78.6467L11.1554 91.2047L15.1684 76.8027L10.7324 78.6467Z" stroke="#60423A" stroke-width="0.75" stroke-miterlimit="10" stroke-linecap="round" stroke-linejoin="round"/>
<path d="M26.4236 75.6035C26.4236 75.6035 13.1817 82.0605 15.3467 88.1705L28.7966 78.5055" stroke="#60423A" stroke-width="0.75" stroke-miterlimit="10" stroke-linecap="round" stroke-linejoin="round"/>
<path d="M15.3457 88.1711L18.4587 92.5091C18.4587 92.5091 21.2717 91.6531 19.8817 84.9121" stroke="#60423A" stroke-width="0.75" stroke-miterlimit="10" stroke-linecap="round" stroke-linejoin="round"/>
<path d="M18.4567 92.3587C18.4147 93.5377 18.3837 94.7258 18.5867 95.8878C18.7897 97.0498 19.2437 98.1958 20.0587 99.0488C20.8217 99.8478 21.8617 100.345 22.9377 100.595C24.0137 100.845 25.1317 100.86 26.2347 100.804C26.7497 100.778 27.3117 100.715 27.6747 100.349C27.9547 100.066 28.0587 99.6567 28.1207 99.2637C28.4797 96.9987 27.7697 94.5878 26.2397 92.8788C24.7097 91.1698 22.3927 90.1978 20.1017 90.3038" stroke="#60423A" stroke-width="0.75" stroke-miterlimit="10" stroke-linecap="round" stroke-linejoin="round"/>
<path d="M18.4694 50.6185C18.4694 50.6185 11.9264 35.8065 20.1414 33.5215L23.0994 44.3925" stroke="#60423A" stroke-width="0.75" stroke-miterlimit="10" stroke-linecap="round" stroke-linejoin="round"/>
<path d="M20.1406 33.521C20.1406 33.521 27.0776 13.321 44.8266 26.269L36.8016 27.729C36.8016 27.729 34.3626 28.322 33.4356 30.905C33.4356 30.905 33.7296 41.614 21.3636 38.014" stroke="#60423A" stroke-width="0.75" stroke-miterlimit="10" stroke-linecap="round" stroke-linejoin="round"/>
<path d="M21.6484 39.063C21.6484 39.063 26.0174 42 33.1044 38.754C40.1914 35.508 43.0385 30.0439 43.0385 30.0439L33.3705 31.9559" stroke="#60423A" stroke-width="0.75" stroke-miterlimit="10" stroke-linecap="round" stroke-linejoin="round"/>
<path d="M46.8751 23.467C53.2518 23.467 58.4211 18.2977 58.4211 11.921C58.4211 5.54432 53.2518 0.375 46.8751 0.375C40.4984 0.375 35.3291 5.54432 35.3291 11.921C35.3291 18.2977 40.4984 23.467 46.8751 23.467Z" stroke="#60423A" stroke-width="0.75" stroke-miterlimit="10" stroke-linecap="round" stroke-linejoin="round"/>
<path d="M50.4648 19.7196C54.8582 19.7196 58.4198 16.158 58.4198 11.7646C58.4198 7.37115 54.8582 3.80957 50.4648 3.80957C46.0713 3.80957 42.5098 7.37115 42.5098 11.7646C42.5098 16.158 46.0713 19.7196 50.4648 19.7196Z" stroke="#60423A" stroke-width="0.75" stroke-miterlimit="10" stroke-linecap="round" stroke-linejoin="round"/>
<path d="M63.0441 77.9492C61.9581 78.8212 61.0361 79.3282 60.4211 79.3282C56.9471 79.3282 36.8011 79.3282 33.3271 79.3282C32.7121 79.3282 31.7901 78.8212 30.7041 77.9492" stroke="#60423A" stroke-width="0.75" stroke-miterlimit="10" stroke-linecap="round" stroke-linejoin="round"/>
<path d="M67.9688 72.7314C67.5687 73.2464 67.1607 73.7394 66.7607 74.2184" stroke="#60423A" stroke-width="0.75" stroke-miterlimit="10" stroke-linecap="round" stroke-linejoin="round"/>
<path d="M71.3922 67.6143C71.2352 67.8933 71.0703 68.1643 70.9062 68.4433" stroke="#60423A" stroke-width="0.75" stroke-miterlimit="10" stroke-linecap="round" stroke-linejoin="round"/>
<path d="M73.9513 61.6387C73.8443 62.0457 73.7153 62.4537 73.5723 62.8747" stroke="#60423A" stroke-width="0.75" stroke-miterlimit="10" stroke-linecap="round" stroke-linejoin="round"/>
<path d="M73.4648 55.1211C73.5788 55.3211 73.6869 55.5281 73.7869 55.7361C73.9079 55.9791 74.0089 56.2361 74.0869 56.4941" stroke="#60423A" stroke-width="0.75" stroke-miterlimit="10" stroke-linecap="round" stroke-linejoin="round"/>
<path d="M64.2019 45.9941C57.1409 42.3131 36.6079 42.3131 29.5469 45.9941" stroke="#60423A" stroke-width="0.75" stroke-miterlimit="10" stroke-linecap="round" stroke-linejoin="round"/>
<path d="M73.4651 55.1213C74.5941 53.9563 75.2802 52.3693 75.2802 50.6183C75.2802 47.0303 72.3642 44.1143 68.7692 44.1143C66.9892 44.1143 65.3811 44.8293 64.2021 45.9943C67.7041 47.8093 71.1131 50.6683 73.4651 55.1213Z" stroke="#60423A" stroke-width="0.75" stroke-miterlimit="10" stroke-linecap="round" stroke-linejoin="round"/>
<path d="M71.3916 67.614C71.6846 67.693 72.0066 67.721 72.3276 67.685C73.7856 67.542 74.8506 66.241 74.7006 64.79C74.6216 63.982 74.1926 63.303 73.5716 62.875C73.0426 64.426 72.2856 66.035 71.3916 67.614Z" stroke="#60423A" stroke-width="0.75" stroke-miterlimit="10" stroke-linecap="round" stroke-linejoin="round"/>
<path d="M63.0439 77.9488C63.5659 78.3558 64.2379 78.5778 64.9519 78.5058C66.4099 78.3558 67.468 77.0618 67.325 75.6038C67.275 75.0748 67.0679 74.6028 66.7599 74.2168C65.4599 75.7468 64.1659 77.0478 63.0439 77.9488Z" stroke="#60423A" stroke-width="0.75" stroke-miterlimit="10" stroke-linecap="round" stroke-linejoin="round"/>
<path d="M73.9512 61.6392C75.2522 61.3602 76.1522 60.1382 76.0162 58.7872C75.9022 57.6652 75.1082 56.7792 74.0862 56.4932C74.5512 57.9732 74.4442 59.7452 73.9512 61.6392Z" stroke="#60423A" stroke-width="0.75" stroke-miterlimit="10" stroke-linecap="round" stroke-linejoin="round"/>
<path d="M70.9058 68.4434C70.0048 69.9444 68.9978 71.3954 67.9678 72.7314C68.3678 72.9034 68.8188 72.9814 69.2828 72.9384C70.7408 72.7884 71.7988 71.4874 71.6558 70.0364C71.5918 69.4084 71.3138 68.8584 70.9058 68.4434Z" stroke="#60423A" stroke-width="0.75" stroke-miterlimit="10" stroke-linecap="round" stroke-linejoin="round"/>
<path d="M74.9902 56.9507L84.1642 54.0967C84.1642 54.0967 84.1642 59.8257 74.9902 61.1497" stroke="#60423A" stroke-width="0.75" stroke-miterlimit="10" stroke-linecap="round" stroke-linejoin="round"/>
<path d="M84.1651 54.0968L81.0351 39.5928L79.5781 55.5238L84.1651 54.0968Z" stroke="#60423A" stroke-width="0.75" stroke-miterlimit="10" stroke-linecap="round" stroke-linejoin="round"/>
<path d="M73.0459 67.5098L88.0879 68.9078C88.0879 68.9078 83.7509 63.0548 74.4989 63.6228" stroke="#60423A" stroke-width="0.75" stroke-miterlimit="10" stroke-linecap="round" stroke-linejoin="round"/>
<path d="M88.0887 68.9084L91.3596 81.0404L83.3066 68.4434L88.0887 68.9084Z" stroke="#60423A" stroke-width="0.75" stroke-miterlimit="10" stroke-linecap="round" stroke-linejoin="round"/>
<path d="M69.1465 72.9502L83.0175 78.6472C83.0175 78.6472 80.5845 71.7812 71.5705 69.6162" stroke="#60423A" stroke-width="0.75" stroke-miterlimit="10" stroke-linecap="round" stroke-linejoin="round"/>
<path d="M83.017 78.6477L82.5941 91.2047L78.5811 76.8037L83.017 78.6477Z" stroke="#60423A" stroke-width="0.75" stroke-miterlimit="10" stroke-linecap="round" stroke-linejoin="round"/>
<path d="M67.3252 75.6055C67.3252 75.6055 80.5672 82.0625 78.4022 88.1725L64.9521 78.5075" stroke="#60423A" stroke-width="0.75" stroke-miterlimit="10" stroke-linecap="round" stroke-linejoin="round"/>
<path d="M78.4033 88.1711L75.2902 92.5091C75.2902 92.5091 72.4772 91.6531 73.8672 84.9121" stroke="#60423A" stroke-width="0.75" stroke-miterlimit="10" stroke-linecap="round" stroke-linejoin="round"/>
<path d="M75.2918 92.3587C75.3338 93.5377 75.3648 94.7258 75.1618 95.8878C74.9588 97.0498 74.5048 98.1958 73.6898 99.0488C72.9268 99.8478 71.8868 100.345 70.8108 100.595C69.7348 100.845 68.6178 100.86 67.5138 100.804C66.9988 100.778 66.4368 100.715 66.0738 100.349C65.7938 100.066 65.6898 99.6567 65.6278 99.2637C65.2688 96.9987 65.9788 94.5878 67.5088 92.8788C69.0378 91.1698 71.3558 90.1978 73.6468 90.3038" stroke="#60423A" stroke-width="0.75" stroke-miterlimit="10" stroke-linecap="round" stroke-linejoin="round"/>
<path d="M75.2804 50.6185C75.2804 50.6185 81.8234 35.8065 73.6084 33.5215L70.6504 44.3925" stroke="#60423A" stroke-width="0.75" stroke-miterlimit="10" stroke-linecap="round" stroke-linejoin="round"/>
<path d="M73.6079 33.521C73.6079 33.521 66.6709 13.321 48.9219 26.269L56.9469 27.729C56.9469 27.729 59.3859 28.322 60.3129 30.905C60.3129 30.905 60.0189 41.614 72.3849 38.014" stroke="#60423A" stroke-width="0.75" stroke-miterlimit="10" stroke-linecap="round" stroke-linejoin="round"/>
<path d="M72.101 39.063C72.101 39.063 67.732 42 60.645 38.754C53.559 35.508 50.7109 30.0439 50.7109 30.0439L60.3789 31.9559" stroke="#60423A" stroke-width="0.75" stroke-miterlimit="10" stroke-linecap="round" stroke-linejoin="round"/>
<path d="M46.2702 59.197L42.0512 56.197L45.1332 60.357L35.7832 61.219L45.1492 61.981L42.1482 66.201L46.3082 63.119L47.1702 75.298L47.9332 63.103L52.1522 66.103L49.0702 61.943L58.4202 61.081L49.0542 60.319L52.0552 56.099L47.8942 59.181L47.0332 47.002L46.2702 59.197Z" stroke="#60423A" stroke-width="0.75" stroke-miterlimit="10" stroke-linecap="round" stroke-linejoin="round"/>
<path d="M35.8809 53.5436C32.9039 55.7256 32.7139 59.5286 32.7139 59.5286C32.7139 59.5286 32.5239 55.7256 29.5469 53.5436C32.5239 51.3616 32.7139 47.5586 32.7139 47.5586C32.7139 47.5586 32.9039 51.3616 35.8809 53.5436Z" stroke="#60423A" stroke-width="0.75" stroke-miterlimit="10" stroke-linecap="round" stroke-linejoin="round"/>
<path d="M62.7139 70.6969C59.7369 72.8789 59.5469 76.6819 59.5469 76.6819C59.5469 76.6819 59.3569 72.8789 56.3799 70.6969C59.3569 68.5149 59.5469 64.7119 59.5469 64.7119C59.5469 64.7119 59.7369 68.5149 62.7139 70.6969Z" stroke="#60423A" stroke-width="0.75" stroke-miterlimit="10" stroke-linecap="round" stroke-linejoin="round"/>
<path d="M20.1768 62.875H32.0438" stroke="#60423A" stroke-width="0.75" stroke-miterlimit="10" stroke-linecap="round" stroke-linejoin="round"/>
<path d="M22.8428 68.4434H29.0638" stroke="#60423A" stroke-width="0.75" stroke-miterlimit="10" stroke-linecap="round" stroke-linejoin="round"/>
<path d="M25.7803 72.7314H28.0713" stroke="#60423A" stroke-width="0.75" stroke-miterlimit="10" stroke-linecap="round" stroke-linejoin="round"/>
<path d="M74.0872 56.4932H64.2021" stroke="#60423A" stroke-width="0.75" stroke-miterlimit="10" stroke-linecap="round" stroke-linejoin="round"/>
<path d="M73.5717 62.876H66.7607" stroke="#60423A" stroke-width="0.75" stroke-miterlimit="10" stroke-linecap="round" stroke-linejoin="round"/>
<path d="M70.9065 68.4434H68.2715" stroke="#60423A" stroke-width="0.75" stroke-miterlimit="10" stroke-linecap="round" stroke-linejoin="round"/>
<path d="M40.0002 41.2769C41.1799 41.2769 42.1363 40.3206 42.1363 39.1409C42.1363 37.9612 41.1799 37.0049 40.0002 37.0049C38.8206 37.0049 37.8643 37.9612 37.8643 39.1409C37.8643 40.3206 38.8206 41.2769 40.0002 41.2769Z" stroke="#60423A" stroke-width="0.75" stroke-miterlimit="10" stroke-linecap="round" stroke-linejoin="round"/>
<path d="M53.7493 41.2769C54.929 41.2769 55.8853 40.3206 55.8853 39.1409C55.8853 37.9612 54.929 37.0049 53.7493 37.0049C52.5696 37.0049 51.6133 37.9612 51.6133 39.1409C51.6133 40.3206 52.5696 41.2769 53.7493 41.2769Z" stroke="#60423A" stroke-width="0.75" stroke-miterlimit="10" stroke-linecap="round" stroke-linejoin="round"/>
<path d="M32.8549 10.4186C29.8829 7.76261 25.2539 7.9466 22.5109 10.9706C19.5909 14.1896 14.5319 14.1896 11.6119 10.9706C8.69188 7.7516 3.63289 7.7516 0.712891 10.9706" stroke="#60423A" stroke-width="0.75" stroke-miterlimit="10" stroke-linecap="round" stroke-linejoin="round"/>
<path d="M32.517 14.1051C29.545 11.4491 24.916 11.6331 22.173 14.6571C19.253 17.8761 14.194 17.8761 11.274 14.6571C8.35402 11.4381 3.295 11.4381 0.375 14.6571" stroke="#60423A" stroke-width="0.75" stroke-miterlimit="10" stroke-linecap="round" stroke-linejoin="round"/>
<path d="M32.517 17.9577C29.545 15.3017 24.916 15.4857 22.173 18.5097C19.253 21.7287 14.194 21.7287 11.274 18.5097C8.35402 15.2907 3.295 15.2907 0.375 18.5097" stroke="#60423A" stroke-width="0.75" stroke-miterlimit="10" stroke-linecap="round" stroke-linejoin="round"/>
<path d="M93.3754 10.9665C90.4034 8.31046 85.7744 8.49446 83.0314 11.5185C80.1114 14.7375 75.0524 14.7375 72.1324 11.5185C69.2124 8.29946 64.1534 8.29946 61.2334 11.5185" stroke="#60423A" stroke-width="0.75" stroke-miterlimit="10" stroke-linecap="round" stroke-linejoin="round"/>
<path d="M93.0365 14.652C90.0645 11.996 85.4355 12.18 82.6925 15.204C79.7725 18.423 74.7135 18.423 71.7935 15.204C68.8735 11.985 63.8145 11.985 60.8945 15.204" stroke="#60423A" stroke-width="0.75" stroke-miterlimit="10" stroke-linecap="round" stroke-linejoin="round"/>
<path d="M93.0365 18.5045C90.0645 15.8485 85.4355 16.0325 82.6925 19.0565C79.7725 22.2755 74.7135 22.2755 71.7935 19.0565C68.8735 15.8375 63.8145 15.8375 60.8945 19.0565" stroke="#60423A" stroke-width="0.75" stroke-miterlimit="10" stroke-linecap="round" stroke-linejoin="round"/>
</svg>
