<svg width="75" height="107" viewBox="0 0 75 107" fill="none" xmlns="http://www.w3.org/2000/svg">
<path d="M29.624 91.4023L33.593 96.8023H37.439V100.74" stroke="#60423A" stroke-width="0.75" stroke-miterlimit="10" stroke-linecap="round" stroke-linejoin="round"/>
<path d="M37.4346 49.2861H35.5186" stroke="#60423A" stroke-width="0.75" stroke-miterlimit="10" stroke-linecap="round" stroke-linejoin="round"/>
<path d="M27.2283 53.1533C27.2283 53.1533 21.8863 57.2243 21.2243 60.2353C21.1803 60.4293 21.1533 60.6323 21.1533 60.8183C21.1533 63.8563 22.6893 65.6043 22.6893 65.6043C22.6893 65.6043 23.5633 76.8363 23.7313 80.4303C23.8993 84.0153 27.8283 86.2493 27.8283 86.2493" stroke="#60423A" stroke-width="0.75" stroke-miterlimit="10" stroke-linecap="round" stroke-linejoin="round"/>
<path d="M31.8574 83.458C32.0724 84.226 32.7154 84.795 33.3744 85.244C34.0334 85.693 34.7544 86.081 35.2724 86.688C35.9624 87.498 36.2044 88.668 35.8924 89.686" stroke="#60423A" stroke-width="0.75" stroke-miterlimit="10" stroke-linecap="round" stroke-linejoin="round"/>
<path d="M32.1374 84.2314C31.7514 85.3834 31.9964 86.7255 32.7634 87.6685C33.5304 88.6115 34.7954 89.1214 36.0024 88.9774" stroke="#60423A" stroke-width="0.75" stroke-miterlimit="10" stroke-linecap="round" stroke-linejoin="round"/>
<path d="M33.5927 96.8018C33.5927 96.8018 32.7587 97.6558 32.5957 100.095C32.4317 102.534 37.4387 106.539 37.4387 106.539" stroke="#60423A" stroke-width="0.75" stroke-miterlimit="10" stroke-linecap="round" stroke-linejoin="round"/>
<path d="M35.0146 99.6657L36.0016 96.8018" stroke="#60423A" stroke-width="0.75" stroke-miterlimit="10" stroke-linecap="round" stroke-linejoin="round"/>
<path d="M21.3857 60.2559C21.3857 60.2559 37.4388 59.3069 37.4388 74.4239L27.8247 86.2469C27.8247 86.2469 26.9247 90.9109 31.5067 92.4659C36.0887 94.0209 37.4388 91.4019 37.4388 91.4019" stroke="#60423A" stroke-width="0.75" stroke-miterlimit="10" stroke-linecap="round" stroke-linejoin="round"/>
<path d="M26.4867 66.2879C27.5548 66.2879 28.4207 65.422 28.4207 64.3539C28.4207 63.2858 27.5548 62.4199 26.4867 62.4199C25.4186 62.4199 24.5527 63.2858 24.5527 64.3539C24.5527 65.422 25.4186 66.2879 26.4867 66.2879Z" stroke="#60423A" stroke-width="0.75" stroke-miterlimit="10" stroke-linecap="round" stroke-linejoin="round"/>
<path d="M35.519 49.2862L27.227 53.1542L20.057 27.4502C19.077 23.9442 16.869 20.9072 13.832 18.9022L0.375 9.99219L18.256 16.0672C22.759 17.5952 26.283 21.1622 27.766 25.6832L35.519 49.2862Z" stroke="#60423A" stroke-width="0.75" stroke-miterlimit="10" stroke-linecap="round" stroke-linejoin="round"/>
<path d="M3.64453 50.4898L22.5395 57.7268M3.64453 50.4898C3.64453 50.4898 6.74254 64.4108 22.5395 57.7268M3.64453 50.4898C20.3565 43.5758 22.5395 57.7268 22.5395 57.7268" stroke="#60423A" stroke-width="0.75" stroke-miterlimit="10" stroke-linecap="round" stroke-linejoin="round"/>
<path d="M31.9562 103.416C16.3922 100.806 4.5332 87.2704 4.5332 70.9654C4.5332 66.6584 5.3602 62.5444 6.8652 58.7744" stroke="#60423A" stroke-width="0.75" stroke-miterlimit="10" stroke-linecap="round" stroke-linejoin="round"/>
<path d="M9.37097 13.0479L7.62598 14.7918" stroke="#60423A" stroke-width="0.75" stroke-miterlimit="10" stroke-linecap="round" stroke-linejoin="round"/>
<path d="M19.3863 16.5039L15.6113 20.2779" stroke="#60423A" stroke-width="0.75" stroke-miterlimit="10" stroke-linecap="round" stroke-linejoin="round"/>
<path d="M26.5039 22.8545L20.4619 28.8965" stroke="#60423A" stroke-width="0.75" stroke-miterlimit="10" stroke-linecap="round" stroke-linejoin="round"/>
<path d="M30.0864 32.7441L23.4004 39.4301" stroke="#60423A" stroke-width="0.75" stroke-miterlimit="10" stroke-linecap="round" stroke-linejoin="round"/>
<path d="M33.3119 42.9873L26.3379 49.9623" stroke="#60423A" stroke-width="0.75" stroke-miterlimit="10" stroke-linecap="round" stroke-linejoin="round"/>
<path d="M19.3524 74.4174C15.6744 77.1135 15.4394 81.8125 15.4394 81.8125C15.4394 81.8125 15.2044 77.1135 11.5264 74.4174C15.2044 71.7214 15.4394 67.0225 15.4394 67.0225C15.4394 67.0225 15.6744 71.7214 19.3524 74.4174Z" stroke="#60423A" stroke-width="0.75" stroke-miterlimit="10" stroke-linecap="round" stroke-linejoin="round"/>
<path d="M45.2534 91.4023L41.2845 96.8023H37.4395V100.74" stroke="#60423A" stroke-width="0.75" stroke-miterlimit="10" stroke-linecap="round" stroke-linejoin="round"/>
<path d="M39.3584 49.2861H37.4424" stroke="#60423A" stroke-width="0.75" stroke-miterlimit="10" stroke-linecap="round" stroke-linejoin="round"/>
<path d="M47.0488 86.2493C47.0488 86.2493 50.9778 84.0153 51.1458 80.4303C51.3138 76.8363 52.1878 65.6043 52.1878 65.6043C52.1878 65.6043 53.7238 63.8563 53.7238 60.8183C53.7238 60.6333 53.6978 60.4293 53.6528 60.2353C52.9908 57.2243 47.6488 53.1533 47.6488 53.1533" stroke="#60423A" stroke-width="0.75" stroke-miterlimit="10" stroke-linecap="round" stroke-linejoin="round"/>
<path d="M43.0208 83.458C42.8058 84.226 42.1628 84.795 41.5038 85.244C40.8448 85.693 40.1238 86.081 39.6058 86.688C38.9158 87.498 38.6738 88.668 38.9858 89.686" stroke="#60423A" stroke-width="0.75" stroke-miterlimit="10" stroke-linecap="round" stroke-linejoin="round"/>
<path d="M42.74 84.2314C43.126 85.3834 42.881 86.7255 42.114 87.6685C41.347 88.6115 40.082 89.1214 38.875 88.9774" stroke="#60423A" stroke-width="0.75" stroke-miterlimit="10" stroke-linecap="round" stroke-linejoin="round"/>
<path d="M41.2845 96.8018C41.2845 96.8018 42.1185 97.6558 42.2815 100.095C42.4455 102.534 37.4385 106.539 37.4385 106.539" stroke="#60423A" stroke-width="0.75" stroke-miterlimit="10" stroke-linecap="round" stroke-linejoin="round"/>
<path d="M39.862 99.6657L38.876 96.8018" stroke="#60423A" stroke-width="0.75" stroke-miterlimit="10" stroke-linecap="round" stroke-linejoin="round"/>
<path d="M53.4915 60.2559C53.4915 60.2559 37.4385 59.3069 37.4385 74.4239L47.0525 86.2469C47.0525 86.2469 47.9525 90.9109 43.3705 92.4659C38.7885 94.0209 37.4385 91.4019 37.4385 91.4019" stroke="#60423A" stroke-width="0.75" stroke-miterlimit="10" stroke-linecap="round" stroke-linejoin="round"/>
<path d="M48.39 66.2879C49.4582 66.2879 50.3241 65.422 50.3241 64.3539C50.3241 63.2858 49.4582 62.4199 48.39 62.4199C47.3219 62.4199 46.4561 63.2858 46.4561 64.3539C46.4561 65.422 47.3219 66.2879 48.39 66.2879Z" stroke="#60423A" stroke-width="0.75" stroke-miterlimit="10" stroke-linecap="round" stroke-linejoin="round"/>
<path d="M39.3584 49.2862L47.6504 53.1542L54.8204 27.4502C55.8004 23.9442 58.0084 20.9072 61.0454 18.9022L74.5024 9.99219L56.6214 16.0672C52.1184 17.5952 48.5944 21.1622 47.1114 25.6832L39.3584 49.2862Z" stroke="#60423A" stroke-width="0.75" stroke-miterlimit="10" stroke-linecap="round" stroke-linejoin="round"/>
<path d="M71.2319 50.4898L52.3369 57.7268M71.2319 50.4898C71.2319 50.4898 68.1349 64.4108 52.3369 57.7268M71.2319 50.4898C54.5199 43.5758 52.3369 57.7268 52.3369 57.7268" stroke="#60423A" stroke-width="0.75" stroke-miterlimit="10" stroke-linecap="round" stroke-linejoin="round"/>
<path d="M42.9209 103.416C58.4849 100.806 70.3439 87.2704 70.3439 70.9654C70.3439 66.6584 69.5169 62.5444 68.0119 58.7744" stroke="#60423A" stroke-width="0.75" stroke-miterlimit="10" stroke-linecap="round" stroke-linejoin="round"/>
<path d="M65.5068 13.0479L67.2518 14.7918" stroke="#60423A" stroke-width="0.75" stroke-miterlimit="10" stroke-linecap="round" stroke-linejoin="round"/>
<path d="M55.4922 16.5039L59.2662 20.2779" stroke="#60423A" stroke-width="0.75" stroke-miterlimit="10" stroke-linecap="round" stroke-linejoin="round"/>
<path d="M48.373 22.8545L54.4151 28.8965" stroke="#60423A" stroke-width="0.75" stroke-miterlimit="10" stroke-linecap="round" stroke-linejoin="round"/>
<path d="M44.791 32.7441L51.477 39.4301" stroke="#60423A" stroke-width="0.75" stroke-miterlimit="10" stroke-linecap="round" stroke-linejoin="round"/>
<path d="M41.5654 42.9873L48.5404 49.9623" stroke="#60423A" stroke-width="0.75" stroke-miterlimit="10" stroke-linecap="round" stroke-linejoin="round"/>
<path d="M55.5254 74.4174C59.2034 77.1135 59.4384 81.8125 59.4384 81.8125C59.4384 81.8125 59.6734 77.1135 63.3514 74.4174C59.6734 71.7214 59.4384 67.0225 59.4384 67.0225C59.4384 67.0225 59.2034 71.7214 55.5254 74.4174Z" stroke="#60423A" stroke-width="0.75" stroke-miterlimit="10" stroke-linecap="round" stroke-linejoin="round"/>
<path d="M37.7414 17.557C42.4861 17.557 46.3324 13.7107 46.3324 8.966C46.3324 4.22132 42.4861 0.375 37.7414 0.375C32.9967 0.375 29.1504 4.22132 29.1504 8.966C29.1504 13.7107 32.9967 17.557 37.7414 17.557Z" stroke="#60423A" stroke-width="0.75" stroke-miterlimit="10" stroke-linecap="round" stroke-linejoin="round"/>
<path d="M46.3557 4.352C49.2397 4.01 51.2067 4.27003 51.5347 5.20903C52.1667 7.01303 46.5037 10.64 38.8857 13.31C31.2677 15.98 24.5787 16.683 23.9467 14.879C23.6007 13.893 25.1367 12.362 27.8447 10.74" stroke="#60423A" stroke-width="0.75" stroke-miterlimit="10" stroke-linecap="round" stroke-linejoin="round"/>
<path d="M37.7406 29.0661C39.8194 29.0661 41.5046 27.3809 41.5046 25.3021C41.5046 23.2233 39.8194 21.5381 37.7406 21.5381C35.6618 21.5381 33.9766 23.2233 33.9766 25.3021C33.9766 27.3809 35.6618 29.0661 37.7406 29.0661Z" stroke="#60423A" stroke-width="0.75" stroke-miterlimit="10" stroke-linecap="round" stroke-linejoin="round"/>
<path d="M37.7407 36.2764C38.4891 36.2764 39.0957 35.6697 39.0957 34.9214C39.0957 34.173 38.4891 33.5664 37.7407 33.5664C36.9924 33.5664 36.3857 34.173 36.3857 34.9214C36.3857 35.6697 36.9924 36.2764 37.7407 36.2764Z" stroke="#60423A" stroke-width="0.75" stroke-miterlimit="10" stroke-linecap="round" stroke-linejoin="round"/>
</svg>
