<svg width="81" height="107" viewBox="0 0 81 107" fill="none" xmlns="http://www.w3.org/2000/svg">
<path d="M40.11 68.0818C40.11 68.0818 34.372 68.7818 32.161 64.5558M32.161 64.5558C32.161 64.5558 26.703 69.5658 26.619 73.5678C26.535 77.5698 32.496 81.1248 32.496 81.1248L40.109 78.2698V74.6878C40.109 74.6878 32.217 67.2988 32.161 64.5558ZM32.161 64.5558C32.105 61.8128 40.109 52.8008 40.109 52.8008" stroke="#60423A" stroke-width="0.75" stroke-miterlimit="10" stroke-linecap="round" stroke-linejoin="round"/>
<path d="M40.1101 87.898L33.3651 85.155L32.4971 81.124" stroke="#60423A" stroke-width="0.75" stroke-miterlimit="10" stroke-linecap="round" stroke-linejoin="round"/>
<path d="M28.3146 54.5842C29.3761 54.5842 30.2366 53.7237 30.2366 52.6622C30.2366 51.6007 29.3761 50.7402 28.3146 50.7402C27.2531 50.7402 26.3926 51.6007 26.3926 52.6622C26.3926 53.7237 27.2531 54.5842 28.3146 54.5842Z" stroke="#60423A" stroke-width="0.75" stroke-miterlimit="10" stroke-linecap="round" stroke-linejoin="round"/>
<path d="M40.1101 28.2092L38.0621 25.5352C36.6641 23.7102 34.1061 23.2512 32.1611 24.4772" stroke="#60423A" stroke-width="0.75" stroke-miterlimit="10" stroke-linecap="round" stroke-linejoin="round"/>
<path d="M37.1117 31.3092L32.6897 25.5352C31.2917 23.7102 28.7337 23.2512 26.7887 24.4772L21.6777 27.6992" stroke="#60423A" stroke-width="0.75" stroke-miterlimit="10" stroke-linecap="round" stroke-linejoin="round"/>
<path d="M31.3603 37.3568C31.3603 37.3568 25.7993 24.7188 16.5333 28.2078C16.5333 28.2078 11.3203 34.5517 14.3243 42.3137" stroke="#60423A" stroke-width="0.75" stroke-miterlimit="10" stroke-linecap="round" stroke-linejoin="round"/>
<path d="M18.877 31.3088C18.877 31.3088 23.243 30.6158 25.967 35.4478" stroke="#60423A" stroke-width="0.75" stroke-miterlimit="10" stroke-linecap="round" stroke-linejoin="round"/>
<path d="M13.8018 44.0135C13.8018 44.0135 14.8098 38.1545 21.6788 36.0835C28.5478 34.0125 31.8908 37.8465 31.8908 37.8465L22.4588 47.2415C35.3518 47.2415 33.7248 61.0085 33.7248 61.0085" stroke="#60423A" stroke-width="0.75" stroke-miterlimit="10" stroke-linecap="round" stroke-linejoin="round"/>
<path d="M23.2799 83.8857C23.2799 83.8857 21.0779 95.0067 27.9069 99.4847C34.7359 103.963 40.1099 106.501 40.1099 106.501" stroke="#60423A" stroke-width="0.75" stroke-miterlimit="10" stroke-linecap="round" stroke-linejoin="round"/>
<path d="M18.8019 75.0791C18.8019 75.0791 10.1699 92.1801 25.9609 97.7731" stroke="#60423A" stroke-width="0.75" stroke-miterlimit="10" stroke-linecap="round" stroke-linejoin="round"/>
<path d="M15.1455 66.5713C15.1455 66.5713 3.81348 77.0243 17.0915 89.4113" stroke="#60423A" stroke-width="0.75" stroke-miterlimit="10" stroke-linecap="round" stroke-linejoin="round"/>
<path d="M14.6969 57.6152C14.6969 57.6152 3.69892 64.2442 10.6389 77.4682" stroke="#60423A" stroke-width="0.75" stroke-miterlimit="10" stroke-linecap="round" stroke-linejoin="round"/>
<path d="M22.4592 47.2402C22.4592 47.2402 7.5272 49.1142 8.7422 65.8652" stroke="#60423A" stroke-width="0.75" stroke-miterlimit="10" stroke-linecap="round" stroke-linejoin="round"/>
<path d="M16.8989 42.9492C16.8989 42.9492 7.73287 44.1262 9.89987 56.9722" stroke="#60423A" stroke-width="0.75" stroke-miterlimit="10" stroke-linecap="round" stroke-linejoin="round"/>
<path d="M9.77 50.7402L0.375 67.5412L13.802 85.7452" stroke="#60423A" stroke-width="0.75" stroke-miterlimit="10" stroke-linecap="round" stroke-linejoin="round"/>
<path d="M40.1104 68.0818C40.1104 68.0818 45.8484 68.7818 48.0594 64.5558M48.0594 64.5558C48.0594 64.5558 53.5174 69.5658 53.6014 73.5678C53.6854 77.5698 47.7243 81.1248 47.7243 81.1248L40.1114 78.2698V74.6878C40.1114 74.6878 48.0034 67.2988 48.0594 64.5558ZM48.0594 64.5558C48.1154 61.8128 40.1114 52.8008 40.1114 52.8008" stroke="#60423A" stroke-width="0.75" stroke-miterlimit="10" stroke-linecap="round" stroke-linejoin="round"/>
<path d="M40.1104 87.898L46.8564 85.155L47.7234 81.124" stroke="#60423A" stroke-width="0.75" stroke-miterlimit="10" stroke-linecap="round" stroke-linejoin="round"/>
<path d="M51.9064 54.5842C52.9679 54.5842 53.8284 53.7237 53.8284 52.6622C53.8284 51.6007 52.9679 50.7402 51.9064 50.7402C50.8449 50.7402 49.9844 51.6007 49.9844 52.6622C49.9844 53.7237 50.8449 54.5842 51.9064 54.5842Z" stroke="#60423A" stroke-width="0.75" stroke-miterlimit="10" stroke-linecap="round" stroke-linejoin="round"/>
<path d="M40.1104 28.2092L42.1584 25.5352C43.5564 23.7102 46.1144 23.2512 48.0594 24.4772" stroke="#60423A" stroke-width="0.75" stroke-miterlimit="10" stroke-linecap="round" stroke-linejoin="round"/>
<path d="M43.1084 31.3092L47.5304 25.5352C48.9284 23.7102 51.4864 23.2512 53.4314 24.4772L58.5424 27.6992" stroke="#60423A" stroke-width="0.75" stroke-miterlimit="10" stroke-linecap="round" stroke-linejoin="round"/>
<path d="M48.8613 37.3568C48.8613 37.3568 54.4223 24.7188 63.6883 28.2078C63.6883 28.2078 68.9013 34.5517 65.8973 42.3137" stroke="#60423A" stroke-width="0.75" stroke-miterlimit="10" stroke-linecap="round" stroke-linejoin="round"/>
<path d="M61.3439 31.3088C61.3439 31.3088 56.9779 30.6158 54.2539 35.4478" stroke="#60423A" stroke-width="0.75" stroke-miterlimit="10" stroke-linecap="round" stroke-linejoin="round"/>
<path d="M66.4188 44.0135C66.4188 44.0135 65.4108 38.1545 58.5418 36.0835C51.6718 34.0125 48.3298 37.8465 48.3298 37.8465L57.7618 47.2415C44.8688 47.2415 46.4958 61.0085 46.4958 61.0085" stroke="#60423A" stroke-width="0.75" stroke-miterlimit="10" stroke-linecap="round" stroke-linejoin="round"/>
<path d="M56.9404 83.8857C56.9404 83.8857 59.1424 95.0067 52.3134 99.4847C45.4844 103.963 40.1104 106.501 40.1104 106.501" stroke="#60423A" stroke-width="0.75" stroke-miterlimit="10" stroke-linecap="round" stroke-linejoin="round"/>
<path d="M61.4178 75.0791C61.4178 75.0791 70.0498 92.1801 54.2588 97.7731" stroke="#60423A" stroke-width="0.75" stroke-miterlimit="10" stroke-linecap="round" stroke-linejoin="round"/>
<path d="M65.0749 66.5713C65.0749 66.5713 76.4069 77.0243 63.1289 89.4113" stroke="#60423A" stroke-width="0.75" stroke-miterlimit="10" stroke-linecap="round" stroke-linejoin="round"/>
<path d="M65.5234 57.6152C65.5234 57.6152 76.5214 64.2442 69.5814 77.4682" stroke="#60423A" stroke-width="0.75" stroke-miterlimit="10" stroke-linecap="round" stroke-linejoin="round"/>
<path d="M57.7607 47.2402C57.7607 47.2402 72.6927 49.1142 71.4777 65.8652" stroke="#60423A" stroke-width="0.75" stroke-miterlimit="10" stroke-linecap="round" stroke-linejoin="round"/>
<path d="M63.3213 42.9492C63.3213 42.9492 72.4873 44.1262 70.3203 56.9722" stroke="#60423A" stroke-width="0.75" stroke-miterlimit="10" stroke-linecap="round" stroke-linejoin="round"/>
<path d="M70.45 50.7402L79.8459 67.5412L66.4189 85.7452" stroke="#60423A" stroke-width="0.75" stroke-miterlimit="10" stroke-linecap="round" stroke-linejoin="round"/>
<path d="M40.0628 17.7984C42.9457 17.7984 45.2828 15.4613 45.2828 12.5784C45.2828 9.69547 42.9457 7.3584 40.0628 7.3584C37.1798 7.3584 34.8428 9.69547 34.8428 12.5784C34.8428 15.4613 37.1798 17.7984 40.0628 17.7984Z" stroke="#60423A" stroke-width="0.75" stroke-miterlimit="10" stroke-linecap="round" stroke-linejoin="round"/>
<path d="M40.0635 0.375V6.26601" stroke="#60423A" stroke-width="0.75" stroke-miterlimit="10" stroke-linecap="round" stroke-linejoin="round"/>
<path d="M40.0635 18.8906V24.7816" stroke="#60423A" stroke-width="0.75" stroke-miterlimit="10" stroke-linecap="round" stroke-linejoin="round"/>
<path d="M52.266 12.5781H46.376" stroke="#60423A" stroke-width="0.75" stroke-miterlimit="10" stroke-linecap="round" stroke-linejoin="round"/>
<path d="M33.7504 12.5781H27.8604" stroke="#60423A" stroke-width="0.75" stroke-miterlimit="10" stroke-linecap="round" stroke-linejoin="round"/>
<path d="M48.6923 3.94922L44.5273 8.11522" stroke="#60423A" stroke-width="0.75" stroke-miterlimit="10" stroke-linecap="round" stroke-linejoin="round"/>
<path d="M35.5986 17.042L31.4336 21.207" stroke="#60423A" stroke-width="0.75" stroke-miterlimit="10" stroke-linecap="round" stroke-linejoin="round"/>
<path d="M48.6923 21.207L44.5273 17.042" stroke="#60423A" stroke-width="0.75" stroke-miterlimit="10" stroke-linecap="round" stroke-linejoin="round"/>
<path d="M35.5986 8.11522L31.4336 3.94922" stroke="#60423A" stroke-width="0.75" stroke-miterlimit="10" stroke-linecap="round" stroke-linejoin="round"/>
<path d="M42.3945 6.71228L43.7585 3.28027" stroke="#60423A" stroke-width="0.75" stroke-miterlimit="10" stroke-linecap="round" stroke-linejoin="round"/>
<path d="M36.3672 21.8773L37.7312 18.4443" stroke="#60423A" stroke-width="0.75" stroke-miterlimit="10" stroke-linecap="round" stroke-linejoin="round"/>
<path d="M45.9287 14.9102L49.3607 16.2752" stroke="#60423A" stroke-width="0.75" stroke-miterlimit="10" stroke-linecap="round" stroke-linejoin="round"/>
<path d="M30.7646 8.88184L34.1966 10.2458" stroke="#60423A" stroke-width="0.75" stroke-miterlimit="10" stroke-linecap="round" stroke-linejoin="round"/>
<path d="M45.8604 10.0792L49.2523 8.61719" stroke="#60423A" stroke-width="0.75" stroke-miterlimit="10" stroke-linecap="round" stroke-linejoin="round"/>
<path d="M30.874 16.5392L34.266 15.0771" stroke="#60423A" stroke-width="0.75" stroke-miterlimit="10" stroke-linecap="round" stroke-linejoin="round"/>
<path d="M42.5615 18.375L44.0235 21.767" stroke="#60423A" stroke-width="0.75" stroke-miterlimit="10" stroke-linecap="round" stroke-linejoin="round"/>
<path d="M36.1016 3.38965L37.5636 6.78165" stroke="#60423A" stroke-width="0.75" stroke-miterlimit="10" stroke-linecap="round" stroke-linejoin="round"/>
<path d="M40.11 48.4846C42.6323 48.4846 44.677 46.4399 44.677 43.9176C44.677 41.3953 42.6323 39.3506 40.11 39.3506C37.5877 39.3506 35.543 41.3953 35.543 43.9176C35.543 46.4399 37.5877 48.4846 40.11 48.4846Z" stroke="#60423A" stroke-width="0.75" stroke-miterlimit="10" stroke-linecap="round" stroke-linejoin="round"/>
<path d="M11.1237 42.3153C8.36872 44.3343 8.19272 47.8533 8.19272 47.8533C8.19272 47.8533 8.01672 44.3343 5.26172 42.3153C8.01672 40.2963 8.19272 36.7773 8.19272 36.7773C8.19272 36.7773 8.36872 40.2953 11.1237 42.3153Z" stroke="#60423A" stroke-width="0.75" stroke-miterlimit="10" stroke-linecap="round" stroke-linejoin="round"/>
<path d="M74.863 42.3153C72.108 44.3343 71.932 47.8533 71.932 47.8533C71.932 47.8533 71.756 44.3343 69.001 42.3153C71.756 40.2963 71.932 36.7773 71.932 36.7773C71.932 36.7773 72.108 40.2953 74.863 42.3153Z" stroke="#60423A" stroke-width="0.75" stroke-miterlimit="10" stroke-linecap="round" stroke-linejoin="round"/>
</svg>
