<svg width="87" height="99" viewBox="0 0 87 99" fill="none" xmlns="http://www.w3.org/2000/svg">
<path d="M43.6537 97.9514H29.3486V96.6934H43.6537" stroke="#60423A" stroke-width="0.75" stroke-miterlimit="10" stroke-linecap="round" stroke-linejoin="round"/>
<path d="M41.3362 91.3281L30.4092 96.6931" stroke="#60423A" stroke-width="0.75" stroke-miterlimit="10" stroke-linecap="round" stroke-linejoin="round"/>
<path d="M43.6537 91.3284H39.6807V89.2754H43.6537" stroke="#60423A" stroke-width="0.75" stroke-miterlimit="10" stroke-linecap="round" stroke-linejoin="round"/>
<path d="M40.3429 89.275L42.3299 62.778C42.3299 62.778 44.0849 58.407 42.3299 54.566L40.3429 51.784V44.565L38.8859 42.644C38.8859 42.644 39.2719 41.055 41.1819 40.458V34.945C41.1819 34.945 38.5469 33.74 38.5469 32.114C38.5469 30.488 41.3039 29.332 41.3039 29.332H43.4779" stroke="#60423A" stroke-width="0.75" stroke-miterlimit="10" stroke-linecap="round" stroke-linejoin="round"/>
<path d="M41.1816 40.46H43.4777" stroke="#60423A" stroke-width="0.75" stroke-miterlimit="10" stroke-linecap="round" stroke-linejoin="round"/>
<path d="M41.1816 34.9463H43.4777" stroke="#60423A" stroke-width="0.75" stroke-miterlimit="10" stroke-linecap="round" stroke-linejoin="round"/>
<path d="M40.3428 51.7852H43.4778" stroke="#60423A" stroke-width="0.75" stroke-miterlimit="10" stroke-linecap="round" stroke-linejoin="round"/>
<path d="M42.3301 62.7793H43.6541" stroke="#60423A" stroke-width="0.75" stroke-miterlimit="10" stroke-linecap="round" stroke-linejoin="round"/>
<path d="M42.3301 54.5664H43.4781" stroke="#60423A" stroke-width="0.75" stroke-miterlimit="10" stroke-linecap="round" stroke-linejoin="round"/>
<path d="M41.3031 29.334H7.32812L8.86813 31.221L39.3381 33.684" stroke="#60423A" stroke-width="0.75" stroke-miterlimit="10" stroke-linecap="round" stroke-linejoin="round"/>
<path d="M12.3544 34.6811C12.3544 36.5781 10.8164 38.1171 8.9184 38.1171C7.0214 38.1171 5.48242 36.5791 5.48242 34.6811C5.48242 32.7831 7.0204 31.2451 8.9184 31.2451" stroke="#60423A" stroke-width="0.75" stroke-miterlimit="10" stroke-linecap="round" stroke-linejoin="round"/>
<path d="M48.0569 18.5166C48.0569 17.4966 47.727 16.5596 47.171 15.8076C49.314 17.0746 50.7459 19.4026 50.7459 22.0606C50.7459 26.0786 47.4909 29.3336 43.4829 29.3336C39.4649 29.3336 36.21 26.0786 36.21 22.0606C36.21 19.4026 37.6419 17.0746 39.7849 15.8076C39.2289 16.5596 38.899 17.4966 38.899 18.5166C38.899 21.0506 40.9489 23.1006 43.4829 23.1006C46.0069 23.1006 48.0569 21.0506 48.0569 18.5166Z" stroke="#60423A" stroke-width="0.75" stroke-miterlimit="10" stroke-linecap="round" stroke-linejoin="round"/>
<path d="M42.8737 9.229L39.8107 7.05L42.0487 10.071L35.2607 10.696L42.0598 11.25L39.8817 14.313L42.9017 12.076L43.5277 20.918L44.0807 12.064L47.1447 14.243L44.9067 11.222L51.6947 10.596L44.8958 10.043L47.0737 6.98001L44.0537 9.21701L43.4277 0.375L42.8737 9.229Z" stroke="#60423A" stroke-width="0.75" stroke-miterlimit="10" stroke-linecap="round" stroke-linejoin="round"/>
<path d="M0.375 78.4082L8.918 38.1172" stroke="#60423A" stroke-width="0.75" stroke-miterlimit="10" stroke-linecap="round" stroke-linejoin="round"/>
<path d="M9.74578 78.4082H0.380786C0.380786 78.4082 -0.180223 87.2162 9.74578 87.2162" stroke="#60423A" stroke-width="0.75" stroke-miterlimit="10" stroke-linecap="round" stroke-linejoin="round"/>
<path d="M19.1172 78.4082L10.5742 38.1172" stroke="#60423A" stroke-width="0.75" stroke-miterlimit="10" stroke-linecap="round" stroke-linejoin="round"/>
<path d="M9.74609 78.4082H19.1111C19.1111 78.4082 19.6721 87.2162 9.74609 87.2162" stroke="#60423A" stroke-width="0.75" stroke-miterlimit="10" stroke-linecap="round" stroke-linejoin="round"/>
<path d="M9.94434 53.9365V76.3545" stroke="#60423A" stroke-width="0.75" stroke-miterlimit="10" stroke-linecap="round" stroke-linejoin="round"/>
<path d="M9.94425 74.2685C9.94425 74.2685 6.53325 72.3145 5.97025 69.5995C5.40725 66.8845 9.94425 53.9365 9.94425 53.9365" stroke="#60423A" stroke-width="0.75" stroke-miterlimit="10" stroke-linecap="round" stroke-linejoin="round"/>
<path d="M6.08008 67.4395L9.94406 71.7195" stroke="#60423A" stroke-width="0.75" stroke-miterlimit="10" stroke-linecap="round" stroke-linejoin="round"/>
<path d="M6.70898 64.4424L9.94397 68.0264" stroke="#60423A" stroke-width="0.75" stroke-miterlimit="10" stroke-linecap="round" stroke-linejoin="round"/>
<path d="M7.51855 61.8135L9.94354 64.5005" stroke="#60423A" stroke-width="0.75" stroke-miterlimit="10" stroke-linecap="round" stroke-linejoin="round"/>
<path d="M8.42676 59.0029L9.94376 60.6829" stroke="#60423A" stroke-width="0.75" stroke-miterlimit="10" stroke-linecap="round" stroke-linejoin="round"/>
<path d="M9.94434 74.2685C9.94434 74.2685 13.3553 72.3145 13.9183 69.5995C14.4813 66.8845 9.94434 53.9365 9.94434 53.9365" stroke="#60423A" stroke-width="0.75" stroke-miterlimit="10" stroke-linecap="round" stroke-linejoin="round"/>
<path d="M13.8094 67.4395L9.94434 71.7195" stroke="#60423A" stroke-width="0.75" stroke-miterlimit="10" stroke-linecap="round" stroke-linejoin="round"/>
<path d="M13.1804 64.4424L9.94434 68.0264" stroke="#60423A" stroke-width="0.75" stroke-miterlimit="10" stroke-linecap="round" stroke-linejoin="round"/>
<path d="M12.3704 61.8135L9.94434 64.5005" stroke="#60423A" stroke-width="0.75" stroke-miterlimit="10" stroke-linecap="round" stroke-linejoin="round"/>
<path d="M11.4623 59.0029L9.94434 60.6829" stroke="#60423A" stroke-width="0.75" stroke-miterlimit="10" stroke-linecap="round" stroke-linejoin="round"/>
<path d="M43.3428 97.9514H57.6488V96.6934H43.3428" stroke="#60423A" stroke-width="0.75" stroke-miterlimit="10" stroke-linecap="round" stroke-linejoin="round"/>
<path d="M45.6611 91.3281L56.5891 96.6931" stroke="#60423A" stroke-width="0.75" stroke-miterlimit="10" stroke-linecap="round" stroke-linejoin="round"/>
<path d="M43.3428 91.3284H47.3168V89.2754H43.3428" stroke="#60423A" stroke-width="0.75" stroke-miterlimit="10" stroke-linecap="round" stroke-linejoin="round"/>
<path d="M46.6555 89.275L44.6685 62.778C44.6685 62.778 42.9135 58.407 44.6685 54.566L46.6555 51.784V44.565L48.1125 42.644C48.1125 42.644 47.7265 41.055 45.8165 40.458V34.945C45.8165 34.945 48.4515 33.74 48.4515 32.114C48.4515 30.488 45.6945 29.332 45.6945 29.332H43.5205" stroke="#60423A" stroke-width="0.75" stroke-miterlimit="10" stroke-linecap="round" stroke-linejoin="round"/>
<path d="M45.8165 40.46H43.5205" stroke="#60423A" stroke-width="0.75" stroke-miterlimit="10" stroke-linecap="round" stroke-linejoin="round"/>
<path d="M45.8165 34.9463H43.5205" stroke="#60423A" stroke-width="0.75" stroke-miterlimit="10" stroke-linecap="round" stroke-linejoin="round"/>
<path d="M46.6555 51.7852H43.5205" stroke="#60423A" stroke-width="0.75" stroke-miterlimit="10" stroke-linecap="round" stroke-linejoin="round"/>
<path d="M44.6678 62.7793H43.3428" stroke="#60423A" stroke-width="0.75" stroke-miterlimit="10" stroke-linecap="round" stroke-linejoin="round"/>
<path d="M44.6685 54.5664H43.5205" stroke="#60423A" stroke-width="0.75" stroke-miterlimit="10" stroke-linecap="round" stroke-linejoin="round"/>
<path d="M45.6943 29.334H79.6693L78.1303 31.221L47.6603 33.684" stroke="#60423A" stroke-width="0.75" stroke-miterlimit="10" stroke-linecap="round" stroke-linejoin="round"/>
<path d="M74.6436 34.6811C74.6436 36.5781 76.1816 38.1171 78.0796 38.1171C79.9766 38.1171 81.5156 36.5791 81.5156 34.6811C81.5156 32.7831 79.9776 31.2451 78.0796 31.2451" stroke="#60423A" stroke-width="0.75" stroke-miterlimit="10" stroke-linecap="round" stroke-linejoin="round"/>
<path d="M86.6231 78.4082L78.0801 38.1172" stroke="#60423A" stroke-width="0.75" stroke-miterlimit="10" stroke-linecap="round" stroke-linejoin="round"/>
<path d="M77.252 78.4082H86.6169C86.6169 78.4082 87.178 87.2162 77.252 87.2162" stroke="#60423A" stroke-width="0.75" stroke-miterlimit="10" stroke-linecap="round" stroke-linejoin="round"/>
<path d="M67.8809 78.4082L76.4239 38.1172" stroke="#60423A" stroke-width="0.75" stroke-miterlimit="10" stroke-linecap="round" stroke-linejoin="round"/>
<path d="M77.2516 78.4082H67.8866C67.8866 78.4082 67.3256 87.2162 77.2516 87.2162" stroke="#60423A" stroke-width="0.75" stroke-miterlimit="10" stroke-linecap="round" stroke-linejoin="round"/>
<path d="M77.2524 77.2183C70.8644 73.9323 71.3114 69.4043 71.3114 69.4043C71.3114 67.7023 72.6914 66.3223 74.3934 66.3223C75.6884 66.3223 76.7984 67.1243 77.2524 68.2543C77.7054 67.1243 78.8164 66.3223 80.1114 66.3223C81.8134 66.3223 83.1934 67.7023 83.1934 69.4043C83.1934 69.4043 83.6344 73.9323 77.2524 77.2183Z" stroke="#60423A" stroke-width="0.75" stroke-miterlimit="10" stroke-linecap="round" stroke-linejoin="round"/>
<path d="M38.5457 80.6173C31.9067 78.5043 27.0967 72.2873 27.0967 64.9483C27.0967 57.6083 31.9067 51.3923 38.5457 49.2783" stroke="#60423A" stroke-width="0.75" stroke-miterlimit="10" stroke-linecap="round" stroke-linejoin="round"/>
<path d="M48.4512 49.2529C55.1312 51.3419 59.9792 57.5789 59.9792 64.9479C59.9792 72.2889 55.1682 78.5069 48.5262 80.6189" stroke="#60423A" stroke-width="0.75" stroke-miterlimit="10" stroke-linecap="round" stroke-linejoin="round"/>
<path d="M30.2448 43.6552C27.4898 45.6742 27.3138 49.1932 27.3138 49.1932C27.3138 49.1932 27.1378 45.6742 24.3828 43.6552C27.1378 41.6362 27.3138 38.1172 27.3138 38.1172C27.3138 38.1172 27.4898 41.6362 30.2448 43.6552Z" stroke="#60423A" stroke-width="0.75" stroke-miterlimit="10" stroke-linecap="round" stroke-linejoin="round"/>
<path d="M62.3034 43.6552C59.5484 45.6742 59.3724 49.1932 59.3724 49.1932C59.3724 49.1932 59.1964 45.6742 56.4414 43.6552C59.1964 41.6362 59.3724 38.1172 59.3724 38.1172C59.3724 38.1172 59.5484 41.6362 62.3034 43.6552Z" stroke="#60423A" stroke-width="0.75" stroke-miterlimit="10" stroke-linecap="round" stroke-linejoin="round"/>
</svg>
