<svg width="89" height="74" viewBox="0 0 89 74" fill="none" xmlns="http://www.w3.org/2000/svg">
<path d="M71.4247 11.3623C71.4247 11.3623 84.0637 23.2533 80.5707 41.8403C77.0777 60.4273 66.8937 67.0433 66.8937 67.0433C66.8937 67.0433 64.8698 72.3553 60.2808 70.8713C60.2808 70.8713 56.0327 73.9543 51.8597 69.5043C48.5137 65.9363 51.2898 62.6553 51.2898 62.6553C51.2898 62.6553 49.5708 59.5383 55.4308 57.0213C55.4308 57.0213 79.9307 38.5733 71.4247 11.3623Z" stroke="#60423A" stroke-width="0.75" stroke-miterlimit="10" stroke-linecap="round" stroke-linejoin="round"/>
<path d="M88.4039 60.4122L84.5219 49.6602L73.9639 59.2411" stroke="#60423A" stroke-width="0.75" stroke-miterlimit="10" stroke-linecap="round" stroke-linejoin="round"/>
<path d="M57.0022 55.5498L56.7842 36.8428L66.9652 37.5218L60.2152 52.5978" stroke="#60423A" stroke-width="0.75" stroke-miterlimit="10" stroke-linecap="round" stroke-linejoin="round"/>
<path d="M81.17 36.2592C81.17 36.2592 83.5 29.0552 83.405 27.8582C83.311 26.6612 79.499 24.8672 79.499 24.8672" stroke="#60423A" stroke-width="0.75" stroke-miterlimit="10" stroke-linecap="round" stroke-linejoin="round"/>
<path d="M73.0089 24.3691C73.0089 24.3691 70.1779 26.3211 69.6379 27.7921C69.0979 29.2631 70.8038 35.3831 70.8038 35.3831" stroke="#60423A" stroke-width="0.75" stroke-miterlimit="10" stroke-linecap="round" stroke-linejoin="round"/>
<path d="M86.9053 56.2637L69.6113 64.6967L85.5363 52.4717" stroke="#60423A" stroke-width="0.75" stroke-miterlimit="10" stroke-linecap="round" stroke-linejoin="round"/>
<path d="M88.4035 60.4121L69.4375 64.9391" stroke="#60423A" stroke-width="0.75" stroke-miterlimit="10" stroke-linecap="round" stroke-linejoin="round"/>
<path d="M58.457 54.0766L63.779 37.3086" stroke="#60423A" stroke-width="0.75" stroke-miterlimit="10" stroke-linecap="round" stroke-linejoin="round"/>
<path d="M59.1909 37.0029L58.0459 54.5009" stroke="#60423A" stroke-width="0.75" stroke-miterlimit="10" stroke-linecap="round" stroke-linejoin="round"/>
<path d="M71.4248 11.3623C71.4248 11.3623 64.6368 2.64231 51.0498 1.32031L63.1588 21.2433L73.0158 20.1043" stroke="#60423A" stroke-width="0.75" stroke-miterlimit="10" stroke-linecap="round" stroke-linejoin="round"/>
<path d="M72.4084 15.2481C72.4084 15.2481 66.7054 8.43812 55.1064 7.99512" stroke="#60423A" stroke-width="0.75" stroke-miterlimit="10" stroke-linecap="round" stroke-linejoin="round"/>
<path d="M72.7037 18.1327C72.7037 18.1327 66.3517 14.2577 59.8037 15.7207" stroke="#60423A" stroke-width="0.75" stroke-miterlimit="10" stroke-linecap="round" stroke-linejoin="round"/>
<path d="M63.4016 69.3412C64.1648 69.3412 64.7835 68.7224 64.7835 67.9592C64.7835 67.1959 64.1648 66.5771 63.4016 66.5771C62.6383 66.5771 62.0195 67.1959 62.0195 67.9592C62.0195 68.7224 62.6383 69.3412 63.4016 69.3412Z" stroke="#60423A" stroke-width="0.75" stroke-miterlimit="10" stroke-linecap="round" stroke-linejoin="round"/>
<path d="M54.1242 62.348C54.8874 62.348 55.5062 61.7292 55.5062 60.966C55.5062 60.2027 54.8874 59.584 54.1242 59.584C53.3609 59.584 52.7422 60.2027 52.7422 60.966C52.7422 61.7292 53.3609 62.348 54.1242 62.348Z" stroke="#60423A" stroke-width="0.75" stroke-miterlimit="10" stroke-linecap="round" stroke-linejoin="round"/>
<path d="M17.354 61.8694C17.354 61.8694 4.71503 49.9784 8.20803 31.3914C11.701 12.8044 21.885 6.18837 21.885 6.18837C21.885 6.18837 23.909 0.876371 28.498 2.36037C28.498 2.36037 32.746 -0.722625 36.919 3.72738C40.265 7.29538 37.489 10.5764 37.489 10.5764C37.489 10.5764 39.208 13.6934 33.348 16.2104C33.348 16.2104 8.84802 34.6584 17.354 61.8694Z" stroke="#60423A" stroke-width="0.75" stroke-miterlimit="10" stroke-linecap="round" stroke-linejoin="round"/>
<path d="M0.375 12.8193L4.25699 23.5714L14.815 13.9904" stroke="#60423A" stroke-width="0.75" stroke-miterlimit="10" stroke-linecap="round" stroke-linejoin="round"/>
<path d="M31.7775 17.6826L31.9955 36.3886L21.8145 35.7106L28.5645 20.6336" stroke="#60423A" stroke-width="0.75" stroke-miterlimit="10" stroke-linecap="round" stroke-linejoin="round"/>
<path d="M7.60894 36.9727C7.60894 36.9727 5.27892 44.1767 5.37392 45.3737C5.46792 46.5707 9.27993 48.3647 9.27993 48.3647" stroke="#60423A" stroke-width="0.75" stroke-miterlimit="10" stroke-linecap="round" stroke-linejoin="round"/>
<path d="M15.7695 48.8626C15.7695 48.8626 18.6005 46.9096 19.1405 45.4396C19.6805 43.9696 17.9745 37.8486 17.9745 37.8486" stroke="#60423A" stroke-width="0.75" stroke-miterlimit="10" stroke-linecap="round" stroke-linejoin="round"/>
<path d="M1.87305 16.9672L19.1671 8.53516L3.24207 20.7602" stroke="#60423A" stroke-width="0.75" stroke-miterlimit="10" stroke-linecap="round" stroke-linejoin="round"/>
<path d="M0.375 12.819L19.341 8.29199" stroke="#60423A" stroke-width="0.75" stroke-miterlimit="10" stroke-linecap="round" stroke-linejoin="round"/>
<path d="M30.322 19.1553L25 35.9223" stroke="#60423A" stroke-width="0.75" stroke-miterlimit="10" stroke-linecap="round" stroke-linejoin="round"/>
<path d="M29.5879 36.2285L30.7329 18.7305" stroke="#60423A" stroke-width="0.75" stroke-miterlimit="10" stroke-linecap="round" stroke-linejoin="round"/>
<path d="M17.3537 61.8693C17.3537 61.8693 24.1417 70.5893 37.7287 71.9113L25.6197 51.9883L15.7627 53.1273" stroke="#60423A" stroke-width="0.75" stroke-miterlimit="10" stroke-linecap="round" stroke-linejoin="round"/>
<path d="M16.3701 57.9834C16.3701 57.9834 22.0731 64.7934 33.6721 65.2364" stroke="#60423A" stroke-width="0.75" stroke-miterlimit="10" stroke-linecap="round" stroke-linejoin="round"/>
<path d="M16.0752 55.0986C16.0752 55.0986 22.4272 58.9736 28.9752 57.5106" stroke="#60423A" stroke-width="0.75" stroke-miterlimit="10" stroke-linecap="round" stroke-linejoin="round"/>
<path d="M25.3771 6.65463C26.1404 6.65463 26.7591 6.03587 26.7591 5.27261C26.7591 4.50936 26.1404 3.89062 25.3771 3.89062C24.6138 3.89062 23.9951 4.50936 23.9951 5.27261C23.9951 6.03587 24.6138 6.65463 25.3771 6.65463Z" stroke="#60423A" stroke-width="0.75" stroke-miterlimit="10" stroke-linecap="round" stroke-linejoin="round"/>
<path d="M34.6554 13.6468C35.4187 13.6468 36.0374 13.0281 36.0374 12.2648C36.0374 11.5015 35.4187 10.8828 34.6554 10.8828C33.8922 10.8828 33.2734 11.5015 33.2734 12.2648C33.2734 13.0281 33.8922 13.6468 34.6554 13.6468Z" stroke="#60423A" stroke-width="0.75" stroke-miterlimit="10" stroke-linecap="round" stroke-linejoin="round"/>
<path d="M49.7005 41.4108C50.8295 41.4108 51.8665 41.0458 52.6985 40.4298C51.2965 42.8008 48.7195 44.3858 45.7785 44.3858C41.3325 44.3858 37.7295 40.7828 37.7295 36.3478C37.7295 31.9018 41.3325 28.2988 45.7785 28.2988C48.7195 28.2988 51.2965 29.8838 52.6985 32.2548C51.8665 31.6388 50.8285 31.2748 49.7005 31.2748C46.8955 31.2748 44.6275 33.5438 44.6275 36.3478C44.6275 39.1418 46.8955 41.4108 49.7005 41.4108Z" stroke="#60423A" stroke-width="0.75" stroke-miterlimit="10" stroke-linecap="round" stroke-linejoin="round"/>
<path d="M45.2148 59.3389V72.8549" stroke="#60423A" stroke-width="0.75" stroke-miterlimit="10" stroke-linecap="round" stroke-linejoin="round"/>
<path d="M45.2149 57.3586C46.0224 57.3586 46.6769 56.704 46.6769 55.8966C46.6769 55.0891 46.0224 54.4346 45.2149 54.4346C44.4075 54.4346 43.7529 55.0891 43.7529 55.8966C43.7529 56.704 44.4075 57.3586 45.2149 57.3586Z" stroke="#60423A" stroke-width="0.75" stroke-miterlimit="10" stroke-linecap="round" stroke-linejoin="round"/>
<path d="M45.2141 52.8824C46.8318 52.8824 48.1432 51.571 48.1432 49.9534C48.1432 48.3358 46.8318 47.0244 45.2141 47.0244C43.5965 47.0244 42.2852 48.3358 42.2852 49.9534C42.2852 51.571 43.5965 52.8824 45.2141 52.8824Z" stroke="#60423A" stroke-width="0.75" stroke-miterlimit="10" stroke-linecap="round" stroke-linejoin="round"/>
<path d="M45.2148 13.891V0.375" stroke="#60423A" stroke-width="0.75" stroke-miterlimit="10" stroke-linecap="round" stroke-linejoin="round"/>
<path d="M45.2149 18.7951C46.0224 18.7951 46.6769 18.1405 46.6769 17.3331C46.6769 16.5257 46.0224 15.8711 45.2149 15.8711C44.4075 15.8711 43.7529 16.5257 43.7529 17.3331C43.7529 18.1405 44.4075 18.7951 45.2149 18.7951Z" stroke="#60423A" stroke-width="0.75" stroke-miterlimit="10" stroke-linecap="round" stroke-linejoin="round"/>
<path d="M45.2141 26.2057C46.8318 26.2057 48.1432 24.8943 48.1432 23.2766C48.1432 21.659 46.8318 20.3477 45.2141 20.3477C43.5965 20.3477 42.2852 21.659 42.2852 23.2766C42.2852 24.8943 43.5965 26.2057 45.2141 26.2057Z" stroke="#60423A" stroke-width="0.75" stroke-miterlimit="10" stroke-linecap="round" stroke-linejoin="round"/>
<path d="M37.5338 50.8582C34.4078 53.1492 34.2088 57.1422 34.2088 57.1422C34.2088 57.1422 34.0098 53.1492 30.8838 50.8582C34.0098 48.5672 34.2088 44.5742 34.2088 44.5742C34.2088 44.5742 34.4088 48.5672 37.5338 50.8582Z" stroke="#60423A" stroke-width="0.75" stroke-miterlimit="10" stroke-linecap="round" stroke-linejoin="round"/>
<path d="M59.5426 23.7586C56.4166 26.0496 56.2176 30.0426 56.2176 30.0426C56.2176 30.0426 56.0176 26.0496 52.8926 23.7586C56.0186 21.4676 56.2176 17.4746 56.2176 17.4746C56.2176 17.4746 56.4176 21.4676 59.5426 23.7586Z" stroke="#60423A" stroke-width="0.75" stroke-miterlimit="10" stroke-linecap="round" stroke-linejoin="round"/>
</svg>
