<svg width="100" height="99" viewBox="0 0 100 99" fill="none" xmlns="http://www.w3.org/2000/svg">
<path d="M49.6996 22.9103C49.6996 22.9103 36.3546 22.5463 29.4336 28.7383L31.3456 32.6543C31.3456 32.6543 34.9966 31.1893 38.0266 30.4933C38.0266 30.4933 42.3236 22.9183 49.6996 29.9963" stroke="#60423A" stroke-width="0.75" stroke-miterlimit="10" stroke-linecap="round" stroke-linejoin="round"/>
<path d="M31.347 32.6542L11.601 44.0602C3.405 48.1662 0.375 41.9082 0.375 41.9082C5.653 46.4432 13.289 41.8982 17.494 35.5892L29.434 28.7393" stroke="#60423A" stroke-width="0.75" stroke-miterlimit="10" stroke-linecap="round" stroke-linejoin="round"/>
<path d="M6.00977 45.4414L49.6998 78.7304" stroke="#60423A" stroke-width="0.75" stroke-miterlimit="10" stroke-linecap="round" stroke-linejoin="round"/>
<path d="M49.7002 19.9189V88.0009" stroke="#60423A" stroke-width="0.75" stroke-miterlimit="10" stroke-linecap="round" stroke-linejoin="round"/>
<path d="M49.7 79.6572L43.999 85.1542V98.1342L49.7 91.6442" stroke="#60423A" stroke-width="0.75" stroke-miterlimit="10" stroke-linecap="round" stroke-linejoin="round"/>
<path d="M49.7003 82.7363L46.0703 86.0813" stroke="#60423A" stroke-width="0.75" stroke-miterlimit="10" stroke-linecap="round" stroke-linejoin="round"/>
<path d="M49.6996 86.6436L46.8496 89.6895" stroke="#60423A" stroke-width="0.75" stroke-miterlimit="10" stroke-linecap="round" stroke-linejoin="round"/>
<path d="M49.6996 17.4854L43.5186 21.4594L49.6996 3.77637" stroke="#60423A" stroke-width="0.75" stroke-miterlimit="10" stroke-linecap="round" stroke-linejoin="round"/>
<path d="M49.7002 22.9103C49.7002 22.9103 63.0452 22.5463 69.9662 28.7383L68.0542 32.6543C68.0542 32.6543 64.4032 31.1893 61.3732 30.4933C61.3732 30.4933 57.0762 22.9183 49.7002 29.9963" stroke="#60423A" stroke-width="0.75" stroke-miterlimit="10" stroke-linecap="round" stroke-linejoin="round"/>
<path d="M68.0537 32.6542L87.7997 44.0602C95.9957 48.1662 99.0257 41.9082 99.0257 41.9082C93.7477 46.4432 86.1117 41.8982 81.9067 35.5892L69.9667 28.7393" stroke="#60423A" stroke-width="0.75" stroke-miterlimit="10" stroke-linecap="round" stroke-linejoin="round"/>
<path d="M93.3902 45.4414L49.7002 78.7304" stroke="#60423A" stroke-width="0.75" stroke-miterlimit="10" stroke-linecap="round" stroke-linejoin="round"/>
<path d="M49.7002 79.6572L55.4012 85.1542V98.1342L49.7002 91.6442" stroke="#60423A" stroke-width="0.75" stroke-miterlimit="10" stroke-linecap="round" stroke-linejoin="round"/>
<path d="M49.7002 82.7363L53.3312 86.0813" stroke="#60423A" stroke-width="0.75" stroke-miterlimit="10" stroke-linecap="round" stroke-linejoin="round"/>
<path d="M49.7002 86.6436L52.5512 89.6895" stroke="#60423A" stroke-width="0.75" stroke-miterlimit="10" stroke-linecap="round" stroke-linejoin="round"/>
<path d="M49.7002 17.4854L55.8812 21.4594L49.7002 3.77637" stroke="#60423A" stroke-width="0.75" stroke-miterlimit="10" stroke-linecap="round" stroke-linejoin="round"/>
<path d="M39.3224 53.1769C40.5564 53.1769 41.6914 52.7779 42.6014 52.1049C41.0674 54.6979 38.2504 56.4309 35.0334 56.4309C30.1714 56.4309 26.2314 52.4909 26.2314 47.6409C26.2314 42.7789 30.1714 38.8389 35.0334 38.8389C38.2504 38.8389 41.0674 40.5719 42.6014 43.1649C41.6914 42.4919 40.5564 42.0929 39.3224 42.0929C36.2554 42.0929 33.7744 44.5739 33.7744 47.6409C33.7744 50.6959 36.2554 53.1769 39.3224 53.1769Z" stroke="#60423A" stroke-width="0.75" stroke-miterlimit="10" stroke-linecap="round" stroke-linejoin="round"/>
<path d="M65.0776 54.1914C68.1958 54.1914 70.7236 51.6636 70.7236 48.5454C70.7236 45.4272 68.1958 42.8994 65.0776 42.8994C61.9594 42.8994 59.4316 45.4272 59.4316 48.5454C59.4316 51.6636 61.9594 54.1914 65.0776 54.1914Z" stroke="#60423A" stroke-width="0.75" stroke-miterlimit="10" stroke-linecap="round" stroke-linejoin="round"/>
<path d="M65.0781 35.3447V41.7167" stroke="#60423A" stroke-width="0.75" stroke-miterlimit="10" stroke-linecap="round" stroke-linejoin="round"/>
<path d="M65.0781 55.3721V61.744" stroke="#60423A" stroke-width="0.75" stroke-miterlimit="10" stroke-linecap="round" stroke-linejoin="round"/>
<path d="M78.2773 48.5449H71.9062" stroke="#60423A" stroke-width="0.75" stroke-miterlimit="10" stroke-linecap="round" stroke-linejoin="round"/>
<path d="M58.2499 48.5449H51.8789" stroke="#60423A" stroke-width="0.75" stroke-miterlimit="10" stroke-linecap="round" stroke-linejoin="round"/>
<path d="M74.4112 39.2109L69.9062 43.7169" stroke="#60423A" stroke-width="0.75" stroke-miterlimit="10" stroke-linecap="round" stroke-linejoin="round"/>
<path d="M60.2501 53.373L55.7451 57.878" stroke="#60423A" stroke-width="0.75" stroke-miterlimit="10" stroke-linecap="round" stroke-linejoin="round"/>
<path d="M74.4112 57.878L69.9062 53.373" stroke="#60423A" stroke-width="0.75" stroke-miterlimit="10" stroke-linecap="round" stroke-linejoin="round"/>
<path d="M60.2501 43.7169L55.7451 39.2109" stroke="#60423A" stroke-width="0.75" stroke-miterlimit="10" stroke-linecap="round" stroke-linejoin="round"/>
<path d="M67.6006 42.2003L69.0756 38.4883" stroke="#60423A" stroke-width="0.75" stroke-miterlimit="10" stroke-linecap="round" stroke-linejoin="round"/>
<path d="M61.0801 58.6017L62.5561 54.8887" stroke="#60423A" stroke-width="0.75" stroke-miterlimit="10" stroke-linecap="round" stroke-linejoin="round"/>
<path d="M71.4229 51.0674L75.1349 52.5434" stroke="#60423A" stroke-width="0.75" stroke-miterlimit="10" stroke-linecap="round" stroke-linejoin="round"/>
<path d="M55.0215 44.5459L58.7335 46.0219" stroke="#60423A" stroke-width="0.75" stroke-miterlimit="10" stroke-linecap="round" stroke-linejoin="round"/>
<path d="M71.3477 45.8418L75.0167 44.2598" stroke="#60423A" stroke-width="0.75" stroke-miterlimit="10" stroke-linecap="round" stroke-linejoin="round"/>
<path d="M55.1396 52.8291L58.8076 51.2471" stroke="#60423A" stroke-width="0.75" stroke-miterlimit="10" stroke-linecap="round" stroke-linejoin="round"/>
<path d="M67.7812 54.8154L69.3623 58.4834" stroke="#60423A" stroke-width="0.75" stroke-miterlimit="10" stroke-linecap="round" stroke-linejoin="round"/>
<path d="M60.7939 38.6064L62.3749 42.2755" stroke="#60423A" stroke-width="0.75" stroke-miterlimit="10" stroke-linecap="round" stroke-linejoin="round"/>
<path d="M49.6997 53.96L31.3467 80.22L43.9987 89.69" stroke="#60423A" stroke-width="0.75" stroke-miterlimit="10" stroke-linecap="round" stroke-linejoin="round"/>
<path d="M49.7002 53.96L68.0542 80.22L55.4012 89.69" stroke="#60423A" stroke-width="0.75" stroke-miterlimit="10" stroke-linecap="round" stroke-linejoin="round"/>
<path d="M30.8477 72.5622C27.8707 74.7442 27.6807 78.5471 27.6807 78.5471C27.6807 78.5471 27.4907 74.7442 24.5137 72.5622C27.4907 70.3802 27.6807 66.5771 27.6807 66.5771C27.6807 66.5771 27.8707 70.3802 30.8477 72.5622Z" stroke="#60423A" stroke-width="0.75" stroke-miterlimit="10" stroke-linecap="round" stroke-linejoin="round"/>
<path d="M73.1328 72.5622C70.1558 74.7442 69.9658 78.5471 69.9658 78.5471C69.9658 78.5471 69.7758 74.7442 66.7988 72.5622C69.7758 70.3802 69.9658 66.5771 69.9658 66.5771C69.9658 66.5771 70.1558 70.3802 73.1328 72.5622Z" stroke="#60423A" stroke-width="0.75" stroke-miterlimit="10" stroke-linecap="round" stroke-linejoin="round"/>
<path d="M42.4406 17.899C40.5826 16.041 39.4336 13.475 39.4336 10.64C39.4336 4.97101 44.0296 0.375 49.6986 0.375C55.3676 0.375 59.9636 4.97101 59.9636 10.64C59.9636 13.475 58.8146 16.041 56.9566 17.899" stroke="#60423A" stroke-width="0.75" stroke-miterlimit="10" stroke-linecap="round" stroke-linejoin="round"/>
</svg>
