<svg width="59" height="111" viewBox="0 0 59 111" fill="none" xmlns="http://www.w3.org/2000/svg">
<path d="M29.1079 55.1353H23.2689L21.9609 52.5693" stroke="#60423A" stroke-width="0.75" stroke-miterlimit="10" stroke-linecap="round" stroke-linejoin="round"/>
<path d="M22.211 47.8955L21.832 49.0455" stroke="#60423A" stroke-width="0.75" stroke-miterlimit="10" stroke-linecap="round" stroke-linejoin="round"/>
<path d="M23.3535 44.3933L24.2615 41.6053L29.1075 39.8193" stroke="#60423A" stroke-width="0.75" stroke-miterlimit="10" stroke-linecap="round" stroke-linejoin="round"/>
<path d="M23.4253 44.1629C23.4253 44.1629 18.5683 40.2429 23.4253 36.2939L27.4003 40.4499" stroke="#60423A" stroke-width="0.75" stroke-miterlimit="10" stroke-linecap="round" stroke-linejoin="round"/>
<path d="M23.4248 36.2939H14.8708C14.8708 36.2939 13.2188 41.4199 21.4958 41.4199" stroke="#60423A" stroke-width="0.75" stroke-miterlimit="10" stroke-linecap="round" stroke-linejoin="round"/>
<path d="M14.8709 36.2939L9.30786 28.5449C9.30786 28.5449 3.81888 29.6629 7.46988 35.6479C11.1209 41.6329 15.7869 39.8199 15.7869 39.8199" stroke="#60423A" stroke-width="0.75" stroke-miterlimit="10" stroke-linecap="round" stroke-linejoin="round"/>
<path d="M6.21748 31.5507C3.70848 29.1917 2.46848 25.0927 3.34648 21.7627C3.67548 20.5137 4.2515 19.3457 4.8235 18.1887C5.3295 17.1647 5.83548 16.1407 6.34248 15.1167C6.87048 14.0477 7.39948 12.9787 7.99348 11.9447C10.2765 7.9717 13.5315 4.5617 17.3945 2.0957C14.2565 4.9467 11.9225 8.67169 10.7265 12.7387C10.4465 13.6897 10.2285 14.7077 10.4925 15.6627C10.8695 17.0247 12.1165 17.9327 12.9335 19.0857C14.0785 20.7017 14.3435 22.9047 13.6125 24.7457C12.8825 26.5867 11.2495 28.1527 9.30748 28.5447" stroke="#60423A" stroke-width="0.75" stroke-miterlimit="10" stroke-linecap="round" stroke-linejoin="round"/>
<path d="M20.2312 64.6484C19.8882 70.3014 20.8812 77.3705 20.8812 77.3705C20.8812 77.3705 22.9252 92.1434 29.1072 92.1434" stroke="#60423A" stroke-width="0.75" stroke-miterlimit="10" stroke-linecap="round" stroke-linejoin="round"/>
<path d="M21.1818 59.1875C21.0248 59.7305 20.8678 60.3525 20.7168 61.0525" stroke="#60423A" stroke-width="0.75" stroke-miterlimit="10" stroke-linecap="round" stroke-linejoin="round"/>
<path d="M23.2693 55.1357C23.2693 55.1357 23.0053 55.2427 22.6113 55.8147" stroke="#60423A" stroke-width="0.75" stroke-miterlimit="10" stroke-linecap="round" stroke-linejoin="round"/>
<path d="M21.2676 59.2256H29.1076" stroke="#60423A" stroke-width="0.75" stroke-miterlimit="10" stroke-linecap="round" stroke-linejoin="round"/>
<path d="M20.1602 66.5938H29.1072" stroke="#60423A" stroke-width="0.75" stroke-miterlimit="10" stroke-linecap="round" stroke-linejoin="round"/>
<path d="M20.501 73.9619H29.107" stroke="#60423A" stroke-width="0.75" stroke-miterlimit="10" stroke-linecap="round" stroke-linejoin="round"/>
<path d="M21.6719 81.3311H29.1069" stroke="#60423A" stroke-width="0.75" stroke-miterlimit="10" stroke-linecap="round" stroke-linejoin="round"/>
<path d="M24.4824 88.6982H29.1074" stroke="#60423A" stroke-width="0.75" stroke-miterlimit="10" stroke-linecap="round" stroke-linejoin="round"/>
<path d="M20.0099 60.918C20.2599 60.918 20.5029 60.968 20.7179 61.054C20.6819 61.175 20.6609 61.297 20.6319 61.426C20.4319 62.391 20.3029 63.491 20.2319 64.649C20.1599 64.656 20.0819 64.663 20.0099 64.663C18.9739 64.663 18.1299 63.827 18.1299 62.79C18.1299 61.754 18.9729 60.918 20.0099 60.918Z" stroke="#60423A" stroke-width="0.75" stroke-miterlimit="10" stroke-linecap="round" stroke-linejoin="round"/>
<path d="M21.5528 55.4785C21.9458 55.4785 22.3108 55.5995 22.6108 55.8145C22.2248 56.3795 21.7028 57.3865 21.1818 59.1875C20.3238 59.0155 19.6738 58.2585 19.6738 57.3505C19.6738 56.3145 20.5168 55.4785 21.5528 55.4785Z" stroke="#60423A" stroke-width="0.75" stroke-miterlimit="10" stroke-linecap="round" stroke-linejoin="round"/>
<path d="M19.3945 50.8331C19.3945 49.7971 20.2305 48.9531 21.2675 48.9531C21.4675 48.9531 21.6535 48.9821 21.8325 49.0461L21.1825 51.0471L21.9615 52.5691C21.7475 52.6551 21.5185 52.7051 21.2685 52.7051C20.2305 52.7061 19.3945 51.8701 19.3945 50.8331Z" stroke="#60423A" stroke-width="0.75" stroke-miterlimit="10" stroke-linecap="round" stroke-linejoin="round"/>
<path d="M20.5811 46.038C20.5811 45.002 21.4241 44.165 22.4611 44.165C22.7831 44.165 23.09 44.244 23.354 44.394L22.2101 47.896C21.2891 47.774 20.5811 46.988 20.5811 46.038Z" stroke="#60423A" stroke-width="0.75" stroke-miterlimit="10" stroke-linecap="round" stroke-linejoin="round"/>
<path d="M21.3764 44.5098L14.5234 47.3048C14.5234 47.3048 15.9574 50.3448 21.2664 47.4838" stroke="#60423A" stroke-width="0.75" stroke-miterlimit="10" stroke-linecap="round" stroke-linejoin="round"/>
<path d="M14.5234 47.3043L11.8574 42.8673C11.8574 42.8673 13.6954 42.0693 16.8414 46.3593" stroke="#60423A" stroke-width="0.75" stroke-miterlimit="10" stroke-linecap="round" stroke-linejoin="round"/>
<path d="M11.8572 42.8672L6.74121 46.0302C6.74121 46.0302 7.31019 47.4202 12.9112 44.6222" stroke="#60423A" stroke-width="0.75" stroke-miterlimit="10" stroke-linecap="round" stroke-linejoin="round"/>
<path d="M19.8453 49.6094L8.15625 54.4734C8.15625 54.4734 9.17426 57.3324 14.8993 54.6524L20.0193 52.2254" stroke="#60423A" stroke-width="0.75" stroke-miterlimit="10" stroke-linecap="round" stroke-linejoin="round"/>
<path d="M8.1572 54.4742L5.49121 50.0372C5.49121 50.0372 7.32919 49.2392 10.4752 53.5292" stroke="#60423A" stroke-width="0.75" stroke-miterlimit="10" stroke-linecap="round" stroke-linejoin="round"/>
<path d="M5.491 50.0371L0.375 53.2001C0.375 53.2001 0.943983 54.5901 6.54498 51.7921" stroke="#60423A" stroke-width="0.75" stroke-miterlimit="10" stroke-linecap="round" stroke-linejoin="round"/>
<path d="M20.1226 56.1309L8.43359 60.9949C8.43359 60.9949 9.45158 63.8539 15.1776 61.1739L20.2976 58.7469" stroke="#60423A" stroke-width="0.75" stroke-miterlimit="10" stroke-linecap="round" stroke-linejoin="round"/>
<path d="M8.43359 60.9947L5.76758 56.5577C5.76758 56.5577 7.60559 55.7597 10.7516 60.0497" stroke="#60423A" stroke-width="0.75" stroke-miterlimit="10" stroke-linecap="round" stroke-linejoin="round"/>
<path d="M5.76834 56.5576L0.652344 59.7206C0.652344 59.7206 1.22136 61.1106 6.82236 58.3126" stroke="#60423A" stroke-width="0.75" stroke-miterlimit="10" stroke-linecap="round" stroke-linejoin="round"/>
<path d="M18.1794 62.3193L10.6523 72.4993C10.6523 72.4993 12.9954 74.4283 16.5294 69.1873L19.5583 64.6473" stroke="#60423A" stroke-width="0.75" stroke-miterlimit="10" stroke-linecap="round" stroke-linejoin="round"/>
<path d="M10.6519 72.4999L6.08496 70.0629C6.08496 70.0629 7.25197 68.4339 12.155 70.4969" stroke="#60423A" stroke-width="0.75" stroke-miterlimit="10" stroke-linecap="round" stroke-linejoin="round"/>
<path d="M6.08472 70.0625L1.05371 79.7885C1.05371 79.7885 4.52272 76.3045 7.89072 71.0265" stroke="#60423A" stroke-width="0.75" stroke-miterlimit="10" stroke-linecap="round" stroke-linejoin="round"/>
<path d="M36.3501 52.5693L35.0421 55.1353H29.2031" stroke="#60423A" stroke-width="0.75" stroke-miterlimit="10" stroke-linecap="round" stroke-linejoin="round"/>
<path d="M36.4786 49.0455L36.0996 47.8955" stroke="#60423A" stroke-width="0.75" stroke-miterlimit="10" stroke-linecap="round" stroke-linejoin="round"/>
<path d="M29.2031 39.8193L34.0491 41.6053L34.9572 44.3933" stroke="#60423A" stroke-width="0.75" stroke-miterlimit="10" stroke-linecap="round" stroke-linejoin="round"/>
<path d="M34.8861 44.1629C34.8861 44.1629 39.7431 40.2429 34.8861 36.2939L30.9111 40.4499" stroke="#60423A" stroke-width="0.75" stroke-miterlimit="10" stroke-linecap="round" stroke-linejoin="round"/>
<path d="M34.8857 36.2939H43.4397C43.4397 36.2939 45.0917 41.4199 36.8147 41.4199" stroke="#60423A" stroke-width="0.75" stroke-miterlimit="10" stroke-linecap="round" stroke-linejoin="round"/>
<path d="M43.4404 36.2939L49.0034 28.5449C49.0034 28.5449 54.4924 29.6629 50.8414 35.6479C47.1904 41.6329 42.5244 39.8199 42.5244 39.8199" stroke="#60423A" stroke-width="0.75" stroke-miterlimit="10" stroke-linecap="round" stroke-linejoin="round"/>
<path d="M52.094 31.5507C54.603 29.1917 55.843 25.0927 54.965 21.7627C54.636 20.5137 54.06 19.3457 53.488 18.1887C52.982 17.1647 52.476 16.1407 51.969 15.1167C51.441 14.0477 50.912 12.9787 50.318 11.9447C48.035 7.9717 44.78 4.5617 40.917 2.0957C44.055 4.9467 46.389 8.67169 47.584 12.7387C47.864 13.6897 48.082 14.7077 47.818 15.6627C47.441 17.0247 46.194 17.9327 45.377 19.0857C44.232 20.7017 43.967 22.9047 44.698 24.7457C45.428 26.5867 47.061 28.1527 49.003 28.5447" stroke="#60423A" stroke-width="0.75" stroke-miterlimit="10" stroke-linecap="round" stroke-linejoin="round"/>
<path d="M29.2031 92.1424C35.3851 92.1424 37.4291 77.3695 37.4291 77.3695C37.4291 77.3695 38.4221 70.3015 38.0791 64.6475" stroke="#60423A" stroke-width="0.75" stroke-miterlimit="10" stroke-linecap="round" stroke-linejoin="round"/>
<path d="M37.5939 61.0535C37.4439 60.3535 37.2869 59.7315 37.1289 59.1885" stroke="#60423A" stroke-width="0.75" stroke-miterlimit="10" stroke-linecap="round" stroke-linejoin="round"/>
<path d="M35.7 55.8147C35.307 55.2427 35.042 55.1357 35.042 55.1357" stroke="#60423A" stroke-width="0.75" stroke-miterlimit="10" stroke-linecap="round" stroke-linejoin="round"/>
<path d="M37.0441 59.2256H29.2041" stroke="#60423A" stroke-width="0.75" stroke-miterlimit="10" stroke-linecap="round" stroke-linejoin="round"/>
<path d="M38.1511 66.5938H29.2041" stroke="#60423A" stroke-width="0.75" stroke-miterlimit="10" stroke-linecap="round" stroke-linejoin="round"/>
<path d="M37.8101 73.9619H29.2041" stroke="#60423A" stroke-width="0.75" stroke-miterlimit="10" stroke-linecap="round" stroke-linejoin="round"/>
<path d="M36.6391 81.3311H29.2041" stroke="#60423A" stroke-width="0.75" stroke-miterlimit="10" stroke-linecap="round" stroke-linejoin="round"/>
<path d="M33.8291 88.6982H29.2041" stroke="#60423A" stroke-width="0.75" stroke-miterlimit="10" stroke-linecap="round" stroke-linejoin="round"/>
<path d="M38.3008 60.918C38.0508 60.918 37.8078 60.968 37.5928 61.054C37.6288 61.175 37.6498 61.297 37.6788 61.426C37.8788 62.391 38.0078 63.491 38.0788 64.649C38.1508 64.656 38.2288 64.663 38.3008 64.663C39.3368 64.663 40.1808 63.827 40.1808 62.79C40.1808 61.754 39.3378 60.918 38.3008 60.918Z" stroke="#60423A" stroke-width="0.75" stroke-miterlimit="10" stroke-linecap="round" stroke-linejoin="round"/>
<path d="M36.7582 55.4785C36.3652 55.4785 36.0002 55.5995 35.7002 55.8145C36.0862 56.3795 36.6082 57.3865 37.1292 59.1875C37.9872 59.0155 38.6372 58.2585 38.6372 57.3505C38.6372 56.3145 37.7942 55.4785 36.7582 55.4785Z" stroke="#60423A" stroke-width="0.75" stroke-miterlimit="10" stroke-linecap="round" stroke-linejoin="round"/>
<path d="M38.9156 50.8331C38.9156 49.7971 38.0796 48.9531 37.0426 48.9531C36.8426 48.9531 36.6566 48.9821 36.4776 49.0461L37.1276 51.0471L36.3486 52.5691C36.5626 52.6551 36.7916 52.7051 37.0416 52.7051C38.0796 52.7061 38.9156 51.8701 38.9156 50.8331Z" stroke="#60423A" stroke-width="0.75" stroke-miterlimit="10" stroke-linecap="round" stroke-linejoin="round"/>
<path d="M37.73 46.038C37.73 45.002 36.887 44.165 35.85 44.165C35.528 44.165 35.221 44.244 34.957 44.394L36.101 47.896C37.022 47.774 37.73 46.988 37.73 46.038Z" stroke="#60423A" stroke-width="0.75" stroke-miterlimit="10" stroke-linecap="round" stroke-linejoin="round"/>
<path d="M36.9346 44.5098L43.7876 47.3048C43.7876 47.3048 42.3535 50.3448 37.0435 47.4838" stroke="#60423A" stroke-width="0.75" stroke-miterlimit="10" stroke-linecap="round" stroke-linejoin="round"/>
<path d="M43.7877 47.3043L46.4537 42.8673C46.4537 42.8673 44.6157 42.0693 41.4697 46.3593" stroke="#60423A" stroke-width="0.75" stroke-miterlimit="10" stroke-linecap="round" stroke-linejoin="round"/>
<path d="M46.4544 42.8672L51.5704 46.0302C51.5704 46.0302 51.0014 47.4202 45.4004 44.6222" stroke="#60423A" stroke-width="0.75" stroke-miterlimit="10" stroke-linecap="round" stroke-linejoin="round"/>
<path d="M38.466 49.6094L50.155 54.4734C50.155 54.4734 49.137 57.3324 43.412 54.6524L38.292 52.2254" stroke="#60423A" stroke-width="0.75" stroke-miterlimit="10" stroke-linecap="round" stroke-linejoin="round"/>
<path d="M50.1539 54.4742L52.8199 50.0372C52.8199 50.0372 50.9819 49.2392 47.8359 53.5292" stroke="#60423A" stroke-width="0.75" stroke-miterlimit="10" stroke-linecap="round" stroke-linejoin="round"/>
<path d="M52.8196 50.0371L57.9356 53.2001C57.9356 53.2001 57.3666 54.5901 51.7656 51.7921" stroke="#60423A" stroke-width="0.75" stroke-miterlimit="10" stroke-linecap="round" stroke-linejoin="round"/>
<path d="M38.1887 56.1309L49.8777 60.9949C49.8777 60.9949 48.8596 63.8539 43.1346 61.1739L38.0146 58.7469" stroke="#60423A" stroke-width="0.75" stroke-miterlimit="10" stroke-linecap="round" stroke-linejoin="round"/>
<path d="M49.8766 60.9947L52.5426 56.5577C52.5426 56.5577 50.7046 55.7597 47.5586 60.0497" stroke="#60423A" stroke-width="0.75" stroke-miterlimit="10" stroke-linecap="round" stroke-linejoin="round"/>
<path d="M52.5433 56.5576L57.6593 59.7206C57.6593 59.7206 57.0903 61.1106 51.4893 58.3126" stroke="#60423A" stroke-width="0.75" stroke-miterlimit="10" stroke-linecap="round" stroke-linejoin="round"/>
<path d="M40.1319 62.3193L47.6589 72.4993C47.6589 72.4993 45.3159 74.4283 41.7819 69.1873L38.7529 64.6473" stroke="#60423A" stroke-width="0.75" stroke-miterlimit="10" stroke-linecap="round" stroke-linejoin="round"/>
<path d="M47.6593 72.4999L52.2263 70.0629C52.2263 70.0629 51.0592 68.4339 46.1562 70.4969" stroke="#60423A" stroke-width="0.75" stroke-miterlimit="10" stroke-linecap="round" stroke-linejoin="round"/>
<path d="M52.2259 70.0625L57.2569 79.7885C57.2569 79.7885 53.7879 76.3045 50.4199 71.0265" stroke="#60423A" stroke-width="0.75" stroke-miterlimit="10" stroke-linecap="round" stroke-linejoin="round"/>
<path d="M32.3345 90.7071C32.3345 90.7071 32.8995 96.1601 29.8115 96.7891L28.3745 96.76C25.4225 96.01 25.9805 90.7061 25.9805 90.7061" stroke="#60423A" stroke-width="0.75" stroke-miterlimit="10" stroke-linecap="round" stroke-linejoin="round"/>
<path d="M28.6304 54.9535L24.8554 45.8135L22.9404 51.0795L24.0934 53.5445L25.5345 52.2255" stroke="#60423A" stroke-width="0.75" stroke-miterlimit="10" stroke-linecap="round" stroke-linejoin="round"/>
<path d="M25.9499 44.1644C26.5182 44.1644 26.9789 43.7037 26.9789 43.1354C26.9789 42.5671 26.5182 42.1064 25.9499 42.1064C25.3816 42.1064 24.9209 42.5671 24.9209 43.1354C24.9209 43.7037 25.3816 44.1644 25.9499 44.1644Z" stroke="#60423A" stroke-width="0.75" stroke-miterlimit="10" stroke-linecap="round" stroke-linejoin="round"/>
<path d="M29.7588 55.1341L33.5338 45.9951L35.4488 51.2601L34.2958 53.7261L32.8538 52.4071" stroke="#60423A" stroke-width="0.75" stroke-miterlimit="10" stroke-linecap="round" stroke-linejoin="round"/>
<path d="M32.4392 44.3451C33.0075 44.3451 33.4682 43.8844 33.4682 43.3161C33.4682 42.7478 33.0075 42.2871 32.4392 42.2871C31.8709 42.2871 31.4102 42.7478 31.4102 43.3161C31.4102 43.8844 31.8709 44.3451 32.4392 44.3451Z" stroke="#60423A" stroke-width="0.75" stroke-miterlimit="10" stroke-linecap="round" stroke-linejoin="round"/>
<path d="M29.1563 16.7384C31.9884 16.7384 34.2843 14.4425 34.2843 11.6104C34.2843 8.7783 31.9884 6.48242 29.1563 6.48242C26.3242 6.48242 24.0283 8.7783 24.0283 11.6104C24.0283 14.4425 26.3242 16.7384 29.1563 16.7384Z" stroke="#60423A" stroke-width="0.75" stroke-miterlimit="10" stroke-linecap="round" stroke-linejoin="round"/>
<path d="M34.4531 21.799C34.4531 20.619 34.0721 19.535 33.4281 18.665C35.9071 20.131 37.5631 22.824 37.5631 25.899C37.5631 30.547 33.7971 34.313 29.1611 34.313C24.5131 34.313 20.7471 30.547 20.7471 25.899C20.7471 22.824 22.4031 20.131 24.8821 18.665C24.2391 19.535 23.8571 20.619 23.8571 21.799C23.8571 24.731 26.2291 27.102 29.1601 27.102C32.0811 27.102 34.4531 24.731 34.4531 21.799Z" stroke="#60423A" stroke-width="0.75" stroke-miterlimit="10" stroke-linecap="round" stroke-linejoin="round"/>
<path d="M29.1555 3.815C30.1055 3.815 30.8755 3.04493 30.8755 2.095C30.8755 1.14507 30.1055 0.375 29.1555 0.375C28.2056 0.375 27.4355 1.14507 27.4355 2.095C27.4355 3.04493 28.2056 3.815 29.1555 3.815Z" stroke="#60423A" stroke-width="0.75" stroke-miterlimit="10" stroke-linecap="round" stroke-linejoin="round"/>
<path d="M52.8251 92.997C51.4671 94.398 49.3901 94.897 47.4301 94.867C45.9211 94.842 44.4001 94.536 43.0911 93.792C40.7921 92.488 39.3391 89.824 39.4891 87.191C39.6391 84.551 41.3831 82.07 43.8151 81.041C43.0911 81.649 42.6281 82.574 42.6511 83.521C42.6731 84.467 43.2051 85.394 44.0461 85.831C44.8931 86.268 45.9231 86.179 46.8471 85.926C47.7641 85.673 48.6471 85.218 49.6001 85.145C52.3181 84.935 54.1811 86.152 54.4791 88.7C54.6601 90.263 54.3161 91.702 52.8251 92.997Z" stroke="#60423A" stroke-width="0.75" stroke-miterlimit="10" stroke-linecap="round" stroke-linejoin="round"/>
<path d="M26.6131 95.2278C26.0971 99.1718 27.8811 103.971 30.7151 106.763C33.5481 109.555 37.6931 110.943 41.6411 110.459C45.5891 109.976 49.2631 107.643 51.4161 104.298C53.5691 100.953 54.1711 96.6618 53.0611 92.8418" stroke="#60423A" stroke-width="0.75" stroke-miterlimit="10" stroke-linecap="round" stroke-linejoin="round"/>
<path d="M31.915 95.3116C32.12 97.3226 32.641 99.3206 33.623 101.088C34.605 102.855 36.068 104.383 37.885 105.269C40.12 106.36 42.8091 106.411 45.1371 105.534C47.4641 104.658 49.4201 102.893 50.6551 100.735C51.8901 98.5756 52.42 96.0436 52.3 93.5596" stroke="#60423A" stroke-width="0.75" stroke-miterlimit="10" stroke-linecap="round" stroke-linejoin="round"/>
<path d="M34.3799 102.405C33.0179 103.657 31.6559 104.909 30.2939 106.162" stroke="#60423A" stroke-width="0.75" stroke-miterlimit="10" stroke-linecap="round" stroke-linejoin="round"/>
<path d="M40.6819 106.132C40.6509 107.506 40.6199 108.88 40.5889 110.254" stroke="#60423A" stroke-width="0.75" stroke-miterlimit="10" stroke-linecap="round" stroke-linejoin="round"/>
<path d="M48.0859 104.278C48.4149 105.123 48.7449 105.968 49.0739 106.813" stroke="#60423A" stroke-width="0.75" stroke-miterlimit="10" stroke-linecap="round" stroke-linejoin="round"/>
<path d="M9.1402 71.6943L5.49121 81.0413L27.5132 101.699" stroke="#60423A" stroke-width="0.75" stroke-miterlimit="10" stroke-linecap="round" stroke-linejoin="round"/>
<path d="M12.9122 62.0322L9.9082 69.7262" stroke="#60423A" stroke-width="0.75" stroke-miterlimit="10" stroke-linecap="round" stroke-linejoin="round"/>
<path d="M41.0708 92.041L32.9668 99.643" stroke="#60423A" stroke-width="0.75" stroke-miterlimit="10" stroke-linecap="round" stroke-linejoin="round"/>
<path d="M49.1489 71.6943L52.7979 81.0413L48.0029 85.5383" stroke="#60423A" stroke-width="0.75" stroke-miterlimit="10" stroke-linecap="round" stroke-linejoin="round"/>
<path d="M45.377 62.0322L48.381 69.7262" stroke="#60423A" stroke-width="0.75" stroke-miterlimit="10" stroke-linecap="round" stroke-linejoin="round"/>
<path d="M21.9434 12.6793C18.9664 14.8613 18.7764 18.6643 18.7764 18.6643C18.7764 18.6643 18.5864 14.8613 15.6094 12.6793C18.5864 10.4973 18.7764 6.69434 18.7764 6.69434C18.7764 6.69434 18.9664 10.4973 21.9434 12.6793Z" stroke="#60423A" stroke-width="0.75" stroke-miterlimit="10" stroke-linecap="round" stroke-linejoin="round"/>
<path d="M42.7022 12.6793C39.7252 14.8613 39.5352 18.6643 39.5352 18.6643C39.5352 18.6643 39.3452 14.8613 36.3682 12.6793C39.3452 10.4973 39.5352 6.69434 39.5352 6.69434C39.5352 6.69434 39.7252 10.4973 42.7022 12.6793Z" stroke="#60423A" stroke-width="0.75" stroke-miterlimit="10" stroke-linecap="round" stroke-linejoin="round"/>
</svg>
