<svg width="76" height="114" viewBox="0 0 76 114" fill="none" xmlns="http://www.w3.org/2000/svg">
<path d="M38.9887 56.8906H33.2987L24.0657 65.6136L21.5967 75.5986L27.8237 102.57" stroke="#60423A" stroke-width="0.75" stroke-miterlimit="10" stroke-linecap="round" stroke-linejoin="round"/>
<path d="M38.9889 103.673H33.8889C33.8889 103.673 30.8829 102.988 30.8829 98.3047C30.8829 98.3047 29.6339 101.296 29.7599 105.222C29.8249 107.254 31.4999 108.868 33.5329 108.868H38.9879" stroke="#60423A" stroke-width="0.75" stroke-miterlimit="10" stroke-linecap="round" stroke-linejoin="round"/>
<path d="M33.8772 106.954C33.8772 106.954 29.9522 105.55 31.2122 104.289C32.4722 103.028 33.8772 106.954 33.8772 106.954Z" stroke="#60423A" stroke-width="0.75" stroke-miterlimit="10" stroke-linecap="round" stroke-linejoin="round"/>
<path d="M21.597 75.5986L20.02 78.2646C18.277 81.2116 15.07 82.9786 11.647 82.8766L0.375 82.5406" stroke="#60423A" stroke-width="0.75" stroke-miterlimit="10" stroke-linecap="round" stroke-linejoin="round"/>
<path d="M22.674 71.2436L19.511 70.1146C15.941 68.8406 11.955 69.8356 9.40198 72.6366L0.375977 82.5406L22.674 71.2436ZM22.674 71.2436C33.914 71.2436 33.156 83.8286 33.156 83.8286" stroke="#60423A" stroke-width="0.75" stroke-miterlimit="10" stroke-linecap="round" stroke-linejoin="round"/>
<path d="M24.0665 65.614C24.0665 65.614 3.38245 58.823 4.02645 46.741C4.67045 34.659 10.3085 29.21 14.1525 23.708C20.9535 13.974 17.4105 0.375 17.4105 0.375C27.1085 14.296 20.0945 26.356 17.9835 29.863C15.8725 33.37 12.6874 37.629 14.9054 45.108C17.1244 52.587 33.2995 56.89 33.2995 56.89" stroke="#60423A" stroke-width="0.75" stroke-miterlimit="10" stroke-linecap="round" stroke-linejoin="round"/>
<path d="M20.7148 64.3088L29.3918 55.6328" stroke="#60423A" stroke-width="0.75" stroke-miterlimit="10" stroke-linecap="round" stroke-linejoin="round"/>
<path d="M13.3096 60.3921L21.6226 52.0781" stroke="#60423A" stroke-width="0.75" stroke-miterlimit="10" stroke-linecap="round" stroke-linejoin="round"/>
<path d="M7.20215 55.1751L15.6331 46.7441" stroke="#60423A" stroke-width="0.75" stroke-miterlimit="10" stroke-linecap="round" stroke-linejoin="round"/>
<path d="M4.01562 47.0389L14.7166 36.3379" stroke="#60423A" stroke-width="0.75" stroke-miterlimit="10" stroke-linecap="round" stroke-linejoin="round"/>
<path d="M9.28516 30.4461L22.3201 17.4111" stroke="#60423A" stroke-width="0.75" stroke-miterlimit="10" stroke-linecap="round" stroke-linejoin="round"/>
<path d="M18.3037 10.1042L21.0427 7.36621" stroke="#60423A" stroke-width="0.75" stroke-miterlimit="10" stroke-linecap="round" stroke-linejoin="round"/>
<path d="M28.1745 82.1483C28.1745 82.1483 23.1305 80.9513 23.0225 74.9033L24.9995 75.6373C26.4905 76.1933 27.5565 77.5223 27.7645 79.1053L28.1745 82.1483Z" stroke="#60423A" stroke-width="0.75" stroke-miterlimit="10" stroke-linecap="round" stroke-linejoin="round"/>
<path d="M11.8592 59.3984L2.36621 80.3584" stroke="#60423A" stroke-width="0.75" stroke-miterlimit="10" stroke-linecap="round" stroke-linejoin="round"/>
<path d="M2.70312 82.6113L28.4321 111.242" stroke="#60423A" stroke-width="0.75" stroke-miterlimit="10" stroke-linecap="round" stroke-linejoin="round"/>
<path d="M36.2158 56.8906H41.9058L51.1388 65.6136L53.6078 75.5986L47.3808 102.57" stroke="#60423A" stroke-width="0.75" stroke-miterlimit="10" stroke-linecap="round" stroke-linejoin="round"/>
<path d="M47.9858 104.586L46.7728 111.244C46.7728 111.244 44.3788 114.001 41.0498 112.387C39.5358 111.653 38.3928 111.275 37.6048 111.082C36.8168 111.275 35.6818 111.654 34.1598 112.387C30.8308 114.001 28.4288 111.244 28.4288 111.244L27.2158 104.586C27.2158 104.586 32.1208 87.1218 33.1558 83.8318C33.8278 81.6998 36.0758 81.1898 37.5738 81.0898H37.6278C39.1258 81.1898 41.3738 81.6998 42.0458 83.8318C43.0888 87.1218 47.9858 104.586 47.9858 104.586Z" stroke="#60423A" stroke-width="0.75" stroke-miterlimit="10" stroke-linecap="round" stroke-linejoin="round"/>
<path d="M36.2158 103.673H41.3158C41.3158 103.673 44.3218 102.988 44.3218 98.3047C44.3218 98.3047 45.5708 101.296 45.4448 105.222C45.3798 107.254 43.7048 108.868 41.6718 108.868H36.2168" stroke="#60423A" stroke-width="0.75" stroke-miterlimit="10" stroke-linecap="round" stroke-linejoin="round"/>
<path d="M41.3291 106.954C41.3291 106.954 45.2541 105.55 43.9941 104.289C42.7331 103.028 41.3291 106.954 41.3291 106.954Z" stroke="#60423A" stroke-width="0.75" stroke-miterlimit="10" stroke-linecap="round" stroke-linejoin="round"/>
<path d="M53.6084 75.5986L55.1854 78.2646C56.9284 81.2116 60.1354 82.9786 63.5584 82.8766L74.8304 82.5406" stroke="#60423A" stroke-width="0.75" stroke-miterlimit="10" stroke-linecap="round" stroke-linejoin="round"/>
<path d="M52.5308 71.2436L55.6938 70.1146C59.2638 68.8406 63.2498 69.8356 65.8028 72.6366L74.8288 82.5406L52.5308 71.2436ZM52.5308 71.2436C41.2908 71.2436 42.0488 83.8286 42.0488 83.8286" stroke="#60423A" stroke-width="0.75" stroke-miterlimit="10" stroke-linecap="round" stroke-linejoin="round"/>
<path d="M51.1393 65.614C51.1393 65.614 71.8232 58.823 71.1792 46.741C70.5352 34.659 64.8973 29.21 61.0533 23.708C54.2523 13.974 57.7953 0.375 57.7953 0.375C48.0973 14.296 55.1112 26.356 57.2222 29.863C59.3332 33.37 62.5182 37.629 60.3002 45.108C58.0812 52.587 41.9062 56.89 41.9062 56.89" stroke="#60423A" stroke-width="0.75" stroke-miterlimit="10" stroke-linecap="round" stroke-linejoin="round"/>
<path d="M54.4904 64.3088L45.8145 55.6328" stroke="#60423A" stroke-width="0.75" stroke-miterlimit="10" stroke-linecap="round" stroke-linejoin="round"/>
<path d="M61.896 60.3921L53.582 52.0781" stroke="#60423A" stroke-width="0.75" stroke-miterlimit="10" stroke-linecap="round" stroke-linejoin="round"/>
<path d="M68.0023 55.1751L59.5713 46.7441" stroke="#60423A" stroke-width="0.75" stroke-miterlimit="10" stroke-linecap="round" stroke-linejoin="round"/>
<path d="M71.1893 47.0389L60.4883 36.3379" stroke="#60423A" stroke-width="0.75" stroke-miterlimit="10" stroke-linecap="round" stroke-linejoin="round"/>
<path d="M65.9198 30.4461L52.8848 17.4111" stroke="#60423A" stroke-width="0.75" stroke-miterlimit="10" stroke-linecap="round" stroke-linejoin="round"/>
<path d="M56.9011 10.1042L54.1621 7.36621" stroke="#60423A" stroke-width="0.75" stroke-miterlimit="10" stroke-linecap="round" stroke-linejoin="round"/>
<path d="M43.784 69.9056L39.489 72.1606L37.605 76.5936L35.712 72.1606L31.418 69.9056L35.712 67.6576L37.605 63.2236L39.489 67.6576L43.784 69.9056Z" stroke="#60423A" stroke-width="0.75" stroke-miterlimit="10" stroke-linecap="round" stroke-linejoin="round"/>
<path d="M47.0312 82.1483C47.0312 82.1483 52.0752 80.9513 52.1832 74.9033L50.2063 75.6373C48.7153 76.1933 47.6493 77.5223 47.4413 79.1053L47.0312 82.1483Z" stroke="#60423A" stroke-width="0.75" stroke-miterlimit="10" stroke-linecap="round" stroke-linejoin="round"/>
<path d="M63.3457 59.3984L72.8397 80.3584" stroke="#60423A" stroke-width="0.75" stroke-miterlimit="10" stroke-linecap="round" stroke-linejoin="round"/>
<path d="M72.5024 82.6113L46.7734 111.242" stroke="#60423A" stroke-width="0.75" stroke-miterlimit="10" stroke-linecap="round" stroke-linejoin="round"/>
<path d="M38.4556 53.3789C45.1172 53.3789 50.5175 47.9785 50.5175 41.3169C50.5175 34.6552 45.1172 29.2549 38.4556 29.2549C31.7939 29.2549 26.3936 34.6552 26.3936 41.3169C26.3936 47.9785 31.7939 53.3789 38.4556 53.3789Z" stroke="#60423A" stroke-width="0.75" stroke-miterlimit="10" stroke-linecap="round" stroke-linejoin="round"/>
<path d="M38.4558 34.4955C42.8674 34.4955 46.4438 30.9192 46.4438 26.5075C46.4438 22.0959 42.8674 18.5195 38.4558 18.5195C34.0441 18.5195 30.4678 22.0959 30.4678 26.5075C30.4678 30.9192 34.0441 34.4955 38.4558 34.4955Z" stroke="#60423A" stroke-width="0.75" stroke-miterlimit="10" stroke-linecap="round" stroke-linejoin="round"/>
<path d="M41.9189 6.98748C41.9189 6.21648 41.6699 5.50748 41.2489 4.93848C42.8689 5.89648 43.9519 7.65647 43.9519 9.66647C43.9519 12.7045 41.4909 15.1655 38.4609 15.1655C35.4229 15.1655 32.9619 12.7045 32.9619 9.66647C32.9619 7.65647 34.0449 5.89648 35.6649 4.93848C35.2439 5.50748 34.9949 6.21548 34.9949 6.98748C34.9949 8.90348 36.5449 10.4535 38.4609 10.4535C40.3689 10.4535 41.9189 8.90348 41.9189 6.98748Z" stroke="#60423A" stroke-width="0.75" stroke-miterlimit="10" stroke-linecap="round" stroke-linejoin="round"/>
<path d="M12.5342 17.1608C9.55719 19.3428 9.36719 23.1458 9.36719 23.1458C9.36719 23.1458 9.1772 19.3428 6.2002 17.1608C9.1772 14.9788 9.36719 11.1758 9.36719 11.1758C9.36719 11.1758 9.55719 14.9788 12.5342 17.1608Z" stroke="#60423A" stroke-width="0.75" stroke-miterlimit="10" stroke-linecap="round" stroke-linejoin="round"/>
<path d="M69.086 101.699C66.109 103.881 65.919 107.684 65.919 107.684C65.919 107.684 65.729 103.881 62.752 101.699C65.729 99.5169 65.919 95.7139 65.919 95.7139C65.919 95.7139 66.109 99.5169 69.086 101.699Z" stroke="#60423A" stroke-width="0.75" stroke-miterlimit="10" stroke-linecap="round" stroke-linejoin="round"/>
</svg>
