<svg width="66" height="98" viewBox="0 0 66 98" fill="none" xmlns="http://www.w3.org/2000/svg">
<path d="M32.9187 32.9209C32.9187 32.9209 28.1937 49.5479 13.3077 49.5479C13.3077 49.5479 11.4607 47.0259 9.61272 48.5529C7.76572 50.0809 8.68872 62.9059 14.5867 62.9059" stroke="#60423A" stroke-width="0.75" stroke-miterlimit="10" stroke-linecap="round" stroke-linejoin="round"/>
<path d="M14.4444 53.3848C14.4444 53.3848 14.4084 60.7628 15.8654 67.4418C16.9954 72.6218 21.1304 77.5598 26.7234 81.5998C27.9484 82.4848 29.4334 82.9408 30.9444 82.9408H32.9184" stroke="#60423A" stroke-width="0.75" stroke-miterlimit="10" stroke-linecap="round" stroke-linejoin="round"/>
<path d="M20.838 76.39C20.838 76.39 22.58 86 15.652 91.542C8.72401 97.084 0.375 96.8709 0.375 96.8709L10.704 60.335" stroke="#60423A" stroke-width="0.75" stroke-miterlimit="10" stroke-linecap="round" stroke-linejoin="round"/>
<path d="M14.1143 62.9561L4.94531 96.382" stroke="#60423A" stroke-width="0.75" stroke-miterlimit="10" stroke-linecap="round" stroke-linejoin="round"/>
<path d="M16.7169 70.1133L9.91992 94.8903" stroke="#60423A" stroke-width="0.75" stroke-miterlimit="10" stroke-linecap="round" stroke-linejoin="round"/>
<path d="M20.0573 75.4893L15.6523 91.5423" stroke="#60423A" stroke-width="0.75" stroke-miterlimit="10" stroke-linecap="round" stroke-linejoin="round"/>
<path d="M25.9443 73.25C26.5633 73.756 27.3893 73.945 28.1893 73.962C28.9893 73.979 29.7823 73.841 30.5783 73.766C31.3743 73.691 32.1343 73.697 32.8883 73.963" stroke="#60423A" stroke-width="0.75" stroke-miterlimit="10" stroke-linecap="round" stroke-linejoin="round"/>
<path d="M26.957 73.7763C26.957 73.7763 27.197 71.4863 32.889 71.4863" stroke="#60423A" stroke-width="0.75" stroke-miterlimit="10" stroke-linecap="round" stroke-linejoin="round"/>
<path d="M29.1621 75.5898C29.1621 75.5898 30.2481 77.1888 32.8891 77.1888" stroke="#60423A" stroke-width="0.75" stroke-miterlimit="10" stroke-linecap="round" stroke-linejoin="round"/>
<path d="M18.1113 53.1138C19.4813 51.6598 21.4103 50.7038 23.4083 50.6588C25.4063 50.6138 27.4363 51.5328 28.5963 53.1598C29.7633 54.7968 29.9703 56.9238 29.9353 58.9338C29.8863 61.7588 29.4333 64.5758 28.5953 67.2738C28.5953 67.2738 29.7493 68.7668 32.9193 68.7668" stroke="#60423A" stroke-width="0.75" stroke-miterlimit="10" stroke-linecap="round" stroke-linejoin="round"/>
<path d="M19.0361 55.8721C19.0361 55.8721 22.4731 58.5901 27.5361 55.8721" stroke="#60423A" stroke-width="0.75" stroke-miterlimit="10" stroke-linecap="round" stroke-linejoin="round"/>
<path d="M32.9187 26.775C29.4277 45.88 10.9627 48.064 10.9627 48.064C10.9627 48.064 8.1377 33.596 19.8087 23.79" stroke="#60423A" stroke-width="0.75" stroke-miterlimit="10" stroke-linecap="round" stroke-linejoin="round"/>
<path d="M11.7554 32.8136C13.6254 27.7846 8.88735 25.2666 8.88735 25.2666C8.88735 25.2666 7.01736 30.2956 11.7554 32.8136Z" stroke="#60423A" stroke-width="0.75" stroke-miterlimit="10" stroke-linecap="round" stroke-linejoin="round"/>
<path d="M14.3494 27.8279C17.8844 23.7909 14.3494 19.7539 14.3494 19.7539C14.3494 19.7539 10.8144 23.7909 14.3494 27.8279Z" stroke="#60423A" stroke-width="0.75" stroke-miterlimit="10" stroke-linecap="round" stroke-linejoin="round"/>
<path d="M21.7904 33.0356C17.3594 30.0096 13.7744 34.0016 13.7744 34.0016C13.7744 34.0016 18.2064 37.0276 21.7904 33.0356Z" stroke="#60423A" stroke-width="0.75" stroke-miterlimit="10" stroke-linecap="round" stroke-linejoin="round"/>
<path d="M24.7554 28.7242C20.5544 25.3872 16.6914 29.1102 16.6914 29.1102C16.6914 29.1102 20.8924 32.4482 24.7554 28.7242Z" stroke="#60423A" stroke-width="0.75" stroke-miterlimit="10" stroke-linecap="round" stroke-linejoin="round"/>
<path d="M28.3822 16.6978C29.5352 18.0668 27.8012 20.2268 27.8012 20.2268C29.5112 21.4238 28.7032 22.9648 28.7032 22.9648L20.9912 22.9218L22.2612 15.3148C22.2612 15.3148 23.9172 14.7808 24.8052 16.6698C24.8052 16.6698 27.2282 15.3288 28.3822 16.6978Z" stroke="#60423A" stroke-width="0.75" stroke-miterlimit="10" stroke-linecap="round" stroke-linejoin="round"/>
<path d="M32.8887 32.9258C32.8887 32.9258 37.6137 49.5528 52.4997 49.5528C52.4997 49.5528 54.3467 47.0308 56.1947 48.5578C58.0417 50.0858 57.1187 62.9108 51.2207 62.9108" stroke="#60423A" stroke-width="0.75" stroke-miterlimit="10" stroke-linecap="round" stroke-linejoin="round"/>
<path d="M51.3627 53.3896C51.3627 53.3896 51.3987 60.7677 49.9417 67.4467C48.8117 72.6267 44.6767 77.5646 39.0837 81.6046C37.8587 82.4896 36.3737 82.9456 34.8627 82.9456H32.8887" stroke="#60423A" stroke-width="0.75" stroke-miterlimit="10" stroke-linecap="round" stroke-linejoin="round"/>
<path d="M44.9695 76.3948C44.9695 76.3948 43.2275 86.0048 50.1555 91.5468C57.0835 97.0888 65.4325 96.8758 65.4325 96.8758L55.1035 60.3398" stroke="#60423A" stroke-width="0.75" stroke-miterlimit="10" stroke-linecap="round" stroke-linejoin="round"/>
<path d="M51.6934 62.9619L60.8624 96.3869" stroke="#60423A" stroke-width="0.75" stroke-miterlimit="10" stroke-linecap="round" stroke-linejoin="round"/>
<path d="M49.0898 70.1182L55.8868 94.8962" stroke="#60423A" stroke-width="0.75" stroke-miterlimit="10" stroke-linecap="round" stroke-linejoin="round"/>
<path d="M45.75 75.4951L50.155 91.5471" stroke="#60423A" stroke-width="0.75" stroke-miterlimit="10" stroke-linecap="round" stroke-linejoin="round"/>
<path d="M39.8629 73.2549C39.2439 73.7609 38.4179 73.9499 37.6179 73.9669C36.8179 73.9839 36.0249 73.8459 35.2289 73.7709C34.4329 73.6959 33.6729 73.7019 32.9189 73.9679" stroke="#60423A" stroke-width="0.75" stroke-miterlimit="10" stroke-linecap="round" stroke-linejoin="round"/>
<path d="M38.85 73.7812C38.85 73.7812 38.61 71.4912 32.918 71.4912" stroke="#60423A" stroke-width="0.75" stroke-miterlimit="10" stroke-linecap="round" stroke-linejoin="round"/>
<path d="M36.6459 75.5947C36.6459 75.5947 35.5599 77.1937 32.9189 77.1937" stroke="#60423A" stroke-width="0.75" stroke-miterlimit="10" stroke-linecap="round" stroke-linejoin="round"/>
<path d="M47.6957 53.1197C46.3257 51.6657 44.3967 50.7097 42.3987 50.6647C40.4007 50.6197 38.3707 51.5387 37.2107 53.1657C36.0437 54.8027 35.8367 56.9297 35.8717 58.9397C35.9207 61.7647 36.3737 64.5817 37.2117 67.2797C37.2117 67.2797 36.0577 68.7727 32.8877 68.7727" stroke="#60423A" stroke-width="0.75" stroke-miterlimit="10" stroke-linecap="round" stroke-linejoin="round"/>
<path d="M46.7715 55.877C46.7715 55.877 43.3345 58.595 38.2715 55.877" stroke="#60423A" stroke-width="0.75" stroke-miterlimit="10" stroke-linecap="round" stroke-linejoin="round"/>
<path d="M32.8887 26.7799C36.3797 45.8849 54.8447 48.0689 54.8447 48.0689C54.8447 48.0689 57.6697 33.6009 45.9987 23.7949" stroke="#60423A" stroke-width="0.75" stroke-miterlimit="10" stroke-linecap="round" stroke-linejoin="round"/>
<path d="M54.0521 32.8195C52.1821 27.7905 56.9201 25.2725 56.9201 25.2725C56.9201 25.2725 58.7901 30.3015 54.0521 32.8195Z" stroke="#60423A" stroke-width="0.75" stroke-miterlimit="10" stroke-linecap="round" stroke-linejoin="round"/>
<path d="M51.4578 27.8328C47.9228 23.7958 51.4578 19.7588 51.4578 19.7588C51.4578 19.7588 54.9928 23.7958 51.4578 27.8328Z" stroke="#60423A" stroke-width="0.75" stroke-miterlimit="10" stroke-linecap="round" stroke-linejoin="round"/>
<path d="M44.0166 33.0414C48.4476 30.0154 52.0326 34.0074 52.0326 34.0074C52.0326 34.0074 47.6006 37.0334 44.0166 33.0414Z" stroke="#60423A" stroke-width="0.75" stroke-miterlimit="10" stroke-linecap="round" stroke-linejoin="round"/>
<path d="M41.0518 28.7291C45.2528 25.3921 49.1158 29.1151 49.1158 29.1151C49.1158 29.1151 44.9148 32.4531 41.0518 28.7291Z" stroke="#60423A" stroke-width="0.75" stroke-miterlimit="10" stroke-linecap="round" stroke-linejoin="round"/>
<path d="M37.4258 16.7036C36.2728 18.0726 38.0068 20.2326 38.0068 20.2326C36.2968 21.4296 37.1048 22.9706 37.1048 22.9706L44.8168 22.9276L43.5468 15.3206C43.5468 15.3206 41.8908 14.7866 41.0028 16.6756C41.0028 16.6756 38.5788 15.3336 37.4258 16.7036Z" stroke="#60423A" stroke-width="0.75" stroke-miterlimit="10" stroke-linecap="round" stroke-linejoin="round"/>
<path d="M8.7536 44.988C5.8356 40.47 4.1416 35.087 4.1416 29.309C4.1416 13.329 17.0956 0.375 33.0756 0.375C49.0556 0.375 62.0096 13.329 62.0096 29.309C62.0096 35.142 60.2836 40.571 57.3146 45.115" stroke="#60423A" stroke-width="0.75" stroke-miterlimit="10" stroke-linecap="round" stroke-linejoin="round"/>
<path d="M7.28508 48.0699C4.32908 50.2359 4.14108 54.0119 4.14108 54.0119C4.14108 54.0119 3.95207 50.2359 0.99707 48.0699C3.95307 45.9039 4.14108 42.1279 4.14108 42.1279C4.14108 42.1279 4.33008 45.9029 7.28508 48.0699Z" stroke="#60423A" stroke-width="0.75" stroke-miterlimit="10" stroke-linecap="round" stroke-linejoin="round"/>
<path d="M65.1532 48.0699C62.1972 50.2359 62.0092 54.0119 62.0092 54.0119C62.0092 54.0119 61.8202 50.2359 58.8652 48.0699C61.8212 45.9039 62.0092 42.1279 62.0092 42.1279C62.0092 42.1279 62.1972 45.9029 65.1532 48.0699Z" stroke="#60423A" stroke-width="0.75" stroke-miterlimit="10" stroke-linecap="round" stroke-linejoin="round"/>
</svg>
