<svg width="800" height="156" viewBox="0 0 800 156" fill="none" xmlns="http://www.w3.org/2000/svg">
<mask id="path-1-outside-1_132_695" maskUnits="userSpaceOnUse" x="-0.998047" y="-0.399902" width="801" height="157" fill="black">
<rect fill="white" x="-0.998047" y="-0.399902" width="801" height="157"/>
<path d="M19.6004 115.6H3.00039V3.00009H19.6004V115.6ZM78.4004 3.00009H94.8004V115.6H78.4004V3.00009ZM87.8004 64.4001H11.0004V51.4001H87.8004V64.4001ZM143.393 117.4C135.926 117.4 129.793 115.6 124.993 112C120.326 108.4 116.859 103.467 114.593 97.2001C112.459 90.9334 111.393 83.7334 111.393 75.6001C111.393 67.2001 112.526 59.8668 114.793 53.6001C117.059 47.2001 120.526 42.2001 125.193 38.6001C129.993 35.0001 136.059 33.2001 143.393 33.2001C147.926 33.2001 151.793 33.8668 154.993 35.2001C158.193 36.4001 160.859 37.9334 162.993 39.8001C165.126 41.6668 166.859 43.6001 168.193 45.6001C169.526 47.4668 170.459 49.1334 170.993 50.6001H171.393V33.8001H188.393V115.6H174.193L171.393 101H170.993C170.459 102.467 169.526 104.133 168.193 106C166.859 107.867 165.059 109.667 162.793 111.4C160.659 113.133 157.993 114.533 154.793 115.6C151.593 116.8 147.793 117.4 143.393 117.4ZM149.993 103.2C155.326 103.2 159.526 102.067 162.593 99.8001C165.659 97.4001 167.859 94.1334 169.193 90.0001C170.526 85.8668 171.193 81.1334 171.193 75.8001C171.193 70.0668 170.459 65.1334 168.993 61.0001C167.659 56.8668 165.459 53.7334 162.393 51.6001C159.326 49.3334 155.193 48.2001 149.993 48.2001C144.526 48.2001 140.126 49.4668 136.793 52.0001C133.593 54.4001 131.259 57.6668 129.793 61.8001C128.459 65.9334 127.793 70.5334 127.793 75.6001C127.793 80.8001 128.459 85.5334 129.793 89.8001C131.259 93.9334 133.593 97.2001 136.793 99.6001C140.126 102 144.526 103.2 149.993 103.2ZM237.279 117.6C233.545 117.6 229.879 117.067 226.279 116C222.812 115.067 219.545 113.667 216.479 111.8C213.545 109.933 210.879 107.8 208.479 105.4C206.212 103 204.412 100.4 203.079 97.6001C201.879 94.6668 201.279 91.6001 201.279 88.4001H216.879C216.879 88.5334 216.945 89.4668 217.079 91.2001C217.345 92.9334 218.079 94.9334 219.279 97.2001C220.479 99.3334 222.412 101.2 225.079 102.8C227.879 104.4 231.812 105.2 236.879 105.2C240.745 105.2 244.012 104.733 246.679 103.8C249.479 102.867 251.612 101.6 253.079 100C254.545 98.2668 255.212 96.2001 255.079 93.8001C255.079 90.4668 253.812 87.8668 251.279 86.0001C248.745 84.1334 245.479 82.6668 241.479 81.6001C237.479 80.4001 233.279 79.2668 228.879 78.2001C224.479 77.1334 220.279 75.7334 216.279 74.0001C212.279 72.1334 209.012 69.6668 206.479 66.6001C204.079 63.4001 202.945 59.1334 203.079 53.8001C203.079 46.6001 206.079 41.0668 212.079 37.2001C218.212 33.2001 225.945 31.2001 235.279 31.2001C239.812 31.2001 244.212 31.7334 248.479 32.8001C252.745 33.8668 256.545 35.5334 259.879 37.8001C263.345 40.0668 266.079 43.0668 268.079 46.8001C270.212 50.5334 271.212 55.1334 271.079 60.6001H255.679C255.812 57.1334 255.212 54.3334 253.879 52.2001C252.679 50.0668 251.012 48.4668 248.879 47.4001C246.745 46.2001 244.479 45.4001 242.079 45.0001C239.812 44.4668 237.612 44.2001 235.479 44.2001C230.145 44.2001 225.945 45.2001 222.879 47.2001C219.812 49.0668 218.279 51.6001 218.279 54.8001C218.279 58.1334 219.545 60.7334 222.079 62.6001C224.612 64.4668 227.879 65.9334 231.879 67.0001C235.879 68.0668 240.145 69.1334 244.679 70.2001C249.212 71.2668 253.479 72.7334 257.479 74.6001C261.479 76.3334 264.745 78.8001 267.279 82.0001C269.812 85.2001 271.079 89.4668 271.079 94.8001C271.079 100 269.612 104.267 266.679 107.6C263.879 110.933 259.945 113.467 254.879 115.2C249.812 116.8 243.945 117.6 237.279 117.6ZM308.514 115.6C302.914 115.6 298.781 114.133 296.114 111.2C293.448 108.267 292.114 103.8 292.114 97.8001V43.8001H307.914V102.4H326.914V115.6H308.514ZM279.514 45.8001V33.8001C282.581 33.8001 285.048 33.6001 286.914 33.2001C288.914 32.8001 290.381 32.0001 291.314 30.8001C292.381 29.4668 293.114 27.4001 293.514 24.6001C293.914 21.6668 294.114 17.7334 294.114 12.8001H307.914V33.8001H326.714V45.8001H279.514ZM344.518 115.6V33.8001H359.918L361.318 57.4001L361.118 75.0001V115.6H344.518ZM361.118 78.8001L360.518 60.8001C360.651 57.8668 361.318 54.8668 362.518 51.8001C363.718 48.6001 365.518 45.6668 367.918 43.0001C370.451 40.2001 373.651 38.0001 377.518 36.4001C381.518 34.6668 386.318 33.8001 391.918 33.8001H395.318V52.2001H391.718C385.718 52.2001 380.718 52.8001 376.718 54.0001C372.718 55.0668 369.584 56.7334 367.318 59.0001C365.051 61.2668 363.451 64.0668 362.518 67.4001C361.584 70.7334 361.118 74.5334 361.118 78.8001ZM443.804 117.6C435.004 117.6 427.604 115.8 421.604 112.2C415.604 108.6 411.07 103.667 408.004 97.4001C405.07 91.0001 403.604 83.8001 403.604 75.8001C403.604 67.5334 405.07 60.2668 408.004 54.0001C411.07 47.6001 415.604 42.6001 421.604 39.0001C427.604 35.4001 435.07 33.6001 444.004 33.6001C457.07 33.6001 467.004 37.4668 473.804 45.2001C480.604 52.9334 484.004 63.1334 484.004 75.8001C484.004 83.6668 482.537 90.8001 479.604 97.2001C476.804 103.467 472.404 108.467 466.404 112.2C460.537 115.8 453.004 117.6 443.804 117.6ZM443.804 103.4C450.337 103.4 455.337 102 458.804 99.2001C462.27 96.4001 464.604 92.8668 465.804 88.6001C467.137 84.2001 467.804 79.7334 467.804 75.2001C467.804 70.6668 467.137 66.2668 465.804 62.0001C464.604 57.6001 462.27 54.0001 458.804 51.2001C455.337 48.2668 450.337 46.8001 443.804 46.8001C437.537 46.8001 432.604 48.2668 429.004 51.2001C425.537 54.0001 423.137 57.6001 421.804 62.0001C420.47 66.2668 419.804 70.6668 419.804 75.2001C419.804 79.7334 420.47 84.2001 421.804 88.6001C423.137 92.8668 425.537 96.4001 429.004 99.2001C432.604 102 437.537 103.4 443.804 103.4ZM501.572 115.6V3.00009H517.972V115.6H501.572ZM573.1 117.6C564.3 117.6 556.9 115.8 550.9 112.2C544.9 108.6 540.367 103.667 537.3 97.4001C534.367 91.0001 532.9 83.8001 532.9 75.8001C532.9 67.5334 534.367 60.2668 537.3 54.0001C540.367 47.6001 544.9 42.6001 550.9 39.0001C556.9 35.4001 564.367 33.6001 573.3 33.6001C586.367 33.6001 596.3 37.4668 603.1 45.2001C609.9 52.9334 613.3 63.1334 613.3 75.8001C613.3 83.6668 611.834 90.8001 608.9 97.2001C606.1 103.467 601.7 108.467 595.7 112.2C589.834 115.8 582.3 117.6 573.1 117.6ZM573.1 103.4C579.634 103.4 584.634 102 588.1 99.2001C591.567 96.4001 593.9 92.8668 595.1 88.6001C596.434 84.2001 597.1 79.7334 597.1 75.2001C597.1 70.6668 596.434 66.2668 595.1 62.0001C593.9 57.6001 591.567 54.0001 588.1 51.2001C584.634 48.2668 579.634 46.8001 573.1 46.8001C566.834 46.8001 561.9 48.2668 558.3 51.2001C554.834 54.0001 552.434 57.6001 551.1 62.0001C549.767 66.2668 549.1 70.6668 549.1 75.2001C549.1 79.7334 549.767 84.2001 551.1 88.6001C552.434 92.8668 554.834 96.4001 558.3 99.2001C561.9 102 566.834 103.4 573.1 103.4ZM649.869 150.6V135H688.269V99.2001H687.869C687.602 99.7334 686.936 101 685.869 103C684.802 104.867 683.136 106.933 680.869 109.2C678.736 111.467 675.869 113.467 672.269 115.2C668.802 116.8 664.469 117.6 659.269 117.6C651.402 117.6 644.869 115.8 639.669 112.2C634.469 108.6 630.602 103.667 628.069 97.4001C625.669 91.1334 624.469 83.9334 624.469 75.8001C624.469 67.4001 625.736 60.0668 628.269 53.8001C630.802 47.4001 634.669 42.4668 639.869 39.0001C645.069 35.5334 651.602 33.8001 659.469 33.8001C664.802 33.8001 669.269 34.6668 672.869 36.4001C676.469 38.1334 679.269 40.2001 681.269 42.6001C683.402 45.0001 684.936 47.2001 685.869 49.2001C686.936 51.2001 687.536 52.4668 687.669 53.0001H688.069V33.8001H705.269V126C705.269 131.867 704.536 136.6 703.069 140.2C701.602 143.8 699.269 146.4 696.069 148C693.002 149.733 688.869 150.6 683.669 150.6H649.869ZM663.869 103.2C669.069 103.2 673.469 102.067 677.069 99.8001C680.669 97.5334 683.336 94.3334 685.069 90.2001C686.936 86.0668 687.869 81.2668 687.869 75.8001C687.869 70.4668 687.002 65.7334 685.269 61.6001C683.536 57.4668 680.936 54.3334 677.469 52.2001C674.136 49.9334 669.869 48.8001 664.669 48.8001C658.802 48.8001 654.069 50.0668 650.469 52.6001C647.002 55.1334 644.469 58.4668 642.869 62.6001C641.402 66.7334 640.669 71.1334 640.669 75.8001C640.669 80.4668 641.336 84.9334 642.669 89.2001C644.136 93.3334 646.536 96.7334 649.869 99.4001C653.336 101.933 658.002 103.2 663.869 103.2ZM713.438 152.8V139.8H725.238C727.105 139.8 728.771 139.533 730.238 139C731.705 138.6 733.105 137.533 734.438 135.8C735.905 134.067 737.438 131.4 739.038 127.8L746.038 112.4L714.038 33.8001H731.238L754.238 95.2001L778.838 33.8001H796.238L754.238 129.6C751.971 134.667 749.905 138.733 748.038 141.8C746.305 144.867 744.438 147.2 742.438 148.8C740.571 150.4 738.371 151.467 735.838 152C733.438 152.533 730.571 152.8 727.238 152.8H713.438Z"/>
</mask>
<path d="M19.6004 115.6H3.00039V3.00009H19.6004V115.6ZM78.4004 3.00009H94.8004V115.6H78.4004V3.00009ZM87.8004 64.4001H11.0004V51.4001H87.8004V64.4001ZM143.393 117.4C135.926 117.4 129.793 115.6 124.993 112C120.326 108.4 116.859 103.467 114.593 97.2001C112.459 90.9334 111.393 83.7334 111.393 75.6001C111.393 67.2001 112.526 59.8668 114.793 53.6001C117.059 47.2001 120.526 42.2001 125.193 38.6001C129.993 35.0001 136.059 33.2001 143.393 33.2001C147.926 33.2001 151.793 33.8668 154.993 35.2001C158.193 36.4001 160.859 37.9334 162.993 39.8001C165.126 41.6668 166.859 43.6001 168.193 45.6001C169.526 47.4668 170.459 49.1334 170.993 50.6001H171.393V33.8001H188.393V115.6H174.193L171.393 101H170.993C170.459 102.467 169.526 104.133 168.193 106C166.859 107.867 165.059 109.667 162.793 111.4C160.659 113.133 157.993 114.533 154.793 115.6C151.593 116.8 147.793 117.4 143.393 117.4ZM149.993 103.2C155.326 103.2 159.526 102.067 162.593 99.8001C165.659 97.4001 167.859 94.1334 169.193 90.0001C170.526 85.8668 171.193 81.1334 171.193 75.8001C171.193 70.0668 170.459 65.1334 168.993 61.0001C167.659 56.8668 165.459 53.7334 162.393 51.6001C159.326 49.3334 155.193 48.2001 149.993 48.2001C144.526 48.2001 140.126 49.4668 136.793 52.0001C133.593 54.4001 131.259 57.6668 129.793 61.8001C128.459 65.9334 127.793 70.5334 127.793 75.6001C127.793 80.8001 128.459 85.5334 129.793 89.8001C131.259 93.9334 133.593 97.2001 136.793 99.6001C140.126 102 144.526 103.2 149.993 103.2ZM237.279 117.6C233.545 117.6 229.879 117.067 226.279 116C222.812 115.067 219.545 113.667 216.479 111.8C213.545 109.933 210.879 107.8 208.479 105.4C206.212 103 204.412 100.4 203.079 97.6001C201.879 94.6668 201.279 91.6001 201.279 88.4001H216.879C216.879 88.5334 216.945 89.4668 217.079 91.2001C217.345 92.9334 218.079 94.9334 219.279 97.2001C220.479 99.3334 222.412 101.2 225.079 102.8C227.879 104.4 231.812 105.2 236.879 105.2C240.745 105.2 244.012 104.733 246.679 103.8C249.479 102.867 251.612 101.6 253.079 100C254.545 98.2668 255.212 96.2001 255.079 93.8001C255.079 90.4668 253.812 87.8668 251.279 86.0001C248.745 84.1334 245.479 82.6668 241.479 81.6001C237.479 80.4001 233.279 79.2668 228.879 78.2001C224.479 77.1334 220.279 75.7334 216.279 74.0001C212.279 72.1334 209.012 69.6668 206.479 66.6001C204.079 63.4001 202.945 59.1334 203.079 53.8001C203.079 46.6001 206.079 41.0668 212.079 37.2001C218.212 33.2001 225.945 31.2001 235.279 31.2001C239.812 31.2001 244.212 31.7334 248.479 32.8001C252.745 33.8668 256.545 35.5334 259.879 37.8001C263.345 40.0668 266.079 43.0668 268.079 46.8001C270.212 50.5334 271.212 55.1334 271.079 60.6001H255.679C255.812 57.1334 255.212 54.3334 253.879 52.2001C252.679 50.0668 251.012 48.4668 248.879 47.4001C246.745 46.2001 244.479 45.4001 242.079 45.0001C239.812 44.4668 237.612 44.2001 235.479 44.2001C230.145 44.2001 225.945 45.2001 222.879 47.2001C219.812 49.0668 218.279 51.6001 218.279 54.8001C218.279 58.1334 219.545 60.7334 222.079 62.6001C224.612 64.4668 227.879 65.9334 231.879 67.0001C235.879 68.0668 240.145 69.1334 244.679 70.2001C249.212 71.2668 253.479 72.7334 257.479 74.6001C261.479 76.3334 264.745 78.8001 267.279 82.0001C269.812 85.2001 271.079 89.4668 271.079 94.8001C271.079 100 269.612 104.267 266.679 107.6C263.879 110.933 259.945 113.467 254.879 115.2C249.812 116.8 243.945 117.6 237.279 117.6ZM308.514 115.6C302.914 115.6 298.781 114.133 296.114 111.2C293.448 108.267 292.114 103.8 292.114 97.8001V43.8001H307.914V102.4H326.914V115.6H308.514ZM279.514 45.8001V33.8001C282.581 33.8001 285.048 33.6001 286.914 33.2001C288.914 32.8001 290.381 32.0001 291.314 30.8001C292.381 29.4668 293.114 27.4001 293.514 24.6001C293.914 21.6668 294.114 17.7334 294.114 12.8001H307.914V33.8001H326.714V45.8001H279.514ZM344.518 115.6V33.8001H359.918L361.318 57.4001L361.118 75.0001V115.6H344.518ZM361.118 78.8001L360.518 60.8001C360.651 57.8668 361.318 54.8668 362.518 51.8001C363.718 48.6001 365.518 45.6668 367.918 43.0001C370.451 40.2001 373.651 38.0001 377.518 36.4001C381.518 34.6668 386.318 33.8001 391.918 33.8001H395.318V52.2001H391.718C385.718 52.2001 380.718 52.8001 376.718 54.0001C372.718 55.0668 369.584 56.7334 367.318 59.0001C365.051 61.2668 363.451 64.0668 362.518 67.4001C361.584 70.7334 361.118 74.5334 361.118 78.8001ZM443.804 117.6C435.004 117.6 427.604 115.8 421.604 112.2C415.604 108.6 411.07 103.667 408.004 97.4001C405.07 91.0001 403.604 83.8001 403.604 75.8001C403.604 67.5334 405.07 60.2668 408.004 54.0001C411.07 47.6001 415.604 42.6001 421.604 39.0001C427.604 35.4001 435.07 33.6001 444.004 33.6001C457.07 33.6001 467.004 37.4668 473.804 45.2001C480.604 52.9334 484.004 63.1334 484.004 75.8001C484.004 83.6668 482.537 90.8001 479.604 97.2001C476.804 103.467 472.404 108.467 466.404 112.2C460.537 115.8 453.004 117.6 443.804 117.6ZM443.804 103.4C450.337 103.4 455.337 102 458.804 99.2001C462.27 96.4001 464.604 92.8668 465.804 88.6001C467.137 84.2001 467.804 79.7334 467.804 75.2001C467.804 70.6668 467.137 66.2668 465.804 62.0001C464.604 57.6001 462.27 54.0001 458.804 51.2001C455.337 48.2668 450.337 46.8001 443.804 46.8001C437.537 46.8001 432.604 48.2668 429.004 51.2001C425.537 54.0001 423.137 57.6001 421.804 62.0001C420.47 66.2668 419.804 70.6668 419.804 75.2001C419.804 79.7334 420.47 84.2001 421.804 88.6001C423.137 92.8668 425.537 96.4001 429.004 99.2001C432.604 102 437.537 103.4 443.804 103.4ZM501.572 115.6V3.00009H517.972V115.6H501.572ZM573.1 117.6C564.3 117.6 556.9 115.8 550.9 112.2C544.9 108.6 540.367 103.667 537.3 97.4001C534.367 91.0001 532.9 83.8001 532.9 75.8001C532.9 67.5334 534.367 60.2668 537.3 54.0001C540.367 47.6001 544.9 42.6001 550.9 39.0001C556.9 35.4001 564.367 33.6001 573.3 33.6001C586.367 33.6001 596.3 37.4668 603.1 45.2001C609.9 52.9334 613.3 63.1334 613.3 75.8001C613.3 83.6668 611.834 90.8001 608.9 97.2001C606.1 103.467 601.7 108.467 595.7 112.2C589.834 115.8 582.3 117.6 573.1 117.6ZM573.1 103.4C579.634 103.4 584.634 102 588.1 99.2001C591.567 96.4001 593.9 92.8668 595.1 88.6001C596.434 84.2001 597.1 79.7334 597.1 75.2001C597.1 70.6668 596.434 66.2668 595.1 62.0001C593.9 57.6001 591.567 54.0001 588.1 51.2001C584.634 48.2668 579.634 46.8001 573.1 46.8001C566.834 46.8001 561.9 48.2668 558.3 51.2001C554.834 54.0001 552.434 57.6001 551.1 62.0001C549.767 66.2668 549.1 70.6668 549.1 75.2001C549.1 79.7334 549.767 84.2001 551.1 88.6001C552.434 92.8668 554.834 96.4001 558.3 99.2001C561.9 102 566.834 103.4 573.1 103.4ZM649.869 150.6V135H688.269V99.2001H687.869C687.602 99.7334 686.936 101 685.869 103C684.802 104.867 683.136 106.933 680.869 109.2C678.736 111.467 675.869 113.467 672.269 115.2C668.802 116.8 664.469 117.6 659.269 117.6C651.402 117.6 644.869 115.8 639.669 112.2C634.469 108.6 630.602 103.667 628.069 97.4001C625.669 91.1334 624.469 83.9334 624.469 75.8001C624.469 67.4001 625.736 60.0668 628.269 53.8001C630.802 47.4001 634.669 42.4668 639.869 39.0001C645.069 35.5334 651.602 33.8001 659.469 33.8001C664.802 33.8001 669.269 34.6668 672.869 36.4001C676.469 38.1334 679.269 40.2001 681.269 42.6001C683.402 45.0001 684.936 47.2001 685.869 49.2001C686.936 51.2001 687.536 52.4668 687.669 53.0001H688.069V33.8001H705.269V126C705.269 131.867 704.536 136.6 703.069 140.2C701.602 143.8 699.269 146.4 696.069 148C693.002 149.733 688.869 150.6 683.669 150.6H649.869ZM663.869 103.2C669.069 103.2 673.469 102.067 677.069 99.8001C680.669 97.5334 683.336 94.3334 685.069 90.2001C686.936 86.0668 687.869 81.2668 687.869 75.8001C687.869 70.4668 687.002 65.7334 685.269 61.6001C683.536 57.4668 680.936 54.3334 677.469 52.2001C674.136 49.9334 669.869 48.8001 664.669 48.8001C658.802 48.8001 654.069 50.0668 650.469 52.6001C647.002 55.1334 644.469 58.4668 642.869 62.6001C641.402 66.7334 640.669 71.1334 640.669 75.8001C640.669 80.4668 641.336 84.9334 642.669 89.2001C644.136 93.3334 646.536 96.7334 649.869 99.4001C653.336 101.933 658.002 103.2 663.869 103.2ZM713.438 152.8V139.8H725.238C727.105 139.8 728.771 139.533 730.238 139C731.705 138.6 733.105 137.533 734.438 135.8C735.905 134.067 737.438 131.4 739.038 127.8L746.038 112.4L714.038 33.8001H731.238L754.238 95.2001L778.838 33.8001H796.238L754.238 129.6C751.971 134.667 749.905 138.733 748.038 141.8C746.305 144.867 744.438 147.2 742.438 148.8C740.571 150.4 738.371 151.467 735.838 152C733.438 152.533 730.571 152.8 727.238 152.8H713.438Z" fill="white"/>
<path d="M19.6004 115.6V118.6C21.2572 118.6 22.6004 117.257 22.6004 115.6H19.6004ZM3.00039 115.6H0.000391006C0.000391006 117.257 1.34354 118.6 3.00039 118.6V115.6ZM3.00039 3.00009V9.15527e-05C1.34354 9.15527e-05 0.000391006 1.34324 0.000391006 3.00009H3.00039ZM19.6004 3.00009H22.6004C22.6004 1.34324 21.2572 9.15527e-05 19.6004 9.15527e-05V3.00009ZM78.4004 3.00009V9.15527e-05C76.7435 9.15527e-05 75.4004 1.34324 75.4004 3.00009H78.4004ZM94.8004 3.00009H97.8004C97.8004 1.34324 96.4572 9.15527e-05 94.8004 9.15527e-05V3.00009ZM94.8004 115.6V118.6C96.4572 118.6 97.8004 117.257 97.8004 115.6H94.8004ZM78.4004 115.6H75.4004C75.4004 117.257 76.7435 118.6 78.4004 118.6V115.6ZM87.8004 64.4001V67.4001C89.4572 67.4001 90.8004 66.0569 90.8004 64.4001H87.8004ZM11.0004 64.4001H8.00039C8.00039 66.0569 9.34354 67.4001 11.0004 67.4001V64.4001ZM11.0004 51.4001V48.4001C9.34354 48.4001 8.00039 49.7432 8.00039 51.4001H11.0004ZM87.8004 51.4001H90.8004C90.8004 49.7432 89.4572 48.4001 87.8004 48.4001V51.4001ZM19.6004 115.6V112.6H3.00039V115.6V118.6H19.6004V115.6ZM3.00039 115.6H6.00039V3.00009H3.00039H0.000391006V115.6H3.00039ZM3.00039 3.00009V6.00009H19.6004V3.00009V9.15527e-05H3.00039V3.00009ZM19.6004 3.00009H16.6004V115.6H19.6004H22.6004V3.00009H19.6004ZM78.4004 3.00009V6.00009H94.8004V3.00009V9.15527e-05H78.4004V3.00009ZM94.8004 3.00009H91.8004V115.6H94.8004H97.8004V3.00009H94.8004ZM94.8004 115.6V112.6H78.4004V115.6V118.6H94.8004V115.6ZM78.4004 115.6H81.4004V3.00009H78.4004H75.4004V115.6H78.4004ZM87.8004 64.4001V61.4001H11.0004V64.4001V67.4001H87.8004V64.4001ZM11.0004 64.4001H14.0004V51.4001H11.0004H8.00039V64.4001H11.0004ZM11.0004 51.4001V54.4001H87.8004V51.4001V48.4001H11.0004V51.4001ZM87.8004 51.4001H84.8004V64.4001H87.8004H90.8004V51.4001H87.8004ZM124.993 112L123.16 114.375C123.171 114.384 123.182 114.392 123.193 114.4L124.993 112ZM114.593 97.2001L111.753 98.1669C111.759 98.1848 111.765 98.2027 111.771 98.2205L114.593 97.2001ZM114.793 53.6001L117.614 54.6205C117.616 54.6142 117.618 54.6079 117.62 54.6016L114.793 53.6001ZM125.193 38.6001L123.393 36.2001C123.382 36.2082 123.371 36.2165 123.36 36.2247L125.193 38.6001ZM154.993 35.2001L153.839 37.9693C153.872 37.9832 153.905 37.9964 153.939 38.0091L154.993 35.2001ZM162.993 39.8001L164.968 37.5424V37.5424L162.993 39.8001ZM168.193 45.6001L165.696 47.2642C165.714 47.291 165.733 47.3176 165.751 47.3438L168.193 45.6001ZM170.993 50.6001L168.173 51.6253C168.604 52.8109 169.731 53.6001 170.993 53.6001V50.6001ZM171.393 50.6001V53.6001C173.049 53.6001 174.393 52.2569 174.393 50.6001H171.393ZM171.393 33.8001V30.8001C169.736 30.8001 168.393 32.1432 168.393 33.8001H171.393ZM188.393 33.8001H191.393C191.393 32.1432 190.049 30.8001 188.393 30.8001V33.8001ZM188.393 115.6V118.6C190.049 118.6 191.393 117.257 191.393 115.6H188.393ZM174.193 115.6L171.246 116.165C171.517 117.578 172.754 118.6 174.193 118.6V115.6ZM171.393 101L174.339 100.435C174.068 99.0218 172.832 98.0001 171.393 98.0001V101ZM170.993 101V98.0001C169.731 98.0001 168.604 98.7893 168.173 99.9749L170.993 101ZM168.193 106L170.634 107.744L170.634 107.744L168.193 106ZM162.793 111.4L160.97 109.017C160.947 109.035 160.924 109.053 160.901 109.072L162.793 111.4ZM154.793 115.6L153.844 112.754C153.809 112.766 153.774 112.778 153.739 112.791L154.793 115.6ZM162.593 99.8001L164.376 102.213C164.398 102.196 164.42 102.18 164.442 102.163L162.593 99.8001ZM168.993 61.0001L166.137 61.9211C166.146 61.9486 166.156 61.9761 166.165 62.0033L168.993 61.0001ZM162.393 51.6001L160.609 54.0126C160.632 54.0297 160.656 54.0464 160.679 54.0628L162.393 51.6001ZM136.793 52.0001L138.593 54.4001C138.598 54.3963 138.603 54.3924 138.608 54.3886L136.793 52.0001ZM129.793 61.8001L126.965 60.7969C126.956 60.8241 126.946 60.8515 126.937 60.8791L129.793 61.8001ZM129.793 89.8001L126.929 90.6949C126.941 90.7313 126.953 90.7674 126.965 90.8033L129.793 89.8001ZM136.793 99.6001L134.993 102C135.008 102.012 135.024 102.023 135.04 102.035L136.793 99.6001ZM143.393 117.4V114.4C136.414 114.4 130.958 112.724 126.793 109.6L124.993 112L123.193 114.4C128.628 118.476 135.438 120.4 143.393 120.4V117.4ZM124.993 112L126.825 109.625C122.667 106.417 119.512 101.982 117.414 96.1797L114.593 97.2001L111.771 98.2205C114.206 104.952 117.985 110.383 123.16 114.375L124.993 112ZM114.593 97.2001L117.433 96.2333C115.426 90.3398 114.393 83.4769 114.393 75.6001H111.393H108.393C108.393 83.9899 109.492 91.5271 111.753 98.1669L114.593 97.2001ZM111.393 75.6001H114.393C114.393 67.4613 115.492 60.4873 117.614 54.6205L114.793 53.6001L111.971 52.5797C109.56 59.2462 108.393 66.9389 108.393 75.6001H111.393ZM114.793 53.6001L117.62 54.6016C119.724 48.6611 122.882 44.1717 127.025 40.9754L125.193 38.6001L123.36 36.2247C118.17 40.2285 114.394 45.7391 111.965 52.5986L114.793 53.6001ZM125.193 38.6001L126.993 41.0001C131.167 37.8696 136.561 36.2001 143.393 36.2001V33.2001V30.2001C135.558 30.2001 128.819 32.1306 123.393 36.2001L125.193 38.6001ZM143.393 33.2001V36.2001C147.646 36.2001 151.098 36.8274 153.839 37.9693L154.993 35.2001L156.146 32.4309C152.487 30.9062 148.206 30.2001 143.393 30.2001V33.2001ZM154.993 35.2001L153.939 38.0091C156.869 39.1077 159.205 40.4722 161.017 42.0578L162.993 39.8001L164.968 37.5424C162.514 35.3947 159.516 33.6925 156.046 32.3911L154.993 35.2001ZM162.993 39.8001L161.017 42.0578C162.986 43.7806 164.533 45.5193 165.696 47.2642L168.193 45.6001L170.689 43.936C169.185 41.6809 167.266 39.5529 164.968 37.5424L162.993 39.8001ZM168.193 45.6001L165.751 47.3438C166.993 49.0827 167.765 50.5034 168.173 51.6253L170.993 50.6001L173.812 49.5749C173.153 47.7635 172.058 45.8508 170.634 43.8564L168.193 45.6001ZM170.993 50.6001V53.6001H171.393V50.6001V47.6001H170.993V50.6001ZM171.393 50.6001H174.393V33.8001H171.393H168.393V50.6001H171.393ZM171.393 33.8001V36.8001H188.393V33.8001V30.8001H171.393V33.8001ZM188.393 33.8001H185.393V115.6H188.393H191.393V33.8001H188.393ZM188.393 115.6V112.6H174.193V115.6V118.6H188.393V115.6ZM174.193 115.6L177.139 115.035L174.339 100.435L171.393 101L168.446 101.565L171.246 116.165L174.193 115.6ZM171.393 101V98.0001H170.993V101V104H171.393V101ZM170.993 101L168.173 99.9749C167.765 101.097 166.993 102.518 165.751 104.256L168.193 106L170.634 107.744C172.058 105.749 173.153 103.837 173.812 102.025L170.993 101ZM168.193 106L165.751 104.256C164.628 105.83 163.055 107.423 160.97 109.017L162.793 111.4L164.615 113.783C167.063 111.911 169.091 109.904 170.634 107.744L168.193 106ZM162.793 111.4L160.901 109.072C159.104 110.532 156.776 111.777 153.844 112.754L154.793 115.6L155.741 118.446C159.209 117.29 162.215 115.735 164.684 113.728L162.793 111.4ZM154.793 115.6L153.739 112.791C150.957 113.834 147.531 114.4 143.393 114.4V117.4V120.4C148.054 120.4 152.228 119.766 155.846 118.409L154.793 115.6ZM149.993 103.2V106.2C155.719 106.2 160.623 104.986 164.376 102.213L162.593 99.8001L160.809 97.3876C158.429 99.1472 154.933 100.2 149.993 100.2V103.2ZM162.593 99.8001L164.442 102.163C168.034 99.3515 170.552 95.5563 172.048 90.9211L169.193 90.0001L166.337 89.0791C165.166 92.7105 163.285 95.4487 160.744 97.4376L162.593 99.8001ZM169.193 90.0001L172.048 90.9211C173.496 86.4313 174.193 81.3776 174.193 75.8001H171.193H168.193C168.193 80.8893 167.556 85.3022 166.337 89.0791L169.193 90.0001ZM171.193 75.8001H174.193C174.193 69.8242 173.43 64.5342 171.82 59.9969L168.993 61.0001L166.165 62.0033C167.489 65.7327 168.193 70.3093 168.193 75.8001H171.193ZM168.993 61.0001L171.848 60.0791C170.347 55.4264 167.796 51.7046 164.106 49.1374L162.393 51.6001L160.679 54.0628C163.122 55.7622 164.972 58.3071 166.137 61.9211L168.993 61.0001ZM162.393 51.6001L164.176 49.1876C160.435 46.4224 155.605 45.2001 149.993 45.2001V48.2001V51.2001C154.78 51.2001 158.217 52.2445 160.609 54.0126L162.393 51.6001ZM149.993 48.2001V45.2001C144.071 45.2001 138.973 46.5751 134.977 49.6116L136.793 52.0001L138.608 54.3886C141.279 52.3584 144.981 51.2001 149.993 51.2001V48.2001ZM136.793 52.0001L134.993 49.6001C131.275 52.3884 128.61 56.1629 126.965 60.7969L129.793 61.8001L132.62 62.8033C133.909 59.1706 135.91 56.4117 138.593 54.4001L136.793 52.0001ZM129.793 61.8001L126.937 60.8791C125.494 65.3548 124.793 70.2716 124.793 75.6001H127.793H130.793C130.793 70.7952 131.425 66.512 132.648 62.7211L129.793 61.8001ZM127.793 75.6001H124.793C124.793 81.0552 125.492 86.0958 126.929 90.6949L129.793 89.8001L132.656 88.9053C131.427 84.9711 130.793 80.545 130.793 75.6001H127.793ZM129.793 89.8001L126.965 90.8033C128.61 95.4373 131.275 99.2117 134.993 102L136.793 99.6001L138.593 97.2001C135.91 95.1884 133.909 92.4296 132.62 88.7969L129.793 89.8001ZM136.793 99.6001L135.04 102.035C139.029 104.907 144.103 106.2 149.993 106.2V103.2V100.2C144.949 100.2 141.223 99.0935 138.545 97.1655L136.793 99.6001ZM226.279 116L227.131 113.124C227.107 113.117 227.083 113.11 227.058 113.103L226.279 116ZM216.479 111.8L214.868 114.331C214.885 114.342 214.902 114.352 214.919 114.363L216.479 111.8ZM208.479 105.4L206.297 107.46C206.317 107.481 206.337 107.501 206.357 107.521L208.479 105.4ZM203.079 97.6001L200.302 98.736C200.323 98.7879 200.346 98.8392 200.37 98.8899L203.079 97.6001ZM201.279 88.4001V85.4001C199.622 85.4001 198.279 86.7432 198.279 88.4001H201.279ZM216.879 88.4001H219.879C219.879 86.7432 218.535 85.4001 216.879 85.4001V88.4001ZM217.079 91.2001L214.087 91.4302C214.093 91.5058 214.102 91.5813 214.113 91.6563L217.079 91.2001ZM219.279 97.2001L216.627 98.6038C216.639 98.6263 216.651 98.6487 216.664 98.6709L219.279 97.2001ZM225.079 102.8L223.535 105.373C223.553 105.384 223.572 105.394 223.59 105.405L225.079 102.8ZM246.679 103.8L245.73 100.954C245.716 100.959 245.702 100.964 245.687 100.969L246.679 103.8ZM253.079 100L255.29 102.027C255.317 101.998 255.343 101.968 255.369 101.938L253.079 100ZM255.079 93.8001H252.079C252.079 93.8556 252.08 93.9111 252.083 93.9665L255.079 93.8001ZM241.479 81.6001L240.616 84.4736C240.646 84.4824 240.676 84.4908 240.706 84.4988L241.479 81.6001ZM228.879 78.2001L229.585 75.2845V75.2845L228.879 78.2001ZM216.279 74.0001L215.01 76.7186C215.035 76.7304 215.06 76.7417 215.086 76.7528L216.279 74.0001ZM206.479 66.6001L204.079 68.4001C204.107 68.4377 204.136 68.4745 204.166 68.5107L206.479 66.6001ZM203.079 53.8001L206.078 53.8751C206.078 53.8501 206.079 53.8251 206.079 53.8001H203.079ZM212.079 37.2001L213.704 39.7218C213.708 39.7189 213.713 39.7159 213.717 39.7129L212.079 37.2001ZM248.479 32.8001L249.206 29.8897V29.8897L248.479 32.8001ZM259.879 37.8001L258.192 40.2809C258.207 40.291 258.222 40.3011 258.237 40.311L259.879 37.8001ZM268.079 46.8001L265.434 48.2168C265.447 48.2409 265.46 48.2648 265.474 48.2885L268.079 46.8001ZM271.079 60.6001V63.6001C272.707 63.6001 274.038 62.3011 274.078 60.6732L271.079 60.6001ZM255.679 60.6001L252.681 60.4848C252.649 61.2999 252.951 62.0925 253.517 62.6803C254.082 63.268 254.863 63.6001 255.679 63.6001V60.6001ZM253.879 52.2001L251.264 53.6709C251.286 53.7112 251.31 53.7509 251.335 53.7901L253.879 52.2001ZM248.879 47.4001L247.408 50.0148C247.45 50.0387 247.493 50.0616 247.537 50.0834L248.879 47.4001ZM242.079 45.0001L241.391 47.9203C241.456 47.9355 241.52 47.9484 241.585 47.9593L242.079 45.0001ZM222.879 47.2001L224.438 49.7627C224.465 49.7465 224.491 49.7299 224.517 49.7129L222.879 47.2001ZM222.079 62.6001L220.299 65.0153V65.0153L222.079 62.6001ZM257.479 74.6001L256.21 77.3186C256.235 77.3304 256.26 77.3417 256.286 77.3528L257.479 74.6001ZM267.279 82.0001L269.631 80.138V80.138L267.279 82.0001ZM266.679 107.6L264.426 105.618C264.411 105.635 264.396 105.653 264.381 105.671L266.679 107.6ZM254.879 115.2L255.782 118.061C255.805 118.054 255.827 118.046 255.85 118.039L254.879 115.2ZM237.279 117.6V114.6C233.835 114.6 230.456 114.109 227.131 113.124L226.279 116L225.426 118.876C229.301 120.025 233.255 120.6 237.279 120.6V117.6ZM226.279 116L227.058 113.103C223.866 112.244 220.862 110.956 218.038 109.238L216.479 111.8L214.919 114.363C218.228 116.377 221.757 117.89 225.499 118.897L226.279 116ZM216.479 111.8L218.089 109.269C215.336 107.517 212.841 105.52 210.6 103.279L208.479 105.4L206.357 107.521C208.916 110.08 211.754 112.35 214.868 114.331L216.479 111.8ZM208.479 105.4L210.66 103.34C208.594 101.153 206.977 98.81 205.787 96.3103L203.079 97.6001L200.37 98.8899C201.846 101.99 203.83 104.847 206.297 107.46L208.479 105.4ZM203.079 97.6001L205.855 96.4642C204.804 93.895 204.279 91.2144 204.279 88.4001H201.279H198.279C198.279 91.9858 198.953 95.4386 200.302 98.736L203.079 97.6001ZM201.279 88.4001V91.4001H216.879V88.4001V85.4001H201.279V88.4001ZM216.879 88.4001H213.879C213.879 88.6855 213.963 89.808 214.087 91.4302L217.079 91.2001L220.07 90.97C220.003 90.105 219.954 89.4448 219.921 88.9864C219.904 88.7564 219.893 88.5832 219.885 88.463C219.875 88.2946 219.879 88.3185 219.879 88.4001H216.879ZM217.079 91.2001L214.113 91.6563C214.449 93.8358 215.336 96.1652 216.627 98.6038L219.279 97.2001L221.93 95.7964C220.821 93.7017 220.242 92.0311 220.044 90.7439L217.079 91.2001ZM219.279 97.2001L216.664 98.6709C218.179 101.365 220.54 103.576 223.535 105.373L225.079 102.8L226.622 100.228C224.283 98.8244 222.778 97.3016 221.893 95.7293L219.279 97.2001ZM225.079 102.8L223.59 105.405C227.032 107.371 231.561 108.2 236.879 108.2V105.2V102.2C232.063 102.2 228.726 101.429 226.567 100.195L225.079 102.8ZM236.879 105.2V108.2C240.967 108.2 244.591 107.709 247.67 106.632L246.679 103.8L245.687 100.969C243.433 101.758 240.523 102.2 236.879 102.2V105.2ZM246.679 103.8L247.627 106.646C250.744 105.607 253.377 104.114 255.29 102.027L253.079 100L250.867 97.9729C249.847 99.086 248.213 100.126 245.73 100.954L246.679 103.8ZM253.079 100L255.369 101.938C257.362 99.5824 258.247 96.75 258.074 93.6337L255.079 93.8001L252.083 93.9665C252.177 95.6502 251.729 96.9511 250.788 98.0623L253.079 100ZM255.079 93.8001H258.079C258.079 89.5797 256.411 86.0552 253.058 83.5849L251.279 86.0001L249.499 88.4153C251.213 89.6784 252.079 91.3539 252.079 93.8001H255.079ZM251.279 86.0001L253.058 83.5849C250.144 81.4374 246.506 79.8359 242.252 78.7014L241.479 81.6001L240.706 84.4988C244.451 85.4976 247.347 86.8294 249.499 88.4153L251.279 86.0001ZM241.479 81.6001L242.341 78.7266C238.285 77.51 234.033 76.3628 229.585 75.2845L228.879 78.2001L228.172 81.1156C232.524 82.1707 236.672 83.2902 240.616 84.4736L241.479 81.6001ZM228.879 78.2001L229.585 75.2845C225.345 74.2567 221.308 72.9101 217.471 71.2474L216.279 74.0001L215.086 76.7528C219.249 78.5567 223.612 80.0102 228.172 81.1156L228.879 78.2001ZM216.279 74.0001L217.547 71.2816C213.906 69.5824 211.011 67.3765 208.791 64.6895L206.479 66.6001L204.166 68.5107C207.013 71.957 210.651 74.6844 215.01 76.7186L216.279 74.0001ZM206.479 66.6001L208.879 64.8001C207 62.2959 205.955 58.7588 206.078 53.8751L203.079 53.8001L200.079 53.7251C199.935 59.5081 201.157 64.5042 204.079 68.4001L206.479 66.6001ZM203.079 53.8001H206.079C206.079 47.6089 208.57 43.0303 213.704 39.7218L212.079 37.2001L210.453 34.6784C203.587 39.1032 200.079 45.5913 200.079 53.8001H203.079ZM212.079 37.2001L213.717 39.7129C219.245 36.1077 226.368 34.2001 235.279 34.2001V31.2001V28.2001C225.522 28.2001 217.178 30.2925 210.44 34.6873L212.079 37.2001ZM235.279 31.2001V34.2001C239.574 34.2001 243.729 34.7052 247.751 35.7105L248.479 32.8001L249.206 29.8897C244.694 28.7617 240.05 28.2001 235.279 28.2001V31.2001ZM248.479 32.8001L247.751 35.7105C251.706 36.6993 255.176 38.2301 258.192 40.2809L259.879 37.8001L261.565 35.3193C257.915 32.8368 253.784 31.0342 249.206 29.8897L248.479 32.8001ZM259.879 37.8001L258.237 40.311C261.273 42.2963 263.666 44.916 265.434 48.2168L268.079 46.8001L270.723 45.3834C268.491 41.2175 265.417 37.8372 261.52 35.2892L259.879 37.8001ZM268.079 46.8001L265.474 48.2885C267.271 51.4341 268.203 55.4605 268.079 60.5269L271.079 60.6001L274.078 60.6732C274.221 54.8064 273.152 49.6328 270.683 45.3117L268.079 46.8001ZM271.079 60.6001V57.6001H255.679V60.6001V63.6001H271.079V60.6001ZM255.679 60.6001L258.676 60.7154C258.824 56.8687 258.175 53.4135 256.423 50.6101L253.879 52.2001L251.335 53.7901C252.249 55.2534 252.799 57.3981 252.681 60.4848L255.679 60.6001ZM253.879 52.2001L256.493 50.7293C255.008 48.0883 252.904 46.0588 250.22 44.7168L248.879 47.4001L247.537 50.0834C249.12 50.8747 250.349 52.0452 251.264 53.6709L253.879 52.2001ZM248.879 47.4001L250.349 44.7854C247.914 43.4157 245.317 42.4985 242.572 42.0409L242.079 45.0001L241.585 47.9593C243.64 48.3017 245.576 48.9844 247.408 50.0148L248.879 47.4001ZM242.079 45.0001L242.766 42.0798C240.294 41.4983 237.863 41.2001 235.479 41.2001V44.2001V47.2001C237.361 47.2001 239.33 47.4352 241.391 47.9203L242.079 45.0001ZM235.479 44.2001V41.2001C229.815 41.2001 224.969 42.2552 221.24 44.6873L222.879 47.2001L224.517 49.7129C226.922 48.1449 230.475 47.2001 235.479 47.2001V44.2001ZM222.879 47.2001L221.319 44.6375C217.488 46.9693 215.279 50.4093 215.279 54.8001H218.279H221.279C221.279 52.7909 222.136 51.1642 224.438 49.7627L222.879 47.2001ZM218.279 54.8001H215.279C215.279 59.0205 216.946 62.545 220.299 65.0153L222.079 62.6001L223.858 60.1849C222.144 58.9218 221.279 57.2463 221.279 54.8001H218.279ZM222.079 62.6001L220.299 65.0153C223.213 67.1628 226.851 68.7643 231.106 69.8988L231.879 67.0001L232.652 64.1014C228.906 63.1026 226.01 61.7708 223.858 60.1849L222.079 62.6001ZM231.879 67.0001L231.106 69.8988C235.137 70.9739 239.433 72.0477 243.991 73.1203L244.679 70.2001L245.366 67.2798C240.858 66.2191 236.62 65.1596 232.652 64.1014L231.879 67.0001ZM244.679 70.2001L243.991 73.1203C248.335 74.1425 252.406 75.5436 256.21 77.3186L257.479 74.6001L258.747 71.8815C254.551 69.9232 250.088 68.3911 245.366 67.2798L244.679 70.2001ZM257.479 74.6001L256.286 77.3528C259.864 78.9032 262.721 81.0764 264.926 83.8622L267.279 82.0001L269.631 80.138C266.769 76.5238 263.093 73.7637 258.671 71.8474L257.479 74.6001ZM267.279 82.0001L264.926 83.8622C266.927 86.3889 268.079 89.934 268.079 94.8001H271.079H274.079C274.079 88.9995 272.697 84.0112 269.631 80.138L267.279 82.0001ZM271.079 94.8001H268.079C268.079 99.4026 266.797 102.924 264.426 105.618L266.679 107.6L268.931 109.582C272.427 105.609 274.079 100.598 274.079 94.8001H271.079ZM266.679 107.6L264.381 105.671C262.005 108.499 258.576 110.764 253.907 112.362L254.879 115.2L255.85 118.039C261.314 116.169 265.752 113.367 268.976 109.53L266.679 107.6ZM254.879 115.2L253.975 112.339C249.264 113.827 243.713 114.6 237.279 114.6V117.6V120.6C244.177 120.6 250.36 119.773 255.782 118.061L254.879 115.2ZM292.114 43.8001V40.8001C290.458 40.8001 289.114 42.1432 289.114 43.8001H292.114ZM307.914 43.8001H310.914C310.914 42.1432 309.571 40.8001 307.914 40.8001V43.8001ZM307.914 102.4H304.914C304.914 104.057 306.258 105.4 307.914 105.4V102.4ZM326.914 102.4H329.914C329.914 100.743 328.571 99.4001 326.914 99.4001V102.4ZM326.914 115.6V118.6C328.571 118.6 329.914 117.257 329.914 115.6H326.914ZM279.514 45.8001H276.514C276.514 47.457 277.858 48.8001 279.514 48.8001V45.8001ZM279.514 33.8001V30.8001C277.858 30.8001 276.514 32.1432 276.514 33.8001H279.514ZM286.914 33.2001L286.326 30.2583C286.313 30.261 286.299 30.2638 286.286 30.2667L286.914 33.2001ZM291.314 30.8001L288.972 28.926C288.963 28.9367 288.955 28.9475 288.946 28.9583L291.314 30.8001ZM293.514 24.6001L296.484 25.0244C296.485 25.0181 296.486 25.0117 296.487 25.0054L293.514 24.6001ZM294.114 12.8001V9.80009C292.458 9.80009 291.114 11.1432 291.114 12.8001H294.114ZM307.914 12.8001H310.914C310.914 11.1432 309.571 9.80009 307.914 9.80009V12.8001ZM307.914 33.8001H304.914C304.914 35.457 306.258 36.8001 307.914 36.8001V33.8001ZM326.714 33.8001H329.714C329.714 32.1432 328.371 30.8001 326.714 30.8001V33.8001ZM326.714 45.8001V48.8001C328.371 48.8001 329.714 47.457 329.714 45.8001H326.714ZM308.514 115.6V112.6C303.402 112.6 300.229 111.267 298.334 109.182L296.114 111.2L293.895 113.218C297.333 117 302.427 118.6 308.514 118.6V115.6ZM296.114 111.2L298.334 109.182C296.374 107.025 295.114 103.426 295.114 97.8001H292.114H289.114C289.114 104.174 290.522 109.508 293.895 113.218L296.114 111.2ZM292.114 97.8001H295.114V43.8001H292.114H289.114V97.8001H292.114ZM292.114 43.8001V46.8001H307.914V43.8001V40.8001H292.114V43.8001ZM307.914 43.8001H304.914V102.4H307.914H310.914V43.8001H307.914ZM307.914 102.4V105.4H326.914V102.4V99.4001H307.914V102.4ZM326.914 102.4H323.914V115.6H326.914H329.914V102.4H326.914ZM326.914 115.6V112.6H308.514V115.6V118.6H326.914V115.6ZM279.514 45.8001H282.514V33.8001H279.514H276.514V45.8001H279.514ZM279.514 33.8001V36.8001C282.682 36.8001 285.384 36.5961 287.543 36.1335L286.914 33.2001L286.286 30.2667C284.711 30.6041 282.48 30.8001 279.514 30.8001V33.8001ZM286.914 33.2001L287.503 36.1418C289.965 35.6493 292.175 34.5795 293.682 32.6419L291.314 30.8001L288.946 28.9583C288.587 29.4207 287.863 29.9509 286.326 30.2583L286.914 33.2001ZM291.314 30.8001L293.657 32.6742C295.211 30.7313 296.053 28.0447 296.484 25.0244L293.514 24.6001L290.545 24.1758C290.176 26.7555 289.551 28.2022 288.972 28.926L291.314 30.8001ZM293.514 24.6001L296.487 25.0054C296.913 21.8788 297.114 17.7925 297.114 12.8001H294.114H291.114C291.114 17.6743 290.916 21.4547 290.542 24.1948L293.514 24.6001ZM294.114 12.8001V15.8001H307.914V12.8001V9.80009H294.114V12.8001ZM307.914 12.8001H304.914V33.8001H307.914H310.914V12.8001H307.914ZM307.914 33.8001V36.8001H326.714V33.8001V30.8001H307.914V33.8001ZM326.714 33.8001H323.714V45.8001H326.714H329.714V33.8001H326.714ZM326.714 45.8001V42.8001H279.514V45.8001V48.8001H326.714V45.8001ZM344.518 115.6H341.518C341.518 117.257 342.861 118.6 344.518 118.6V115.6ZM344.518 33.8001V30.8001C342.861 30.8001 341.518 32.1432 341.518 33.8001H344.518ZM359.918 33.8001L362.912 33.6224C362.818 32.0374 361.505 30.8001 359.918 30.8001V33.8001ZM361.318 57.4001L364.317 57.4342C364.318 57.3636 364.316 57.2929 364.312 57.2224L361.318 57.4001ZM361.118 75.0001L358.118 74.966C358.118 74.9774 358.118 74.9887 358.118 75.0001H361.118ZM361.118 115.6V118.6C362.774 118.6 364.118 117.257 364.118 115.6H361.118ZM361.118 78.8001L358.119 78.9C358.174 80.5365 359.53 81.827 361.168 81.7997C362.805 81.7724 364.118 80.4375 364.118 78.8001H361.118ZM360.518 60.8001L357.521 60.6639C357.517 60.7425 357.517 60.8213 357.519 60.9L360.518 60.8001ZM362.518 51.8001L365.311 52.8933C365.316 52.8801 365.322 52.8668 365.327 52.8535L362.518 51.8001ZM367.918 43.0001L365.693 40.9874L365.688 40.9932L367.918 43.0001ZM377.518 36.4001L378.665 39.1721C378.68 39.1658 378.695 39.1593 378.71 39.1528L377.518 36.4001ZM395.318 33.8001H398.318C398.318 32.1432 396.974 30.8001 395.318 30.8001V33.8001ZM395.318 52.2001V55.2001C396.974 55.2001 398.318 53.8569 398.318 52.2001H395.318ZM376.718 54.0001L377.491 56.8988C377.52 56.8909 377.55 56.8824 377.58 56.8736L376.718 54.0001ZM367.318 59.0001L365.196 56.8788V56.8788L367.318 59.0001ZM362.518 67.4001L359.629 66.5912V66.5912L362.518 67.4001ZM344.518 115.6H347.518V33.8001H344.518H341.518V115.6H344.518ZM344.518 33.8001V36.8001H359.918V33.8001V30.8001H344.518V33.8001ZM359.918 33.8001L356.923 33.9778L358.323 57.5777L361.318 57.4001L364.312 57.2224L362.912 33.6224L359.918 33.8001ZM361.318 57.4001L358.318 57.366L358.118 74.966L361.118 75.0001L364.117 75.0342L364.317 57.4342L361.318 57.4001ZM361.118 75.0001H358.118V115.6H361.118H364.118V75.0001H361.118ZM361.118 115.6V112.6H344.518V115.6V118.6H361.118V115.6ZM361.118 78.8001L364.116 78.7001L363.516 60.7001L360.518 60.8001L357.519 60.9L358.119 78.9L361.118 78.8001ZM360.518 60.8001L363.514 60.9363C363.631 58.3682 364.217 55.691 365.311 52.8933L362.518 51.8001L359.724 50.7069C358.419 54.0425 357.671 57.3654 357.521 60.6639L360.518 60.8001ZM362.518 51.8001L365.327 52.8535C366.388 50.022 367.986 47.4089 370.147 45.007L367.918 43.0001L365.688 40.9932C363.049 43.9246 361.047 47.1782 359.709 50.7467L362.518 51.8001ZM367.918 43.0001L370.142 45.0128C372.346 42.577 375.164 40.6207 378.665 39.1721L377.518 36.4001L376.371 33.628C372.138 35.3795 368.556 37.8232 365.693 40.9874L367.918 43.0001ZM377.518 36.4001L378.71 39.1528C382.243 37.6219 386.616 36.8001 391.918 36.8001V33.8001V30.8001C386.019 30.8001 380.792 31.7116 376.325 33.6474L377.518 36.4001ZM391.918 33.8001V36.8001H395.318V33.8001V30.8001H391.918V33.8001ZM395.318 33.8001H392.318V52.2001H395.318H398.318V33.8001H395.318ZM395.318 52.2001V49.2001H391.718V52.2001V55.2001H395.318V52.2001ZM391.718 52.2001V49.2001C385.541 49.2001 380.228 49.8149 375.856 51.1266L376.718 54.0001L377.58 56.8736C381.207 55.7853 385.894 55.2001 391.718 55.2001V52.2001ZM376.718 54.0001L375.945 51.1014C371.58 52.2653 367.93 54.1452 365.196 56.8788L367.318 59.0001L369.439 61.1214C371.239 59.3216 373.855 57.8682 377.491 56.8988L376.718 54.0001ZM367.318 59.0001L365.196 56.8788C362.536 59.5386 360.69 62.8026 359.629 66.5912L362.518 67.4001L365.406 68.209C366.212 65.331 367.565 62.9949 369.439 61.1214L367.318 59.0001ZM362.518 67.4001L359.629 66.5912C358.607 70.2406 358.118 74.3208 358.118 78.8001H361.118H364.118C364.118 74.7461 364.562 71.2263 365.406 68.209L362.518 67.4001ZM421.604 112.2L420.06 114.773V114.773L421.604 112.2ZM408.004 97.4001L405.276 98.6501C405.287 98.6731 405.298 98.696 405.309 98.7188L408.004 97.4001ZM408.004 54.0001L405.298 52.7037C405.294 52.7119 405.29 52.7201 405.286 52.7283L408.004 54.0001ZM421.604 39.0001L420.06 36.4276V36.4276L421.604 39.0001ZM473.804 45.2001L476.056 43.2191V43.2191L473.804 45.2001ZM479.604 97.2001L476.876 95.9501C476.872 95.9588 476.868 95.9675 476.865 95.9763L479.604 97.2001ZM466.404 112.2L467.973 114.757C467.978 114.754 467.983 114.751 467.988 114.747L466.404 112.2ZM458.804 99.2001L460.689 101.534V101.534L458.804 99.2001ZM465.804 88.6001L462.932 87.7301C462.927 87.7493 462.921 87.7685 462.916 87.7879L465.804 88.6001ZM465.804 62.0001L462.909 62.7894C462.919 62.8248 462.929 62.86 462.94 62.8949L465.804 62.0001ZM458.804 51.2001L456.866 53.4902C456.883 53.505 456.901 53.5196 456.919 53.5339L458.804 51.2001ZM429.004 51.2001L430.889 53.5339L430.899 53.5258L429.004 51.2001ZM421.804 62.0001L424.667 62.8949C424.67 62.8867 424.672 62.8784 424.675 62.8701L421.804 62.0001ZM421.804 88.6001L418.932 89.4701C418.935 89.4784 418.938 89.4867 418.94 89.4949L421.804 88.6001ZM429.004 99.2001L427.118 101.534C427.133 101.545 427.147 101.557 427.162 101.568L429.004 99.2001ZM443.804 117.6V114.6C435.409 114.6 428.575 112.884 423.147 109.628L421.604 112.2L420.06 114.773C426.632 118.716 434.598 120.6 443.804 120.6V117.6ZM421.604 112.2L423.147 109.628C417.642 106.325 413.509 101.826 410.698 96.0814L408.004 97.4001L405.309 98.7188C408.631 105.507 413.565 110.875 420.06 114.773L421.604 112.2ZM408.004 97.4001L410.731 96.1501C408 90.1925 406.604 83.4275 406.604 75.8001H403.604H400.604C400.604 84.1727 402.14 91.8077 405.276 98.6501L408.004 97.4001ZM403.604 75.8001H406.604C406.604 67.8885 408.006 61.0705 410.721 55.2719L408.004 54.0001L405.286 52.7283C402.134 59.463 400.604 67.1783 400.604 75.8001H403.604ZM408.004 54.0001L410.709 55.2964C413.526 49.4184 417.659 44.8656 423.147 41.5726L421.604 39.0001L420.06 36.4276C413.548 40.3345 408.615 45.7818 405.298 52.7037L408.004 54.0001ZM421.604 39.0001L423.147 41.5726C428.568 38.3198 435.466 36.6001 444.004 36.6001V33.6001V30.6001C434.675 30.6001 426.639 32.4804 420.06 36.4276L421.604 39.0001ZM444.004 33.6001V36.6001C456.457 36.6001 465.466 40.2615 471.551 47.1811L473.804 45.2001L476.056 43.2191C468.541 34.672 457.684 30.6001 444.004 30.6001V33.6001ZM473.804 45.2001L471.551 47.1811C477.765 54.2485 481.004 63.6879 481.004 75.8001H484.004H487.004C487.004 62.579 483.442 51.6184 476.056 43.2191L473.804 45.2001ZM484.004 75.8001H481.004C481.004 83.2863 479.61 89.9861 476.876 95.9501L479.604 97.2001L482.331 98.4501C485.464 91.6141 487.004 84.0473 487.004 75.8001H484.004ZM479.604 97.2001L476.865 95.9763C474.316 101.68 470.326 106.226 464.819 109.653L466.404 112.2L467.988 114.747C474.481 110.708 479.291 105.254 482.343 98.4239L479.604 97.2001ZM466.404 112.2L464.834 109.643C459.574 112.871 452.631 114.6 443.804 114.6V117.6V120.6C453.376 120.6 461.5 118.729 467.973 114.757L466.404 112.2ZM443.804 103.4V106.4C450.713 106.4 456.489 104.926 460.689 101.534L458.804 99.2001L456.919 96.8663C454.185 99.0743 449.96 100.4 443.804 100.4V103.4ZM458.804 99.2001L460.689 101.534C464.636 98.3453 467.322 94.2814 468.691 89.4123L465.804 88.6001L462.916 87.7879C461.885 91.4521 459.904 94.4549 456.919 96.8663L458.804 99.2001ZM465.804 88.6001L468.675 89.4701C470.092 84.7921 470.804 80.0324 470.804 75.2001H467.804H464.804C464.804 79.4345 464.182 83.6081 462.932 87.7301L465.804 88.6001ZM467.804 75.2001H470.804C470.804 70.3676 470.092 65.6657 468.667 61.1053L465.804 62.0001L462.94 62.8949C464.182 66.8678 464.804 70.9659 464.804 75.2001H467.804ZM465.804 62.0001L468.698 61.2107C467.336 56.218 464.658 52.0721 460.689 48.8663L458.804 51.2001L456.919 53.5339C459.883 55.9281 461.871 58.9822 462.909 62.7894L465.804 62.0001ZM458.804 51.2001L460.741 48.9099C456.538 45.3536 450.741 43.8001 443.804 43.8001V46.8001V49.8001C449.933 49.8001 454.135 51.1799 456.866 53.4902L458.804 51.2001ZM443.804 46.8001V43.8001C437.087 43.8001 431.405 45.3737 427.108 48.8744L429.004 51.2001L430.899 53.5258C433.802 51.1598 437.986 49.8001 443.804 49.8001V46.8001ZM429.004 51.2001L427.118 48.8663C423.168 52.0568 420.434 56.1737 418.932 61.1301L421.804 62.0001L424.675 62.8701C425.839 59.0265 427.905 55.9434 430.889 53.5339L429.004 51.2001ZM421.804 62.0001L418.94 61.1053C417.515 65.6657 416.804 70.3676 416.804 75.2001H419.804H422.804C422.804 70.9659 423.425 66.8678 424.667 62.8949L421.804 62.0001ZM419.804 75.2001H416.804C416.804 80.0324 417.515 84.7921 418.932 89.4701L421.804 88.6001L424.675 87.7301C423.426 83.6081 422.804 79.4345 422.804 75.2001H419.804ZM421.804 88.6001L418.94 89.4949C420.45 94.3255 423.189 98.3602 427.118 101.534L429.004 99.2001L430.889 96.8663C427.885 94.44 425.824 91.408 424.667 87.7053L421.804 88.6001ZM429.004 99.2001L427.162 101.568C431.454 104.907 437.116 106.4 443.804 106.4V103.4V100.4C437.958 100.4 433.753 99.0933 430.845 96.832L429.004 99.2001ZM501.572 115.6H498.572C498.572 117.257 499.915 118.6 501.572 118.6V115.6ZM501.572 3.00009V9.15527e-05C499.915 9.15527e-05 498.572 1.34324 498.572 3.00009H501.572ZM517.972 3.00009H520.972C520.972 1.34324 519.629 9.15527e-05 517.972 9.15527e-05V3.00009ZM517.972 115.6V118.6C519.629 118.6 520.972 117.257 520.972 115.6H517.972ZM501.572 115.6H504.572V3.00009H501.572H498.572V115.6H501.572ZM501.572 3.00009V6.00009H517.972V3.00009V9.15527e-05H501.572V3.00009ZM517.972 3.00009H514.972V115.6H517.972H520.972V3.00009H517.972ZM517.972 115.6V112.6H501.572V115.6V118.6H517.972V115.6ZM550.9 112.2L549.357 114.773V114.773L550.9 112.2ZM537.3 97.4001L534.573 98.6501C534.584 98.6731 534.595 98.696 534.606 98.7188L537.3 97.4001ZM537.3 54.0001L534.595 52.7037C534.591 52.7119 534.587 52.7201 534.583 52.7283L537.3 54.0001ZM550.9 39.0001L549.357 36.4276V36.4276L550.9 39.0001ZM603.1 45.2001L605.353 43.2191V43.2191L603.1 45.2001ZM608.9 97.2001L606.173 95.9501C606.169 95.9588 606.165 95.9675 606.161 95.9763L608.9 97.2001ZM595.7 112.2L597.269 114.757C597.275 114.754 597.28 114.751 597.285 114.747L595.7 112.2ZM588.1 99.2001L589.985 101.534V101.534L588.1 99.2001ZM595.1 88.6001L592.229 87.7301C592.224 87.7493 592.218 87.7685 592.212 87.7879L595.1 88.6001ZM595.1 62.0001L592.206 62.7894C592.216 62.8248 592.226 62.86 592.237 62.8949L595.1 62.0001ZM588.1 51.2001L586.163 53.4902C586.18 53.505 586.198 53.5196 586.215 53.5339L588.1 51.2001ZM558.3 51.2001L560.185 53.5339L560.195 53.5258L558.3 51.2001ZM551.1 62.0001L553.964 62.8949C553.966 62.8867 553.969 62.8784 553.971 62.8701L551.1 62.0001ZM551.1 88.6001L548.229 89.4701C548.232 89.4784 548.234 89.4867 548.237 89.4949L551.1 88.6001ZM558.3 99.2001L556.415 101.534C556.43 101.545 556.444 101.557 556.459 101.568L558.3 99.2001ZM573.1 117.6V114.6C564.706 114.6 557.872 112.884 552.444 109.628L550.9 112.2L549.357 114.773C555.929 118.716 563.895 120.6 573.1 120.6V117.6ZM550.9 112.2L552.444 109.628C546.939 106.325 542.806 101.826 539.995 96.0814L537.3 97.4001L534.606 98.7188C537.928 105.507 542.862 110.875 549.357 114.773L550.9 112.2ZM537.3 97.4001L540.028 96.1501C537.297 90.1925 535.9 83.4275 535.9 75.8001H532.9H529.9C529.9 84.1727 531.437 91.8077 534.573 98.6501L537.3 97.4001ZM532.9 75.8001H535.9C535.9 67.8885 537.303 61.0705 540.017 55.2719L537.3 54.0001L534.583 52.7283C531.431 59.463 529.9 67.1783 529.9 75.8001H532.9ZM537.3 54.0001L540.006 55.2964C542.822 49.4184 546.955 44.8656 552.444 41.5726L550.9 39.0001L549.357 36.4276C542.845 40.3345 537.912 45.7818 534.595 52.7037L537.3 54.0001ZM550.9 39.0001L552.444 41.5726C557.865 38.3198 564.763 36.6001 573.3 36.6001V33.6001V30.6001C563.971 30.6001 555.936 32.4804 549.357 36.4276L550.9 39.0001ZM573.3 33.6001V36.6001C585.753 36.6001 594.763 40.2615 600.847 47.1811L603.1 45.2001L605.353 43.2191C597.838 34.672 586.981 30.6001 573.3 30.6001V33.6001ZM603.1 45.2001L600.847 47.1811C607.062 54.2485 610.3 63.6879 610.3 75.8001H613.3H616.3C616.3 62.579 612.739 51.6184 605.353 43.2191L603.1 45.2001ZM613.3 75.8001H610.3C610.3 83.2863 608.907 89.9861 606.173 95.9501L608.9 97.2001L611.628 98.4501C614.761 91.6141 616.3 84.0473 616.3 75.8001H613.3ZM608.9 97.2001L606.161 95.9763C603.613 101.68 599.623 106.226 594.115 109.653L595.7 112.2L597.285 114.747C603.777 110.708 608.588 105.254 611.639 98.4239L608.9 97.2001ZM595.7 112.2L594.131 109.643C588.87 112.871 581.928 114.6 573.1 114.6V117.6V120.6C582.673 120.6 590.797 118.729 597.269 114.757L595.7 112.2ZM573.1 103.4V106.4C580.01 106.4 585.786 104.926 589.985 101.534L588.1 99.2001L586.215 96.8663C583.482 99.0743 579.257 100.4 573.1 100.4V103.4ZM588.1 99.2001L589.985 101.534C593.933 98.3453 596.619 94.2814 597.988 89.4123L595.1 88.6001L592.212 87.7879C591.182 91.4521 589.201 94.4549 586.215 96.8663L588.1 99.2001ZM595.1 88.6001L597.971 89.4701C599.389 84.7921 600.1 80.0324 600.1 75.2001H597.1H594.1C594.1 79.4345 593.478 83.6081 592.229 87.7301L595.1 88.6001ZM597.1 75.2001H600.1C600.1 70.3676 599.389 65.6657 597.964 61.1053L595.1 62.0001L592.237 62.8949C593.478 66.8678 594.1 70.9659 594.1 75.2001H597.1ZM595.1 62.0001L597.995 61.2107C596.633 56.218 593.955 52.0721 589.985 48.8663L588.1 51.2001L586.215 53.5339C589.18 55.9281 591.168 58.9822 592.206 62.7894L595.1 62.0001ZM588.1 51.2001L590.038 48.9099C585.835 45.3536 580.038 43.8001 573.1 43.8001V46.8001V49.8001C579.229 49.8001 583.432 51.1799 586.163 53.4902L588.1 51.2001ZM573.1 46.8001V43.8001C566.384 43.8001 560.702 45.3737 556.405 48.8744L558.3 51.2001L560.195 53.5258C563.099 51.1598 567.283 49.8001 573.1 49.8001V46.8001ZM558.3 51.2001L556.415 48.8663C552.465 52.0568 549.731 56.1737 548.229 61.1301L551.1 62.0001L553.971 62.8701C555.136 59.0265 557.202 55.9434 560.185 53.5339L558.3 51.2001ZM551.1 62.0001L548.237 61.1053C546.812 65.6657 546.1 70.3676 546.1 75.2001H549.1H552.1C552.1 70.9659 552.722 66.8678 553.964 62.8949L551.1 62.0001ZM549.1 75.2001H546.1C546.1 80.0324 546.812 84.7921 548.229 89.4701L551.1 88.6001L553.971 87.7301C552.722 83.6081 552.1 79.4345 552.1 75.2001H549.1ZM551.1 88.6001L548.237 89.4949C549.747 94.3255 552.486 98.3602 556.415 101.534L558.3 99.2001L560.185 96.8663C557.181 94.44 555.121 91.408 553.964 87.7053L551.1 88.6001ZM558.3 99.2001L556.459 101.568C560.751 104.907 566.413 106.4 573.1 106.4V103.4V100.4C567.255 100.4 563.05 99.0933 560.142 96.832L558.3 99.2001ZM649.869 150.6H646.869C646.869 152.257 648.212 153.6 649.869 153.6V150.6ZM649.869 135V132C648.212 132 646.869 133.343 646.869 135H649.869ZM688.269 135V138C689.926 138 691.269 136.657 691.269 135H688.269ZM688.269 99.2001H691.269C691.269 97.5432 689.926 96.2001 688.269 96.2001V99.2001ZM687.869 99.2001V96.2001C686.733 96.2001 685.694 96.8421 685.186 97.8585L687.869 99.2001ZM685.869 103L688.474 104.489C688.488 104.463 688.502 104.438 688.516 104.412L685.869 103ZM680.869 109.2L678.748 107.079C678.726 107.1 678.705 107.122 678.685 107.144L680.869 109.2ZM672.269 115.2L673.526 117.924C673.541 117.917 673.556 117.91 673.571 117.903L672.269 115.2ZM639.669 112.2L641.377 109.734V109.734L639.669 112.2ZM628.069 97.4001L625.268 98.473C625.274 98.4902 625.281 98.5074 625.288 98.5245L628.069 97.4001ZM628.269 53.8001L631.05 54.9245C631.053 54.9177 631.056 54.911 631.059 54.9042L628.269 53.8001ZM639.869 39.0001L641.533 41.4962V41.4962L639.869 39.0001ZM672.869 36.4001L674.171 33.6971V33.6971L672.869 36.4001ZM681.269 42.6001L678.964 44.5206C678.985 44.5452 679.006 44.5693 679.027 44.5932L681.269 42.6001ZM685.869 49.2001L683.151 50.4688C683.173 50.5171 683.197 50.5648 683.222 50.6119L685.869 49.2001ZM687.669 53.0001L684.759 53.7277C685.093 55.0632 686.293 56.0001 687.669 56.0001V53.0001ZM688.069 53.0001V56.0001C689.726 56.0001 691.069 54.657 691.069 53.0001H688.069ZM688.069 33.8001V30.8001C686.412 30.8001 685.069 32.1432 685.069 33.8001H688.069ZM705.269 33.8001H708.269C708.269 32.1432 706.926 30.8001 705.269 30.8001V33.8001ZM696.069 148L694.727 145.317C694.682 145.34 694.637 145.363 694.593 145.388L696.069 148ZM677.069 99.8001L675.471 97.2614V97.2614L677.069 99.8001ZM685.069 90.2001L682.335 88.9653C682.324 88.9901 682.313 89.0149 682.303 89.0399L685.069 90.2001ZM685.269 61.6001L688.036 60.4399V60.4399L685.269 61.6001ZM677.469 52.2001L675.782 54.6809C675.82 54.7065 675.858 54.7312 675.897 54.7551L677.469 52.2001ZM650.469 52.6001L648.743 50.1467C648.728 50.157 648.714 50.1674 648.699 50.1779L650.469 52.6001ZM642.869 62.6001L640.071 61.5171C640.061 61.5435 640.051 61.5701 640.042 61.5969L642.869 62.6001ZM642.669 89.2001L639.806 90.0949C639.817 90.1313 639.829 90.1674 639.842 90.2033L642.669 89.2001ZM649.869 99.4001L647.995 101.743C648.029 101.77 648.064 101.797 648.099 101.822L649.869 99.4001ZM649.869 150.6H652.869V135H649.869H646.869V150.6H649.869ZM649.869 135V138H688.269V135V132H649.869V135ZM688.269 135H691.269V99.2001H688.269H685.269V135H688.269ZM688.269 99.2001V96.2001H687.869V99.2001V102.2H688.269V99.2001ZM687.869 99.2001L685.186 97.8585C684.941 98.3488 684.295 99.5766 683.222 101.588L685.869 103L688.516 104.412C689.577 102.424 690.264 101.118 690.552 100.542L687.869 99.2001ZM685.869 103L683.264 101.512C682.378 103.063 680.909 104.918 678.748 107.079L680.869 109.2L682.99 111.321C685.363 108.949 687.227 106.67 688.474 104.489L685.869 103ZM680.869 109.2L678.685 107.144C676.864 109.079 674.326 110.88 670.968 112.497L672.269 115.2L673.571 117.903C677.412 116.053 680.608 113.855 683.054 111.256L680.869 109.2ZM672.269 115.2L671.012 112.476C668.055 113.841 664.183 114.6 659.269 114.6V117.6V120.6C664.755 120.6 669.55 119.759 673.526 117.924L672.269 115.2ZM659.269 117.6V114.6C651.863 114.6 645.965 112.91 641.377 109.734L639.669 112.2L637.961 114.667C643.774 118.691 650.942 120.6 659.269 120.6V117.6ZM639.669 112.2L641.377 109.734C636.691 106.49 633.18 102.039 630.85 96.2757L628.069 97.4001L625.288 98.5245C628.025 105.295 632.247 110.71 637.961 114.667L639.669 112.2ZM628.069 97.4001L630.871 96.3271C628.626 90.4671 627.469 83.6422 627.469 75.8001H624.469H621.469C621.469 84.2246 622.712 91.7998 625.268 98.473L628.069 97.4001ZM624.469 75.8001H627.469C627.469 67.6951 628.692 60.7587 631.05 54.9245L628.269 53.8001L625.488 52.6757C622.78 59.3749 621.469 67.1051 621.469 75.8001H624.469ZM628.269 53.8001L631.059 54.9042C633.391 49.0118 636.893 44.59 641.533 41.4962L639.869 39.0001L638.205 36.5039C632.446 40.3435 628.214 45.7884 625.48 52.696L628.269 53.8001ZM639.869 39.0001L641.533 41.4962C646.127 38.4339 652.042 36.8001 659.469 36.8001V33.8001V30.8001C651.163 30.8001 644.011 32.633 638.205 36.5039L639.869 39.0001ZM659.469 33.8001V36.8001C664.496 36.8001 668.486 37.6193 671.568 39.1031L672.869 36.4001L674.171 33.6971C670.052 31.7142 665.109 30.8001 659.469 30.8001V33.8001ZM672.869 36.4001L671.568 39.1031C674.885 40.7004 677.304 42.5286 678.964 44.5206L681.269 42.6001L683.574 40.6795C681.234 37.8716 678.053 35.5665 674.171 33.6971L672.869 36.4001ZM681.269 42.6001L679.027 44.5932C681.047 46.8654 682.382 48.8219 683.151 50.4688L685.869 49.2001L688.588 47.9314C687.49 45.5783 685.758 43.1348 683.511 40.607L681.269 42.6001ZM685.869 49.2001L683.222 50.6119C683.745 51.592 684.137 52.3619 684.408 52.9344C684.714 53.5803 684.773 53.7844 684.759 53.7277L687.669 53.0001L690.58 52.2725C690.432 51.6825 690.124 50.9866 689.83 50.3658C689.502 49.6716 689.06 48.8082 688.516 47.7883L685.869 49.2001ZM687.669 53.0001V56.0001H688.069V53.0001V50.0001H687.669V53.0001ZM688.069 53.0001H691.069V33.8001H688.069H685.069V53.0001H688.069ZM688.069 33.8001V36.8001H705.269V33.8001V30.8001H688.069V33.8001ZM705.269 33.8001H702.269V126H705.269H708.269V33.8001H705.269ZM705.269 126H702.269C702.269 131.657 701.556 135.962 700.291 139.068L703.069 140.2L705.847 141.332C707.515 137.238 708.269 132.077 708.269 126H705.269ZM703.069 140.2L700.291 139.068C699.073 142.057 697.218 144.072 694.727 145.317L696.069 148L697.411 150.683C701.321 148.729 704.132 145.543 705.847 141.332L703.069 140.2ZM696.069 148L694.593 145.388C692.141 146.774 688.581 147.6 683.669 147.6V150.6V153.6C689.157 153.6 693.864 152.693 697.545 150.612L696.069 148ZM683.669 150.6V147.6H649.869V150.6V153.6H683.669V150.6ZM663.869 103.2V106.2C669.509 106.2 674.492 104.968 678.668 102.339L677.069 99.8001L675.471 97.2614C672.446 99.1659 668.63 100.2 663.869 100.2V103.2ZM677.069 99.8001L678.668 102.339C682.818 99.7254 685.878 96.03 687.836 91.3603L685.069 90.2001L682.303 89.0399C680.794 92.6369 678.52 95.3414 675.471 97.2614L677.069 99.8001ZM685.069 90.2001L687.803 91.4349C689.877 86.8422 690.869 81.6067 690.869 75.8001H687.869H684.869C684.869 80.9268 683.994 85.2913 682.335 88.9653L685.069 90.2001ZM687.869 75.8001H690.869C690.869 70.1426 689.949 65.0034 688.036 60.4399L685.269 61.6001L682.503 62.7603C684.055 66.4634 684.869 70.7909 684.869 75.8001H687.869ZM685.269 61.6001L688.036 60.4399C686.086 55.7896 683.096 52.1404 679.041 49.6451L677.469 52.2001L675.897 54.7551C678.775 56.5265 680.986 59.1439 682.503 62.7603L685.269 61.6001ZM677.469 52.2001L679.156 49.7193C675.199 47.0285 670.297 45.8001 664.669 45.8001V48.8001V51.8001C669.441 51.8001 673.073 52.8384 675.782 54.6809L677.469 52.2001ZM664.669 48.8001V45.8001C658.387 45.8001 652.992 47.1565 648.743 50.1467L650.469 52.6001L652.196 55.0535C655.146 52.977 659.218 51.8001 664.669 51.8001V48.8001ZM650.469 52.6001L648.699 50.1779C644.753 53.0614 641.872 56.8665 640.071 61.5171L642.869 62.6001L645.667 63.6831C647.067 60.0671 649.252 57.2054 652.239 55.0223L650.469 52.6001ZM642.869 62.6001L640.042 61.5969C638.454 66.0724 637.669 70.8136 637.669 75.8001H640.669H643.669C643.669 71.4532 644.351 67.3944 645.696 63.6033L642.869 62.6001ZM640.669 75.8001H637.669C637.669 80.7568 638.378 85.5261 639.806 90.0949L642.669 89.2001L645.533 88.3053C644.294 84.3408 643.669 80.1767 643.669 75.8001H640.669ZM642.669 89.2001L639.842 90.2033C641.49 94.848 644.213 98.7171 647.995 101.743L649.869 99.4001L651.743 97.0575C648.859 94.7498 646.782 91.8189 645.496 88.1969L642.669 89.2001ZM649.869 99.4001L648.099 101.822C652.238 104.847 657.595 106.2 663.869 106.2V103.2V100.2C658.41 100.2 654.434 99.0202 651.639 96.9779L649.869 99.4001ZM713.438 152.8H710.438C710.438 154.457 711.781 155.8 713.438 155.8V152.8ZM713.438 139.8V136.8C711.781 136.8 710.438 138.143 710.438 139.8H713.438ZM730.238 139L729.449 136.106C729.369 136.128 729.29 136.153 729.213 136.181L730.238 139ZM734.438 135.8L732.148 133.862C732.118 133.898 732.088 133.934 732.06 133.971L734.438 135.8ZM739.038 127.8L736.307 126.559C736.303 126.566 736.3 126.574 736.296 126.582L739.038 127.8ZM746.038 112.4L748.769 113.642C749.11 112.891 749.127 112.033 748.816 111.269L746.038 112.4ZM714.038 33.8001V30.8001C713.039 30.8001 712.106 31.2971 711.549 32.1258C710.991 32.9545 710.883 34.0063 711.259 34.9313L714.038 33.8001ZM731.238 33.8001L734.047 32.7477C733.608 31.5763 732.489 30.8001 731.238 30.8001V33.8001ZM754.238 95.2001L751.429 96.2525C751.863 97.4123 752.966 98.1859 754.204 98.1999C755.442 98.2139 756.562 97.4655 757.023 96.3158L754.238 95.2001ZM778.838 33.8001V30.8001C777.612 30.8001 776.509 31.5462 776.053 32.6844L778.838 33.8001ZM796.238 33.8001L798.985 35.0047C799.392 34.0771 799.303 33.0069 798.749 32.159C798.195 31.3111 797.251 30.8001 796.238 30.8001V33.8001ZM754.238 129.6L756.976 130.825C756.979 130.818 756.982 130.812 756.985 130.805L754.238 129.6ZM748.038 141.8L745.475 140.24C745.458 140.268 745.442 140.296 745.426 140.324L748.038 141.8ZM742.438 148.8L740.564 146.457C740.537 146.479 740.511 146.5 740.486 146.522L742.438 148.8ZM735.838 152L735.22 149.064C735.209 149.067 735.198 149.069 735.187 149.072L735.838 152ZM713.438 152.8H716.438V139.8H713.438H710.438V152.8H713.438ZM713.438 139.8V142.8H725.238V139.8V136.8H713.438V139.8ZM725.238 139.8V142.8C727.387 142.8 729.41 142.493 731.263 141.819L730.238 139L729.213 136.181C728.132 136.574 726.822 136.8 725.238 136.8V139.8ZM730.238 139L731.027 141.894C733.349 141.261 735.253 139.661 736.816 137.629L734.438 135.8L732.06 133.971C730.957 135.406 730.06 135.939 729.449 136.106L730.238 139ZM734.438 135.8L736.728 137.738C738.465 135.685 740.135 132.718 741.779 129.019L739.038 127.8L736.296 126.582C734.741 130.083 733.344 132.449 732.148 133.862L734.438 135.8ZM739.038 127.8L741.769 129.042L748.769 113.642L746.038 112.4L743.307 111.159L736.307 126.559L739.038 127.8ZM746.038 112.4L748.816 111.269L716.816 32.6689L714.038 33.8001L711.259 34.9313L743.259 113.531L746.038 112.4ZM714.038 33.8001V36.8001H731.238V33.8001V30.8001H714.038V33.8001ZM731.238 33.8001L728.429 34.8525L751.429 96.2525L754.238 95.2001L757.047 94.1477L734.047 32.7477L731.238 33.8001ZM754.238 95.2001L757.023 96.3158L781.623 34.9158L778.838 33.8001L776.053 32.6844L751.453 94.0844L754.238 95.2001ZM778.838 33.8001V36.8001H796.238V33.8001V30.8001H778.838V33.8001ZM796.238 33.8001L793.49 32.5955L751.49 128.396L754.238 129.6L756.985 130.805L798.985 35.0047L796.238 33.8001ZM754.238 129.6L751.499 128.375C749.26 133.381 747.251 137.323 745.475 140.24L748.038 141.8L750.6 143.36C752.558 140.144 754.683 135.952 756.976 130.825L754.238 129.6ZM748.038 141.8L745.426 140.324C743.815 143.174 742.176 145.168 740.564 146.457L742.438 148.8L744.312 151.143C746.7 149.232 748.794 146.559 750.65 143.276L748.038 141.8ZM742.438 148.8L740.486 146.522C739.022 147.777 737.287 148.629 735.22 149.064L735.838 152L736.456 154.936C739.455 154.304 742.121 153.023 744.39 151.078L742.438 148.8ZM735.838 152L735.187 149.072C733.061 149.544 730.424 149.8 727.238 149.8V152.8V155.8C730.718 155.8 733.815 155.523 736.489 154.929L735.838 152ZM727.238 152.8V149.8H713.438V152.8V155.8H727.238V152.8Z" fill="url(#paint0_radial_132_695)" mask="url(#path-1-outside-1_132_695)"/>
<defs>
<radialGradient id="paint0_radial_132_695" cx="0" cy="0" r="1" gradientTransform="matrix(-336.312 -69.266 272.845 -148.655 353.268 61.807)" gradientUnits="userSpaceOnUse">
<stop stop-color="#E5320F"/>
<stop offset="0.823364" stop-color="#C82D0B"/>
<stop offset="0.880718" stop-color="#E5320F"/>
<stop offset="0.903941" stop-color="#E74F13"/>
<stop offset="0.94722" stop-color="#E97318"/>
<stop offset="0.973258" stop-color="#EA9924"/>
<stop offset="1" stop-color="#FFCD84"/>
</radialGradient>
</defs>
</svg>
