<svg width="581" height="121" viewBox="0 0 581 121" fill="none" xmlns="http://www.w3.org/2000/svg">
<mask id="path-1-outside-1_132_695" maskUnits="userSpaceOnUse" x="-0.931641" y="-0.399902" width="582" height="121" fill="black">
<rect fill="white" x="-0.931641" y="-0.399902" width="582" height="121"/>
<path d="M19.6004 115.6H3.00039V3.00009H19.6004V115.6ZM78.4004 3.00009H94.8004V115.6H78.4004V3.00009ZM87.8004 64.4001H11.0004V51.4001H87.8004V64.4001ZM143.393 117.4C135.926 117.4 129.793 115.6 124.993 112C120.326 108.4 116.859 103.467 114.593 97.2001C112.459 90.9334 111.393 83.7334 111.393 75.6001C111.393 67.2001 112.526 59.8668 114.793 53.6001C117.059 47.2001 120.526 42.2001 125.193 38.6001C129.993 35.0001 136.059 33.2001 143.393 33.2001C147.926 33.2001 151.793 33.8668 154.993 35.2001C158.193 36.4001 160.859 37.9334 162.993 39.8001C165.126 41.6668 166.859 43.6001 168.193 45.6001C169.526 47.4668 170.459 49.1334 170.993 50.6001H171.393V33.8001H188.393V115.6H174.193L171.393 101H170.993C170.459 102.467 169.526 104.133 168.193 106C166.859 107.867 165.059 109.667 162.793 111.4C160.659 113.133 157.993 114.533 154.793 115.6C151.593 116.8 147.793 117.4 143.393 117.4ZM149.993 103.2C155.326 103.2 159.526 102.067 162.593 99.8001C165.659 97.4001 167.859 94.1334 169.193 90.0001C170.526 85.8668 171.193 81.1334 171.193 75.8001C171.193 70.0668 170.459 65.1334 168.993 61.0001C167.659 56.8668 165.459 53.7334 162.393 51.6001C159.326 49.3334 155.193 48.2001 149.993 48.2001C144.526 48.2001 140.126 49.4668 136.793 52.0001C133.593 54.4001 131.259 57.6668 129.793 61.8001C128.459 65.9334 127.793 70.5334 127.793 75.6001C127.793 80.8001 128.459 85.5334 129.793 89.8001C131.259 93.9334 133.593 97.2001 136.793 99.6001C140.126 102 144.526 103.2 149.993 103.2ZM237.279 117.6C233.545 117.6 229.879 117.067 226.279 116C222.812 115.067 219.545 113.667 216.479 111.8C213.545 109.933 210.879 107.8 208.479 105.4C206.212 103 204.412 100.4 203.079 97.6001C201.879 94.6668 201.279 91.6001 201.279 88.4001H216.879C216.879 88.5334 216.945 89.4668 217.079 91.2001C217.345 92.9334 218.079 94.9334 219.279 97.2001C220.479 99.3334 222.412 101.2 225.079 102.8C227.879 104.4 231.812 105.2 236.879 105.2C240.745 105.2 244.012 104.733 246.679 103.8C249.479 102.867 251.612 101.6 253.079 100C254.545 98.2668 255.212 96.2001 255.079 93.8001C255.079 90.4668 253.812 87.8668 251.279 86.0001C248.745 84.1334 245.479 82.6668 241.479 81.6001C237.479 80.4001 233.279 79.2668 228.879 78.2001C224.479 77.1334 220.279 75.7334 216.279 74.0001C212.279 72.1334 209.012 69.6668 206.479 66.6001C204.079 63.4001 202.945 59.1334 203.079 53.8001C203.079 46.6001 206.079 41.0668 212.079 37.2001C218.212 33.2001 225.945 31.2001 235.279 31.2001C239.812 31.2001 244.212 31.7334 248.479 32.8001C252.745 33.8668 256.545 35.5334 259.879 37.8001C263.345 40.0668 266.079 43.0668 268.079 46.8001C270.212 50.5334 271.212 55.1334 271.079 60.6001H255.679C255.812 57.1334 255.212 54.3334 253.879 52.2001C252.679 50.0668 251.012 48.4668 248.879 47.4001C246.745 46.2001 244.479 45.4001 242.079 45.0001C239.812 44.4668 237.612 44.2001 235.479 44.2001C230.145 44.2001 225.945 45.2001 222.879 47.2001C219.812 49.0668 218.279 51.6001 218.279 54.8001C218.279 58.1334 219.545 60.7334 222.079 62.6001C224.612 64.4668 227.879 65.9334 231.879 67.0001C235.879 68.0668 240.145 69.1334 244.679 70.2001C249.212 71.2668 253.479 72.7334 257.479 74.6001C261.479 76.3334 264.745 78.8001 267.279 82.0001C269.812 85.2001 271.079 89.4668 271.079 94.8001C271.079 100 269.612 104.267 266.679 107.6C263.879 110.933 259.945 113.467 254.879 115.2C249.812 116.8 243.945 117.6 237.279 117.6ZM285.914 115.6V3.00009H302.914V52.8001H303.314C303.448 52.2668 303.981 51.0001 304.914 49.0001C305.848 47.0001 307.314 44.8668 309.314 42.6001C311.448 40.2001 314.248 38.1334 317.714 36.4001C321.181 34.6668 325.581 33.8001 330.914 33.8001C336.648 33.8001 341.381 34.7334 345.114 36.6001C348.848 38.3334 351.781 40.7334 353.914 43.8001C356.181 46.8668 357.848 50.2668 358.914 54.0001C359.981 57.7334 360.648 61.4668 360.914 65.2001C361.314 68.9334 361.514 72.4001 361.514 75.6001V115.6H345.314V75.4001C345.314 70.3334 344.781 65.8001 343.714 61.8001C342.648 57.6668 340.714 54.4668 337.914 52.2001C335.114 49.8001 330.914 48.6001 325.314 48.6001C319.714 48.6001 315.248 49.9334 311.914 52.6001C308.714 55.2668 306.381 58.7334 304.914 63.0001C303.581 67.1334 302.914 71.6668 302.914 76.6001V115.6H285.914ZM401.679 115.6C396.079 115.6 391.945 114.133 389.279 111.2C386.612 108.267 385.279 103.8 385.279 97.8001V43.8001H401.079V102.4H420.079V115.6H401.679ZM372.679 45.8001V33.8001C375.745 33.8001 378.212 33.6001 380.079 33.2001C382.079 32.8001 383.545 32.0001 384.479 30.8001C385.545 29.4668 386.279 27.4001 386.679 24.6001C387.079 21.6668 387.279 17.7334 387.279 12.8001H401.079V33.8001H419.879V45.8001H372.679ZM437.682 115.6V33.8001H453.082L454.482 57.4001L454.282 75.0001V115.6H437.682ZM454.282 78.8001L453.682 60.8001C453.815 57.8668 454.482 54.8668 455.682 51.8001C456.882 48.6001 458.682 45.6668 461.082 43.0001C463.615 40.2001 466.815 38.0001 470.682 36.4001C474.682 34.6668 479.482 33.8001 485.082 33.8001H488.482V52.2001H484.882C478.882 52.2001 473.882 52.8001 469.882 54.0001C465.882 55.0668 462.748 56.7334 460.482 59.0001C458.215 61.2668 456.615 64.0668 455.682 67.4001C454.748 70.7334 454.282 74.5334 454.282 78.8001ZM536.968 117.6C528.168 117.6 520.768 115.8 514.768 112.2C508.768 108.6 504.234 103.667 501.168 97.4001C498.234 91.0001 496.768 83.8001 496.768 75.8001C496.768 67.5334 498.234 60.2668 501.168 54.0001C504.234 47.6001 508.768 42.6001 514.768 39.0001C520.768 35.4001 528.234 33.6001 537.168 33.6001C550.234 33.6001 560.168 37.4668 566.968 45.2001C573.768 52.9334 577.168 63.1334 577.168 75.8001C577.168 83.6668 575.701 90.8001 572.768 97.2001C569.968 103.467 565.568 108.467 559.568 112.2C553.701 115.8 546.168 117.6 536.968 117.6ZM536.968 103.4C543.501 103.4 548.501 102 551.968 99.2001C555.434 96.4001 557.768 92.8668 558.968 88.6001C560.301 84.2001 560.968 79.7334 560.968 75.2001C560.968 70.6668 560.301 66.2668 558.968 62.0001C557.768 57.6001 555.434 54.0001 551.968 51.2001C548.501 48.2668 543.501 46.8001 536.968 46.8001C530.701 46.8001 525.768 48.2668 522.168 51.2001C518.701 54.0001 516.301 57.6001 514.968 62.0001C513.634 66.2668 512.968 70.6668 512.968 75.2001C512.968 79.7334 513.634 84.2001 514.968 88.6001C516.301 92.8668 518.701 96.4001 522.168 99.2001C525.768 102 530.701 103.4 536.968 103.4Z"/>
</mask>
<path d="M19.6004 115.6H3.00039V3.00009H19.6004V115.6ZM78.4004 3.00009H94.8004V115.6H78.4004V3.00009ZM87.8004 64.4001H11.0004V51.4001H87.8004V64.4001ZM143.393 117.4C135.926 117.4 129.793 115.6 124.993 112C120.326 108.4 116.859 103.467 114.593 97.2001C112.459 90.9334 111.393 83.7334 111.393 75.6001C111.393 67.2001 112.526 59.8668 114.793 53.6001C117.059 47.2001 120.526 42.2001 125.193 38.6001C129.993 35.0001 136.059 33.2001 143.393 33.2001C147.926 33.2001 151.793 33.8668 154.993 35.2001C158.193 36.4001 160.859 37.9334 162.993 39.8001C165.126 41.6668 166.859 43.6001 168.193 45.6001C169.526 47.4668 170.459 49.1334 170.993 50.6001H171.393V33.8001H188.393V115.6H174.193L171.393 101H170.993C170.459 102.467 169.526 104.133 168.193 106C166.859 107.867 165.059 109.667 162.793 111.4C160.659 113.133 157.993 114.533 154.793 115.6C151.593 116.8 147.793 117.4 143.393 117.4ZM149.993 103.2C155.326 103.2 159.526 102.067 162.593 99.8001C165.659 97.4001 167.859 94.1334 169.193 90.0001C170.526 85.8668 171.193 81.1334 171.193 75.8001C171.193 70.0668 170.459 65.1334 168.993 61.0001C167.659 56.8668 165.459 53.7334 162.393 51.6001C159.326 49.3334 155.193 48.2001 149.993 48.2001C144.526 48.2001 140.126 49.4668 136.793 52.0001C133.593 54.4001 131.259 57.6668 129.793 61.8001C128.459 65.9334 127.793 70.5334 127.793 75.6001C127.793 80.8001 128.459 85.5334 129.793 89.8001C131.259 93.9334 133.593 97.2001 136.793 99.6001C140.126 102 144.526 103.2 149.993 103.2ZM237.279 117.6C233.545 117.6 229.879 117.067 226.279 116C222.812 115.067 219.545 113.667 216.479 111.8C213.545 109.933 210.879 107.8 208.479 105.4C206.212 103 204.412 100.4 203.079 97.6001C201.879 94.6668 201.279 91.6001 201.279 88.4001H216.879C216.879 88.5334 216.945 89.4668 217.079 91.2001C217.345 92.9334 218.079 94.9334 219.279 97.2001C220.479 99.3334 222.412 101.2 225.079 102.8C227.879 104.4 231.812 105.2 236.879 105.2C240.745 105.2 244.012 104.733 246.679 103.8C249.479 102.867 251.612 101.6 253.079 100C254.545 98.2668 255.212 96.2001 255.079 93.8001C255.079 90.4668 253.812 87.8668 251.279 86.0001C248.745 84.1334 245.479 82.6668 241.479 81.6001C237.479 80.4001 233.279 79.2668 228.879 78.2001C224.479 77.1334 220.279 75.7334 216.279 74.0001C212.279 72.1334 209.012 69.6668 206.479 66.6001C204.079 63.4001 202.945 59.1334 203.079 53.8001C203.079 46.6001 206.079 41.0668 212.079 37.2001C218.212 33.2001 225.945 31.2001 235.279 31.2001C239.812 31.2001 244.212 31.7334 248.479 32.8001C252.745 33.8668 256.545 35.5334 259.879 37.8001C263.345 40.0668 266.079 43.0668 268.079 46.8001C270.212 50.5334 271.212 55.1334 271.079 60.6001H255.679C255.812 57.1334 255.212 54.3334 253.879 52.2001C252.679 50.0668 251.012 48.4668 248.879 47.4001C246.745 46.2001 244.479 45.4001 242.079 45.0001C239.812 44.4668 237.612 44.2001 235.479 44.2001C230.145 44.2001 225.945 45.2001 222.879 47.2001C219.812 49.0668 218.279 51.6001 218.279 54.8001C218.279 58.1334 219.545 60.7334 222.079 62.6001C224.612 64.4668 227.879 65.9334 231.879 67.0001C235.879 68.0668 240.145 69.1334 244.679 70.2001C249.212 71.2668 253.479 72.7334 257.479 74.6001C261.479 76.3334 264.745 78.8001 267.279 82.0001C269.812 85.2001 271.079 89.4668 271.079 94.8001C271.079 100 269.612 104.267 266.679 107.6C263.879 110.933 259.945 113.467 254.879 115.2C249.812 116.8 243.945 117.6 237.279 117.6ZM285.914 115.6V3.00009H302.914V52.8001H303.314C303.448 52.2668 303.981 51.0001 304.914 49.0001C305.848 47.0001 307.314 44.8668 309.314 42.6001C311.448 40.2001 314.248 38.1334 317.714 36.4001C321.181 34.6668 325.581 33.8001 330.914 33.8001C336.648 33.8001 341.381 34.7334 345.114 36.6001C348.848 38.3334 351.781 40.7334 353.914 43.8001C356.181 46.8668 357.848 50.2668 358.914 54.0001C359.981 57.7334 360.648 61.4668 360.914 65.2001C361.314 68.9334 361.514 72.4001 361.514 75.6001V115.6H345.314V75.4001C345.314 70.3334 344.781 65.8001 343.714 61.8001C342.648 57.6668 340.714 54.4668 337.914 52.2001C335.114 49.8001 330.914 48.6001 325.314 48.6001C319.714 48.6001 315.248 49.9334 311.914 52.6001C308.714 55.2668 306.381 58.7334 304.914 63.0001C303.581 67.1334 302.914 71.6668 302.914 76.6001V115.6H285.914ZM401.679 115.6C396.079 115.6 391.945 114.133 389.279 111.2C386.612 108.267 385.279 103.8 385.279 97.8001V43.8001H401.079V102.4H420.079V115.6H401.679ZM372.679 45.8001V33.8001C375.745 33.8001 378.212 33.6001 380.079 33.2001C382.079 32.8001 383.545 32.0001 384.479 30.8001C385.545 29.4668 386.279 27.4001 386.679 24.6001C387.079 21.6668 387.279 17.7334 387.279 12.8001H401.079V33.8001H419.879V45.8001H372.679ZM437.682 115.6V33.8001H453.082L454.482 57.4001L454.282 75.0001V115.6H437.682ZM454.282 78.8001L453.682 60.8001C453.815 57.8668 454.482 54.8668 455.682 51.8001C456.882 48.6001 458.682 45.6668 461.082 43.0001C463.615 40.2001 466.815 38.0001 470.682 36.4001C474.682 34.6668 479.482 33.8001 485.082 33.8001H488.482V52.2001H484.882C478.882 52.2001 473.882 52.8001 469.882 54.0001C465.882 55.0668 462.748 56.7334 460.482 59.0001C458.215 61.2668 456.615 64.0668 455.682 67.4001C454.748 70.7334 454.282 74.5334 454.282 78.8001ZM536.968 117.6C528.168 117.6 520.768 115.8 514.768 112.2C508.768 108.6 504.234 103.667 501.168 97.4001C498.234 91.0001 496.768 83.8001 496.768 75.8001C496.768 67.5334 498.234 60.2668 501.168 54.0001C504.234 47.6001 508.768 42.6001 514.768 39.0001C520.768 35.4001 528.234 33.6001 537.168 33.6001C550.234 33.6001 560.168 37.4668 566.968 45.2001C573.768 52.9334 577.168 63.1334 577.168 75.8001C577.168 83.6668 575.701 90.8001 572.768 97.2001C569.968 103.467 565.568 108.467 559.568 112.2C553.701 115.8 546.168 117.6 536.968 117.6ZM536.968 103.4C543.501 103.4 548.501 102 551.968 99.2001C555.434 96.4001 557.768 92.8668 558.968 88.6001C560.301 84.2001 560.968 79.7334 560.968 75.2001C560.968 70.6668 560.301 66.2668 558.968 62.0001C557.768 57.6001 555.434 54.0001 551.968 51.2001C548.501 48.2668 543.501 46.8001 536.968 46.8001C530.701 46.8001 525.768 48.2668 522.168 51.2001C518.701 54.0001 516.301 57.6001 514.968 62.0001C513.634 66.2668 512.968 70.6668 512.968 75.2001C512.968 79.7334 513.634 84.2001 514.968 88.6001C516.301 92.8668 518.701 96.4001 522.168 99.2001C525.768 102 530.701 103.4 536.968 103.4Z" fill="white"/>
<path d="M19.6004 115.6V118.6C21.2572 118.6 22.6004 117.257 22.6004 115.6H19.6004ZM3.00039 115.6H0.000391006C0.000391006 117.257 1.34354 118.6 3.00039 118.6V115.6ZM3.00039 3.00009V9.15527e-05C1.34354 9.15527e-05 0.000391006 1.34324 0.000391006 3.00009H3.00039ZM19.6004 3.00009H22.6004C22.6004 1.34324 21.2572 9.15527e-05 19.6004 9.15527e-05V3.00009ZM78.4004 3.00009V9.15527e-05C76.7435 9.15527e-05 75.4004 1.34324 75.4004 3.00009H78.4004ZM94.8004 3.00009H97.8004C97.8004 1.34324 96.4572 9.15527e-05 94.8004 9.15527e-05V3.00009ZM94.8004 115.6V118.6C96.4572 118.6 97.8004 117.257 97.8004 115.6H94.8004ZM78.4004 115.6H75.4004C75.4004 117.257 76.7435 118.6 78.4004 118.6V115.6ZM87.8004 64.4001V67.4001C89.4572 67.4001 90.8004 66.0569 90.8004 64.4001H87.8004ZM11.0004 64.4001H8.00039C8.00039 66.0569 9.34354 67.4001 11.0004 67.4001V64.4001ZM11.0004 51.4001V48.4001C9.34354 48.4001 8.00039 49.7432 8.00039 51.4001H11.0004ZM87.8004 51.4001H90.8004C90.8004 49.7432 89.4572 48.4001 87.8004 48.4001V51.4001ZM19.6004 115.6V112.6H3.00039V115.6V118.6H19.6004V115.6ZM3.00039 115.6H6.00039V3.00009H3.00039H0.000391006V115.6H3.00039ZM3.00039 3.00009V6.00009H19.6004V3.00009V9.15527e-05H3.00039V3.00009ZM19.6004 3.00009H16.6004V115.6H19.6004H22.6004V3.00009H19.6004ZM78.4004 3.00009V6.00009H94.8004V3.00009V9.15527e-05H78.4004V3.00009ZM94.8004 3.00009H91.8004V115.6H94.8004H97.8004V3.00009H94.8004ZM94.8004 115.6V112.6H78.4004V115.6V118.6H94.8004V115.6ZM78.4004 115.6H81.4004V3.00009H78.4004H75.4004V115.6H78.4004ZM87.8004 64.4001V61.4001H11.0004V64.4001V67.4001H87.8004V64.4001ZM11.0004 64.4001H14.0004V51.4001H11.0004H8.00039V64.4001H11.0004ZM11.0004 51.4001V54.4001H87.8004V51.4001V48.4001H11.0004V51.4001ZM87.8004 51.4001H84.8004V64.4001H87.8004H90.8004V51.4001H87.8004ZM124.993 112L123.16 114.375C123.171 114.384 123.182 114.392 123.193 114.4L124.993 112ZM114.593 97.2001L111.753 98.1669C111.759 98.1848 111.765 98.2027 111.771 98.2205L114.593 97.2001ZM114.793 53.6001L117.614 54.6205C117.616 54.6142 117.618 54.6079 117.62 54.6016L114.793 53.6001ZM125.193 38.6001L123.393 36.2001C123.382 36.2082 123.371 36.2165 123.36 36.2247L125.193 38.6001ZM154.993 35.2001L153.839 37.9693C153.872 37.9832 153.905 37.9964 153.939 38.0091L154.993 35.2001ZM162.993 39.8001L164.968 37.5424V37.5424L162.993 39.8001ZM168.193 45.6001L165.696 47.2642C165.714 47.291 165.733 47.3176 165.751 47.3438L168.193 45.6001ZM170.993 50.6001L168.173 51.6253C168.604 52.8109 169.731 53.6001 170.993 53.6001V50.6001ZM171.393 50.6001V53.6001C173.049 53.6001 174.393 52.2569 174.393 50.6001H171.393ZM171.393 33.8001V30.8001C169.736 30.8001 168.393 32.1432 168.393 33.8001H171.393ZM188.393 33.8001H191.393C191.393 32.1432 190.049 30.8001 188.393 30.8001V33.8001ZM188.393 115.6V118.6C190.049 118.6 191.393 117.257 191.393 115.6H188.393ZM174.193 115.6L171.246 116.165C171.517 117.578 172.754 118.6 174.193 118.6V115.6ZM171.393 101L174.339 100.435C174.068 99.0218 172.832 98.0001 171.393 98.0001V101ZM170.993 101V98.0001C169.731 98.0001 168.604 98.7893 168.173 99.9749L170.993 101ZM168.193 106L170.634 107.744L170.634 107.744L168.193 106ZM162.793 111.4L160.97 109.017C160.947 109.035 160.924 109.053 160.901 109.072L162.793 111.4ZM154.793 115.6L153.844 112.754C153.809 112.766 153.774 112.778 153.739 112.791L154.793 115.6ZM162.593 99.8001L164.376 102.213C164.398 102.196 164.42 102.18 164.442 102.163L162.593 99.8001ZM168.993 61.0001L166.137 61.9211C166.146 61.9486 166.156 61.9761 166.165 62.0033L168.993 61.0001ZM162.393 51.6001L160.609 54.0126C160.632 54.0297 160.656 54.0464 160.679 54.0628L162.393 51.6001ZM136.793 52.0001L138.593 54.4001C138.598 54.3963 138.603 54.3924 138.608 54.3886L136.793 52.0001ZM129.793 61.8001L126.965 60.7969C126.956 60.8241 126.946 60.8515 126.937 60.8791L129.793 61.8001ZM129.793 89.8001L126.929 90.6949C126.941 90.7313 126.953 90.7674 126.965 90.8033L129.793 89.8001ZM136.793 99.6001L134.993 102C135.008 102.012 135.024 102.023 135.04 102.035L136.793 99.6001ZM143.393 117.4V114.4C136.414 114.4 130.958 112.724 126.793 109.6L124.993 112L123.193 114.4C128.628 118.476 135.438 120.4 143.393 120.4V117.4ZM124.993 112L126.825 109.625C122.667 106.417 119.512 101.982 117.414 96.1797L114.593 97.2001L111.771 98.2205C114.206 104.952 117.985 110.383 123.16 114.375L124.993 112ZM114.593 97.2001L117.433 96.2333C115.426 90.3398 114.393 83.4769 114.393 75.6001H111.393H108.393C108.393 83.9899 109.492 91.5271 111.753 98.1669L114.593 97.2001ZM111.393 75.6001H114.393C114.393 67.4613 115.492 60.4873 117.614 54.6205L114.793 53.6001L111.971 52.5797C109.56 59.2462 108.393 66.9389 108.393 75.6001H111.393ZM114.793 53.6001L117.62 54.6016C119.724 48.6611 122.882 44.1717 127.025 40.9754L125.193 38.6001L123.36 36.2247C118.17 40.2285 114.394 45.7391 111.965 52.5986L114.793 53.6001ZM125.193 38.6001L126.993 41.0001C131.167 37.8696 136.561 36.2001 143.393 36.2001V33.2001V30.2001C135.558 30.2001 128.819 32.1306 123.393 36.2001L125.193 38.6001ZM143.393 33.2001V36.2001C147.646 36.2001 151.098 36.8274 153.839 37.9693L154.993 35.2001L156.146 32.4309C152.487 30.9062 148.206 30.2001 143.393 30.2001V33.2001ZM154.993 35.2001L153.939 38.0091C156.869 39.1077 159.205 40.4722 161.017 42.0578L162.993 39.8001L164.968 37.5424C162.514 35.3947 159.516 33.6925 156.046 32.3911L154.993 35.2001ZM162.993 39.8001L161.017 42.0578C162.986 43.7806 164.533 45.5193 165.696 47.2642L168.193 45.6001L170.689 43.936C169.185 41.6809 167.266 39.5529 164.968 37.5424L162.993 39.8001ZM168.193 45.6001L165.751 47.3438C166.993 49.0827 167.765 50.5034 168.173 51.6253L170.993 50.6001L173.812 49.5749C173.153 47.7635 172.058 45.8508 170.634 43.8564L168.193 45.6001ZM170.993 50.6001V53.6001H171.393V50.6001V47.6001H170.993V50.6001ZM171.393 50.6001H174.393V33.8001H171.393H168.393V50.6001H171.393ZM171.393 33.8001V36.8001H188.393V33.8001V30.8001H171.393V33.8001ZM188.393 33.8001H185.393V115.6H188.393H191.393V33.8001H188.393ZM188.393 115.6V112.6H174.193V115.6V118.6H188.393V115.6ZM174.193 115.6L177.139 115.035L174.339 100.435L171.393 101L168.446 101.565L171.246 116.165L174.193 115.6ZM171.393 101V98.0001H170.993V101V104H171.393V101ZM170.993 101L168.173 99.9749C167.765 101.097 166.993 102.518 165.751 104.256L168.193 106L170.634 107.744C172.058 105.749 173.153 103.837 173.812 102.025L170.993 101ZM168.193 106L165.751 104.256C164.628 105.83 163.055 107.423 160.97 109.017L162.793 111.4L164.615 113.783C167.063 111.911 169.091 109.904 170.634 107.744L168.193 106ZM162.793 111.4L160.901 109.072C159.104 110.532 156.776 111.777 153.844 112.754L154.793 115.6L155.741 118.446C159.209 117.29 162.215 115.735 164.684 113.728L162.793 111.4ZM154.793 115.6L153.739 112.791C150.957 113.834 147.531 114.4 143.393 114.4V117.4V120.4C148.054 120.4 152.228 119.766 155.846 118.409L154.793 115.6ZM149.993 103.2V106.2C155.719 106.2 160.623 104.986 164.376 102.213L162.593 99.8001L160.809 97.3876C158.429 99.1472 154.933 100.2 149.993 100.2V103.2ZM162.593 99.8001L164.442 102.163C168.034 99.3515 170.552 95.5563 172.048 90.9211L169.193 90.0001L166.337 89.0791C165.166 92.7105 163.285 95.4487 160.744 97.4376L162.593 99.8001ZM169.193 90.0001L172.048 90.9211C173.496 86.4313 174.193 81.3776 174.193 75.8001H171.193H168.193C168.193 80.8893 167.556 85.3022 166.337 89.0791L169.193 90.0001ZM171.193 75.8001H174.193C174.193 69.8242 173.43 64.5342 171.82 59.9969L168.993 61.0001L166.165 62.0033C167.489 65.7327 168.193 70.3093 168.193 75.8001H171.193ZM168.993 61.0001L171.848 60.0791C170.347 55.4264 167.796 51.7046 164.106 49.1374L162.393 51.6001L160.679 54.0628C163.122 55.7622 164.972 58.3071 166.137 61.9211L168.993 61.0001ZM162.393 51.6001L164.176 49.1876C160.435 46.4224 155.605 45.2001 149.993 45.2001V48.2001V51.2001C154.78 51.2001 158.217 52.2445 160.609 54.0126L162.393 51.6001ZM149.993 48.2001V45.2001C144.071 45.2001 138.973 46.5751 134.977 49.6116L136.793 52.0001L138.608 54.3886C141.279 52.3584 144.981 51.2001 149.993 51.2001V48.2001ZM136.793 52.0001L134.993 49.6001C131.275 52.3884 128.61 56.1629 126.965 60.7969L129.793 61.8001L132.62 62.8033C133.909 59.1706 135.91 56.4117 138.593 54.4001L136.793 52.0001ZM129.793 61.8001L126.937 60.8791C125.494 65.3548 124.793 70.2716 124.793 75.6001H127.793H130.793C130.793 70.7952 131.425 66.512 132.648 62.7211L129.793 61.8001ZM127.793 75.6001H124.793C124.793 81.0552 125.492 86.0958 126.929 90.6949L129.793 89.8001L132.656 88.9053C131.427 84.9711 130.793 80.545 130.793 75.6001H127.793ZM129.793 89.8001L126.965 90.8033C128.61 95.4373 131.275 99.2117 134.993 102L136.793 99.6001L138.593 97.2001C135.91 95.1884 133.909 92.4296 132.62 88.7969L129.793 89.8001ZM136.793 99.6001L135.04 102.035C139.029 104.907 144.103 106.2 149.993 106.2V103.2V100.2C144.949 100.2 141.223 99.0935 138.545 97.1655L136.793 99.6001ZM226.279 116L227.131 113.124C227.107 113.117 227.083 113.11 227.058 113.103L226.279 116ZM216.479 111.8L214.868 114.331C214.885 114.342 214.902 114.352 214.919 114.363L216.479 111.8ZM208.479 105.4L206.297 107.46C206.317 107.481 206.337 107.501 206.357 107.521L208.479 105.4ZM203.079 97.6001L200.302 98.736C200.323 98.7879 200.346 98.8392 200.37 98.8899L203.079 97.6001ZM201.279 88.4001V85.4001C199.622 85.4001 198.279 86.7432 198.279 88.4001H201.279ZM216.879 88.4001H219.879C219.879 86.7432 218.535 85.4001 216.879 85.4001V88.4001ZM217.079 91.2001L214.087 91.4302C214.093 91.5058 214.102 91.5813 214.113 91.6563L217.079 91.2001ZM219.279 97.2001L216.627 98.6038C216.639 98.6263 216.651 98.6487 216.664 98.6709L219.279 97.2001ZM225.079 102.8L223.535 105.373C223.553 105.384 223.572 105.394 223.59 105.405L225.079 102.8ZM246.679 103.8L245.73 100.954C245.716 100.959 245.702 100.964 245.687 100.969L246.679 103.8ZM253.079 100L255.29 102.027C255.317 101.998 255.343 101.968 255.369 101.938L253.079 100ZM255.079 93.8001H252.079C252.079 93.8556 252.08 93.9111 252.083 93.9665L255.079 93.8001ZM241.479 81.6001L240.616 84.4736C240.646 84.4824 240.676 84.4908 240.706 84.4988L241.479 81.6001ZM228.879 78.2001L229.585 75.2845V75.2845L228.879 78.2001ZM216.279 74.0001L215.01 76.7186C215.035 76.7304 215.06 76.7417 215.086 76.7528L216.279 74.0001ZM206.479 66.6001L204.079 68.4001C204.107 68.4377 204.136 68.4745 204.166 68.5107L206.479 66.6001ZM203.079 53.8001L206.078 53.8751C206.078 53.8501 206.079 53.8251 206.079 53.8001H203.079ZM212.079 37.2001L213.704 39.7218C213.708 39.7189 213.713 39.7159 213.717 39.7129L212.079 37.2001ZM248.479 32.8001L249.206 29.8897V29.8897L248.479 32.8001ZM259.879 37.8001L258.192 40.2809C258.207 40.291 258.222 40.3011 258.237 40.311L259.879 37.8001ZM268.079 46.8001L265.434 48.2168C265.447 48.2409 265.46 48.2648 265.474 48.2885L268.079 46.8001ZM271.079 60.6001V63.6001C272.707 63.6001 274.038 62.3011 274.078 60.6732L271.079 60.6001ZM255.679 60.6001L252.681 60.4848C252.649 61.2999 252.951 62.0925 253.517 62.6803C254.082 63.268 254.863 63.6001 255.679 63.6001V60.6001ZM253.879 52.2001L251.264 53.6709C251.286 53.7112 251.31 53.7509 251.335 53.7901L253.879 52.2001ZM248.879 47.4001L247.408 50.0148C247.45 50.0387 247.493 50.0616 247.537 50.0834L248.879 47.4001ZM242.079 45.0001L241.391 47.9203C241.456 47.9355 241.52 47.9484 241.585 47.9593L242.079 45.0001ZM222.879 47.2001L224.438 49.7627C224.465 49.7465 224.491 49.7299 224.517 49.7129L222.879 47.2001ZM222.079 62.6001L220.299 65.0153V65.0153L222.079 62.6001ZM257.479 74.6001L256.21 77.3186C256.235 77.3304 256.26 77.3417 256.286 77.3528L257.479 74.6001ZM267.279 82.0001L269.631 80.138V80.138L267.279 82.0001ZM266.679 107.6L264.426 105.618C264.411 105.635 264.396 105.653 264.381 105.671L266.679 107.6ZM254.879 115.2L255.782 118.061C255.805 118.054 255.827 118.046 255.85 118.039L254.879 115.2ZM237.279 117.6V114.6C233.835 114.6 230.456 114.109 227.131 113.124L226.279 116L225.426 118.876C229.301 120.025 233.255 120.6 237.279 120.6V117.6ZM226.279 116L227.058 113.103C223.866 112.244 220.862 110.956 218.038 109.238L216.479 111.8L214.919 114.363C218.228 116.377 221.757 117.89 225.499 118.897L226.279 116ZM216.479 111.8L218.089 109.269C215.336 107.517 212.841 105.52 210.6 103.279L208.479 105.4L206.357 107.521C208.916 110.08 211.754 112.35 214.868 114.331L216.479 111.8ZM208.479 105.4L210.66 103.34C208.594 101.153 206.977 98.81 205.787 96.3103L203.079 97.6001L200.37 98.8899C201.846 101.99 203.83 104.847 206.297 107.46L208.479 105.4ZM203.079 97.6001L205.855 96.4642C204.804 93.895 204.279 91.2144 204.279 88.4001H201.279H198.279C198.279 91.9858 198.953 95.4386 200.302 98.736L203.079 97.6001ZM201.279 88.4001V91.4001H216.879V88.4001V85.4001H201.279V88.4001ZM216.879 88.4001H213.879C213.879 88.6855 213.963 89.808 214.087 91.4302L217.079 91.2001L220.07 90.97C220.003 90.105 219.954 89.4448 219.921 88.9864C219.904 88.7564 219.893 88.5832 219.885 88.463C219.875 88.2946 219.879 88.3185 219.879 88.4001H216.879ZM217.079 91.2001L214.113 91.6563C214.449 93.8358 215.336 96.1652 216.627 98.6038L219.279 97.2001L221.93 95.7964C220.821 93.7017 220.242 92.0311 220.044 90.7439L217.079 91.2001ZM219.279 97.2001L216.664 98.6709C218.179 101.365 220.54 103.576 223.535 105.373L225.079 102.8L226.622 100.228C224.283 98.8244 222.778 97.3016 221.893 95.7293L219.279 97.2001ZM225.079 102.8L223.59 105.405C227.032 107.371 231.561 108.2 236.879 108.2V105.2V102.2C232.063 102.2 228.726 101.429 226.567 100.195L225.079 102.8ZM236.879 105.2V108.2C240.967 108.2 244.591 107.709 247.67 106.632L246.679 103.8L245.687 100.969C243.433 101.758 240.523 102.2 236.879 102.2V105.2ZM246.679 103.8L247.627 106.646C250.744 105.607 253.377 104.114 255.29 102.027L253.079 100L250.867 97.9729C249.847 99.086 248.213 100.126 245.73 100.954L246.679 103.8ZM253.079 100L255.369 101.938C257.362 99.5824 258.247 96.75 258.074 93.6337L255.079 93.8001L252.083 93.9665C252.177 95.6502 251.729 96.9511 250.788 98.0623L253.079 100ZM255.079 93.8001H258.079C258.079 89.5797 256.411 86.0552 253.058 83.5849L251.279 86.0001L249.499 88.4153C251.213 89.6784 252.079 91.3539 252.079 93.8001H255.079ZM251.279 86.0001L253.058 83.5849C250.144 81.4374 246.506 79.8359 242.252 78.7014L241.479 81.6001L240.706 84.4988C244.451 85.4976 247.347 86.8294 249.499 88.4153L251.279 86.0001ZM241.479 81.6001L242.341 78.7266C238.285 77.51 234.033 76.3628 229.585 75.2845L228.879 78.2001L228.172 81.1156C232.524 82.1707 236.672 83.2902 240.616 84.4736L241.479 81.6001ZM228.879 78.2001L229.585 75.2845C225.345 74.2567 221.308 72.9101 217.471 71.2474L216.279 74.0001L215.086 76.7528C219.249 78.5567 223.612 80.0102 228.172 81.1156L228.879 78.2001ZM216.279 74.0001L217.547 71.2816C213.906 69.5824 211.011 67.3765 208.791 64.6895L206.479 66.6001L204.166 68.5107C207.013 71.957 210.651 74.6844 215.01 76.7186L216.279 74.0001ZM206.479 66.6001L208.879 64.8001C207 62.2959 205.955 58.7588 206.078 53.8751L203.079 53.8001L200.079 53.7251C199.935 59.5081 201.157 64.5042 204.079 68.4001L206.479 66.6001ZM203.079 53.8001H206.079C206.079 47.6089 208.57 43.0303 213.704 39.7218L212.079 37.2001L210.453 34.6784C203.587 39.1032 200.079 45.5913 200.079 53.8001H203.079ZM212.079 37.2001L213.717 39.7129C219.245 36.1077 226.368 34.2001 235.279 34.2001V31.2001V28.2001C225.522 28.2001 217.178 30.2925 210.44 34.6873L212.079 37.2001ZM235.279 31.2001V34.2001C239.574 34.2001 243.729 34.7052 247.751 35.7105L248.479 32.8001L249.206 29.8897C244.694 28.7617 240.05 28.2001 235.279 28.2001V31.2001ZM248.479 32.8001L247.751 35.7105C251.706 36.6993 255.176 38.2301 258.192 40.2809L259.879 37.8001L261.565 35.3193C257.915 32.8368 253.784 31.0342 249.206 29.8897L248.479 32.8001ZM259.879 37.8001L258.237 40.311C261.273 42.2963 263.666 44.916 265.434 48.2168L268.079 46.8001L270.723 45.3834C268.491 41.2175 265.417 37.8372 261.52 35.2892L259.879 37.8001ZM268.079 46.8001L265.474 48.2885C267.271 51.4341 268.203 55.4605 268.079 60.5269L271.079 60.6001L274.078 60.6732C274.221 54.8064 273.152 49.6328 270.683 45.3117L268.079 46.8001ZM271.079 60.6001V57.6001H255.679V60.6001V63.6001H271.079V60.6001ZM255.679 60.6001L258.676 60.7154C258.824 56.8687 258.175 53.4135 256.423 50.6101L253.879 52.2001L251.335 53.7901C252.249 55.2534 252.799 57.3981 252.681 60.4848L255.679 60.6001ZM253.879 52.2001L256.493 50.7293C255.008 48.0883 252.904 46.0588 250.22 44.7168L248.879 47.4001L247.537 50.0834C249.12 50.8747 250.349 52.0452 251.264 53.6709L253.879 52.2001ZM248.879 47.4001L250.349 44.7854C247.914 43.4157 245.317 42.4985 242.572 42.0409L242.079 45.0001L241.585 47.9593C243.64 48.3017 245.576 48.9844 247.408 50.0148L248.879 47.4001ZM242.079 45.0001L242.766 42.0798C240.294 41.4983 237.863 41.2001 235.479 41.2001V44.2001V47.2001C237.361 47.2001 239.33 47.4352 241.391 47.9203L242.079 45.0001ZM235.479 44.2001V41.2001C229.815 41.2001 224.969 42.2552 221.24 44.6873L222.879 47.2001L224.517 49.7129C226.922 48.1449 230.475 47.2001 235.479 47.2001V44.2001ZM222.879 47.2001L221.319 44.6375C217.488 46.9693 215.279 50.4093 215.279 54.8001H218.279H221.279C221.279 52.7909 222.136 51.1642 224.438 49.7627L222.879 47.2001ZM218.279 54.8001H215.279C215.279 59.0205 216.946 62.545 220.299 65.0153L222.079 62.6001L223.858 60.1849C222.144 58.9218 221.279 57.2463 221.279 54.8001H218.279ZM222.079 62.6001L220.299 65.0153C223.213 67.1628 226.851 68.7643 231.106 69.8988L231.879 67.0001L232.652 64.1014C228.906 63.1026 226.01 61.7708 223.858 60.1849L222.079 62.6001ZM231.879 67.0001L231.106 69.8988C235.137 70.9739 239.433 72.0477 243.991 73.1203L244.679 70.2001L245.366 67.2798C240.858 66.2191 236.62 65.1596 232.652 64.1014L231.879 67.0001ZM244.679 70.2001L243.991 73.1203C248.335 74.1425 252.406 75.5436 256.21 77.3186L257.479 74.6001L258.747 71.8815C254.551 69.9232 250.088 68.3911 245.366 67.2798L244.679 70.2001ZM257.479 74.6001L256.286 77.3528C259.864 78.9032 262.721 81.0764 264.926 83.8622L267.279 82.0001L269.631 80.138C266.769 76.5238 263.093 73.7637 258.671 71.8474L257.479 74.6001ZM267.279 82.0001L264.926 83.8622C266.927 86.3889 268.079 89.934 268.079 94.8001H271.079H274.079C274.079 88.9995 272.697 84.0112 269.631 80.138L267.279 82.0001ZM271.079 94.8001H268.079C268.079 99.4026 266.797 102.924 264.426 105.618L266.679 107.6L268.931 109.582C272.427 105.609 274.079 100.598 274.079 94.8001H271.079ZM266.679 107.6L264.381 105.671C262.005 108.499 258.576 110.764 253.907 112.362L254.879 115.2L255.85 118.039C261.314 116.169 265.752 113.367 268.976 109.53L266.679 107.6ZM254.879 115.2L253.975 112.339C249.264 113.827 243.713 114.6 237.279 114.6V117.6V120.6C244.177 120.6 250.36 119.773 255.782 118.061L254.879 115.2ZM285.914 115.6H282.914C282.914 117.257 284.258 118.6 285.914 118.6V115.6ZM285.914 3.00009V9.15527e-05C284.258 9.15527e-05 282.914 1.34324 282.914 3.00009H285.914ZM302.914 3.00009H305.914C305.914 1.34324 304.571 9.15527e-05 302.914 9.15527e-05V3.00009ZM302.914 52.8001H299.914C299.914 54.457 301.258 55.8001 302.914 55.8001V52.8001ZM303.314 52.8001V55.8001C304.691 55.8001 305.891 54.8632 306.225 53.5277L303.314 52.8001ZM304.914 49.0001L307.633 50.2688V50.2688L304.914 49.0001ZM309.314 42.6001L307.072 40.607L307.065 40.6152L309.314 42.6001ZM317.714 36.4001L316.373 33.7168V33.7168L317.714 36.4001ZM345.114 36.6001L343.773 39.2834C343.799 39.2963 343.825 39.3089 343.851 39.3211L345.114 36.6001ZM353.914 43.8001L351.452 45.5133C351.468 45.5368 351.485 45.5602 351.502 45.5833L353.914 43.8001ZM358.914 54.0001L361.799 53.1759V53.1759L358.914 54.0001ZM360.914 65.2001L357.922 65.4138C357.925 65.4492 357.928 65.4845 357.932 65.5197L360.914 65.2001ZM361.514 115.6V118.6C363.171 118.6 364.514 117.257 364.514 115.6H361.514ZM345.314 115.6H342.314C342.314 117.257 343.658 118.6 345.314 118.6V115.6ZM343.714 61.8001L340.81 62.5497C340.812 62.5575 340.814 62.5653 340.816 62.5731L343.714 61.8001ZM337.914 52.2001L335.962 54.4779C335.983 54.4962 336.005 54.5141 336.027 54.5318L337.914 52.2001ZM311.914 52.6001L310.04 50.2575C310.025 50.27 310.009 50.2826 309.994 50.2954L311.914 52.6001ZM304.914 63.0001L302.077 62.0249C302.071 62.0429 302.065 62.061 302.059 62.0791L304.914 63.0001ZM302.914 115.6V118.6C304.571 118.6 305.914 117.257 305.914 115.6H302.914ZM285.914 115.6H288.914V3.00009H285.914H282.914V115.6H285.914ZM285.914 3.00009V6.00009H302.914V3.00009V9.15527e-05H285.914V3.00009ZM302.914 3.00009H299.914V52.8001H302.914H305.914V3.00009H302.914ZM302.914 52.8001V55.8001H303.314V52.8001V49.8001H302.914V52.8001ZM303.314 52.8001L306.225 53.5277C306.219 53.5509 306.234 53.4902 306.303 53.3045C306.366 53.1339 306.456 52.9062 306.579 52.6143C306.825 52.0305 307.174 51.2522 307.633 50.2688L304.914 49.0001L302.196 47.7314C301.309 49.6321 300.623 51.1957 300.404 52.0725L303.314 52.8001ZM304.914 49.0001L307.633 50.2688C308.41 48.6046 309.689 46.71 311.564 44.585L309.314 42.6001L307.065 40.6152C304.94 43.0235 303.286 45.3956 302.196 47.7314L304.914 49.0001ZM309.314 42.6001L311.557 44.5932C313.39 42.5309 315.862 40.6805 319.056 39.0834L317.714 36.4001L316.373 33.7168C312.634 35.5864 309.506 37.8693 307.072 40.607L309.314 42.6001ZM317.714 36.4001L319.056 39.0834C321.98 37.6215 325.881 36.8001 330.914 36.8001V33.8001V30.8001C325.281 30.8001 320.382 31.712 316.373 33.7168L317.714 36.4001ZM330.914 33.8001V36.8001C336.347 36.8001 340.582 37.6879 343.773 39.2834L345.114 36.6001L346.456 33.9168C342.18 31.779 336.949 30.8001 330.914 30.8001V33.8001ZM345.114 36.6001L343.851 39.3211C347.153 40.8541 349.652 42.9263 351.452 45.5133L353.914 43.8001L356.377 42.0869C353.91 38.5405 350.543 35.8128 346.378 33.8791L345.114 36.6001ZM353.914 43.8001L351.502 45.5833C353.551 48.3558 355.06 51.4299 356.03 54.8243L358.914 54.0001L361.799 53.1759C360.636 49.1037 358.811 45.3777 356.327 42.0169L353.914 43.8001ZM358.914 54.0001L356.03 54.8242C357.042 58.3658 357.671 61.8947 357.922 65.4138L360.914 65.2001L363.907 64.9864C363.625 61.0388 362.92 57.101 361.799 53.1759L358.914 54.0001ZM360.914 65.2001L357.932 65.5197C358.322 69.1645 358.514 72.5232 358.514 75.6001H361.514H364.514C364.514 72.2769 364.307 68.7023 363.897 64.8805L360.914 65.2001ZM361.514 75.6001H358.514V115.6H361.514H364.514V75.6001H361.514ZM361.514 115.6V112.6H345.314V115.6V118.6H361.514V115.6ZM345.314 115.6H348.314V75.4001H345.314H342.314V115.6H345.314ZM345.314 75.4001H348.314C348.314 70.1284 347.76 65.3281 346.613 61.0271L343.714 61.8001L340.816 62.5731C341.802 66.2721 342.314 70.5385 342.314 75.4001H345.314ZM343.714 61.8001L346.619 61.0505C345.423 56.4131 343.19 52.6106 339.802 49.8684L337.914 52.2001L336.027 54.5318C338.239 56.3229 339.873 58.9204 340.81 62.5497L343.714 61.8001ZM337.914 52.2001L339.867 49.9223C336.302 46.8672 331.273 45.6001 325.314 45.6001V48.6001V51.6001C330.555 51.6001 333.926 52.733 335.962 54.4779L337.914 52.2001ZM325.314 48.6001V45.6001C319.247 45.6001 314.052 47.0485 310.04 50.2575L311.914 52.6001L313.789 54.9427C316.444 52.8183 320.182 51.6001 325.314 51.6001V48.6001ZM311.914 52.6001L309.994 50.2954C306.338 53.3422 303.707 57.2843 302.077 62.0249L304.914 63.0001L307.752 63.9753C309.055 60.1826 311.091 57.1913 313.835 54.9048L311.914 52.6001ZM304.914 63.0001L302.059 62.0791C300.618 66.5473 299.914 71.3959 299.914 76.6001H302.914H305.914C305.914 71.9376 306.544 67.7195 307.77 63.9211L304.914 63.0001ZM302.914 76.6001H299.914V115.6H302.914H305.914V76.6001H302.914ZM302.914 115.6V112.6H285.914V115.6V118.6H302.914V115.6ZM385.279 43.8001V40.8001C383.622 40.8001 382.279 42.1432 382.279 43.8001H385.279ZM401.079 43.8001H404.079C404.079 42.1432 402.735 40.8001 401.079 40.8001V43.8001ZM401.079 102.4H398.079C398.079 104.057 399.422 105.4 401.079 105.4V102.4ZM420.079 102.4H423.079C423.079 100.743 421.735 99.4001 420.079 99.4001V102.4ZM420.079 115.6V118.6C421.735 118.6 423.079 117.257 423.079 115.6H420.079ZM372.679 45.8001H369.679C369.679 47.457 371.022 48.8001 372.679 48.8001V45.8001ZM372.679 33.8001V30.8001C371.022 30.8001 369.679 32.1432 369.679 33.8001H372.679ZM380.079 33.2001L379.49 30.2583C379.477 30.261 379.463 30.2638 379.45 30.2667L380.079 33.2001ZM384.479 30.8001L382.136 28.926C382.127 28.9367 382.119 28.9475 382.11 28.9583L384.479 30.8001ZM386.679 24.6001L389.648 25.0244C389.649 25.0181 389.65 25.0117 389.651 25.0054L386.679 24.6001ZM387.279 12.8001V9.80009C385.622 9.80009 384.279 11.1432 384.279 12.8001H387.279ZM401.079 12.8001H404.079C404.079 11.1432 402.735 9.80009 401.079 9.80009V12.8001ZM401.079 33.8001H398.079C398.079 35.457 399.422 36.8001 401.079 36.8001V33.8001ZM419.879 33.8001H422.879C422.879 32.1432 421.535 30.8001 419.879 30.8001V33.8001ZM419.879 45.8001V48.8001C421.535 48.8001 422.879 47.457 422.879 45.8001H419.879ZM401.679 115.6V112.6C396.566 112.6 393.393 111.267 391.498 109.182L389.279 111.2L387.059 113.218C390.497 117 395.591 118.6 401.679 118.6V115.6ZM389.279 111.2L391.498 109.182C389.538 107.025 388.279 103.426 388.279 97.8001H385.279H382.279C382.279 104.174 383.686 109.508 387.059 113.218L389.279 111.2ZM385.279 97.8001H388.279V43.8001H385.279H382.279V97.8001H385.279ZM385.279 43.8001V46.8001H401.079V43.8001V40.8001H385.279V43.8001ZM401.079 43.8001H398.079V102.4H401.079H404.079V43.8001H401.079ZM401.079 102.4V105.4H420.079V102.4V99.4001H401.079V102.4ZM420.079 102.4H417.079V115.6H420.079H423.079V102.4H420.079ZM420.079 115.6V112.6H401.679V115.6V118.6H420.079V115.6ZM372.679 45.8001H375.679V33.8001H372.679H369.679V45.8001H372.679ZM372.679 33.8001V36.8001C375.846 36.8001 378.548 36.5961 380.707 36.1335L380.079 33.2001L379.45 30.2667C377.875 30.6041 375.645 30.8001 372.679 30.8001V33.8001ZM380.079 33.2001L380.667 36.1418C383.129 35.6493 385.34 34.5795 386.847 32.6419L384.479 30.8001L382.11 28.9583C381.751 29.4207 381.028 29.9509 379.49 30.2583L380.079 33.2001ZM384.479 30.8001L386.821 32.6742C388.375 30.7313 389.217 28.0447 389.648 25.0244L386.679 24.6001L383.709 24.1758C383.34 26.7555 382.715 28.2022 382.136 28.926L384.479 30.8001ZM386.679 24.6001L389.651 25.0054C390.077 21.8788 390.279 17.7925 390.279 12.8001H387.279H384.279C384.279 17.6743 384.08 21.4547 383.706 24.1948L386.679 24.6001ZM387.279 12.8001V15.8001H401.079V12.8001V9.80009H387.279V12.8001ZM401.079 12.8001H398.079V33.8001H401.079H404.079V12.8001H401.079ZM401.079 33.8001V36.8001H419.879V33.8001V30.8001H401.079V33.8001ZM419.879 33.8001H416.879V45.8001H419.879H422.879V33.8001H419.879ZM419.879 45.8001V42.8001H372.679V45.8001V48.8001H419.879V45.8001ZM437.682 115.6H434.682C434.682 117.257 436.025 118.6 437.682 118.6V115.6ZM437.682 33.8001V30.8001C436.025 30.8001 434.682 32.1432 434.682 33.8001H437.682ZM453.082 33.8001L456.076 33.6224C455.982 32.0374 454.669 30.8001 453.082 30.8001V33.8001ZM454.482 57.4001L457.481 57.4342C457.482 57.3636 457.481 57.2929 457.476 57.2224L454.482 57.4001ZM454.282 75.0001L451.282 74.966C451.282 74.9774 451.282 74.9887 451.282 75.0001H454.282ZM454.282 115.6V118.6C455.939 118.6 457.282 117.257 457.282 115.6H454.282ZM454.282 78.8001L451.283 78.9C451.338 80.5365 452.694 81.827 454.332 81.7997C455.969 81.7724 457.282 80.4375 457.282 78.8001H454.282ZM453.682 60.8001L450.685 60.6639C450.681 60.7425 450.681 60.8213 450.683 60.9L453.682 60.8001ZM455.682 51.8001L458.475 52.8933C458.481 52.8801 458.486 52.8668 458.491 52.8535L455.682 51.8001ZM461.082 43.0001L458.857 40.9874L458.852 40.9932L461.082 43.0001ZM470.682 36.4001L471.829 39.1721C471.844 39.1658 471.859 39.1593 471.874 39.1528L470.682 36.4001ZM488.482 33.8001H491.482C491.482 32.1432 490.138 30.8001 488.482 30.8001V33.8001ZM488.482 52.2001V55.2001C490.138 55.2001 491.482 53.8569 491.482 52.2001H488.482ZM469.882 54.0001L470.655 56.8988C470.684 56.8909 470.714 56.8824 470.744 56.8736L469.882 54.0001ZM460.482 59.0001L458.36 56.8788V56.8788L460.482 59.0001ZM455.682 67.4001L452.793 66.5912V66.5912L455.682 67.4001ZM437.682 115.6H440.682V33.8001H437.682H434.682V115.6H437.682ZM437.682 33.8001V36.8001H453.082V33.8001V30.8001H437.682V33.8001ZM453.082 33.8001L450.087 33.9778L451.487 57.5777L454.482 57.4001L457.476 57.2224L456.076 33.6224L453.082 33.8001ZM454.482 57.4001L451.482 57.366L451.282 74.966L454.282 75.0001L457.281 75.0342L457.481 57.4342L454.482 57.4001ZM454.282 75.0001H451.282V115.6H454.282H457.282V75.0001H454.282ZM454.282 115.6V112.6H437.682V115.6V118.6H454.282V115.6ZM454.282 78.8001L457.28 78.7001L456.68 60.7001L453.682 60.8001L450.683 60.9L451.283 78.9L454.282 78.8001ZM453.682 60.8001L456.679 60.9363C456.795 58.3682 457.381 55.691 458.475 52.8933L455.682 51.8001L452.888 50.7069C451.583 54.0425 450.835 57.3654 450.685 60.6639L453.682 60.8001ZM455.682 51.8001L458.491 52.8535C459.552 50.022 461.15 47.4089 463.312 45.007L461.082 43.0001L458.852 40.9932C456.213 43.9246 454.211 47.1782 452.873 50.7467L455.682 51.8001ZM461.082 43.0001L463.306 45.0128C465.51 42.577 468.328 40.6207 471.829 39.1721L470.682 36.4001L469.535 33.628C465.302 35.3795 461.72 37.8232 458.857 40.9874L461.082 43.0001ZM470.682 36.4001L471.874 39.1528C475.407 37.6219 479.78 36.8001 485.082 36.8001V33.8001V30.8001C479.183 30.8001 473.956 31.7116 469.489 33.6474L470.682 36.4001ZM485.082 33.8001V36.8001H488.482V33.8001V30.8001H485.082V33.8001ZM488.482 33.8001H485.482V52.2001H488.482H491.482V33.8001H488.482ZM488.482 52.2001V49.2001H484.882V52.2001V55.2001H488.482V52.2001ZM484.882 52.2001V49.2001C478.706 49.2001 473.392 49.8149 469.02 51.1266L469.882 54.0001L470.744 56.8736C474.371 55.7853 479.058 55.2001 484.882 55.2001V52.2001ZM469.882 54.0001L469.109 51.1014C464.744 52.2653 461.094 54.1452 458.36 56.8788L460.482 59.0001L462.603 61.1214C464.403 59.3216 467.019 57.8682 470.655 56.8988L469.882 54.0001ZM460.482 59.0001L458.36 56.8788C455.701 59.5386 453.854 62.8026 452.793 66.5912L455.682 67.4001L458.571 68.209C459.376 65.331 460.729 62.9949 462.603 61.1214L460.482 59.0001ZM455.682 67.4001L452.793 66.5912C451.771 70.2406 451.282 74.3208 451.282 78.8001H454.282H457.282C457.282 74.7461 457.726 71.2263 458.571 68.209L455.682 67.4001ZM514.768 112.2L513.224 114.773V114.773L514.768 112.2ZM501.168 97.4001L498.44 98.6501C498.451 98.6731 498.462 98.696 498.473 98.7188L501.168 97.4001ZM501.168 54.0001L498.462 52.7037C498.458 52.7119 498.454 52.7201 498.451 52.7283L501.168 54.0001ZM514.768 39.0001L513.224 36.4276V36.4276L514.768 39.0001ZM566.968 45.2001L569.221 43.2191V43.2191L566.968 45.2001ZM572.768 97.2001L570.04 95.9501C570.036 95.9588 570.032 95.9675 570.029 95.9763L572.768 97.2001ZM559.568 112.2L561.137 114.757C561.142 114.754 561.147 114.751 561.152 114.747L559.568 112.2ZM551.968 99.2001L553.853 101.534V101.534L551.968 99.2001ZM558.968 88.6001L556.096 87.7301C556.091 87.7493 556.085 87.7685 556.08 87.7879L558.968 88.6001ZM558.968 62.0001L556.073 62.7894C556.083 62.8248 556.093 62.86 556.104 62.8949L558.968 62.0001ZM551.968 51.2001L550.03 53.4902C550.047 53.505 550.065 53.5196 550.083 53.5339L551.968 51.2001ZM522.168 51.2001L524.053 53.5339L524.063 53.5258L522.168 51.2001ZM514.968 62.0001L517.831 62.8949C517.834 62.8867 517.836 62.8784 517.839 62.8701L514.968 62.0001ZM514.968 88.6001L512.096 89.4701C512.099 89.4784 512.102 89.4867 512.104 89.4949L514.968 88.6001ZM522.168 99.2001L520.283 101.534C520.297 101.545 520.311 101.557 520.326 101.568L522.168 99.2001ZM536.968 117.6V114.6C528.573 114.6 521.739 112.884 516.311 109.628L514.768 112.2L513.224 114.773C519.796 118.716 527.762 120.6 536.968 120.6V117.6ZM514.768 112.2L516.311 109.628C510.806 106.325 506.673 101.826 503.862 96.0814L501.168 97.4001L498.473 98.7188C501.795 105.507 506.729 110.875 513.224 114.773L514.768 112.2ZM501.168 97.4001L503.895 96.1501C501.164 90.1925 499.768 83.4275 499.768 75.8001H496.768H493.768C493.768 84.1727 495.304 91.8077 498.44 98.6501L501.168 97.4001ZM496.768 75.8001H499.768C499.768 67.8885 501.17 61.0705 503.885 55.2719L501.168 54.0001L498.451 52.7283C495.298 59.463 493.768 67.1783 493.768 75.8001H496.768ZM501.168 54.0001L503.873 55.2964C506.69 49.4184 510.823 44.8656 516.311 41.5726L514.768 39.0001L513.224 36.4276C506.713 40.3345 501.779 45.7818 498.462 52.7037L501.168 54.0001ZM514.768 39.0001L516.311 41.5726C521.732 38.3198 528.63 36.6001 537.168 36.6001V33.6001V30.6001C527.839 30.6001 519.803 32.4804 513.224 36.4276L514.768 39.0001ZM537.168 33.6001V36.6001C549.621 36.6001 558.63 40.2615 564.715 47.1811L566.968 45.2001L569.221 43.2191C561.705 34.672 550.848 30.6001 537.168 30.6001V33.6001ZM566.968 45.2001L564.715 47.1811C570.929 54.2485 574.168 63.6879 574.168 75.8001H577.168H580.168C580.168 62.579 576.606 51.6184 569.221 43.2191L566.968 45.2001ZM577.168 75.8001H574.168C574.168 83.2863 572.774 89.9861 570.04 95.9501L572.768 97.2001L575.495 98.4501C578.628 91.6141 580.168 84.0473 580.168 75.8001H577.168ZM572.768 97.2001L570.029 95.9763C567.48 101.68 563.491 106.226 557.983 109.653L559.568 112.2L561.152 114.747C567.645 110.708 572.455 105.254 575.507 98.4239L572.768 97.2001ZM559.568 112.2L557.999 109.643C552.738 112.871 545.795 114.6 536.968 114.6V117.6V120.6C546.54 120.6 554.664 118.729 561.137 114.757L559.568 112.2ZM536.968 103.4V106.4C543.878 106.4 549.653 104.926 553.853 101.534L551.968 99.2001L550.083 96.8663C547.349 99.0743 543.124 100.4 536.968 100.4V103.4ZM551.968 99.2001L553.853 101.534C557.8 98.3453 560.486 94.2814 561.856 89.4123L558.968 88.6001L556.08 87.7879C555.049 91.4521 553.068 94.4549 550.083 96.8663L551.968 99.2001ZM558.968 88.6001L561.839 89.4701C563.256 84.7921 563.968 80.0324 563.968 75.2001H560.968H557.968C557.968 79.4345 557.346 83.6081 556.096 87.7301L558.968 88.6001ZM560.968 75.2001H563.968C563.968 70.3676 563.256 65.6657 561.831 61.1053L558.968 62.0001L556.104 62.8949C557.346 66.8678 557.968 70.9659 557.968 75.2001H560.968ZM558.968 62.0001L561.862 61.2107C560.5 56.218 557.822 52.0721 553.853 48.8663L551.968 51.2001L550.083 53.5339C553.047 55.9281 555.035 58.9822 556.073 62.7894L558.968 62.0001ZM551.968 51.2001L553.905 48.9099C549.702 45.3536 543.905 43.8001 536.968 43.8001V46.8001V49.8001C543.097 49.8001 547.299 51.1799 550.03 53.4902L551.968 51.2001ZM536.968 46.8001V43.8001C530.252 43.8001 524.569 45.3737 520.273 48.8744L522.168 51.2001L524.063 53.5258C526.966 51.1598 531.15 49.8001 536.968 49.8001V46.8001ZM522.168 51.2001L520.283 48.8663C516.332 52.0568 513.598 56.1737 512.096 61.1301L514.968 62.0001L517.839 62.8701C519.003 59.0265 521.069 55.9434 524.053 53.5339L522.168 51.2001ZM514.968 62.0001L512.104 61.1053C510.679 65.6657 509.968 70.3676 509.968 75.2001H512.968H515.968C515.968 70.9659 516.589 66.8678 517.831 62.8949L514.968 62.0001ZM512.968 75.2001H509.968C509.968 80.0324 510.679 84.7921 512.096 89.4701L514.968 88.6001L517.839 87.7301C516.59 83.6081 515.968 79.4345 515.968 75.2001H512.968ZM514.968 88.6001L512.104 89.4949C513.614 94.3255 516.353 98.3602 520.283 101.534L522.168 99.2001L524.053 96.8663C521.049 94.44 518.988 91.408 517.831 87.7053L514.968 88.6001ZM522.168 99.2001L520.326 101.568C524.618 104.907 530.28 106.4 536.968 106.4V103.4V100.4C531.122 100.4 526.917 99.0933 524.009 96.832L522.168 99.2001Z" fill="url(#paint0_radial_132_695)" mask="url(#path-1-outside-1_132_695)"/>
<defs>
<radialGradient id="paint0_radial_132_695" cx="0" cy="0" r="1" gradientTransform="matrix(-247.35 -69.266 200.671 -148.655 257.241 61.807)" gradientUnits="userSpaceOnUse">
<stop stop-color="#E5320F"/>
<stop offset="0.823364" stop-color="#C82D0B"/>
<stop offset="0.880718" stop-color="#E5320F"/>
<stop offset="0.903941" stop-color="#E74F13"/>
<stop offset="0.94722" stop-color="#E97318"/>
<stop offset="0.973258" stop-color="#EA9924"/>
<stop offset="1" stop-color="#FFCD84"/>
</radialGradient>
</defs>
</svg>
