<svg width="611" height="392" viewBox="0 0 611 392" fill="none" xmlns="http://www.w3.org/2000/svg">
<path d="M108.663 286.691C107.948 286.162 107.127 285.896 106.306 285.896C105.087 285.896 103.895 286.453 103.101 287.486C101.803 289.26 102.173 291.751 103.922 293.049C104.637 293.579 105.458 293.844 106.306 293.844C107.497 293.844 108.716 293.287 109.485 292.228C110.014 291.513 110.28 290.692 110.28 289.871C110.28 288.65 109.723 287.459 108.663 286.691Z" fill="#E5320F"/>
<path d="M132.505 254.584C131.79 254.054 130.968 253.815 130.147 253.815C128.928 253.815 127.737 254.372 126.943 255.405C125.645 257.179 126.014 259.67 127.763 260.968C128.478 261.498 129.299 261.763 130.147 261.763C131.338 261.763 132.557 261.206 133.326 260.147C133.856 259.432 134.121 258.611 134.121 257.79C134.121 256.57 133.565 255.379 132.505 254.584Z" fill="#E5320F"/>
<path d="M150.677 225.473L150.041 225.419C149.909 226.718 150.465 228.042 151.604 228.89C152.319 229.419 153.14 229.658 153.988 229.658C154.2 229.658 154.438 229.632 154.65 229.579L153.405 227.301C152.876 226.267 151.843 225.578 150.677 225.473Z" fill="#E5320F"/>
<path d="M111.869 282.372C112.585 282.875 113.406 283.14 114.254 283.14C115.445 283.14 116.664 282.584 117.433 281.551C117.962 280.835 118.228 279.988 118.228 279.166C118.228 277.948 117.671 276.756 116.612 275.987C115.896 275.458 115.076 275.193 114.255 275.193C113.036 275.193 111.844 275.749 111.049 276.808C109.749 278.557 110.121 281.047 111.869 282.372Z" fill="#E5320F"/>
<path d="M148.399 233.207C147.684 232.678 146.863 232.413 146.042 232.413C144.824 232.413 143.632 232.969 142.837 234.028C141.539 235.777 141.91 238.266 143.658 239.591C144.374 240.12 145.194 240.359 146.042 240.359C147.234 240.359 148.453 239.803 149.221 238.77C149.751 238.054 150.016 237.207 150.016 236.385C150.015 235.168 149.459 233.976 148.399 233.207Z" fill="#E5320F"/>
<path d="M124.557 265.286C123.842 264.756 123.021 264.491 122.2 264.491C120.982 264.491 119.79 265.047 118.995 266.106C117.697 267.855 118.068 270.345 119.816 271.669C120.531 272.198 121.352 272.438 122.2 272.438C123.392 272.438 124.611 271.881 125.379 270.848C125.909 270.133 126.174 269.285 126.174 268.464C126.173 267.246 125.618 266.054 124.557 265.286Z" fill="#E5320F"/>
<path d="M140.452 243.908C139.737 243.379 138.916 243.113 138.095 243.113C136.876 243.113 135.684 243.67 134.89 244.703C133.591 246.477 133.962 248.968 135.71 250.266C136.426 250.796 137.247 251.061 138.068 251.061C139.286 251.061 140.478 250.504 141.273 249.445C141.802 248.73 142.068 247.909 142.068 247.088C142.068 245.868 141.511 244.677 140.452 243.908Z" fill="#E5320F"/>
<path d="M63.7636 123.776C64.5326 124.545 65.5656 124.942 66.5716 124.942C67.5786 124.942 68.6117 124.545 69.3807 123.75C70.1487 122.982 70.5196 121.949 70.5196 120.942C70.5196 119.935 70.1487 118.902 69.3547 118.133C68.5857 117.365 67.5526 116.994 66.5456 116.994C65.5396 116.994 64.5056 117.365 63.7376 118.16C62.2016 119.724 62.2016 122.24 63.7636 123.776Z" fill="#E5320F"/>
<path d="M57.0354 115.539C58.0424 115.539 59.0754 115.142 59.8434 114.348C60.6124 113.579 61.0094 112.573 61.0094 111.566C61.0094 110.533 60.6124 109.5 59.8174 108.732C59.0494 107.963 58.0164 107.593 57.0094 107.593C56.0024 107.593 54.9693 107.963 54.2013 108.758C52.6643 110.321 52.6643 112.837 54.2273 114.401C54.9953 115.142 56.0284 115.539 57.0354 115.539Z" fill="#E5320F"/>
<path d="M101.909 161.419C102.677 162.16 103.71 162.558 104.717 162.558C105.724 162.558 106.757 162.161 107.526 161.367C108.294 160.598 108.665 159.565 108.665 158.558C108.665 157.551 108.294 156.519 107.499 155.75C106.731 154.981 105.698 154.611 104.691 154.611C103.684 154.611 102.652 154.981 101.883 155.776C100.346 157.339 100.346 159.856 101.909 161.419Z" fill="#E5320F"/>
<path d="M50.2804 99.3265C49.5114 98.5585 48.4793 98.1875 47.4723 98.1875C46.4653 98.1875 45.4323 98.5585 44.6633 99.3525C43.1273 100.916 43.1273 103.433 44.6903 104.969C45.4583 105.738 46.4643 106.134 47.4983 106.134C48.5053 106.134 49.5384 105.738 50.3064 104.943C51.0754 104.174 51.4463 103.141 51.4463 102.135C51.4463 101.129 51.0754 100.096 50.2804 99.3265Z" fill="#E5320F"/>
<path d="M73.2988 133.181C74.0678 133.949 75.1009 134.346 76.1079 134.346C77.1139 134.346 78.1469 133.949 78.9159 133.155C79.6849 132.386 80.0808 131.38 80.0808 130.373C80.0808 129.341 79.6849 128.308 78.8899 127.539C78.1209 126.77 77.0878 126.4 76.0808 126.4C75.0748 126.4 74.0418 126.77 73.2728 127.565C71.7368 129.128 71.7368 131.645 73.2988 133.181Z" fill="#E5320F"/>
<path d="M85.6179 135.804C84.6109 135.804 83.5779 136.175 82.8089 136.97C81.2729 138.533 81.2729 141.049 82.8349 142.585C83.6039 143.354 84.6099 143.751 85.6169 143.751C86.6499 143.751 87.6829 143.354 88.4509 142.559C89.2199 141.791 89.5909 140.758 89.5909 139.751C89.5909 138.744 89.2199 137.711 88.4249 136.943C87.6569 136.175 86.6229 135.804 85.6179 135.804Z" fill="#E5320F"/>
<path d="M95.1798 153.155C96.1868 153.155 97.2198 152.758 97.9878 151.963C98.7568 151.194 99.1538 150.188 99.1538 149.182C99.1538 148.149 98.7569 147.116 97.9619 146.347C97.1939 145.579 96.1608 145.208 95.1538 145.208C94.1468 145.208 93.1138 145.579 92.3458 146.373C90.8088 147.936 90.8088 150.453 92.3718 151.989C93.1658 152.758 94.1728 153.155 95.1798 153.155Z" fill="#E5320F"/>
<path d="M140.054 199.009C140.849 199.778 141.856 200.175 142.862 200.175C143.869 200.175 144.902 199.778 145.671 198.983C146.439 198.214 146.836 197.209 146.836 196.202C146.836 195.169 146.439 194.136 145.644 193.367C144.876 192.599 143.843 192.228 142.836 192.228C141.829 192.228 140.796 192.599 140.028 193.393C138.491 194.956 138.491 197.473 140.054 199.009Z" fill="#E5320F"/>
<path d="M35.6046 93.3666L34.0156 93.0216C34.0686 93.9496 34.4395 94.8756 35.1545 95.5646C35.9235 96.3336 36.9566 96.7306 37.9636 96.7306C38.9696 96.7306 40.0026 96.3336 40.7716 95.5386C41.5406 94.7706 41.9366 93.7646 41.9366 92.7576C41.9366 91.9626 41.6986 91.1685 41.2216 90.4795C40.3466 92.5195 38.1216 93.9236 35.6046 93.3666Z" fill="#E5320F"/>
<path d="M111.418 165.182C109.882 166.745 109.882 169.261 111.444 170.797C112.213 171.566 113.246 171.963 114.253 171.963C115.259 171.963 116.292 171.566 117.061 170.771C117.829 170.003 118.227 168.997 118.227 167.99C118.227 166.957 117.829 165.924 117.035 165.156C116.266 164.387 115.233 164.016 114.227 164.016C113.22 164.016 112.187 164.387 111.418 165.182Z" fill="#E5320F"/>
<path d="M152.371 201.632C152.239 201.632 152.08 201.632 151.947 201.685L155.735 203.486C155.577 203.221 155.418 203.009 155.179 202.771C154.412 202.002 153.378 201.632 152.371 201.632Z" fill="#E5320F"/>
<path d="M123.789 181.366C124.796 181.366 125.829 180.969 126.597 180.175C127.366 179.406 127.736 178.373 127.736 177.366C127.736 176.36 127.366 175.327 126.571 174.558C125.802 173.79 124.769 173.419 123.763 173.419C122.756 173.419 121.723 173.79 120.954 174.584C119.418 176.147 119.418 178.664 120.981 180.2C121.749 180.969 122.756 181.366 123.789 181.366Z" fill="#E5320F"/>
<path d="M133.326 190.77C134.333 190.77 135.366 190.373 136.134 189.578C136.903 188.81 137.3 187.804 137.3 186.797C137.3 185.764 136.903 184.731 136.108 183.963C135.339 183.194 134.307 182.823 133.3 182.823C132.293 182.823 131.26 183.194 130.492 183.989C128.955 185.552 128.955 188.068 130.518 189.605C131.285 190.372 132.319 190.77 133.326 190.77Z" fill="#E5320F"/>
<path d="M270.518 30.7185C270.783 30.7185 271.021 30.7186 271.259 30.6646C273.194 30.3206 274.518 28.6255 274.518 26.7705C274.518 26.5055 274.492 26.2676 274.439 26.0286C274.094 24.0946 272.399 22.7705 270.544 22.7705C270.279 22.7705 270.041 22.7966 269.802 22.8506C267.656 23.2466 266.227 25.3396 266.623 27.4866C266.995 29.3936 268.664 30.7185 270.518 30.7185Z" fill="#E5320F"/>
<path d="M217.538 40.6781C217.803 40.6781 218.041 40.652 218.279 40.599C220.213 40.254 221.538 38.5591 221.538 36.7041C221.538 36.4391 221.511 36.201 221.458 35.963C221.114 34.028 219.418 32.7041 217.564 32.7041C217.298 32.7041 217.06 32.7301 216.822 32.7841C214.65 33.1801 213.246 35.273 213.643 37.42C214.014 39.327 215.683 40.6781 217.538 40.6781Z" fill="#E5320F"/>
<path d="M323.496 20.7849C323.734 20.7849 323.946 20.785 324.158 20.731C322.277 19.671 321.721 16.9969 323.364 15.2479L325.244 13.262C324.715 12.97 324.132 12.8379 323.522 12.8379C323.257 12.8379 323.019 12.8639 322.781 12.9169C320.609 13.3139 319.205 15.4069 319.602 17.5529C319.974 19.4599 321.643 20.7849 323.496 20.7849Z" fill="#E5320F"/>
<path d="M283.763 28.2543C284.001 28.2543 284.266 28.2283 284.504 28.1753C286.439 27.8303 287.763 26.1353 287.763 24.2803C287.763 24.0153 287.737 23.7773 287.683 23.5393C287.339 21.6323 285.644 20.2803 283.763 20.2803C283.525 20.2803 283.286 20.3064 283.047 20.3604C280.901 20.7844 279.472 22.8503 279.868 24.9963C280.24 26.9033 281.909 28.2543 283.763 28.2543Z" fill="#E5320F"/>
<path d="M310.251 23.2742C310.517 23.2742 310.755 23.2482 310.993 23.2212C312.9 22.8512 314.251 21.1822 314.251 19.2742C314.251 19.0362 314.225 18.7972 314.172 18.5592C313.827 16.6782 312.158 15.3281 310.305 15.3281C310.039 15.3281 309.801 15.3542 309.536 15.4072C307.39 15.8042 305.96 17.8712 306.357 20.0432C306.729 21.9492 308.398 23.2742 310.251 23.2742Z" fill="#E5320F"/>
<path d="M204.292 43.1423C204.557 43.1423 204.795 43.1163 205.033 43.0883C206.94 42.7183 208.292 41.0493 208.292 39.1683C208.292 38.9303 208.266 38.6913 208.212 38.4523C207.868 36.5453 206.199 35.1943 204.345 35.1943C204.08 35.1943 203.842 35.2203 203.576 35.2733C201.43 35.6703 200 37.7373 200.397 39.9093C200.769 41.8163 202.438 43.1423 204.292 43.1423Z" fill="#E5320F"/>
<path d="M297.007 25.764C297.245 25.764 297.51 25.7381 297.748 25.6851C299.682 25.3401 301.007 23.671 301.007 21.79C301.007 21.552 300.981 21.2871 300.927 21.0491C300.582 19.1421 298.887 17.79 297.007 17.79C296.768 17.79 296.529 17.8171 296.291 17.8701C294.145 18.2941 292.715 20.3601 293.112 22.5321C293.484 24.4401 295.153 25.764 297.007 25.764Z" fill="#E5320F"/>
<path d="M58.5979 70.4797C58.8629 70.4797 59.1009 70.4538 59.3389 70.4008C61.2729 70.0558 62.5979 68.3608 62.5979 66.5068C62.5979 66.2408 62.5709 66.0028 62.5179 65.7648C62.1729 63.8308 60.4779 62.5068 58.6239 62.5068C58.3579 62.5068 58.1199 62.5328 57.8819 62.5858C55.7359 62.9828 54.3059 65.0758 54.7029 67.2218C55.0749 69.1288 56.7439 70.4797 58.5979 70.4797Z" fill="#E5320F"/>
<path d="M98.332 63.0095C98.597 63.0095 98.835 62.9835 99.073 62.9565C100.981 62.5855 102.332 60.9165 102.332 59.0355C102.332 58.7975 102.306 58.5586 102.253 58.3206C101.908 56.4136 100.239 55.0615 98.385 55.0615C98.12 55.0615 97.8819 55.0876 97.6169 55.1416C95.4709 55.5376 94.041 57.6046 94.437 59.7776C94.809 61.6856 96.478 63.0095 98.332 63.0095Z" fill="#E5320F"/>
<path d="M124.823 58.056C125.088 58.056 125.326 58.0301 125.564 57.9771C127.498 57.6321 128.823 55.937 128.823 54.083C128.823 53.817 128.797 53.5791 128.743 53.3411C128.399 51.4341 126.704 50.083 124.823 50.083C124.585 50.083 124.346 50.109 124.107 50.162C121.935 50.586 120.531 52.6521 120.928 54.7981C121.299 56.7051 122.968 58.056 124.823 58.056Z" fill="#E5320F"/>
<path d="M138.069 55.5652C138.334 55.5652 138.572 55.5382 138.81 55.4852C140.744 55.1412 142.069 53.4722 142.069 51.5912C142.069 51.3532 142.041 51.0871 141.988 50.8491C141.643 48.9681 139.976 47.6182 138.122 47.6182C137.857 47.6182 137.617 47.6441 137.352 47.6971C135.18 48.0941 133.777 50.1611 134.174 52.3331C134.545 54.2401 136.214 55.5652 138.069 55.5652Z" fill="#E5320F"/>
<path d="M111.578 60.5193C111.843 60.5193 112.081 60.5193 112.319 60.4663C114.254 60.1213 115.578 58.4263 115.578 56.5713C115.578 56.3063 115.552 56.0683 115.498 55.8303C115.154 53.8963 113.459 52.5713 111.604 52.5713C111.339 52.5713 111.101 52.5982 110.862 52.6512C108.69 53.0482 107.287 55.1414 107.683 57.2874C108.054 59.1944 109.723 60.5193 111.578 60.5193Z" fill="#E5320F"/>
<path d="M151.312 53.0759C151.578 53.0759 151.816 53.0499 152.054 53.0229C153.988 52.6519 155.312 50.9829 155.312 49.1019C155.312 48.8639 155.286 48.5989 155.233 48.3599C154.888 46.4799 153.219 45.1289 151.366 45.1289C151.1 45.1289 150.862 45.1549 150.597 45.2079C148.425 45.6049 147.021 47.6719 147.418 49.8439C147.789 51.7519 149.458 53.0759 151.312 53.0759Z" fill="#E5320F"/>
<path d="M71.842 67.9896C72.08 67.9896 72.346 67.9627 72.584 67.9097C74.518 67.5647 75.842 65.8706 75.842 64.0156C75.842 63.7496 75.816 63.5117 75.763 63.2737C75.418 61.3667 73.723 60.0156 71.842 60.0156C71.604 60.0156 71.365 60.0417 71.127 60.0947C68.981 60.4917 67.551 62.5847 67.948 64.7307C68.32 66.6387 69.989 67.9896 71.842 67.9896Z" fill="#E5320F"/>
<path d="M85.0872 65.4998C85.3252 65.4998 85.5911 65.4738 85.8291 65.4198C87.7631 65.0758 89.0872 63.4068 89.0872 61.5258C89.0872 61.2878 89.0611 61.0228 89.0081 60.7838C88.6631 58.9028 86.9942 57.5527 85.1402 57.5527C84.8752 57.5527 84.6371 57.5788 84.3721 57.6318C82.2261 58.0288 80.7962 60.0958 81.1932 62.2678C81.5642 64.1758 83.2332 65.4998 85.0872 65.4998Z" fill="#E5320F"/>
<path d="M164.557 50.5857C164.822 50.5857 165.061 50.5857 165.299 50.5327C167.233 50.1877 168.557 48.4927 168.557 46.6377C168.557 46.3727 168.531 46.1347 168.478 45.8967C168.133 43.9627 166.438 42.6377 164.583 42.6377C164.318 42.6377 164.08 42.6637 163.842 42.7177C161.696 43.1147 160.266 45.2066 160.663 47.3536C161.034 49.2616 162.704 50.5857 164.557 50.5857Z" fill="#E5320F"/>
<path d="M257.273 33.2087C257.538 33.2087 257.777 33.1818 258.015 33.1548C259.949 32.7848 261.273 31.1157 261.273 29.2607C261.273 28.9957 261.247 28.7578 261.194 28.5188C260.849 26.6118 259.18 25.2607 257.326 25.2607C257.061 25.2607 256.823 25.2868 256.558 25.3398C254.385 25.7368 252.982 27.8038 253.379 29.9758C253.749 31.8838 255.418 33.2087 257.273 33.2087Z" fill="#E5320F"/>
<path d="M194.967 40.9161C194.623 39.0091 192.928 37.6582 191.047 37.6582C190.809 37.6582 190.57 37.6842 190.331 37.7372C188.186 38.1612 186.756 40.2272 187.152 42.3992C187.523 44.3062 189.192 45.6301 191.047 45.6301C191.285 45.6301 191.55 45.6041 191.788 45.5511C193.723 45.2061 195.047 43.5382 195.047 41.6572C195.047 41.4202 195.021 41.1541 194.967 40.9161Z" fill="#E5320F"/>
<path d="M230.782 30.2148C230.544 30.2148 230.305 30.2418 230.067 30.2948C227.895 30.6918 226.491 32.7848 226.888 34.9308C227.259 36.8378 228.928 38.1888 230.782 38.1888C231.048 38.1888 231.286 38.1627 231.524 38.1097C233.458 37.7647 234.782 36.0958 234.782 34.2148C234.782 33.9768 234.756 33.7118 234.703 33.4738C234.358 31.5658 232.663 30.2148 230.782 30.2148Z" fill="#E5320F"/>
<path d="M244.028 35.6979C244.293 35.6979 244.532 35.6719 244.77 35.6189C246.704 35.2739 248.028 33.6059 248.028 31.7249C248.028 31.4859 248.002 31.2209 247.949 30.9829C247.604 29.1019 245.935 27.752 244.081 27.752C243.816 27.752 243.578 27.7779 243.313 27.8309C241.14 28.2279 239.737 30.2949 240.134 32.4669C240.505 34.3739 242.173 35.6979 244.028 35.6979Z" fill="#E5320F"/>
<path d="M177.802 40.1494C177.564 40.1494 177.326 40.1754 177.087 40.2284C174.941 40.6524 173.511 42.7184 173.908 44.8644C174.278 46.7714 175.947 48.1224 177.801 48.1224C178.039 48.1224 178.304 48.0965 178.543 48.0435C180.477 47.6985 181.801 46.0034 181.801 44.1494C181.801 43.8834 181.775 43.6455 181.722 43.4075C181.378 41.4995 179.683 40.1494 177.802 40.1494Z" fill="#E5320F"/>
<path d="M46.0941 72.891C48.0281 72.52 49.3531 70.8511 49.3531 68.9701C49.3531 68.7321 49.3271 68.467 49.2731 68.229C48.9291 66.348 47.2601 64.9971 45.4061 64.9971C45.1411 64.9971 44.9021 65.024 44.6371 65.077C43.6841 65.263 42.9422 65.713 42.3322 66.375C42.3322 66.401 42.306 66.428 42.279 66.454C41.988 66.799 41.7761 67.196 41.6171 67.62C41.4051 68.256 41.3261 68.971 41.4581 69.713C41.8291 71.62 43.4981 72.9441 45.3531 72.9441C45.6181 72.9431 45.8561 72.917 46.0941 72.891Z" fill="#E5320F"/>
<path d="M346.172 23.1687L344.106 27.8837C344.663 28.2017 345.325 28.3617 345.96 28.3617C346.939 28.3617 347.894 28.0166 348.662 27.3286C349.51 26.5336 349.96 25.4747 349.96 24.3887C349.96 23.4347 349.589 22.4816 348.9 21.7126C348.741 21.5266 348.555 21.3677 348.37 21.2627C347.391 21.5257 346.596 22.2417 346.172 23.1687Z" fill="#E5320F"/>
<path d="M373.854 54.7185C375.125 54.1885 376.08 53.1285 376.53 51.8575C375.735 51.0095 374.677 50.5596 373.591 50.5596C372.637 50.5596 371.683 50.9035 370.914 51.5925C369.563 52.8375 369.271 54.7975 370.093 56.3335L373.854 54.7185Z" fill="#E5320F"/>
<path d="M364.397 48.4662C365.351 48.4662 366.304 48.1211 367.073 47.4061C367.921 46.6111 368.371 45.5522 368.371 44.4662C368.371 43.5132 368 42.5592 367.311 41.7902C366.516 40.9422 365.457 40.4922 364.371 40.4922C363.418 40.4922 362.464 40.8631 361.695 41.5521C360.08 43.0351 359.973 45.5522 361.457 47.1682C362.251 48.0162 363.311 48.4662 364.397 48.4662Z" fill="#E5320F"/>
<path d="M433.828 85.0758C434.278 85.2338 434.728 85.2878 435.152 85.2878C435.417 85.2878 435.655 85.2618 435.893 85.2078L437.562 83.3538C438.331 82.5338 438.622 81.3677 438.357 80.2817L437.933 78.5068C437.536 78.1108 437.033 77.7918 436.476 77.5798C436.026 77.4208 435.576 77.3418 435.152 77.3418C433.509 77.3418 431.973 78.3747 431.417 79.9897C430.675 82.0817 431.761 84.3338 433.828 85.0758Z" fill="#E5320F"/>
<path d="M352.266 37.1282C353.034 37.9762 354.092 38.3992 355.178 38.3992C356.132 38.3992 357.114 38.0552 357.855 37.3662C358.703 36.5722 359.153 35.4852 359.153 34.3992C359.153 33.4722 358.809 32.5182 358.121 31.7512C357.326 30.9032 356.267 30.4531 355.18 30.4531C354.227 30.4531 353.274 30.8232 352.505 31.5132C350.888 32.9962 350.755 35.5132 352.266 37.1282Z" fill="#E5320F"/>
<path d="M420.98 80.5455C421.43 80.6785 421.854 80.7576 422.304 80.7576C423.947 80.7576 425.483 79.7505 426.039 78.1095C426.197 77.6585 426.277 77.2085 426.277 76.7845C426.277 75.1425 425.244 73.6056 423.628 73.0496C423.178 72.8916 422.728 72.8115 422.304 72.8115C420.661 72.8115 419.125 73.8446 418.569 75.4606C417.828 77.5256 418.913 79.8045 420.98 80.5455Z" fill="#E5320F"/>
<path d="M409.668 76.2003C411.231 76.1473 412.661 75.1142 413.191 73.5782C413.349 73.1282 413.429 72.6783 413.429 72.2543C413.429 70.6113 412.396 69.0753 410.78 68.4923C410.356 68.3333 409.906 68.2803 409.482 68.2803C408.475 68.2803 407.496 68.6773 406.753 69.3403L409.217 74.6643C409.456 75.1683 409.589 75.6973 409.668 76.2003Z" fill="#E5320F"/>
<path d="M434.412 108.387C435.047 107.646 435.339 106.744 435.339 105.844C435.339 104.679 434.861 103.566 433.908 102.772C433.166 102.163 432.265 101.844 431.391 101.844C430.226 101.844 429.113 102.348 428.319 103.301C426.915 104.97 427.127 107.487 428.822 108.891C429.563 109.499 430.465 109.818 431.365 109.818C432.503 109.817 433.643 109.315 434.412 108.387Z" fill="#E5320F"/>
<path d="M410.12 149.341C410.12 149.499 410.12 149.685 410.094 149.87C409.829 151.856 408.134 153.313 406.173 153.313C405.988 153.313 405.829 153.287 405.644 153.26C404.108 153.048 402.888 152.015 402.438 150.638C402.862 150.743 403.286 150.77 403.709 150.77C405.325 150.77 406.888 150.187 408.053 149.207L409.802 147.803C410.013 148.281 410.12 148.811 410.12 149.341Z" fill="#E5320F"/>
<path d="M443.416 94.5592C442.939 94.2412 442.383 94.0552 441.801 94.0022L436.45 93.5781C435.258 95.2211 435.55 97.5782 437.138 98.9022C437.88 99.5112 438.806 99.8302 439.68 99.8302C440.82 99.8302 441.958 99.3262 442.753 98.3992C443.362 97.6572 443.68 96.7562 443.68 95.8822C443.68 95.4322 443.601 95.0082 443.415 94.5842L443.416 94.5592Z" fill="#E5320F"/>
<path d="M411.815 136.969C411.841 136.783 411.841 136.598 411.841 136.439C411.841 134.479 410.411 132.784 408.424 132.519C408.238 132.493 408.053 132.493 407.895 132.493C405.908 132.493 404.211 133.923 403.947 135.936C403.656 138.108 405.192 140.095 407.364 140.386C407.55 140.412 407.71 140.412 407.895 140.412C409.855 140.412 411.55 138.982 411.815 136.969Z" fill="#E5320F"/>
<path d="M399.761 227.167C399.787 226.981 399.787 226.796 399.787 226.637C399.787 224.677 398.356 222.982 396.344 222.717C396.158 222.69 395.973 222.69 395.814 222.69C393.854 222.69 392.159 224.121 391.894 226.134C391.602 228.306 393.139 230.293 395.311 230.584C395.47 230.61 395.656 230.61 395.84 230.61C397.801 230.61 399.496 229.18 399.761 227.167Z" fill="#E5320F"/>
<path d="M427.019 115.803C427.019 116.704 426.702 117.631 426.092 118.373C425.562 118.982 424.9 119.405 424.185 119.591C423.125 118.955 421.907 118.612 420.635 118.612H420.264C418.781 117.181 418.675 114.85 419.999 113.287C420.794 112.334 421.906 111.831 423.072 111.831C423.946 111.831 424.846 112.148 425.588 112.758C426.542 113.552 427.019 114.664 427.019 115.803Z" fill="#E5320F"/>
<path d="M404.926 188.519C404.953 188.333 404.953 188.149 404.953 187.99C404.953 186.03 403.522 184.307 401.509 184.043C401.324 184.017 401.165 184.017 400.98 184.017C399.02 184.017 397.325 185.474 397.059 187.46C396.768 189.633 398.304 191.646 400.477 191.938C400.662 191.964 400.821 191.964 401.006 191.964C402.966 191.963 404.662 190.506 404.926 188.519Z" fill="#E5320F"/>
<path d="M395.628 235.989C395.973 236.227 396.317 236.413 396.688 236.545C396.292 236.201 395.84 235.909 395.285 235.724L395.628 235.989Z" fill="#E5320F"/>
<path d="M403.204 201.393C403.23 201.208 403.23 201.023 403.23 200.864C403.23 198.904 401.8 197.209 399.787 196.943C399.601 196.917 399.416 196.917 399.258 196.917C397.297 196.917 395.602 198.348 395.337 200.361C395.046 202.533 396.582 204.519 398.754 204.811C398.913 204.837 399.099 204.837 399.284 204.837C401.245 204.837 402.94 203.406 403.204 201.393Z" fill="#E5320F"/>
<path d="M406.65 175.645C406.676 175.459 406.676 175.275 406.676 175.116C406.676 173.129 405.245 171.433 403.259 171.169C403.073 171.143 402.887 171.143 402.728 171.143C400.742 171.143 399.046 172.6 398.781 174.586C398.49 176.759 400.027 178.745 402.2 179.036C402.385 179.062 402.543 179.09 402.728 179.09C404.688 179.089 406.384 177.632 406.65 175.645Z" fill="#E5320F"/>
<path d="M408.371 162.743C408.397 162.557 408.397 162.372 408.397 162.214C408.397 160.253 406.966 158.531 404.98 158.267C404.821 158.241 404.635 158.241 404.477 158.241C402.49 158.241 400.768 159.672 400.503 161.684C400.211 163.856 401.747 165.87 403.92 166.161C404.079 166.188 404.264 166.188 404.449 166.188C406.411 166.188 408.106 164.731 408.371 162.743Z" fill="#E5320F"/>
<path d="M418.702 125.817C418.702 126.691 418.384 127.619 417.774 128.36C416.98 129.287 415.868 129.791 414.728 129.791C413.828 129.791 412.927 129.473 412.185 128.863C410.49 127.46 410.278 124.943 411.682 123.274C411.708 123.221 411.761 123.168 411.814 123.168L412.688 124.308L417.536 124.07L418.252 124.043C418.569 124.599 418.702 125.208 418.702 125.817Z" fill="#E5320F"/>
<path d="M401.483 214.293C401.509 214.107 401.509 213.948 401.509 213.763C401.509 211.803 400.052 210.081 398.066 209.816C397.88 209.79 397.721 209.79 397.537 209.79C395.576 209.79 393.881 211.247 393.616 213.234C393.325 215.406 394.835 217.419 397.033 217.711C397.192 217.737 397.378 217.737 397.563 217.737C399.523 217.736 401.218 216.279 401.483 214.293Z" fill="#E5320F"/>
<path d="M536.317 196.387C535.469 196.387 534.622 196.652 533.906 197.208C532.184 198.559 531.841 201.049 533.191 202.797C533.986 203.804 535.151 204.333 536.343 204.333C537.191 204.333 538.038 204.068 538.754 203.513C539.786 202.718 540.317 201.552 540.317 200.361C540.317 199.513 540.052 198.666 539.496 197.95C538.701 196.916 537.536 196.387 536.317 196.387Z" fill="#E5320F"/>
<path d="M546.807 213.923C547.813 213.128 548.343 211.962 548.343 210.771C548.343 209.923 548.078 209.076 547.522 208.361C546.727 207.354 545.562 206.798 544.37 206.798C543.522 206.798 542.675 207.09 541.932 207.646C540.21 208.97 539.893 211.46 541.217 213.209C542.012 214.215 543.177 214.745 544.369 214.745C545.217 214.744 546.065 214.48 546.807 213.923Z" fill="#E5320F"/>
<path d="M557.986 234.717C558.622 233.869 559.098 232.915 559.389 231.882L560.608 227.644C560.555 227.618 560.475 227.618 560.422 227.618C559.574 227.618 558.727 227.883 558.012 228.439C556.264 229.79 555.946 232.28 557.27 234.028C557.482 234.292 557.721 234.531 557.986 234.717Z" fill="#E5320F"/>
<path d="M472.105 121.049C472.953 121.049 473.8 120.784 474.516 120.228C475.549 119.46 476.079 118.268 476.079 117.076C476.079 116.228 475.814 115.381 475.258 114.666C474.464 113.659 473.298 113.103 472.106 113.103C471.258 113.103 470.411 113.394 469.669 113.951C467.946 115.275 467.603 117.792 468.953 119.514C469.747 120.52 470.913 121.049 472.105 121.049Z" fill="#E5320F"/>
<path d="M480.131 131.46C480.979 131.46 481.826 131.194 482.569 130.639C483.576 129.87 484.105 128.678 484.105 127.487C484.105 126.639 483.84 125.792 483.284 125.076C482.489 124.07 481.324 123.513 480.132 123.513C479.284 123.513 478.437 123.804 477.695 124.361C475.973 125.685 475.655 128.175 476.979 129.924C477.774 130.93 478.94 131.46 480.131 131.46Z" fill="#E5320F"/>
<path d="M504.211 162.69C505.059 162.69 505.933 162.425 506.648 161.869C507.655 161.1 508.211 159.909 508.211 158.743C508.211 157.869 507.919 157.021 507.363 156.305C506.594 155.299 505.402 154.742 504.237 154.742C503.363 154.742 502.515 155.033 501.799 155.59C500.051 156.915 499.733 159.404 501.058 161.153C501.853 162.16 503.019 162.69 504.211 162.69Z" fill="#E5320F"/>
<path d="M512.264 173.101C513.112 173.101 513.959 172.836 514.674 172.28C515.681 171.512 516.237 170.32 516.237 169.155C516.237 168.28 515.945 167.432 515.389 166.717C514.62 165.71 513.428 165.154 512.263 165.154C511.389 165.154 510.541 165.445 509.825 166.002C508.077 167.326 507.759 169.816 509.11 171.565C509.879 172.571 511.072 173.101 512.264 173.101Z" fill="#E5320F"/>
<path d="M528.29 185.976C527.442 185.976 526.595 186.242 525.879 186.797C524.157 188.149 523.814 190.638 525.164 192.387C525.933 193.393 527.124 193.923 528.316 193.923C529.164 193.923 530.011 193.658 530.726 193.102C531.733 192.333 532.289 191.142 532.289 189.976C532.289 189.102 531.997 188.254 531.441 187.539C530.674 186.506 529.483 185.976 528.29 185.976Z" fill="#E5320F"/>
<path d="M458.224 92.9697C457.191 93.2347 456.317 93.9767 455.919 94.9557L453.959 99.6447C454.595 100.042 455.311 100.254 456.052 100.254C456.9 100.254 457.747 99.9876 458.463 99.4326C459.469 98.6376 460.026 97.4716 460.026 96.2806C460.026 95.4326 459.735 94.5857 459.178 93.8427C458.913 93.4997 458.595 93.1817 458.224 92.9697Z" fill="#E5320F"/>
<path d="M520.29 183.512C521.138 183.512 521.985 183.246 522.701 182.691C523.707 181.896 524.264 180.73 524.264 179.539C524.264 178.691 523.972 177.844 523.416 177.128C522.647 176.122 521.482 175.565 520.29 175.565C519.442 175.565 518.595 175.856 517.852 176.413C516.104 177.737 515.787 180.227 517.137 181.976C517.907 182.982 519.098 183.512 520.29 183.512Z" fill="#E5320F"/>
<path d="M552.396 225.154C553.244 225.154 554.091 224.889 554.834 224.333C555.84 223.538 556.37 222.373 556.37 221.181C556.37 220.333 556.105 219.486 555.549 218.771C554.754 217.738 553.589 217.208 552.37 217.208C551.522 217.208 550.675 217.473 549.96 218.028C548.237 219.38 547.92 221.87 549.244 223.618C550.038 224.625 551.204 225.154 552.396 225.154Z" fill="#E5320F"/>
<path d="M500.159 148.307C500.159 147.459 499.893 146.612 499.337 145.896C498.543 144.889 497.377 144.333 496.185 144.333C495.337 144.333 494.49 144.624 493.748 145.181C492.026 146.505 491.708 148.995 493.032 150.744C493.827 151.751 494.993 152.281 496.184 152.281C497.032 152.281 497.907 152.015 498.622 151.46C499.628 150.69 500.159 149.498 500.159 148.307Z" fill="#E5320F"/>
<path d="M460.926 109.102C461.695 110.108 462.887 110.665 464.078 110.665C464.926 110.665 465.773 110.374 466.489 109.817C467.521 109.048 468.052 107.857 468.052 106.665C468.052 105.817 467.787 104.97 467.231 104.255C466.436 103.248 465.271 102.692 464.079 102.692C463.231 102.692 462.384 102.984 461.642 103.54C459.893 104.862 459.576 107.379 460.926 109.102Z" fill="#E5320F"/>
<path d="M488.159 133.923C487.311 133.923 486.464 134.215 485.722 134.771C484 136.096 483.681 138.613 485.005 140.334C485.8 141.341 486.966 141.87 488.157 141.87C489.005 141.87 489.853 141.605 490.596 141.049C491.603 140.28 492.131 139.089 492.131 137.897C492.131 137.049 491.866 136.202 491.31 135.487C490.516 134.48 489.351 133.923 488.159 133.923Z" fill="#E5320F"/>
<path d="M116.691 311.485L98.0947 305.895L97.6446 304.464L95.4997 297.816L92.1617 287.406C91.6857 285.975 90.4386 284.916 88.9566 284.704C87.4466 284.465 85.9627 285.128 85.1147 286.373L74.0427 302.319L54.6257 302.266C53.1147 302.24 51.7376 303.114 51.0496 304.464C50.3876 305.816 50.5196 307.432 51.4466 308.623L63.2077 324.094L57.1427 342.531C56.6647 343.962 57.0627 345.551 58.1217 346.61C59.2077 347.671 60.7976 348.014 62.2276 347.538L80.5587 341.127L96.2407 352.598C97.4597 353.472 99.0746 353.605 100.4 352.915C101.751 352.2 102.572 350.796 102.546 349.286L102.122 329.869L117.857 318.531C118.519 318.054 118.996 317.392 119.26 316.677C119.498 316.041 119.578 315.326 119.472 314.638C119.207 313.154 118.148 311.936 116.691 311.485Z" fill="white"/>
<path d="M610.461 238.585C609.746 237.261 608.342 236.466 606.832 236.519L587.415 237.234L575.839 221.659C574.912 220.44 573.402 219.857 571.919 220.122C570.436 220.387 569.217 221.499 568.819 222.956L563.495 241.632L545.111 247.858C543.68 248.334 542.647 249.579 542.435 251.088C542.249 252.571 542.912 254.056 544.157 254.903L560.29 265.738L560.528 285.154C560.528 286.664 561.402 288.042 562.779 288.677C564.131 289.339 565.747 289.155 566.938 288.227L582.223 276.227L600.766 282.029C601.534 282.267 602.329 282.267 603.071 282.029C603.733 281.843 604.342 281.471 604.819 280.968C605.852 279.882 606.196 278.293 605.667 276.863L598.991 258.638L610.222 242.796C611.098 241.551 611.177 239.936 610.461 238.585Z" fill="white"/>
<path d="M391.099 272.148C391.232 272.598 391.496 272.969 391.84 273.234C392.158 273.446 392.529 273.605 392.926 273.658C393.775 273.791 394.596 273.393 395.072 272.679L401.191 263.567L412.184 263.434C413.032 263.434 413.827 262.93 414.198 262.163C414.542 261.394 414.463 260.494 413.932 259.805L407.151 251.17L410.41 240.68C410.675 239.885 410.436 238.985 409.827 238.402C409.191 237.793 408.291 237.607 407.496 237.899L397.509 241.581L397.192 241.687L390.914 237.209L388.238 235.328C387.523 234.851 386.623 234.799 385.854 235.196C385.113 235.593 384.662 236.387 384.688 237.262L385.085 248.229L376.291 254.798C375.602 255.301 375.258 256.149 375.416 256.996C375.575 257.844 376.185 258.506 377.006 258.745L387.575 261.765L391.099 272.148Z" fill="white"/>
<path d="M369.218 64.732L378.809 70.0829L379.841 81.023C379.921 81.871 380.477 82.613 381.271 82.904C382.092 83.222 382.994 83.0369 383.603 82.4539L391.656 74.9839L402.384 77.394C402.835 77.5 403.286 77.447 403.684 77.289C404.054 77.156 404.372 76.918 404.611 76.627C405.168 75.938 405.273 75.037 404.902 74.269L400.294 64.283L405.883 54.852C406.333 54.111 406.307 53.183 405.83 52.468C405.38 51.753 404.532 51.356 403.684 51.461L392.796 52.785L385.538 44.5469C384.955 43.8849 384.08 43.6199 383.259 43.8589C382.438 44.0709 381.803 44.759 381.644 45.581L379.498 56.362L369.432 60.707C368.637 61.052 368.108 61.8189 368.081 62.6669C368.027 63.5129 368.477 64.334 369.218 64.732Z" fill="white"/>
<path d="M35.6312 89.1549C35.9752 88.9959 36.2932 88.7839 36.5582 88.4669C37.0882 87.8049 37.1942 86.8769 36.8492 86.1089L32.2133 76.1489L32.6632 75.3808L35.8422 70.0289L37.8292 66.6909C38.2532 65.9499 38.2262 65.0228 37.7762 64.3068C37.2982 63.5918 36.4782 63.2209 35.6302 63.2999L24.7162 64.6248L17.4573 56.3869C16.9013 55.7509 16.0002 55.4858 15.1792 55.6978C14.3592 55.9098 13.7232 56.5989 13.5642 57.4209L11.4452 68.2019L1.35217 72.5719C0.58317 72.8899 0.0542177 73.6589 0.00121772 74.5069C-0.0257823 75.3539 0.397257 76.1748 1.16626 76.5988L10.7562 81.9509L11.7622 92.8648C11.8422 93.7128 12.3982 94.4539 13.2192 94.7719C14.0142 95.0629 14.9142 94.9039 15.5502 94.3219L23.6033 86.8509L34.3052 89.2348C34.7562 89.3408 35.2072 89.3149 35.6312 89.1549Z" fill="white"/>
<path d="M339.656 27.0625C339.894 27.1955 340.159 27.2485 340.451 27.2485C341.06 27.2225 341.616 26.8515 341.854 26.2955L342.199 25.5536L344.292 20.8125L345.061 19.0906L352.795 17.6595C353.404 17.5535 353.881 17.1025 354.04 16.5195C354.199 15.9105 354.04 15.2745 353.563 14.8775L347.709 9.60655L348.742 1.81858C348.821 1.20958 348.556 0.599474 348.027 0.255474C347.523 -0.0615259 346.861 -0.0885045 346.332 0.202496L339.523 4.14952L332.424 0.758526C331.867 0.492526 331.205 0.572562 330.729 0.970562C330.251 1.34056 330.013 1.94955 330.146 2.55955L331.789 10.2425L327.126 15.1955L326.385 15.9646C325.961 16.4146 325.828 17.0505 326.04 17.6335C326.226 18.1105 326.597 18.4545 327.073 18.5865C327.179 18.6395 327.285 18.6665 327.391 18.6665L335.205 19.4875L338.967 26.4005C339.125 26.6915 339.364 26.9305 339.656 27.0625Z" fill="white"/>
<path d="M166.73 213.26L167.736 205.446C167.816 204.837 167.551 204.254 167.048 203.909C166.519 203.565 165.883 203.539 165.353 203.856L158.519 207.803L156.187 206.691L151.419 204.413C150.862 204.147 150.2 204.227 149.724 204.599C149.247 204.969 149.036 205.606 149.167 206.214L149.644 208.492L150.784 213.896L145.38 219.618C144.956 220.068 144.824 220.704 145.036 221.287C145.248 221.844 145.777 222.266 146.387 222.32L151.261 222.823L154.201 223.141L157.009 228.253L157.989 230.054C158.122 230.346 158.36 230.558 158.651 230.717C158.889 230.822 159.181 230.902 159.446 230.875C160.055 230.875 160.611 230.505 160.85 229.922L164.055 222.743L171.79 221.286C172.398 221.18 172.876 220.729 173.061 220.146C173.219 219.564 173.034 218.928 172.583 218.531L166.73 213.26Z" fill="white"/>
<path d="M454.728 91.0356L462.198 89.4457C462.781 89.3137 463.258 88.8896 463.39 88.3066C463.549 87.7236 463.365 87.1146 462.888 86.7166L457.086 81.7636L457.906 74.1606C457.959 73.5516 457.668 72.9686 457.164 72.6506C456.661 72.3326 456.025 72.3326 455.521 72.6506L449.005 76.6246L442.011 73.5246C441.455 73.2866 440.846 73.3657 440.369 73.7367C439.919 74.1337 439.707 74.7437 439.865 75.2997L441.64 82.7436L436.5 88.4387C436.104 88.8627 435.997 89.4987 436.209 90.0537C436.447 90.6107 436.952 90.9817 437.534 91.0337L445.162 91.6427L448.977 98.2646C449.135 98.5566 449.373 98.7686 449.665 98.9006C449.903 99.0066 450.168 99.0597 450.433 99.0597C451.042 99.0067 451.547 98.6357 451.786 98.0797L452.182 97.1527L453.931 92.9146L454.728 91.0356Z" fill="white"/>
<path d="M213.272 340.465H211.153L194.2 379.565H200.796L203.525 373.154H220.849L223.578 379.565H230.227L213.272 340.465ZM205.749 367.856L212.212 351.936L218.623 367.856H205.749Z" fill="white"/>
<path d="M293.166 386.609C284.504 386.609 277.563 383.192 272.346 376.304C274.915 374.45 276.902 372.118 278.332 369.337C279.736 366.556 280.451 363.563 280.451 360.331C280.584 354.847 278.597 350.158 274.544 346.238C270.491 342.317 265.723 340.384 260.239 340.463C254.729 340.384 249.961 342.317 245.961 346.238C241.961 350.158 240.001 354.846 240.081 360.331C239.948 365.813 241.908 370.529 245.935 374.45C249.961 378.37 254.73 380.277 260.24 380.198C262.73 380.198 265.061 379.801 267.287 378.979C273.433 387.615 281.724 391.932 292.161 391.932C294.121 391.932 296.266 391.72 298.65 391.27V386.396C296.319 386.557 294.492 386.609 293.166 386.609ZM270.147 370.504C267.499 373.205 264.213 374.557 260.293 374.557C256.293 374.557 252.982 373.205 250.386 370.504C247.79 367.802 246.492 364.411 246.492 360.278C246.492 356.252 247.79 352.861 250.412 350.159C253.035 347.457 256.32 346.106 260.24 346.106C264.187 346.106 267.499 347.457 270.147 350.159C272.796 352.861 274.094 356.252 274.094 360.332C274.094 364.411 272.796 367.802 270.147 370.504Z" fill="white"/>
<path d="M319.853 364.418C319.853 367.606 318.979 370.091 317.23 371.879C315.482 373.666 313.169 374.559 310.294 374.559C307.382 374.559 305.04 373.666 303.272 371.879C301.504 370.091 300.62 367.606 300.62 364.418V341.107H294.442V364.009C294.442 368.984 295.909 372.926 298.842 375.838C301.776 378.754 305.594 380.21 310.294 380.21C314.917 380.21 318.696 378.754 321.63 375.838C324.562 372.926 326.03 368.984 326.03 364.009V341.107H319.852V364.418H319.853Z" fill="white"/>
<path d="M356.344 340.465H354.225L337.272 379.565H343.868L346.597 373.154H363.921L366.65 379.565H373.298L356.344 340.465ZM348.821 367.856L355.285 351.936L361.695 367.856H348.821Z" fill="white"/>
<path d="M406.092 363.724C408.423 362.823 410.251 361.419 411.549 359.512C412.847 357.631 413.509 355.406 413.509 352.889C413.509 349.419 412.29 346.584 409.88 344.412C407.47 342.214 404.344 341.1 400.449 341.1H386.41V379.564H392.582V364.703H399.628L410.596 379.564H417.642L406.092 363.724ZM400.344 359.22H392.582V346.584H400.344C402.437 346.584 404.079 347.167 405.324 348.333C406.542 349.498 407.151 351.034 407.151 352.942C407.151 354.848 406.542 356.359 405.324 357.524C404.079 358.663 402.437 359.22 400.344 359.22Z" fill="white"/>
<path d="M436.35 341.107H430.172V379.569H436.35V341.107Z" fill="white"/>
<path d="M478.017 364.418C478.017 367.606 477.143 370.091 475.394 371.879C473.645 373.666 471.332 374.559 468.458 374.559C465.545 374.559 463.204 373.666 461.435 371.879C459.668 370.091 458.784 367.606 458.784 364.418V341.107H452.606V364.009C452.606 368.984 454.073 372.926 457.006 375.838C459.94 378.754 463.758 380.21 468.458 380.21C473.081 380.21 476.86 378.754 479.794 375.838C482.725 372.926 484.194 368.984 484.194 364.009V341.107H478.016L478.017 364.418Z" fill="white"/>
<path d="M515.605 358.125L511.292 356.144C511.176 356.066 511 355.968 510.767 355.852C509.487 355.192 508.729 354.804 508.496 354.687C508.261 354.571 507.854 354.271 507.27 353.785C506.688 353.299 506.329 352.833 506.194 352.386C506.056 351.939 505.968 351.366 505.93 350.665C505.93 349.191 506.473 348.045 507.562 347.227C508.649 346.412 510.048 346.003 511.758 346.003C515.059 346.003 517.762 347.558 519.86 350.664L524.173 347.343C522.968 345.245 521.268 343.576 519.071 342.332C516.878 341.088 514.438 340.467 511.758 340.467C508.338 340.467 505.464 341.44 503.133 343.38C500.802 345.325 499.635 347.829 499.635 350.898C499.635 353.347 500.383 355.396 501.881 357.046C503.376 358.699 505.619 360.205 508.611 361.564L512.864 363.545C515.001 364.556 516.478 365.439 517.293 366.196C518.111 366.954 518.518 367.994 518.518 369.313C518.518 370.945 517.907 372.247 516.683 373.219C515.459 374.189 513.856 374.675 511.874 374.675C507.949 374.675 504.589 372.634 501.793 368.555L497.421 371.879C498.937 374.482 500.957 376.52 503.483 377.997C506.007 379.474 508.825 380.211 511.934 380.211C515.664 380.211 518.743 379.182 521.169 377.122C523.598 375.063 524.811 372.383 524.811 369.08C524.811 366.594 524.084 364.517 522.628 362.845C521.169 361.175 518.828 359.603 515.605 358.125Z" fill="white"/>
<path d="M420.238 128.917L417.509 132.89L420.344 140.254C420.582 140.811 420.449 141.473 420.026 141.923C419.814 142.135 419.602 142.294 419.311 142.374C419.046 142.479 418.702 142.479 418.383 142.374L410.834 140.148L404.715 145.101C404.264 145.472 403.602 145.579 403.046 145.313C402.463 145.048 402.118 144.519 402.092 143.883L401.88 136.015L395.284 131.75C394.754 131.405 394.489 130.823 394.542 130.187C394.622 129.604 395.046 129.074 395.628 128.862L403.046 126.24L405.059 118.637C405.218 118.054 405.695 117.604 406.304 117.471C406.887 117.366 407.523 117.604 407.92 118.08L411.814 123.166L412.688 124.306L417.536 124.068L418.252 124.041L420.557 123.909C421.14 123.856 421.722 124.2 422.04 124.704C422.357 125.26 422.305 125.922 421.987 126.426L420.238 128.917Z" fill="white"/>
<path d="M420.238 128.917L417.509 132.89L420.344 140.254C420.582 140.811 420.449 141.473 420.026 141.923C419.814 142.135 419.602 142.294 419.311 142.374C419.046 142.479 418.702 142.479 418.383 142.374L410.834 140.148L404.715 145.101C404.264 145.472 403.602 145.579 403.046 145.313C402.463 145.048 402.118 144.519 402.092 143.883L401.88 136.015L395.284 131.75C394.754 131.405 394.489 130.823 394.542 130.187C394.622 129.604 395.046 129.074 395.628 128.862L403.046 126.24L405.059 118.637C405.218 118.054 405.695 117.604 406.304 117.471C406.887 117.366 407.523 117.604 407.92 118.08L411.814 123.166L412.688 124.306L417.536 124.068L418.252 124.041L420.557 123.909C421.14 123.856 421.722 124.2 422.04 124.704C422.357 125.26 422.305 125.922 421.987 126.426L420.238 128.917Z" fill="white"/>
</svg>
