<svg width="511" height="220" viewBox="0 0 511 220" fill="none" xmlns="http://www.w3.org/2000/svg">
<path d="M110.811 36.5234C108.612 36.5234 106.837 38.2984 106.837 40.4974C106.837 42.6964 108.612 44.4714 110.811 44.4714C113.009 44.4714 114.784 42.6974 114.784 40.4974C114.784 38.2984 113.009 36.5234 110.811 36.5234Z" fill="#E5320F"/>
<path d="M84.4701 44.5112C86.6615 44.3899 88.3397 42.5149 88.2183 40.3234C88.097 38.1319 86.222 36.4538 84.0305 36.5752C81.8391 36.6965 80.1609 38.5715 80.2823 40.763C80.4036 42.9544 82.2786 44.6326 84.4701 44.5112Z" fill="#E5320F"/>
<path d="M137.407 36.5234C135.208 36.5234 133.433 38.2984 133.433 40.4974C133.433 42.6964 135.208 44.4714 137.407 44.4714C139.606 44.4714 141.381 42.6974 141.381 40.4974C141.38 38.2984 139.606 36.5234 137.407 36.5234Z" fill="#E5320F"/>
<path d="M97.5131 36.5234C95.3141 36.5234 93.54 38.2984 93.54 40.4974C93.54 42.6964 95.3141 44.4714 97.5131 44.4714C99.7121 44.4714 101.487 42.6974 101.487 40.4974C101.486 38.2984 99.7121 36.5234 97.5131 36.5234Z" fill="#E5320F"/>
<path d="M124.109 36.5234C121.91 36.5234 120.135 38.2984 120.135 40.4974C120.135 42.6964 121.91 44.4714 124.109 44.4714C126.308 44.4714 128.082 42.6974 128.082 40.4974C128.082 38.2984 126.308 36.5234 124.109 36.5234Z" fill="#E5320F"/>
<path d="M203.897 44.4705C206.092 44.4705 207.871 42.6912 207.871 40.4965C207.871 38.3017 206.092 36.5225 203.897 36.5225C201.702 36.5225 199.923 38.3017 199.923 40.4965C199.923 42.6912 201.702 44.4705 203.897 44.4705Z" fill="#E5320F"/>
<path d="M243.764 36.5234C241.592 36.5234 239.791 38.2984 239.791 40.4974C239.791 42.6964 241.592 44.4714 243.764 44.4714C245.963 44.4714 247.738 42.6974 247.738 40.4974C247.737 38.2984 245.963 36.5234 243.764 36.5234Z" fill="#E5320F"/>
<path d="M164.003 44.4705C166.202 44.4705 167.977 42.6965 167.977 40.4965C167.977 38.2985 166.202 36.5225 164.003 36.5225C161.805 36.5225 160.029 38.2975 160.029 40.4965C160.029 42.6965 161.804 44.4705 164.003 44.4705Z" fill="#E5320F"/>
<path d="M150.705 44.4705C152.9 44.4705 154.679 42.6912 154.679 40.4965C154.679 38.3017 152.9 36.5225 150.705 36.5225C148.511 36.5225 146.731 38.3017 146.731 40.4965C146.731 42.6912 148.511 44.4705 150.705 44.4705Z" fill="#E5320F"/>
<path d="M230.492 44.4705C232.664 44.4705 234.439 42.6965 234.439 40.4965C234.439 38.2985 232.664 36.5225 230.492 36.5225C228.293 36.5225 226.492 38.2975 226.492 40.4965C226.492 42.6965 228.294 44.4705 230.492 44.4705Z" fill="#E5320F"/>
<path d="M70.9174 44.4705C73.1121 44.4705 74.8914 42.6912 74.8914 40.4965C74.8914 38.3017 73.1121 36.5225 70.9174 36.5225C68.7226 36.5225 66.9434 38.3017 66.9434 40.4965C66.9434 42.6912 68.7226 44.4705 70.9174 44.4705Z" fill="#E5320F"/>
<path d="M296.956 44.4705C299.155 44.4705 300.929 42.6965 300.929 40.4965C300.929 38.2985 299.155 36.5225 296.956 36.5225C294.757 36.5225 292.982 38.2975 292.982 40.4965C292.982 42.6965 294.757 44.4705 296.956 44.4705Z" fill="#E5320F"/>
<path d="M323.551 44.4697C325.326 44.4697 326.809 43.3307 327.313 41.7407L322.651 38.6147C322.095 38.2447 321.591 37.8207 321.167 37.3438C320.187 38.0328 319.578 39.1977 319.578 40.4957C319.578 42.6957 321.353 44.4697 323.551 44.4697Z" fill="#E5320F"/>
<path d="M217.194 44.4705C219.393 44.4705 221.168 42.6965 221.168 40.4965C221.168 38.2985 219.393 36.5225 217.194 36.5225C214.995 36.5225 213.22 38.2975 213.22 40.4965C213.221 42.6965 214.996 44.4705 217.194 44.4705Z" fill="#E5320F"/>
<path d="M44.3478 36.5234H44.2158C44.3478 38.0344 43.7658 39.5965 42.4148 40.7095L40.7188 42.0874C41.3278 43.4914 42.7058 44.4714 44.3478 44.4714C46.5198 44.4714 48.3218 42.6974 48.3218 40.4974C48.3208 38.2984 46.5198 36.5234 44.3478 36.5234Z" fill="#E5320F"/>
<path d="M57.6195 36.5234C55.4475 36.5234 53.6455 38.2984 53.6455 40.4974C53.6455 42.6964 55.4465 44.4714 57.6195 44.4714C59.8185 44.4714 61.5935 42.6974 61.5935 40.4974C61.5935 38.2984 59.8185 36.5234 57.6195 36.5234Z" fill="#E5320F"/>
<path d="M190.599 44.4705C192.771 44.4705 194.572 42.6965 194.572 40.4965C194.572 38.2985 192.771 36.5225 190.599 36.5225C188.4 36.5225 186.625 38.2975 186.625 40.4965C186.625 42.6965 188.4 44.4705 190.599 44.4705Z" fill="#E5320F"/>
<path d="M177.3 44.4705C179.499 44.4705 181.274 42.6965 181.274 40.4965C181.274 38.2985 179.499 36.5225 177.3 36.5225C175.101 36.5225 173.327 38.2975 173.327 40.4965C173.327 42.6965 175.102 44.4705 177.3 44.4705Z" fill="#E5320F"/>
<path d="M283.658 44.4705C285.856 44.4705 287.631 42.6965 287.631 40.4965C287.631 38.2985 285.856 36.5225 283.658 36.5225C281.459 36.5225 279.684 38.2975 279.684 40.4965C279.684 42.6965 281.459 44.4705 283.658 44.4705Z" fill="#E5320F"/>
<path d="M270.359 36.5234C268.161 36.5234 266.386 38.2984 266.386 40.4974C266.386 42.6964 268.161 44.4714 270.359 44.4714C272.558 44.4714 274.333 42.6974 274.333 40.4974C274.333 38.2984 272.558 36.5234 270.359 36.5234Z" fill="#E5320F"/>
<path d="M310.254 36.5234C308.055 36.5234 306.28 38.2984 306.28 40.4974C306.28 42.6964 308.055 44.4714 310.254 44.4714C312.453 44.4714 314.228 42.6974 314.228 40.4974C314.227 38.2984 312.452 36.5234 310.254 36.5234Z" fill="#E5320F"/>
<path d="M257.062 36.5234C254.864 36.5234 253.088 38.2984 253.088 40.4974C253.088 42.6964 254.863 44.4714 257.062 44.4714C259.261 44.4714 261.036 42.6974 261.036 40.4974C261.035 38.2984 259.26 36.5234 257.062 36.5234Z" fill="#E5320F"/>
<path d="M420.822 107.809C419.922 107.809 419.047 108.1 418.305 108.683C416.61 110.06 416.318 112.55 417.696 114.272C418.491 115.226 419.656 115.729 420.796 115.729C421.67 115.729 422.571 115.464 423.286 114.855C424.266 114.06 424.769 112.921 424.769 111.755C424.769 110.881 424.478 110.007 423.895 109.266C423.101 108.312 421.962 107.809 420.822 107.809Z" fill="#E5320F"/>
<path d="M484.133 196.496L483.63 194.059C483.021 191.198 485.935 188.893 488.584 190.138L489.114 190.403C488.346 189.635 487.365 189.264 486.385 189.264C485.485 189.264 484.61 189.556 483.868 190.138C482.173 191.516 481.908 194.006 483.259 195.728C483.524 196.045 483.816 196.311 484.133 196.496Z" fill="#E5320F"/>
<path d="M445.379 138.352C444.505 138.352 443.631 138.643 442.889 139.226C441.194 140.603 440.929 143.093 442.28 144.815C443.074 145.769 444.24 146.298 445.405 146.298C446.28 146.298 447.154 146.007 447.869 145.424C448.849 144.629 449.352 143.49 449.352 142.324C449.352 141.45 449.06 140.576 448.477 139.835C447.683 138.855 446.544 138.352 445.379 138.352Z" fill="#E5320F"/>
<path d="M412.584 97.6094C411.709 97.6094 410.836 97.9013 410.121 98.4833C408.399 99.8613 408.134 102.378 409.512 104.073C410.306 105.053 411.446 105.556 412.611 105.556C413.486 105.556 414.36 105.265 415.101 104.682C416.081 103.887 416.584 102.748 416.584 101.582C416.584 100.708 416.292 99.8343 415.709 99.0923C414.915 98.1133 413.75 97.6094 412.584 97.6094Z" fill="#E5320F"/>
<path d="M429.008 117.98C428.133 117.98 427.259 118.271 426.518 118.854C424.796 120.232 424.531 122.721 425.909 124.444C426.678 125.423 427.843 125.927 429.009 125.927C429.883 125.927 430.757 125.635 431.499 125.052C432.479 124.258 432.982 123.118 432.982 121.953C432.982 121.079 432.69 120.179 432.107 119.464C431.313 118.484 430.173 117.98 429.008 117.98Z" fill="#E5320F"/>
<path d="M469.961 168.894C469.087 168.894 468.213 169.186 467.471 169.769C465.776 171.146 465.511 173.636 466.888 175.358C467.656 176.338 468.822 176.841 469.987 176.841C470.862 176.841 471.736 176.55 472.477 175.967C473.431 175.172 473.934 174.033 473.934 172.867C473.934 171.993 473.642 171.119 473.06 170.377C472.266 169.398 471.127 168.894 469.961 168.894Z" fill="#E5320F"/>
<path d="M453.59 148.523C452.716 148.523 451.841 148.814 451.1 149.397C449.378 150.774 449.113 153.291 450.491 154.986C451.285 155.966 452.425 156.469 453.59 156.469C454.464 156.469 455.339 156.178 456.08 155.595C457.06 154.801 457.564 153.635 457.564 152.47C457.564 151.595 457.272 150.721 456.689 150.006C455.895 149.026 454.756 148.523 453.59 148.523Z" fill="#E5320F"/>
<path d="M478.147 179.066C477.273 179.066 476.399 179.357 475.684 179.94C473.962 181.317 473.697 183.834 475.075 185.529C475.869 186.509 477.009 187.012 478.174 187.012C479.049 187.012 479.923 186.721 480.664 186.138C481.644 185.343 482.147 184.204 482.147 183.039C482.147 182.164 481.855 181.29 481.273 180.549C480.478 179.569 479.312 179.066 478.147 179.066Z" fill="#E5320F"/>
<path d="M461.802 158.721C460.901 158.721 460.027 159.013 459.285 159.595C457.59 160.947 457.298 163.463 458.676 165.158C459.471 166.137 460.61 166.641 461.776 166.641C462.65 166.641 463.524 166.376 464.266 165.766C465.246 164.972 465.749 163.832 465.749 162.667C465.749 161.793 465.458 160.919 464.875 160.177C464.08 159.225 462.942 158.721 461.802 158.721Z" fill="#E5320F"/>
<path d="M437.193 128.152C436.319 128.152 435.445 128.444 434.703 129.026C432.981 130.404 432.716 132.921 434.094 134.616C434.888 135.596 436.028 136.099 437.193 136.099C438.068 136.099 438.942 135.807 439.683 135.225C440.663 134.43 441.166 133.29 441.166 132.125C441.166 131.251 440.874 130.377 440.292 129.635C439.498 128.656 438.359 128.152 437.193 128.152Z" fill="#E5320F"/>
<path d="M404.425 87.4375C403.551 87.4375 402.677 87.7284 401.935 88.3114C400.213 89.6894 399.948 92.1795 401.326 93.9015C402.094 94.8805 403.26 95.3844 404.425 95.3844C405.3 95.3844 406.174 95.0925 406.915 94.5105C407.895 93.7155 408.398 92.5754 408.398 91.4104C408.398 90.5364 408.106 89.6354 407.524 88.9204C406.73 87.9404 405.591 87.4375 404.425 87.4375Z" fill="#E5320F"/>
<path d="M386.518 69.2115L384.85 68.6826C383.764 70.0866 383.764 72.0995 384.93 73.5305C385.724 74.5105 386.864 75.0135 388.029 75.0135C388.903 75.0135 389.778 74.7225 390.519 74.1395C391.499 73.3445 392.002 72.1795 392.002 71.0135C392.002 70.4305 391.87 69.8486 391.605 69.3186C390.015 69.7426 388.293 69.7685 386.518 69.2115Z" fill="#E5320F"/>
<path d="M396.24 77.2656C395.339 77.2656 394.465 77.5565 393.723 78.1395C392.028 79.4905 391.736 82.0066 393.114 83.7026C393.909 84.6826 395.048 85.1855 396.214 85.1855C397.088 85.1855 397.962 84.9205 398.704 84.3115C399.684 83.5165 400.187 82.3775 400.187 81.2115C400.187 80.3375 399.896 79.4635 399.313 78.7225C398.518 77.7685 397.379 77.2656 396.24 77.2656Z" fill="#E5320F"/>
<path d="M387.842 61.9802C388.478 61.7682 389.087 61.4242 389.591 60.9202C390.624 59.8082 390.942 58.2182 390.439 56.7882L383.737 38.5623L394.969 22.7212C395.843 21.4762 395.949 19.8602 395.234 18.5352C394.519 17.2102 393.088 16.3893 391.579 16.4423L372.188 17.1842L360.585 1.60816C359.685 0.389161 358.175 -0.219728 356.691 0.0722722C355.208 0.337272 353.989 1.42326 353.591 2.88026L348.267 21.5552L329.883 27.7813C328.426 28.2583 327.393 29.5292 327.208 31.0122C326.996 32.5222 327.685 34.0053 328.93 34.8533L333.725 38.0592L340.268 42.4562L345.062 45.6613L345.274 65.0783C345.3 66.5883 346.175 67.9662 347.526 68.6282C348.903 69.2642 350.519 69.1053 351.711 68.1513L366.969 56.1773L376.267 59.0642L383.737 61.3962L385.512 61.9523C386.279 62.1923 387.101 62.1922 387.842 61.9802Z" fill="white"/>
<path d="M37.461 35.2525L26.785 32.7085L22.838 22.4574C22.52 21.6624 21.805 21.1055 20.931 21.0265C20.083 20.9475 19.262 21.3435 18.812 22.0865L13.0899 31.4635L2.12303 32.0466C1.27503 32.0996 0.506947 32.6295 0.188947 33.3985C-0.155053 34.1925 -0.0229367 35.0935 0.533063 35.7555L7.68504 44.0995L4.85106 54.6965C4.74506 55.1465 4.74504 55.5965 4.90404 56.0205C5.03604 56.3915 5.24802 56.7086 5.54002 56.9736C6.20202 57.5306 7.10295 57.6895 7.89696 57.3705L18.016 53.1585L27.261 59.1195C27.976 59.5695 28.877 59.5965 29.618 59.1455C30.36 58.7215 30.784 57.9005 30.704 57.0525L29.829 46.1125L38.359 39.1725C39.021 38.6425 39.313 37.7685 39.128 36.9465C38.944 36.0995 38.308 35.4375 37.461 35.2525Z" fill="white"/>
<path d="M509.987 207.33L504.133 202.085L505.166 194.271C505.246 193.662 504.981 193.079 504.451 192.734C503.948 192.39 503.285 192.364 502.755 192.681L495.947 196.602L490.252 193.9L488.848 193.238C488.292 192.973 487.63 193.052 487.153 193.424C486.676 193.795 486.438 194.431 486.57 195.013L487.02 197.132L488.212 202.722L482.808 208.444C482.384 208.868 482.252 209.53 482.464 210.113C482.676 210.67 483.206 211.093 483.815 211.146L491.629 211.967L495.391 218.881C495.55 219.146 495.788 219.384 496.079 219.543C496.317 219.648 496.582 219.729 496.874 219.701C497.483 219.675 498.04 219.305 498.278 218.748L501.483 211.569L509.218 210.112C509.827 210.006 510.304 209.555 510.463 208.973C510.623 208.39 510.438 207.754 509.987 207.33Z" fill="white"/>
<path d="M177.415 102.762L160.455 141.866H167.041L169.779 135.456H187.088L189.826 141.866H196.47L179.512 102.762H177.415ZM171.994 130.152L178.464 114.243L184.875 130.152H171.994Z" fill="white"/>
<path d="M234.729 121.819C236.03 119.915 236.682 117.701 236.682 115.173C236.682 111.717 235.476 108.89 233.068 106.696C230.658 104.5 227.511 103.403 223.627 103.403H209.583V141.865H215.761V127.006H222.812L233.769 141.865H240.821L229.282 126.014C231.612 125.12 233.428 123.722 234.729 121.819ZM223.511 121.526H215.761V108.879H223.511C225.609 108.879 227.27 109.464 228.493 110.628C229.717 111.795 230.33 113.329 230.33 115.232C230.33 117.136 229.717 118.663 228.493 119.806C227.27 120.955 225.609 121.526 223.511 121.526Z" fill="white"/>
<path d="M259.528 103.403H253.35V141.865H259.528V103.403Z" fill="white"/>
<path d="M282.372 124.149H296.766V118.787H282.372V108.938H301.487V103.403H276.195V141.865H302.187V136.329H282.372V124.149Z" fill="white"/>
<path d="M331.789 120.419L327.476 118.437C327.36 118.36 327.185 118.261 326.952 118.145C325.67 117.486 324.912 117.097 324.68 116.981C324.446 116.865 324.038 116.565 323.455 116.079C322.872 115.593 322.513 115.127 322.377 114.679C322.24 114.232 322.153 113.66 322.114 112.959C322.114 111.484 322.656 110.338 323.745 109.521C324.831 108.707 326.232 108.297 327.942 108.297C331.243 108.297 333.944 109.852 336.042 112.959L340.356 109.638C339.15 107.539 337.45 105.871 335.255 104.627C333.06 103.382 330.623 102.762 327.943 102.762C324.524 102.762 321.65 103.735 319.318 105.674C316.986 107.619 315.82 110.124 315.82 113.192C315.82 115.642 316.567 117.691 318.063 119.341C319.558 120.994 321.802 122.499 324.795 123.858L329.049 125.839C331.184 126.851 332.662 127.733 333.478 128.49C334.294 129.249 334.702 130.289 334.702 131.607C334.702 133.24 334.09 134.541 332.867 135.513C331.643 136.484 330.04 136.97 328.058 136.97C324.134 136.97 320.774 134.929 317.976 130.849L313.604 134.173C315.119 136.776 317.14 138.815 319.666 140.291C322.191 141.769 325.007 142.506 328.115 142.506C331.845 142.506 334.925 141.476 337.353 139.417C339.781 137.357 340.995 134.678 340.995 131.374C340.995 128.888 340.267 126.811 338.81 125.14C337.355 123.469 335.013 121.896 331.789 120.419Z" fill="white"/>
</svg>
