<svg width="468" height="477" viewBox="0 0 468 477" fill="none" xmlns="http://www.w3.org/2000/svg">
<path d="M118.166 257.554C117.9 257.5 117.662 257.474 117.397 257.474C115.543 257.474 113.874 258.798 113.502 260.705C113.106 262.851 114.509 264.917 116.654 265.342C116.92 265.395 117.158 265.421 117.423 265.421C119.277 265.421 120.946 264.096 121.318 262.19C121.371 261.951 121.397 261.712 121.397 261.448C121.398 259.593 120.074 257.898 118.166 257.554Z" fill="#E5320F"/>
<path d="M104.922 254.984C104.656 254.931 104.418 254.905 104.153 254.905C102.299 254.905 100.631 256.256 100.259 258.136C99.8616 260.282 101.265 262.374 103.411 262.798C103.676 262.852 103.914 262.852 104.152 262.852C106.033 262.852 107.702 261.554 108.073 259.646C108.126 259.408 108.152 259.143 108.152 258.905C108.154 257.024 106.83 255.355 104.922 254.984Z" fill="#E5320F"/>
<path d="M78.4314 249.872C78.1664 249.819 77.9283 249.793 77.6633 249.793C75.8093 249.793 74.1403 251.144 73.7683 253.024C73.3713 255.17 74.7754 257.262 76.9204 257.686C77.1854 257.739 77.4243 257.739 77.6623 257.739C79.5423 257.739 81.2113 256.441 81.5823 254.534C81.6353 254.296 81.6623 254.031 81.6623 253.793C81.6633 251.912 80.3384 250.243 78.4314 249.872Z" fill="#E5320F"/>
<path d="M91.6763 252.441C91.4113 252.388 91.1732 252.362 90.9072 252.362C89.0532 252.362 87.3854 253.686 87.0134 255.567C86.6164 257.739 88.0203 259.805 90.1653 260.229C90.4303 260.282 90.6683 260.309 90.9343 260.309C92.7883 260.309 94.4564 258.984 94.8284 257.077C94.8814 256.839 94.9072 256.6 94.9072 256.336C94.9082 254.481 93.5833 252.786 91.6763 252.441Z" fill="#E5320F"/>
<path d="M131.412 260.097C131.173 260.043 130.934 260.017 130.67 260.017C128.816 260.017 127.12 261.342 126.749 263.249C126.352 265.395 127.756 267.487 129.901 267.911C130.167 267.937 130.405 267.964 130.67 267.964C132.524 267.964 134.193 266.666 134.565 264.759C134.618 264.521 134.644 264.281 134.644 264.017C134.643 262.163 133.318 260.467 131.412 260.097Z" fill="#E5320F"/>
<path d="M161.132 269.129C161.132 267.275 159.808 265.58 157.901 265.209C157.663 265.156 157.424 265.129 157.16 265.129C155.306 265.129 153.61 266.454 153.239 268.361C152.815 270.507 154.246 272.599 156.391 273.023C156.656 273.076 156.894 273.102 157.16 273.102C159.014 273.102 160.682 271.778 161.054 269.871C161.107 269.633 161.132 269.395 161.132 269.129Z" fill="#E5320F"/>
<path d="M170.377 267.7C168.523 267.7 166.855 269.024 166.483 270.905C166.059 273.077 167.49 275.17 169.635 275.567C169.9 275.62 170.138 275.646 170.376 275.646C172.257 275.646 173.926 274.322 174.297 272.441C174.35 272.203 174.376 271.938 174.376 271.7C174.376 269.819 173.052 268.124 171.145 267.779C170.881 267.726 170.643 267.7 170.377 267.7Z" fill="#E5320F"/>
<path d="M144.656 262.667C144.391 262.613 144.153 262.587 143.888 262.587C142.034 262.587 140.365 263.912 139.993 265.793C139.596 267.965 141 270.058 143.145 270.455C143.411 270.508 143.649 270.534 143.887 270.534C145.768 270.534 147.436 269.21 147.807 267.303C147.861 267.065 147.887 266.826 147.887 266.561C147.888 264.706 146.563 263.01 144.656 262.667Z" fill="#E5320F"/>
<path d="M196.126 280.679C196.391 280.733 196.629 280.759 196.894 280.759C198.748 280.759 200.417 279.434 200.789 277.553C200.842 277.315 200.868 277.05 200.868 276.812C200.868 274.931 199.544 273.262 197.637 272.891C197.371 272.838 197.133 272.812 196.868 272.812C195.014 272.812 193.345 274.136 192.974 276.043C192.55 278.189 193.98 280.282 196.126 280.679Z" fill="#E5320F"/>
<path d="M210.139 275.355C208.285 275.355 206.589 276.679 206.218 278.586C205.794 280.732 207.225 282.824 209.37 283.249C209.636 283.302 209.874 283.328 210.112 283.328C211.993 283.328 213.662 282.004 214.032 280.097C214.086 279.858 214.112 279.619 214.112 279.355C214.112 277.501 212.788 275.805 210.881 275.434C210.642 275.381 210.404 275.355 210.139 275.355Z" fill="#E5320F"/>
<path d="M223.358 277.924C221.477 277.924 219.835 279.249 219.463 281.156C219.039 283.302 220.47 285.394 222.615 285.791C222.88 285.845 223.119 285.871 223.384 285.871C224.444 285.871 225.45 285.447 226.165 284.679C226.377 284.043 226.722 283.46 227.198 282.957C227.224 282.852 227.251 282.771 227.277 282.666C227.331 282.428 227.357 282.162 227.357 281.924C227.357 280.043 226.032 278.348 224.125 278.004C223.861 277.951 223.596 277.924 223.358 277.924Z" fill="#E5320F"/>
<path d="M187.622 274.243C187.622 272.389 186.298 270.693 184.391 270.322C184.126 270.269 183.888 270.243 183.622 270.243C181.768 270.243 180.099 271.594 179.728 273.474C179.304 275.646 180.735 277.712 182.88 278.136C183.145 278.189 183.383 278.216 183.648 278.216C185.502 278.216 187.171 276.891 187.543 274.984C187.596 274.746 187.622 274.507 187.622 274.243Z" fill="#E5320F"/>
<path d="M65.186 247.329C64.921 247.276 64.683 247.25 64.418 247.25C62.564 247.25 60.8952 248.574 60.5232 250.455C60.1262 252.627 61.53 254.693 63.675 255.117C63.94 255.17 64.179 255.196 64.417 255.196C66.298 255.196 67.9672 253.872 68.3372 251.965C68.3912 251.727 68.417 251.488 68.417 251.224C68.418 249.369 67.093 247.673 65.186 247.329Z" fill="#E5320F"/>
<path d="M38.6968 242.19C38.4588 242.136 38.2189 242.11 37.9549 242.11C36.1009 242.11 34.4049 243.434 34.0349 245.342C33.6379 247.514 35.0408 249.58 37.1868 250.004C37.4248 250.057 37.6898 250.083 37.9278 250.083C39.8088 250.083 41.4779 248.759 41.8489 246.852C41.9019 246.614 41.9278 246.374 41.9278 246.11C41.9278 244.255 40.6038 242.56 38.6968 242.19Z" fill="#E5320F"/>
<path d="M51.9411 244.759C51.6761 244.705 51.4381 244.68 51.1731 244.68C49.3191 244.68 47.6501 246.004 47.2781 247.911C46.8811 250.057 48.2852 252.149 50.4302 252.573C50.6962 252.599 50.934 252.626 51.199 252.626C53.053 252.626 54.722 251.302 55.093 249.421C55.147 249.183 55.1731 248.918 55.1731 248.679C55.1731 246.799 53.8491 245.13 51.9411 244.759Z" fill="#E5320F"/>
<path d="M221.689 341.686C221.106 341.394 220.497 341.235 219.887 341.235C218.43 341.235 217.053 342.03 216.337 343.408C215.331 345.368 216.099 347.752 218.06 348.759C218.642 349.051 219.251 349.209 219.861 349.209C221.318 349.209 222.696 348.415 223.411 347.037C223.702 346.454 223.861 345.845 223.861 345.235C223.861 343.779 223.066 342.401 221.689 341.686Z" fill="#E5320F"/>
<path d="M209.874 365.05C209.529 364.944 209.16 364.917 208.815 364.917C207.066 364.917 205.476 366.056 205 367.805C204.391 369.924 205.637 372.122 207.756 372.705C208.1 372.81 208.471 372.863 208.816 372.863C210.564 372.863 212.152 371.698 212.656 369.95C212.761 369.605 212.789 369.234 212.789 368.89C212.788 367.142 211.649 365.527 209.874 365.05Z" fill="#E5320F"/>
<path d="M209.291 381.473C209.291 381.818 209.238 382.189 209.132 382.56C208.867 383.593 208.205 384.414 207.358 384.917L203.994 378.745L202.617 378.586C203.332 377.897 204.311 377.526 205.318 377.526C205.663 377.526 206.033 377.552 206.378 377.658C208.126 378.163 209.291 379.752 209.291 381.473Z" fill="#E5320F"/>
<path d="M215.941 353.951C214.775 353.951 213.609 354.242 212.47 354.851L209.953 356.334C210.006 355.91 210.139 355.486 210.35 355.063C211.065 353.686 212.443 352.891 213.873 352.891C214.482 352.891 215.118 353.05 215.701 353.341C216.045 353.527 216.363 353.738 216.628 354.003C216.417 353.951 216.179 353.951 215.941 353.951Z" fill="#E5320F"/>
<path d="M216.841 359.54C216.072 360.388 214.987 360.839 213.874 360.839C213.583 360.839 213.265 360.812 212.946 360.733L215.119 359.462C215.648 359.171 216.31 359.171 216.814 359.515L216.841 359.54Z" fill="#E5320F"/>
<path d="M227.702 330.057C227.12 329.765 226.483 329.605 225.874 329.605C224.443 329.605 223.065 330.4 222.351 331.751C221.344 333.711 222.114 336.121 224.047 337.102C224.63 337.419 225.265 337.552 225.874 337.552C227.304 337.552 228.708 336.783 229.396 335.406C229.688 334.823 229.847 334.187 229.847 333.578C229.847 332.148 229.053 330.772 227.702 330.057Z" fill="#E5320F"/>
<path d="M239.225 307.169L239.172 306.56C238.748 306.401 238.324 306.322 237.874 306.322C236.417 306.322 235.039 307.117 234.324 308.494C233.344 310.428 234.086 312.839 236.046 313.819C236.629 314.136 237.238 314.269 237.874 314.269C239.304 314.269 240.682 313.5 241.396 312.123C241.582 311.779 241.688 311.408 241.767 311.037C240.417 310.295 239.384 308.944 239.225 307.169Z" fill="#E5320F"/>
<path d="M190.246 435.804C190.59 435.91 190.961 435.937 191.306 435.937C193.054 435.937 194.643 434.797 195.12 433.049C195.225 432.678 195.279 432.307 195.279 431.963C195.279 430.215 194.113 428.625 192.365 428.149C192.02 428.043 191.65 428.016 191.306 428.016C189.557 428.016 187.941 429.156 187.463 430.93C186.881 433.023 188.126 435.221 190.246 435.804Z" fill="#E5320F"/>
<path d="M193.742 423.195C194.087 423.275 194.458 423.328 194.802 423.328C196.551 423.328 198.14 422.188 198.643 420.414C198.749 420.069 198.776 419.699 198.776 419.354C198.776 417.606 197.637 416.016 195.862 415.513C195.518 415.407 195.147 415.38 194.802 415.38C193.054 415.38 191.464 416.52 190.988 418.294C190.377 420.414 191.622 422.585 193.742 423.195Z" fill="#E5320F"/>
<path d="M199.384 402.904C199.039 402.799 198.669 402.771 198.324 402.771C196.576 402.771 194.96 403.911 194.483 405.685C193.9 407.778 195.119 409.977 197.238 410.559C197.609 410.665 197.953 410.719 198.298 410.719C200.046 410.719 201.662 409.553 202.139 407.804C202.245 407.46 202.272 407.089 202.272 406.744C202.272 404.997 201.132 403.38 199.384 402.904Z" fill="#E5320F"/>
<path d="M233.69 318.401C233.107 318.11 232.498 317.977 231.862 317.977C230.431 317.977 229.054 318.746 228.339 320.123C227.333 322.084 228.101 324.468 230.062 325.475C230.644 325.766 231.253 325.925 231.863 325.925C233.32 325.925 234.697 325.13 235.413 323.753C235.704 323.17 235.863 322.561 235.863 321.951C235.862 320.494 235.067 319.117 233.69 318.401Z" fill="#E5320F"/>
<path d="M202.881 390.294C202.51 390.189 202.165 390.162 201.821 390.162C200.072 390.162 198.457 391.301 197.979 393.049C197.397 395.169 198.641 397.367 200.734 397.95C201.105 398.055 201.45 398.082 201.821 398.082C203.569 398.082 205.159 396.943 205.635 395.169C205.74 394.824 205.767 394.453 205.767 394.108C205.768 392.387 204.629 390.771 202.881 390.294Z" fill="#E5320F"/>
<path d="M277.768 255.832C276.761 255.832 275.754 256.203 274.987 256.972C273.397 258.482 273.371 261.025 274.907 262.587C275.676 263.382 276.709 263.779 277.742 263.779C278.749 263.779 279.755 263.408 280.523 262.64C281.318 261.871 281.715 260.838 281.715 259.779C281.715 258.799 281.344 257.793 280.602 257.024C279.834 256.229 278.801 255.832 277.768 255.832Z" fill="#E5320F"/>
<path d="M377.529 120.23C376.893 119.859 376.178 119.673 375.49 119.673C374.138 119.673 372.814 120.362 372.072 121.608C370.933 123.489 371.569 125.925 373.45 127.065C374.086 127.435 374.774 127.621 375.463 127.621C376.841 127.621 378.139 126.933 378.881 125.687C379.278 125.025 379.463 124.309 379.463 123.621C379.462 122.27 378.774 120.972 377.529 120.23Z" fill="#E5320F"/>
<path d="M370.853 131.382C370.217 131.011 369.529 130.825 368.84 130.825C367.489 130.825 366.164 131.514 365.423 132.76C364.283 134.667 364.919 137.104 366.8 138.216C367.436 138.587 368.125 138.773 368.84 138.773C370.191 138.773 371.516 138.085 372.257 136.839C372.628 136.203 372.814 135.515 372.814 134.825C372.814 133.475 372.125 132.151 370.853 131.382Z" fill="#E5320F"/>
<path d="M344.285 176.018C343.648 175.647 342.933 175.461 342.245 175.461C340.893 175.461 339.569 176.149 338.828 177.395C337.715 179.276 338.324 181.74 340.205 182.852C340.841 183.223 341.557 183.409 342.245 183.409C343.596 183.409 344.92 182.721 345.662 181.475C346.033 180.839 346.219 180.15 346.219 179.461C346.218 178.085 345.529 176.759 344.285 176.018Z" fill="#E5320F"/>
<path d="M384.152 109.078C383.515 108.681 382.827 108.521 382.138 108.521C380.787 108.521 379.462 109.21 378.721 110.456C377.581 112.337 378.217 114.773 380.099 115.887C380.734 116.283 381.423 116.469 382.112 116.469C383.489 116.469 384.787 115.754 385.555 114.509C385.926 113.873 386.112 113.185 386.112 112.495C386.112 111.144 385.423 109.82 384.152 109.078Z" fill="#E5320F"/>
<path d="M357.582 153.713C356.946 153.316 356.23 153.156 355.542 153.156C354.19 153.156 352.866 153.844 352.124 155.09C350.985 156.971 351.621 159.408 353.502 160.521C354.138 160.918 354.826 161.104 355.542 161.104C356.893 161.104 358.218 160.389 358.959 159.144C359.33 158.508 359.516 157.819 359.516 157.13C359.516 155.78 358.827 154.455 357.582 153.713Z" fill="#E5320F"/>
<path d="M350.933 164.866C350.297 164.495 349.582 164.309 348.893 164.309C347.542 164.309 346.218 164.997 345.476 166.243C344.364 168.124 344.973 170.561 346.854 171.7C347.49 172.071 348.205 172.257 348.893 172.257C350.245 172.257 351.569 171.569 352.311 170.323C352.681 169.687 352.867 168.971 352.867 168.283C352.867 166.932 352.178 165.607 350.933 164.866Z" fill="#E5320F"/>
<path d="M390.8 97.8987C390.164 97.5277 389.476 97.3428 388.786 97.3428C387.435 97.3428 386.111 98.0307 385.369 99.2767C384.23 101.184 384.866 103.621 386.747 104.734C387.383 105.104 388.071 105.29 388.786 105.29C390.138 105.29 391.435 104.602 392.204 103.356C392.574 102.72 392.76 102.032 392.76 101.342C392.76 99.9917 392.045 98.6677 390.8 97.8987Z" fill="#E5320F"/>
<path d="M404.098 75.5941C403.462 75.2241 402.774 75.0381 402.085 75.0381C400.733 75.0381 399.409 75.726 398.667 76.972C397.528 78.853 398.164 81.2891 400.045 82.4291C400.681 82.7991 401.369 82.9851 402.058 82.9851C403.41 82.9851 404.734 82.297 405.476 81.025C405.872 80.389 406.058 79.6741 406.058 78.9851C406.058 77.6341 405.343 76.3361 404.098 75.5941Z" fill="#E5320F"/>
<path d="M410.033 64.0977C409.608 63.9387 409.158 63.8857 408.734 63.8857C407.383 63.8857 406.058 64.5737 405.317 65.8197C404.178 67.7007 404.814 70.1367 406.694 71.2507C407.331 71.6477 408.019 71.8068 408.708 71.8068C409.397 71.8068 410.059 71.6487 410.642 71.3297C410.298 70.4027 410.086 69.3697 410.086 68.2837L410.033 64.0977Z" fill="#E5320F"/>
<path d="M397.45 86.7474C396.814 86.3764 396.125 86.1914 395.436 86.1914C394.085 86.1914 392.76 86.8795 392.019 88.1255C390.88 90.0065 391.514 92.4694 393.395 93.5824C394.032 93.9524 394.721 94.1384 395.41 94.1384C396.787 94.1384 398.086 93.4505 398.827 92.2045C399.224 91.5685 399.384 90.8804 399.384 90.1914C399.383 88.8134 398.694 87.4894 397.45 86.7474Z" fill="#E5320F"/>
<path d="M364.205 142.535C363.569 142.164 362.881 141.978 362.191 141.978C360.84 141.978 359.516 142.667 358.774 143.938C357.635 145.82 358.271 148.256 360.152 149.369C360.788 149.766 361.476 149.926 362.191 149.926C363.543 149.926 364.84 149.238 365.609 147.992C365.98 147.356 366.165 146.668 366.165 145.978C366.164 144.627 365.476 143.303 364.205 142.535Z" fill="#E5320F"/>
<path d="M268.444 264.891C267.464 264.891 266.457 265.262 265.689 266.031C264.152 267.514 264.073 269.898 265.451 271.462L268.311 271.117C269.397 270.984 270.404 271.222 271.251 271.674C272.046 270.879 272.417 269.872 272.417 268.865C272.417 267.858 272.046 266.879 271.304 266.11C270.537 265.289 269.476 264.891 268.444 264.891Z" fill="#E5320F"/>
<path d="M287.039 246.746C286.059 246.746 285.052 247.117 284.284 247.886C282.694 249.422 282.668 251.939 284.204 253.501C284.973 254.296 286.006 254.72 287.039 254.72C288.046 254.72 289.052 254.323 289.82 253.581C290.615 252.786 291.012 251.753 291.012 250.72C291.012 249.713 290.641 248.734 289.899 247.965C289.132 247.143 288.073 246.746 287.039 246.746Z" fill="#E5320F"/>
<path d="M305.635 228.627C304.628 228.627 303.649 228.998 302.88 229.74C301.291 231.276 301.264 233.793 302.801 235.355C303.569 236.176 304.602 236.574 305.635 236.574C306.642 236.574 307.648 236.203 308.416 235.434C309.211 234.64 309.608 233.607 309.608 232.574C309.608 231.567 309.237 230.588 308.495 229.819C307.702 229.024 306.668 228.627 305.635 228.627Z" fill="#E5320F"/>
<path d="M296.364 237.686C295.357 237.686 294.351 238.057 293.583 238.826C291.994 240.362 291.967 242.879 293.504 244.441C294.298 245.236 295.305 245.633 296.364 245.633C297.344 245.633 298.351 245.262 299.119 244.521C299.914 243.726 300.311 242.693 300.311 241.66C300.311 240.653 299.94 239.647 299.199 238.879C298.43 238.084 297.397 237.686 296.364 237.686Z" fill="#E5320F"/>
<path d="M314.933 219.541C313.953 219.541 312.947 219.912 312.178 220.681C310.615 222.217 310.562 224.734 312.099 226.296C312.894 227.091 313.926 227.488 314.959 227.488C315.939 227.488 316.946 227.117 317.714 226.376C318.509 225.581 318.906 224.548 318.906 223.515C318.906 222.508 318.535 221.529 317.794 220.76C317.026 219.938 315.966 219.541 314.933 219.541Z" fill="#E5320F"/>
<path d="M337.635 187.197C336.999 186.8 336.284 186.64 335.595 186.64C334.244 186.64 332.919 187.328 332.178 188.574C331.066 190.455 331.675 192.892 333.556 194.005C334.191 194.402 334.907 194.562 335.595 194.562C336.947 194.562 338.271 193.873 339.013 192.628C339.383 191.992 339.569 191.303 339.569 190.614C339.569 189.262 338.88 187.938 337.635 187.197Z" fill="#E5320F"/>
<path d="M466.615 18.536C465.9 17.211 464.496 16.3899 462.986 16.4429L443.569 17.1839L431.966 1.60786C431.065 0.389858 429.555 -0.219153 428.071 0.0718472C426.588 0.336847 425.37 1.42295 424.972 2.87995L419.647 21.5559L401.264 27.781C399.833 28.259 398.8 29.5299 398.588 31.0129C398.402 32.5229 399.064 34.006 400.309 34.854L416.443 45.6619L416.521 52.8669L416.601 60.4429L416.654 65.0789C416.68 66.5899 417.555 67.9669 418.933 68.6289C420.284 69.2649 421.899 69.1059 423.09 68.1519L438.375 56.1779L456.892 61.9519C457.686 62.1908 458.482 62.191 459.224 61.979C459.886 61.7669 460.469 61.4219 460.972 60.9189C462.005 59.8059 462.348 58.217 461.819 56.786L455.143 38.5609L466.375 22.7189C467.25 21.4759 467.33 19.86 466.615 18.536Z" fill="white"/>
<path d="M192.708 453.95L195.967 443.46C196.232 442.666 195.993 441.765 195.384 441.183C194.748 440.574 193.848 440.388 193.053 440.679L190.457 441.633L183.86 444.07L182.748 444.467L173.795 438.11C173.079 437.633 172.179 437.581 171.41 437.978C170.669 438.374 170.219 439.169 170.245 440.043L170.642 451.01L161.847 457.58C161.159 458.083 160.814 458.931 160.973 459.778C161.131 460.626 161.741 461.288 162.562 461.526L173.131 464.547L176.654 474.931C176.787 475.381 177.051 475.752 177.396 476.017C177.713 476.229 178.084 476.388 178.482 476.441C179.33 476.574 180.151 476.176 180.628 475.461L186.747 466.349L197.74 466.217C198.588 466.217 199.383 465.713 199.727 464.945C200.097 464.177 200.018 463.276 199.488 462.588L192.708 453.95Z" fill="white"/>
<path d="M266.589 275.09L262.377 275.593L255.701 276.414L255.569 276.255L248.443 268.176C247.86 267.54 246.986 267.276 246.165 267.488C245.344 267.7 244.708 268.388 244.549 269.21L242.43 279.991L239.146 281.422L232.656 284.23L232.338 284.363C231.544 284.68 231.04 285.449 230.987 286.297C230.934 287.145 231.384 287.966 232.126 288.39L241.716 293.741L241.848 295.198L242.537 302.403L242.749 304.655C242.828 305.529 243.385 306.245 244.206 306.562C245 306.853 245.901 306.695 246.511 306.112L254.564 298.641L265.293 301.026C265.743 301.131 266.193 301.105 266.591 300.946C266.962 300.788 267.279 300.576 267.544 300.258C268.074 299.596 268.18 298.669 267.836 297.901L263.2 287.941L268.815 278.484C269.239 277.742 269.212 276.815 268.762 276.1C268.285 275.381 267.437 275.01 266.589 275.09Z" fill="white"/>
<path d="M25.371 240.096L21.768 236.838L22.8009 229.049C22.8809 228.44 22.5891 227.83 22.0861 227.486C21.5821 227.141 20.92 227.142 20.391 227.434L13.5829 231.38L6.48307 227.989C5.92607 227.724 5.264 227.802 4.788 228.174C4.311 228.571 4.07199 229.182 4.20499 229.791L5.84806 237.472L0.444005 243.194C0.0200046 243.645 -0.11299 244.282 0.10001 244.864C0.31201 245.447 0.841085 245.844 1.45108 245.897L9.26505 246.718L13.027 253.632C13.186 253.923 13.4241 254.16 13.6891 254.293C13.9541 254.426 14.2189 254.48 14.5099 254.48C15.1189 254.454 15.676 254.083 15.914 253.526L19.1191 246.32L23.86 245.446L26.8529 244.89C27.4359 244.785 27.94 244.334 28.099 243.725C28.257 243.142 28.072 242.506 27.621 242.109L25.371 240.096Z" fill="white"/>
<path d="M222.828 375.752C222.67 376.361 222.166 376.812 221.583 376.918L218.59 377.474L213.849 378.349L210.643 385.554C210.405 386.11 209.849 386.481 209.24 386.507C208.948 386.507 208.683 386.454 208.419 386.321C208.153 386.189 207.916 385.951 207.757 385.659L207.36 384.918L203.996 378.746L202.619 378.587L196.181 377.925C195.572 377.871 195.042 377.474 194.829 376.892C194.618 376.309 194.75 375.673 195.174 375.223L200.578 369.501L198.935 361.818C198.802 361.209 199.04 360.599 199.518 360.202C199.995 359.832 200.657 359.753 201.213 360.017L208.312 363.408L212.921 360.732H212.947L215.12 359.461C215.649 359.17 216.311 359.17 216.815 359.514L216.841 359.54C217.318 359.885 217.609 360.468 217.529 361.077L216.496 368.865L220.099 372.123L222.351 374.137C222.801 374.533 222.987 375.169 222.828 375.752Z" fill="white"/>
<path d="M222.828 375.752C222.67 376.361 222.166 376.812 221.583 376.918L218.59 377.474L213.849 378.349L210.643 385.554C210.405 386.11 209.849 386.481 209.24 386.507C208.948 386.507 208.683 386.454 208.419 386.321C208.153 386.189 207.916 385.951 207.757 385.659L207.36 384.918L203.996 378.746L202.619 378.587L196.181 377.925C195.572 377.871 195.042 377.474 194.829 376.892C194.618 376.309 194.75 375.673 195.174 375.223L200.578 369.501L198.935 361.818C198.802 361.209 199.04 360.599 199.518 360.202C199.995 359.832 200.657 359.753 201.213 360.017L208.312 363.408L212.921 360.732H212.947L215.12 359.461C215.649 359.17 216.311 359.17 216.815 359.514L216.841 359.54C217.318 359.885 217.609 360.468 217.529 361.077L216.496 368.865L220.099 372.123L222.351 374.137C222.801 374.533 222.987 375.169 222.828 375.752Z" fill="white"/>
<path d="M332.656 207.223L333.451 199.62C333.53 199.037 333.239 198.454 332.736 198.137C332.232 197.819 331.596 197.819 331.093 198.137L330.855 198.269L324.974 201.845L324.55 202.11L317.583 199.011C317.026 198.746 316.391 198.852 315.94 199.223C315.489 199.594 315.278 200.202 315.41 200.786L317.185 208.23L312.073 213.899C311.676 214.349 311.569 214.985 311.781 215.541C311.993 216.098 312.523 216.469 313.105 216.521L320.735 217.13L324.549 223.752C324.708 224.017 324.946 224.229 325.211 224.388C325.449 224.494 325.714 224.547 326.006 224.521C326.589 224.495 327.118 224.124 327.357 223.567L330.271 216.521L337.767 214.931C338.35 214.799 338.8 214.349 338.959 213.792C339.092 213.209 338.906 212.6 338.456 212.202L332.656 207.223Z" fill="white"/>
<path d="M29.8806 128.442C34.8936 128.442 38.8156 130.657 41.6526 135.086L46.3147 131.648C44.6427 128.929 42.3517 126.775 39.4387 125.181C36.5227 123.587 33.3175 122.79 29.8225 122.79C24.3045 122.713 19.5275 124.635 15.4865 128.559C11.4455 132.484 9.4826 137.184 9.5986 142.663C9.4826 148.142 11.4455 152.843 15.4865 156.767C19.5275 160.692 24.3045 162.614 29.8225 162.536C33.3565 162.536 36.5725 161.75 39.4675 160.177C42.3625 158.602 44.6436 156.437 46.3156 153.679L41.6535 150.241C38.8155 154.67 34.8936 156.884 29.8816 156.884C25.9176 156.884 22.6166 155.533 19.9736 152.833C17.3326 150.132 16.0136 146.743 16.0136 142.664C16.0136 138.584 17.3326 135.195 19.9736 132.495C22.6166 129.793 25.9166 128.442 29.8806 128.442Z" fill="white"/>
<path d="M75.623 122.799H73.53L56.5771 161.899H63.146L65.9011 155.488H83.199L85.9541 161.899H92.5762L75.623 122.799ZM68.1001 150.19L74.5901 134.27L81 150.19H68.1001Z" fill="white"/>
<path d="M131.226 149.365L107.858 122.79H105.701V161.893H111.878V135.843L135.305 162.535H137.403V123.431H131.226V149.365Z" fill="white"/>
<path d="M172.021 162.535C175.555 162.535 178.771 161.749 181.666 160.176C184.561 158.601 186.842 156.436 188.514 153.678L183.852 150.24C181.014 154.669 177.092 156.883 172.079 156.883C168.116 156.883 164.815 155.532 162.172 152.832C159.53 150.131 158.211 146.742 158.211 142.663C158.211 138.583 159.53 135.194 162.172 132.494C164.816 129.793 168.116 128.442 172.079 128.442C177.093 128.442 181.015 130.657 183.852 135.086L188.514 131.648C186.842 128.929 184.55 126.775 181.637 125.181C178.722 123.587 175.517 122.79 172.022 122.79C166.504 122.713 161.726 124.635 157.686 128.559C153.645 132.484 151.681 137.184 151.797 142.663C151.681 148.142 153.645 152.843 157.686 156.767C161.725 160.691 166.503 162.613 172.021 162.535Z" fill="white"/>
<path d="M228.9 156.358H209.086V144.178H223.48V138.816H209.086V128.967H228.201V123.431H202.909V161.893H228.9V156.358Z" fill="white"/>
<path d="M262.748 146.031C265.079 145.157 266.906 143.754 268.205 141.846C269.503 139.938 270.165 137.74 270.165 135.197C270.165 131.754 268.946 128.919 266.536 126.72C264.125 124.521 260.999 123.435 257.105 123.435H243.065V161.899H249.237V147.038H256.284L267.251 161.899H274.297L262.748 146.031ZM256.999 141.554H249.237V128.918H256.999C259.092 128.918 260.734 129.501 261.979 130.667C263.198 131.832 263.807 133.368 263.807 135.249C263.807 137.156 263.198 138.693 261.979 139.832C260.735 140.971 259.092 141.554 256.999 141.554Z" fill="white"/>
</svg>
