<svg width="702" height="415" viewBox="0 0 702 415" fill="none" xmlns="http://www.w3.org/2000/svg">
<path d="M99.2455 230.847C98.6365 232.198 97.4175 233.257 95.7225 233.575L93.0205 234.078C93.0205 235.376 93.6565 236.674 94.8215 237.442C95.4835 237.866 96.2525 238.078 96.9935 238.078C98.2915 238.078 99.5625 237.442 100.331 236.277C100.755 235.615 100.967 234.847 100.967 234.105C100.967 232.86 100.358 231.615 99.2455 230.847Z" fill="#E5320F"/>
<path d="M110.371 238.052C109.709 237.628 108.967 237.416 108.225 237.416C106.927 237.416 105.656 238.052 104.887 239.217C103.695 241.071 104.198 243.535 106.053 244.727C106.715 245.151 107.457 245.363 108.199 245.363C109.523 245.363 110.795 244.727 111.537 243.535C111.961 242.872 112.173 242.104 112.173 241.363C112.173 240.065 111.537 238.82 110.371 238.052Z" fill="#E5320F"/>
<path d="M334.952 383.561C334.263 383.11 333.522 382.898 332.78 382.898C331.482 382.898 330.21 383.561 329.442 384.726C328.25 386.554 328.78 389.017 330.634 390.209C331.297 390.66 332.038 390.845 332.78 390.845C334.078 390.845 335.349 390.209 336.117 389.043C336.541 388.381 336.753 387.613 336.753 386.897C336.753 385.6 336.117 384.329 334.952 383.561Z" fill="#E5320F"/>
<path d="M312.488 368.991C311.826 368.567 311.058 368.355 310.316 368.355C309.018 368.355 307.746 368.991 306.978 370.183C305.786 372.011 306.316 374.475 308.17 375.667C308.833 376.091 309.574 376.303 310.316 376.303C311.614 376.303 312.885 375.667 313.653 374.501C314.077 373.839 314.289 373.071 314.289 372.329C314.29 371.031 313.654 369.76 312.488 368.991Z" fill="#E5320F"/>
<path d="M343.746 398.103C344.09 397.388 344.17 396.593 343.984 395.825L342.686 390.421C341.891 390.686 341.176 391.215 340.673 391.984C339.481 393.838 340.01 396.302 341.839 397.494C342.422 397.865 343.084 398.077 343.746 398.103Z" fill="#E5320F"/>
<path d="M33.5491 79.8275C33.5491 79.4305 33.4961 79.0335 33.3641 78.6355C32.8341 76.9405 31.2711 75.8545 29.5761 75.8545C29.1781 75.8545 28.7811 75.9075 28.3841 76.0405C26.2921 76.7025 25.1261 78.9275 25.7881 81.0205C26.3181 82.7155 27.8811 83.8015 29.5761 83.8015C29.9471 83.8015 30.3711 83.7485 30.7681 83.6155C32.4631 83.0855 33.5491 81.5235 33.5491 79.8275Z" fill="#E5320F"/>
<path d="M37.5491 92.5961C37.5491 92.1991 37.4961 91.8011 37.3641 91.4041C36.8341 89.7091 35.2711 88.623 33.5761 88.623C33.1781 88.623 32.7811 88.6761 32.3841 88.8091C30.2921 89.4711 29.1261 91.6961 29.7881 93.7891C30.3181 95.4841 31.8811 96.571 33.5761 96.571C33.9731 96.571 34.3701 96.5181 34.7681 96.3851C36.4631 95.8531 37.5491 94.2911 37.5491 92.5961Z" fill="#E5320F"/>
<path d="M222.661 310.793C221.999 310.369 221.257 310.157 220.515 310.157C219.217 310.157 217.919 310.793 217.15 311.985C215.958 313.813 216.488 316.277 218.342 317.468C219.004 317.892 219.746 318.104 220.488 318.104C221.786 318.104 223.084 317.468 223.826 316.303C224.25 315.641 224.462 314.873 224.462 314.131C224.462 312.833 223.827 311.561 222.661 310.793Z" fill="#E5320F"/>
<path d="M45.5491 118.132C45.5491 117.735 45.4961 117.337 45.3641 116.94C44.8601 115.244 43.2711 114.158 41.5761 114.158C41.1781 114.158 40.7811 114.211 40.3841 114.344C38.2921 115.006 37.1261 117.231 37.7881 119.324C38.3181 121.019 39.8811 122.105 41.5761 122.105C41.9731 122.105 42.3701 122.052 42.7681 121.92C44.4631 121.39 45.5491 119.827 45.5491 118.132Z" fill="#E5320F"/>
<path d="M121.603 245.336C120.915 244.912 120.173 244.7 119.431 244.7C118.107 244.7 116.862 245.336 116.094 246.501C114.902 248.355 115.431 250.792 117.286 251.984C117.948 252.434 118.69 252.646 119.432 252.646C120.73 252.646 122.028 251.984 122.77 250.818C123.194 250.155 123.406 249.387 123.406 248.672C123.404 247.376 122.769 246.104 121.603 245.336Z" fill="#E5320F"/>
<path d="M41.5491 105.365C41.5491 104.968 41.4961 104.571 41.3641 104.173C40.8341 102.477 39.2711 101.391 37.5761 101.391C37.1781 101.391 36.7811 101.444 36.3841 101.577C34.2921 102.213 33.1261 104.464 33.7881 106.557C34.3181 108.252 35.8811 109.338 37.5761 109.338C37.9731 109.338 38.3701 109.285 38.7681 109.153C40.4631 108.623 41.5491 107.06 41.5491 105.365Z" fill="#E5320F"/>
<path d="M49.5767 130.873C49.5767 130.476 49.4968 130.104 49.3908 129.708C48.8608 128.013 47.2717 126.9 45.5767 126.9C45.1787 126.9 44.8077 126.979 44.4117 127.086C42.3187 127.749 41.1527 130 41.7887 132.092C42.3447 133.787 43.9077 134.874 45.6027 134.874C45.9737 134.874 46.3707 134.821 46.7687 134.688C48.4637 134.158 49.5767 132.569 49.5767 130.873Z" fill="#E5320F"/>
<path d="M57.5765 156.437C57.5765 156.04 57.5235 155.643 57.3905 155.245C56.8605 153.55 55.2715 152.437 53.5765 152.437C53.1785 152.437 52.8075 152.516 52.4105 152.622C50.3185 153.284 49.1525 155.51 49.8145 157.602C50.3445 159.297 51.9075 160.41 53.6025 160.41C53.9995 160.41 54.3965 160.33 54.7945 160.225C56.4905 159.695 57.5765 158.133 57.5765 156.437Z" fill="#E5320F"/>
<path d="M53.5767 143.668C53.5767 143.271 53.5238 142.874 53.3908 142.476C52.8608 140.781 51.2717 139.668 49.5767 139.668C49.1787 139.668 48.8077 139.748 48.4117 139.854C46.3187 140.516 45.1527 142.742 45.7887 144.834C46.3447 146.556 47.9077 147.642 49.6027 147.642C49.9737 147.642 50.3977 147.562 50.7947 147.456C52.4907 146.926 53.5767 145.363 53.5767 143.668Z" fill="#E5320F"/>
<path d="M323.721 376.276C323.059 375.852 322.29 375.64 321.549 375.64C320.251 375.64 318.98 376.276 318.211 377.441C317.019 379.295 317.549 381.759 319.403 382.951C320.065 383.375 320.807 383.586 321.549 383.586C322.847 383.586 324.118 382.951 324.887 381.758C325.311 381.096 325.523 380.354 325.523 379.612C325.522 378.316 324.887 377.044 323.721 376.276Z" fill="#E5320F"/>
<path d="M245.124 325.336C244.462 324.912 243.693 324.7 242.952 324.7C241.654 324.7 240.383 325.336 239.615 326.528C238.423 328.356 238.952 330.82 240.78 332.011C241.468 332.462 242.21 332.647 242.952 332.647C244.25 332.647 245.523 332.011 246.291 330.846C246.715 330.184 246.926 329.416 246.926 328.674C246.926 327.375 246.29 326.104 245.124 325.336Z" fill="#E5320F"/>
<path d="M188.966 288.965C188.304 288.541 187.562 288.329 186.82 288.329C185.522 288.329 184.251 288.965 183.482 290.157C182.29 291.985 182.82 294.449 184.648 295.64C185.311 296.064 186.079 296.276 186.794 296.276C188.118 296.276 189.39 295.64 190.158 294.475C190.582 293.813 190.794 293.045 190.794 292.303C190.794 291.005 190.158 289.733 188.966 288.965Z" fill="#E5320F"/>
<path d="M301.258 361.733C300.569 361.309 299.827 361.097 299.086 361.097C297.788 361.097 296.543 361.733 295.775 362.898C294.556 364.726 295.086 367.19 296.94 368.381C297.603 368.832 298.344 369.044 299.086 369.044C300.384 369.044 301.682 368.381 302.424 367.216C302.848 366.554 303.06 365.786 303.06 365.07C303.059 363.773 302.423 362.501 301.258 361.733Z" fill="#E5320F"/>
<path d="M211.429 303.535C210.74 303.111 209.999 302.899 209.257 302.899C207.959 302.899 206.714 303.535 205.946 304.7C204.754 306.528 205.257 308.992 207.111 310.183C207.774 310.634 208.515 310.819 209.257 310.819C210.555 310.819 211.853 310.183 212.594 309.018C213.018 308.356 213.23 307.588 213.23 306.846C213.23 305.548 212.595 304.303 211.429 303.535Z" fill="#E5320F"/>
<path d="M256.356 332.621C255.693 332.197 254.925 331.985 254.184 331.985C252.886 331.985 251.614 332.621 250.847 333.786C249.655 335.641 250.184 338.104 252.012 339.296C252.701 339.72 253.443 339.932 254.184 339.932C255.482 339.932 256.753 339.296 257.522 338.104C257.946 337.442 258.158 336.7 258.158 335.958C258.158 334.66 257.522 333.389 256.356 332.621Z" fill="#E5320F"/>
<path d="M200.198 296.25C199.535 295.826 198.794 295.614 198.052 295.614C196.754 295.614 195.483 296.25 194.715 297.415C193.523 299.27 194.052 301.733 195.88 302.925C196.542 303.348 197.31 303.561 198.026 303.561C199.351 303.561 200.622 302.925 201.39 301.759C201.814 301.097 202.026 300.328 202.026 299.587C202.025 298.29 201.39 297.018 200.198 296.25Z" fill="#E5320F"/>
<path d="M233.893 318.078C233.231 317.654 232.464 317.442 231.722 317.442C230.424 317.442 229.151 318.078 228.383 319.243C227.191 321.097 227.722 323.535 229.576 324.753C230.239 325.177 230.98 325.389 231.722 325.389C233.02 325.389 234.291 324.753 235.059 323.561C235.483 322.899 235.694 322.157 235.694 321.415C235.694 320.118 235.058 318.846 233.893 318.078Z" fill="#E5320F"/>
<path d="M177.734 281.707C177.072 281.283 176.33 281.071 175.588 281.071C174.29 281.071 173.019 281.707 172.251 282.872C171.059 284.7 171.589 287.164 173.416 288.382C174.078 288.806 174.846 289.018 175.588 289.018C176.886 289.018 178.158 288.382 178.926 287.19C179.35 286.528 179.562 285.786 179.562 285.045C179.562 283.746 178.926 282.475 177.734 281.707Z" fill="#E5320F"/>
<path d="M290.025 354.448C289.363 354.024 288.621 353.812 287.879 353.812C286.581 353.812 285.309 354.449 284.541 355.614C283.349 357.468 283.852 359.932 285.706 361.124C286.368 361.548 287.11 361.76 287.852 361.76C289.177 361.76 290.448 361.124 291.19 359.932C291.614 359.27 291.826 358.502 291.826 357.76C291.826 356.462 291.19 355.217 290.025 354.448Z" fill="#E5320F"/>
<path d="M144.065 259.879C143.403 259.455 142.634 259.243 141.893 259.243C140.595 259.243 139.323 259.879 138.555 261.044C137.363 262.898 137.893 265.362 139.747 266.554C140.41 266.978 141.151 267.19 141.893 267.19C143.191 267.19 144.462 266.554 145.23 265.362C145.654 264.7 145.866 263.958 145.866 263.216C145.867 261.919 145.231 260.647 144.065 259.879Z" fill="#E5320F"/>
<path d="M132.834 252.595C132.172 252.171 131.403 251.959 130.662 251.959C129.364 251.959 128.092 252.595 127.324 253.787C126.132 255.615 126.662 258.078 128.516 259.27C129.178 259.694 129.92 259.906 130.662 259.906C131.96 259.906 133.231 259.27 134 258.105C134.424 257.443 134.636 256.674 134.636 255.933C134.635 254.634 133.999 253.363 132.834 252.595Z" fill="#E5320F"/>
<path d="M166.503 274.422C165.841 273.998 165.098 273.786 164.356 273.786C163.058 273.786 161.788 274.422 161.019 275.587C159.827 277.442 160.357 279.905 162.185 281.097C162.874 281.521 163.615 281.733 164.356 281.733C165.654 281.733 166.927 281.097 167.695 279.932C168.119 279.27 168.331 278.502 168.331 277.76C168.331 276.462 167.695 275.19 166.503 274.422Z" fill="#E5320F"/>
<path d="M278.794 347.163C278.132 346.739 277.39 346.527 276.648 346.527C275.35 346.527 274.079 347.163 273.31 348.355C272.118 350.183 272.621 352.647 274.475 353.838C275.138 354.262 275.906 354.474 276.647 354.474C277.945 354.474 279.216 353.838 279.958 352.673C280.381 351.985 280.594 351.243 280.594 350.501C280.596 349.177 279.96 347.931 278.794 347.163Z" fill="#E5320F"/>
<path d="M267.561 339.906C266.899 339.482 266.13 339.27 265.389 339.27C264.091 339.27 262.846 339.905 262.078 341.07C260.886 342.924 261.416 345.363 263.244 346.554C263.906 347.005 264.674 347.216 265.416 347.216C266.714 347.216 267.985 346.553 268.753 345.388C269.177 344.726 269.389 343.984 269.389 343.242C269.389 341.945 268.753 340.675 267.561 339.906Z" fill="#E5320F"/>
<path d="M155.297 267.164C154.608 266.714 153.866 266.502 153.125 266.502C151.827 266.502 150.556 267.164 149.787 268.33C148.595 270.158 149.125 272.622 150.953 273.813C151.642 274.264 152.384 274.449 153.125 274.449C154.423 274.449 155.695 273.813 156.463 272.648C156.887 271.986 157.099 271.217 157.099 270.503C157.099 269.204 156.463 267.932 155.297 267.164Z" fill="#E5320F"/>
<path d="M58.7945 172.992C60.4895 172.463 61.5765 170.873 61.5765 169.178C61.5765 168.781 61.5235 168.384 61.3905 167.986C60.8605 166.291 59.2975 165.204 57.6025 165.204C57.2055 165.204 56.8075 165.257 56.4105 165.39C54.3185 166.053 53.1525 168.278 53.8145 170.37C54.3445 172.065 55.9075 173.151 57.6025 173.151C58.0005 173.151 58.3975 173.099 58.7945 172.992Z" fill="#E5320F"/>
<path d="M21.5237 41.5488C21.5237 41.1518 21.4707 40.7278 21.3377 40.3308C20.8077 38.6358 19.2447 37.5498 17.5497 37.5498C17.1527 37.5498 16.7547 37.6028 16.3577 37.7348C14.2657 38.3968 13.0997 40.6218 13.7617 42.7148C14.2917 44.4098 15.8547 45.4968 17.5497 45.4968C17.9477 45.4968 18.3437 45.4438 18.7417 45.3108C20.4377 44.8068 21.5237 43.2448 21.5237 41.5488Z" fill="#E5320F"/>
<path d="M25.5507 54.2654C25.5507 53.8684 25.4707 53.4964 25.3647 53.1004C24.8347 51.4054 23.2457 50.3184 21.5507 50.3184C21.1537 50.3184 20.7557 50.3714 20.3587 50.5044C18.2667 51.1664 17.1007 53.3924 17.7627 55.4844C18.2927 57.1794 19.8557 58.2654 21.5507 58.2654C21.9477 58.2654 22.3447 58.2124 22.7427 58.0804C24.4377 57.5494 25.5507 55.9604 25.5507 54.2654Z" fill="#E5320F"/>
<path d="M29.5504 67.0329C29.5504 66.6359 29.4704 66.2649 29.3644 65.8669C28.8344 64.1719 27.2714 63.0859 25.5764 63.0859C25.1794 63.0859 24.7814 63.1389 24.3844 63.2709C22.2924 63.9339 21.1264 66.1589 21.7624 68.2509C22.3184 69.9459 23.8814 71.0319 25.5764 71.0319C25.9474 71.0319 26.3444 70.9789 26.7424 70.8459C28.4374 70.3169 29.5504 68.7279 29.5504 67.0329Z" fill="#E5320F"/>
<path d="M57.8145 183.138C58.3445 184.833 59.9075 185.919 61.6025 185.919C61.9995 185.919 62.3965 185.866 62.7945 185.733C64.4895 185.23 65.5765 183.641 65.5765 181.945C65.5765 181.548 65.5235 181.151 65.3905 180.753C64.8605 179.058 63.2975 177.972 61.6025 177.972C61.2055 177.972 60.8075 178.025 60.4105 178.158C58.3185 178.82 57.1525 181.045 57.8145 183.138Z" fill="#E5320F"/>
<path d="M69.4175 193.522C68.8875 191.827 67.3245 190.741 65.6295 190.741C65.2325 190.741 64.8085 190.794 64.4105 190.926C62.3185 191.588 61.1525 193.813 61.8145 195.906C62.3435 197.601 63.9075 198.687 65.6025 198.687C65.9995 198.687 66.3965 198.634 66.7945 198.501C68.4895 197.972 69.6025 196.382 69.6025 194.687C69.6025 194.29 69.5235 193.919 69.4175 193.522Z" fill="#E5320F"/>
<path d="M68.4372 203.694C68.1462 203.774 67.8802 203.906 67.6162 204.065L71.8812 206.105C72.3842 206.343 72.9402 206.502 73.4702 206.555C73.4702 206.475 73.4442 206.37 73.4172 206.29C72.8872 204.595 71.3242 203.509 69.6292 203.509C69.2312 203.509 68.8342 203.562 68.4372 203.694Z" fill="#E5320F"/>
<path d="M584.248 154.635C583.188 154.635 582.155 155.059 581.361 155.88C579.878 157.469 579.93 159.986 581.546 161.496C582.314 162.211 583.295 162.582 584.275 162.582C585.335 162.582 586.368 162.158 587.163 161.337C587.878 160.568 588.249 159.588 588.249 158.608C588.249 157.548 587.825 156.515 587.004 155.721C586.235 155.006 585.228 154.635 584.248 154.635Z" fill="#E5320F"/>
<path d="M575.109 164.357C574.049 164.357 572.99 164.754 572.222 165.602C570.712 167.191 570.791 169.708 572.381 171.218C573.149 171.933 574.129 172.304 575.109 172.304C576.169 172.304 577.202 171.88 577.996 171.032C578.711 170.264 579.082 169.283 579.082 168.304C579.082 167.244 578.658 166.211 577.837 165.416C577.07 164.701 576.089 164.357 575.109 164.357Z" fill="#E5320F"/>
<path d="M593.415 144.913C592.355 144.913 591.322 145.337 590.527 146.158C589.017 147.774 589.097 150.264 590.713 151.774C591.481 152.516 592.462 152.86 593.415 152.86C594.474 152.86 595.534 152.437 596.328 151.615C597.043 150.846 597.388 149.866 597.388 148.887C597.388 147.827 596.991 146.794 596.143 145.999C595.375 145.284 594.395 144.913 593.415 144.913Z" fill="#E5320F"/>
<path d="M565.944 174.052C564.884 174.052 563.851 174.475 563.057 175.297C561.547 176.913 561.626 179.404 563.216 180.913C563.985 181.655 564.965 181.999 565.945 181.999C567.005 181.999 568.064 181.575 568.832 180.754C569.547 179.986 569.918 179.006 569.918 178.025C569.918 176.966 569.494 175.932 568.673 175.138C567.904 174.423 566.924 174.052 565.944 174.052Z" fill="#E5320F"/>
<path d="M501.812 242.052C500.752 242.052 499.719 242.476 498.924 243.297C497.414 244.886 497.494 247.402 499.083 248.913C499.851 249.628 500.831 249.999 501.812 249.999C502.872 249.999 503.931 249.575 504.699 248.754C505.414 247.985 505.785 247.005 505.785 246.025C505.785 244.966 505.361 243.933 504.54 243.138C503.772 242.422 502.792 242.052 501.812 242.052Z" fill="#E5320F"/>
<path d="M556.778 183.774C555.718 183.774 554.685 184.198 553.891 185.019C552.381 186.608 552.46 189.125 554.05 190.635C554.818 191.35 555.798 191.721 556.779 191.721C557.839 191.721 558.898 191.297 559.667 190.476C560.382 189.708 560.753 188.728 560.753 187.747C560.753 186.687 560.329 185.655 559.508 184.86C558.739 184.144 557.758 183.774 556.778 183.774Z" fill="#E5320F"/>
<path d="M465.177 280.912C464.117 280.912 463.084 281.309 462.29 282.157C460.78 283.746 460.859 286.263 462.449 287.773C463.217 288.488 464.197 288.859 465.177 288.859C466.237 288.859 467.296 288.435 468.064 287.614C468.779 286.846 469.15 285.839 469.15 284.859C469.15 283.799 468.726 282.766 467.905 281.972C467.137 281.257 466.157 280.912 465.177 280.912Z" fill="#E5320F"/>
<path d="M483.481 261.469C482.421 261.469 481.388 261.893 480.593 262.714C479.083 264.33 479.163 266.82 480.778 268.33C481.546 269.072 482.526 269.417 483.48 269.417C484.539 269.417 485.599 268.993 486.393 268.172C487.108 267.404 487.453 266.423 487.453 265.444C487.453 264.384 487.056 263.351 486.208 262.556C485.441 261.84 484.461 261.469 483.481 261.469Z" fill="#E5320F"/>
<path d="M474.315 271.19C473.256 271.19 472.222 271.614 471.427 272.435C469.944 274.024 469.997 276.541 471.613 278.051C472.381 278.766 473.362 279.137 474.342 279.137C475.375 279.137 476.435 278.713 477.229 277.892C477.944 277.123 478.315 276.17 478.315 275.19C478.315 274.13 477.891 273.071 477.044 272.276C476.275 271.561 475.295 271.19 474.315 271.19Z" fill="#E5320F"/>
<path d="M648.38 86.6348C647.32 86.6348 646.287 87.0588 645.493 87.8798C644.01 89.4688 644.062 92.0118 645.679 93.4958C646.447 94.2378 647.427 94.5818 648.407 94.5818C649.44 94.5818 650.499 94.1588 651.267 93.3368C652.009 92.5688 652.353 91.5878 652.353 90.6078C652.353 89.5478 651.955 88.4888 651.108 87.7198C650.341 87.0058 649.36 86.6348 648.38 86.6348Z" fill="#E5320F"/>
<path d="M639.215 96.3574C638.155 96.3574 637.122 96.7814 636.328 97.6024C634.845 99.1914 634.897 101.708 636.513 103.218C637.282 103.933 638.261 104.304 639.242 104.304C640.275 104.304 641.334 103.88 642.129 103.059C642.844 102.291 643.215 101.31 643.215 100.33C643.215 99.2704 642.791 98.2114 641.97 97.4434C641.202 96.7284 640.195 96.3574 639.215 96.3574Z" fill="#E5320F"/>
<path d="M602.606 135.191C601.546 135.191 600.487 135.615 599.692 136.462C598.182 138.051 598.262 140.568 599.851 142.078C600.619 142.793 601.599 143.164 602.58 143.164C603.64 143.164 604.699 142.74 605.467 141.892C606.182 141.124 606.553 140.144 606.553 139.164C606.553 138.104 606.129 137.071 605.308 136.276C604.54 135.562 603.586 135.191 602.606 135.191Z" fill="#E5320F"/>
<path d="M666.711 67.2178C665.652 67.2178 664.619 67.6418 663.824 68.4628C662.314 70.0518 662.393 72.5688 663.983 74.0788C664.752 74.7938 665.732 75.1648 666.711 75.1648C667.771 75.1648 668.83 74.7408 669.599 73.9198C670.314 73.1518 670.685 72.1718 670.685 71.1908C670.685 70.1318 670.261 69.0988 669.44 68.3038C668.672 67.5888 667.691 67.2178 666.711 67.2178Z" fill="#E5320F"/>
<path d="M657.546 76.9404C656.486 76.9404 655.453 77.3384 654.659 78.1854C653.149 79.7744 653.228 82.2914 654.818 83.8014C655.586 84.5164 656.567 84.8884 657.547 84.8884C658.607 84.8884 659.667 84.4644 660.435 83.6164C661.15 82.8484 661.521 81.8684 661.521 80.8884C661.521 79.8284 661.097 78.7954 660.276 78.0004C659.506 77.2844 658.526 76.9404 657.546 76.9404Z" fill="#E5320F"/>
<path d="M630.076 106.079C629.017 106.079 627.957 106.476 627.189 107.324C625.679 108.913 625.758 111.429 627.348 112.94C628.116 113.655 629.096 114.026 630.076 114.026C631.136 114.026 632.169 113.602 632.964 112.754C633.679 111.986 634.05 111.005 634.05 110.026C634.05 108.966 633.626 107.933 632.805 107.139C632.036 106.423 631.056 106.079 630.076 106.079Z" fill="#E5320F"/>
<path d="M611.746 125.496C610.686 125.496 609.653 125.92 608.858 126.741C607.348 128.33 607.428 130.847 609.017 132.357C609.785 133.072 610.765 133.443 611.746 133.443C612.806 133.443 613.865 133.019 614.633 132.198C615.348 131.429 615.719 130.449 615.719 129.47C615.719 128.41 615.296 127.377 614.474 126.582C613.706 125.867 612.726 125.496 611.746 125.496Z" fill="#E5320F"/>
<path d="M620.912 115.774C619.852 115.774 618.819 116.198 618.024 117.019C616.514 118.635 616.594 121.124 618.183 122.635C618.951 123.377 619.931 123.721 620.912 123.721C621.972 123.721 623.031 123.297 623.799 122.476C624.514 121.708 624.885 120.728 624.885 119.747C624.885 118.687 624.461 117.655 623.64 116.86C622.872 116.145 621.891 115.774 620.912 115.774Z" fill="#E5320F"/>
<path d="M366.263 388.489L365.627 394.449C365.601 394.793 365.627 395.138 365.68 395.455C366.289 395.27 366.819 394.925 367.296 394.449C368.011 393.68 368.382 392.701 368.382 391.721C368.382 390.661 367.959 389.628 367.137 388.833C366.872 388.595 366.581 388.383 366.289 388.224C366.29 388.304 366.263 388.383 366.263 388.489Z" fill="#E5320F"/>
<path d="M410.183 339.19C409.15 339.19 408.09 339.587 407.322 340.435C405.812 342.024 405.891 344.541 407.481 346.051C408.249 346.766 409.229 347.137 410.209 347.137C411.269 347.137 412.302 346.713 413.097 345.866C413.812 345.098 414.183 344.117 414.183 343.137C414.183 342.104 413.759 341.044 412.938 340.276C412.17 339.535 411.163 339.19 410.183 339.19Z" fill="#E5320F"/>
<path d="M428.515 319.746C427.455 319.746 426.422 320.17 425.628 320.991C424.118 322.607 424.197 325.097 425.813 326.607C426.582 327.349 427.562 327.693 428.542 327.693C429.575 327.693 430.634 327.269 431.429 326.448C432.144 325.679 432.489 324.699 432.489 323.719C432.489 322.659 432.091 321.626 431.244 320.831C430.476 320.118 429.495 319.746 428.515 319.746Z" fill="#E5320F"/>
<path d="M547.613 193.496C546.553 193.496 545.52 193.893 544.726 194.741C543.216 196.33 543.295 198.847 544.885 200.357C545.653 201.072 546.634 201.443 547.614 201.443C548.674 201.443 549.733 201.019 550.502 200.171C551.243 199.403 551.588 198.423 551.588 197.443C551.588 196.383 551.191 195.323 550.343 194.555C549.573 193.84 548.593 193.496 547.613 193.496Z" fill="#E5320F"/>
<path d="M419.349 329.468C418.316 329.468 417.256 329.892 416.488 330.713C414.978 332.302 415.031 334.819 416.647 336.329C417.415 337.044 418.396 337.415 419.376 337.415C420.409 337.415 421.469 336.992 422.264 336.17C422.979 335.401 423.35 334.421 423.35 333.441C423.35 332.381 422.926 331.348 422.079 330.554C421.31 329.839 420.33 329.468 419.349 329.468Z" fill="#E5320F"/>
<path d="M520.143 222.635C519.084 222.635 518.051 223.032 517.256 223.88C515.746 225.469 515.825 227.986 517.415 229.496C518.183 230.212 519.163 230.582 520.143 230.582C521.203 230.582 522.236 230.158 523.031 229.31C523.746 228.542 524.117 227.562 524.117 226.582C524.117 225.522 523.693 224.489 522.872 223.695C522.104 222.979 521.124 222.635 520.143 222.635Z" fill="#E5320F"/>
<path d="M446.845 300.329C445.785 300.329 444.752 300.753 443.957 301.575C442.448 303.164 442.527 305.681 444.116 307.191C444.884 307.906 445.864 308.277 446.845 308.277C447.905 308.277 448.964 307.853 449.733 307.032C450.448 306.264 450.819 305.284 450.819 304.304C450.819 303.244 450.395 302.212 449.574 301.417C448.806 300.7 447.825 300.329 446.845 300.329Z" fill="#E5320F"/>
<path d="M437.681 310.051C436.621 310.051 435.562 310.449 434.794 311.296C433.284 312.885 433.363 315.402 434.953 316.912C435.721 317.627 436.702 317.998 437.682 317.998C438.742 317.998 439.801 317.574 440.569 316.727C441.311 315.959 441.655 314.979 441.655 313.998C441.655 312.938 441.258 311.905 440.41 311.137C439.641 310.395 438.661 310.051 437.681 310.051Z" fill="#E5320F"/>
<path d="M510.977 232.33C509.917 232.33 508.884 232.753 508.089 233.575C506.579 235.191 506.659 237.681 508.248 239.191C509.016 239.933 509.996 240.277 510.976 240.277C512.036 240.277 513.095 239.853 513.863 239.032C514.578 238.264 514.949 237.283 514.949 236.304C514.949 235.244 514.525 234.212 513.704 233.417C512.937 232.701 511.957 232.33 510.977 232.33Z" fill="#E5320F"/>
<path d="M529.283 212.912C528.223 212.912 527.191 213.336 526.396 214.157C524.913 215.746 524.965 218.263 526.581 219.773C527.35 220.488 528.329 220.859 529.31 220.859C530.37 220.859 531.403 220.435 532.198 219.614C532.913 218.845 533.284 217.892 533.284 216.912C533.284 215.852 532.86 214.793 532.013 213.999C531.243 213.284 530.263 212.912 529.283 212.912Z" fill="#E5320F"/>
<path d="M456.012 290.607C454.952 290.607 453.919 291.031 453.125 291.852C451.615 293.468 451.694 295.958 453.284 297.468C454.053 298.21 455.033 298.554 456.013 298.554C457.073 298.554 458.132 298.13 458.9 297.309C459.615 296.541 459.986 295.561 459.986 294.58C459.986 293.52 459.562 292.487 458.741 291.693C457.972 290.978 456.992 290.607 456.012 290.607Z" fill="#E5320F"/>
<path d="M538.447 203.191C537.387 203.191 536.354 203.615 535.56 204.436C534.05 206.052 534.129 208.542 535.745 210.052C536.513 210.794 537.493 211.138 538.447 211.138C539.507 211.138 540.566 210.714 541.361 209.893C542.076 209.125 542.421 208.144 542.421 207.165C542.421 206.105 542.023 205.072 541.176 204.277C540.408 203.562 539.428 203.191 538.447 203.191Z" fill="#E5320F"/>
<path d="M492.646 251.773C491.587 251.773 490.554 252.17 489.759 253.018C488.249 254.607 488.329 257.124 489.918 258.634C490.686 259.349 491.666 259.72 492.646 259.72C493.706 259.72 494.766 259.296 495.534 258.475C496.276 257.707 496.62 256.7 496.62 255.72C496.62 254.66 496.223 253.601 495.375 252.832C494.606 252.118 493.626 251.773 492.646 251.773Z" fill="#E5320F"/>
<path d="M382.713 368.329C381.654 368.329 380.621 368.726 379.826 369.574C378.316 371.163 378.395 373.68 379.985 375.19C380.753 375.905 381.733 376.276 382.713 376.276C383.773 376.276 384.833 375.852 385.601 375.005C386.343 374.237 386.687 373.257 386.687 372.276C386.687 371.216 386.29 370.157 385.442 369.389C384.673 368.674 383.693 368.329 382.713 368.329Z" fill="#E5320F"/>
<path d="M373.548 378.024C372.488 378.024 371.455 378.448 370.66 379.269C369.177 380.858 369.23 383.401 370.845 384.885C371.613 385.627 372.593 385.971 373.574 385.971C374.607 385.971 375.667 385.547 376.461 384.726C377.176 383.958 377.521 382.978 377.521 381.997C377.521 380.937 377.123 379.904 376.276 379.109C375.508 378.395 374.528 378.024 373.548 378.024Z" fill="#E5320F"/>
<path d="M391.878 358.607C390.818 358.607 389.786 359.031 388.991 359.852C387.481 361.441 387.56 363.958 389.15 365.468C389.918 366.183 390.898 366.554 391.878 366.554C392.938 366.554 393.998 366.13 394.766 365.309C395.481 364.541 395.852 363.561 395.852 362.58C395.852 361.52 395.428 360.488 394.607 359.693C393.839 358.978 392.859 358.607 391.878 358.607Z" fill="#E5320F"/>
<path d="M401.045 348.885C399.985 348.885 398.952 349.309 398.158 350.13C396.648 351.719 396.728 354.262 398.317 355.746C399.085 356.488 400.065 356.832 401.045 356.832C402.105 356.832 403.165 356.408 403.933 355.587C404.648 354.819 405.019 353.838 405.019 352.858C405.019 351.798 404.595 350.765 403.774 349.971C403.005 349.256 402.025 348.885 401.045 348.885Z" fill="#E5320F"/>
<path d="M661.096 67.8015C661.705 67.8015 662.315 67.6685 662.871 67.3775C664.275 66.6885 665.07 65.2855 665.07 63.8545C665.07 63.2455 664.937 62.6365 664.646 62.0535C663.957 60.6765 662.526 59.8545 661.07 59.8545C660.461 59.8545 659.878 59.9865 659.295 60.2785C657.361 61.2855 656.567 63.6695 657.547 65.6295C658.235 67.0065 659.639 67.8015 661.096 67.8015Z" fill="#E5320F"/>
<path d="M399.984 193.391L399.693 194.16C398.951 196.12 398.898 198.239 399.56 200.173C400.911 199.458 401.706 198.054 401.706 196.624C401.706 196.015 401.573 195.432 401.282 194.849C400.965 194.238 400.515 193.735 399.984 193.391Z" fill="#E5320F"/>
<path d="M505.467 138.344C504.858 138.344 504.249 138.476 503.666 138.768C501.706 139.748 500.937 142.132 501.917 144.092C502.606 145.496 504.01 146.291 505.467 146.291C506.076 146.291 506.686 146.159 507.242 145.867C508.646 145.152 509.441 143.748 509.441 142.317C509.441 141.708 509.309 141.099 509.017 140.516C508.329 139.138 506.924 138.344 505.467 138.344Z" fill="#E5320F"/>
<path d="M513.891 138.052C514.58 139.456 515.984 140.251 517.441 140.251C518.05 140.251 518.659 140.119 519.216 139.827C520.594 139.138 521.415 137.708 521.415 136.251C521.415 135.642 521.282 135.059 520.991 134.476C520.276 133.099 518.871 132.304 517.441 132.304C516.832 132.304 516.222 132.437 515.64 132.728C513.679 133.708 512.911 136.119 513.891 138.052Z" fill="#E5320F"/>
<path d="M409.706 194.582C410.289 194.582 410.925 194.449 411.481 194.158C412.858 193.469 413.653 192.065 413.653 190.608C413.653 189.999 413.521 189.389 413.229 188.807C412.54 187.429 411.136 186.635 409.706 186.635C409.097 186.635 408.488 186.767 407.905 187.059C405.945 188.039 405.15 190.45 406.156 192.383C406.846 193.787 408.249 194.582 409.706 194.582Z" fill="#E5320F"/>
<path d="M483.322 157.919C484.699 157.23 485.494 155.827 485.494 154.396C485.494 153.787 485.361 153.177 485.07 152.595C484.381 151.217 482.977 150.423 481.52 150.423C480.937 150.423 480.328 150.556 479.745 150.847C477.758 151.827 476.99 154.211 477.97 156.172C478.685 157.549 480.063 158.371 481.52 158.371C482.13 158.37 482.739 158.211 483.322 157.919Z" fill="#E5320F"/>
<path d="M461.123 164.676C460.434 163.298 459.03 162.477 457.574 162.477C456.965 162.477 456.382 162.609 455.799 162.901C453.839 163.907 453.044 166.292 454.024 168.252C454.739 169.63 456.117 170.424 457.574 170.424C458.183 170.424 458.792 170.292 459.375 170C460.752 169.311 461.547 167.907 461.547 166.477C461.547 165.868 461.415 165.258 461.123 164.676Z" fill="#E5320F"/>
<path d="M473.52 160.436C473.52 159.827 473.388 159.218 473.096 158.635C472.408 157.258 471.003 156.463 469.573 156.463C468.964 156.463 468.354 156.595 467.772 156.887C465.811 157.867 465.017 160.251 465.997 162.211C466.712 163.588 468.09 164.41 469.546 164.41C470.155 164.41 470.765 164.251 471.348 163.96C472.726 163.27 473.52 161.867 473.52 160.436Z" fill="#E5320F"/>
<path d="M553.361 122.133C553.944 122.133 554.579 122 555.136 121.709C556.514 121.02 557.335 119.616 557.335 118.159C557.335 117.55 557.202 116.967 556.911 116.384C556.196 115.006 554.792 114.186 553.335 114.186C552.726 114.186 552.143 114.318 551.56 114.609C549.599 115.616 548.831 118 549.811 119.96C550.5 121.338 551.904 122.133 553.361 122.133Z" fill="#E5320F"/>
<path d="M649.122 65.8936C648.513 65.8936 647.904 66.0265 647.321 66.3175C645.387 67.3245 644.592 69.7085 645.573 71.6685C646.261 73.0455 647.666 73.8405 649.122 73.8405C649.731 73.8405 650.341 73.7075 650.923 73.4165C652.301 72.7275 653.095 71.3236 653.095 69.8936C653.095 69.2846 652.963 68.6756 652.671 68.0926C651.983 66.7156 650.579 65.8936 649.122 65.8936Z" fill="#E5320F"/>
<path d="M638.95 79.4566C640.327 78.7676 641.122 77.3636 641.122 75.9076C641.122 75.2986 640.99 74.6886 640.698 74.1326C640.01 72.7546 638.605 71.9336 637.149 71.9336C636.54 71.9336 635.957 72.0656 635.374 72.3576C633.414 73.3376 632.619 75.7486 633.599 77.7086C634.288 79.0866 635.692 79.8806 637.149 79.8806C637.758 79.8806 638.367 79.7486 638.95 79.4566Z" fill="#E5320F"/>
<path d="M529.415 126.265C528.806 126.265 528.197 126.397 527.614 126.689C525.654 127.669 524.886 130.08 525.866 132.04C526.554 133.418 527.959 134.212 529.415 134.212C530.024 134.212 530.634 134.079 531.19 133.788C532.567 133.1 533.388 131.669 533.388 130.212C533.388 129.629 533.256 129.02 532.964 128.463C532.249 127.06 530.846 126.265 529.415 126.265Z" fill="#E5320F"/>
<path d="M545.361 124.199C545.361 123.59 545.229 123.007 544.937 122.424C544.222 121.046 542.817 120.225 541.361 120.225C540.752 120.225 540.169 120.357 539.586 120.649C537.626 121.656 536.858 124.04 537.838 126C538.527 127.378 539.931 128.172 541.388 128.172C541.997 128.172 542.607 128.04 543.163 127.749C544.54 127.06 545.361 125.656 545.361 124.199Z" fill="#E5320F"/>
<path d="M603.03 97.5757C604.407 96.8607 605.202 95.4827 605.202 94.0257C605.202 93.4167 605.069 92.8077 604.778 92.2247C604.089 90.8467 602.685 90.0527 601.255 90.0527C600.646 90.0527 600.037 90.1847 599.454 90.4767C597.494 91.4567 596.699 93.8407 597.679 95.8007C598.394 97.2047 599.772 97.9997 601.229 97.9997C601.838 97.9987 602.447 97.8667 603.03 97.5757Z" fill="#E5320F"/>
<path d="M565.335 116.092C565.918 116.092 566.527 115.959 567.11 115.668C568.487 114.979 569.309 113.575 569.309 112.118C569.309 111.509 569.177 110.926 568.885 110.343C568.17 108.966 566.792 108.171 565.335 108.171C564.726 108.171 564.117 108.303 563.534 108.594C561.574 109.574 560.779 111.958 561.786 113.919C562.474 115.297 563.878 116.092 565.335 116.092Z" fill="#E5320F"/>
<path d="M629.15 81.9476C629.15 81.3386 629.018 80.7286 628.726 80.1466C628.037 78.7686 626.633 77.9746 625.176 77.9746C624.567 77.9746 623.984 78.1066 623.401 78.3986C621.441 79.3786 620.646 81.7896 621.626 83.7236C622.341 85.1276 623.719 85.9216 625.176 85.9216C625.785 85.9216 626.395 85.7896 626.977 85.4976C628.355 84.8086 629.15 83.4046 629.15 81.9476Z" fill="#E5320F"/>
<path d="M580.831 104.304C580.142 102.927 578.738 102.132 577.308 102.132C576.699 102.132 576.089 102.265 575.507 102.556C573.547 103.536 572.752 105.92 573.759 107.881C574.448 109.259 575.852 110.08 577.282 110.08C577.892 110.08 578.501 109.921 579.084 109.629C580.462 108.94 581.256 107.537 581.256 106.106C581.255 105.496 581.123 104.887 580.831 104.304Z" fill="#E5320F"/>
<path d="M616.751 86.1847C616.063 84.8077 614.658 84.0127 613.228 84.0127C612.619 84.0127 612.009 84.1457 611.427 84.4367C609.466 85.4167 608.672 87.8007 609.652 89.7617C610.367 91.1657 611.745 91.9607 613.201 91.9607C613.81 91.9607 614.42 91.8277 615.002 91.5367C616.38 90.8217 617.174 89.4177 617.174 87.9867C617.175 87.3767 617.043 86.7667 616.751 86.1847Z" fill="#E5320F"/>
<path d="M425.203 182.767C424.514 181.39 423.11 180.595 421.68 180.595C421.071 180.595 420.461 180.727 419.879 181.019C417.919 181.999 417.124 184.41 418.13 186.37C418.819 187.747 420.223 188.542 421.68 188.542C422.263 188.542 422.872 188.41 423.455 188.118C424.832 187.429 425.627 186.025 425.627 184.569C425.627 183.959 425.494 183.35 425.203 182.767Z" fill="#E5320F"/>
<path d="M593.228 100.066C593.228 99.4568 593.096 98.8468 592.804 98.2648C592.116 96.8868 590.711 96.0928 589.281 96.0928C588.672 96.0928 588.063 96.2248 587.48 96.5168C585.52 97.4968 584.725 99.8808 585.732 101.841C586.421 103.245 587.825 104.04 589.255 104.04C589.864 104.04 590.474 103.881 591.056 103.59C592.434 102.9 593.228 101.496 593.228 100.066Z" fill="#E5320F"/>
<path d="M437.601 178.555C437.601 177.946 437.469 177.337 437.177 176.754C436.489 175.376 435.084 174.555 433.628 174.555C433.019 174.555 432.436 174.687 431.853 174.979C429.892 175.986 429.098 178.37 430.104 180.33C430.793 181.708 432.197 182.502 433.627 182.502C434.236 182.502 434.845 182.37 435.428 182.078C436.807 181.39 437.601 179.986 437.601 178.555Z" fill="#E5320F"/>
<path d="M493.494 144.383C492.911 144.383 492.302 144.515 491.719 144.807C489.759 145.787 488.964 148.171 489.944 150.132C490.633 151.536 492.037 152.33 493.494 152.33C494.103 152.33 494.712 152.171 495.295 151.906C496.673 151.191 497.467 149.787 497.467 148.357C497.467 147.748 497.335 147.138 497.043 146.556C496.355 145.178 494.951 144.383 493.494 144.383Z" fill="#E5320F"/>
<path d="M447.402 176.039C448.779 175.35 449.574 173.947 449.574 172.516C449.574 171.907 449.442 171.297 449.15 170.715C448.461 169.338 447.057 168.516 445.6 168.516C444.991 168.516 444.408 168.648 443.825 168.94C441.865 169.947 441.07 172.331 442.077 174.291C442.765 175.668 444.17 176.463 445.6 176.463C446.21 176.463 446.82 176.331 447.402 176.039Z" fill="#E5320F"/>
<path d="M89.9205 63.0331C90.5295 63.3511 91.1655 63.4831 91.7745 63.4831C93.2055 63.4831 94.5825 62.7151 95.2975 61.3641C95.6155 60.7821 95.7745 60.1461 95.7745 59.5101C95.7745 58.0791 95.0065 56.7021 93.6555 56.0131C93.0725 55.6961 92.4364 55.5371 91.8004 55.5371C90.3704 55.5371 88.9925 56.3051 88.2775 57.6561C87.2455 59.5891 87.9865 62.0001 89.9205 63.0331Z" fill="#E5320F"/>
<path d="M78.1851 56.8075C78.7681 57.1255 79.4041 57.2845 80.0391 57.2845C81.4691 57.2845 82.8471 56.5165 83.5621 55.1655C83.8541 54.5835 84.0121 53.9475 84.0121 53.3375C84.0121 51.9075 83.2441 50.5025 81.8931 49.7885C81.3101 49.4705 80.6751 49.3115 80.0391 49.3115C78.6081 49.3115 77.2311 50.0795 76.5161 51.4305C75.5101 53.3915 76.2511 55.7745 78.1851 56.8075Z" fill="#E5320F"/>
<path d="M66.4238 50.5823C67.0328 50.9003 67.6688 51.0593 68.3038 51.0593C69.7078 51.0593 71.0858 50.2913 71.8008 48.9403C72.1188 48.3573 72.2778 47.7213 72.2778 47.0853C72.2778 45.6543 71.5098 44.2773 70.1588 43.5623C69.5768 43.2713 68.9408 43.1123 68.3308 43.1123C66.8998 43.1123 65.4958 43.8813 64.7808 45.2313C63.7478 47.1653 64.4898 49.5763 66.4238 50.5823Z" fill="#E5320F"/>
<path d="M336.674 193.575C336.833 193.655 336.992 193.734 337.177 193.813L341.416 191.032C341.813 190.767 342.158 190.502 342.502 190.184V190.078C342.502 188.648 341.734 187.27 340.383 186.555C339.8 186.237 339.164 186.078 338.528 186.078C337.098 186.078 335.72 186.847 335.005 188.198C333.998 190.131 334.74 192.542 336.674 193.575Z" fill="#E5320F"/>
<path d="M31.1927 31.9329C31.7757 32.2509 32.4117 32.4099 33.0467 32.4099C34.4767 32.4099 35.8547 31.6419 36.5697 30.2899C36.8607 29.7069 37.0197 29.0719 37.0197 28.4619C37.0197 27.0319 36.2517 25.6279 34.9007 24.9129C34.3187 24.6209 33.6827 24.4629 33.0727 24.4629C32.0927 24.4629 31.1387 24.8329 30.3977 25.4959C30.1857 25.8139 29.9737 26.0789 29.6827 26.3439C29.6027 26.4239 29.5767 26.5029 29.5237 26.5829C28.5167 28.5159 29.2317 30.9269 31.1927 31.9329Z" fill="#E5320F"/>
<path d="M42.9274 38.1581C43.5364 38.4761 44.1724 38.6351 44.7814 38.6351C46.2124 38.6351 47.5894 37.8661 48.3044 36.5161C48.6214 35.9071 48.7814 35.2711 48.7814 34.6351C48.7814 33.2311 48.0134 31.8531 46.6624 31.1381C46.0534 30.8211 45.4174 30.6621 44.8084 30.6621C43.3784 30.6621 42.0004 31.4571 41.2854 32.8071C40.2514 34.7411 40.9934 37.1521 42.9274 38.1581Z" fill="#E5320F"/>
<path d="M54.6878 44.3837C55.2708 44.7017 55.9068 44.8347 56.5418 44.8347C57.9718 44.8347 59.3498 44.0667 60.0648 42.7147C60.3568 42.1327 60.5148 41.4967 60.5148 40.8867C60.5148 39.4567 59.7468 38.0787 58.3958 37.3637C57.8128 37.0457 57.1778 36.8867 56.5418 36.8867C55.1108 36.8867 53.7338 37.6547 53.0188 39.0057C52.0128 40.9397 52.7548 43.3497 54.6878 44.3837Z" fill="#E5320F"/>
<path d="M293.39 161.681C292.807 161.363 292.171 161.231 291.535 161.231C290.105 161.231 288.727 161.999 288.012 163.35C287.005 165.284 287.747 167.694 289.681 168.701C290.264 169.019 290.899 169.178 291.535 169.178C292.966 169.178 294.343 168.41 295.058 167.059C295.35 166.477 295.508 165.841 295.508 165.231C295.509 163.8 294.741 162.396 293.39 161.681Z" fill="#E5320F"/>
<path d="M269.893 149.257C269.31 148.939 268.674 148.78 268.038 148.78C266.608 148.78 265.23 149.548 264.515 150.899C263.508 152.859 264.223 155.243 266.184 156.276C266.767 156.594 267.402 156.726 268.038 156.726C269.442 156.726 270.846 155.958 271.535 154.633C271.853 154.024 272.012 153.388 272.012 152.752C272.012 151.35 271.244 149.973 269.893 149.257Z" fill="#E5320F"/>
<path d="M174.025 107.007C175.456 107.007 176.833 106.239 177.548 104.888C177.866 104.305 178.025 103.67 178.025 103.034C178.025 101.603 177.257 100.226 175.906 99.5106C175.323 99.2196 174.688 99.0605 174.052 99.0605C172.621 99.0605 171.244 99.8285 170.529 101.18C169.496 103.114 170.238 105.524 172.172 106.557C172.78 106.848 173.416 107.007 174.025 107.007Z" fill="#E5320F"/>
<path d="M246.397 136.834C245.815 136.516 245.179 136.357 244.543 136.357C243.112 136.357 241.735 137.125 241.02 138.476C239.987 140.41 240.728 142.82 242.689 143.854C243.272 144.146 243.908 144.304 244.543 144.304C245.947 144.304 247.324 143.536 248.04 142.185C248.358 141.603 248.517 140.967 248.517 140.331C248.516 138.9 247.748 137.522 246.397 136.834Z" fill="#E5320F"/>
<path d="M162.291 100.781C163.722 100.781 165.099 100.013 165.814 98.688C166.106 98.105 166.265 97.47 166.265 96.834C166.265 95.403 165.496 94.026 164.146 93.311C163.563 92.993 162.927 92.834 162.292 92.834C160.861 92.834 159.484 93.602 158.769 94.953C157.762 96.887 158.477 99.297 160.438 100.33C161.02 100.648 161.656 100.781 162.291 100.781Z" fill="#E5320F"/>
<path d="M258.158 143.032C257.549 142.714 256.913 142.555 256.304 142.555C254.874 142.555 253.496 143.349 252.781 144.7C251.748 146.634 252.489 149.044 254.423 150.051C255.006 150.369 255.642 150.528 256.277 150.528C257.707 150.528 259.085 149.76 259.8 148.409C260.118 147.826 260.277 147.191 260.277 146.555C260.277 145.125 259.509 143.747 258.158 143.032Z" fill="#E5320F"/>
<path d="M185.787 113.231C187.218 113.231 188.595 112.463 189.311 111.112C189.602 110.529 189.761 109.894 189.761 109.284C189.761 107.853 188.993 106.45 187.642 105.734C187.059 105.417 186.423 105.257 185.787 105.257C184.356 105.257 182.979 106.052 182.264 107.403C181.258 109.337 181.999 111.747 183.933 112.754C184.516 113.072 185.151 113.231 185.787 113.231Z" fill="#E5320F"/>
<path d="M211.139 118.158C210.556 117.866 209.92 117.708 209.311 117.708C207.881 117.708 206.476 118.476 205.762 119.827C204.755 121.761 205.497 124.171 207.431 125.204C208.014 125.522 208.65 125.654 209.285 125.654C210.715 125.654 212.093 124.886 212.808 123.535C213.126 122.952 213.259 122.317 213.259 121.681C213.258 120.251 212.49 118.873 211.139 118.158Z" fill="#E5320F"/>
<path d="M222.899 124.383C222.317 124.065 221.68 123.906 221.045 123.906C219.614 123.906 218.237 124.7 217.522 126.052C216.489 127.986 217.23 130.396 219.165 131.403C219.774 131.721 220.41 131.88 221.019 131.88C222.45 131.88 223.827 131.112 224.542 129.761C224.86 129.179 225.019 128.543 225.019 127.907C225.018 126.476 224.25 125.099 222.899 124.383Z" fill="#E5320F"/>
<path d="M234.635 130.608C234.052 130.29 233.416 130.131 232.781 130.131C231.35 130.131 229.973 130.899 229.284 132.25C228.251 134.211 228.992 136.594 230.926 137.628C231.509 137.946 232.145 138.078 232.781 138.078C234.211 138.078 235.589 137.31 236.304 135.986C236.622 135.377 236.755 134.741 236.755 134.132C236.754 132.701 235.985 131.324 234.635 130.608Z" fill="#E5320F"/>
<path d="M195.668 118.979C196.277 119.297 196.913 119.429 197.522 119.429C198.952 119.429 200.33 118.661 201.045 117.336C201.363 116.727 201.522 116.091 201.522 115.456C201.522 114.052 200.753 112.674 199.402 111.959C198.819 111.641 198.184 111.482 197.548 111.482C196.117 111.482 194.74 112.25 194.025 113.601C192.992 115.536 193.734 117.946 195.668 118.979Z" fill="#E5320F"/>
<path d="M107.06 67.5887C107.378 67.0067 107.511 66.3707 107.511 65.7347C107.511 64.3037 106.742 62.9268 105.391 62.2118C104.808 61.9198 104.173 61.7607 103.563 61.7607C102.132 61.7607 100.755 62.5288 100.04 63.8798C99.0067 65.8138 99.7487 68.2238 101.682 69.2578C102.265 69.5498 102.9 69.7078 103.537 69.7078C104.967 69.7078 106.345 68.9397 107.06 67.5887Z" fill="#E5320F"/>
<path d="M318.555 179.482C318.846 178.899 319.005 178.264 319.005 177.654C319.005 176.223 318.237 174.82 316.886 174.104C316.304 173.812 315.667 173.654 315.058 173.654C313.627 173.654 312.223 174.422 311.508 175.773C310.502 177.707 311.243 180.117 313.177 181.15C313.759 181.468 314.395 181.6 315.031 181.6C316.462 181.601 317.839 180.833 318.555 179.482Z" fill="#E5320F"/>
<path d="M118.794 73.814C119.112 73.232 119.271 72.596 119.271 71.96C119.271 70.529 118.503 69.152 117.152 68.437C116.569 68.12 115.933 67.96 115.298 67.96C113.868 67.96 112.49 68.728 111.775 70.079C110.742 72.039 111.483 74.423 113.417 75.456C114.026 75.774 114.662 75.933 115.298 75.933C116.701 75.933 118.079 75.165 118.794 73.814Z" fill="#E5320F"/>
<path d="M154.053 92.4633C154.371 91.8813 154.53 91.2454 154.53 90.6094C154.53 89.1784 153.761 87.8014 152.41 87.0864C151.801 86.7684 151.165 86.6094 150.53 86.6094C149.126 86.6094 147.748 87.3774 147.033 88.7284C146 90.6884 146.742 93.0724 148.676 94.1054C149.285 94.4234 149.921 94.5824 150.53 94.5824C151.96 94.5824 153.338 93.8143 154.053 92.4633Z" fill="#E5320F"/>
<path d="M330.29 185.708C330.608 185.125 330.767 184.49 330.767 183.854C330.767 182.423 329.999 181.046 328.648 180.331C328.065 180.013 327.429 179.854 326.793 179.854C325.362 179.854 323.985 180.648 323.27 182C322.237 183.934 322.979 186.344 324.913 187.351C325.522 187.669 326.158 187.828 326.767 187.828C328.197 187.828 329.574 187.059 330.29 185.708Z" fill="#E5320F"/>
<path d="M307.27 171.43C307.27 169.999 306.502 168.622 305.151 167.907C304.568 167.589 303.932 167.43 303.297 167.43C301.867 167.43 300.489 168.198 299.774 169.549C298.741 171.483 299.482 173.893 301.416 174.926C302.025 175.244 302.661 175.403 303.271 175.403C304.701 175.403 306.079 174.634 306.794 173.283C307.111 172.701 307.27 172.065 307.27 171.43Z" fill="#E5320F"/>
<path d="M142.292 86.2381C142.609 85.6561 142.769 85.0201 142.769 84.3841C142.769 82.9531 142 81.5761 140.65 80.8611C140.067 80.5701 139.431 80.4111 138.822 80.4111C137.391 80.4111 135.987 81.1791 135.272 82.5301C134.265 84.4641 134.98 86.8751 136.94 87.9081C137.523 88.2001 138.159 88.3591 138.795 88.3591C140.199 88.3571 141.577 87.5891 142.292 86.2381Z" fill="#E5320F"/>
<path d="M130.557 80.0125C130.875 79.4305 131.034 78.7945 131.034 78.1585C131.034 76.7285 130.239 75.3505 128.888 74.6625C128.306 74.3445 127.67 74.1855 127.034 74.1855C125.603 74.1855 124.226 74.9535 123.537 76.3045C122.504 78.2385 123.246 80.6485 125.179 81.6815C125.761 81.9995 126.398 82.1315 127.033 82.1315C128.464 82.1325 129.841 81.3645 130.557 80.0125Z" fill="#E5320F"/>
<path d="M281.654 155.482C281.045 155.164 280.409 155.005 279.773 155.005C278.369 155.005 276.991 155.773 276.276 157.124C275.243 159.058 275.985 161.468 277.919 162.501C278.528 162.819 279.164 162.951 279.773 162.951C281.204 162.951 282.581 162.183 283.296 160.832C283.614 160.25 283.773 159.614 283.773 158.978C283.773 157.549 283.005 156.171 281.654 155.482Z" fill="#E5320F"/>
<path d="M335.72 202.714C334.448 203.535 333.76 205.019 333.945 206.529C334.131 208.012 335.164 209.284 336.594 209.787L354.925 216.171L360.037 234.926C360.461 236.383 361.653 237.469 363.137 237.761C364.62 238.052 366.13 237.469 367.057 236.278L378.792 220.808L398.183 221.735C399.004 221.761 399.772 221.55 400.434 221.153C401.017 220.808 401.52 220.305 401.865 219.67C402.58 218.372 402.501 216.73 401.653 215.485L390.58 199.538L397.441 181.366C397.971 179.962 397.653 178.373 396.62 177.26C395.587 176.147 394.024 175.723 392.567 176.173L373.971 181.763L358.819 169.631C357.654 168.677 356.038 168.492 354.66 169.128C353.282 169.764 352.408 171.115 352.382 172.651L351.958 192.042L351.349 192.439L346.316 195.75L335.72 202.714Z" fill="white"/>
<path d="M701.281 41.5233C700.804 40.8083 699.983 40.4103 699.135 40.5173L688.221 41.8153L680.963 33.5773C680.407 32.9413 679.533 32.6763 678.685 32.8883C677.864 33.1273 677.228 33.7893 677.069 34.6363L674.95 45.3913L664.858 49.7623C664.089 50.1073 663.56 50.8483 663.507 51.7223C663.481 52.5703 663.931 53.3653 664.672 53.7883L669.361 56.4113L673.202 58.5573L674.261 59.1393L674.473 61.4973L674.844 65.3113L675.294 70.0793C675.374 70.9273 675.93 71.6423 676.725 71.9603C677.52 72.2513 678.42 72.0923 679.056 71.5103L687.109 64.0403L697.811 66.4513C698.261 66.5303 698.712 66.5043 699.136 66.3453C699.48 66.2123 699.798 65.9743 700.063 65.6563C700.593 64.9943 700.699 64.0933 700.354 63.2993L695.745 53.3393L701.334 43.8823C701.758 43.1383 701.758 42.2383 701.281 41.5233Z" fill="white"/>
<path d="M94.6612 228.674C94.9002 227.853 94.6352 226.979 93.9992 226.396L85.8402 219.059L87.2442 208.171C87.3762 207.323 86.9792 206.476 86.2642 205.999C85.5752 205.549 84.6482 205.496 83.9062 205.946L74.3962 211.429L72.2772 210.423L65.6552 207.271L64.4902 206.714C63.6952 206.343 62.7952 206.449 62.1322 206.979C61.4432 207.509 61.1252 208.383 61.3112 209.204L63.6162 219.959L56.0662 227.933C55.4572 228.542 55.2722 229.443 55.5892 230.264C55.8802 231.059 56.5952 231.615 57.4432 231.721L68.3832 232.86L73.6282 242.502C73.8402 242.899 74.1842 243.217 74.5552 243.429C74.8992 243.588 75.2972 243.694 75.6942 243.667C76.5422 243.641 77.3102 243.111 77.6542 242.343L82.1042 232.303L92.9122 230.29C93.7612 230.131 94.4232 229.495 94.6612 228.674Z" fill="white"/>
<path d="M362.713 397.309L362.925 395.402L363.508 389.707C363.588 389.124 363.296 388.542 362.793 388.224C362.766 388.198 362.713 388.171 362.66 388.171C362.183 387.906 361.6 387.933 361.15 388.224L354.607 392.197L347.64 389.098C347.084 388.833 346.448 388.939 345.998 389.31C345.654 389.628 345.468 390.052 345.442 390.476C345.416 390.608 345.442 390.741 345.468 390.873L346.899 396.886L347.243 398.316L342.131 404.011C341.733 404.435 341.627 405.071 341.839 405.627C342.051 406.183 342.581 406.554 343.163 406.607L350.792 407.216L354.606 413.838C354.765 414.103 355.003 414.341 355.268 414.474C355.506 414.58 355.798 414.633 356.063 414.633C356.672 414.58 357.175 414.209 357.413 413.653L360.353 406.607L367.823 405.018C368.406 404.886 368.856 404.435 369.015 403.879C369.174 403.296 368.962 402.687 368.512 402.29L362.713 397.309Z" fill="white"/>
<path d="M15.6953 33.523L16.6223 31.272L17.4963 29.179L18.6093 26.477L20.4373 26.08L23.6433 25.418L26.1063 24.888C26.6893 24.756 27.1393 24.305 27.2983 23.749C27.4313 23.166 27.2453 22.557 26.7943 22.16L24.9143 20.544L22.4503 18.425L20.9933 17.18L21.7883 9.57697C21.8413 8.99397 21.5763 8.41197 21.0733 8.09397C20.5703 7.77597 19.9343 7.77597 19.4313 8.09397L12.8873 12.067L5.92031 8.96798C5.36431 8.70298 4.72831 8.80897 4.27831 9.17997C3.82831 9.57697 3.61631 10.16 3.74831 10.743L5.52331 18.187L0.410316 23.882C0.0133164 24.306 -0.119691 24.942 0.118309 25.498C0.330309 26.054 0.860321 26.425 1.44332 26.478L9.07232 27.087L9.62931 28.067L12.1983 32.518L12.8863 33.71C13.0453 33.975 13.2843 34.213 13.5493 34.346C13.7873 34.452 14.0523 34.505 14.3433 34.505C14.9273 34.45 15.4573 34.079 15.6953 33.523Z" fill="white"/>
<path d="M212.878 27.4522C210.041 31.8811 206.118 34.0961 201.106 34.0961C197.143 34.0961 193.841 32.7461 191.198 30.0461C188.555 27.3451 187.236 23.9552 187.236 19.8772C187.236 15.7972 188.555 12.4072 191.198 9.70715C193.841 7.00815 197.143 5.65715 201.106 5.65715C206.118 5.65715 210.041 7.87116 212.878 12.3002L217.541 8.86215C215.87 6.14315 213.578 3.98714 210.664 2.39314C207.749 0.800144 204.544 0.0031447 201.048 0.0031447C195.53 -0.0728553 190.752 1.84915 186.711 5.77315C182.671 9.69815 180.709 14.3982 180.825 19.8772C180.709 25.3552 182.671 30.0571 186.711 33.9801C190.752 37.9041 195.53 39.8262 201.048 39.7502C204.583 39.7502 207.799 38.9622 210.693 37.3902C213.586 35.8162 215.87 33.6502 217.541 30.8922L212.878 27.4522Z" fill="white"/>
<path d="M257.168 39.1069H263.813L246.854 0.00195312H244.756L227.796 39.1069H234.382L237.121 32.6969H254.43L257.168 39.1069ZM239.336 27.394L245.806 11.483L252.216 27.394H239.336Z" fill="white"/>
<path d="M283.104 24.2476H290.971C294.818 24.2476 297.954 23.1406 300.384 20.9256C302.812 18.7106 304.027 15.8746 304.027 12.4166C304.027 8.95856 302.821 6.13256 300.413 3.93756C298.003 1.74256 294.856 0.643555 290.972 0.643555H276.927V39.1066H283.104V24.2476ZM283.104 6.12256H290.855C292.992 6.12256 294.662 6.69657 295.867 7.84157C297.071 8.98857 297.674 10.5336 297.674 12.4746C297.674 14.4186 297.071 15.9526 295.867 17.0786C294.661 18.2046 292.992 18.7676 290.855 18.7676H283.104V6.12256Z" fill="white"/>
<path d="M324.072 24.2476H331.123L342.08 39.1076H349.132L337.593 23.2566C339.924 22.3626 341.74 20.9646 343.041 19.0606C344.342 17.1566 344.994 14.9416 344.994 12.4156C344.994 8.95757 343.788 6.13157 341.38 3.93657C338.97 1.74157 335.823 0.642578 331.94 0.642578H317.896V39.1056H324.073V24.2476H324.072ZM324.072 6.12257H331.823C333.921 6.12257 335.582 6.70558 336.805 7.87158C338.029 9.03658 338.642 10.5726 338.642 12.4756C338.642 14.3796 338.029 15.9056 336.805 17.0506C335.581 18.1976 333.921 18.7696 331.823 18.7696H324.072V6.12257Z" fill="white"/>
<path d="M367.839 0.644531H361.662V39.1075H367.839V0.644531Z" fill="white"/>
<path d="M402.396 39.7491C405.931 39.7491 409.146 38.9611 412.042 37.3891C414.936 35.8151 417.218 33.6491 418.89 30.8911L414.227 27.4531C411.391 31.8821 407.467 34.0971 402.456 34.0971C398.493 34.0971 395.19 32.7471 392.548 30.0471C389.905 27.3461 388.586 23.9561 388.586 19.8781C388.586 15.7981 389.905 12.4081 392.548 9.70812C395.19 7.00912 398.492 5.65811 402.456 5.65811C407.468 5.65811 411.391 7.87212 414.227 12.3011L418.89 8.86311C417.219 6.14411 414.927 3.98812 412.012 2.39412C409.098 0.801121 405.893 0.00412126 402.396 0.00412126C396.878 -0.0718787 392.1 1.85013 388.06 5.77413C384.019 9.69913 382.057 14.3991 382.173 19.8781C382.057 25.3561 384.019 30.0581 388.06 33.9811C392.1 37.9031 396.878 39.8251 402.396 39.7491Z" fill="white"/>
<path d="M471.047 19.8762C471.164 14.3972 469.191 9.69717 465.132 5.77217C461.072 1.84817 456.303 -0.0738319 450.825 0.00216814C445.307 -0.0738319 440.547 1.84817 436.547 5.77217C432.545 9.69717 430.583 14.3972 430.66 19.8762C430.544 25.3542 432.497 30.0562 436.518 33.9792C440.539 37.9032 445.307 39.8252 450.825 39.7492C456.303 39.8252 461.072 37.9032 465.132 33.9792C469.191 30.0562 471.164 25.3542 471.047 19.8762ZM460.732 30.0162C458.089 32.7362 454.807 34.0962 450.883 34.0962C446.881 34.0962 443.578 32.7462 440.975 30.0462C438.372 27.3452 437.071 23.9372 437.071 19.8172C437.071 15.7392 438.382 12.3582 441.005 9.67816C443.626 6.99616 446.92 5.65717 450.883 5.65717C454.806 5.65717 458.089 7.00817 460.732 9.70717C463.374 12.4082 464.695 15.7782 464.695 19.8182C464.695 23.8962 463.374 27.2972 460.732 30.0162Z" fill="white"/>
<path d="M491.62 24.2476H498.67L509.627 39.1076H516.679L505.14 23.2566C507.471 22.3626 509.287 20.9646 510.588 19.0606C511.889 17.1566 512.541 14.9416 512.541 12.4156C512.541 8.95757 511.335 6.13157 508.927 3.93657C506.517 1.74157 503.37 0.642578 499.486 0.642578H485.442V39.1056H491.62V24.2476ZM491.62 6.12257H499.37C501.468 6.12257 503.129 6.70558 504.352 7.87158C505.576 9.03658 506.189 10.5726 506.189 12.4756C506.189 14.3796 505.576 15.9056 504.352 17.0506C503.128 18.1976 501.468 18.7696 499.37 18.7696H491.62V6.12257Z" fill="white"/>
<path d="M554.734 26.578L531.365 0.00195312H529.209V39.1069H535.386V13.0569L558.813 39.7489H560.912V0.643951H554.734V26.578Z" fill="white"/>
</svg>
