<svg width="490" height="494" viewBox="0 0 490 494" fill="none" xmlns="http://www.w3.org/2000/svg">
<path d="M55.7122 392.637C56.2952 392.954 56.9572 393.114 57.5932 393.114C58.9972 393.114 60.3741 392.373 61.0901 391.021C61.4081 390.412 61.5672 389.776 61.5672 389.14C61.5672 387.737 60.7992 386.359 59.4742 385.644C58.8652 385.326 58.2291 385.166 57.5941 385.166C56.1901 385.166 54.8122 385.935 54.0972 387.259C53.0632 389.194 53.7782 391.604 55.7122 392.637Z" fill="#E5320F"/>
<path d="M49.2749 404.557C49.8839 404.875 50.5459 405.035 51.1549 405.035C52.5859 405.035 53.9628 404.293 54.6778 402.942C54.9958 402.333 55.1549 401.697 55.1549 401.061C55.1549 399.657 54.3868 398.28 53.0618 397.564C52.4528 397.247 51.8168 397.087 51.1818 397.087C49.7778 397.087 48.3998 397.856 47.6848 399.18C46.6258 401.114 47.3679 403.524 49.2749 404.557Z" fill="#E5320F"/>
<path d="M106.015 307.578C106.333 306.97 106.492 306.333 106.492 305.697C106.492 304.294 105.724 302.916 104.4 302.201C103.791 301.883 103.155 301.724 102.519 301.724C101.115 301.724 99.7373 302.492 99.0223 303.817C97.9893 305.751 98.7044 308.161 100.638 309.194C101.247 309.512 101.883 309.671 102.519 309.671C103.922 309.67 105.3 308.929 106.015 307.578Z" fill="#E5320F"/>
<path d="M80.3466 355.26C80.6646 354.651 80.8236 354.015 80.8236 353.379C80.8236 351.975 80.0556 350.597 78.7306 349.882C78.1216 349.565 77.4856 349.405 76.8496 349.405C75.4456 349.405 74.0686 350.174 73.3526 351.498C72.2926 353.432 73.0346 355.842 74.9686 356.875C75.5516 357.193 76.2136 357.352 76.8496 357.352C78.2546 357.352 79.6316 356.611 80.3466 355.26Z" fill="#E5320F"/>
<path d="M93.1686 331.417C93.4866 330.809 93.6456 330.172 93.6456 329.537C93.6456 328.133 92.8766 326.756 91.5526 326.041C90.9696 325.723 90.3336 325.563 89.6986 325.563C88.2686 325.563 86.9176 326.331 86.1756 327.656C85.1426 329.59 85.8576 332 87.7916 333.033C88.4006 333.351 89.0366 333.51 89.6726 333.51C91.1016 333.51 92.4526 332.769 93.1686 331.417Z" fill="#E5320F"/>
<path d="M81.3798 344.955C81.9888 345.272 82.6248 345.432 83.2608 345.432C84.6648 345.432 86.0419 344.69 86.7579 343.339C87.0759 342.73 87.2348 342.094 87.2348 341.458C87.2348 340.055 86.4658 338.677 85.1418 337.961C84.5328 337.644 83.8968 337.484 83.2608 337.484C81.8568 337.484 80.4799 338.253 79.7639 339.577C78.7319 341.511 79.4468 343.922 81.3798 344.955Z" fill="#E5320F"/>
<path d="M94.2274 321.115C94.8104 321.432 95.4724 321.592 96.1084 321.592C97.5124 321.592 98.8893 320.85 99.6053 319.499C99.9233 318.89 100.082 318.254 100.082 317.618C100.082 316.214 99.3143 314.836 97.9903 314.12C97.3813 313.803 96.7454 313.644 96.1094 313.644C94.7054 313.644 93.3274 314.412 92.6124 315.736C91.5524 317.669 92.2944 320.081 94.2274 321.115Z" fill="#E5320F"/>
<path d="M62.1215 380.716C62.7305 381.034 63.3666 381.194 64.0026 381.194C65.4066 381.194 66.7845 380.452 67.4995 379.101C67.8165 378.492 67.9766 377.856 67.9766 377.22C67.9766 375.816 67.2086 374.439 65.8836 373.723C65.2746 373.406 64.6386 373.246 64.0026 373.246C62.5986 373.246 61.2215 374.015 60.5055 375.339C59.4725 377.273 60.1885 379.683 62.1215 380.716Z" fill="#E5320F"/>
<path d="M68.5326 368.796C69.1416 369.113 69.7776 369.273 70.4136 369.273C71.8446 369.273 73.2216 368.532 73.9366 367.18C74.2546 366.571 74.4136 365.935 74.4136 365.299C74.4136 363.896 73.6457 362.518 72.3207 361.803C71.7117 361.485 71.0756 361.325 70.4396 361.325C69.0356 361.325 67.6586 362.094 66.9426 363.418C65.8836 365.352 66.6256 367.763 68.5326 368.796Z" fill="#E5320F"/>
<path d="M107.049 297.272C107.658 297.59 108.294 297.75 108.93 297.75C109.592 297.75 110.254 297.591 110.837 297.272L109.618 295.047C109.088 294.04 108.055 293.352 106.889 293.245L105.035 293.061C104.718 294.704 105.486 296.452 107.049 297.272Z" fill="#E5320F"/>
<path d="M344.636 217.512C344.636 217.141 344.583 216.77 344.477 216.4C343.974 214.652 342.384 213.512 340.662 213.512C340.291 213.512 339.92 213.565 339.55 213.671C337.457 214.28 336.238 216.479 336.821 218.571C337.324 220.319 338.914 221.459 340.662 221.459C341.007 221.459 341.377 221.406 341.748 221.3C343.497 220.824 344.636 219.234 344.636 217.512Z" fill="#E5320F"/>
<path d="M304.187 232.029C305.936 231.552 307.075 229.963 307.075 228.241C307.075 227.87 307.022 227.5 306.916 227.129C306.439 225.38 304.85 224.241 303.128 224.241C302.757 224.241 302.386 224.294 302.015 224.4C299.896 225.009 298.678 227.208 299.287 229.3C299.79 231.048 301.38 232.188 303.101 232.188C303.472 232.188 303.843 232.135 304.187 232.029Z" fill="#E5320F"/>
<path d="M169.406 267.552C169.406 267.207 169.353 266.836 169.247 266.465C168.744 264.717 167.154 263.578 165.433 263.578C165.062 263.578 164.691 263.631 164.32 263.736C162.227 264.345 161.009 266.545 161.591 268.637C162.094 270.385 163.684 271.524 165.432 271.524C165.776 271.524 166.147 271.471 166.518 271.366C168.241 270.889 169.406 269.3 169.406 267.552Z" fill="#E5320F"/>
<path d="M144.214 273.618C143.711 271.87 142.121 270.73 140.4 270.73C140.029 270.73 139.658 270.784 139.288 270.889C137.195 271.498 135.976 273.698 136.586 275.79C137.063 277.538 138.652 278.677 140.4 278.677C140.745 278.677 141.115 278.623 141.486 278.517C143.235 278.04 144.374 276.452 144.374 274.73C144.374 274.359 144.32 273.989 144.214 273.618Z" fill="#E5320F"/>
<path d="M156.717 270.041C156.24 268.293 154.652 267.154 152.93 267.154C152.559 267.154 152.187 267.207 151.817 267.312C149.697 267.921 148.479 270.121 149.088 272.213C149.591 273.961 151.181 275.1 152.902 275.1C153.273 275.1 153.644 275.047 153.988 274.968C155.737 274.464 156.875 272.875 156.875 271.154C156.876 270.784 156.823 270.412 156.717 270.041Z" fill="#E5320F"/>
<path d="M202.996 252.85C202.625 252.85 202.254 252.903 201.883 253.008C199.764 253.617 198.546 255.817 199.155 257.909C199.658 259.657 201.247 260.796 202.969 260.796C203.34 260.796 203.711 260.743 204.055 260.664C205.804 260.16 206.943 258.571 206.943 256.85C206.943 256.479 206.89 256.108 206.784 255.737C206.307 253.989 204.717 252.85 202.996 252.85Z" fill="#E5320F"/>
<path d="M265.565 242.916C265.909 242.916 266.28 242.862 266.651 242.757C268.4 242.28 269.539 240.691 269.539 238.969C269.539 238.598 269.486 238.227 269.38 237.857C268.877 236.108 267.287 234.969 265.566 234.969C265.195 234.969 264.824 235.022 264.453 235.128C262.36 235.737 261.142 237.936 261.751 240.028C262.227 241.777 263.817 242.916 265.565 242.916Z" fill="#E5320F"/>
<path d="M253.035 246.493C253.406 246.493 253.75 246.439 254.121 246.334C255.87 245.857 257.009 244.268 257.009 242.546C257.009 242.175 256.956 241.804 256.85 241.433C256.373 239.685 254.784 238.546 253.062 238.546C252.691 238.546 252.32 238.599 251.95 238.705C249.831 239.314 248.612 241.513 249.221 243.605C249.724 245.353 251.314 246.493 253.035 246.493Z" fill="#E5320F"/>
<path d="M240.531 242.121C240.187 242.121 239.816 242.174 239.445 242.28C237.326 242.889 236.107 245.088 236.69 247.18C237.193 248.928 238.783 250.068 240.531 250.068C240.876 250.068 241.246 250.014 241.617 249.909C243.339 249.431 244.505 247.843 244.505 246.095C244.505 245.75 244.452 245.379 244.346 245.009C243.842 243.26 242.253 242.121 240.531 242.121Z" fill="#E5320F"/>
<path d="M228.029 245.698C227.658 245.698 227.287 245.751 226.916 245.857C224.797 246.465 223.578 248.665 224.187 250.757C224.69 252.505 226.28 253.645 228.001 253.645C228.372 253.645 228.743 253.591 229.087 253.486C230.835 253.008 231.974 251.42 231.974 249.698C231.974 249.327 231.921 248.956 231.815 248.585C231.34 246.836 229.751 245.698 228.029 245.698Z" fill="#E5320F"/>
<path d="M215.499 249.274C215.128 249.274 214.757 249.327 214.386 249.432C212.293 250.041 211.075 252.241 211.657 254.333C212.16 256.081 213.75 257.221 215.498 257.221C215.842 257.221 216.213 257.167 216.584 257.062C218.333 256.584 219.471 254.996 219.471 253.274C219.471 252.903 219.418 252.532 219.312 252.162C218.81 250.412 217.221 249.274 215.499 249.274Z" fill="#E5320F"/>
<path d="M328.161 217.088C327.79 217.088 327.419 217.141 327.048 217.247C324.929 217.856 323.71 220.055 324.319 222.147C324.822 223.895 326.412 225.035 328.134 225.035C328.505 225.035 328.849 224.982 329.22 224.876C330.968 224.399 332.107 222.809 332.107 221.088C332.107 220.717 332.054 220.347 331.948 219.976C331.472 218.228 329.882 217.088 328.161 217.088Z" fill="#E5320F"/>
<path d="M128.267 282.227H128.293C128.532 282.201 128.743 282.174 128.982 282.122C130.704 281.618 131.843 280.029 131.843 278.308C131.843 277.937 131.79 277.566 131.684 277.195C131.207 275.447 129.618 274.308 127.896 274.308C127.525 274.308 127.155 274.361 126.784 274.466C126.678 274.492 126.598 274.546 126.492 274.572H126.466L126.016 278.148C125.883 279.287 126.308 280.426 127.155 281.22L128.267 282.227Z" fill="#E5320F"/>
<path d="M278.068 239.34C278.439 239.34 278.81 239.286 279.154 239.181C280.902 238.704 282.041 237.115 282.041 235.393C282.041 235.022 281.987 234.651 281.881 234.281C281.404 232.532 279.816 231.393 278.094 231.393C277.723 231.393 277.351 231.446 276.98 231.552C274.861 232.161 273.642 234.36 274.251 236.452C274.756 238.201 276.346 239.34 278.068 239.34Z" fill="#E5320F"/>
<path d="M290.598 235.764C290.942 235.764 291.313 235.71 291.684 235.605C293.406 235.128 294.571 233.539 294.571 231.79C294.571 231.445 294.518 231.074 294.412 230.704C293.909 228.955 292.32 227.816 290.598 227.816C290.227 227.816 289.856 227.869 289.486 227.975C287.393 228.584 286.174 230.783 286.757 232.875C287.26 234.624 288.85 235.764 290.598 235.764Z" fill="#E5320F"/>
<path d="M315.631 228.612C315.975 228.612 316.346 228.559 316.717 228.453C318.466 227.976 319.604 226.387 319.604 224.665C319.604 224.294 319.551 223.923 319.445 223.553C318.942 221.804 317.352 220.665 315.631 220.665C315.286 220.665 314.916 220.718 314.545 220.824C312.426 221.433 311.208 223.632 311.817 225.724C312.293 227.472 313.882 228.612 315.631 228.612Z" fill="#E5320F"/>
<path d="M190.466 264.372C190.81 264.372 191.181 264.319 191.552 264.214C193.3 263.736 194.439 262.148 194.439 260.426C194.439 260.055 194.386 259.684 194.28 259.313C193.777 257.565 192.188 256.426 190.466 256.426C190.122 256.426 189.751 256.479 189.38 256.584C187.261 257.193 186.042 259.393 186.625 261.485C187.128 263.234 188.718 264.372 190.466 264.372Z" fill="#E5320F"/>
<path d="M177.936 267.949C178.307 267.949 178.678 267.896 179.022 267.791C180.771 267.313 181.91 265.725 181.91 264.003C181.91 263.632 181.857 263.261 181.751 262.89C181.274 261.142 179.685 260.003 177.963 260.003C177.592 260.003 177.221 260.056 176.85 260.161C174.731 260.77 173.513 262.97 174.121 265.062C174.625 266.81 176.214 267.949 177.936 267.949Z" fill="#E5320F"/>
<path d="M412.689 242.386C413.139 241.698 413.377 240.903 413.377 240.134C413.377 238.862 412.768 237.617 411.629 236.85C410.94 236.4 410.172 236.162 409.404 236.162C408.133 236.162 406.887 236.77 406.119 237.91C404.874 239.711 405.35 242.175 407.152 243.42C407.841 243.897 408.609 244.108 409.377 244.108C410.649 244.108 411.921 243.498 412.689 242.386Z" fill="#E5320F"/>
<path d="M420.743 251.525L418.386 244.108C417.856 244.4 417.406 244.824 417.035 245.353C415.79 247.155 416.267 249.645 418.095 250.863C418.757 251.341 419.551 251.552 420.319 251.552C420.45 251.552 420.61 251.552 420.743 251.525Z" fill="#E5320F"/>
<path d="M398.465 236.664C399.736 236.664 400.982 236.055 401.75 234.916C402.227 234.227 402.439 233.459 402.439 232.69C402.439 231.419 401.83 230.173 400.717 229.406C400.028 228.928 399.234 228.717 398.466 228.717C397.195 228.717 395.949 229.326 395.181 230.439C393.962 232.267 394.412 234.731 396.24 235.976C396.928 236.426 397.697 236.664 398.465 236.664Z" fill="#E5320F"/>
<path d="M389.776 221.961C389.088 221.484 388.319 221.273 387.551 221.273C387.127 221.273 386.703 221.352 386.28 221.459C386.439 223.419 385.353 225.247 383.684 226.147C383.896 227.074 384.452 227.949 385.3 228.531C385.988 228.982 386.757 229.22 387.551 229.22C388.796 229.22 390.068 228.611 390.836 227.471C391.287 226.782 391.525 226.014 391.525 225.246C391.525 223.975 390.915 222.73 389.776 221.961Z" fill="#E5320F"/>
<path d="M453.113 375.047C455.312 375.047 457.087 373.273 457.087 371.074C457.087 368.875 455.312 367.1 453.113 367.1C450.914 367.1 449.14 368.874 449.14 371.074C449.14 373.273 450.915 375.047 453.113 375.047Z" fill="#E5320F"/>
<path d="M453.113 349.777C455.312 349.777 457.087 348.002 457.087 345.803C457.087 343.604 455.312 341.829 453.113 341.829C450.914 341.829 449.14 343.603 449.14 345.803C449.14 348.001 450.915 349.777 453.113 349.777Z" fill="#E5320F"/>
<path d="M453.113 311.843C454.226 311.843 455.206 311.393 455.921 310.677C453.404 310.518 450.914 309.3 449.246 306.969C449.166 307.26 449.14 307.551 449.14 307.869C449.14 310.068 450.915 311.843 453.113 311.843Z" fill="#E5320F"/>
<path d="M453.113 362.412C455.312 362.412 457.087 360.637 457.087 358.438C457.087 356.239 455.312 354.464 453.113 354.464C450.914 354.464 449.14 356.238 449.14 358.438C449.14 360.637 450.915 362.412 453.113 362.412Z" fill="#E5320F"/>
<path d="M453.113 337.141C455.312 337.141 457.087 335.339 457.087 333.141C457.087 330.968 455.312 329.167 453.113 329.167C450.914 329.167 449.14 330.968 449.14 333.141C449.14 335.339 450.915 337.141 453.113 337.141Z" fill="#E5320F"/>
<path d="M453.113 324.479C455.312 324.479 457.087 322.704 457.087 320.505C457.087 318.306 455.312 316.531 453.113 316.531C450.914 316.531 449.14 318.305 449.14 320.505C449.14 322.704 450.915 324.479 453.113 324.479Z" fill="#E5320F"/>
<path d="M453.113 387.71C455.312 387.71 457.087 385.908 457.087 383.736C457.087 381.537 455.312 379.762 453.113 379.762C450.914 379.762 449.14 381.536 449.14 383.736C449.14 385.909 450.915 387.71 453.113 387.71Z" fill="#E5320F"/>
<path d="M83.3942 418.942C83.0502 418.942 82.7061 418.968 82.3611 419.074C80.2421 419.631 78.9971 421.829 79.5801 423.948C80.0571 425.723 81.6462 426.888 83.3942 426.888C83.7392 426.888 84.1091 426.835 84.4541 426.73C86.2281 426.28 87.3682 424.69 87.3682 422.942C87.3682 422.597 87.3421 422.226 87.2361 421.882C86.7581 420.107 85.1692 418.942 83.3942 418.942Z" fill="#E5320F"/>
<path d="M134.917 405.035C134.573 405.035 134.202 405.061 133.857 405.167C131.738 405.724 130.493 407.922 131.076 410.015C131.553 411.79 133.142 412.955 134.89 412.955C135.234 412.955 135.605 412.929 135.95 412.823C137.698 412.345 138.864 410.73 138.864 408.981C138.864 408.637 138.837 408.293 138.731 407.949C138.255 406.173 136.665 405.035 134.917 405.035Z" fill="#E5320F"/>
<path d="M147.764 401.537C147.42 401.537 147.075 401.563 146.731 401.67C144.612 402.253 143.367 404.425 143.95 406.544C144.427 408.318 146.016 409.484 147.764 409.484C148.108 409.484 148.452 409.431 148.797 409.351C150.572 408.874 151.737 407.258 151.737 405.51C151.737 405.165 151.71 404.822 151.605 404.477C151.129 402.704 149.539 401.537 147.764 401.537Z" fill="#E5320F"/>
<path d="M122.016 408.504C121.672 408.504 121.327 408.53 120.983 408.637C118.864 409.22 117.619 411.392 118.202 413.511C118.679 415.285 120.268 416.451 122.016 416.451C122.36 416.451 122.704 416.398 123.076 416.318C124.851 415.841 125.99 414.253 125.99 412.504C125.99 412.16 125.964 411.789 125.858 411.444C125.38 409.67 123.791 408.504 122.016 408.504Z" fill="#E5320F"/>
<path d="M279.896 397.511C277.777 397.511 276.028 399.18 275.949 401.299C275.843 403.497 277.538 405.352 279.737 405.458H279.923C282.042 405.458 283.791 403.789 283.87 401.644V401.458C283.87 399.365 282.228 397.617 280.082 397.511H279.896Z" fill="#E5320F"/>
<path d="M70.5197 422.412C70.2017 422.412 69.8578 422.465 69.5138 422.545C68.4538 422.836 67.6328 423.524 67.1028 424.399L66.6787 425.511C66.5197 426.12 66.5197 426.756 66.7047 427.418C67.1817 429.192 68.7708 430.358 70.5188 430.358C70.8628 430.358 71.2337 430.305 71.5787 430.225C73.3537 429.748 74.4928 428.16 74.4928 426.411C74.4928 426.067 74.4667 425.696 74.3607 425.351C73.8837 423.578 72.2677 422.412 70.5197 422.412Z" fill="#E5320F"/>
<path d="M109.142 411.975C108.798 411.975 108.454 412.028 108.109 412.107C105.989 412.69 104.745 414.862 105.327 416.981C105.804 418.756 107.393 419.921 109.141 419.921C109.486 419.921 109.83 419.868 110.201 419.789C111.975 419.312 113.115 417.723 113.115 415.975C113.115 415.63 113.089 415.259 112.983 414.915C112.506 413.14 110.89 411.975 109.142 411.975Z" fill="#E5320F"/>
<path d="M96.2952 415.471C95.9502 415.471 95.5801 415.497 95.2351 415.604C93.1161 416.161 91.8711 418.333 92.4541 420.452C92.9311 422.226 94.5201 423.392 96.2681 423.392C96.6131 423.392 96.9572 423.366 97.3282 423.259C99.1032 422.782 100.242 421.193 100.242 419.445C100.242 419.1 100.216 418.73 100.11 418.385C99.6321 416.611 98.0432 415.471 96.2952 415.471Z" fill="#E5320F"/>
<path d="M319.711 407.18H319.87C321.989 407.18 323.764 405.511 323.844 403.392V403.206C323.844 401.087 322.201 399.339 320.056 399.259H319.87C317.751 399.259 316.002 400.902 315.897 403.047C315.817 405.246 317.512 407.101 319.711 407.18Z" fill="#E5320F"/>
<path d="M373.167 409.51C375.286 409.51 377.061 407.842 377.14 405.697V405.537C377.14 403.444 375.472 401.67 373.352 401.563H373.166C371.047 401.563 369.298 403.233 369.192 405.352C369.112 407.551 370.808 409.405 373.006 409.51H373.167Z" fill="#E5320F"/>
<path d="M293.405 398.094H293.219C291.1 398.094 289.351 399.737 289.272 401.882C289.166 404.08 290.861 405.935 293.06 406.041H293.219C295.338 406.041 297.113 404.372 297.219 402.226V402.068C297.219 399.975 295.55 398.2 293.405 398.094Z" fill="#E5320F"/>
<path d="M342.545 404.213C342.465 406.385 344.161 408.238 346.36 408.344H346.519C348.638 408.344 350.413 406.676 350.493 404.557V404.371C350.493 402.252 348.85 400.503 346.705 400.397H346.546C344.425 400.398 342.651 402.068 342.545 404.213Z" fill="#E5320F"/>
<path d="M359.869 408.927C361.962 408.927 363.737 407.259 363.816 405.114V404.927C363.816 402.834 362.147 401.086 360.028 400.981H359.842C357.723 400.981 355.975 402.651 355.868 404.769C355.789 406.968 357.484 408.822 359.683 408.927H359.869Z" fill="#E5320F"/>
<path d="M306.571 406.623C308.69 406.623 310.438 404.928 310.517 402.809V402.623C310.517 400.504 308.875 398.756 306.729 398.677H306.543C304.424 398.677 302.677 400.319 302.597 402.465C302.491 404.663 304.185 406.518 306.384 406.597C306.438 406.597 306.492 406.623 306.571 406.623Z" fill="#E5320F"/>
<path d="M333.379 399.816H333.22C331.101 399.816 329.326 401.485 329.22 403.63C329.14 405.828 330.836 407.656 333.034 407.763H333.193C335.312 407.763 337.088 406.094 337.167 403.975V403.789C337.167 401.67 335.525 399.921 333.379 399.816Z" fill="#E5320F"/>
<path d="M413.299 403.312H413.114C411.021 403.312 409.273 404.954 409.167 407.1C409.088 409.298 410.783 411.154 412.955 411.233H413.141C415.26 411.233 417.009 409.589 417.115 407.444V407.286C417.114 405.166 415.445 403.392 413.299 403.312Z" fill="#E5320F"/>
<path d="M160.638 398.068C160.294 398.068 159.95 398.094 159.605 398.2C157.485 398.757 156.241 400.955 156.823 403.074C157.3 404.849 158.889 406.014 160.637 406.014C160.981 406.014 161.326 405.961 161.697 405.856C163.446 405.378 164.611 403.79 164.611 402.042C164.611 401.697 164.585 401.353 164.479 401.009C164.003 399.233 162.413 398.068 160.638 398.068Z" fill="#E5320F"/>
<path d="M386.676 402.146H386.49C384.371 402.146 382.623 403.789 382.516 405.934C382.437 408.132 384.132 409.988 386.33 410.094H386.489C388.608 410.094 390.357 408.425 390.463 406.28V406.12C390.464 404.027 388.795 402.252 386.676 402.146Z" fill="#E5320F"/>
<path d="M399.975 402.729H399.788C397.696 402.729 395.948 404.372 395.842 406.517C395.762 408.715 397.458 410.571 399.63 410.676H399.816C401.935 410.676 403.682 409.007 403.788 406.861V406.703C403.788 404.583 402.121 402.808 399.975 402.729Z" fill="#E5320F"/>
<path d="M213.486 394.623H213.3C212.585 394.623 211.923 394.809 211.34 395.153H211.314C211.049 395.656 210.678 396.106 210.175 396.504L209.698 396.875V396.901C209.486 397.378 209.353 397.881 209.327 398.411C209.221 400.61 210.943 402.465 213.141 402.544H213.3C215.419 402.544 217.168 400.875 217.273 398.756V398.597C217.274 396.478 215.605 394.704 213.486 394.623Z" fill="#E5320F"/>
<path d="M226.784 395.206H226.598C224.505 395.206 222.757 396.849 222.651 398.994C222.545 401.192 224.267 403.047 226.439 403.127H226.624C228.743 403.127 230.492 401.458 230.598 399.339V399.18C230.598 397.061 228.929 395.286 226.784 395.206Z" fill="#E5320F"/>
<path d="M240.107 395.763H239.948C237.855 395.763 236.08 397.432 235.974 399.577C235.868 401.749 237.59 403.603 239.762 403.709H239.948C242.067 403.709 243.815 402.041 243.921 399.921V399.763C243.921 397.644 242.253 395.869 240.107 395.763Z" fill="#E5320F"/>
<path d="M169.539 398.756C169.565 399.021 169.618 399.313 169.671 399.577C169.883 400.292 170.254 400.901 170.757 401.378C170.651 400.478 170.254 399.577 169.645 398.861L169.539 398.756Z" fill="#E5320F"/>
<path d="M270.545 401.061V400.875C270.545 398.782 268.902 397.034 266.757 396.928H266.571C264.452 396.928 262.704 398.597 262.624 400.716C262.518 402.915 264.213 404.769 266.412 404.875H266.597C268.717 404.875 270.465 403.206 270.545 401.061Z" fill="#E5320F"/>
<path d="M253.433 396.346H253.274C251.181 396.346 249.38 398.014 249.301 400.16C249.195 402.332 250.917 404.186 253.089 404.292H253.275C255.394 404.292 257.143 402.623 257.249 400.504V400.346C257.247 398.226 255.578 396.452 253.433 396.346Z" fill="#E5320F"/>
<path d="M344.479 171.923C343.79 171.923 343.075 172.108 342.413 172.505C340.559 173.671 339.976 176.108 341.115 177.988C341.857 179.207 343.155 179.869 344.506 179.869C345.221 179.869 345.936 179.684 346.572 179.286C347.791 178.544 348.48 177.246 348.48 175.895C348.48 175.18 348.268 174.465 347.871 173.803C347.128 172.585 345.829 171.923 344.479 171.923Z" fill="#E5320F"/>
<path d="M311.922 120.135L306.306 117.645C306.014 117.512 305.697 117.406 305.379 117.38C305.061 118.44 305.167 119.605 305.803 120.585C306.544 121.804 307.843 122.493 309.167 122.493C309.882 122.493 310.598 122.281 311.26 121.884C311.896 121.513 312.373 120.983 312.691 120.374C312.426 120.321 312.161 120.241 311.922 120.135Z" fill="#E5320F"/>
<path d="M326.995 155.022C327.737 156.241 329.035 156.93 330.386 156.93C331.074 156.93 331.79 156.718 332.452 156.32C333.671 155.579 334.333 154.28 334.333 152.956C334.333 152.241 334.147 151.499 333.75 150.863C333.008 149.644 331.71 148.956 330.386 148.956C329.671 148.956 328.929 149.168 328.293 149.565C326.412 150.705 325.83 153.168 326.995 155.022Z" fill="#E5320F"/>
<path d="M323.286 137.486C322.598 137.486 321.882 137.672 321.22 138.069C319.366 139.235 318.756 141.672 319.922 143.553C320.664 144.771 321.988 145.433 323.313 145.433C324.028 145.433 324.743 145.248 325.379 144.851C326.598 144.082 327.286 142.785 327.286 141.46C327.286 140.745 327.101 140.03 326.703 139.394C325.936 138.175 324.637 137.486 323.286 137.486Z" fill="#E5320F"/>
<path d="M314.148 126.599C312.294 127.765 311.711 130.201 312.85 132.056C313.619 133.275 314.916 133.963 316.241 133.963C316.956 133.963 317.671 133.778 318.334 133.38C319.552 132.612 320.214 131.314 320.214 129.963C320.214 129.274 320.029 128.559 319.631 127.897C318.863 126.678 317.565 126.016 316.214 126.016C315.525 126.016 314.81 126.201 314.148 126.599Z" fill="#E5320F"/>
<path d="M348.186 189.459C348.928 190.678 350.226 191.366 351.577 191.366C352.266 191.366 353.007 191.154 353.643 190.757C354.014 190.545 354.305 190.28 354.597 189.963L355.02 187.764C355.1 187.34 355.232 186.943 355.444 186.572C355.338 186.148 355.179 185.697 354.941 185.3C354.199 184.082 352.901 183.393 351.577 183.393C350.862 183.393 350.12 183.605 349.484 184.002C347.603 185.141 347.021 187.605 348.186 189.459Z" fill="#E5320F"/>
<path d="M337.405 160.453C336.717 160.453 336 160.638 335.339 161.036C333.485 162.175 332.902 164.639 334.041 166.493C334.809 167.738 336.107 168.4 337.432 168.4C338.147 168.4 338.862 168.215 339.525 167.818C340.743 167.05 341.406 165.752 341.406 164.4C341.406 163.712 341.22 162.996 340.823 162.334C340.055 161.115 338.756 160.453 337.405 160.453Z" fill="#E5320F"/>
<path d="M385.909 47.42C386.757 47.42 387.604 47.155 388.319 46.626C389.352 45.858 389.882 44.665 389.882 43.447C389.882 42.626 389.644 41.778 389.088 41.063C388.319 40.03 387.128 39.5 385.909 39.5C385.088 39.5 384.24 39.739 383.525 40.295C381.777 41.619 381.432 44.11 382.757 45.858C383.525 46.891 384.716 47.42 385.909 47.42Z" fill="#E5320F"/>
<path d="M354.492 71.2608C355.339 71.2608 356.16 70.9958 356.902 70.4668C357.935 69.6988 358.465 68.5068 358.465 67.2878C358.465 66.4668 358.227 65.6188 357.67 64.9038C356.876 63.8708 355.684 63.3408 354.465 63.3408C353.644 63.3408 352.797 63.5798 352.081 64.1358C350.332 65.4598 349.988 67.9498 351.313 69.6988C352.108 70.7308 353.299 71.2608 354.492 71.2608Z" fill="#E5320F"/>
<path d="M364.954 63.3135C365.802 63.3135 366.649 63.0486 367.365 62.5196C368.398 61.7516 368.928 60.5596 368.928 59.3406C368.928 58.5196 368.69 57.6715 368.134 56.9565C367.366 55.9235 366.174 55.3936 364.955 55.3936C364.134 55.3936 363.286 55.6315 362.571 56.1885C360.822 57.5125 360.478 60.0026 361.803 61.7516C362.57 62.7846 363.762 63.3135 364.954 63.3135Z" fill="#E5320F"/>
<path d="M344.027 79.2078C344.848 79.2078 345.697 78.9427 346.412 78.4127C347.445 77.6447 347.975 76.4528 347.975 75.2338C347.975 74.4128 347.736 73.5647 347.18 72.8497C346.412 71.8167 345.219 71.2598 344.027 71.2598C343.179 71.2598 342.332 71.5247 341.616 72.0807C339.868 73.4057 339.525 75.8957 340.849 77.6437C341.644 78.6787 342.809 79.2078 344.027 79.2078Z" fill="#E5320F"/>
<path d="M375.444 55.3679C376.292 55.3679 377.113 55.1029 377.828 54.5729C378.861 53.8049 379.391 52.6129 379.391 51.3939C379.391 50.5729 379.153 49.7249 378.596 49.0099C377.828 47.9769 376.636 47.4199 375.444 47.4199C374.596 47.4199 373.749 47.6849 373.034 48.2409C371.285 49.5659 370.941 52.055 372.265 53.804C373.06 54.838 374.252 55.3679 375.444 55.3679Z" fill="#E5320F"/>
<path d="M333.538 87.1553C334.386 87.1553 335.233 86.8903 335.949 86.3613C336.982 85.5933 337.512 84.4014 337.512 83.2094C337.512 82.3614 337.247 81.5143 336.718 80.7983C335.95 79.7653 334.73 79.2354 333.538 79.2354C332.69 79.2354 331.844 79.4743 331.128 80.0303C329.379 81.3543 329.035 83.8444 330.386 85.5934C331.154 86.6254 332.346 87.1553 333.538 87.1553Z" fill="#E5320F"/>
<path d="M315.366 96.2676C314.651 95.4996 313.618 95.1016 312.611 95.1016C311.923 95.1016 311.234 95.2866 310.624 95.6316C310.995 95.8436 311.393 95.9756 311.816 96.0026L315.366 96.2676Z" fill="#E5320F"/>
<path d="M323.073 95.1017C323.894 95.1017 324.742 94.8367 325.457 94.3067C326.49 93.5387 327.02 92.3197 327.02 91.1277C327.02 90.2797 326.782 89.4587 326.225 88.7437C325.457 87.7107 324.265 87.1807 323.046 87.1807C322.225 87.1807 321.378 87.4187 320.662 87.9747C318.913 89.2997 318.569 91.7897 319.893 93.5377C320.69 94.5727 321.855 95.1017 323.073 95.1017Z" fill="#E5320F"/>
<path d="M398.783 38.6788C399.816 37.9108 400.372 36.7187 400.372 35.5267C400.372 34.6787 400.107 33.8307 399.551 33.1157C398.783 32.0827 397.591 31.5527 396.372 31.5527C395.551 31.5527 394.703 31.7907 393.988 32.3467C392.24 33.6717 391.896 36.1617 393.22 37.9097C394.015 38.9427 395.18 39.4727 396.399 39.4727C397.22 39.4737 398.068 39.2078 398.783 38.6788Z" fill="#E5320F"/>
<path d="M429.246 40.0296C427.365 41.1156 426.703 43.5526 427.815 45.4606C428.557 46.7316 429.881 47.4207 431.259 47.4207C431.921 47.4207 432.61 47.2616 433.246 46.8906C434.517 46.1486 435.233 44.8247 435.233 43.4467C435.233 42.7847 435.047 42.0956 434.676 41.4606C433.961 40.1896 432.636 39.4736 431.259 39.4736C430.57 39.4736 429.882 39.6586 429.246 40.0296Z" fill="#E5320F"/>
<path d="M441.722 69.3005C442.464 70.5715 443.788 71.2605 445.166 71.2605C445.828 71.2605 446.517 71.1015 447.153 70.7305C448.424 69.9895 449.14 68.6645 449.14 67.2875C449.14 66.6245 448.954 65.9365 448.583 65.3005C447.841 64.0295 446.517 63.3135 445.166 63.3135C444.477 63.3135 443.789 63.4995 443.153 63.8695C441.272 64.9565 440.609 67.3935 441.722 69.3005Z" fill="#E5320F"/>
<path d="M434.781 57.3806C435.496 58.6526 436.847 59.3406 438.198 59.3406C438.886 59.3406 439.575 59.1815 440.211 58.8105C441.482 58.0685 442.171 56.7186 442.171 55.3676C442.171 54.6786 442.012 53.9896 441.641 53.3806C440.9 52.1096 439.575 51.3936 438.198 51.3936C437.536 51.3936 436.847 51.5796 436.211 51.9506C434.305 53.0366 433.669 55.4736 434.781 57.3806Z" fill="#E5320F"/>
<path d="M448.689 81.2224C449.404 82.4934 450.755 83.1824 452.106 83.1824C452.794 83.1824 453.483 83.0233 454.119 82.6523C455.39 81.9113 456.079 80.5604 456.079 79.2094C456.079 78.5204 455.92 77.8324 455.549 77.2224C454.808 75.9504 453.483 75.2354 452.106 75.2354C451.443 75.2354 450.755 75.4214 450.119 75.7924C448.212 76.8774 447.576 79.3144 448.689 81.2224Z" fill="#E5320F"/>
<path d="M455.629 93.1423C456.371 94.4143 457.695 95.1023 459.073 95.1023C459.762 95.1023 460.424 94.9433 461.06 94.5723C462.331 93.8303 463.047 92.5063 463.047 91.1283C463.047 90.4663 462.861 89.7773 462.49 89.1413C461.748 87.8703 460.424 87.1543 459.073 87.1543C458.384 87.1543 457.696 87.3393 457.06 87.7113C455.152 88.7983 454.517 91.2353 455.629 93.1423Z" fill="#E5320F"/>
<path d="M462.597 105.062C463.339 106.334 464.663 107.022 466.014 107.022C466.702 107.022 467.391 106.863 468.027 106.492C469.298 105.75 469.987 104.399 469.987 103.048C469.987 102.36 469.828 101.671 469.457 101.061C468.715 99.7902 467.391 99.0742 466.014 99.0742C465.351 99.0742 464.663 99.2592 464.027 99.6312C462.12 100.718 461.485 103.155 462.597 105.062Z" fill="#E5320F"/>
<path d="M485.828 268.558L470.172 257.062L470.755 237.645C470.781 236.134 469.986 234.731 468.636 234.015C467.311 233.3 465.669 233.407 464.45 234.307L448.688 245.645L430.41 239.075C428.979 238.572 427.39 238.917 426.304 239.976C425.218 241.009 424.821 242.598 425.297 244.029L428.052 252.691L430.012 258.81L431.204 262.519L419.31 277.883C418.383 279.074 418.224 280.691 418.886 282.068C419.548 283.42 420.926 284.294 422.435 284.294L441.852 284.373L449.163 295.075L451.786 298.97L452.792 300.426C453.64 301.671 455.123 302.334 456.633 302.122C458.116 301.909 459.388 300.877 459.838 299.446L465.931 281.008L484.58 275.551C485.348 275.339 486.01 274.889 486.514 274.28C486.964 273.777 487.256 273.141 487.389 272.453C487.629 270.943 487.046 269.432 485.828 268.558Z" fill="white"/>
<path d="M57.0098 433.802L56.6648 433.299L59.3137 426.279L63.5258 415.127C64.0558 413.723 63.7377 412.133 62.7047 411.021C61.6717 409.909 60.1087 409.485 58.6517 409.935L48.7178 412.928L41.4067 415.127L40.0558 415.523L24.9037 403.391C23.7387 402.437 22.1228 402.252 20.7448 402.888C19.3678 403.523 18.4927 404.874 18.4667 406.41L18.0427 425.801L1.80475 436.477C0.533749 437.298 -0.155276 438.782 0.0297242 440.291C0.215724 441.774 1.24877 443.046 2.67877 443.55L21.0098 449.934L26.1487 468.689C26.5457 470.146 27.7377 471.232 29.2217 471.523C30.7047 471.815 32.2157 471.232 33.1417 470.04L44.8767 454.57L64.2677 455.497C65.0887 455.523 65.8568 455.311 66.5188 454.914C67.1018 454.57 67.6047 454.066 67.9497 453.431C68.6647 452.107 68.5858 450.491 67.7378 449.245L57.0098 433.802Z" fill="white"/>
<path d="M205.22 391.047L194.545 388.478L190.598 378.227C190.28 377.432 189.565 376.875 188.691 376.796C187.843 376.716 187.023 377.14 186.572 377.882L180.85 387.233L169.883 387.842C169.035 387.868 168.267 388.399 167.949 389.194C167.604 389.988 167.737 390.889 168.293 391.525L171.445 395.18L175.445 399.868L174.809 402.279L172.61 410.491C172.504 410.941 172.53 411.391 172.663 411.815C172.796 412.16 173.008 412.503 173.299 412.768C173.962 413.325 174.862 413.484 175.657 413.139L185.803 408.927L195.022 414.888C195.737 415.365 196.638 415.391 197.379 414.941C198.121 414.517 198.545 413.696 198.465 412.822L197.591 401.882L198.094 401.485L203.762 396.876L206.12 394.969C206.782 394.412 207.074 393.565 206.888 392.717C206.703 391.896 206.067 391.233 205.22 391.047Z" fill="white"/>
<path d="M407.232 39.1559C408.053 39.4469 408.954 39.2879 409.563 38.7059L417.616 31.2359L420.345 31.8449L427.762 33.4879L428.345 33.6209C428.796 33.7259 429.246 33.6999 429.643 33.5149C430.014 33.3829 430.331 33.1439 430.57 32.8529C431.127 32.1909 431.233 31.2639 430.862 30.4959L426.253 20.5359L431.842 11.0789C432.293 10.3369 432.266 9.40993 431.789 8.69493C431.339 7.97993 430.491 7.60891 429.643 7.68791L418.755 9.01293L411.497 0.774888C410.914 0.112888 410.04 -0.152077 409.219 0.0859233C408.398 0.297923 407.762 0.986908 407.603 1.80791L405.484 12.5889L395.391 16.9599C394.597 17.2779 394.093 18.0459 394.04 18.8939C393.987 19.7419 394.437 20.5629 395.179 20.9859L403.444 25.5949L404.769 26.3369L405.219 31.1579L405.802 37.2509C405.881 38.0959 406.438 38.8379 407.232 39.1559Z" fill="white"/>
<path d="M380.531 217.115C380.399 216.453 380.108 215.791 379.657 215.261L376.929 209.327L382.518 199.896C382.942 199.154 382.942 198.227 382.465 197.512C381.988 196.797 381.167 196.399 380.319 196.505L369.405 197.83L362.147 189.565C361.591 188.929 360.717 188.665 359.869 188.903C359.048 189.115 358.439 189.777 358.253 190.625L357.379 195.075L356.134 201.406L355.737 201.565L346.068 205.751C345.274 206.095 344.744 206.863 344.691 207.711C344.664 208.559 345.114 209.38 345.857 209.777L349.724 211.949L355.446 215.128L355.631 217.009L356.479 226.069C356.558 226.917 357.115 227.658 357.909 227.95C358.703 228.267 359.604 228.082 360.24 227.5L368.293 220.029L378.995 222.439C379.445 222.545 379.896 222.493 380.32 222.333C380.664 222.2 381.008 221.962 381.247 221.671C381.777 220.982 381.91 220.081 381.539 219.314L380.531 217.115Z" fill="white"/>
<path d="M307.181 115.102L311.605 117.062C311.896 117.194 312.214 117.221 312.532 117.168C312.638 117.168 312.77 117.115 312.876 117.089C313.008 117.01 313.142 116.93 313.274 116.824C313.751 116.426 313.962 115.817 313.803 115.208L311.975 107.552L317.246 101.724C317.67 101.247 317.776 100.612 317.564 100.055C317.379 99.6049 317.008 99.234 316.558 99.101C316.425 99.048 316.32 99.021 316.188 99.021L308.691 98.4379L308.347 98.4119L304.4 91.5769C304.109 91.0469 303.526 90.756 302.917 90.783C302.308 90.836 301.778 91.207 301.54 91.789L298.52 99.047L290.811 100.663C290.202 100.795 289.725 101.246 289.593 101.855C289.434 102.438 289.645 103.073 290.095 103.471L296.083 108.584L295.261 116.425C295.182 117.034 295.474 117.617 296.004 117.935C296.507 118.28 297.17 118.28 297.699 117.962L304.401 113.856L307.181 115.102Z" fill="white"/>
<path d="M122.942 281.035L123.949 273.221C124.029 272.612 123.763 272.03 123.26 271.685C122.73 271.34 122.094 271.314 121.565 271.632L114.731 275.552L107.631 272.189C107.075 271.923 106.413 272.003 105.936 272.374C105.459 272.745 105.248 273.381 105.38 273.964L106.996 281.672L101.592 287.395C101.168 287.819 101.035 288.481 101.248 289.064C101.46 289.62 101.99 290.043 102.599 290.096L106.679 290.52L110.441 290.917L112.692 295.05L114.202 297.831C114.334 298.096 114.573 298.335 114.864 298.493C115.102 298.599 115.394 298.679 115.658 298.652C116.294 298.626 116.824 298.255 117.062 297.699L120.267 290.519L128.002 289.063C128.611 288.957 129.088 288.506 129.273 287.923C129.432 287.34 129.246 286.704 128.796 286.28L122.942 281.035Z" fill="white"/>
<path d="M458.994 404.001L462.729 393.67C463.02 392.875 462.834 391.975 462.252 391.365C461.643 390.756 460.769 390.517 459.947 390.782L454.252 392.584L450.014 393.935L449.484 394.094L440.822 387.339C440.133 386.835 439.233 386.73 438.438 387.101C437.67 387.471 437.193 388.24 437.193 389.114L437.113 400.081L429.458 405.273L428.001 406.253C427.313 406.73 426.941 407.577 427.047 408.425C427.153 409.273 427.762 409.988 428.557 410.253L429.378 410.518L438.994 413.723L442.04 424.266C442.146 424.69 442.411 425.087 442.755 425.352C443.047 425.617 443.391 425.776 443.788 425.855C444.636 426.014 445.483 425.67 445.987 424.981L452.53 416.133L463.497 416.504C464.345 416.53 465.139 416.054 465.563 415.313C465.96 414.544 465.88 413.644 465.404 412.928L458.994 404.001Z" fill="white"/>
<path d="M488.716 123.976L482.915 118.996L483.71 111.393C483.763 110.784 483.498 110.228 482.995 109.91C482.492 109.592 481.856 109.566 481.326 109.884L476.372 112.93L474.809 113.884L470.465 111.95L467.816 110.758C467.286 110.52 466.65 110.599 466.2 110.997C465.723 111.368 465.538 111.977 465.671 112.56L467.445 120.004L462.333 125.673C461.936 126.123 461.803 126.733 462.041 127.289C462.253 127.845 462.756 128.243 463.366 128.27L470.995 128.879L474.809 135.528C474.968 135.793 475.206 136.005 475.472 136.137C475.71 136.27 475.975 136.323 476.266 136.296C476.849 136.27 477.378 135.873 477.59 135.342L480.53 128.27L488.027 126.68C488.61 126.574 489.06 126.124 489.219 125.541C489.352 124.956 489.166 124.347 488.716 123.976Z" fill="white"/>
<path d="M273.11 454.883H266.932V493.346H290.708V487.81H273.11V454.883Z" fill="white"/>
<path d="M310.115 475.63H324.51V470.268H310.115V460.419H329.23V454.883H303.938V493.346H329.931V487.81H310.115V475.63Z" fill="white"/>
<path d="M361.05 454.242C355.532 454.165 350.773 456.087 346.772 460.012C342.77 463.936 340.808 468.636 340.886 474.116C340.769 479.595 342.722 484.296 346.744 488.22C350.764 492.145 355.533 494.067 361.051 493.989C366.529 494.067 371.298 492.145 375.358 488.22C379.417 484.296 381.389 479.595 381.273 474.116C381.389 468.637 379.417 463.936 375.358 460.012C371.297 456.086 366.528 454.164 361.05 454.242ZM370.957 484.255C368.314 486.974 365.032 488.334 361.109 488.334C357.107 488.334 353.803 486.984 351.201 484.283C348.599 481.583 347.298 478.176 347.298 474.054C347.298 469.977 348.608 466.596 351.231 463.916C353.853 461.233 357.146 459.893 361.109 459.893C365.032 459.893 368.315 461.244 370.957 463.945C373.6 466.645 374.92 470.016 374.92 474.054C374.92 478.134 373.599 481.537 370.957 484.255Z" fill="white"/>
</svg>
