<svg width="597" height="397" viewBox="0 0 597 397" fill="none" xmlns="http://www.w3.org/2000/svg">
<path d="M189.855 127.869C189.75 127.869 189.617 127.842 189.511 127.842C187.445 127.842 185.723 129.379 185.537 131.471C185.325 133.643 186.94 135.577 189.14 135.789H189.484C191.524 135.789 193.273 134.252 193.458 132.186C193.458 132.081 193.484 131.948 193.484 131.842C193.484 129.803 191.922 128.054 189.855 127.869Z" fill="#E5320F"/>
<path d="M176.822 126.676C176.717 126.676 176.584 126.649 176.478 126.649C174.438 126.649 172.69 128.212 172.504 130.278C172.292 132.477 173.908 134.41 176.107 134.596C176.212 134.622 176.345 134.622 176.452 134.622C178.491 134.622 180.213 133.059 180.398 130.993C180.398 130.861 180.425 130.728 180.425 130.622C180.426 128.61 178.862 126.888 176.822 126.676Z" fill="#E5320F"/>
<path d="M215.922 130.226C215.816 130.226 215.683 130.2 215.576 130.2C213.536 130.2 211.816 131.736 211.603 133.829C211.418 136.001 213.007 137.934 215.207 138.146H215.551C217.591 138.146 219.338 136.61 219.524 134.544C219.524 134.438 219.551 134.306 219.551 134.2C219.551 132.16 217.988 130.411 215.922 130.226Z" fill="#E5320F"/>
<path d="M202.888 129.06C202.755 129.06 202.623 129.034 202.491 129.034C200.478 129.034 198.756 130.597 198.571 132.637C198.359 134.836 199.974 136.769 202.174 136.955C202.279 136.981 202.412 136.981 202.545 136.981C204.558 136.981 206.306 135.418 206.491 133.352C206.491 133.246 206.517 133.114 206.517 133.008C206.517 130.994 204.955 129.246 202.888 129.06Z" fill="#E5320F"/>
<path d="M254.65 133.75C252.636 133.75 250.915 135.314 250.729 137.353C250.517 139.552 252.133 141.485 254.332 141.671C254.438 141.697 254.57 141.697 254.677 141.697C256.717 141.697 258.439 140.134 258.623 138.094C258.623 137.962 258.65 137.829 258.65 137.697C258.65 135.684 257.087 133.962 255.046 133.776C254.915 133.776 254.782 133.75 254.65 133.75Z" fill="#E5320F"/>
<path d="M307.179 138.491C307.046 138.491 306.914 138.465 306.808 138.465C304.794 138.465 303.073 140.028 302.861 142.094C302.675 144.266 304.292 146.2 306.465 146.412H306.835C308.875 146.412 310.597 144.849 310.782 142.809C310.782 142.677 310.808 142.544 310.808 142.412C310.808 140.399 309.246 138.677 307.179 138.491Z" fill="#E5320F"/>
<path d="M159.736 128.027C159.604 128.372 159.498 128.742 159.471 129.113C159.259 131.285 160.875 133.218 163.047 133.431H163.418C165.458 133.431 167.18 131.894 167.364 129.829C167.364 129.696 167.391 129.564 167.391 129.431C167.391 127.417 165.828 125.696 163.762 125.51C163.629 125.51 163.496 125.484 163.391 125.484C162.225 125.484 161.139 126.014 160.424 126.861L159.736 128.027Z" fill="#E5320F"/>
<path d="M228.955 131.391C228.849 131.391 228.717 131.365 228.61 131.365C226.597 131.365 224.848 132.928 224.636 134.994C224.45 137.193 226.067 139.127 228.239 139.312C228.372 139.339 228.478 139.339 228.61 139.339C230.65 139.339 232.372 137.776 232.557 135.71C232.557 135.578 232.583 135.445 232.583 135.339C232.584 133.325 231.021 131.603 228.955 131.391Z" fill="#E5320F"/>
<path d="M384.689 153.484H385.059C387.099 153.484 388.821 151.947 389.006 149.881C389.006 149.748 389.032 149.616 389.032 149.484C389.032 147.471 387.469 145.749 385.403 145.564C385.27 145.564 385.138 145.537 385.032 145.537C383.019 145.537 381.298 147.1 381.112 149.166C380.9 151.338 382.516 153.272 384.689 153.484Z" fill="#E5320F"/>
<path d="M424.53 149.088C424.424 149.088 424.291 149.062 424.185 149.062C422.145 149.062 420.423 150.624 420.211 152.69C420.025 154.889 421.615 156.823 423.814 157.008C423.947 157.034 424.052 157.034 424.185 157.034C426.199 157.034 427.947 155.472 428.132 153.406C428.132 153.3 428.158 153.168 428.158 153.062C428.159 151.048 426.595 149.299 424.53 149.088Z" fill="#E5320F"/>
<path d="M241.272 140.505H241.643C243.683 140.505 245.405 138.969 245.59 136.902C245.59 136.77 245.616 136.637 245.616 136.531C245.616 134.492 244.053 132.769 241.987 132.584C241.881 132.584 241.749 132.557 241.642 132.557C239.602 132.557 237.88 134.094 237.695 136.186C237.484 138.359 239.1 140.293 241.272 140.505Z" fill="#E5320F"/>
<path d="M294.146 137.298C294.041 137.298 293.908 137.272 293.801 137.272C291.762 137.272 290.04 138.808 289.827 140.901C289.642 143.073 291.258 145.007 293.431 145.219C293.563 145.219 293.669 145.246 293.801 145.246C295.841 145.246 297.563 143.683 297.748 141.617C297.748 141.511 297.774 141.379 297.774 141.273C297.775 139.233 296.239 137.51 294.146 137.298Z" fill="#E5320F"/>
<path d="M372.371 144.372C372.266 144.372 372.133 144.346 372.027 144.346C370.013 144.346 368.265 145.909 368.053 147.975C367.867 150.174 369.483 152.108 371.656 152.293C371.788 152.293 371.894 152.32 372.027 152.32C374.066 152.32 375.788 150.757 375.973 148.691C375.973 148.559 375.999 148.426 375.999 148.32C376 146.306 374.437 144.584 372.371 144.372Z" fill="#E5320F"/>
<path d="M320.213 139.657C320.107 139.657 319.975 139.631 319.868 139.631C317.855 139.631 316.106 141.194 315.922 143.26C315.709 145.458 317.325 147.392 319.524 147.578C319.63 147.578 319.763 147.604 319.869 147.604C321.909 147.604 323.631 146.041 323.816 143.975C323.816 143.843 323.842 143.71 323.842 143.604C323.842 141.591 322.278 139.869 320.213 139.657Z" fill="#E5320F"/>
<path d="M268.08 134.942C267.975 134.942 267.842 134.916 267.736 134.916C265.696 134.916 263.948 136.479 263.762 138.545C263.55 140.744 265.165 142.651 267.365 142.863C267.47 142.863 267.603 142.889 267.71 142.889C269.749 142.889 271.498 141.326 271.683 139.26C271.683 139.154 271.71 139.021 271.71 138.916C271.71 136.876 270.146 135.154 268.08 134.942Z" fill="#E5320F"/>
<path d="M281.113 136.133C280.981 136.133 280.848 136.107 280.716 136.107C278.703 136.107 277.008 137.67 276.796 139.709C276.61 141.908 278.199 143.841 280.399 144.027C280.504 144.053 280.637 144.053 280.77 144.053C282.783 144.053 284.531 142.49 284.716 140.424C284.716 140.318 284.742 140.186 284.742 140.08C284.742 138.067 283.179 136.318 281.113 136.133Z" fill="#E5320F"/>
<path d="M441.192 154.2C441.192 152.187 439.629 150.465 437.562 150.279C437.457 150.279 437.324 150.253 437.218 150.253C435.178 150.253 433.456 151.79 433.244 153.882C433.058 156.054 434.675 157.989 436.847 158.2H437.218C439.257 158.2 440.98 156.664 441.165 154.597C441.166 154.465 441.192 154.333 441.192 154.2Z" fill="#E5320F"/>
<path d="M485.403 158.597C485.191 160.796 486.807 162.703 489.006 162.915C489.139 162.915 489.244 162.942 489.377 162.942C491.391 162.942 493.139 161.379 493.324 159.313C493.324 159.207 493.35 159.075 493.35 158.969C493.35 156.956 491.787 155.207 489.721 154.995C489.615 154.995 489.483 154.969 489.376 154.969C487.31 154.968 485.589 156.505 485.403 158.597Z" fill="#E5320F"/>
<path d="M450.252 151.419C448.238 151.419 446.49 152.982 446.278 155.048C446.092 157.247 447.709 159.18 449.881 159.365C450.014 159.392 450.146 159.392 450.252 159.392C452.291 159.392 454.014 157.829 454.198 155.763C454.198 155.631 454.224 155.498 454.224 155.392C454.224 153.379 452.661 151.657 450.595 151.445C450.49 151.445 450.357 151.419 450.252 151.419Z" fill="#E5320F"/>
<path d="M410.781 155.842H411.126C413.166 155.842 414.914 154.306 415.1 152.239C415.1 152.133 415.126 152.001 415.126 151.894C415.126 149.854 413.563 148.106 411.497 147.921C411.391 147.921 411.259 147.895 411.152 147.895C409.086 147.895 407.364 149.431 407.178 151.524C406.967 153.697 408.583 155.63 410.781 155.842Z" fill="#E5320F"/>
<path d="M463.311 152.609C461.245 152.609 459.523 154.146 459.337 156.238C459.125 158.41 460.74 160.344 462.94 160.556H463.285C465.324 160.556 467.047 159.019 467.231 156.954C467.231 156.822 467.257 156.689 467.257 156.583C467.257 154.57 465.694 152.848 463.654 152.636C463.55 152.636 463.417 152.609 463.311 152.609Z" fill="#E5320F"/>
<path d="M515.073 165.273C515.206 165.273 515.339 165.299 515.444 165.299C517.033 165.299 518.411 164.345 519.047 162.968L514.49 157.458C512.901 157.855 511.656 159.233 511.47 160.955C511.285 163.127 512.901 165.088 515.073 165.273Z" fill="#E5320F"/>
<path d="M397.749 154.65C397.854 154.676 397.987 154.676 398.093 154.676C400.133 154.676 401.855 153.113 402.067 151.047C402.067 150.941 402.093 150.808 402.093 150.702C402.093 148.689 400.53 146.94 398.464 146.729C398.358 146.729 398.226 146.702 398.119 146.702C396.08 146.702 394.331 148.265 394.145 150.331C393.933 152.53 395.55 154.464 397.749 154.65Z" fill="#E5320F"/>
<path d="M472.371 157.432C472.158 159.604 473.774 161.538 475.974 161.724C476.079 161.75 476.212 161.75 476.318 161.75C478.358 161.75 480.106 160.187 480.292 158.121C480.292 158.015 480.318 157.882 480.318 157.776C480.318 155.763 478.755 154.015 476.689 153.829C476.557 153.829 476.424 153.803 476.292 153.803C474.277 153.803 472.556 155.365 472.371 157.432Z" fill="#E5320F"/>
<path d="M333.272 140.848C333.139 140.848 333.007 140.822 332.875 140.822C330.861 140.822 329.14 142.385 328.954 144.451C328.742 146.623 330.358 148.557 332.557 148.742C332.663 148.769 332.795 148.769 332.902 148.769C334.942 148.769 336.664 147.233 336.849 145.167C336.849 145.035 336.875 144.902 336.875 144.769C336.875 142.755 335.311 141.034 333.272 140.848Z" fill="#E5320F"/>
<path d="M498.436 159.762C498.251 161.961 499.867 163.895 502.039 164.08C502.172 164.107 502.277 164.107 502.41 164.107C504.424 164.107 506.172 162.57 506.357 160.504C506.357 160.398 506.383 160.266 506.383 160.16C506.383 158.094 504.847 156.372 502.754 156.187C502.621 156.187 502.489 156.16 502.383 156.16C500.371 156.159 498.648 157.722 498.436 159.762Z" fill="#E5320F"/>
<path d="M345.961 141.987C343.921 141.987 342.173 143.55 341.987 145.616C341.801 147.815 343.391 149.748 345.59 149.934C345.696 149.96 345.828 149.96 345.935 149.96C347.974 149.96 349.723 148.397 349.909 146.331C349.909 146.225 349.935 146.093 349.935 145.986C349.935 143.973 348.372 142.225 346.305 142.013C346.199 142.014 346.066 141.987 345.961 141.987Z" fill="#E5320F"/>
<path d="M355.02 146.809C354.834 148.981 356.451 150.915 358.623 151.127H358.995C361.034 151.127 362.756 149.591 362.94 147.524C362.94 147.418 362.966 147.286 362.966 147.18C362.966 145.114 361.43 143.392 359.337 143.206C359.205 143.206 359.072 143.18 358.966 143.18C356.954 143.18 355.232 144.743 355.02 146.809Z" fill="#E5320F"/>
<path d="M493.907 136.371C494.516 136.716 495.178 136.875 495.814 136.875C497.218 136.875 498.569 136.107 499.31 134.782C499.628 134.2 499.788 133.537 499.788 132.901C499.788 131.497 499.046 130.146 497.722 129.404C497.113 129.06 496.451 128.901 495.815 128.901C494.411 128.901 493.034 129.67 492.318 130.994C491.285 132.928 492 135.338 493.907 136.371Z" fill="#E5320F"/>
<path d="M317.696 40.5042C318.305 40.8222 318.967 40.9812 319.603 40.9812C321.007 40.9812 322.358 40.2392 323.099 38.9152C323.417 38.3062 323.577 37.6702 323.577 37.0342C323.577 35.6032 322.835 34.2522 321.511 33.5112C320.902 33.1932 320.266 33.0342 319.63 33.0342C318.199 33.0342 316.849 33.7762 316.107 35.1002C315.047 37.0342 315.762 39.4452 317.696 40.5042Z" fill="#E5320F"/>
<path d="M304.372 28.7164C303.312 30.6504 304.026 33.0604 305.96 34.1204C306.543 34.4384 307.206 34.5974 307.842 34.5974C309.246 34.5974 310.623 33.8554 311.338 32.5314C311.683 31.9224 311.842 31.2604 311.842 30.6244C311.842 29.2204 311.073 27.8434 309.749 27.1274C309.14 26.8094 308.478 26.6504 307.842 26.6504C306.437 26.6504 305.087 27.3924 304.372 28.7164Z" fill="#E5320F"/>
<path d="M519.31 141.696C518.569 141.696 517.853 141.908 517.218 142.305C517.879 142.04 518.621 141.828 519.39 141.722C519.363 141.696 519.338 141.696 519.31 141.696Z" fill="#E5320F"/>
<path d="M331.338 47.3659C332.742 47.3659 334.12 46.6239 334.835 45.2999C335.18 44.6909 335.338 44.0279 335.338 43.3929C335.338 41.9889 334.57 40.6379 333.246 39.9229C332.637 39.5789 331.975 39.4199 331.338 39.4199C329.935 39.4199 328.583 40.1879 327.868 41.5119C326.808 43.4459 327.523 45.857 329.457 46.89C330.04 47.234 330.703 47.3659 331.338 47.3659Z" fill="#E5320F"/>
<path d="M505.668 142.782C506.25 143.1 506.913 143.26 507.549 143.26C508.953 143.26 510.33 142.517 511.046 141.193C511.391 140.584 511.549 139.921 511.549 139.286C511.549 137.882 510.781 136.504 509.457 135.789C508.848 135.471 508.21 135.312 507.575 135.312C506.144 135.312 504.794 136.053 504.079 137.378C503.019 139.312 503.733 141.722 505.668 142.782Z" fill="#E5320F"/>
<path d="M470.41 123.604C471.019 123.922 471.681 124.081 472.317 124.081C473.721 124.081 475.072 123.339 475.814 122.015C476.131 121.406 476.291 120.77 476.291 120.134C476.291 118.704 475.55 117.353 474.225 116.611C473.616 116.293 472.98 116.134 472.344 116.134C470.914 116.134 469.563 116.876 468.822 118.2C467.788 120.134 468.503 122.545 470.41 123.604Z" fill="#E5320F"/>
<path d="M446.914 110.81C447.523 111.154 448.185 111.287 448.821 111.287C450.224 111.287 451.602 110.545 452.318 109.221C452.635 108.612 452.795 107.95 452.795 107.314C452.795 105.91 452.053 104.559 450.729 103.844C450.12 103.5 449.458 103.341 448.822 103.341C447.418 103.341 446.041 104.109 445.325 105.434C444.291 107.366 445.007 109.776 446.914 110.81Z" fill="#E5320F"/>
<path d="M482.172 129.988C482.781 130.332 483.416 130.465 484.052 130.465C485.483 130.465 486.834 129.723 487.55 128.399C487.894 127.79 488.052 127.128 488.052 126.492C488.052 125.088 487.284 123.737 485.959 123.022C485.35 122.678 484.688 122.518 484.052 122.518C482.648 122.518 481.297 123.286 480.582 124.611C479.522 126.518 480.238 128.955 482.172 129.988Z" fill="#E5320F"/>
<path d="M388.185 78.8625C388.794 79.1805 389.429 79.3395 390.065 79.3395C391.496 79.3395 392.847 78.5976 393.563 77.2736C393.907 76.6646 394.065 76.0026 394.065 75.3666C394.065 73.9626 393.297 72.5846 391.972 71.8696C391.389 71.5526 390.728 71.3926 390.092 71.3926C388.689 71.3926 387.337 72.1346 386.596 73.4586C385.537 75.3926 386.252 77.8025 388.185 78.8625Z" fill="#E5320F"/>
<path d="M364.689 66.0676C365.298 66.3856 365.934 66.5446 366.596 66.5446C367.999 66.5446 369.351 65.8026 370.066 64.4786C370.411 63.8696 370.57 63.2076 370.57 62.5716C370.57 61.1676 369.801 59.8166 368.477 59.1016C367.868 58.7576 367.232 58.5986 366.596 58.5986C365.192 58.5986 363.815 59.3677 363.099 60.6917C362.04 62.5977 362.756 65.0076 364.689 66.0676Z" fill="#E5320F"/>
<path d="M458.676 117.22C459.285 117.538 459.921 117.697 460.558 117.697C461.961 117.697 463.338 116.929 464.053 115.604C464.398 114.995 464.558 114.359 464.558 113.724C464.558 112.32 463.789 110.942 462.465 110.227C461.856 109.883 461.193 109.724 460.558 109.724C459.154 109.724 457.802 110.493 457.086 111.817C456.026 113.75 456.741 116.161 458.676 117.22Z" fill="#E5320F"/>
<path d="M352.927 59.6838C353.536 60.0018 354.198 60.1609 354.834 60.1609C356.237 60.1609 357.615 59.4188 358.331 58.0948C358.648 57.4858 358.808 56.8239 358.808 56.1879C358.808 54.7839 358.066 53.4059 356.742 52.6909C356.133 52.3739 355.471 52.2139 354.835 52.2139C353.431 52.2139 352.054 52.9558 351.338 54.2798C350.304 56.2138 351.02 58.6248 352.927 59.6838Z" fill="#E5320F"/>
<path d="M399.921 85.2464C400.53 85.5644 401.192 85.7234 401.828 85.7234C403.232 85.7234 404.609 84.9813 405.324 83.6573C405.669 83.0483 405.828 82.3864 405.828 81.7504C405.828 80.3464 405.059 78.9954 403.735 78.2804C403.126 77.9364 402.464 77.7764 401.828 77.7764C400.424 77.7764 399.047 78.5454 398.331 79.8694C397.299 81.7754 398.013 84.1864 399.921 85.2464Z" fill="#E5320F"/>
<path d="M415.47 84.6631C414.861 84.3191 414.199 84.1602 413.562 84.1602C412.159 84.1602 410.808 84.9281 410.092 86.2531C409.032 88.1871 409.747 90.5971 411.682 91.6301C412.29 91.9741 412.927 92.1331 413.562 92.1331C414.993 92.1331 416.344 91.3642 417.059 90.0402C417.404 89.4312 417.562 88.7681 417.562 88.1331C417.562 86.7291 416.795 85.3791 415.47 84.6631Z" fill="#E5320F"/>
<path d="M343.099 53.7767C344.503 53.7767 345.854 53.0087 346.596 51.6837C346.913 51.1007 347.073 50.4387 347.073 49.8027C347.073 48.3987 346.332 47.0217 345.007 46.3057C344.399 45.9607 343.736 45.8027 343.1 45.8027C341.697 45.8027 340.319 46.5718 339.604 47.8958C338.544 49.8298 339.259 52.2397 341.193 53.2997C341.801 53.6177 342.437 53.7767 343.099 53.7767Z" fill="#E5320F"/>
<path d="M435.178 104.425C435.787 104.743 436.423 104.902 437.085 104.902C438.489 104.902 439.84 104.16 440.556 102.836C440.9 102.227 441.059 101.565 441.059 100.929C441.059 99.5251 440.29 98.1481 438.966 97.4321C438.357 97.1141 437.721 96.9551 437.085 96.9551C435.681 96.9551 434.33 97.723 433.589 99.048C432.529 100.955 433.245 103.366 435.178 104.425Z" fill="#E5320F"/>
<path d="M381.828 70.8624C382.173 70.2534 382.332 69.5904 382.332 68.9554C382.332 67.5514 381.563 66.2004 380.238 65.4854C379.629 65.1404 378.967 64.9824 378.332 64.9824C376.928 64.9824 375.55 65.7514 374.835 67.0754C373.802 69.0094 374.517 71.4195 376.424 72.4525C377.033 72.7965 377.695 72.9554 378.332 72.9554C379.735 72.9554 381.113 72.1864 381.828 70.8624Z" fill="#E5320F"/>
<path d="M427.231 91.0479C426.623 90.7039 425.96 90.5449 425.324 90.5449C423.921 90.5449 422.543 91.3129 421.828 92.6369C420.795 94.5709 421.51 96.982 423.417 98.041C424.026 98.359 424.688 98.5169 425.324 98.5169C426.728 98.5169 428.106 97.7749 428.821 96.4509C429.138 95.8419 429.298 95.1799 429.298 94.5439C429.298 93.1409 428.556 91.7629 427.231 91.0479Z" fill="#E5320F"/>
<path d="M98.942 205.616C98.385 205.325 97.7759 205.192 97.1939 205.192C95.7369 205.192 94.3329 206.013 93.6439 207.444C92.6639 209.404 93.4849 211.789 95.4449 212.742C96.0279 213.007 96.6109 213.14 97.1939 213.14C98.6769 213.14 100.081 212.319 100.77 210.914C101.035 210.358 101.167 209.749 101.167 209.166C101.168 207.708 100.373 206.304 98.942 205.616Z" fill="#E5320F"/>
<path d="M95.0212 222.676C95.3132 222.119 95.4453 221.511 95.4453 220.902C95.4453 219.445 94.6243 218.041 93.1943 217.352C92.6373 217.087 92.0283 216.955 91.4453 216.955C89.9883 216.955 88.5852 217.75 87.8962 219.181C86.9162 221.141 87.7371 223.525 89.7231 224.479C90.2801 224.77 90.8631 224.903 91.4721 224.903C92.9291 224.902 94.3332 224.081 95.0212 222.676Z" fill="#E5320F"/>
<path d="M117.988 175.683C118.28 175.127 118.412 174.518 118.412 173.935C118.412 172.478 117.592 171.074 116.187 170.385C115.604 170.094 115.021 169.961 114.412 169.961C112.955 169.961 111.552 170.782 110.863 172.186C109.909 174.173 110.704 176.557 112.69 177.511C113.247 177.776 113.83 177.909 114.439 177.909C115.895 177.909 117.326 177.088 117.988 175.683Z" fill="#E5320F"/>
<path d="M87.4718 229.086C86.9148 228.821 86.3058 228.69 85.7228 228.69C84.2398 228.69 82.8359 229.511 82.1469 230.915C81.1939 232.902 81.989 235.26 83.975 236.239C84.531 236.505 85.1138 236.636 85.7228 236.636C87.1798 236.636 88.5838 235.815 89.2728 234.411C89.5638 233.854 89.6969 233.245 89.6969 232.663C89.6969 231.206 88.8758 229.775 87.4718 229.086Z" fill="#E5320F"/>
<path d="M106.519 199.18C106.784 198.623 106.915 198.04 106.915 197.457C106.915 195.974 106.094 194.57 104.689 193.855C104.133 193.59 103.55 193.457 102.967 193.457C101.484 193.457 100.079 194.278 99.3645 195.683C98.4105 197.67 99.2326 200.028 101.193 201.007C101.749 201.273 102.357 201.405 102.94 201.405C104.399 201.405 105.831 200.584 106.519 199.18Z" fill="#E5320F"/>
<path d="M172.135 101.246C171.341 100.213 170.149 99.6572 168.93 99.6572C168.109 99.6572 167.287 99.8952 166.573 100.425C164.799 101.75 164.454 104.213 165.752 105.988C166.547 107.048 167.738 107.604 168.957 107.604C169.778 107.604 170.6 107.339 171.314 106.809C172.347 106.041 172.904 104.822 172.904 103.604C172.903 102.782 172.665 101.961 172.135 101.246Z" fill="#E5320F"/>
<path d="M110.439 182.12C109.882 181.855 109.273 181.723 108.69 181.723C107.207 181.723 105.803 182.517 105.114 183.948C104.161 185.909 104.982 188.292 106.942 189.246C107.499 189.538 108.107 189.67 108.69 189.67C110.147 189.67 111.578 188.849 112.266 187.445C112.531 186.889 112.663 186.28 112.663 185.697C112.664 184.213 111.843 182.809 110.439 182.12Z" fill="#E5320F"/>
<path d="M127.791 146.967C127.765 146.94 127.712 146.914 127.658 146.887C127.102 146.622 126.492 146.49 125.909 146.49C124.452 146.49 123.05 147.285 122.36 148.716C121.38 150.676 122.201 153.06 124.162 154.014C124.745 154.306 125.326 154.438 125.909 154.438C126.862 154.438 127.791 154.094 128.506 153.484V153.457C128.401 153.14 128.348 152.822 128.32 152.477L127.791 146.967Z" fill="#E5320F"/>
<path d="M72.452 267.895C72.452 266.438 71.6581 265.007 70.2271 264.319C69.6701 264.053 69.0872 263.922 68.5052 263.922C67.0212 263.922 65.6172 264.743 64.9012 266.147C63.9482 268.134 64.7691 270.492 66.7291 271.472C67.3121 271.737 67.8951 271.869 68.4771 271.869C69.9601 271.869 71.365 271.048 72.053 269.643C72.32 269.087 72.452 268.477 72.452 267.895Z" fill="#E5320F"/>
<path d="M61.0096 283.205C61.5666 283.497 62.1495 283.629 62.7315 283.629C64.2145 283.629 65.6197 282.808 66.3077 281.378C66.5997 280.821 66.7315 280.212 66.7315 279.629C66.7315 278.172 65.9106 276.769 64.4796 276.079C63.9236 275.788 63.3145 275.655 62.7315 275.655C61.2745 275.655 59.8705 276.476 59.1815 277.907C58.2015 279.867 59.0216 282.252 61.0096 283.205Z" fill="#E5320F"/>
<path d="M148.849 117.458L151.312 117.166C151.286 117.06 151.207 116.954 151.126 116.848C150.358 115.788 149.166 115.232 147.947 115.232C147.126 115.232 146.305 115.497 145.59 116.026C145.458 116.132 145.325 116.238 145.193 116.424C146.2 117.219 147.551 117.616 148.849 117.458Z" fill="#E5320F"/>
<path d="M118.439 165.776C118.995 166.041 119.578 166.173 120.161 166.173C121.644 166.173 123.049 165.352 123.737 163.948C124.028 163.392 124.161 162.782 124.161 162.199C124.161 160.716 123.34 159.312 121.909 158.623C121.352 158.358 120.77 158.226 120.187 158.226C118.704 158.226 117.299 159.047 116.611 160.451C115.631 162.439 116.452 164.796 118.439 165.776Z" fill="#E5320F"/>
<path d="M158.438 115.391C159.259 115.391 160.107 115.126 160.823 114.597C161.855 113.829 162.412 112.61 162.412 111.418C162.412 110.597 162.174 109.775 161.644 109.06C160.849 108 159.63 107.444 158.412 107.444C157.617 107.444 156.797 107.682 156.081 108.212C154.307 109.537 153.962 112.026 155.26 113.775C156.028 114.835 157.246 115.391 158.438 115.391Z" fill="#E5320F"/>
<path d="M179.419 91.8428C178.598 91.8428 177.776 92.1078 177.062 92.6368C175.287 93.9348 174.942 96.4248 176.241 98.1998C177.036 99.2328 178.227 99.7888 179.446 99.7888C180.267 99.7888 181.089 99.5508 181.803 99.0208C182.836 98.2268 183.393 97.0338 183.393 95.8148C183.393 94.9938 183.155 94.1728 182.624 93.4578C181.829 92.3988 180.637 91.8428 179.419 91.8428Z" fill="#E5320F"/>
<path d="M75.975 252.584C75.418 252.319 74.8358 252.187 74.2528 252.187C72.7698 252.187 71.3648 253.008 70.6498 254.413C69.6958 256.373 70.517 258.757 72.477 259.737C73.034 260.002 73.643 260.134 74.226 260.134C75.683 260.134 77.1129 259.313 77.8019 257.908C78.0669 257.352 78.1989 256.743 78.1989 256.16C78.2009 254.676 77.38 253.272 75.975 252.584Z" fill="#E5320F"/>
<path d="M55.2602 294.941C55.8162 295.232 56.3993 295.365 57.0083 295.365C58.4653 295.365 59.8683 294.544 60.5583 293.139C60.8493 292.583 60.9821 291.974 60.9821 291.365C60.9821 289.908 60.1612 288.504 58.7302 287.815C58.1742 287.55 57.5651 287.418 56.9821 287.418C55.5251 287.418 54.1213 288.213 53.4323 289.644C52.4523 291.603 53.2732 293.987 55.2602 294.941Z" fill="#E5320F"/>
<path d="M49.1675 306.516L54.8625 304.794C55.1005 304.264 55.2336 303.682 55.2336 303.125C55.2336 301.668 54.4125 300.264 53.0075 299.549C52.4505 299.284 51.8425 299.152 51.2595 299.152C49.7765 299.152 48.3716 299.973 47.6836 301.378C46.7826 303.231 47.4455 305.43 49.1675 306.516Z" fill="#E5320F"/>
<path d="M83.5509 246.146C83.8159 245.59 83.9479 245.007 83.9479 244.424C83.9479 242.941 83.1268 241.537 81.7218 240.848C81.1658 240.557 80.557 240.424 79.974 240.424C78.491 240.424 77.0858 241.245 76.3978 242.676C75.4438 244.636 76.265 247.021 78.226 247.974C78.782 248.266 79.391 248.371 79.974 248.371C81.432 248.372 82.8629 247.577 83.5509 246.146Z" fill="#E5320F"/>
<path d="M214.888 72.4242C214.888 71.6032 214.623 70.7552 214.093 70.0402C213.325 69.0072 212.133 68.4512 210.914 68.4512C210.093 68.4512 209.245 68.7162 208.53 69.2452C206.782 70.5432 206.411 73.0332 207.709 74.8082C208.504 75.8412 209.695 76.3972 210.914 76.3972C211.735 76.3972 212.557 76.1322 213.271 75.6032C214.332 74.8362 214.888 73.6432 214.888 72.4242Z" fill="#E5320F"/>
<path d="M202.783 83.4183C203.843 82.6233 204.398 81.4313 204.398 80.2123C204.398 79.3913 204.133 78.5702 203.603 77.8542C202.835 76.7952 201.643 76.2383 200.424 76.2383C199.603 76.2383 198.755 76.5032 198.04 77.0322C196.292 78.3302 195.921 80.8203 197.219 82.5953C198.014 83.6283 199.206 84.1843 200.424 84.1843C201.246 84.1863 202.067 83.9483 202.783 83.4183Z" fill="#E5320F"/>
<path d="M252.875 45.1931C253.696 45.1931 254.544 44.955 255.26 44.425C256.293 43.63 256.849 42.4381 256.849 41.2201C256.849 40.3991 256.584 39.5771 256.054 38.8621C255.286 37.8021 254.094 37.2461 252.875 37.2461C252.054 37.2461 251.232 37.5111 250.518 38.0411C248.744 39.3391 248.372 41.8291 249.697 43.6041C250.465 44.6371 251.656 45.1931 252.875 45.1931Z" fill="#E5320F"/>
<path d="M242.385 53.0075C243.205 53.0075 244.053 52.7425 244.769 52.2135C245.802 51.4445 246.358 50.2535 246.358 49.0345C246.358 48.2135 246.093 47.3655 245.564 46.6505C244.795 45.6175 243.577 45.0615 242.358 45.0615C241.537 45.0615 240.716 45.2995 240.001 45.8295C238.253 47.1545 237.882 49.6435 239.206 51.3925C239.974 52.4515 241.167 53.0075 242.385 53.0075Z" fill="#E5320F"/>
<path d="M269.934 25.1672L271.125 22.7832C270.437 23.4192 270.014 24.2662 269.934 25.1672Z" fill="#E5320F"/>
<path d="M267.26 34.015C267.313 33.83 267.339 33.617 267.339 33.432C267.339 32.875 267.233 32.319 266.968 31.789C266.863 31.524 266.73 31.286 266.544 31.047C265.775 30.014 264.584 29.458 263.365 29.458C262.544 29.458 261.722 29.723 261.008 30.252C259.233 31.55 258.862 34.04 260.187 35.789C260.956 36.849 262.147 37.405 263.366 37.405C264.187 37.405 265.035 37.14 265.75 36.611C266.623 35.976 267.153 35.022 267.26 34.015Z" fill="#E5320F"/>
<path d="M231.895 52.8496C231.074 52.8496 230.226 53.1146 229.51 53.6436C227.762 54.9416 227.392 57.4316 228.69 59.2066C229.484 60.2396 230.676 60.7956 231.895 60.7956C232.716 60.7956 233.537 60.5306 234.252 60.0016C235.312 59.2336 235.868 58.0416 235.868 56.8226C235.868 56.0016 235.602 55.1796 235.073 54.4646C234.305 53.4056 233.113 52.8496 231.895 52.8496Z" fill="#E5320F"/>
<path d="M224.584 62.2531C223.815 61.2201 222.598 60.6641 221.379 60.6641C220.558 60.6641 219.736 60.9021 219.022 61.4321C217.273 62.7571 216.903 65.2471 218.201 66.9951C218.995 68.0551 220.187 68.611 221.406 68.611C222.227 68.611 223.049 68.3461 223.763 67.8171C224.823 67.0221 225.379 65.8301 225.379 64.6381C225.379 63.7901 225.113 62.9691 224.584 62.2531Z" fill="#E5320F"/>
<path d="M189.908 84.0547C189.088 84.0547 188.266 84.2927 187.551 84.8227C185.777 86.1477 185.432 88.6377 186.731 90.3857C187.525 91.4457 188.717 92.0017 189.936 92.0017C190.757 92.0017 191.579 91.7367 192.293 91.2077C193.326 90.4397 193.882 89.2207 193.882 88.0017C193.882 87.1807 193.644 86.3597 193.114 85.6447C192.345 84.6107 191.127 84.0547 189.908 84.0547Z" fill="#E5320F"/>
<path d="M146.757 364.795L146.731 364.663C146.465 364.504 146.201 364.397 145.91 364.318C145.565 364.239 145.222 364.185 144.877 364.185C143.128 364.185 141.539 365.351 141.063 367.125C140.585 368.82 141.301 370.569 142.705 371.47L145.964 367.867C146.703 367.046 147.021 365.881 146.757 364.795Z" fill="#E5320F"/>
<path d="M108.955 354.384C108.611 354.305 108.267 354.251 107.923 354.251C106.174 354.251 104.585 355.417 104.108 357.191C103.526 359.31 104.771 361.483 106.89 362.065C107.234 362.145 107.605 362.198 107.923 362.198C109.697 362.198 111.287 361.033 111.764 359.258C111.869 358.913 111.896 358.57 111.896 358.225C111.895 356.477 110.73 354.861 108.955 354.384Z" fill="#E5320F"/>
<path d="M96.6368 351.072C96.2918 350.993 95.9488 350.94 95.6038 350.94C93.8558 350.94 92.2398 352.105 91.7628 353.879C91.2058 355.999 92.4777 358.171 94.5967 358.754C94.9147 358.833 95.2858 358.886 95.6038 358.886C97.3778 358.886 98.9679 357.721 99.4449 355.946C99.5509 355.602 99.5779 355.258 99.5779 354.913C99.5779 353.165 98.4118 351.549 96.6368 351.072Z" fill="#E5320F"/>
<path d="M84.3198 347.762C83.9748 347.682 83.6308 347.629 83.2868 347.629C81.5378 347.629 79.9228 348.794 79.4448 350.569C78.8888 352.688 80.1337 354.86 82.2797 355.443C82.5967 355.522 82.9678 355.576 83.2868 355.576C85.0348 355.576 86.6506 354.41 87.1276 352.636C87.2336 352.291 87.2607 351.947 87.2607 351.603C87.2597 349.855 86.0938 348.239 84.3198 347.762Z" fill="#E5320F"/>
<path d="M121.272 357.696C120.927 357.616 120.584 357.562 120.239 357.562C118.491 357.562 116.875 358.729 116.398 360.503C115.841 362.622 117.086 364.794 119.206 365.377C119.577 365.457 119.923 365.51 120.267 365.51C122.015 365.51 123.605 364.344 124.081 362.57C124.187 362.225 124.214 361.88 124.214 361.536C124.214 359.788 123.048 358.172 121.272 357.696Z" fill="#E5320F"/>
<path d="M133.592 361.005C133.248 360.926 132.904 360.873 132.559 360.873C130.811 360.873 129.222 362.038 128.745 363.813C128.163 365.932 129.408 368.104 131.527 368.687C131.871 368.766 132.215 368.819 132.559 368.819C134.334 368.819 135.922 367.654 136.4 365.88C136.505 365.535 136.533 365.191 136.533 364.847C136.532 363.098 135.367 361.483 133.592 361.005Z" fill="#E5320F"/>
<path d="M72.002 344.45L74.916 348.662C74.942 348.556 74.9421 348.424 74.9421 348.291C74.9421 346.543 73.777 344.926 72.002 344.45Z" fill="#E5320F"/>
<path d="M150.915 298.279C151.021 298.279 151.154 298.279 151.26 298.253C153.326 298.094 154.916 296.346 154.916 294.332C154.916 294.2 154.889 294.094 154.889 293.987C154.703 291.895 152.982 290.332 150.943 290.332C150.837 290.332 150.704 290.358 150.598 290.358C148.426 290.517 146.784 292.451 146.969 294.623C147.127 296.689 148.876 298.279 150.915 298.279Z" fill="#E5320F"/>
<path d="M140.478 169.67C140.583 169.67 140.69 169.67 140.796 169.644C142.861 169.485 144.451 167.737 144.451 165.724C144.451 165.592 144.425 165.486 144.425 165.38C144.266 163.287 142.518 161.724 140.451 161.724H140.159C137.961 161.91 136.345 163.817 136.504 166.016C136.69 168.081 138.412 169.67 140.478 169.67Z" fill="#E5320F"/>
<path d="M148.823 272.556H149.167C151.233 272.37 152.823 270.649 152.823 268.609C152.823 268.504 152.797 268.371 152.797 268.265C152.611 266.171 150.889 264.609 148.85 264.609C148.744 264.609 148.612 264.635 148.505 264.635C146.333 264.794 144.691 266.728 144.876 268.9C145.035 270.993 146.783 272.556 148.823 272.556Z" fill="#E5320F"/>
<path d="M155.1 349.721H155.445C157.511 349.535 159.1 347.814 159.1 345.774C159.1 345.669 159.074 345.536 159.074 345.429C158.888 343.364 157.167 341.774 155.127 341.774C155.022 341.774 154.889 341.8 154.783 341.8C152.611 341.959 150.969 343.893 151.154 346.066C151.312 348.158 153.061 349.721 155.1 349.721Z" fill="#E5320F"/>
<path d="M151.974 311.153C152.08 311.153 152.187 311.127 152.292 311.127C154.385 310.941 155.947 309.22 155.947 307.18C155.947 307.074 155.921 306.942 155.921 306.835C155.763 304.77 154.014 303.18 152.001 303.18C151.868 303.18 151.763 303.206 151.656 303.206C149.458 303.392 147.842 305.299 148.001 307.498C148.187 309.563 149.909 311.153 151.974 311.153Z" fill="#E5320F"/>
<path d="M154.068 336.847H154.385C156.478 336.661 158.04 334.94 158.04 332.9C158.04 332.795 158.014 332.662 158.014 332.555C157.856 330.49 156.107 328.9 154.094 328.9C153.961 328.9 153.856 328.926 153.749 328.926C151.551 329.112 149.935 331.019 150.094 333.217C150.279 335.284 152.002 336.847 154.068 336.847Z" fill="#E5320F"/>
<path d="M158.73 357.271L159.63 356.714C158.942 355.469 157.616 354.648 156.133 354.648H155.842C154.623 354.754 153.564 355.39 152.928 356.317L155.551 357.483C156.584 357.933 157.776 357.853 158.73 357.271Z" fill="#E5320F"/>
<path d="M153.008 324.001C153.114 324.001 153.221 324.001 153.353 323.975C155.419 323.816 157.008 322.068 157.008 320.054C157.008 319.922 156.982 319.816 156.982 319.71C156.797 317.616 155.075 316.054 153.036 316.054C152.93 316.054 152.798 316.08 152.691 316.08C150.519 316.239 148.877 318.173 149.062 320.345C149.22 322.437 150.968 324.001 153.008 324.001Z" fill="#E5320F"/>
<path d="M139.763 156.796C141.828 156.61 143.418 154.889 143.418 152.849C143.418 152.742 143.392 152.61 143.392 152.504C143.312 151.63 142.968 150.835 142.412 150.226L136.584 155.603C137.326 156.345 138.333 156.795 139.419 156.795L139.763 156.796Z" fill="#E5320F"/>
<path d="M149.883 285.43C149.988 285.43 150.095 285.404 150.2 285.404C152.293 285.218 153.856 283.497 153.856 281.457C153.856 281.352 153.829 281.219 153.829 281.112C153.671 279.046 151.922 277.457 149.909 277.457C149.776 277.457 149.671 277.483 149.564 277.483C147.366 277.669 145.75 279.576 145.909 281.775C146.094 283.84 147.816 285.43 149.883 285.43Z" fill="#E5320F"/>
<path d="M143.604 208.24H143.921C146.014 208.055 147.577 206.305 147.577 204.24V203.948C147.391 201.883 145.67 200.293 143.63 200.293C143.524 200.293 143.392 200.319 143.285 200.319C141.087 200.478 139.471 202.412 139.656 204.61C139.816 206.676 141.564 208.24 143.604 208.24Z" fill="#E5320F"/>
<path d="M142.571 195.391C142.676 195.391 142.783 195.391 142.888 195.365C144.954 195.206 146.544 193.457 146.544 191.444C146.544 191.312 146.518 191.206 146.518 191.1C146.359 189.007 144.611 187.444 142.544 187.444H142.253C140.054 187.629 138.438 189.537 138.597 191.736C138.783 193.801 140.505 195.391 142.571 195.391Z" fill="#E5320F"/>
<path d="M147.791 259.682H148.107C150.2 259.496 151.763 257.748 151.763 255.682V255.39C151.577 253.325 149.856 251.735 147.816 251.735C147.71 251.735 147.578 251.761 147.471 251.761C145.273 251.947 143.658 253.854 143.843 256.052C144.003 258.119 145.751 259.682 147.791 259.682Z" fill="#E5320F"/>
<path d="M146.73 246.836C146.835 246.836 146.942 246.836 147.074 246.81C149.14 246.651 150.73 244.903 150.73 242.889C150.73 242.756 150.703 242.651 150.703 242.544C150.518 240.452 148.797 238.889 146.783 238.889C146.677 238.889 146.545 238.915 146.438 238.915C144.24 239.074 142.597 241.008 142.783 243.18C142.942 245.246 144.69 246.836 146.73 246.836Z" fill="#E5320F"/>
<path d="M144.665 221.114C144.77 221.114 144.876 221.114 144.981 221.088C147.047 220.929 148.638 219.181 148.638 217.167C148.638 217.034 148.612 216.929 148.612 216.822C148.453 214.729 146.704 213.167 144.638 213.167H144.346C142.148 213.353 140.531 215.26 140.69 217.458C140.876 219.524 142.598 221.114 144.665 221.114Z" fill="#E5320F"/>
<path d="M141.511 182.517H141.828C143.921 182.332 145.511 180.61 145.511 178.57C145.511 178.464 145.485 178.332 145.485 178.225C145.299 176.159 143.578 174.57 141.538 174.57C141.433 174.57 141.3 174.596 141.193 174.596C139.021 174.782 137.379 176.689 137.564 178.861C137.723 180.954 139.471 182.517 141.511 182.517Z" fill="#E5320F"/>
<path d="M146.014 233.962C148.107 233.776 149.67 232.027 149.67 229.962V229.67C149.484 227.605 147.763 226.015 145.723 226.015C145.617 226.015 145.485 226.041 145.378 226.041C143.18 226.227 141.564 228.134 141.749 230.333C141.908 232.398 143.656 233.962 145.696 233.962H146.014Z" fill="#E5320F"/>
<path d="M528.158 222.014C527.629 221.749 527.046 221.643 526.489 221.643C525.006 221.643 523.549 222.491 522.886 223.948C521.986 225.962 522.833 228.319 524.847 229.219C525.376 229.484 525.933 229.59 526.489 229.59C527.999 229.59 529.429 228.742 530.119 227.285C530.357 226.755 530.489 226.199 530.489 225.642C530.489 224.133 529.641 222.703 528.158 222.014Z" fill="#E5320F"/>
<path d="M517.297 236.107C516.37 238.093 517.244 240.477 519.232 241.378C519.762 241.643 520.344 241.749 520.901 241.749C522.384 241.749 523.841 240.901 524.504 239.444C524.769 238.914 524.875 238.331 524.875 237.775C524.875 236.292 524.027 234.835 522.57 234.172C522.013 233.906 521.457 233.801 520.901 233.801C519.39 233.802 517.96 234.65 517.297 236.107Z" fill="#E5320F"/>
<path d="M468.741 350.755C469.271 351.02 469.854 351.126 470.41 351.126C471.92 351.126 473.35 350.278 474.013 348.821C474.278 348.291 474.384 347.708 474.384 347.152C474.384 345.669 473.536 344.212 472.079 343.549C471.55 343.31 470.967 343.178 470.41 343.178C468.9 343.178 467.47 344.052 466.807 345.509C465.881 347.497 466.755 349.855 468.741 350.755Z" fill="#E5320F"/>
<path d="M539.417 197.723L534.039 199.842C533.244 201.802 534.119 204.027 536.053 204.928C536.609 205.166 537.165 205.299 537.722 205.299C539.232 205.299 540.662 204.425 541.325 202.994C541.59 202.437 541.695 201.882 541.695 201.325C541.694 199.816 540.846 198.385 539.417 197.723Z" fill="#E5320F"/>
<path d="M478.012 321.193C477.112 323.179 477.959 325.537 479.973 326.464C480.502 326.703 481.059 326.835 481.615 326.835C483.126 326.835 484.555 325.961 485.244 324.53C485.483 324.001 485.615 323.418 485.615 322.862C485.615 321.351 484.767 319.922 483.285 319.258C482.755 318.993 482.172 318.888 481.615 318.888C480.132 318.888 478.676 319.736 478.012 321.193Z" fill="#E5320F"/>
<path d="M530.463 217.086C530.993 217.324 531.549 217.43 532.106 217.43C533.616 217.43 535.046 216.582 535.735 215.125C535.973 214.596 536.08 214.039 536.08 213.483C536.08 211.973 535.232 210.543 533.775 209.854C533.245 209.616 532.663 209.484 532.106 209.484C530.623 209.484 529.192 210.358 528.503 211.815C527.575 213.801 528.45 216.159 530.463 217.086Z" fill="#E5320F"/>
<path d="M507.68 275.894C507.918 275.364 508.051 274.807 508.051 274.251C508.051 272.741 507.177 271.311 505.72 270.622C505.19 270.383 504.635 270.277 504.078 270.277C502.568 270.277 501.137 271.125 500.448 272.582C499.548 274.568 500.394 276.927 502.408 277.853C502.938 278.091 503.495 278.224 504.078 278.224C505.562 278.225 506.992 277.351 507.68 275.894Z" fill="#E5320F"/>
<path d="M518.886 251.603C519.152 251.047 519.257 250.491 519.257 249.934C519.257 248.424 518.409 246.994 516.952 246.331C516.423 246.066 515.84 245.961 515.283 245.961C513.773 245.961 512.343 246.809 511.68 248.266C510.753 250.252 511.627 252.61 513.614 253.537C514.171 253.802 514.727 253.907 515.283 253.907C516.794 253.908 518.224 253.06 518.886 251.603Z" fill="#E5320F"/>
<path d="M511.338 258.49C510.808 258.225 510.225 258.119 509.669 258.119C508.186 258.119 506.729 258.967 506.065 260.424C505.138 262.411 506.012 264.769 508 265.695C508.556 265.933 509.112 266.066 509.669 266.066C511.178 266.066 512.608 265.218 513.272 263.761C513.537 263.204 513.642 262.649 513.642 262.092C513.641 260.583 512.794 259.152 511.338 258.49Z" fill="#E5320F"/>
<path d="M500.133 282.781C499.577 282.543 499.021 282.41 498.464 282.41C496.954 282.41 495.524 283.285 494.835 284.742C493.935 286.728 494.809 289.086 496.795 289.986C497.325 290.252 497.908 290.357 498.464 290.357C499.947 290.357 501.404 289.509 502.067 288.052C502.332 287.523 502.438 286.94 502.438 286.383C502.437 284.9 501.59 283.443 500.133 282.781Z" fill="#E5320F"/>
<path d="M496.45 300.211C496.715 299.682 496.82 299.099 496.82 298.542C496.82 297.059 495.972 295.602 494.516 294.939C493.986 294.674 493.404 294.568 492.847 294.568C491.337 294.568 489.907 295.416 489.243 296.873C488.316 298.887 489.19 301.244 491.178 302.144C491.707 302.409 492.29 302.515 492.847 302.515C494.357 302.516 495.787 301.669 496.45 300.211Z" fill="#E5320F"/>
<path d="M488.9 307.1C488.371 306.834 487.788 306.729 487.231 306.729C485.748 306.729 484.291 307.577 483.628 309.034C482.7 311.02 483.575 313.405 485.562 314.305C486.119 314.57 486.674 314.676 487.231 314.676C488.741 314.676 490.171 313.828 490.834 312.371C491.099 311.841 491.205 311.258 491.205 310.702C491.205 309.193 490.357 307.762 488.9 307.1Z" fill="#E5320F"/>
<path d="M477.696 331.391C477.166 331.153 476.584 331.046 476.053 331.046C474.517 331.046 473.086 331.894 472.398 333.351C471.497 335.338 472.371 337.696 474.357 338.622C474.887 338.86 475.47 338.993 476.027 338.993C477.51 338.993 478.966 338.119 479.629 336.662C479.894 336.132 480.001 335.55 480.001 334.993C480.001 333.51 479.153 332.053 477.696 331.391Z" fill="#E5320F"/>
<path d="M574.251 312.795C574.437 312.795 574.622 312.795 574.807 312.769C576.794 312.503 578.225 310.782 578.225 308.822C578.225 308.663 578.225 308.477 578.199 308.292C577.933 306.306 576.212 304.875 574.252 304.875C574.093 304.875 573.907 304.875 573.722 304.901C571.55 305.193 570.04 307.206 570.331 309.378C570.595 311.365 572.317 312.795 574.251 312.795Z" fill="#E5320F"/>
<path d="M563.496 234.278C563.682 234.278 563.867 234.252 564.053 234.225C566.039 233.96 567.47 232.265 567.47 230.278C567.47 230.119 567.47 229.934 567.444 229.749C567.178 227.762 565.457 226.332 563.497 226.332C563.338 226.332 563.152 226.332 562.968 226.358C560.795 226.649 559.285 228.663 559.576 230.835C559.841 232.821 561.535 234.278 563.496 234.278Z" fill="#E5320F"/>
<path d="M576.052 325.908C576.237 325.908 576.422 325.882 576.581 325.855C578.594 325.589 580.024 323.868 580.024 321.908C580.024 321.749 580.024 321.563 579.998 321.378C579.707 319.392 578.012 317.961 576.052 317.961C575.893 317.961 575.707 317.961 575.522 317.987C573.35 318.279 571.814 320.292 572.132 322.464C572.397 324.451 574.092 325.908 576.052 325.908Z" fill="#E5320F"/>
<path d="M573.006 299.683C574.992 299.417 576.449 297.722 576.449 295.788C576.449 295.576 576.423 295.391 576.396 295.205C576.131 293.219 574.462 291.762 572.502 291.762C572.316 291.762 572.105 291.788 571.919 291.815C569.747 292.107 568.237 294.093 568.528 296.292C568.819 298.279 570.514 299.71 572.448 299.71C572.635 299.71 572.82 299.71 573.006 299.683Z" fill="#E5320F"/>
<path d="M565.297 247.365C565.483 247.365 565.668 247.339 565.854 247.312C567.84 247.047 569.271 245.352 569.271 243.365C569.271 243.207 569.271 243.021 569.245 242.836C568.98 240.849 567.259 239.419 565.298 239.419C565.14 239.419 564.954 239.419 564.769 239.445C562.597 239.762 561.06 241.75 561.378 243.922C561.641 245.908 563.337 247.365 565.297 247.365Z" fill="#E5320F"/>
<path d="M581.429 365.166C581.588 365.166 581.774 365.14 581.958 365.113C583.945 364.848 585.402 363.152 585.402 361.166C585.402 361.007 585.402 360.822 585.376 360.637C585.11 358.65 583.389 357.219 581.429 357.219C581.27 357.219 581.084 357.219 580.899 357.246C578.727 357.537 577.191 359.55 577.482 361.723C577.774 363.709 579.469 365.166 581.429 365.166Z" fill="#E5320F"/>
<path d="M561.72 221.192C561.906 221.192 562.065 221.166 562.25 221.139C564.237 220.874 565.693 219.152 565.693 217.192C565.693 217.006 565.693 216.847 565.667 216.663C565.376 214.676 563.681 213.245 561.72 213.245C561.562 213.245 561.376 213.245 561.191 213.272C559.019 213.563 557.482 215.576 557.774 217.749C558.065 219.735 559.76 221.192 561.72 221.192Z" fill="#E5320F"/>
<path d="M577.827 338.994C578.013 338.994 578.198 338.968 578.384 338.941C580.37 338.675 581.827 336.98 581.827 335.046C581.827 334.834 581.801 334.649 581.774 334.464C581.508 332.477 579.787 331.046 577.827 331.046C577.668 331.046 577.482 331.046 577.297 331.072C575.125 331.364 573.615 333.377 573.906 335.55C574.172 337.537 575.893 338.994 577.827 338.994Z" fill="#E5320F"/>
<path d="M579.628 352.08C579.814 352.08 579.999 352.054 580.185 352.027C582.172 351.762 583.602 350.066 583.602 348.08C583.602 347.921 583.602 347.735 583.576 347.551C583.311 345.564 581.59 344.133 579.629 344.133C579.471 344.133 579.285 344.133 579.1 344.159C576.927 344.451 575.417 346.464 575.709 348.637C575.972 350.623 577.668 352.08 579.628 352.08Z" fill="#E5320F"/>
<path d="M567.628 260.424C569.615 260.133 571.072 258.464 571.072 256.53C571.072 256.318 571.046 256.133 571.019 255.947C570.753 253.933 569.058 252.504 567.098 252.504C566.939 252.504 566.753 252.504 566.568 252.53C564.37 252.847 562.86 254.835 563.151 257.007C563.443 259.021 565.138 260.45 567.098 260.45C567.284 260.451 567.443 260.451 567.628 260.424Z" fill="#E5320F"/>
<path d="M560.476 208.053C562.462 207.788 563.893 206.066 563.893 204.106C563.893 203.947 563.893 203.761 563.867 203.576C563.813 203.126 563.681 202.702 563.47 202.332L560.291 200.186C560.185 200.16 560.053 200.16 559.92 200.16C559.761 200.16 559.575 200.16 559.39 200.186C557.218 200.478 555.708 202.491 555.999 204.663C556.265 206.649 557.96 208.106 559.92 208.106C560.105 208.106 560.291 208.08 560.476 208.053Z" fill="#E5320F"/>
<path d="M569.429 273.51C571.416 273.219 572.846 271.524 572.846 269.564C572.846 269.405 572.846 269.219 572.82 269.034C572.555 267.048 570.86 265.591 568.926 265.591C568.714 265.591 568.529 265.617 568.343 265.644C566.171 265.935 564.66 267.922 564.952 270.121C565.217 272.108 566.938 273.539 568.872 273.539C569.058 273.538 569.244 273.538 569.429 273.51Z" fill="#E5320F"/>
<path d="M571.205 286.596C573.218 286.331 574.647 284.61 574.647 282.65C574.647 282.491 574.648 282.305 574.622 282.12C574.33 280.134 572.661 278.677 570.727 278.677C570.515 278.677 570.33 278.703 570.144 278.73C567.972 279.022 566.435 281.035 566.752 283.207C567.018 285.194 568.714 286.625 570.674 286.625C570.86 286.624 571.046 286.624 571.205 286.596Z" fill="#E5320F"/>
<path d="M510.012 373.881C509.853 373.854 509.695 373.854 509.535 373.854C507.548 373.854 505.826 375.311 505.588 377.325C505.297 379.523 506.833 381.511 509.031 381.775C509.19 381.801 509.349 381.801 509.535 381.801C511.495 381.801 513.218 380.344 513.456 378.331C513.482 378.145 513.482 377.986 513.482 377.801C513.483 375.841 512.026 374.146 510.012 373.881Z" fill="#E5320F"/>
<path d="M535.177 377.058C535.019 377.033 534.86 377.033 534.7 377.033C532.714 377.033 530.992 378.489 530.753 380.503C530.462 382.701 531.998 384.689 534.197 384.953C534.356 384.979 534.542 384.979 534.7 384.979C536.661 384.979 538.383 383.522 538.621 381.509C538.647 381.323 538.647 381.164 538.647 380.979C538.648 379.019 537.165 377.324 535.177 377.058Z" fill="#E5320F"/>
<path d="M497.429 372.292C497.271 372.266 497.112 372.266 496.952 372.266C494.966 372.266 493.243 373.723 493.005 375.736C492.714 377.935 494.251 379.895 496.449 380.186C496.607 380.212 496.766 380.212 496.952 380.212C498.913 380.212 500.635 378.756 500.873 376.742C500.899 376.556 500.899 376.397 500.899 376.213C500.9 374.252 499.417 372.556 497.429 372.292Z" fill="#E5320F"/>
<path d="M573.19 387.761L568.528 385.218C568.502 385.244 568.502 385.244 568.502 385.272C568.21 387.47 569.747 389.457 571.945 389.722C572.104 389.748 572.29 389.748 572.448 389.748C573.19 389.748 573.906 389.536 574.515 389.165C574.251 388.583 573.773 388.106 573.19 387.761Z" fill="#E5320F"/>
<path d="M484.847 370.702C484.688 370.676 484.529 370.676 484.37 370.676C482.383 370.676 480.661 372.133 480.423 374.147C480.131 376.345 481.668 378.333 483.866 378.597C484.025 378.623 484.184 378.623 484.37 378.623C486.33 378.623 488.052 377.166 488.29 375.152C488.316 374.967 488.316 374.808 488.316 374.623C488.317 372.663 486.834 370.967 484.847 370.702Z" fill="#E5320F"/>
<path d="M560.343 380.239C560.184 380.212 560.025 380.212 559.866 380.212C557.879 380.212 556.157 381.669 555.919 383.683C555.628 385.855 557.164 387.869 559.362 388.133C559.521 388.159 559.707 388.159 559.866 388.159C561.826 388.159 563.548 386.702 563.786 384.689C563.812 384.503 563.812 384.344 563.812 384.159C563.813 382.199 562.33 380.503 560.343 380.239Z" fill="#E5320F"/>
<path d="M547.76 378.649C547.601 378.623 547.443 378.623 547.283 378.623C545.296 378.623 543.574 380.08 543.336 382.093C543.045 384.292 544.581 386.279 546.779 386.544C546.938 386.57 547.124 386.57 547.283 386.57C549.243 386.57 550.966 385.113 551.204 383.099C551.23 382.913 551.23 382.755 551.23 382.57C551.231 380.609 549.748 378.914 547.76 378.649Z" fill="#E5320F"/>
<path d="M522.595 375.469C522.436 375.443 522.277 375.443 522.118 375.443C520.131 375.443 518.409 376.9 518.143 378.913C517.878 381.112 519.415 383.099 521.614 383.363C521.773 383.39 521.959 383.39 522.118 383.39C524.078 383.39 525.8 381.933 526.038 379.919C526.064 379.733 526.064 379.574 526.064 379.39C526.065 377.429 524.582 375.734 522.595 375.469Z" fill="#E5320F"/>
<path d="M567.205 196.849C567.867 197.326 568.635 197.538 569.43 197.538C570.092 197.538 570.781 197.379 571.39 197.008C572.688 196.267 573.483 194.836 573.377 193.326L572.211 173.935L587.523 161.988C588.688 161.061 589.271 159.525 588.954 158.041C588.636 156.558 587.523 155.392 586.066 154.995L567.258 150.147L560.609 131.896C560.106 130.465 558.835 129.459 557.325 129.3C555.814 129.141 554.358 129.83 553.537 131.101L543.099 147.472L523.682 148.16C523.046 148.187 522.463 148.346 521.934 148.637C521.668 148.769 521.404 148.955 521.192 149.167C520.768 149.538 520.451 149.961 520.212 150.491C519.577 151.868 519.788 153.485 520.769 154.65L525.298 160.133L530.173 166.067L533.113 169.643L527.761 188.318C527.338 189.775 527.787 191.338 528.901 192.344C530.013 193.377 531.63 193.669 533.033 193.112L539.63 190.516L546.993 187.629L551.099 186.013L554.993 188.636L561.536 193.034L567.205 196.849Z" fill="white"/>
<path d="M67.737 349.881L67.0491 348.874L56.6641 333.934L63.5249 315.762C64.0539 314.358 63.7371 312.769 62.7041 311.656C61.6711 310.544 60.1081 310.12 58.6511 310.57L49.1941 313.405L41.644 315.682L40.0549 316.16L24.9031 304.027C23.7371 303.073 22.1211 302.888 20.7441 303.524C19.3661 304.16 18.492 305.537 18.439 307.046L18.042 326.463L1.80394 337.112C0.532943 337.933 -0.155982 339.417 0.0300177 340.926C0.216018 342.435 1.24797 343.681 2.67797 344.185L21.009 350.595L26.1211 369.324C26.5451 370.781 27.7369 371.893 29.2209 372.158C30.7039 372.45 32.2151 371.867 33.1421 370.675L44.8769 355.205L64.2681 356.132C65.0881 356.158 65.857 355.946 66.519 355.549C67.102 355.205 67.6049 354.701 67.9499 354.093C68.4269 353.192 68.5589 352.158 68.2939 351.205C68.1869 350.755 68.002 350.305 67.737 349.881Z" fill="white"/>
<path d="M475.92 356.742L468.398 357.642L465.034 358.039L463.02 355.762L457.775 349.801C457.193 349.165 456.319 348.901 455.497 349.113C454.677 349.325 454.041 350.013 453.882 350.861L451.763 361.616L441.67 365.987C440.875 366.332 440.372 367.073 440.319 367.921C440.265 368.795 440.715 369.59 441.458 370.014L451.047 375.366L452.08 386.305C452.16 387.153 452.716 387.868 453.537 388.186C454.332 388.478 455.232 388.319 455.842 387.736L463.895 380.266L474.624 382.65C475.074 382.756 475.525 382.729 475.922 382.571C476.293 382.412 476.611 382.2 476.876 381.882C477.405 381.22 477.512 380.293 477.167 379.525L475.127 375.154L472.531 369.565L472.743 369.22L478.147 360.108C478.571 359.367 478.544 358.465 478.094 357.724C477.615 357.006 476.767 356.636 475.92 356.742Z" fill="white"/>
<path d="M307.762 21.4325C308.53 21.0355 309.007 20.2406 308.98 19.3926C308.954 18.5446 308.451 17.7766 307.682 17.4056L297.748 12.7165L295.974 1.88151C295.841 1.03351 295.232 0.34555 294.411 0.10655C293.59 -0.15845 292.716 0.080559 292.133 0.715559L284.611 8.71556L273.75 7.04655C272.902 6.94055 272.055 7.28553 271.578 8.00053C271.075 8.68853 271.021 9.61653 271.445 10.3575L276.717 19.9736L275.656 22.0925L272.08 29.2185L271.789 29.8005C271.418 30.5695 271.498 31.4696 272.001 32.1586C272.531 32.8465 273.379 33.1645 274.227 33.0065L285.008 30.9665L292.822 38.6745C293.139 38.9925 293.537 39.2046 293.987 39.2836C294.358 39.3636 294.756 39.3365 295.127 39.2035C295.947 38.9385 296.53 38.2235 296.637 37.3755L297.856 27.7865L298.014 26.4626L299.868 25.5085L307.762 21.4325Z" fill="white"/>
<path d="M121.22 133.697L127.921 137.432L130.809 139.048L131.154 142.624L131.842 149.988C131.921 150.836 132.478 151.551 133.273 151.868C134.068 152.16 134.968 152.001 135.604 151.418L135.79 151.232L138.095 149.113L143.658 143.948L154.387 146.359C154.811 146.439 155.287 146.412 155.685 146.253C156.056 146.094 156.373 145.882 156.613 145.565C157.142 144.902 157.275 143.975 156.904 143.207L152.295 133.247L157.885 123.79C158.335 123.048 158.309 122.147 157.831 121.432C157.381 120.717 156.533 120.32 155.685 120.426L151.553 120.929L144.877 121.697L144.771 121.724L137.513 113.485C136.956 112.849 136.082 112.585 135.261 112.797C134.413 113.035 133.804 113.697 133.646 114.545L131.5 125.3L121.435 129.671C120.64 130.015 120.11 130.757 120.083 131.605C120.028 132.479 120.478 133.273 121.22 133.697Z" fill="white"/>
<path d="M595.946 374.596C595.601 374.092 595.019 373.827 594.436 373.907L587.124 374.835L586.859 374.861L582.779 370.332L581.746 369.166C581.35 368.742 580.74 368.557 580.157 368.716C579.6 368.875 579.15 369.352 579.045 369.935L577.641 377.431L570.648 380.531C570.091 380.769 569.72 381.3 569.694 381.908C569.668 382.2 569.748 382.491 569.906 382.729C570.039 382.968 570.251 383.18 570.515 383.338L576.317 386.517L577.217 386.995L578.012 394.624C578.065 395.207 578.462 395.71 579.019 395.922C579.575 396.134 580.21 396.001 580.634 395.604L585.138 391.339L585.164 391.313L586.197 390.36L587.309 390.598H587.335L593.666 391.975C593.984 392.029 594.302 392.001 594.594 391.896C594.831 391.79 595.043 391.631 595.23 391.419C595.6 390.941 595.68 390.306 595.415 389.776L592.157 382.862L595.998 376.24C596.29 375.735 596.263 375.073 595.946 374.596Z" fill="white"/>
<path d="M165.485 366.279L166.279 358.649C166.359 358.066 166.068 357.483 165.564 357.165C165.061 356.848 164.425 356.848 163.921 357.165L160.001 359.55L157.378 361.139L152.213 358.835L150.411 358.04C149.855 357.802 149.22 357.881 148.768 358.252C148.318 358.649 148.106 359.259 148.239 359.815L150.013 367.258L148.822 368.582L145.722 372.025L144.901 372.952C144.504 373.376 144.398 374.013 144.61 374.569C144.822 375.125 145.351 375.496 145.934 375.548L153.563 376.157L157.377 382.779C157.536 383.07 157.774 383.282 158.039 383.415C158.277 383.52 158.569 383.574 158.834 383.574C159.417 383.521 159.946 383.15 160.185 382.595L163.125 375.548L170.596 373.959C171.179 373.826 171.629 373.402 171.787 372.819C171.92 372.237 171.734 371.628 171.284 371.23L165.485 366.279Z" fill="#E5320F"/>
<path d="M244.378 219.724H238.201V258.188H261.976V252.652H244.378V219.724Z" fill="white"/>
<path d="M281.387 219.724H275.209V258.188H281.387V219.724Z" fill="white"/>
<path d="M319.848 237.209C321.982 235.382 323.053 232.974 323.053 229.982C323.053 226.99 321.992 224.532 319.876 222.609C317.758 220.685 314.972 219.724 311.513 219.724H298.051V258.188H314.542C318.272 258.188 321.283 257.139 323.575 255.041C325.867 252.943 327.013 250.262 327.013 246.999C327.013 244.629 326.381 242.589 325.119 240.879C323.858 239.17 322.099 237.947 319.848 237.209ZM304.112 225.144H310.931C312.832 225.144 314.302 225.602 315.331 226.514C316.358 227.427 316.875 228.68 316.875 230.273C316.875 231.905 316.351 233.187 315.3 234.12C314.252 235.053 312.796 235.517 310.931 235.517H304.112V225.144ZM319.003 251.166C317.818 252.234 316.157 252.769 314.021 252.769H304.113V240.822H314.021C316.119 240.822 317.769 241.357 318.975 242.425C320.178 243.494 320.781 244.96 320.781 246.825C320.78 248.65 320.187 250.097 319.003 251.166Z" fill="white"/>
<path d="M366.207 238.141C367.509 236.237 368.159 234.022 368.159 231.496C368.159 228.038 366.953 225.212 364.545 223.017C362.137 220.823 358.988 219.724 355.106 219.724H341.062V258.188H347.24V243.328H354.29L365.248 258.188H372.3L360.76 242.336C363.09 241.443 364.905 240.045 366.207 238.141ZM354.99 237.848H347.239V225.202H354.99C357.088 225.202 358.748 225.785 359.971 226.95C361.195 228.116 361.809 229.651 361.809 231.554C361.809 233.458 361.195 234.985 359.971 236.129C358.748 237.277 357.088 237.848 354.99 237.848Z" fill="white"/>
<path d="M398.231 219.082L381.271 258.187H387.857L390.594 251.777H407.904L410.643 258.187H417.287L400.33 219.082H398.231ZM392.809 246.473L399.279 230.563L405.688 246.473H392.809Z" fill="white"/>
</svg>
