<svg width="545" height="463" viewBox="0 0 545 463" fill="none" xmlns="http://www.w3.org/2000/svg">
<path d="M107.539 44.238C108.308 44.238 109.049 44.026 109.738 43.576C110.877 42.808 111.513 41.536 111.513 40.265C111.513 39.497 111.301 38.755 110.851 38.066C110.082 36.927 108.811 36.291 107.513 36.291C106.771 36.291 106.003 36.503 105.341 36.953C103.513 38.172 103.009 40.635 104.228 42.463C104.996 43.628 106.241 44.238 107.539 44.238Z" fill="#E5320F"/>
<path d="M75.353 65.695C76.121 65.695 76.863 65.483 77.552 65.033C78.691 64.264 79.327 62.993 79.327 61.722C79.327 60.954 79.115 60.212 78.664 59.523C77.896 58.384 76.625 57.748 75.353 57.748C74.585 57.748 73.816 57.96 73.128 58.411C71.327 59.629 70.823 62.119 72.042 63.921C72.81 65.085 74.056 65.695 75.353 65.695Z" fill="#E5320F"/>
<path d="M96.81 51.3903C97.578 51.3903 98.346 51.1783 99.008 50.7283C100.147 49.9603 100.783 48.6883 100.783 47.4173C100.783 46.6493 100.571 45.9073 100.121 45.2193C99.353 44.0803 98.081 43.4443 96.783 43.4443C96.041 43.4443 95.273 43.6563 94.611 44.1063C92.783 45.3253 92.28 47.8153 93.499 49.6163C94.267 50.7803 95.512 51.3903 96.81 51.3903Z" fill="#E5320F"/>
<path d="M86.0827 58.5417C86.8507 58.5417 87.5927 58.3297 88.2817 57.8797C89.4207 57.1117 90.0557 55.8397 90.0557 54.5687C90.0557 53.8007 89.8447 53.0587 89.3937 52.3697C88.6257 51.2307 87.3547 50.5947 86.0827 50.5947C85.3147 50.5947 84.5727 50.8067 83.8837 51.2577C82.0557 52.4757 81.5527 54.9397 82.7707 56.7677C83.5397 57.9327 84.8107 58.5417 86.0827 58.5417Z" fill="#E5320F"/>
<path d="M118.267 37.0847C119.009 37.0847 119.777 36.8727 120.466 36.4227C121.605 35.6547 122.241 34.3837 122.241 33.1117C122.241 32.3427 122.029 31.6017 121.579 30.9127C120.811 29.7737 119.539 29.1377 118.241 29.1377C117.473 29.1377 116.731 29.3497 116.042 29.7997C114.241 31.0187 113.737 33.4817 114.956 35.3097C115.724 36.4757 116.969 37.0847 118.267 37.0847Z" fill="#E5320F"/>
<path d="M64.6255 72.8474C65.3675 72.8474 66.1355 72.6354 66.8245 72.1854C67.9635 71.4174 68.5725 70.1714 68.5725 68.9004C68.5725 68.1324 68.3605 67.3644 67.9095 66.6754C67.1685 65.5364 65.8965 64.9004 64.5985 64.9004C63.8305 64.9004 63.0885 65.1124 62.3995 65.5634C60.5985 66.7814 60.0945 69.2454 61.3135 71.0734C62.0825 72.2384 63.3275 72.8474 64.6255 72.8474Z" fill="#E5320F"/>
<path d="M174.452 60.449C175.406 60.449 176.386 60.105 177.154 59.416C178.002 58.648 178.425 57.562 178.425 56.502C178.425 55.522 178.081 54.568 177.365 53.8C176.571 52.952 175.511 52.502 174.425 52.502C173.471 52.502 172.518 52.873 171.75 53.562C170.134 55.045 170.055 57.562 171.538 59.178C172.307 60.026 173.366 60.449 174.452 60.449Z" fill="#E5320F"/>
<path d="M165.764 51.0466C166.718 51.0466 167.697 50.7026 168.466 49.9866C169.314 49.2186 169.737 48.1586 169.737 47.0726C169.737 46.1186 169.392 45.1386 168.677 44.3706C167.909 43.5226 166.823 43.0986 165.764 43.0986C164.81 43.0986 163.83 43.4436 163.062 44.1586C161.473 45.6416 161.367 48.1586 162.85 49.7476C163.618 50.6226 164.704 51.0466 165.764 51.0466Z" fill="#E5320F"/>
<path d="M209.076 98.1456C209.182 97.6686 209.182 97.1657 209.076 96.6627L207.672 90.8347C207.646 90.7287 207.619 90.6226 207.619 90.5166C207.222 90.6756 206.824 90.9146 206.48 91.2316C204.864 92.7416 204.785 95.2317 206.268 96.8477C207.009 97.6687 208.043 98.1186 209.076 98.1456Z" fill="#E5320F"/>
<path d="M157.314 33.6953L157.764 35.8413C158.241 38.1463 157.075 40.1863 155.3 41.1923C155.857 41.4843 156.466 41.6163 157.101 41.6163C158.055 41.6163 159.009 41.2723 159.777 40.5833C160.625 39.7883 161.075 38.7293 161.075 37.6433C161.075 36.6893 160.704 35.7363 160.015 34.9673C159.274 34.1723 158.321 33.7483 157.314 33.6953Z" fill="#E5320F"/>
<path d="M191.803 79.3099C192.783 79.3099 193.737 78.9389 194.505 78.2499C195.353 77.4549 195.803 76.3959 195.803 75.3099C195.803 74.3559 195.432 73.4029 194.743 72.6349C193.948 71.7869 192.889 71.3369 191.803 71.3369C190.849 71.3369 189.896 71.7079 189.128 72.3969C187.512 73.8799 187.406 76.3969 188.889 78.0129C189.684 78.8599 190.744 79.3099 191.803 79.3099Z" fill="#E5320F"/>
<path d="M183.141 69.8806C184.095 69.8806 185.075 69.5356 185.816 68.8206C186.664 68.0266 187.114 66.9666 187.114 65.8806C187.114 64.9266 186.743 63.9727 186.054 63.2047C185.286 62.3567 184.226 61.9326 183.14 61.9326C182.186 61.9326 181.206 62.2776 180.438 62.9926C178.822 64.4756 178.716 66.9926 180.2 68.6086C180.996 69.4566 182.055 69.8806 183.141 69.8806Z" fill="#E5320F"/>
<path d="M200.492 88.7145C201.472 88.7145 202.426 88.3706 203.194 87.6556C204.042 86.8616 204.492 85.8015 204.492 84.7145C204.492 83.7605 204.121 82.8076 203.432 82.0396C202.638 81.1916 201.578 80.7686 200.518 80.7686C199.538 80.7686 198.558 81.1126 197.79 81.8286C196.201 83.3116 196.095 85.8286 197.578 87.4446C198.373 88.2906 199.432 88.7145 200.492 88.7145Z" fill="#E5320F"/>
<path d="M145.737 155.23C144.889 155.23 144.042 155.495 143.326 156.051C141.577 157.402 141.26 159.892 142.611 161.64C143.379 162.647 144.571 163.177 145.763 163.177C146.611 163.177 147.458 162.912 148.174 162.356C149.181 161.561 149.737 160.396 149.737 159.204C149.737 158.356 149.446 157.509 148.889 156.793C148.122 155.76 146.929 155.23 145.737 155.23Z" fill="#E5320F"/>
<path d="M206.532 109.906C205.711 109.853 205.022 109.535 204.492 109.032C204.466 109.032 204.466 109.032 204.466 109.032C203.354 110.436 203.274 112.476 204.413 113.959C205.207 114.965 206.373 115.495 207.565 115.495C208.413 115.495 209.26 115.23 209.975 114.674C211.008 113.88 211.538 112.714 211.538 111.522C211.538 111.098 211.458 110.674 211.326 110.277L206.532 109.906Z" fill="#E5320F"/>
<path d="M156.042 147.283C155.194 147.283 154.346 147.548 153.631 148.104C151.882 149.455 151.565 151.945 152.916 153.693C153.684 154.699 154.876 155.229 156.068 155.229C156.889 155.229 157.763 154.964 158.479 154.408C159.485 153.613 160.042 152.448 160.042 151.256C160.042 150.408 159.75 149.56 159.194 148.845C158.426 147.813 157.234 147.283 156.042 147.283Z" fill="#E5320F"/>
<path d="M200.413 117.058C199.618 116.025 198.452 115.495 197.234 115.495C196.386 115.495 195.538 115.76 194.823 116.316C193.101 117.667 192.783 120.157 194.108 121.905C194.902 122.912 196.068 123.442 197.26 123.442C198.108 123.442 198.955 123.177 199.697 122.621C200.703 121.827 201.234 120.66 201.234 119.469C201.234 118.621 200.969 117.774 200.413 117.058Z" fill="#E5320F"/>
<path d="M168.785 146.462C169.791 145.667 170.321 144.502 170.321 143.31C170.321 142.462 170.056 141.615 169.5 140.899C168.732 139.866 167.54 139.336 166.348 139.336C165.5 139.336 164.653 139.601 163.938 140.157C162.19 141.508 161.872 143.998 163.223 145.746C163.991 146.753 165.157 147.283 166.348 147.283C167.195 147.283 168.069 147.019 168.785 146.462Z" fill="#E5320F"/>
<path d="M179.088 138.516C180.094 137.721 180.624 136.556 180.624 135.364C180.624 134.516 180.359 133.669 179.803 132.953C179.008 131.946 177.843 131.39 176.651 131.39C175.803 131.39 174.956 131.682 174.24 132.238C172.491 133.563 172.174 136.052 173.498 137.801C174.293 138.807 175.459 139.337 176.65 139.337C177.498 139.337 178.373 139.073 179.088 138.516Z" fill="#E5320F"/>
<path d="M190.93 127.416C190.93 126.568 190.665 125.721 190.109 125.006C189.314 123.973 188.149 123.443 186.93 123.443C186.082 123.443 185.235 123.708 184.519 124.264C182.797 125.615 182.48 128.105 183.804 129.853C184.599 130.86 185.764 131.39 186.956 131.39C187.804 131.39 188.651 131.125 189.393 130.569C190.4 129.774 190.93 128.608 190.93 127.416Z" fill="#E5320F"/>
<path d="M101.871 159.204C102.639 159.893 103.593 160.237 104.546 160.237C105.606 160.237 106.612 159.84 107.407 159.018L107.222 158.118C106.904 156.687 107.248 155.363 107.99 154.33C107.804 153.959 107.539 153.615 107.222 153.323C106.453 152.634 105.5 152.29 104.573 152.29C103.487 152.29 102.401 152.74 101.606 153.588C100.123 155.204 100.255 157.72 101.871 159.204Z" fill="#E5320F"/>
<path d="M73.6326 131.972C74.7186 131.972 75.7786 131.548 76.5726 130.7C77.2616 129.932 77.6326 128.952 77.6326 127.998C77.6326 126.938 77.1816 125.879 76.3346 125.084C75.5666 124.396 74.5866 124.025 73.6326 124.025C72.5466 124.025 71.4866 124.475 70.7186 125.323C69.2356 126.939 69.3406 129.455 70.9566 130.939C71.7256 131.628 72.6786 131.972 73.6326 131.972Z" fill="#E5320F"/>
<path d="M94.2414 150.833C95.3274 150.833 96.3874 150.382 97.1814 149.535C97.8704 148.767 98.2144 147.813 98.2144 146.859C98.2144 145.773 97.7904 144.713 96.9164 143.919C96.1484 143.231 95.1944 142.859 94.2404 142.859C93.1544 142.859 92.0944 143.309 91.3004 144.157C89.8434 145.773 89.9494 148.29 91.5654 149.773C92.3344 150.489 93.2874 150.833 94.2414 150.833Z" fill="#E5320F"/>
<path d="M60.4136 115.92C60.2546 116.105 60.1216 116.291 60.0166 116.476L60.3076 121.138C60.3876 121.27 60.5196 121.403 60.6526 121.535C61.4206 122.223 62.3746 122.568 63.3276 122.568C64.4136 122.568 65.4996 122.118 66.2676 121.27C66.9556 120.502 67.3276 119.548 67.3276 118.595C67.3276 117.509 66.8776 116.449 66.0296 115.655C65.2616 114.966 64.3076 114.622 63.3546 114.622C62.2686 114.621 61.2086 115.045 60.4136 115.92Z" fill="#E5320F"/>
<path d="M83.9359 141.403C85.0219 141.403 86.0819 140.979 86.8769 140.105C87.5659 139.336 87.9099 138.383 87.9099 137.43C87.9099 136.344 87.4859 135.284 86.6119 134.489C85.8439 133.801 84.8899 133.456 83.9629 133.456C82.8769 133.456 81.7909 133.906 81.0229 134.754C79.5399 136.37 79.6459 138.886 81.2609 140.37C82.0289 141.058 82.9829 141.403 83.9359 141.403Z" fill="#E5320F"/>
<path d="M96.8107 320.13C96.8897 319.839 96.9167 319.521 96.9167 319.23C96.9167 317.428 95.6716 315.786 93.8166 315.389C93.5246 315.335 93.2337 315.283 92.9427 315.283C91.1147 315.283 89.4996 316.554 89.0746 318.409C88.5976 320.528 89.9227 322.674 92.0687 323.15C92.3597 323.204 92.6507 323.23 92.9427 323.23C94.7707 323.23 96.4137 321.985 96.8107 320.13Z" fill="#E5320F"/>
<path d="M78.2938 380.792C76.4658 380.792 74.8499 382.063 74.4259 383.918C73.9489 386.064 75.2999 388.183 77.4459 388.659C77.7379 388.739 78.0278 388.765 78.2938 388.765C80.1218 388.765 81.7639 387.52 82.1879 385.665C82.2409 385.374 82.2938 385.082 82.2938 384.791C82.2938 382.963 81.0229 381.32 79.1679 380.896C78.8769 380.845 78.5848 380.792 78.2938 380.792Z" fill="#E5320F"/>
<path d="M90.9561 346.328C91.0091 346.037 91.062 345.745 91.062 345.48C91.062 343.653 89.791 342.01 87.963 341.586C87.671 341.533 87.38 341.48 87.088 341.48C85.26 341.48 83.6181 342.751 83.1941 344.606C82.7181 346.752 84.0691 348.871 86.2141 349.348C86.5061 349.427 86.797 349.453 87.088 349.453C88.917 349.454 90.5591 348.183 90.9561 346.328Z" fill="#E5320F"/>
<path d="M120.148 197.429C119.856 197.376 119.565 197.323 119.274 197.323C117.446 197.323 115.83 198.594 115.406 200.448C114.929 202.594 116.28 204.713 118.426 205.19C118.717 205.27 119.009 205.296 119.3 205.296C121.128 205.296 122.77 204.024 123.167 202.171C123.22 201.879 123.273 201.588 123.273 201.296C123.274 199.468 122.002 197.853 120.148 197.429Z" fill="#E5320F"/>
<path d="M93.8965 333.242C93.9495 332.951 94.0025 332.66 94.0025 332.368C94.0025 330.54 92.7315 328.898 90.8765 328.474C90.5855 328.42 90.2935 328.368 90.0025 328.368C88.1745 328.368 86.5585 329.639 86.1345 331.494C85.6585 333.64 87.0095 335.759 89.1545 336.235C89.4465 336.315 89.7375 336.341 90.0025 336.341C91.8305 336.342 93.4735 335.07 93.8965 333.242Z" fill="#E5320F"/>
<path d="M85.1019 372.554C85.1549 372.262 85.2079 371.971 85.2079 371.68C85.2079 369.852 83.9629 368.236 82.1079 367.812C81.8159 367.759 81.5249 367.707 81.2339 367.707C79.4059 367.707 77.7899 368.978 77.3659 370.806C76.8629 372.952 78.2139 375.098 80.3599 375.575C80.6509 375.628 80.9429 375.654 81.2339 375.654C83.0619 375.653 84.7049 374.407 85.1019 372.554Z" fill="#E5320F"/>
<path d="M102.665 293.933C102.718 293.641 102.771 293.35 102.771 293.059C102.771 291.231 101.526 289.588 99.6723 289.164C99.3803 289.111 99.0893 289.059 98.7983 289.059C96.9703 289.059 95.3543 290.33 94.9303 292.184C94.4263 294.33 95.8043 296.45 97.9233 296.926C98.2153 297.005 98.5063 297.031 98.7983 297.031C100.625 297.031 102.267 295.76 102.665 293.933Z" fill="#E5320F"/>
<path d="M111.381 236.739C111.089 236.686 110.798 236.634 110.507 236.634C108.679 236.634 107.064 237.905 106.64 239.76C106.163 241.906 107.514 244.025 109.66 244.501C109.952 244.581 110.243 244.607 110.508 244.607C112.336 244.607 113.979 243.336 114.376 241.507C114.456 241.216 114.482 240.898 114.482 240.607C114.48 238.806 113.235 237.163 111.381 236.739Z" fill="#E5320F"/>
<path d="M108.439 249.853C108.147 249.799 107.857 249.747 107.565 249.747C105.737 249.747 104.121 251.018 103.697 252.873C103.22 255.019 104.571 257.138 106.717 257.614C107.008 257.694 107.299 257.72 107.591 257.72C109.392 257.72 111.035 256.449 111.459 254.594C111.512 254.303 111.564 254.011 111.564 253.72C111.565 251.892 110.294 250.277 108.439 249.853Z" fill="#E5320F"/>
<path d="M88.0423 359.442C88.0953 359.15 88.1483 358.859 88.1483 358.567C88.1483 356.74 86.8774 355.124 85.0224 354.7C84.7304 354.647 84.4394 354.594 84.1474 354.594C82.3194 354.594 80.7044 355.865 80.2804 357.72C79.8034 359.866 81.1543 361.985 83.3003 362.462C83.5923 362.515 83.8833 362.541 84.1743 362.541C85.9763 362.54 87.6183 361.295 88.0423 359.442Z" fill="#E5320F"/>
<path d="M109.552 226.674C109.075 228.793 110.426 230.939 112.572 231.389C112.864 231.468 113.155 231.495 113.446 231.495C115.274 231.495 116.89 230.25 117.314 228.395C117.367 228.103 117.42 227.812 117.42 227.521C117.42 225.693 116.148 224.077 114.294 223.653C114.002 223.6 113.711 223.548 113.446 223.548C111.618 223.548 109.976 224.82 109.552 226.674Z" fill="#E5320F"/>
<path d="M99.7504 307.018C99.8034 306.726 99.8563 306.435 99.8563 306.144C99.8563 304.316 98.5853 302.7 96.7313 302.276C96.4393 302.223 96.1483 302.171 95.8563 302.171C94.0283 302.171 92.4133 303.442 91.9893 305.297C91.5123 307.443 92.8634 309.562 95.0094 310.038C95.3014 310.091 95.5924 310.118 95.8844 310.118C97.7114 310.117 99.3274 308.872 99.7504 307.018Z" fill="#E5320F"/>
<path d="M108.545 267.706C108.598 267.415 108.651 267.124 108.651 266.832C108.651 265.004 107.38 263.389 105.525 262.965C105.234 262.912 104.943 262.859 104.651 262.859C102.823 262.859 101.207 264.13 100.783 265.985C100.306 268.131 101.657 270.25 103.777 270.727C104.069 270.78 104.36 270.806 104.651 270.806C106.479 270.806 108.122 269.561 108.545 267.706Z" fill="#E5320F"/>
<path d="M115.486 218.304C115.778 218.357 116.095 218.383 116.36 218.383C118.188 218.383 119.83 217.138 120.254 215.284C120.307 214.992 120.36 214.701 120.36 214.409C120.36 212.582 119.089 210.966 117.234 210.542C116.943 210.489 116.651 210.436 116.36 210.436C114.532 210.436 112.917 211.708 112.493 213.561C112.016 215.708 113.367 217.827 115.486 218.304Z" fill="#E5320F"/>
<path d="M105.606 280.82C105.659 280.528 105.712 280.237 105.712 279.945C105.712 278.118 104.441 276.502 102.587 276.078C102.295 276.025 102.004 275.973 101.712 275.973C99.8838 275.973 98.2678 277.244 97.8438 279.072C97.3668 281.218 98.7188 283.364 100.864 283.814C101.156 283.893 101.447 283.919 101.739 283.919C103.54 283.918 105.182 282.673 105.606 280.82Z" fill="#E5320F"/>
<path d="M106.453 405.348C105.95 405.348 105.446 405.454 104.97 405.64C102.931 406.461 101.95 408.765 102.745 410.805C103.381 412.368 104.864 413.322 106.453 413.322C106.93 413.322 107.433 413.217 107.936 413.031C109.473 412.395 110.426 410.912 110.426 409.348C110.426 408.845 110.32 408.341 110.134 407.865C109.499 406.302 108.016 405.348 106.453 405.348Z" fill="#E5320F"/>
<path d="M131.035 395.521C130.558 395.521 130.055 395.6 129.578 395.786C127.538 396.607 126.558 398.912 127.379 400.951C127.988 402.514 129.498 403.469 131.061 403.469C131.564 403.469 132.041 403.363 132.544 403.177C134.107 402.541 135.034 401.084 135.034 399.495C135.034 399.017 134.928 398.488 134.742 398.011C134.135 396.447 132.624 395.521 131.035 395.521Z" fill="#E5320F"/>
<path d="M118.745 400.447C118.268 400.447 117.765 400.526 117.288 400.712C115.248 401.533 114.242 403.838 115.063 405.878C115.699 407.441 117.182 408.395 118.771 408.395C119.248 408.395 119.751 408.289 120.228 408.103C121.791 407.467 122.745 405.984 122.745 404.421C122.745 403.917 122.639 403.414 122.453 402.938C121.818 401.374 120.335 400.447 118.745 400.447Z" fill="#E5320F"/>
<path d="M143.379 390.593C142.902 390.593 142.373 390.699 141.896 390.885C139.856 391.679 138.876 394.01 139.671 396.05C140.306 397.586 141.79 398.54 143.379 398.54C143.856 398.54 144.359 398.461 144.836 398.249C146.399 397.613 147.353 396.13 147.353 394.566C147.353 394.063 147.247 393.559 147.062 393.083C146.426 391.521 144.969 390.593 143.379 390.593Z" fill="#E5320F"/>
<path d="M155.697 385.666C155.221 385.666 154.691 385.771 154.214 385.957C152.175 386.778 151.168 389.083 151.989 391.123C152.625 392.686 154.108 393.613 155.671 393.613C156.174 393.613 156.678 393.533 157.154 393.321C158.717 392.712 159.644 391.202 159.644 389.613C159.644 389.135 159.564 388.633 159.379 388.156C158.744 386.593 157.287 385.666 155.697 385.666Z" fill="#E5320F"/>
<path d="M268.571 353.03H268.333C266.267 353.03 264.492 354.62 264.359 356.739C264.2 358.937 265.869 360.818 268.041 360.977H268.306C270.399 360.977 272.147 359.361 272.28 357.268V357.03C272.28 354.938 270.69 353.19 268.571 353.03Z" fill="#E5320F"/>
<path d="M295.034 354.806H294.744C292.678 354.806 290.955 356.421 290.796 358.514C290.664 360.686 292.307 362.593 294.505 362.726C294.585 362.726 294.691 362.752 294.77 362.752C296.863 362.752 298.585 361.137 298.744 359.044V358.806C298.744 356.713 297.154 354.938 295.034 354.806Z" fill="#E5320F"/>
<path d="M281.816 353.931H281.524C279.458 353.931 277.709 355.547 277.577 357.614C277.418 359.812 279.087 361.719 281.285 361.852H281.55C283.616 361.852 285.365 360.236 285.497 358.143V357.852C285.498 355.812 283.882 354.064 281.816 353.931Z" fill="#E5320F"/>
<path d="M255.353 352.156H255.061C252.995 352.156 251.273 353.772 251.114 355.864C250.981 358.037 252.624 359.944 254.822 360.076C254.902 360.103 255.008 360.103 255.087 360.103C257.153 360.103 258.901 358.487 259.061 356.394V356.156C259.061 354.064 257.472 352.316 255.353 352.156Z" fill="#E5320F"/>
<path d="M321.497 356.58H321.206C319.14 356.58 317.419 358.196 317.26 360.262C317.101 362.461 318.769 364.342 320.968 364.5H321.234C323.3 364.5 325.047 362.885 325.18 360.792V360.5C325.18 358.461 323.564 356.713 321.497 356.58Z" fill="#E5320F"/>
<path d="M334.716 357.454H334.424C332.358 357.454 330.636 359.07 330.477 361.137C330.344 363.335 331.987 365.242 334.185 365.375C334.265 365.401 334.371 365.401 334.45 365.401C336.516 365.401 338.265 363.785 338.424 361.666V361.428C338.425 359.361 336.835 357.587 334.716 357.454Z" fill="#E5320F"/>
<path d="M308.254 355.68H308.015C305.949 355.68 304.174 357.269 304.042 359.388C303.883 361.587 305.552 363.468 307.724 363.626H308.015C310.081 363.626 311.83 362.011 311.962 359.918V359.68C311.962 357.587 310.373 355.838 308.254 355.68Z" fill="#E5320F"/>
<path d="M242.134 351.282H241.843C239.776 351.282 238.028 352.897 237.896 354.99C237.737 357.163 239.406 359.07 241.604 359.202H241.869C243.935 359.202 245.683 357.613 245.816 355.494V355.202C245.816 353.163 244.2 351.414 242.134 351.282Z" fill="#E5320F"/>
<path d="M204.916 365.957C204.439 365.957 203.936 366.063 203.459 366.249C201.393 367.07 200.413 369.375 201.234 371.414C201.843 372.977 203.353 373.931 204.916 373.931C205.419 373.931 205.896 373.826 206.4 373.64C207.963 373.004 208.89 371.547 208.89 369.957C208.89 369.48 208.784 368.951 208.598 368.474C207.989 366.911 206.478 365.957 204.916 365.957Z" fill="#E5320F"/>
<path d="M229.525 356.13C229.048 356.13 228.545 356.209 228.068 356.395C226.028 357.216 225.022 359.547 225.843 361.587C226.479 363.123 227.962 364.077 229.525 364.077C230.028 364.077 230.531 363.971 231.008 363.785C232.571 363.149 233.498 361.666 233.498 360.076C233.498 359.599 233.418 359.097 233.233 358.62C232.598 357.057 231.114 356.13 229.525 356.13Z" fill="#E5320F"/>
<path d="M180.307 375.812C179.804 375.812 179.3 375.918 178.824 376.104C176.784 376.924 175.804 379.229 176.625 381.269C177.234 382.832 178.718 383.759 180.307 383.759C180.784 383.759 181.287 383.68 181.79 383.469C183.327 382.86 184.28 381.348 184.28 379.785C184.28 379.308 184.175 378.805 183.989 378.328C183.353 376.766 181.87 375.812 180.307 375.812Z" fill="#E5320F"/>
<path d="M167.989 380.738C167.512 380.738 166.983 380.844 166.506 381.03C164.493 381.851 163.486 384.156 164.307 386.195C164.916 387.732 166.426 388.685 167.989 388.685C168.493 388.685 168.996 388.606 169.472 388.394C171.035 387.785 171.962 386.301 171.962 384.711C171.962 384.234 171.856 383.705 171.67 383.228C171.062 381.666 169.578 380.738 167.989 380.738Z" fill="#E5320F"/>
<path d="M192.625 370.885C192.122 370.885 191.618 370.99 191.142 371.176C189.102 371.997 188.096 374.302 188.916 376.342C189.552 377.905 191.035 378.832 192.599 378.832C193.102 378.832 193.605 378.752 194.082 378.566C195.645 377.93 196.599 376.447 196.599 374.884C196.599 374.38 196.493 373.877 196.307 373.401C195.671 371.838 194.188 370.885 192.625 370.885Z" fill="#E5320F"/>
<path d="M98.1083 414.276C98.1083 413.798 98.0023 413.269 97.8163 412.793C97.4723 411.865 96.7833 411.177 95.9883 410.753C96.2263 412.396 96.9153 413.932 97.9753 415.203C98.0823 414.885 98.1083 414.593 98.1083 414.276Z" fill="#E5320F"/>
<path d="M217.207 361.058C216.73 361.058 216.227 361.138 215.75 361.323C213.71 362.144 212.73 364.449 213.551 366.489C214.16 368.052 215.644 369.006 217.233 369.006C217.71 369.006 218.213 368.9 218.69 368.715C220.253 368.079 221.207 366.595 221.207 365.032C221.207 364.529 221.101 364.025 220.915 363.549C220.28 361.985 218.796 361.058 217.207 361.058Z" fill="#E5320F"/>
<path d="M380.915 348.316C381.896 348.316 382.876 347.945 383.644 347.23C384.465 346.461 384.889 345.402 384.889 344.342C384.889 343.362 384.545 342.382 383.829 341.613C383.034 340.792 382.001 340.368 380.941 340.368C379.961 340.368 378.981 340.739 378.213 341.454C376.597 342.964 376.517 345.454 378.027 347.07C378.823 347.892 379.856 348.316 380.915 348.316Z" fill="#E5320F"/>
<path d="M427.298 295.706C426.689 297.11 426.954 298.806 428.067 299.971C428.861 300.792 429.895 301.216 430.954 301.216C431.086 301.216 431.192 301.216 431.325 301.19L431.272 301.004C430.663 298.753 429.232 296.872 427.298 295.706Z" fill="#E5320F"/>
<path d="M414.929 316.104C414.929 315.124 414.558 314.144 413.843 313.375C413.048 312.527 411.989 312.104 410.929 312.104C409.949 312.104 408.995 312.475 408.227 313.19C406.611 314.7 406.558 317.216 408.068 318.806C408.836 319.627 409.896 320.051 410.955 320.051C411.935 320.051 412.915 319.706 413.684 318.964C414.505 318.196 414.929 317.137 414.929 316.104Z" fill="#E5320F"/>
<path d="M404.915 325.508C404.915 324.528 404.544 323.547 403.829 322.779C403.034 321.958 402.001 321.534 400.941 321.534C399.961 321.534 398.981 321.904 398.212 322.62C396.623 324.103 396.544 326.62 398.053 328.235C398.821 329.056 399.881 329.48 400.94 329.48C401.921 329.48 402.9 329.11 403.669 328.394C404.492 327.6 404.915 326.567 404.915 325.508Z" fill="#E5320F"/>
<path d="M393.657 337.825C394.478 337.03 394.902 335.997 394.902 334.937C394.902 333.958 394.531 332.977 393.816 332.208C393.048 331.36 391.988 330.963 390.928 330.963C389.974 330.963 388.968 331.308 388.2 332.023C386.61 333.534 386.531 336.05 388.041 337.639C388.809 338.487 389.869 338.884 390.928 338.884C391.909 338.885 392.889 338.54 393.657 337.825Z" fill="#E5320F"/>
<path d="M423.856 303.945C423.061 303.124 422.002 302.7 420.942 302.7C419.962 302.7 419.007 303.045 418.239 303.76C416.623 305.27 416.544 307.787 418.054 309.403C418.848 310.224 419.908 310.648 420.968 310.648C421.922 310.648 422.903 310.277 423.671 309.562C424.519 308.767 424.916 307.734 424.916 306.674C424.915 305.693 424.571 304.713 423.856 303.945Z" fill="#E5320F"/>
<path d="M490.69 308.872C489.604 308.872 488.491 309.349 487.723 310.249C486.266 311.918 486.452 314.408 488.12 315.839C488.862 316.501 489.789 316.818 490.716 316.818C491.829 316.818 492.941 316.368 493.709 315.441C494.372 314.699 494.689 313.772 494.689 312.844C494.689 311.732 494.212 310.619 493.312 309.851C492.544 309.19 491.617 308.872 490.69 308.872Z" fill="#E5320F"/>
<path d="M481.577 303.601L476.914 303.389C476.596 304.766 477.046 306.249 478.186 307.23C478.928 307.892 479.855 308.209 480.782 308.209C481.895 308.209 483.007 307.759 483.775 306.832C484.437 306.09 484.756 305.163 484.756 304.236C484.756 303.891 484.703 303.547 484.623 303.229C483.696 303.521 482.663 303.653 481.577 303.601Z" fill="#E5320F"/>
<path d="M500.622 317.481C499.536 317.481 498.423 317.959 497.655 318.859C496.198 320.528 496.384 323.018 498.053 324.448C498.795 325.111 499.722 325.428 500.649 325.428C501.762 325.428 502.874 324.978 503.643 324.051C504.305 323.309 504.623 322.382 504.623 321.454C504.623 320.342 504.146 319.229 503.246 318.461C502.477 317.799 501.55 317.481 500.622 317.481Z" fill="#E5320F"/>
<path d="M510.583 326.09C509.471 326.09 508.358 326.567 507.564 327.468C506.133 329.137 506.319 331.627 507.988 333.057C508.73 333.72 509.657 334.037 510.584 334.037C511.697 334.037 512.81 333.587 513.578 332.66C514.24 331.918 514.558 330.991 514.558 330.063C514.558 328.951 514.081 327.838 513.181 327.07C512.437 326.408 511.51 326.09 510.583 326.09Z" fill="#E5320F"/>
<path d="M517.497 336.077C516.067 337.746 516.252 340.235 517.921 341.666C518.106 341.852 518.319 341.984 518.53 342.116C519.033 341.348 519.219 340.368 519.007 339.468L518.08 335.573C517.868 335.68 517.682 335.865 517.497 336.077Z" fill="#E5320F"/>
<path d="M522.424 353.19L518 352.845C517.974 352.845 517.947 352.871 517.92 352.898C516.251 354.329 516.066 356.845 517.496 358.488C518.291 359.415 519.403 359.865 520.516 359.865C521.443 359.865 522.37 359.548 523.112 358.886C524.012 358.117 524.489 357.005 524.489 355.893C524.489 355.072 524.251 354.25 523.695 353.562C523.298 353.349 522.874 353.216 522.424 353.19Z" fill="#E5320F"/>
<path d="M480.782 386.355C479.855 386.355 478.928 386.673 478.186 387.335C476.517 388.766 476.332 391.282 477.762 392.924C478.557 393.825 479.669 394.302 480.782 394.302C481.709 394.302 482.636 393.984 483.378 393.322C484.278 392.554 484.756 391.441 484.756 390.329C484.756 389.402 484.438 388.475 483.775 387.733C482.98 386.831 481.895 386.355 480.782 386.355Z" fill="#E5320F"/>
<path d="M470.848 394.964C470.451 394.964 470.027 395.017 469.629 395.15C472.225 396.236 473.603 399.495 471.986 402.25L471.642 402.832C472.305 402.7 472.913 402.408 473.443 401.932C474.344 401.163 474.82 400.051 474.82 398.939C474.82 398.011 474.502 397.085 473.84 396.343C473.046 395.441 471.96 394.964 470.848 394.964Z" fill="#E5320F"/>
<path d="M490.715 377.745C489.788 377.745 488.861 378.063 488.119 378.725C486.451 380.156 486.265 382.672 487.696 384.315C488.49 385.242 489.603 385.692 490.716 385.692C491.643 385.692 492.57 385.375 493.312 384.712C494.212 383.944 494.689 382.831 494.689 381.719C494.689 380.792 494.371 379.865 493.709 379.123C492.914 378.223 491.828 377.745 490.715 377.745Z" fill="#E5320F"/>
<path d="M500.649 369.137C499.722 369.137 498.795 369.454 498.053 370.116C496.384 371.547 496.199 374.063 497.629 375.706C498.423 376.633 499.536 377.083 500.649 377.083C501.576 377.083 502.503 376.766 503.245 376.104C504.145 375.335 504.622 374.223 504.622 373.11C504.622 372.183 504.304 371.256 503.642 370.514C502.848 369.613 501.762 369.137 500.649 369.137Z" fill="#E5320F"/>
<path d="M510.583 360.528C509.656 360.528 508.729 360.845 507.987 361.507C506.318 362.938 506.133 365.454 507.563 367.097C508.358 368.024 509.47 368.474 510.582 368.474C511.51 368.474 512.436 368.157 513.178 367.495C514.079 366.726 514.555 365.614 514.555 364.501C514.555 363.574 514.237 362.647 513.575 361.905C512.781 361.004 511.695 360.528 510.583 360.528Z" fill="#E5320F"/>
<path d="M432.438 402.911C432.438 401.559 431.723 400.236 430.478 399.495C429.842 399.124 429.153 398.938 428.464 398.938C427.113 398.938 425.789 399.652 425.047 400.897C423.908 402.804 424.543 405.188 426.424 406.301C426.795 405.983 427.245 405.718 427.722 405.506L432.384 403.493C432.412 403.309 432.438 403.097 432.438 402.911Z" fill="#E5320F"/>
<path d="M396.704 379.626C396.068 379.255 395.379 379.07 394.691 379.07C393.34 379.07 392.016 379.785 391.247 381.03C390.161 382.911 390.77 385.347 392.678 386.461C393.314 386.831 394.002 387.017 394.691 387.017C396.042 387.017 397.366 386.329 398.109 385.057C398.48 384.421 398.665 383.733 398.665 383.043C398.664 381.693 397.949 380.368 396.704 379.626Z" fill="#E5320F"/>
<path d="M385.445 373.004C384.809 372.633 384.121 372.447 383.432 372.447C382.081 372.447 380.757 373.163 380.015 374.407C379.83 374.725 379.697 375.07 379.591 375.387L380.279 378.646C380.305 378.725 380.305 378.804 380.305 378.884C380.623 379.254 380.994 379.572 381.418 379.837C382.054 380.208 382.743 380.394 383.431 380.394C384.782 380.394 386.107 379.706 386.849 378.434C387.22 377.798 387.405 377.109 387.405 376.42C387.406 375.07 386.69 373.745 385.445 373.004Z" fill="#E5320F"/>
<path d="M407.962 386.249C407.326 385.878 406.637 385.692 405.949 385.692C404.572 385.692 403.247 386.407 402.532 387.652C401.42 389.533 402.029 391.97 403.936 393.083C404.572 393.454 405.261 393.64 405.95 393.64C407.301 393.64 408.625 392.951 409.367 391.679C409.738 391.043 409.924 390.355 409.924 389.666C409.922 388.315 409.207 386.99 407.962 386.249Z" fill="#E5320F"/>
<path d="M419.22 392.871C418.584 392.5 417.895 392.314 417.207 392.314C415.83 392.314 414.505 393.03 413.79 394.275C412.678 396.156 413.286 398.592 415.194 399.706C415.83 400.076 416.519 400.262 417.208 400.262C418.559 400.262 419.883 399.574 420.625 398.302C420.996 397.666 421.181 396.978 421.181 396.288C421.18 394.938 420.465 393.613 419.22 392.871Z" fill="#E5320F"/>
<path d="M49.5793 123.231C50.2423 123.231 50.9313 123.045 51.5393 122.701C52.8643 121.959 53.6323 120.529 53.5263 119.019L53.1823 113.138L52.7053 105.217L52.3613 99.628L67.6723 87.681C68.8643 86.727 69.4213 85.218 69.1033 83.734C68.7853 82.251 67.6723 81.0591 66.2153 80.6881L57.1293 78.33L49.9773 76.476L47.4083 75.814L40.7593 57.5631C40.2563 56.1591 38.9843 55.152 37.4743 54.994C35.9643 54.808 34.5073 55.5231 33.6863 56.7951L23.2493 73.166L3.83132 73.854C2.32132 73.907 0.970319 74.808 0.361319 76.186C-0.273681 77.563 -0.0616743 79.179 0.918326 80.345L13.2623 95.338L7.91131 114.013C7.48731 115.47 7.93731 117.033 9.05031 118.04C10.1623 119.046 11.7793 119.364 13.1823 118.808L31.2483 111.682L47.3533 122.543C48.0163 122.992 48.7843 123.231 49.5793 123.231Z" fill="white"/>
<path d="M104.678 428.686L89.0233 417.189L89.6063 397.772C89.6593 396.262 88.8383 394.859 87.5133 394.143C86.1623 393.455 84.5463 393.56 83.3283 394.434L79.3013 397.322L73.5793 401.428L67.5393 405.772L49.2883 399.229C47.8573 398.7 46.2683 399.043 45.1823 400.103C44.0963 401.163 43.6983 402.726 44.1493 404.157L50.0563 422.673L38.1883 438.037C37.2613 439.229 37.0763 440.846 37.7383 442.196C38.4003 443.548 39.7773 444.422 41.2883 444.422L60.7053 444.527L71.6453 460.58C72.4933 461.825 74.0023 462.487 75.4863 462.275C76.9963 462.063 78.2413 461.004 78.7183 459.574L84.8113 441.136L103.434 435.705C104.228 435.467 104.891 435.017 105.394 434.434C105.818 433.905 106.109 433.269 106.242 432.58C106.505 431.096 105.896 429.586 104.678 428.686Z" fill="white"/>
<path d="M417.153 284.9L435.51 291.31L440.623 310.039C441.02 311.496 442.212 312.608 443.696 312.9C445.179 313.165 446.716 312.608 447.616 311.39L459.378 295.946L466.927 296.291L474.689 296.662L478.769 296.848C479.564 296.901 480.358 296.689 481.021 296.265C481.604 295.92 482.081 295.417 482.425 294.808C483.167 293.484 483.088 291.868 482.213 290.622L471.141 274.648L478.002 256.502C478.558 255.071 478.24 253.482 477.207 252.369C476.174 251.283 474.585 250.859 473.154 251.283L454.558 256.899L439.406 244.74C438.214 243.787 436.598 243.601 435.247 244.237C433.869 244.873 432.969 246.25 432.942 247.76L432.518 267.176L416.28 277.825C415.035 278.673 414.346 280.13 414.532 281.639C414.716 283.152 415.723 284.423 417.153 284.9Z" fill="white"/>
<path d="M152.837 36.7151C153.499 36.1851 153.817 35.3381 153.632 34.4901L152.361 28.4241C152.387 28.3451 152.387 28.2921 152.387 28.2121C152.387 27.6291 152.255 27.0201 151.963 26.4901L151.38 23.7352L158.93 15.7881C159.539 15.1791 159.725 14.2781 159.433 13.4571C159.115 12.6631 158.4 12.1061 157.552 12.0001L146.638 10.8351L141.393 1.19311C140.996 0.424105 140.201 -0.0258501 139.353 0.00114994C138.479 0.0271499 137.711 0.557124 137.367 1.32512L132.89 11.3641L122.082 13.3511C121.261 13.5101 120.572 14.1191 120.334 14.9401C120.096 15.7611 120.36 16.6621 120.996 17.2181L126.903 22.5691L129.128 24.5821L128.439 29.8801L127.698 35.4691C127.592 36.3171 127.963 37.1641 128.678 37.6411C129.393 38.1181 130.294 38.1441 131.035 37.7201L140.572 32.2371L150.479 36.9791C150.876 37.1911 151.327 37.2442 151.777 37.1912C152.149 37.1122 152.52 36.9791 152.837 36.7151Z" fill="white"/>
<path d="M375.14 372.421L373.922 366.54L374.107 366.354L381.471 358.592C382.08 357.957 382.265 357.056 381.974 356.261C381.656 355.467 380.941 354.884 380.093 354.805L374.848 354.248L369.179 353.639L367.881 351.228L363.934 343.997C363.536 343.229 362.742 342.778 361.868 342.806C361.02 342.832 360.252 343.362 359.908 344.13L355.431 354.169L344.623 356.156C343.775 356.315 343.113 356.925 342.874 357.745C342.636 358.566 342.901 359.441 343.537 360.023L344.12 360.553L349.789 365.692L351.67 367.387L350.239 378.275C350.133 379.123 350.504 379.97 351.22 380.447C351.935 380.924 352.836 380.951 353.577 380.526L363.113 375.044L373.02 379.785C373.417 379.971 373.868 380.05 374.318 379.971C374.689 379.918 375.06 379.759 375.378 379.521C376.04 378.991 376.358 378.143 376.172 377.295L375.14 372.421Z" fill="white"/>
<path d="M466.901 399.15C466.477 398.885 465.947 398.779 465.444 398.832L454.557 400.131L447.299 391.893C446.716 391.256 445.842 390.992 445.021 391.204C444.2 391.442 443.565 392.104 443.405 392.952L441.286 403.707L431.193 408.078C430.399 408.423 429.895 409.164 429.842 410.039C429.789 410.887 430.239 411.681 430.981 412.104L440.57 417.456L441.603 428.396C441.683 429.244 442.239 429.985 443.034 430.277C443.855 430.568 444.756 430.409 445.365 429.826L453.418 422.356L464.146 424.766C464.596 424.846 465.046 424.82 465.444 424.661C465.815 424.528 466.133 424.29 466.398 423.973C466.928 423.311 467.034 422.41 466.663 421.615L462.054 411.655L462.266 411.285H462.292L464.835 406.94L467.643 402.198C467.749 402.012 467.828 401.801 467.881 401.589C468.04 401.007 467.961 400.371 467.616 399.841C467.431 399.547 467.192 399.335 466.901 399.15Z" fill="white"/>
<path d="M127.671 192.581L132.148 182.541L142.929 180.528C143.777 180.369 144.466 179.76 144.678 178.939C144.916 178.118 144.678 177.244 144.042 176.661L137.34 170.648L135.857 169.323L136.625 163.389L137.288 158.435C137.394 157.587 137.023 156.74 136.308 156.263C135.593 155.786 134.666 155.76 133.924 156.184L124.414 161.694L114.507 156.979C113.739 156.608 112.812 156.714 112.149 157.244C111.487 157.774 111.169 158.622 111.355 159.469L112.07 162.86L113.474 169.403L113.633 170.198L106.084 178.197C105.501 178.806 105.315 179.707 105.607 180.502C105.899 181.323 106.64 181.88 107.488 181.959L118.402 183.098L119.567 185.244L123.276 192.025L123.647 192.74C123.885 193.164 124.203 193.455 124.601 193.667C124.946 193.852 125.316 193.932 125.714 193.932C126.585 193.879 127.327 193.376 127.671 192.581Z" fill="white"/>
<path d="M227.803 98.1454L228.598 90.5434C228.651 89.9604 228.386 89.3773 227.883 89.0603C227.38 88.7423 226.744 88.7424 226.241 89.0334L219.698 93.0334L212.731 89.9084C212.175 89.6694 211.539 89.7493 211.089 90.1463C210.957 90.2523 210.851 90.3844 210.771 90.5174C210.533 90.8624 210.453 91.2854 210.559 91.7094L211.857 97.1134L212.334 99.1524L207.221 104.821C206.824 105.271 206.691 105.907 206.929 106.464C207.141 106.994 207.671 107.391 208.254 107.444L215.883 108.053L219.698 114.675C219.857 114.94 220.095 115.152 220.361 115.284C220.599 115.417 220.864 115.469 221.155 115.443C221.738 115.417 222.268 115.046 222.506 114.489L225.42 107.416L232.917 105.827C233.5 105.721 233.95 105.27 234.109 104.688C234.241 104.105 234.056 103.496 233.606 103.125L227.803 98.1454Z" fill="white"/>
<path d="M543.536 345.904L537.736 340.951L538.53 333.348C538.583 332.739 538.318 332.182 537.815 331.837C537.312 331.52 536.676 331.52 536.173 331.837L529.63 335.837L522.663 332.712C522.107 332.474 521.471 332.553 521.021 332.924C520.544 333.321 520.358 333.93 520.491 334.513L520.544 334.699L522.266 341.93L521.842 342.408L517.154 347.626C516.757 348.051 516.624 348.687 516.862 349.242C517.074 349.799 517.604 350.169 518.187 350.222L525.816 350.831L529.631 357.453C529.79 357.744 530.028 357.957 530.293 358.089C530.532 358.195 530.796 358.248 531.088 358.248C531.671 358.195 532.201 357.824 532.439 357.294L535.353 350.222L542.849 348.632C543.432 348.5 543.882 348.075 544.041 347.493C544.172 346.911 543.987 346.302 543.536 345.904Z" fill="white"/>
<path d="M306.82 154.151C309.248 151.935 310.462 149.1 310.462 145.641C310.462 142.183 309.257 139.358 306.848 137.162C304.438 134.967 301.291 133.869 297.407 133.869H283.363V172.332H289.54V157.472H297.407C301.254 157.473 304.391 156.365 306.82 154.151ZM289.541 151.994V139.348H297.291C299.428 139.348 301.098 139.923 302.303 141.067C303.507 142.214 304.11 143.758 304.11 145.7C304.11 147.644 303.508 149.178 302.303 150.304C301.097 151.43 299.428 151.993 297.291 151.993L289.541 151.994Z" fill="white"/>
<path d="M330.51 133.87H324.333V172.333H330.51V133.87Z" fill="white"/>
<path d="M373.169 166.797H353.354V154.617H367.748V149.256H353.354V139.406H372.469V133.87H347.177V172.333H373.169V166.797Z" fill="white"/>
<path d="M403.85 165.982C402.626 166.953 401.024 167.439 399.042 167.439C395.117 167.439 391.757 165.398 388.959 161.318L384.588 164.641C386.102 167.244 388.123 169.285 390.649 170.76C393.174 172.237 395.991 172.976 399.099 172.976C402.829 172.976 405.908 171.946 408.335 169.887C410.763 167.828 411.978 165.145 411.978 161.844C411.978 159.358 411.25 157.28 409.793 155.609C408.335 153.939 405.994 152.365 402.77 150.888L398.458 148.906C398.341 148.829 398.167 148.731 397.934 148.615C396.652 147.955 395.894 147.565 395.662 147.448C395.428 147.332 395.02 147.032 394.437 146.546C393.855 146.06 393.495 145.593 393.359 145.146C393.222 144.7 393.135 144.126 393.097 143.427C393.097 141.951 393.64 140.806 394.729 139.99C395.815 139.174 397.215 138.766 398.925 138.766C402.226 138.766 404.928 140.319 407.026 143.427L411.338 140.107C410.132 138.009 408.433 136.338 406.238 135.094C404.043 133.851 401.605 133.229 398.925 133.229C395.505 133.229 392.631 134.202 390.3 136.143C387.968 138.087 386.803 140.593 386.803 143.661C386.803 146.11 387.55 148.16 389.047 149.81C390.542 151.462 392.785 152.969 395.778 154.328L400.032 156.31C402.168 157.32 403.645 158.203 404.461 158.961C405.277 159.718 405.685 160.757 405.685 162.078C405.686 163.708 405.074 165.01 403.85 165.982Z" fill="white"/>
<path d="M444.791 172.975C448.326 172.975 451.541 172.187 454.436 170.614C457.33 169.04 459.612 166.875 461.284 164.116L456.621 160.678C453.785 165.107 449.862 167.321 444.85 167.321C440.887 167.321 437.584 165.972 434.942 163.271C432.3 160.57 430.981 157.18 430.981 153.102C430.981 149.022 432.3 145.632 434.942 142.932C437.585 140.232 440.887 138.882 444.85 138.882C449.862 138.882 453.785 141.096 456.621 145.525L461.284 142.087C459.613 139.368 457.321 137.212 454.406 135.618C451.492 134.025 448.287 133.228 444.791 133.228C439.273 133.152 434.495 135.074 430.454 138.998C426.414 142.922 424.451 147.623 424.568 153.102C424.451 158.58 426.414 163.281 430.454 167.205C434.495 171.129 439.272 173.051 444.791 172.975Z" fill="white"/>
<path d="M501.671 166.797H481.856V154.617H496.25V149.256H481.856V139.406H500.971V133.87H475.679V172.333H501.671V166.797Z" fill="white"/>
<path d="M527.604 172.976C531.334 172.976 534.413 171.946 536.84 169.887C539.268 167.828 540.483 165.145 540.483 161.844C540.483 159.358 539.754 157.28 538.298 155.609C536.84 153.939 534.499 152.365 531.275 150.888L526.963 148.906C526.846 148.829 526.672 148.731 526.439 148.615C525.157 147.955 524.399 147.565 524.166 147.448C523.932 147.332 523.524 147.032 522.941 146.546C522.359 146.06 522 145.593 521.863 145.146C521.726 144.7 521.639 144.126 521.601 143.427C521.601 141.951 522.144 140.806 523.233 139.99C524.319 139.174 525.719 138.766 527.429 138.766C530.73 138.766 533.432 140.319 535.53 143.427L539.842 140.107C538.637 138.009 536.937 136.338 534.742 135.094C532.547 133.851 530.109 133.229 527.429 133.229C524.009 133.229 521.135 134.202 518.804 136.143C516.471 138.087 515.306 140.593 515.306 143.661C515.306 146.11 516.054 148.16 517.55 149.81C519.045 151.462 521.288 152.969 524.281 154.328L528.535 156.31C530.67 157.32 532.147 158.203 532.964 158.961C533.78 159.718 534.188 160.757 534.188 162.078C534.188 163.71 533.576 165.012 532.352 165.984C531.128 166.955 529.526 167.44 527.544 167.44C523.62 167.44 520.259 165.4 517.461 161.32L513.091 164.643C514.606 167.246 516.626 169.287 519.152 170.762C521.678 172.237 524.495 172.976 527.604 172.976Z" fill="white"/>
</svg>
