<svg width="599" height="555" viewBox="0 0 599 555" fill="none" xmlns="http://www.w3.org/2000/svg">
<path d="M33.6416 290.223C32.9266 290.223 32.2377 290.409 31.6807 290.753L35.8135 294.461C36.4225 295.018 36.7937 295.706 36.8997 296.421C37.3507 295.785 37.6155 295.017 37.6155 294.196C37.6145 291.998 35.8396 290.223 33.6416 290.223Z" fill="#E5320F"/>
<path d="M47.9458 290.223C45.7468 290.223 43.9717 291.998 43.9717 294.197C43.9717 296.369 45.7458 298.171 47.9458 298.171C50.1438 298.171 51.9197 296.369 51.9197 294.197C51.9197 291.998 50.1438 290.223 47.9458 290.223Z" fill="#E5320F"/>
<path d="M62.2512 290.223C60.0522 290.223 58.2773 291.998 58.2773 294.197C58.2773 296.369 60.0512 298.171 62.2512 298.171C64.4492 298.171 66.2244 296.369 66.2244 294.197C66.2244 291.998 64.4492 290.223 62.2512 290.223Z" fill="#E5320F"/>
<path d="M73.2441 292.077C72.8201 292.686 72.582 293.401 72.582 294.196C72.582 296.368 74.3559 298.17 76.5549 298.17C77.2179 298.17 77.8261 298.011 78.3831 297.693L74.436 294.329C73.721 293.719 73.3231 292.898 73.2441 292.077Z" fill="#E5320F"/>
<path d="M90.8589 331.944C88.6609 331.944 86.8848 333.719 86.8848 335.918C86.8848 338.09 88.6599 339.892 90.8589 339.892C93.0579 339.892 94.8328 338.09 94.8328 335.918C94.8328 333.719 93.0589 331.944 90.8589 331.944Z" fill="#E5320F"/>
<path d="M94.8328 308.024L93.5618 307.468C92.5018 306.991 91.2837 307.07 90.3037 307.68L87.1777 309.587C87.7607 311.044 89.1909 312.077 90.8599 312.077C93.0589 312.077 94.8337 310.275 94.8337 308.103L94.8328 308.024Z" fill="#E5320F"/>
<path d="M90.8589 318.037C88.6609 318.037 86.8848 319.812 86.8848 322.011C86.8848 324.183 88.6599 325.985 90.8589 325.985C93.0579 325.985 94.8328 324.183 94.8328 322.011C94.8328 319.812 93.0589 318.037 90.8589 318.037Z" fill="#E5320F"/>
<path d="M118.568 257.481C117.852 256.951 117.005 256.688 116.184 256.688C114.992 256.688 113.799 257.217 113.004 258.276C111.68 260.024 112.051 262.514 113.799 263.839C114.515 264.369 115.336 264.633 116.184 264.633C117.375 264.633 118.568 264.077 119.363 263.044C119.892 262.329 120.157 261.481 120.157 260.66C120.157 259.441 119.628 258.276 118.568 257.481Z" fill="#E5320F"/>
<path d="M127.02 246.303C126.305 245.773 125.484 245.509 124.663 245.509C123.444 245.509 122.252 246.065 121.457 247.098C120.133 248.847 120.478 251.336 122.226 252.661C122.941 253.191 123.788 253.456 124.635 253.456C125.827 253.456 127.021 252.926 127.788 251.866C128.345 251.151 128.583 250.33 128.583 249.482C128.582 248.29 128.053 247.072 127.02 246.303Z" fill="#E5320F"/>
<path d="M99.3096 279.045C98.0916 279.045 96.8996 279.575 96.1306 280.608C95.7066 281.164 95.4686 281.8 95.3896 282.436V282.462L96.3167 284.052C96.8737 285.058 97.9325 285.721 99.0715 285.826L101.853 286.038C102.092 285.853 102.277 285.641 102.462 285.402C103.019 284.687 103.257 283.839 103.257 283.018C103.257 281.799 102.728 280.607 101.694 279.839C100.978 279.283 100.131 279.045 99.3096 279.045Z" fill="#E5320F"/>
<path d="M110.144 268.66C109.428 268.13 108.581 267.865 107.76 267.865C106.568 267.865 105.375 268.395 104.58 269.454C103.256 271.176 103.601 273.692 105.349 275.017C106.065 275.547 106.912 275.812 107.733 275.812C108.952 275.812 110.144 275.255 110.913 274.222C111.469 273.507 111.707 272.659 111.707 271.838C111.707 270.62 111.178 269.428 110.144 268.66Z" fill="#E5320F"/>
<path d="M135.469 235.15C134.754 234.593 133.906 234.355 133.085 234.355C131.866 234.355 130.674 234.885 129.905 235.918C128.581 237.667 128.926 240.156 130.674 241.481C131.39 242.011 132.237 242.276 133.085 242.276C134.276 242.276 135.469 241.746 136.237 240.713C136.793 239.998 137.031 239.15 137.031 238.302C137.031 237.11 136.502 235.918 135.469 235.15Z" fill="#E5320F"/>
<path d="M221.771 219.071C221.4 218.965 221.031 218.912 220.66 218.912C218.938 218.912 217.347 220.051 216.845 221.8C216.236 223.893 217.455 226.092 219.548 226.727C219.919 226.832 220.289 226.886 220.66 226.886C222.382 226.886 223.972 225.747 224.474 223.999C224.58 223.628 224.633 223.257 224.633 222.913C224.634 221.19 223.494 219.6 221.771 219.071Z" fill="#E5320F"/>
<path d="M209.322 215.469C208.952 215.363 208.581 215.31 208.21 215.31C206.488 215.31 204.898 216.423 204.396 218.171C203.787 220.263 204.979 222.489 207.098 223.098C207.468 223.204 207.839 223.257 208.21 223.257C209.932 223.257 211.522 222.118 212.024 220.396C212.129 220.025 212.183 219.655 212.183 219.284C212.184 217.562 211.044 215.972 209.322 215.469Z" fill="#E5320F"/>
<path d="M296.476 240.819C296.105 240.713 295.734 240.66 295.363 240.66C293.641 240.66 292.052 241.799 291.549 243.521C290.94 245.64 292.132 247.839 294.251 248.448C294.622 248.554 294.993 248.607 295.363 248.607C297.086 248.607 298.675 247.495 299.178 245.746C299.283 245.375 299.335 245.004 299.335 244.66C299.335 242.938 298.197 241.322 296.476 240.819Z" fill="#E5320F"/>
<path d="M234.224 222.7C233.853 222.594 233.482 222.541 233.111 222.541C231.389 222.541 229.799 223.68 229.297 225.402C228.688 227.521 229.88 229.72 231.999 230.329C232.37 230.435 232.74 230.488 233.111 230.488C234.833 230.488 236.423 229.376 236.925 227.627C237.031 227.256 237.084 226.885 237.084 226.541C237.084 224.82 235.945 223.204 234.224 222.7Z" fill="#E5320F"/>
<path d="M311.785 248.263C311.785 246.541 310.646 244.952 308.925 244.449C308.554 244.343 308.183 244.29 307.813 244.29C306.091 244.29 304.501 245.429 303.998 247.151C303.389 249.27 304.581 251.468 306.7 252.078C307.071 252.184 307.442 252.237 307.813 252.237C309.535 252.237 311.124 251.098 311.627 249.376C311.732 249.005 311.785 248.635 311.785 248.263Z" fill="#E5320F"/>
<path d="M330.594 258.859C331.097 258.065 331.282 257.111 331.071 256.184L330.171 252.476C329.588 252.953 329.138 253.615 328.9 254.41C328.394 256.131 329.137 257.959 330.594 258.859Z" fill="#E5320F"/>
<path d="M282.912 244.978C284.635 244.978 286.224 243.865 286.726 242.117C286.832 241.746 286.885 241.375 286.885 241.031C286.885 239.309 285.745 237.693 284.024 237.19C283.653 237.084 283.283 237.031 282.912 237.031C281.19 237.031 279.6 238.17 279.097 239.918C278.488 242.011 279.681 244.21 281.8 244.818C282.171 244.951 282.542 244.978 282.912 244.978Z" fill="#E5320F"/>
<path d="M319.149 255.707C319.52 255.814 319.891 255.866 320.262 255.866C321.984 255.866 323.573 254.727 324.076 253.005C324.181 252.634 324.234 252.263 324.234 251.892C324.234 250.17 323.095 248.581 321.374 248.077C321.003 247.971 320.632 247.918 320.262 247.918C318.539 247.918 316.95 249.03 316.448 250.779C315.839 252.873 317.03 255.072 319.149 255.707Z" fill="#E5320F"/>
<path d="M266.646 236.29C266.037 238.383 267.229 240.582 269.348 241.217C269.719 241.323 270.09 241.376 270.46 241.376C272.182 241.376 273.772 240.237 274.274 238.515C274.38 238.144 274.433 237.773 274.433 237.402C274.433 235.68 273.294 234.091 271.573 233.588C271.202 233.482 270.831 233.429 270.46 233.429C268.739 233.429 267.15 234.542 266.646 236.29Z" fill="#E5320F"/>
<path d="M196.872 211.84C196.501 211.735 196.131 211.681 195.76 211.681C194.038 211.681 192.448 212.793 191.946 214.542C191.92 214.595 191.92 214.674 191.892 214.728L193.773 217.43C194.25 218.093 194.621 218.808 194.885 219.523C195.176 219.602 195.468 219.628 195.76 219.628C197.482 219.628 199.071 218.489 199.573 216.767C199.679 216.396 199.733 216.025 199.733 215.655C199.733 213.932 198.594 212.343 196.872 211.84Z" fill="#E5320F"/>
<path d="M258.011 229.8C256.289 229.8 254.7 230.912 254.197 232.661C253.588 234.754 254.78 236.979 256.899 237.588C257.27 237.694 257.64 237.747 258.011 237.747C259.734 237.747 261.323 236.608 261.825 234.886C261.931 234.515 261.984 234.144 261.984 233.774C261.984 232.052 260.845 230.463 259.124 229.959C258.753 229.853 258.382 229.8 258.011 229.8Z" fill="#E5320F"/>
<path d="M245.561 226.171C243.839 226.171 242.249 227.31 241.747 229.032C241.138 231.151 242.33 233.349 244.449 233.959C244.82 234.065 245.191 234.118 245.561 234.118C247.283 234.118 248.873 232.979 249.375 231.257C249.481 230.886 249.534 230.515 249.534 230.144C249.534 228.422 248.395 226.833 246.674 226.33C246.303 226.224 245.932 226.171 245.561 226.171Z" fill="#E5320F"/>
<path d="M314.7 286.383C315.548 286.383 316.395 286.118 317.111 285.562C318.144 284.794 318.674 283.602 318.674 282.41C318.674 281.562 318.409 280.715 317.853 279.999C317.084 278.966 315.893 278.436 314.701 278.436C313.853 278.436 313.006 278.701 312.291 279.257C310.542 280.582 310.198 283.071 311.549 284.82C312.316 285.853 313.509 286.383 314.7 286.383Z" fill="#E5320F"/>
<path d="M284.236 301.72C283.388 301.72 282.541 301.959 281.825 302.515C280.077 303.839 279.732 306.356 281.084 308.104C281.852 309.111 283.044 309.64 284.236 309.64C285.084 309.64 285.931 309.375 286.646 308.846C287.679 308.051 288.209 306.859 288.209 305.667C288.209 304.819 287.943 303.972 287.388 303.257C286.62 302.25 285.428 301.72 284.236 301.72Z" fill="#E5320F"/>
<path d="M274.063 309.454C273.215 309.454 272.368 309.719 271.653 310.275C269.931 311.6 269.587 314.089 270.911 315.838C270.938 315.891 270.991 315.944 271.017 315.97L274.884 315.493C275.758 315.387 276.553 315.519 277.269 315.811C277.798 315.122 278.063 314.274 278.063 313.427C278.063 312.579 277.798 311.732 277.243 311.017C276.448 309.984 275.282 309.454 274.063 309.454Z" fill="#E5320F"/>
<path d="M294.383 293.959C293.535 293.959 292.688 294.197 291.972 294.753C290.224 296.104 289.907 298.594 291.231 300.342C292.026 301.349 293.191 301.905 294.383 301.905C295.231 301.905 296.078 301.64 296.793 301.084C297.826 300.316 298.356 299.123 298.356 297.905C298.356 297.057 298.09 296.21 297.535 295.494C296.767 294.489 295.574 293.959 294.383 293.959Z" fill="#E5320F"/>
<path d="M304.527 286.196C303.706 286.196 302.858 286.461 302.143 287.017C300.394 288.341 300.05 290.831 301.374 292.58C302.169 293.587 303.36 294.143 304.553 294.143C305.401 294.143 306.222 293.878 306.963 293.322C307.97 292.553 308.5 291.362 308.5 290.17C308.5 289.322 308.262 288.474 307.705 287.759C306.911 286.726 305.72 286.196 304.527 286.196Z" fill="#E5320F"/>
<path d="M336.289 270.647C335.785 270.223 335.176 269.959 334.514 269.905L332.263 269.719C332.978 270.461 334.011 270.858 335.018 270.858C335.441 270.859 335.892 270.78 336.289 270.647Z" fill="#E5320F"/>
<path d="M321.692 277.058C322.461 278.091 323.653 278.621 324.844 278.621C325.692 278.621 326.539 278.356 327.255 277.8C328.288 277.032 328.818 275.84 328.818 274.648C328.818 273.8 328.553 272.953 327.997 272.237C327.229 271.204 326.037 270.674 324.845 270.674C323.997 270.674 323.15 270.939 322.435 271.495C320.686 272.82 320.368 275.31 321.692 277.058Z" fill="#E5320F"/>
<path d="M346.646 285.853C346.646 283.84 345.083 282.118 343.043 281.906C342.91 281.906 342.777 281.88 342.672 281.88C340.632 281.88 338.91 283.443 338.725 285.483C338.513 287.682 340.129 289.615 342.301 289.827H342.672C344.711 289.827 346.434 288.291 346.619 286.224C346.62 286.091 346.646 285.959 346.646 285.853Z" fill="#E5320F"/>
<path d="M337.958 379.414C337.958 377.401 336.395 375.679 334.354 375.467C334.222 375.467 334.089 375.441 333.958 375.441C331.944 375.441 330.223 377.004 330.037 379.07C329.825 381.242 331.441 383.176 333.613 383.388H333.984C336.023 383.388 337.745 381.851 337.93 379.786C337.931 379.653 337.958 379.52 337.958 379.414Z" fill="#E5320F"/>
<path d="M344.183 312.606C344.183 310.567 342.646 308.845 340.553 308.633C340.447 308.633 340.315 308.607 340.208 308.607C338.169 308.607 336.447 310.143 336.235 312.236C336.023 314.408 337.638 316.342 339.81 316.554C339.943 316.554 340.077 316.58 340.182 316.58C342.222 316.58 343.969 315.017 344.155 312.951C344.155 312.845 344.183 312.713 344.183 312.606Z" fill="#E5320F"/>
<path d="M345.428 299.257C345.428 297.191 343.892 295.469 341.799 295.283C341.666 295.283 341.534 295.257 341.428 295.257C339.415 295.257 337.693 296.82 337.481 298.86C337.269 301.059 338.885 302.992 341.057 303.178C341.19 303.204 341.322 303.204 341.454 303.204C343.468 303.204 345.189 301.641 345.401 299.601C345.401 299.495 345.428 299.363 345.428 299.257Z" fill="#E5320F"/>
<path d="M339.203 366.037C339.203 364.023 337.64 362.302 335.6 362.09C335.495 362.09 335.362 362.064 335.256 362.064C333.19 362.064 331.467 363.6 331.281 365.693C331.069 367.892 332.685 369.826 334.857 370.011C334.99 370.038 335.095 370.038 335.228 370.038C337.267 370.038 338.99 368.501 339.174 366.435C339.176 366.302 339.203 366.169 339.203 366.037Z" fill="#E5320F"/>
<path d="M333.004 432.925C333.004 430.859 331.468 429.137 329.375 428.951C329.242 428.951 329.11 428.925 328.978 428.925C326.964 428.925 325.269 430.462 325.058 432.528C324.871 434.7 326.461 436.634 328.66 436.846C328.766 436.873 328.899 436.873 329.031 436.873C331.045 436.873 332.793 435.31 332.978 433.27C332.978 433.163 333.004 433.031 333.004 432.925Z" fill="#E5320F"/>
<path d="M334.249 419.547C334.249 417.507 332.713 415.786 330.62 415.573C330.487 415.573 330.354 415.547 330.249 415.547C328.235 415.547 326.514 417.11 326.302 419.149C326.09 421.348 327.706 423.282 329.905 423.494H330.276C332.29 423.494 334.011 421.957 334.223 419.891C334.223 419.786 334.249 419.653 334.249 419.547Z" fill="#E5320F"/>
<path d="M341.692 339.309C341.692 337.296 340.129 335.574 338.089 335.362C337.984 335.362 337.851 335.336 337.744 335.336C335.679 335.336 333.957 336.873 333.745 338.965C333.559 341.137 335.148 343.071 337.348 343.283C337.453 343.309 337.586 343.309 337.719 343.309C339.732 343.309 341.48 341.746 341.665 339.706C341.666 339.574 341.692 339.442 341.692 339.309Z" fill="#E5320F"/>
<path d="M336.739 392.818C336.739 390.752 335.202 389.03 333.109 388.844C332.977 388.844 332.844 388.818 332.739 388.818C330.725 388.818 329.004 390.381 328.792 392.42C328.58 394.619 330.196 396.552 332.368 396.738C332.501 396.764 332.633 396.764 332.739 396.764C334.778 396.764 336.501 395.227 336.713 393.161C336.713 393.056 336.739 392.924 336.739 392.818Z" fill="#E5320F"/>
<path d="M342.937 325.957C342.937 323.918 341.374 322.196 339.308 322.01C339.175 322.01 339.043 321.984 338.937 321.984C336.924 321.984 335.202 323.547 334.991 325.586C334.778 327.784 336.394 329.718 338.593 329.93H338.964C340.978 329.93 342.726 328.393 342.911 326.327C342.911 326.196 342.937 326.063 342.937 325.957Z" fill="#E5320F"/>
<path d="M340.447 352.687C340.447 350.674 338.884 348.952 336.844 348.74C336.712 348.74 336.579 348.714 336.447 348.714C334.434 348.714 332.713 350.277 332.501 352.343C332.315 354.515 333.904 356.449 336.104 356.66H336.474C338.488 356.66 340.236 355.124 340.421 353.057C340.421 352.925 340.447 352.793 340.447 352.687Z" fill="#E5320F"/>
<path d="M335.494 406.196C335.494 404.13 333.958 402.408 331.865 402.196C331.759 402.196 331.626 402.17 331.52 402.17C329.48 402.17 327.758 403.707 327.546 405.799C327.334 407.971 328.95 409.905 331.122 410.117C331.255 410.117 331.387 410.143 331.493 410.143C333.533 410.143 335.255 408.58 335.467 406.54C335.468 406.435 335.494 406.302 335.494 406.196Z" fill="#E5320F"/>
<path d="M328.156 442.301C328.023 442.301 327.891 442.275 327.759 442.275C325.746 442.275 324.024 443.838 323.813 445.904C323.627 448.076 325.216 450.01 327.416 450.222H327.786C328.051 450.222 328.29 450.196 328.555 450.143H328.581L330.965 447.573C331.203 447.335 331.443 447.123 331.681 446.964C331.707 446.858 331.734 446.752 331.734 446.62C331.734 446.488 331.76 446.355 331.76 446.249C331.759 444.235 330.196 442.513 328.156 442.301Z" fill="#E5320F"/>
<path d="M350.726 460.289C350.302 460.289 349.851 460.342 349.427 460.501C347.944 461.004 346.938 462.329 346.806 463.812L351.334 465.958C352.103 466.302 352.712 466.806 353.163 467.415C354.116 466.647 354.698 465.481 354.698 464.263C354.698 463.813 354.646 463.389 354.487 462.965C353.931 461.295 352.368 460.289 350.726 460.289Z" fill="#E5320F"/>
<path d="M363.44 455.918C363.016 455.918 362.566 455.971 362.142 456.13C360.077 456.845 358.963 459.097 359.679 461.163C360.235 462.832 361.798 463.865 363.44 463.865C363.864 463.865 364.288 463.785 364.739 463.626C366.382 463.07 367.414 461.534 367.414 459.865C367.414 459.441 367.361 459.017 367.202 458.594C366.646 456.951 365.109 455.918 363.44 455.918Z" fill="#E5320F"/>
<path d="M379.362 453.163C379.362 453.163 379.361 453.137 379.335 453.137C379.309 453.111 379.255 453.084 379.229 453.057L376.528 451.574H376.501C376.369 451.548 376.289 451.548 376.157 451.548C375.733 451.548 375.284 451.601 374.86 451.76C372.794 452.475 371.68 454.727 372.395 456.793C372.978 458.462 374.514 459.495 376.157 459.495C376.581 459.495 377.032 459.416 377.456 459.257C379.099 458.701 380.132 457.164 380.132 455.522C380.132 455.072 380.077 454.648 379.919 454.224C379.785 453.825 379.601 453.454 379.362 453.163Z" fill="#E5320F"/>
<path d="M350.99 288.713C351.282 288.713 351.573 288.66 351.864 288.607C353.718 288.183 354.964 286.541 354.964 284.713C354.964 284.421 354.911 284.13 354.859 283.839C354.435 282.011 352.793 280.739 350.964 280.739C350.699 280.739 350.408 280.792 350.116 280.845C347.97 281.348 346.62 283.468 347.123 285.613C347.547 287.441 349.163 288.713 350.99 288.713Z" fill="#E5320F"/>
<path d="M348.077 275.918C348.368 275.918 348.659 275.865 348.951 275.813C350.805 275.389 352.05 273.747 352.05 271.945C352.05 271.653 352.024 271.336 351.945 271.044C351.759 270.196 351.309 269.481 350.726 268.951C349.773 269.243 349.004 269.931 348.633 270.885L347.864 272.687V272.713L346.858 275.15L346.832 275.176C346.726 275.309 346.593 275.441 346.461 275.547C346.514 275.6 346.593 275.626 346.647 275.626C347.097 275.812 347.573 275.918 348.077 275.918Z" fill="#E5320F"/>
<path d="M369.533 348.766C369.533 348.474 369.507 348.157 369.428 347.865C369.031 346.011 367.388 344.766 365.587 344.766C365.295 344.766 364.978 344.792 364.686 344.872C362.54 345.349 361.19 347.468 361.693 349.614C362.09 351.468 363.733 352.713 365.56 352.713C365.852 352.713 366.143 352.687 366.435 352.607C368.288 352.21 369.533 350.568 369.533 348.766Z" fill="#E5320F"/>
<path d="M353.878 301.508C354.196 301.508 354.487 301.482 354.778 301.402C356.632 300.978 357.878 299.336 357.878 297.535C357.878 297.243 357.825 296.952 357.773 296.66C357.376 294.806 355.733 293.561 353.931 293.561C353.64 293.561 353.322 293.587 353.031 293.667C350.885 294.144 349.534 296.263 350.038 298.409C350.461 300.263 352.077 301.508 353.878 301.508Z" fill="#E5320F"/>
<path d="M380.13 416.713C380.421 416.713 380.712 416.687 381.004 416.607C382.858 416.183 384.103 414.541 384.103 412.74C384.103 412.448 384.05 412.157 383.998 411.865C383.601 410.011 381.957 408.766 380.156 408.766C379.864 408.766 379.548 408.792 379.256 408.872C377.11 409.349 375.759 411.468 376.262 413.614C376.685 415.467 378.302 416.713 380.13 416.713Z" fill="#E5320F"/>
<path d="M356.818 314.302C357.11 314.302 357.401 314.276 357.692 314.197C359.546 313.8 360.792 312.157 360.792 310.356C360.792 310.065 360.766 309.747 360.686 309.455C360.289 307.601 358.647 306.356 356.845 306.356C356.554 306.356 356.236 306.383 355.945 306.462C353.799 306.939 352.448 309.085 352.952 311.204C353.349 313.057 354.99 314.302 356.818 314.302Z" fill="#E5320F"/>
<path d="M368.474 365.508C368.766 365.508 369.057 365.481 369.349 365.402C371.203 365.005 372.448 363.362 372.448 361.561C372.448 361.269 372.422 360.952 372.343 360.66C371.946 358.806 370.303 357.561 368.502 357.561C368.21 357.561 367.893 357.587 367.601 357.667C365.455 358.144 364.105 360.29 364.608 362.409C365.004 364.263 366.646 365.508 368.474 365.508Z" fill="#E5320F"/>
<path d="M381.19 399.944C381.19 399.653 381.164 399.335 381.084 399.043C380.66 397.215 379.018 395.944 377.19 395.944C376.925 395.944 376.633 395.997 376.342 396.05C374.196 396.553 372.845 398.673 373.349 400.819C373.745 402.673 375.388 403.918 377.216 403.918C377.507 403.918 377.799 403.865 378.09 403.812C379.945 403.414 381.19 401.772 381.19 399.944Z" fill="#E5320F"/>
<path d="M383.017 429.508C383.335 429.508 383.625 429.481 383.917 429.402C385.771 428.978 387.017 427.362 387.017 425.534C387.017 425.242 386.964 424.951 386.912 424.66C386.515 422.806 384.872 421.56 383.071 421.56C382.779 421.56 382.461 421.587 382.169 421.666C380.023 422.143 378.674 424.289 379.177 426.408C379.6 428.262 381.216 429.508 383.017 429.508Z" fill="#E5320F"/>
<path d="M375.177 391.017C377.031 390.593 378.277 388.951 378.277 387.149C378.277 386.857 378.25 386.54 378.17 386.248C377.746 384.394 376.106 383.149 374.304 383.149C374.013 383.149 373.721 383.202 373.43 383.255C371.284 383.758 369.933 385.877 370.437 388.023C370.833 389.851 372.476 391.096 374.304 391.096C374.594 391.096 374.886 391.07 375.177 391.017Z" fill="#E5320F"/>
<path d="M362.646 339.918C362.937 339.918 363.229 339.865 363.52 339.812C365.374 339.388 366.62 337.746 366.62 335.918C366.62 335.626 366.566 335.335 366.514 335.044C366.09 333.19 364.448 331.944 362.647 331.944C362.355 331.944 362.064 331.997 361.772 332.05C359.626 332.553 358.276 334.673 358.779 336.818C359.176 338.673 360.818 339.918 362.646 339.918Z" fill="#E5320F"/>
<path d="M372.263 378.195C374.117 377.771 375.363 376.155 375.363 374.327C375.363 374.035 375.31 373.745 375.257 373.453C374.833 371.598 373.218 370.354 371.39 370.354C371.099 370.354 370.807 370.407 370.516 370.46C368.37 370.937 367.019 373.082 367.523 375.201C367.92 377.055 369.562 378.302 371.39 378.302C371.681 378.303 371.972 378.275 372.263 378.195Z" fill="#E5320F"/>
<path d="M360.606 327.017C362.46 326.593 363.706 324.951 363.706 323.123C363.706 322.832 363.653 322.54 363.6 322.249C363.176 320.395 361.534 319.15 359.733 319.15C359.441 319.15 359.15 319.203 358.859 319.256C356.713 319.733 355.362 321.878 355.865 324.024C356.289 325.852 357.905 327.097 359.733 327.097C360.023 327.096 360.315 327.07 360.606 327.017Z" fill="#E5320F"/>
<path d="M494.01 447.177C491.812 447.177 490.036 448.951 490.036 451.15C490.036 453.322 491.811 455.124 494.01 455.124C496.209 455.124 497.984 453.323 497.984 451.15C497.983 448.951 496.208 447.177 494.01 447.177Z" fill="#E5320F"/>
<path d="M467.731 447.177C465.533 447.177 463.757 448.951 463.757 451.15C463.757 453.322 465.532 455.124 467.731 455.124C469.93 455.124 471.705 453.323 471.705 451.15C471.705 448.951 469.931 447.177 467.731 447.177Z" fill="#E5320F"/>
<path d="M428.288 447.177C426.116 447.177 424.313 448.951 424.313 451.15C424.313 453.322 426.116 455.124 428.288 455.124C430.487 455.124 432.261 453.323 432.261 451.15C432.261 448.951 430.487 447.177 428.288 447.177Z" fill="#E5320F"/>
<path d="M480.871 447.177C478.673 447.177 476.897 448.951 476.897 451.15C476.897 453.322 478.672 455.124 480.871 455.124C483.07 455.124 484.845 453.323 484.845 451.15C484.845 448.951 483.07 447.177 480.871 447.177Z" fill="#E5320F"/>
<path d="M441.454 447.177C439.255 447.177 437.454 448.951 437.454 451.15C437.454 453.322 439.255 455.124 441.454 455.124C443.626 455.124 445.4 453.323 445.4 451.15C445.4 448.951 443.626 447.177 441.454 447.177Z" fill="#E5320F"/>
<path d="M415.149 447.177C412.95 447.177 411.175 448.951 411.175 451.15C411.175 453.322 412.949 455.124 415.149 455.124C417.347 455.124 419.123 453.323 419.123 451.15C419.123 448.951 417.348 447.177 415.149 447.177Z" fill="#E5320F"/>
<path d="M507.148 447.177C504.95 447.177 503.174 448.951 503.174 451.15C503.174 453.322 504.949 455.124 507.148 455.124C509.347 455.124 511.122 453.323 511.122 451.15C511.122 448.951 509.348 447.177 507.148 447.177Z" fill="#E5320F"/>
<path d="M454.593 447.177C452.395 447.177 450.619 448.951 450.619 451.15C450.619 453.322 452.394 455.124 454.593 455.124C456.765 455.124 458.567 453.323 458.567 451.15C458.566 448.951 456.765 447.177 454.593 447.177Z" fill="#E5320F"/>
<path d="M402.01 447.177C401.957 447.177 401.878 447.177 401.825 447.203C401.48 448.077 401.507 449.031 401.904 449.905L404.102 454.514C405.242 453.825 405.983 452.553 405.983 451.15C405.983 448.951 404.209 447.177 402.01 447.177Z" fill="#E5320F"/>
<path d="M505.427 314.832C505.427 314.329 505.322 313.799 505.11 313.295C504.447 311.759 502.99 310.858 501.427 310.858C500.923 310.858 500.394 310.964 499.891 311.176C497.877 312.05 496.923 314.382 497.798 316.395C498.434 317.905 499.917 318.805 501.453 318.805C501.983 318.805 502.513 318.725 503.016 318.487C504.526 317.851 505.427 316.395 505.427 314.832Z" fill="#E5320F"/>
<path d="M533.241 393.163C533.77 393.163 534.301 393.057 534.804 392.845C536.315 392.183 537.215 390.726 537.215 389.163C537.215 388.66 537.109 388.13 536.898 387.626C536.235 386.116 534.778 385.216 533.242 385.216C532.713 385.216 532.182 385.321 531.679 385.533C529.665 386.408 528.712 388.739 529.586 390.752C530.222 392.262 531.705 393.163 533.241 393.163Z" fill="#E5320F"/>
<path d="M524.288 378.354C524.923 379.864 526.407 380.765 527.943 380.765C528.473 380.765 529.003 380.659 529.506 380.447C531.017 379.811 531.917 378.328 531.917 376.792C531.917 376.262 531.811 375.732 531.599 375.229C530.937 373.719 529.48 372.818 527.917 372.818C527.413 372.818 526.884 372.924 526.38 373.136C524.367 374.01 523.413 376.341 524.288 378.354Z" fill="#E5320F"/>
<path d="M506.751 331.203C507.281 331.203 507.812 331.097 508.314 330.885C509.824 330.223 510.725 328.766 510.725 327.203C510.725 326.7 510.619 326.17 510.407 325.666C509.745 324.156 508.289 323.256 506.725 323.256C506.222 323.256 505.691 323.361 505.188 323.574C503.174 324.448 502.221 326.779 503.095 328.792C503.731 330.303 505.215 331.203 506.751 331.203Z" fill="#E5320F"/>
<path d="M492.42 293.72C492.977 293.482 493.453 293.137 493.824 292.714L488.288 290.224C487.837 290.038 487.388 289.932 486.884 289.932C486.858 290.489 486.964 291.071 487.202 291.628C487.837 293.138 489.321 294.038 490.857 294.038C491.387 294.038 491.917 293.932 492.42 293.72Z" fill="#E5320F"/>
<path d="M521.321 351.998C521.321 351.495 521.215 350.965 521.003 350.462C520.341 348.952 518.884 348.051 517.348 348.051C516.818 348.051 516.288 348.157 515.785 348.369C513.771 349.217 512.818 351.574 513.692 353.587C514.328 355.097 515.812 355.998 517.348 355.998C517.877 355.998 518.408 355.892 518.911 355.68C520.42 355.018 521.321 353.561 521.321 351.998Z" fill="#E5320F"/>
<path d="M496.155 298.488C495.626 298.488 495.095 298.594 494.592 298.806C492.578 299.654 491.625 302.011 492.499 304.024C493.135 305.534 494.618 306.435 496.154 306.435C496.683 306.435 497.214 306.329 497.717 306.117C499.228 305.455 500.128 303.998 500.128 302.435C500.128 301.931 500.022 301.402 499.811 300.898C499.148 299.388 497.691 298.488 496.155 298.488Z" fill="#E5320F"/>
<path d="M538.539 405.559C539.069 405.559 539.599 405.453 540.102 405.242C541.612 404.579 542.511 403.123 542.511 401.559C542.511 401.056 542.406 400.526 542.195 400.023C541.532 398.513 540.075 397.612 538.539 397.612C538.01 397.612 537.479 397.718 536.976 397.93C534.962 398.778 534.009 401.109 534.883 403.149C535.519 404.659 537.003 405.559 538.539 405.559Z" fill="#E5320F"/>
<path d="M524.208 368.05C525.718 367.414 526.619 365.957 526.619 364.394C526.619 363.864 526.513 363.334 526.301 362.831C525.639 361.321 524.182 360.447 522.672 360.447C522.142 360.447 521.586 360.553 521.082 360.765C519.069 361.613 518.115 363.944 518.989 365.957C519.625 367.467 521.108 368.368 522.645 368.368C523.175 368.368 523.679 368.288 524.208 368.05Z" fill="#E5320F"/>
<path d="M516.022 339.599C516.022 339.096 515.917 338.566 515.705 338.063C515.043 336.553 513.586 335.652 512.022 335.652C511.519 335.652 510.989 335.758 510.486 335.97C508.472 336.844 507.519 339.176 508.393 341.189C509.029 342.699 510.512 343.599 512.049 343.599C512.578 343.599 513.108 343.493 513.612 343.282C515.122 342.619 516.022 341.163 516.022 339.599Z" fill="#E5320F"/>
<path d="M395.705 269.799C395.864 269.826 396.05 269.852 396.209 269.852C398.195 269.852 399.892 268.395 400.156 266.382C400.182 266.196 400.182 266.038 400.182 265.852C400.182 263.892 398.725 262.196 396.738 261.932C396.553 261.906 396.394 261.906 396.209 261.906C394.249 261.906 392.526 263.363 392.288 265.349C391.997 267.521 393.507 269.534 395.705 269.799Z" fill="#E5320F"/>
<path d="M379.52 263.679C379.228 265.851 380.765 267.838 382.937 268.129C383.096 268.156 383.282 268.156 383.466 268.156C385.427 268.156 387.122 266.699 387.387 264.712C387.413 264.526 387.413 264.368 387.413 264.182C387.413 262.222 385.956 260.5 383.97 260.262C383.784 260.236 383.599 260.236 383.44 260.236C381.48 260.236 379.785 261.666 379.52 263.679Z" fill="#E5320F"/>
<path d="M374.62 263.018C374.646 262.832 374.646 262.674 374.646 262.488C374.646 260.527 373.189 258.832 371.202 258.568C371.016 258.542 370.858 258.542 370.673 258.542C368.712 258.542 367.017 259.999 366.752 261.985C366.461 264.157 367.997 266.144 370.169 266.435C370.355 266.462 370.514 266.462 370.699 266.462C372.659 266.462 374.354 265.032 374.62 263.018Z" fill="#E5320F"/>
<path d="M361.878 260.82C361.878 258.833 360.421 257.138 358.435 256.873C358.249 256.846 358.09 256.846 357.905 256.846C356.634 256.846 355.468 257.456 354.753 258.462L358.462 261.641C359.336 262.383 359.707 263.416 359.627 264.396C360.793 263.84 361.667 262.727 361.853 261.35C361.878 261.164 361.878 260.979 361.878 260.82Z" fill="#E5320F"/>
<path d="M412.924 268.078C412.95 267.919 412.95 267.734 412.95 267.575C412.95 265.615 411.52 263.867 409.507 263.628C409.321 263.601 409.162 263.601 408.978 263.601C407.017 263.601 405.295 265.058 405.031 267.045C404.739 269.217 406.276 271.204 408.448 271.496C408.634 271.522 408.819 271.522 408.978 271.522C410.937 271.522 412.659 270.091 412.924 268.078Z" fill="#E5320F"/>
<path d="M451.228 272.607C451.228 270.647 449.772 268.925 447.786 268.687C447.6 268.661 447.415 268.661 447.256 268.661C445.296 268.661 443.6 270.091 443.335 272.104C443.043 274.276 444.579 276.263 446.752 276.554C446.938 276.581 447.096 276.581 447.281 276.581C449.241 276.581 450.938 275.15 451.203 273.137C451.229 272.951 451.228 272.792 451.228 272.607Z" fill="#E5320F"/>
<path d="M468.95 276.898C469.321 278.461 470.593 279.706 472.288 279.918C472.341 279.918 472.421 279.945 472.474 279.945L469.162 277.11C469.083 277.057 469.003 276.978 468.95 276.898Z" fill="#E5320F"/>
<path d="M463.997 274.302C463.997 272.315 462.54 270.62 460.553 270.355C460.367 270.329 460.209 270.329 460.024 270.329C458.063 270.329 456.368 271.785 456.103 273.772C455.812 275.971 457.348 277.958 459.52 278.249C459.679 278.249 459.865 278.276 460.05 278.276C462.01 278.276 463.705 276.819 463.97 274.832C463.997 274.646 463.997 274.461 463.997 274.302Z" fill="#E5320F"/>
<path d="M438.46 270.912C438.46 268.952 437.031 267.256 435.018 266.992C434.832 266.965 434.673 266.965 434.489 266.965C432.528 266.965 430.833 268.422 430.568 270.409C430.277 272.581 431.813 274.594 433.985 274.859C434.171 274.885 434.33 274.912 434.515 274.912C436.475 274.912 438.17 273.455 438.435 271.442C438.461 271.257 438.46 271.071 438.46 270.912Z" fill="#E5320F"/>
<path d="M425.666 269.773C425.692 269.587 425.692 269.402 425.692 269.243C425.692 267.282 424.261 265.561 422.275 265.296C422.089 265.269 421.904 265.269 421.745 265.269C419.759 265.269 418.063 266.726 417.798 268.713C417.507 270.912 419.043 272.899 421.216 273.19C421.401 273.217 421.56 273.217 421.745 273.217C423.705 273.217 425.4 271.76 425.666 269.773Z" fill="#E5320F"/>
<path d="M521.956 270.489C522.327 272.396 523.996 273.694 525.851 273.694C526.116 273.694 526.38 273.668 526.62 273.614C528.527 273.243 529.851 271.601 529.851 269.72C529.851 269.482 529.825 269.217 529.771 268.952C529.375 267.071 527.732 265.747 525.851 265.747C525.613 265.747 525.347 265.773 525.082 265.827C522.936 266.25 521.532 268.343 521.956 270.489Z" fill="#E5320F"/>
<path d="M552.737 260.448C552.473 260.448 552.234 260.474 551.969 260.527C549.797 260.951 548.393 263.044 548.817 265.19C549.214 267.097 550.857 268.395 552.712 268.395C552.977 268.395 553.241 268.369 553.506 268.315C555.387 267.944 556.712 266.276 556.712 264.421C556.712 264.156 556.685 263.918 556.632 263.653C556.261 261.772 554.592 260.448 552.737 260.448Z" fill="#E5320F"/>
<path d="M512.42 268.396C512.182 268.396 511.917 268.422 511.651 268.476C509.505 268.9 508.102 270.993 508.526 273.138C508.897 275.045 510.565 276.343 512.42 276.343C512.685 276.343 512.95 276.317 513.189 276.264C515.096 275.893 516.394 274.277 516.394 272.423C516.394 272.158 516.368 271.867 516.315 271.602C515.943 269.72 514.301 268.396 512.42 268.396Z" fill="#E5320F"/>
<path d="M543.201 266.303C542.831 264.422 541.162 263.098 539.281 263.098C539.043 263.098 538.777 263.124 538.512 263.178C536.366 263.601 534.962 265.695 535.386 267.84C535.757 269.747 537.426 271.045 539.281 271.045C539.546 271.045 539.81 271.019 540.075 270.966C541.956 270.595 543.281 268.926 543.281 267.071C543.281 266.806 543.255 266.568 543.201 266.303Z" fill="#E5320F"/>
<path d="M502.964 275.017C502.964 274.752 502.937 274.514 502.884 274.248C502.884 274.195 502.858 274.169 502.831 274.116C502.698 274.407 502.513 274.699 502.274 274.964L498.671 278.964C498.777 278.99 498.883 278.99 498.988 278.99C499.254 278.99 499.492 278.964 499.757 278.911C501.639 278.54 502.964 276.871 502.964 275.017Z" fill="#E5320F"/>
<path d="M582.645 175.972L582.618 175.946L581.718 175.549C580.658 175.072 579.413 175.152 578.433 175.761L575.811 177.35V177.376C575.678 177.747 575.625 178.091 575.625 178.489C575.625 180.688 577.399 182.463 579.599 182.463C581.797 182.463 583.573 180.688 583.573 178.489C583.572 177.535 583.228 176.635 582.645 175.972Z" fill="#E5320F"/>
<path d="M579.599 209.349C581.794 209.349 583.573 207.57 583.573 205.375C583.573 203.181 581.794 201.401 579.599 201.401C577.404 201.401 575.625 203.181 575.625 205.375C575.625 207.57 577.404 209.349 579.599 209.349Z" fill="#E5320F"/>
<path d="M579.599 228.29C577.4 228.29 575.625 230.065 575.625 232.237C575.625 233.085 575.89 233.906 576.367 234.542C577.082 235.575 578.247 236.237 579.598 236.237C581.796 236.237 583.572 234.436 583.572 232.237C583.572 230.065 581.797 228.29 579.599 228.29Z" fill="#E5320F"/>
<path d="M579.599 214.833C577.4 214.833 575.625 216.608 575.625 218.806C575.625 221.005 577.399 222.78 579.599 222.78C581.797 222.78 583.573 221.006 583.573 218.806C583.572 216.608 581.797 214.833 579.599 214.833Z" fill="#E5320F"/>
<path d="M579.599 187.945C577.4 187.945 575.625 189.72 575.625 191.918C575.625 194.117 577.399 195.892 579.599 195.892C581.797 195.892 583.573 194.117 583.573 191.918C583.572 189.72 581.797 187.945 579.599 187.945Z" fill="#E5320F"/>
<path d="M553.93 152.741C553.533 152.608 553.136 152.556 552.738 152.556C551.043 152.556 549.454 153.642 548.924 155.337C548.262 157.43 549.428 159.655 551.521 160.317C551.918 160.45 552.315 160.503 552.713 160.503C554.407 160.503 555.971 159.417 556.526 157.722C556.632 157.324 556.713 156.928 556.713 156.557C556.712 154.86 555.625 153.271 553.93 152.741Z" fill="#E5320F"/>
<path d="M535.493 151.071C534.831 153.164 535.996 155.389 538.089 156.051C538.486 156.183 538.884 156.237 539.308 156.237C540.977 156.237 542.539 155.177 543.07 153.482C543.202 153.085 543.256 152.661 543.256 152.263C543.256 150.594 542.196 149.031 540.5 148.502C540.104 148.369 539.68 148.317 539.282 148.317C537.585 148.316 536.049 149.376 535.493 151.071Z" fill="#E5320F"/>
<path d="M513.639 139.971C513.242 139.839 512.844 139.786 512.447 139.786C510.752 139.786 509.163 140.872 508.633 142.567C507.971 144.66 509.137 146.885 511.23 147.547C511.626 147.68 512.024 147.733 512.421 147.733C514.116 147.733 515.68 146.647 516.209 144.952C516.342 144.555 516.395 144.157 516.395 143.76C516.394 142.064 515.308 140.502 513.639 139.971Z" fill="#E5320F"/>
<path d="M522.062 146.807C521.4 148.9 522.565 151.152 524.658 151.814C525.055 151.92 525.453 151.999 525.85 151.999C527.545 151.999 529.108 150.913 529.638 149.218C529.77 148.821 529.824 148.397 529.824 148C529.824 146.331 528.764 144.768 527.069 144.238C526.672 144.106 526.248 144.052 525.85 144.052C524.155 144.052 522.592 145.112 522.062 146.807Z" fill="#E5320F"/>
<path d="M500.183 135.707C499.786 135.575 499.387 135.522 498.99 135.522C498.805 135.522 498.621 135.522 498.435 135.575L501.534 138.224C502.382 138.939 502.753 139.919 502.726 140.873C502.752 140.82 502.752 140.767 502.78 140.714C502.912 140.317 502.966 139.919 502.966 139.522C502.965 137.826 501.878 136.237 500.183 135.707Z" fill="#E5320F"/>
<path d="M562.486 162.303C562.91 163.363 563.784 164.21 564.949 164.581C565.029 164.607 565.108 164.634 565.188 164.634L562.591 162.409C562.565 162.383 562.513 162.357 562.486 162.303Z" fill="#E5320F"/>
<path d="M526.751 82.9392C527.97 82.9392 529.189 82.3562 529.956 81.2962C530.486 80.5812 530.725 79.7592 530.725 78.9392C530.725 77.7202 530.168 76.5012 529.109 75.7332C528.394 75.2302 527.573 74.9912 526.779 74.9912C525.533 74.9912 524.315 75.5472 523.547 76.6072C522.249 78.3812 522.647 80.8722 524.421 82.1702C525.108 82.6742 525.956 82.9392 526.751 82.9392Z" fill="#E5320F"/>
<path d="M516.182 93.43C516.87 93.933 517.692 94.198 518.513 94.198C519.732 94.198 520.951 93.615 521.718 92.556C522.248 91.841 522.487 91.019 522.487 90.198C522.487 88.98 521.931 87.787 520.871 87.019C520.156 86.489 519.335 86.251 518.514 86.251C517.295 86.251 516.077 86.807 515.309 87.867C514.01 89.642 514.407 92.132 516.182 93.43Z" fill="#E5320F"/>
<path d="M534.989 71.6819C536.234 71.6819 537.427 71.0989 538.221 70.0389C538.512 69.6149 538.724 69.1649 538.83 68.7139L532.869 71.0449C533.532 71.4689 534.274 71.6819 534.989 71.6819Z" fill="#E5320F"/>
<path d="M499.679 115.92C500.394 116.45 501.215 116.715 502.036 116.715C503.255 116.715 504.473 116.132 505.241 115.072C505.771 114.357 506.01 113.536 506.01 112.715C506.01 111.496 505.453 110.304 504.394 109.536C503.679 109.006 502.858 108.768 502.037 108.768C500.818 108.768 499.599 109.324 498.832 110.384C497.533 112.158 497.931 114.648 499.679 115.92Z" fill="#E5320F"/>
<path d="M496.42 125.429L496.234 127.124C496.526 126.886 496.791 126.621 497.003 126.33C497.533 125.615 497.772 124.793 497.772 123.973C497.772 122.754 497.215 121.562 496.156 120.794C495.441 120.265 494.62 120.026 493.799 120.026C492.58 120.026 491.361 120.582 490.594 121.642C490.302 122.039 490.09 122.463 489.985 122.913L491.23 122.145C493.665 120.661 496.738 122.594 496.42 125.429Z" fill="#E5320F"/>
<path d="M507.944 104.662C508.632 105.191 509.453 105.457 510.274 105.457C511.493 105.457 512.712 104.874 513.479 103.815C514.009 103.1 514.248 102.278 514.248 101.457C514.248 100.239 513.691 99.0458 512.632 98.2778C511.917 97.7478 511.097 97.5098 510.276 97.5098C509.057 97.5098 507.837 98.0658 507.07 99.1258C505.771 100.9 506.17 103.39 507.944 104.662Z" fill="#E5320F"/>
<path d="M576.288 524.659C576.58 524.659 576.897 524.606 577.216 524.526C579.043 524.102 580.261 522.46 580.261 520.659C580.261 520.368 580.236 520.05 580.157 519.758C579.706 517.93 578.116 516.712 576.314 516.712C575.997 516.712 575.679 516.738 575.362 516.818C573.216 517.321 571.919 519.467 572.422 521.586C572.845 523.414 574.487 524.659 576.288 524.659Z" fill="#E5320F"/>
<path d="M569.665 496.844C569.956 496.844 570.274 496.791 570.565 496.711C572.393 496.288 573.638 494.645 573.638 492.844C573.638 492.552 573.612 492.235 573.532 491.943C573.108 490.115 571.492 488.897 569.691 488.897C569.373 488.897 569.055 488.923 568.737 489.003C566.591 489.506 565.294 491.652 565.798 493.772C566.221 495.599 567.863 496.844 569.665 496.844Z" fill="#E5320F"/>
<path d="M567.254 482.805C569.082 482.381 570.327 480.739 570.327 478.938C570.327 478.646 570.301 478.329 570.221 478.037C570.116 477.613 569.956 477.189 569.718 476.845C568.765 477.428 567.917 478.196 567.228 479.096L564.632 482.514C565.161 482.805 565.744 482.938 566.354 482.938C566.645 482.938 566.963 482.885 567.254 482.805Z" fill="#E5320F"/>
<path d="M576.949 506.752C576.949 506.46 576.923 506.143 576.844 505.851C576.394 504.023 574.804 502.805 573.003 502.805C572.685 502.805 572.367 502.831 572.049 502.911C569.903 503.414 568.606 505.56 569.109 507.679C569.533 509.507 571.175 510.752 572.977 510.752C573.268 510.752 573.585 510.699 573.904 510.619C575.731 510.196 576.949 508.553 576.949 506.752Z" fill="#E5320F"/>
<path d="M533.216 40.3706L527.865 59.0456C527.441 60.5016 527.889 62.0656 529.003 63.0716C530.115 64.1046 531.732 64.3966 533.136 63.8396L542.197 60.2636L546.62 58.5156L551.203 56.7136L567.309 67.5746C567.971 68.0246 568.738 68.2626 569.533 68.2626C570.195 68.2626 570.885 68.0766 571.493 67.7326C572.818 66.9906 573.586 65.5606 573.48 64.0506L572.314 44.6596L587.626 32.7126C588.818 31.7856 589.375 30.2496 589.058 28.7656C588.767 27.2826 587.626 26.1166 586.169 25.7186L567.362 20.8446L560.739 2.61958C560.21 1.18858 558.937 0.181583 557.427 0.0225826C555.917 -0.136417 554.461 0.552585 553.64 1.82458L543.201 18.1956L523.784 18.8846C522.274 18.9376 520.923 19.8386 520.314 21.2156C519.678 22.5926 519.89 24.2086 520.871 25.3746L533.216 40.3706Z" fill="white"/>
<path d="M184.581 215.787L180.236 209.535L175.495 202.701L182.355 184.529C182.885 183.125 182.567 181.536 181.534 180.423C180.501 179.311 178.938 178.887 177.481 179.337L158.885 184.926L143.733 172.794C142.567 171.84 140.952 171.655 139.574 172.29C138.197 172.926 137.323 174.277 137.269 175.787L136.873 195.205L120.634 205.88C119.363 206.701 118.674 208.185 118.86 209.694C119.046 211.177 120.079 212.449 121.509 212.952L139.84 219.336L140.9 223.256L142.966 230.805L144.952 238.063C145.349 239.547 146.541 240.633 148.024 240.924C149.535 241.215 151.045 240.633 151.945 239.441L163.707 223.971L183.098 224.898C183.919 224.925 184.687 224.712 185.35 224.315C185.932 223.971 186.436 223.467 186.78 222.832C187.496 221.507 187.416 219.892 186.568 218.647L184.581 215.787Z" fill="white"/>
<path d="M586.353 469.454C587.148 469.48 587.942 469.269 588.604 468.871C589.188 468.526 589.665 468.023 590.008 467.387C590.75 466.089 590.67 464.447 589.796 463.202L578.724 447.255L585.584 429.083C586.114 427.679 585.823 426.089 584.79 424.977C583.757 423.864 582.167 423.44 580.736 423.891L562.14 429.48L546.988 417.348C546.802 417.189 546.617 417.083 546.432 416.977C545.319 416.368 543.968 416.314 542.802 416.845C542.485 417.004 542.166 417.189 541.902 417.428C541.054 418.143 540.551 419.203 540.525 420.368L540.101 439.759L524.154 450.249L523.863 450.435C522.618 451.256 521.929 452.74 522.114 454.249C522.14 454.382 522.14 454.488 522.194 454.62C522.459 455.945 523.412 457.057 524.736 457.507L543.068 463.891L548.207 482.646C548.604 484.103 549.797 485.189 551.28 485.481C552.763 485.773 554.3 485.189 555.2 483.998L566.962 468.528L586.353 469.454Z" fill="white"/>
<path d="M107.575 354.144L96.6872 355.468L93.9062 352.316L89.4282 347.204C89.1902 346.939 88.8722 346.727 88.5542 346.621C88.1042 346.435 87.6273 346.409 87.1513 346.541C86.3303 346.753 85.6944 347.415 85.5354 348.263L83.3894 359.044L73.3232 363.388C72.5282 363.733 71.9991 364.501 71.9721 365.348C71.9181 366.196 72.3693 367.017 73.1113 367.414L82.7011 372.765L83.7334 383.705C83.8134 384.553 84.3703 385.294 85.1643 385.586C85.9593 385.904 86.8863 385.718 87.4953 385.136L95.5483 377.666L106.277 380.077C106.728 380.183 107.178 380.13 107.576 379.971C107.946 379.838 108.264 379.6 108.503 379.282C109.06 378.62 109.165 377.719 108.794 376.951L104.186 366.964L109.775 357.534C110.225 356.792 110.199 355.865 109.722 355.15C109.27 354.435 108.423 354.038 107.575 354.144Z" fill="white"/>
<path d="M273.163 319.494L267.732 320.13L262.275 320.792L260.66 318.964L255.017 312.553C254.434 311.917 253.56 311.652 252.739 311.865C251.918 312.103 251.282 312.765 251.124 313.613L249.005 324.368L238.912 328.739C238.117 329.083 237.613 329.825 237.56 330.673C237.507 331.547 237.957 332.342 238.7 332.766L248.289 338.117L249.322 349.057C249.401 349.905 249.958 350.62 250.779 350.938C251.574 351.23 252.474 351.07 253.084 350.488L261.137 343.018L271.866 345.402C272.316 345.508 272.766 345.481 273.164 345.322C273.535 345.163 273.852 344.951 274.118 344.633C274.647 343.971 274.754 343.044 274.409 342.276L269.773 332.315L275.389 322.859C275.813 322.117 275.786 321.216 275.335 320.475C274.858 319.759 274.011 319.388 273.163 319.494Z" fill="white"/>
<path d="M598.486 248.21C598.009 247.495 597.188 247.124 596.34 247.204L585.426 248.528L583.519 246.356L579.44 241.747L578.169 240.29C577.613 239.654 576.738 239.39 575.918 239.601C575.07 239.813 574.46 240.501 574.274 241.323L572.156 252.104L562.09 256.475C561.295 256.793 560.766 257.561 560.738 258.409C560.685 259.257 561.135 260.078 561.878 260.502L562.328 260.767L569.03 264.502L571.467 265.853L572.5 276.767C572.58 277.642 573.135 278.357 573.93 278.674C574.725 278.966 575.626 278.807 576.262 278.224L584.315 270.754L595.017 273.138C595.467 273.244 595.945 273.218 596.341 273.058C596.686 272.899 597.03 272.687 597.269 272.369C597.798 271.707 597.931 270.78 597.56 270.012L592.951 260.052L598.541 250.595C598.964 249.853 598.964 248.926 598.486 248.21Z" fill="white"/>
<path d="M347.785 468.421L337.851 463.733L336.077 452.899C335.944 452.051 335.335 451.362 334.514 451.098C333.693 450.859 332.792 451.098 332.209 451.734L328.183 456.025L324.687 459.734L322.568 459.416L313.852 458.065C313.004 457.933 312.157 458.303 311.654 458.992C311.177 459.707 311.124 460.608 311.521 461.376L316.819 470.992L311.892 480.82C311.495 481.562 311.574 482.489 312.104 483.178C312.607 483.867 313.482 484.184 314.33 484.026L325.111 481.96L332.925 489.695C333.242 490.013 333.64 490.225 334.064 490.304C334.461 490.384 334.859 490.357 335.23 490.225C336.024 489.933 336.607 489.218 336.713 488.371L338.09 477.484L347.864 472.451C348.606 472.053 349.083 471.259 349.083 470.411C349.057 469.56 348.554 468.765 347.785 468.421Z" fill="white"/>
<path d="M29.9336 292.793L27.0195 290.171L28.0266 282.357C28.1066 281.748 27.8406 281.165 27.3386 280.82C26.8096 280.475 26.1726 280.449 25.6436 280.767L18.8096 284.687L11.7095 281.323C11.1525 281.058 10.4907 281.137 10.0147 281.508C9.53767 281.879 9.32554 282.515 9.45754 283.098L11.0735 290.806L5.66945 296.528C5.24545 296.978 5.11348 297.614 5.32448 298.197C5.53748 298.753 6.06653 299.177 6.67653 299.23L14.5176 300.051L18.2796 306.965C18.4116 307.257 18.6504 307.468 18.9414 307.627C19.1794 307.733 19.4716 307.812 19.7366 307.786C20.3726 307.786 20.9017 307.415 21.1397 306.832L24.3455 299.653L32.0806 298.196C32.2656 298.17 32.4505 298.09 32.5835 298.01C32.9535 297.798 33.2196 297.454 33.3526 297.056C33.5106 296.474 33.3255 295.838 32.8745 295.413L29.9336 292.793Z" fill="white"/>
<path d="M579.811 149.509C579.519 148.979 578.937 148.661 578.328 148.714C577.719 148.741 577.188 149.138 576.95 149.694L573.93 156.953L569.003 158.013L566.221 158.595C565.613 158.727 565.161 159.178 565.003 159.761C564.844 160.37 565.056 160.98 565.506 161.377L568.526 163.973L571.493 166.516L570.672 174.331C570.593 174.94 570.885 175.549 571.414 175.867C571.918 176.185 572.58 176.185 573.109 175.867L579.811 171.761L587.016 174.966C587.307 175.098 587.625 175.151 587.943 175.098C588.209 175.045 588.473 174.939 588.685 174.754C589.162 174.356 589.373 173.721 589.215 173.138L587.387 165.483L592.658 159.628C593.082 159.178 593.188 158.515 592.975 157.959C592.737 157.377 592.207 157.005 591.598 156.953L583.757 156.317L579.811 149.509Z" fill="white"/>
<path d="M493.586 289.667C493.877 289.799 494.195 289.826 494.513 289.773C494.619 289.747 494.699 289.72 494.805 289.667C494.964 289.641 495.122 289.535 495.282 289.428C495.732 289.031 495.944 288.422 495.812 287.812L493.984 280.157L496.13 277.773L499.256 274.303C499.653 273.853 499.785 273.217 499.547 272.634C499.309 272.078 498.779 271.68 498.17 271.628L497.084 271.549L490.328 271.019L486.408 264.184C486.09 263.654 485.508 263.336 484.898 263.39C484.289 263.416 483.758 263.814 483.52 264.37L480.5 271.655L475.122 272.794L472.791 273.27C472.208 273.402 471.731 273.853 471.572 274.462C471.414 275.044 471.626 275.68 472.102 276.078L475.44 278.939L478.062 281.19L477.241 289.005C477.188 289.614 477.453 290.223 477.983 290.541C478.512 290.885 479.148 290.885 479.678 290.568L486.407 286.462L488.102 287.231L493.586 289.667Z" fill="white"/>
<path d="M80.2106 295.732L83.3368 298.408L82.5157 306.249C82.4617 306.858 82.7537 307.441 83.2567 307.759C83.7867 308.103 84.4488 308.103 84.9518 307.785L87.3368 306.328L90.9396 304.129L91.6808 303.679L98.8597 306.884C99.1517 307.017 99.4957 307.043 99.7877 306.99C100.079 306.937 100.317 306.831 100.556 306.646C101.034 306.249 101.218 305.639 101.086 305.03L99.2577 297.375L104.529 291.547C104.926 291.07 105.059 290.434 104.82 289.852C104.609 289.295 104.079 288.898 103.469 288.845L95.6017 288.236L91.6808 281.402C91.3638 280.873 90.8068 280.581 90.1708 280.608C89.5618 280.661 89.0316 281.032 88.7936 281.588L85.7726 288.873L78.0907 290.489C78.0647 290.489 78.0366 290.489 78.0106 290.515C77.4286 290.674 77.0036 291.098 76.8456 291.68C76.7126 292.263 76.8986 292.898 77.3746 293.296L80.2106 295.732Z" fill="white"/>
<path d="M332.633 251.522L334.328 258.674L333.72 259.336L329.216 264.343C328.819 264.793 328.713 265.429 328.925 265.985C329.137 266.515 329.666 266.912 330.249 266.965L331.044 267.018L337.878 267.574L338.514 268.687L340.104 271.416L341.693 274.197C341.852 274.462 342.09 274.674 342.355 274.806C342.593 274.938 342.885 274.992 343.15 274.965C343.733 274.938 344.263 274.568 344.502 274.011L344.581 273.799L346.409 269.428L346.938 268.13L347.442 266.938L354.912 265.349C355.442 265.243 355.865 264.872 356.051 264.343C356.078 264.316 356.105 264.263 356.105 264.211C356.264 263.654 356.051 263.019 355.601 262.647L354.012 261.269L349.8 257.667L350.594 250.064C350.674 249.481 350.383 248.898 349.879 248.581C349.376 248.263 348.74 248.263 348.236 248.555L341.693 252.555L334.726 249.429C334.17 249.191 333.535 249.27 333.083 249.668C332.633 250.039 332.421 250.648 332.554 251.231L332.633 251.522Z" fill="white"/>
<path d="M473.321 143.549L480.95 144.158L484.764 150.781C484.923 151.046 485.161 151.258 485.452 151.39C485.69 151.522 485.955 151.576 486.221 151.549C486.83 151.523 487.333 151.152 487.572 150.595L490.512 143.522L496.207 142.33L497.982 141.959C498.564 141.827 499.042 141.377 499.173 140.794C499.332 140.238 499.12 139.628 498.67 139.231L495.995 136.926L492.868 134.25L493.557 127.945L493.689 126.647C493.743 126.064 493.451 125.481 492.948 125.164C492.444 124.846 491.809 124.846 491.305 125.138L490.245 125.774L484.788 129.138L477.795 126.012C477.238 125.774 476.629 125.88 476.152 126.25C475.702 126.621 475.49 127.23 475.649 127.813L477.423 135.257L472.284 140.926C471.887 141.376 471.78 142.012 471.993 142.568C472.235 143.125 472.738 143.496 473.321 143.549Z" fill="white"/>
<path d="M401.48 455.043L398.646 449.082L398.195 448.128L402.036 441.532C402.354 441.002 402.328 440.367 401.983 439.863C401.666 439.386 401.083 439.121 400.5 439.201L392.897 440.155L389.003 435.81L388.765 435.519L387.811 434.459C387.414 434.009 386.804 433.85 386.221 434.009C385.983 434.089 385.744 434.194 385.586 434.38C385.348 434.565 385.162 434.883 385.108 435.228L383.863 441.692L383.677 442.725L376.684 445.825C376.155 446.063 375.784 446.593 375.757 447.176C375.731 447.785 376.048 448.341 376.578 448.632L383.28 452.288L384.048 459.89C384.101 460.499 384.498 461.003 385.055 461.215C385.612 461.427 386.247 461.294 386.671 460.871L392.26 455.652L399.731 457.241C400.022 457.321 400.339 457.294 400.631 457.161C400.896 457.081 401.108 456.923 401.267 456.684C401.638 456.234 401.717 455.625 401.479 455.068L401.48 455.043Z" fill="white"/>
<path d="M586.884 537.639L587.678 530.036C587.758 529.427 587.466 528.844 586.963 528.526C586.459 528.208 585.824 528.208 585.32 528.526L581.241 531.016L578.777 532.499L576.923 531.678L571.811 529.4C571.254 529.161 570.619 529.241 570.168 529.612C569.718 530.009 569.506 530.618 569.639 531.201L571.413 538.618L566.301 544.313C565.904 544.737 565.798 545.373 566.01 545.929C566.221 546.486 566.751 546.856 567.334 546.909L574.963 547.518L578.777 554.14C578.936 554.432 579.174 554.643 579.439 554.776C579.677 554.882 579.969 554.935 580.234 554.935C580.817 554.882 581.346 554.511 581.585 553.954L584.525 546.908L591.996 545.319C592.579 545.187 593.029 544.762 593.188 544.18C593.346 543.597 593.134 542.988 592.684 542.591L586.884 537.639Z" fill="white"/>
<path d="M14.509 103.979C18.239 103.979 21.3181 102.95 23.7461 100.89C26.1761 98.8314 27.3892 96.1504 27.3892 92.8474C27.3892 90.3614 26.6621 88.2824 25.2031 86.6114C23.7461 84.9414 21.4051 83.3674 18.1821 81.8904L13.8679 79.9094C13.7539 79.8324 13.5779 79.7344 13.3459 79.6184C12.0629 78.9584 11.307 78.5694 11.075 78.4534C10.84 78.3374 10.4331 78.0364 9.84814 77.5504C9.26614 77.0644 8.90697 76.5984 8.77197 76.1514C8.63197 75.7054 8.54706 75.1324 8.50806 74.4324C8.50806 72.9564 9.05111 71.8104 10.1411 70.9944C11.2271 70.1784 12.6259 69.7714 14.3359 69.7714C17.6369 69.7714 20.34 71.3244 22.436 74.4324L26.751 71.1114C25.545 69.0134 23.8429 67.3434 21.6489 66.0994C19.4549 64.8564 17.0159 64.2344 14.3359 64.2344C10.9159 64.2344 8.04194 65.2074 5.71094 67.1484C3.38094 69.0924 2.21411 71.5984 2.21411 74.6664C2.21411 77.1154 2.96103 79.1654 4.45703 80.8154C5.95203 82.4674 8.19701 83.9734 11.187 85.3324L15.4431 87.3134C17.5771 88.3234 19.0571 89.2074 19.8721 89.9654C20.6871 90.7214 21.0959 91.7614 21.0959 93.0824C21.0959 94.7144 20.486 96.0164 19.259 96.9874C18.038 97.9584 16.4341 98.4444 14.4531 98.4444C10.5281 98.4444 7.16814 96.4044 4.36914 92.3244L0 95.6474C1.513 98.2494 3.53604 100.29 6.06104 101.765C8.58504 103.241 11.401 103.979 14.509 103.979Z" fill="white"/>
<path d="M57.5188 64.2334H55.4229L38.4629 103.338H45.0498L47.7859 96.9284H65.0957L67.8347 103.338H74.4788L57.5188 64.2334ZM50.0007 91.6244L56.4707 75.7134L62.8809 91.6244H50.0007Z" fill="white"/>
<path d="M104.605 103.98C108.454 103.98 111.967 103.067 115.154 101.241C118.342 99.4136 120.807 96.9476 122.555 93.8396V82.9996H104.547V88.4786H116.377V92.6166C113.85 96.5026 110.026 98.4436 104.897 98.4436C100.779 98.4436 97.3872 97.0736 94.7282 94.3356C92.0662 91.5966 90.7372 88.1686 90.7372 84.0486C90.7372 79.9706 92.0272 76.5886 94.6122 73.9096C97.1962 71.2276 100.508 69.8886 104.548 69.8886C109.326 69.8886 113.152 71.9096 116.029 75.9496L120.514 72.2776C116.67 66.9166 111.367 64.2356 104.605 64.2356C99.0121 64.1596 94.2033 66.0816 90.1833 70.0056C86.1613 73.9306 84.2091 78.6306 84.3241 84.1096C84.2461 89.6266 86.1993 94.3366 90.1833 98.2416C94.1653 102.143 98.9711 104.056 104.605 103.98Z" fill="white"/>
<path d="M143.303 64.875H137.125V103.338H143.303V64.875Z" fill="white"/>
<path d="M156.063 70.411H169.004V103.339H175.181V70.411H188.177V64.875H156.063V70.411Z" fill="white"/>
<path d="M197.035 70.411H209.97V103.339H216.147V70.411H229.144V64.875H197.035V70.411Z" fill="white"/>
<path d="M243.304 96.9274H260.616L263.354 103.337H269.997L253.04 64.2324H250.942L233.981 103.337H240.568L243.304 96.9274ZM251.99 75.7144L258.401 91.6254H245.519L251.99 75.7144Z" fill="white"/>
<path d="M307.295 103.339H314.347L302.809 87.487C305.137 86.594 306.954 85.195 308.257 83.292C309.556 81.388 310.207 79.173 310.207 76.647C310.207 73.19 309.002 70.363 306.596 68.168C304.185 65.973 301.039 64.875 297.154 64.875H283.11V103.338H289.288V88.478H296.337L307.295 103.339ZM289.287 70.353H297.037C299.136 70.353 300.796 70.936 302.019 72.102C303.243 73.267 303.856 74.803 303.856 76.706C303.856 78.61 303.243 80.136 302.019 81.281C300.795 82.428 299.135 83 297.037 83H289.287V70.353Z" fill="white"/>
<path d="M333.055 64.875H326.877V103.338H333.055V64.875Z" fill="white"/>
<path d="M365.164 103.98C369.787 103.98 373.566 102.522 376.5 99.608C379.432 96.695 380.897 92.752 380.897 87.778V64.875H374.719V88.186C374.719 91.373 373.844 93.859 372.096 95.646C370.347 97.434 368.038 98.326 365.163 98.326C362.251 98.326 359.907 97.433 358.14 95.646C356.373 93.859 355.489 91.373 355.489 88.186V64.875H349.312V87.778C349.312 92.751 350.778 96.695 353.71 99.608C356.644 102.522 360.461 103.98 365.164 103.98Z" fill="white"/>
<path d="M413.389 96.9863C412.162 97.9573 410.562 98.4433 408.579 98.4433C404.655 98.4433 401.295 96.4034 398.498 92.3233L394.126 95.6463C395.643 98.2483 397.66 100.289 400.188 101.764C402.713 103.242 405.53 103.98 408.639 103.98C412.369 103.98 415.449 102.951 417.874 100.891C420.301 98.8324 421.517 96.1513 421.517 92.8483C421.517 90.3623 420.788 88.2833 419.333 86.6124C417.874 84.9424 415.533 83.3684 412.308 81.8914L407.997 79.9104C407.879 79.8334 407.705 79.7354 407.473 79.6194C406.193 78.9594 405.432 78.5703 405.199 78.4543C404.967 78.3383 404.557 78.0373 403.975 77.5513C403.393 77.0653 403.034 76.5993 402.897 76.1523C402.762 75.7063 402.674 75.1333 402.635 74.4333C402.635 72.9573 403.178 71.8113 404.268 70.9953C405.354 70.1793 406.753 69.7724 408.463 69.7724C411.764 69.7724 414.465 71.3253 416.566 74.4333L420.876 71.1124C419.671 69.0144 417.974 67.3444 415.777 66.1004C413.581 64.8574 411.144 64.2354 408.464 64.2354C405.044 64.2354 402.17 65.2084 399.84 67.1494C397.506 69.0934 396.342 71.5993 396.342 74.6673C396.342 77.1163 397.09 79.1663 398.588 80.8163C400.082 82.4683 402.323 83.9743 405.318 85.3333L409.571 87.3143C411.708 88.3243 413.182 89.2084 414 89.9664C414.817 90.7224 415.224 91.7623 415.224 93.0833C415.223 94.7133 414.609 96.0143 413.389 96.9863Z" fill="white"/>
</svg>
