<svg width="678" height="545" viewBox="0 0 678 545" fill="none" xmlns="http://www.w3.org/2000/svg">
<path d="M86.599 319.892C85.99 319.548 85.3279 319.388 84.6919 319.388C83.2879 319.388 81.91 320.156 81.195 321.481C80.162 323.415 80.877 325.825 82.784 326.859C83.393 327.203 84.056 327.362 84.691 327.362C86.095 327.362 87.472 326.593 88.188 325.269C88.532 324.66 88.691 324.024 88.691 323.388C88.692 321.985 87.924 320.607 86.599 319.892Z" fill="#E5320F"/>
<path d="M67.1027 355.653C66.4937 355.309 65.8307 355.15 65.1957 355.15C63.7917 355.15 62.4147 355.919 61.6987 357.243C60.6387 359.177 61.3537 361.587 63.2877 362.62C63.8967 362.965 64.5328 363.123 65.1948 363.123C66.5988 363.123 67.9497 362.355 68.6917 361.03C69.0097 360.448 69.1688 359.785 69.1688 359.149C69.1688 357.745 68.4267 356.394 67.1027 355.653Z" fill="#E5320F"/>
<path d="M75.1821 349.11C75.5261 348.501 75.6861 347.865 75.6861 347.229C75.6861 345.825 74.9171 344.448 73.5931 343.732C72.9841 343.388 72.3221 343.229 71.6861 343.229C70.2821 343.229 68.9311 343.997 68.2161 345.322C67.1561 347.256 67.8711 349.667 69.7791 350.701C70.3881 351.045 71.0511 351.203 71.6871 351.203C73.0891 351.202 74.4671 350.434 75.1821 349.11Z" fill="#E5320F"/>
<path d="M81.6714 337.217C82.0154 336.608 82.1744 335.945 82.1744 335.31C82.1744 333.906 81.4064 332.528 80.1084 331.813C79.4994 331.469 78.8374 331.31 78.2014 331.31C76.7974 331.31 75.4204 332.078 74.7044 333.403C73.6444 335.31 74.3604 337.747 76.2934 338.781C76.9024 339.125 77.5384 339.284 78.2004 339.284C79.6054 339.283 80.9564 338.514 81.6714 337.217Z" fill="#E5320F"/>
<path d="M30.7845 422.223C31.3935 422.567 32.0294 422.726 32.6914 422.726C34.0954 422.726 35.4465 421.958 36.1615 420.634C36.5065 420.025 36.6645 419.389 36.6645 418.753C36.6645 417.349 35.8964 415.971 34.5714 415.256C33.9624 414.912 33.3265 414.753 32.6905 414.753C31.2865 414.753 29.9095 415.521 29.1935 416.846C28.1355 418.779 28.8505 421.19 30.7845 422.223Z" fill="#E5320F"/>
<path d="M62.1752 372.977C62.5202 372.368 62.6781 371.706 62.6781 371.07C62.6781 369.666 61.9101 368.288 60.5851 367.573C59.9761 367.229 59.3401 367.07 58.7041 367.07C57.2741 367.07 55.9231 367.838 55.2071 369.162C54.1471 371.07 54.8631 373.506 56.7701 374.539C57.3791 374.884 58.0412 375.042 58.6772 375.042C60.0832 375.043 61.4612 374.275 62.1752 372.977Z" fill="#E5320F"/>
<path d="M37.2749 410.302C37.8839 410.646 38.5459 410.805 39.1819 410.805C40.5859 410.805 41.9628 410.037 42.6788 408.739C42.9968 408.13 43.1559 407.468 43.1559 406.832C43.1559 405.428 42.4139 404.05 41.0899 403.335C40.4809 402.99 39.8189 402.832 39.1829 402.832C37.7789 402.832 36.4019 403.6 35.6869 404.924C34.6519 406.832 35.3409 409.269 37.2749 410.302Z" fill="#E5320F"/>
<path d="M49.1685 396.792C49.5125 396.183 49.6715 395.547 49.6715 394.912C49.6715 393.508 48.9025 392.13 47.5785 391.415C46.9695 391.071 46.3075 390.912 45.6715 390.912C44.2675 390.912 42.9164 391.68 42.2014 393.004C41.1414 394.912 41.8574 397.349 43.7904 398.382C44.3734 398.726 45.0355 398.885 45.6715 398.885C47.0755 398.885 48.4535 398.117 49.1685 396.792Z" fill="#E5320F"/>
<path d="M54.0955 379.494C53.4865 379.15 52.8244 378.991 52.1884 378.991C50.7844 378.991 49.4064 379.76 48.6914 381.084C47.6584 383.018 48.3475 385.429 50.2805 386.461C50.8895 386.806 51.5514 386.964 52.1884 386.964C53.5924 386.964 54.9434 386.196 55.6854 384.871C56.0034 384.262 56.1624 383.626 56.1624 382.99C56.1614 381.587 55.4195 380.21 54.0955 379.494Z" fill="#E5320F"/>
<path d="M119.632 514.195C118.917 513.639 118.069 513.374 117.222 513.374C116.003 513.374 114.838 513.903 114.043 514.937C112.719 516.686 113.063 519.175 114.785 520.5C115.527 521.057 116.375 521.321 117.196 521.321C118.388 521.321 119.58 520.791 120.375 519.784C120.931 519.069 121.196 518.221 121.196 517.374C121.195 516.156 120.665 514.99 119.632 514.195Z" fill="#E5320F"/>
<path d="M108.797 505.904C108.082 505.348 107.234 505.083 106.386 505.083C105.194 505.083 104.003 505.613 103.208 506.646C101.883 508.368 102.2 510.858 103.949 512.209C104.664 512.766 105.538 513.03 106.359 513.03C107.551 513.03 108.743 512.474 109.511 511.467C110.068 510.752 110.333 509.877 110.333 509.056C110.334 507.864 109.803 506.673 108.797 505.904Z" fill="#E5320F"/>
<path d="M128.718 528.817C129.486 527.969 129.778 526.83 129.512 525.718L128.558 521.744C128.399 521.691 128.214 521.691 128.055 521.691C126.863 521.691 125.671 522.221 124.903 523.254C123.552 524.976 123.897 527.493 125.618 528.817C126.333 529.347 127.155 529.612 127.976 529.638L128.718 528.817Z" fill="#E5320F"/>
<path d="M54.5989 464.341C53.8839 463.785 53.0359 463.521 52.1889 463.521C50.9969 463.521 49.8049 464.051 49.0369 465.085C47.6859 466.833 48.0299 469.323 49.7789 470.648C50.4939 471.204 51.3419 471.469 52.1899 471.469C53.3819 471.469 54.5469 470.939 55.3419 469.932C55.8989 469.217 56.1629 468.369 56.1629 467.521C56.1619 466.302 55.6319 465.135 54.5989 464.341Z" fill="#E5320F"/>
<path d="M65.4338 472.659C64.7188 472.103 63.8709 471.838 63.0229 471.838C61.8309 471.838 60.6388 472.368 59.8708 473.401C58.5468 475.149 58.8648 477.639 60.6128 478.964C61.3278 479.52 62.1759 479.785 63.0229 479.785C64.2149 479.785 65.4068 479.255 66.1748 478.222C66.7318 477.507 66.9958 476.659 66.9958 475.811C66.9968 474.62 66.4668 473.427 65.4338 472.659Z" fill="#E5320F"/>
<path d="M43.7646 456.051C43.0756 455.521 42.2816 455.255 41.4606 455.229H41.3546C40.6396 455.229 39.9236 455.414 39.3146 455.812C38.8906 456.051 38.5196 456.369 38.2026 456.793C36.8776 458.515 37.1956 461.004 38.9446 462.356C39.6596 462.913 40.5076 463.177 41.3556 463.177C42.5476 463.177 43.7126 462.647 44.5076 461.614C45.0636 460.899 45.3286 460.051 45.3286 459.203C45.3276 458.01 44.7976 456.819 43.7646 456.051Z" fill="#E5320F"/>
<path d="M97.9626 497.587C97.2476 497.03 96.3996 496.766 95.5516 496.766C94.3596 496.766 93.1675 497.296 92.3725 498.329C91.0475 500.051 91.3656 502.567 93.1146 503.892C93.8296 504.449 94.6776 504.713 95.5256 504.713C96.7176 504.713 97.9096 504.183 98.6776 503.15C99.2336 502.435 99.4986 501.561 99.4986 500.74C99.4996 499.547 98.9696 498.355 97.9626 497.587Z" fill="#E5320F"/>
<path d="M76.2679 480.976C75.5529 480.42 74.7048 480.155 73.8568 480.155C72.6648 480.155 71.4998 480.685 70.7048 481.692C69.3808 483.44 69.6988 485.93 71.4468 487.281C72.1618 487.837 73.0098 488.102 73.8578 488.102C75.0498 488.102 76.2419 487.572 77.0099 486.539C77.5659 485.824 77.8308 484.976 77.8308 484.128C77.8308 482.937 77.3009 481.745 76.2679 480.976Z" fill="#E5320F"/>
<path d="M87.1285 489.269C86.4135 488.713 85.5655 488.448 84.7175 488.448C83.4995 488.448 82.3335 488.978 81.5385 490.011C80.2135 491.759 80.5315 494.249 82.2805 495.574C82.9955 496.13 83.8435 496.395 84.6915 496.395C85.8835 496.395 87.0755 495.865 87.8435 494.858C88.3995 494.143 88.6645 493.269 88.6645 492.447C88.6645 491.229 88.1345 490.063 87.1285 489.269Z" fill="#E5320F"/>
<path d="M204.426 486.302C203.658 486.302 202.916 486.513 202.227 486.964C200.399 488.182 199.922 490.646 201.141 492.474C201.909 493.613 203.154 494.249 204.452 494.249C205.194 494.249 205.962 494.011 206.651 493.561C207.79 492.793 208.426 491.521 208.426 490.249C208.426 489.481 208.214 488.739 207.764 488.05C206.969 486.911 205.724 486.302 204.426 486.302Z" fill="#E5320F"/>
<path d="M237.221 464.446C236.453 464.446 235.711 464.658 235.022 465.109C233.194 466.327 232.691 468.791 233.91 470.619C234.678 471.758 235.95 472.394 237.221 472.394C237.989 472.394 238.758 472.155 239.42 471.705C240.559 470.937 241.195 469.665 241.195 468.394C241.195 467.626 240.983 466.884 240.533 466.195C239.764 465.056 238.519 464.446 237.221 464.446Z" fill="#E5320F"/>
<path d="M193.513 493.587C192.744 493.587 192.003 493.799 191.314 494.249C189.486 495.468 188.983 497.931 190.202 499.759C190.97 500.898 192.242 501.534 193.514 501.534C194.282 501.534 195.05 501.296 195.713 500.845C196.852 500.076 197.487 498.805 197.487 497.534C197.487 496.766 197.275 496.024 196.825 495.335C196.056 494.196 194.811 493.587 193.513 493.587Z" fill="#E5320F"/>
<path d="M226.306 471.731C225.537 471.731 224.769 471.943 224.08 472.394C222.252 473.612 221.775 476.076 222.994 477.904C223.762 479.043 225.007 479.679 226.306 479.679C227.048 479.679 227.816 479.44 228.505 478.99C229.644 478.248 230.279 476.977 230.279 475.679C230.279 474.937 230.067 474.169 229.617 473.48C228.849 472.341 227.604 471.731 226.306 471.731Z" fill="#E5320F"/>
<path d="M215.393 479.017C214.625 479.017 213.856 479.229 213.168 479.679C211.34 480.897 210.837 483.361 212.055 485.189C212.823 486.328 214.095 486.964 215.367 486.964C216.135 486.964 216.904 486.726 217.566 486.302C218.705 485.507 219.34 484.236 219.34 482.964C219.34 482.196 219.129 481.454 218.678 480.765C217.91 479.626 216.665 479.017 215.393 479.017Z" fill="#E5320F"/>
<path d="M160.744 515.44C159.976 515.44 159.208 515.652 158.519 516.103C156.718 517.321 156.214 519.785 157.433 521.613C158.201 522.752 159.446 523.388 160.744 523.388C161.486 523.388 162.254 523.149 162.943 522.699C164.082 521.931 164.718 520.659 164.718 519.388C164.718 518.619 164.506 517.878 164.056 517.189C163.288 516.049 162.016 515.44 160.744 515.44Z" fill="#E5320F"/>
<path d="M171.658 508.155C170.89 508.155 170.148 508.367 169.459 508.817C167.631 510.036 167.128 512.499 168.347 514.327C169.115 515.466 170.387 516.102 171.658 516.102C172.426 516.102 173.195 515.863 173.857 515.413C174.996 514.645 175.632 513.373 175.632 512.102C175.632 511.333 175.42 510.592 174.97 509.903C174.201 508.764 172.956 508.155 171.658 508.155Z" fill="#E5320F"/>
<path d="M153.459 528.235C153.671 527.732 153.777 527.202 153.777 526.673C153.777 525.904 153.565 525.163 153.115 524.474C152.665 523.785 152.029 523.309 151.314 523.017L151.182 524.342C151.049 525.454 151.5 526.567 152.348 527.309L153.459 528.235Z" fill="#E5320F"/>
<path d="M182.598 500.871C181.829 500.871 181.061 501.083 180.373 501.533C178.545 502.752 178.068 505.215 179.287 507.043C180.055 508.182 181.3 508.818 182.598 508.818C183.34 508.818 184.108 508.606 184.797 508.156C185.936 507.388 186.545 506.143 186.545 504.845C186.545 504.076 186.333 503.308 185.883 502.619C185.114 501.481 183.869 500.871 182.598 500.871Z" fill="#E5320F"/>
<path d="M234.254 390.911C234.254 390.116 234.015 389.322 233.511 388.607C232.743 387.521 231.499 386.938 230.254 386.938C229.46 386.938 228.664 387.176 227.948 387.68C226.174 388.978 225.749 391.441 227.048 393.242C227.816 394.328 229.035 394.911 230.28 394.911C231.075 394.911 231.868 394.646 232.584 394.169C233.67 393.374 234.254 392.155 234.254 390.911Z" fill="#E5320F"/>
<path d="M209.671 355.23C208.876 354.144 207.658 353.561 206.439 353.561C205.618 353.561 204.823 353.826 204.108 354.329C202.333 355.601 201.936 358.064 203.207 359.866C203.976 360.952 205.194 361.535 206.439 361.535C207.234 361.535 208.028 361.27 208.744 360.793C209.83 360.024 210.413 358.78 210.413 357.535C210.413 356.739 210.175 355.945 209.671 355.23Z" fill="#E5320F"/>
<path d="M224.638 383.044C225.724 382.249 226.307 381.031 226.307 379.786C226.307 378.991 226.068 378.197 225.565 377.481C224.796 376.395 223.551 375.812 222.307 375.812C221.512 375.812 220.718 376.051 220.002 376.554C218.227 377.852 217.803 380.316 219.101 382.117C219.87 383.203 221.088 383.786 222.333 383.786C223.128 383.786 223.923 383.521 224.638 383.044Z" fill="#E5320F"/>
<path d="M242.941 415.494C243.312 416.024 243.816 416.448 244.372 416.739L244.452 413.004C244.478 411.653 244.796 410.408 245.3 409.296C244.797 409.402 244.32 409.614 243.869 409.932C242.067 411.229 241.644 413.693 242.941 415.494Z" fill="#E5320F"/>
<path d="M214.387 372.66C215.181 372.66 215.976 372.395 216.691 371.918C217.777 371.15 218.36 369.905 218.36 368.66C218.36 367.866 218.122 367.07 217.618 366.354C216.823 365.268 215.605 364.686 214.387 364.686C213.566 364.686 212.771 364.95 212.055 365.453C210.281 366.724 209.856 369.189 211.155 370.99C211.923 372.077 213.142 372.66 214.387 372.66Z" fill="#E5320F"/>
<path d="M235.923 398.831C234.122 400.102 233.698 402.566 234.996 404.367C235.764 405.453 236.983 406.036 238.228 406.036C239.022 406.036 239.817 405.798 240.533 405.294C241.619 404.499 242.201 403.281 242.201 402.036C242.201 401.242 241.963 400.447 241.459 399.731C240.691 398.645 239.472 398.063 238.228 398.063C237.433 398.063 236.612 398.328 235.923 398.831Z" fill="#E5320F"/>
<path d="M471.153 161.535C471.339 161.085 471.418 160.635 471.418 160.184C471.418 158.621 470.491 157.164 468.955 156.529C468.452 156.317 467.948 156.211 467.418 156.211C466.57 156.211 465.75 156.476 465.087 156.979L467.63 159.866C468.531 160.9 469.802 161.509 471.153 161.535Z" fill="#E5320F"/>
<path d="M496.345 90.489C496.848 90.701 497.351 90.807 497.855 90.807C499.418 90.807 500.901 89.88 501.537 88.343C501.749 87.84 501.855 87.337 501.855 86.833C501.855 85.27 500.901 83.787 499.392 83.151C498.889 82.939 498.385 82.833 497.855 82.833C496.292 82.833 494.809 83.787 494.2 85.297C493.352 87.337 494.305 89.642 496.345 90.489Z" fill="#E5320F"/>
<path d="M491.259 102.728C491.762 102.914 492.292 103.02 492.795 103.02C494.358 103.02 495.815 102.093 496.451 100.582C496.663 100.079 496.769 99.5492 496.769 99.0462C496.769 97.4832 495.842 96.0002 494.305 95.3912C493.802 95.1792 493.299 95.0732 492.769 95.0732C491.232 95.0732 489.749 96.0002 489.113 97.5362C488.292 99.5492 489.246 101.88 491.259 102.728Z" fill="#E5320F"/>
<path d="M481.113 127.177C481.616 127.389 482.146 127.495 482.65 127.495C484.213 127.495 485.67 126.568 486.305 125.032C486.517 124.529 486.623 123.999 486.623 123.495C486.623 121.932 485.696 120.475 484.159 119.84C483.656 119.628 483.153 119.522 482.649 119.522C481.086 119.522 479.603 120.476 478.967 121.986C478.147 124.025 479.1 126.329 481.113 127.177Z" fill="#E5320F"/>
<path d="M486.2 114.94C486.703 115.152 487.206 115.258 487.71 115.258C489.273 115.258 490.756 114.331 491.392 112.795C491.604 112.292 491.71 111.788 491.71 111.285C491.71 109.722 490.756 108.239 489.247 107.603C488.744 107.391 488.24 107.312 487.737 107.312C486.174 107.312 484.664 108.212 484.055 109.749C483.206 111.787 484.16 114.119 486.2 114.94Z" fill="#E5320F"/>
<path d="M470.994 151.628C471.471 151.84 472.001 151.946 472.504 151.946C474.067 151.946 475.55 151.019 476.186 149.483C476.397 149.006 476.477 148.476 476.477 147.973C476.477 146.41 475.577 144.927 474.04 144.291C473.537 144.08 473.034 143.999 472.53 143.999C470.967 143.999 469.457 144.9 468.848 146.437C468.001 148.476 468.955 150.807 470.994 151.628Z" fill="#E5320F"/>
<path d="M476.054 139.416C476.557 139.628 477.061 139.708 477.564 139.708C479.127 139.708 480.61 138.781 481.246 137.271C481.458 136.768 481.564 136.264 481.564 135.734C481.564 134.171 480.61 132.688 479.1 132.079C478.597 131.867 478.067 131.761 477.564 131.761C476.001 131.761 474.544 132.688 473.908 134.224C473.061 136.238 474.041 138.569 476.054 139.416Z" fill="#E5320F"/>
<path d="M525.987 28.5027C525.961 28.5027 525.961 28.4767 525.961 28.4767L522.967 23.2847C522.649 22.7287 522.199 22.2787 521.643 22.0137C520.716 22.4107 519.948 23.1527 519.55 24.1597C518.702 26.1727 519.656 28.5037 521.696 29.3517C522.199 29.5637 522.703 29.6427 523.206 29.6427C524.239 29.6417 525.272 29.2177 525.987 28.5027Z" fill="#E5320F"/>
<path d="M516.61 41.5626C517.113 41.7746 517.643 41.8806 518.147 41.8806C519.683 41.8806 521.167 40.9536 521.802 39.4166C522.014 38.9136 522.12 38.4106 522.12 37.8806C522.12 36.3436 521.193 34.8606 519.657 34.2246C519.18 34.0126 518.65 33.9326 518.147 33.9326C516.584 33.9326 515.101 34.8336 514.465 36.3706C513.617 38.4096 514.597 40.7406 516.61 41.5626Z" fill="#E5320F"/>
<path d="M441.591 191.6C442.279 191.6 442.968 191.415 443.604 191.044C444.849 190.302 445.564 188.978 445.564 187.627C445.564 186.938 445.378 186.25 445.008 185.614C444.266 184.342 442.942 183.654 441.591 183.654C440.902 183.654 440.213 183.839 439.577 184.21C437.67 185.323 437.034 187.76 438.146 189.641C438.889 190.885 440.213 191.6 441.591 191.6Z" fill="#E5320F"/>
<path d="M501.404 78.2507C501.907 78.4627 502.41 78.5687 502.94 78.5687C504.477 78.5687 505.96 77.6417 506.596 76.1047C506.808 75.6017 506.914 75.0987 506.914 74.5687C506.914 73.0327 505.987 71.5497 504.451 70.9137C503.948 70.7017 503.444 70.5957 502.941 70.5957C501.378 70.5957 499.895 71.5497 499.259 73.0597C498.41 75.0987 499.391 77.4297 501.404 78.2507Z" fill="#E5320F"/>
<path d="M511.55 53.8005C512.053 54.0125 512.557 54.1185 513.06 54.1185C514.623 54.1185 516.106 53.1915 516.742 51.6545C516.954 51.1515 517.06 50.6485 517.06 50.1445C517.06 48.5815 516.106 47.0985 514.597 46.4625C514.094 46.2505 513.564 46.1445 513.06 46.1445C511.497 46.1445 510.04 47.0715 509.405 48.6085C508.557 50.6485 509.511 52.9525 511.55 53.8005Z" fill="#E5320F"/>
<path d="M506.491 66.0388C506.968 66.2248 507.497 66.3308 508.001 66.3308C509.564 66.3308 511.047 65.4038 511.683 63.8938C511.895 63.3908 511.975 62.8868 511.975 62.3838C511.975 60.8208 511.048 59.3118 509.512 58.7018C509.009 58.4908 508.505 58.3838 507.975 58.3838C506.439 58.3838 504.955 59.3118 504.32 60.8478C503.498 62.8598 504.451 65.1918 506.491 66.0388Z" fill="#E5320F"/>
<path d="M327.471 258.727C328.159 258.727 328.849 258.542 329.485 258.171C330.73 257.429 331.445 256.105 331.445 254.754C331.445 254.065 331.259 253.376 330.889 252.74C330.147 251.469 328.823 250.754 327.445 250.754C326.783 250.754 326.094 250.939 325.458 251.31C323.551 252.449 322.941 254.886 324.054 256.767C324.796 258.011 326.12 258.727 327.471 258.727Z" fill="#E5320F"/>
<path d="M430.173 198.302C430.861 198.302 431.55 198.143 432.186 197.772C433.431 197.03 434.146 195.706 434.146 194.328C434.146 193.639 433.961 192.95 433.59 192.315C432.848 191.07 431.524 190.355 430.173 190.355C429.485 190.355 428.796 190.54 428.16 190.911C426.279 192.023 425.643 194.461 426.756 196.341C427.498 197.613 428.822 198.302 430.173 198.302Z" fill="#E5320F"/>
<path d="M258.996 298.992C259.684 298.992 260.373 298.833 261.009 298.435C262.28 297.72 262.996 296.369 262.996 295.018C262.996 294.329 262.81 293.64 262.44 293.004C261.698 291.759 260.374 291.044 258.996 291.044C258.307 291.044 257.619 291.23 256.983 291.6C255.102 292.713 254.466 295.15 255.579 297.031C256.32 298.303 257.645 298.992 258.996 298.992Z" fill="#E5320F"/>
<path d="M270.413 292.289C271.102 292.289 271.79 292.103 272.426 291.732C273.671 290.991 274.386 289.666 274.386 288.315C274.386 287.626 274.2 286.938 273.83 286.302C273.088 285.031 271.764 284.315 270.386 284.315C269.724 284.315 269.035 284.5 268.399 284.871C266.518 285.984 265.882 288.447 266.995 290.328C267.737 291.573 269.062 292.289 270.413 292.289Z" fill="#E5320F"/>
<path d="M224.77 319.124C225.459 319.124 226.147 318.965 226.783 318.595C228.028 317.853 228.743 316.529 228.743 315.151C228.743 314.463 228.557 313.774 228.186 313.138C227.444 311.893 226.12 311.178 224.769 311.178C224.08 311.178 223.392 311.364 222.756 311.734C220.875 312.847 220.239 315.284 221.352 317.165C222.094 318.435 223.418 319.124 224.77 319.124Z" fill="#E5320F"/>
<path d="M236.188 312.422C236.877 312.422 237.565 312.236 238.201 311.865C239.446 311.123 240.161 309.799 240.161 308.448C240.161 307.759 239.975 307.071 239.605 306.435C238.863 305.19 237.539 304.475 236.188 304.475C235.5 304.475 234.811 304.66 234.175 305.031C232.268 306.143 231.632 308.58 232.745 310.461C233.512 311.733 234.837 312.422 236.188 312.422Z" fill="#E5320F"/>
<path d="M281.829 285.561C282.518 285.561 283.208 285.402 283.843 285.031C285.088 284.289 285.802 282.965 285.802 281.587C285.802 280.899 285.616 280.21 285.246 279.574C284.504 278.329 283.18 277.614 281.829 277.614C281.141 277.614 280.453 277.799 279.817 278.17C277.91 279.282 277.3 281.72 278.412 283.627C279.153 284.872 280.478 285.561 281.829 285.561Z" fill="#E5320F"/>
<path d="M247.605 305.72C248.293 305.72 248.982 305.534 249.618 305.164C250.863 304.422 251.578 303.098 251.578 301.72C251.578 301.031 251.393 300.343 251.022 299.707C250.28 298.462 248.956 297.747 247.605 297.747C246.916 297.747 246.227 297.932 245.59 298.304C243.683 299.416 243.049 301.854 244.161 303.761C244.903 305.005 246.228 305.72 247.605 305.72Z" fill="#E5320F"/>
<path d="M418.756 205.032C419.445 205.032 420.134 204.847 420.77 204.476C422.015 203.734 422.73 202.41 422.73 201.058C422.73 200.37 422.545 199.68 422.174 199.045C421.432 197.773 420.108 197.058 418.731 197.058C418.068 197.058 417.38 197.244 416.744 197.614C414.863 198.727 414.227 201.164 415.34 203.071C416.081 204.317 417.405 205.032 418.756 205.032Z" fill="#E5320F"/>
<path d="M373.114 231.866C373.803 231.866 374.492 231.707 375.128 231.337C376.373 230.595 377.088 229.271 377.088 227.893C377.088 227.204 376.902 226.515 376.532 225.88C375.79 224.635 374.466 223.919 373.115 223.919C372.427 223.919 371.738 224.105 371.102 224.475C369.222 225.588 368.585 228.025 369.698 229.906C370.438 231.177 371.763 231.866 373.114 231.866Z" fill="#E5320F"/>
<path d="M338.888 251.999C339.577 251.999 340.265 251.84 340.901 251.469C342.146 250.727 342.861 249.403 342.861 248.026C342.861 247.337 342.675 246.649 342.304 246.013C341.562 244.768 340.238 244.052 338.887 244.052C338.198 244.052 337.51 244.238 336.874 244.608C334.967 245.721 334.331 248.158 335.47 250.065C336.186 251.31 337.511 251.999 338.888 251.999Z" fill="#E5320F"/>
<path d="M213.141 325.349L212.849 325.826C213.008 325.852 213.193 325.852 213.352 325.852C214.04 325.852 214.729 325.666 215.365 325.296C216.636 324.554 217.352 323.23 217.352 321.852C217.352 321.19 217.166 320.501 216.795 319.865C216.053 318.594 214.729 317.879 213.352 317.879C212.663 317.879 211.974 318.064 211.338 318.435C211.312 318.461 211.259 318.488 211.233 318.515C213.538 319.76 214.65 322.78 213.141 325.349Z" fill="#E5320F"/>
<path d="M293.247 278.859C293.935 278.859 294.624 278.674 295.26 278.303C296.505 277.561 297.22 276.237 297.22 274.886C297.22 274.197 297.034 273.509 296.663 272.873C295.921 271.628 294.597 270.913 293.246 270.913C292.557 270.913 291.869 271.099 291.233 271.469C289.325 272.581 288.69 275.019 289.802 276.9C290.545 278.171 291.87 278.859 293.247 278.859Z" fill="#E5320F"/>
<path d="M384.531 225.163C385.219 225.163 385.908 224.977 386.544 224.607C387.789 223.865 388.504 222.541 388.504 221.19C388.504 220.501 388.318 219.813 387.947 219.177C387.205 217.906 385.881 217.19 384.504 217.19C383.841 217.19 383.153 217.376 382.517 217.746C380.61 218.885 379.974 221.322 381.086 223.203C381.829 224.448 383.18 225.163 384.531 225.163Z" fill="#E5320F"/>
<path d="M304.638 264.184C303.949 264.184 303.261 264.369 302.625 264.74C300.744 265.853 300.108 268.29 301.221 270.197C301.963 271.442 303.287 272.157 304.665 272.157C305.327 272.157 306.042 271.971 306.678 271.6C307.923 270.858 308.638 269.534 308.638 268.183C308.638 267.494 308.452 266.805 308.081 266.17C307.339 264.899 306.015 264.184 304.638 264.184Z" fill="#E5320F"/>
<path d="M320.028 261.454C320.028 260.765 319.842 260.076 319.472 259.441C318.73 258.196 317.406 257.481 316.055 257.481C315.367 257.481 314.678 257.667 314.042 258.037C312.161 259.15 311.525 261.586 312.638 263.468C313.38 264.739 314.704 265.428 316.055 265.428C316.744 265.428 317.432 265.269 318.068 264.872C319.339 264.156 320.028 262.832 320.028 261.454Z" fill="#E5320F"/>
<path d="M350.28 237.349C349.591 237.349 348.903 237.534 348.267 237.906C346.386 239.018 345.75 241.455 346.863 243.336C347.604 244.608 348.929 245.297 350.306 245.297C350.995 245.297 351.683 245.111 352.319 244.741C353.564 243.999 354.279 242.675 354.279 241.324C354.279 240.636 354.093 239.947 353.722 239.311C352.982 238.065 351.657 237.349 350.28 237.349Z" fill="#E5320F"/>
<path d="M409.352 211.177C410.624 210.435 411.339 209.111 411.339 207.734C411.339 207.071 411.153 206.383 410.783 205.747C410.041 204.502 408.717 203.787 407.339 203.787C406.651 203.787 405.962 203.972 405.326 204.343C403.445 205.456 402.809 207.893 403.922 209.774C404.664 211.046 405.988 211.735 407.365 211.735C408.028 211.734 408.743 211.549 409.352 211.177Z" fill="#E5320F"/>
<path d="M361.697 238.594C362.386 238.594 363.074 238.409 363.71 238.038C364.981 237.296 365.697 235.972 365.697 234.594C365.697 233.932 365.511 233.243 365.141 232.608C364.399 231.337 363.075 230.621 361.697 230.621C361.009 230.621 360.32 230.806 359.684 231.177C357.804 232.289 357.167 234.727 358.28 236.634C359.022 237.88 360.346 238.594 361.697 238.594Z" fill="#E5320F"/>
<path d="M395.922 210.488C395.234 210.488 394.545 210.673 393.909 211.044C392.028 212.156 391.392 214.594 392.505 216.501C393.247 217.746 394.571 218.435 395.948 218.435C396.61 218.435 397.325 218.276 397.961 217.905C399.206 217.163 399.921 215.839 399.921 214.462C399.921 213.773 399.735 213.084 399.365 212.448C398.624 211.203 397.299 210.488 395.922 210.488Z" fill="#E5320F"/>
<path d="M496.954 154.621C496.954 153.852 496.743 153.084 496.292 152.395C495.524 151.256 494.251 150.647 492.98 150.647C492.212 150.647 491.444 150.859 490.782 151.336C488.954 152.555 488.477 155.018 489.696 156.846C490.464 157.985 491.708 158.594 492.98 158.594C493.748 158.594 494.543 158.382 495.205 157.905C496.344 157.137 496.954 155.892 496.954 154.621Z" fill="#E5320F"/>
<path d="M518.463 140.131C518.463 139.363 518.251 138.595 517.774 137.906C517.006 136.767 515.761 136.157 514.489 136.157C513.721 136.157 512.952 136.369 512.264 136.846C510.463 138.064 509.959 140.528 511.204 142.356C511.972 143.495 513.217 144.105 514.489 144.105C515.257 144.105 516.026 143.893 516.714 143.416C517.854 142.648 518.463 141.403 518.463 140.131Z" fill="#E5320F"/>
<path d="M615.046 76.0784L609.669 76.0524C608.874 76.0524 608.106 75.9464 607.391 75.7344C607.471 76.2114 607.656 76.6884 607.974 77.1384C608.742 78.2774 609.987 78.8864 611.259 78.8864C612.027 78.8864 612.796 78.6744 613.484 78.1974C614.278 77.6684 614.808 76.8994 615.046 76.0784Z" fill="#E5320F"/>
<path d="M538.226 128.926C539.365 128.157 539.975 126.912 539.975 125.641C539.975 124.873 539.763 124.104 539.286 123.415C538.518 122.276 537.273 121.667 536.001 121.667C535.233 121.667 534.465 121.879 533.776 122.329C531.948 123.574 531.471 126.037 532.69 127.866C533.458 129.005 534.73 129.614 536.001 129.614C536.769 129.615 537.537 129.403 538.226 128.926Z" fill="#E5320F"/>
<path d="M503.736 143.416C502.968 143.416 502.199 143.628 501.511 144.079C499.71 145.297 499.233 147.761 500.451 149.589C501.219 150.728 502.464 151.337 503.736 151.337C504.504 151.337 505.273 151.125 505.961 150.675C507.1 149.907 507.71 148.662 507.71 147.364C507.71 146.595 507.498 145.827 507.047 145.165C506.279 144.026 505.007 143.416 503.736 143.416Z" fill="#E5320F"/>
<path d="M521.96 135.098C522.728 136.237 523.973 136.847 525.245 136.847C526.013 136.847 526.782 136.635 527.47 136.184C528.609 135.416 529.219 134.171 529.219 132.9C529.219 132.131 529.007 131.363 528.53 130.674C527.762 129.535 526.517 128.926 525.245 128.926C524.477 128.926 523.709 129.138 523.02 129.588C521.218 130.807 520.715 133.271 521.96 135.098Z" fill="#E5320F"/>
<path d="M548.98 121.695C550.119 120.927 550.729 119.682 550.729 118.384C550.729 117.615 550.517 116.847 550.04 116.158C549.272 115.019 548.027 114.436 546.755 114.436C545.987 114.436 545.219 114.648 544.53 115.099C542.702 116.317 542.225 118.781 543.444 120.609C544.212 121.748 545.484 122.358 546.755 122.358C547.523 122.357 548.292 122.145 548.98 121.695Z" fill="#E5320F"/>
<path d="M568.264 107.866C569.006 107.866 569.801 107.654 570.463 107.204C571.602 106.435 572.212 105.164 572.212 103.892C572.212 103.124 572 102.356 571.55 101.667C570.781 100.528 569.536 99.9453 568.265 99.9453C567.497 99.9453 566.702 100.157 566.04 100.607C564.212 101.825 563.735 104.289 564.954 106.117C565.721 107.257 566.966 107.866 568.264 107.866Z" fill="#E5320F"/>
<path d="M589.749 93.377C590.517 93.377 591.285 93.165 591.974 92.715C593.113 91.947 593.723 90.675 593.723 89.404C593.723 88.636 593.511 87.867 593.061 87.179C592.292 86.04 591.021 85.457 589.749 85.457C588.981 85.457 588.213 85.668 587.524 86.119C585.723 87.337 585.246 89.801 586.464 91.629C587.232 92.768 588.477 93.377 589.749 93.377Z" fill="#E5320F"/>
<path d="M485.696 163.786C486.04 163.203 486.199 162.54 486.199 161.852C486.199 161.084 485.987 160.316 485.536 159.654C484.768 158.514 483.523 157.905 482.225 157.905C481.457 157.905 480.688 158.117 480.026 158.567C479.231 159.097 478.701 159.865 478.463 160.712L480.423 160.474C482.941 160.157 484.981 161.72 485.696 163.786Z" fill="#E5320F"/>
<path d="M560.795 108.926C560.027 107.787 558.782 107.178 557.484 107.178C556.716 107.178 555.947 107.389 555.285 107.84C553.457 109.085 552.979 111.549 554.198 113.376C554.966 114.515 556.239 115.125 557.51 115.125C558.278 115.125 559.046 114.913 559.708 114.436C560.847 113.668 561.458 112.423 561.458 111.151C561.458 110.384 561.246 109.615 560.795 108.926Z" fill="#E5320F"/>
<path d="M578.994 100.635C579.762 100.635 580.53 100.423 581.219 99.9455C582.358 99.1775 582.968 97.9315 582.968 96.6605C582.968 95.8915 582.756 95.1235 582.306 94.4345C581.537 93.2955 580.266 92.6865 578.994 92.6865C578.226 92.6865 577.457 92.8985 576.795 93.3485C574.967 94.5935 574.49 97.0565 575.709 98.8855C576.477 100.026 577.722 100.635 578.994 100.635Z" fill="#E5320F"/>
<path d="M600.503 86.1452C601.271 86.1452 602.039 85.9072 602.728 85.4572C603.867 84.6882 604.477 83.4432 604.477 82.1722C604.477 81.4042 604.265 80.6362 603.815 79.9472C603.046 78.8082 601.775 78.1982 600.503 78.1982C599.735 78.1982 598.967 78.4102 598.278 78.8612C596.477 80.1062 596 82.5692 597.218 84.3712C597.987 85.5092 599.232 86.1452 600.503 86.1452Z" fill="#E5320F"/>
<path d="M617.377 151.945C617.191 151.945 617.033 151.945 616.874 151.971C614.702 152.263 613.192 154.249 613.457 156.448C613.722 158.435 615.444 159.891 617.404 159.891C617.563 159.891 617.748 159.891 617.907 159.865C619.947 159.6 621.377 157.878 621.377 155.918C621.377 155.732 621.377 155.573 621.351 155.415C621.086 153.402 619.364 151.945 617.377 151.945Z" fill="#E5320F"/>
<path d="M526.014 171.814C526.173 171.814 526.359 171.814 526.517 171.787C528.53 171.522 529.987 169.801 529.987 167.814C529.987 167.655 529.987 167.496 529.961 167.337C529.696 165.324 527.974 163.867 525.987 163.867C525.828 163.867 525.669 163.867 525.51 163.893C523.311 164.185 521.775 166.171 522.066 168.37C522.332 170.357 524.054 171.814 526.014 171.814Z" fill="#E5320F"/>
<path d="M590.781 155.389C588.609 155.681 587.073 157.667 587.364 159.839C587.603 161.852 589.325 163.309 591.285 163.309C591.444 163.309 591.629 163.283 591.814 163.256C593.8 163.017 595.257 161.296 595.257 159.335C595.257 159.15 595.257 158.991 595.231 158.805C594.966 156.818 593.272 155.361 591.312 155.361C591.126 155.362 590.966 155.362 590.781 155.389Z" fill="#E5320F"/>
<path d="M629.934 150.277C627.762 150.569 626.226 152.555 626.517 154.727C626.517 154.754 626.517 154.754 626.543 154.78C626.649 154.303 626.887 153.879 627.258 153.455L630.146 150.276C630.066 150.251 630.013 150.277 629.934 150.277Z" fill="#E5320F"/>
<path d="M578.226 165.006C578.412 165.006 578.57 165.006 578.756 164.98C580.743 164.715 582.199 163.02 582.199 161.06C582.199 160.874 582.199 160.715 582.173 160.53C581.908 158.516 580.213 157.06 578.253 157.06C578.067 157.06 577.909 157.06 577.723 157.086C575.551 157.377 574.015 159.364 574.306 161.536C574.57 163.549 576.265 165.006 578.226 165.006Z" fill="#E5320F"/>
<path d="M569.138 162.753C569.138 162.567 569.138 162.409 569.112 162.223C568.874 160.236 567.152 158.779 565.192 158.779C565.006 158.779 564.848 158.779 564.662 158.805C562.49 159.07 560.954 161.057 561.245 163.256C561.51 165.242 563.205 166.699 565.165 166.699C565.351 166.699 565.509 166.699 565.695 166.673C567.682 166.409 569.138 164.713 569.138 162.753Z" fill="#E5320F"/>
<path d="M512.98 165.589C512.794 165.589 512.635 165.589 512.45 165.615C510.278 165.88 508.741 167.893 509.006 170.065C509.271 172.052 510.993 173.509 512.953 173.509C513.112 173.509 513.298 173.509 513.456 173.482C515.469 173.217 516.926 171.522 516.926 169.562C516.926 169.376 516.926 169.217 516.9 169.032C516.635 167.046 514.94 165.589 512.98 165.589Z" fill="#E5320F"/>
<path d="M604.371 153.668C604.185 153.668 604.026 153.668 603.841 153.695C601.669 153.96 600.133 155.973 600.397 158.145C600.662 160.132 602.384 161.589 604.344 161.589C604.503 161.589 604.689 161.589 604.874 161.563C606.861 161.324 608.318 159.603 608.318 157.642C608.318 157.456 608.318 157.298 608.292 157.112C608.026 155.125 606.331 153.668 604.371 153.668Z" fill="#E5320F"/>
<path d="M552.133 160.476C551.947 160.476 551.789 160.476 551.603 160.502C549.431 160.794 547.895 162.78 548.186 164.953C548.451 166.966 550.146 168.423 552.106 168.423C552.292 168.423 552.45 168.396 552.636 168.37C554.649 168.105 556.106 166.383 556.106 164.396C556.106 164.237 556.106 164.078 556.08 163.919C555.815 161.933 554.093 160.476 552.133 160.476Z" fill="#E5320F"/>
<path d="M539.072 162.171C538.913 162.171 538.728 162.171 538.542 162.197C536.37 162.489 534.834 164.475 535.125 166.648C535.39 168.661 537.085 170.118 539.072 170.118C539.231 170.118 539.417 170.092 539.575 170.092C541.588 169.827 543.045 168.106 543.045 166.119C543.045 165.96 543.045 165.801 543.019 165.642C542.754 163.628 541.059 162.171 539.072 162.171Z" fill="#E5320F"/>
<path d="M486.834 176.925C487.02 176.925 487.179 176.925 487.364 176.899C489.35 176.634 490.807 174.938 490.807 172.979C490.807 172.793 490.807 172.634 490.781 172.449C490.516 170.409 488.794 168.979 486.834 168.979C486.649 168.979 486.49 168.979 486.331 169.005C485.112 169.164 484.106 169.853 483.523 170.806L483.364 171.046C482.967 171.761 482.808 172.608 482.913 173.455C483.179 175.468 484.874 176.925 486.834 176.925Z" fill="#E5320F"/>
<path d="M499.921 167.284C499.735 167.284 499.575 167.284 499.39 167.31C497.218 167.602 495.683 169.588 495.947 171.76C496.212 173.773 497.934 175.23 499.894 175.23C500.053 175.23 500.238 175.204 500.423 175.177C502.409 174.938 503.866 173.217 503.866 171.256C503.866 171.071 503.866 170.912 503.84 170.726C503.576 168.741 501.881 167.284 499.921 167.284Z" fill="#E5320F"/>
<path d="M676.186 53.6952L660.53 42.1982L661.113 22.7812C661.166 21.2712 660.345 19.8672 659.02 19.1522C657.696 18.4372 656.053 18.5692 654.835 19.4442L639.073 30.7812L620.795 24.2122C619.364 23.7092 617.775 24.0532 616.689 25.1132C615.603 26.1462 615.206 27.7352 615.656 29.1662L621.59 47.6832L609.696 63.0202C608.769 64.2122 608.61 65.8552 609.272 67.2062C609.935 68.5572 611.312 69.4312 612.822 69.4312L618.464 69.4582L625.537 69.5112L632.239 69.5372L643.179 85.5632C644.027 86.8342 645.51 87.4972 647.02 87.2852C648.503 87.0732 649.749 86.0132 650.226 84.5832L656.319 66.1462L674.968 60.7152C675.736 60.4772 676.399 60.0272 676.902 59.4172C677.326 58.9142 677.644 58.2782 677.75 57.5892C678.013 56.0792 677.403 54.5692 676.186 53.6952Z" fill="white"/>
<path d="M289.193 443.15L296.054 424.978C296.61 423.574 296.292 421.984 295.259 420.872C294.226 419.759 292.637 419.335 291.207 419.786L272.61 425.376L257.458 413.244C256.266 412.29 254.65 412.105 253.299 412.741C251.922 413.377 251.021 414.754 250.994 416.264L250.863 422.039C249.962 423.31 249.882 425.032 250.782 426.41L250.571 435.682L234.332 446.331C233.087 447.152 232.398 448.636 232.583 450.146C232.769 451.63 233.803 452.901 235.207 453.404L246.729 457.431L251.551 459.126L253.563 459.815L258.676 478.543C259.073 480 260.265 481.112 261.749 481.377C263.232 481.669 264.77 481.086 265.67 479.894L277.431 464.424L296.822 465.351C297.616 465.377 298.411 465.166 299.073 464.768C299.656 464.424 300.134 463.92 300.478 463.311C301.22 461.987 301.14 460.344 300.265 459.099L289.193 443.15Z" fill="white"/>
<path d="M172.134 335.203L181.723 340.554L182.756 351.494C182.835 352.342 183.391 353.083 184.186 353.374C185.007 353.692 185.908 353.507 186.517 352.924L194.57 345.454L194.649 345.48L202.384 347.202L205.298 347.864C205.749 347.97 206.199 347.917 206.596 347.758C206.967 347.626 207.284 347.387 207.523 347.096C208.08 346.408 208.186 345.507 207.815 344.739L203.206 334.752L208.796 325.321C209.246 324.579 209.22 323.653 208.743 322.937C208.293 322.222 207.445 321.825 206.597 321.931L195.71 323.255L188.451 315.017C187.868 314.355 186.994 314.09 186.173 314.328C185.352 314.54 184.716 315.229 184.557 316.05L182.438 326.832L172.346 331.176C171.551 331.52 171.048 332.288 170.995 333.136C170.942 333.985 171.393 334.806 172.134 335.203Z" fill="white"/>
<path d="M477.405 190.383C477.855 190.463 478.306 190.436 478.73 190.277C479.074 190.144 479.392 189.906 479.657 189.588C480.186 188.926 480.293 188.025 479.948 187.23L475.736 178.117L475.339 177.269L477.564 173.481L480.928 167.813C481.325 167.124 481.351 166.303 480.954 165.614C480.928 165.561 480.901 165.508 480.874 165.455C480.503 164.899 479.92 164.528 479.258 164.475C479.258 164.475 479.258 164.449 479.231 164.449C479.072 164.423 478.887 164.423 478.728 164.449L472.291 165.217C472.026 165.164 471.761 165.137 471.496 165.137C470.913 165.137 470.33 165.27 469.801 165.508L467.814 165.746L466.251 163.971L463.522 160.872L460.555 157.508C459.999 156.872 459.125 156.607 458.277 156.819C457.456 157.058 456.82 157.72 456.661 158.568L454.542 169.323L444.449 173.694C443.681 174.038 443.151 174.78 443.098 175.654C443.072 176.502 443.522 177.297 444.264 177.72L449.032 180.395L453.853 183.071L454.012 184.739L454.886 194.011C454.966 194.859 455.522 195.574 456.317 195.892C457.112 196.184 458.012 196.024 458.648 195.442L466.701 187.972L477.405 190.383Z" fill="white"/>
<path d="M39.2087 450.752C39.4467 449.931 39.1828 449.03 38.5468 448.474L30.3878 441.136L31.8178 430.222C31.9238 429.374 31.5528 428.554 30.8378 428.076C30.2548 427.705 29.5667 427.599 28.9307 427.811C28.7717 427.837 28.6127 427.916 28.4537 427.996L22.3077 431.572L18.9437 433.506L9.03675 428.764C8.26875 428.419 7.34175 428.526 6.67975 429.055C6.01775 429.585 5.69977 430.433 5.88477 431.281L8.16272 442.009L0.612734 449.983C0.029734 450.619 -0.155256 451.52 0.135744 452.314C0.426744 453.109 1.16873 453.692 2.01673 453.771L12.9307 454.91L18.1757 464.552C18.4137 464.95 18.7318 465.267 19.1298 465.479C19.4738 465.665 19.8447 465.744 20.2427 465.717C21.0907 465.691 21.8588 465.187 22.2028 464.393L26.6798 454.354L28.1627 454.062L33.8577 453.002L37.4608 452.339C38.3078 452.183 38.9967 451.573 39.2087 450.752Z" fill="white"/>
<path d="M516.027 18.6218L523.656 19.2307L525.51 22.4357L527.179 25.3497L527.47 25.8528C527.629 26.1178 527.867 26.3558 528.133 26.4888C528.371 26.5948 528.636 26.6478 528.927 26.6478C529.51 26.5948 530.039 26.2238 530.251 25.6678L533.191 18.6218L540.688 17.0327C541.271 16.9007 541.721 16.4498 541.88 15.8938C542.012 15.3108 541.827 14.7017 541.377 14.3037L535.576 9.32375L536.371 1.72174C536.424 1.13874 536.159 0.55575 535.656 0.23775C535.153 -0.07925 534.517 -0.07925 533.987 0.23775L527.47 4.21175L520.477 1.11275C519.947 0.84775 519.311 0.953756 518.861 1.32476C518.384 1.72276 518.199 2.30474 518.332 2.88774L520.106 10.3308L514.994 16.0257C514.597 16.4497 514.464 17.0848 514.702 17.6418C514.915 18.1978 515.418 18.5688 516.027 18.6218Z" fill="white"/>
<path d="M650.808 147.416L651.603 139.814C651.656 139.205 651.391 138.648 650.888 138.331C650.385 138.013 649.749 138.013 649.219 138.305L642.702 142.305L635.709 139.179C635.179 138.941 634.543 139.02 634.093 139.417C633.616 139.788 633.431 140.397 633.563 140.98L635.338 148.424L632.927 151.099L630.225 154.092C629.828 154.542 629.695 155.178 629.933 155.708C630.145 156.264 630.648 156.662 631.258 156.688L633.404 156.873L638.887 157.297L642.701 163.946C642.86 164.211 643.098 164.423 643.364 164.555C643.602 164.687 643.867 164.741 644.158 164.714C644.741 164.688 645.271 164.317 645.483 163.76L648.423 156.687L655.92 155.098C656.503 154.992 656.953 154.541 657.112 153.959C657.245 153.376 657.059 152.767 656.609 152.396L650.808 147.416Z" fill="white"/>
<path d="M151.711 530.168L148.241 527.201L148.718 522.883L149.063 519.598C149.116 519.016 148.851 518.433 148.348 518.115C147.845 517.797 147.182 517.797 146.679 518.115L140.162 522.089L133.169 518.99C132.639 518.725 132.003 518.831 131.526 519.202C131.076 519.599 130.89 520.182 131.023 520.765L132.798 528.209L127.659 533.904C127.262 534.328 127.156 534.964 127.367 535.52C127.605 536.077 128.109 536.447 128.718 536.501L136.321 537.11L140.162 543.732C140.321 543.997 140.533 544.235 140.825 544.368C141.063 544.473 141.328 544.527 141.619 544.527C142.202 544.474 142.732 544.103 142.943 543.547L145.884 536.501L153.354 534.912C153.937 534.78 154.414 534.329 154.546 533.773C154.705 533.19 154.519 532.581 154.069 532.184L151.711 530.168Z" fill="white"/>
<path d="M80.9294 314.409L88.5584 315.018L92.3723 321.64C92.5313 321.905 92.7694 322.117 93.0344 322.276C93.2724 322.382 93.5374 322.435 93.8294 322.409C94.4124 322.382 94.9413 322.011 95.1533 321.455L98.0934 314.409L105.59 312.819C106.173 312.687 106.623 312.237 106.782 311.654C106.914 311.097 106.729 310.489 106.279 310.091L100.478 305.111L101.272 297.508C101.325 296.926 101.06 296.343 100.557 296.025C100.054 295.707 99.4184 295.707 98.8894 296.025L92.3723 299.999L85.3784 296.9C84.8484 296.635 84.2134 296.741 83.7624 297.111C83.2854 297.482 83.1004 298.091 83.2324 298.674L85.0074 306.118L79.8944 311.787C79.4974 312.237 79.3644 312.873 79.6034 313.429C79.8174 313.985 80.3204 314.356 80.9294 314.409Z" fill="white"/>
<path d="M336.644 336.698L332.332 334.717C332.215 334.641 332.041 334.542 331.808 334.426C330.526 333.766 329.768 333.377 329.536 333.26C329.302 333.144 328.894 332.843 328.311 332.357C327.729 331.871 327.37 331.405 327.234 330.958C327.097 330.512 327.01 329.939 326.971 329.239C326.971 327.763 327.514 326.617 328.603 325.801C329.689 324.985 331.089 324.577 332.799 324.577C336.1 324.577 338.802 326.13 340.9 329.239L345.213 325.917C344.007 323.819 342.308 322.149 340.113 320.905C337.918 319.662 335.48 319.04 332.8 319.04C329.38 319.04 326.506 320.013 324.175 321.955C321.843 323.899 320.677 326.404 320.677 329.472C320.677 331.921 321.425 333.971 322.921 335.621C324.416 337.272 326.659 338.778 329.652 340.138L333.906 342.119C336.041 343.129 337.518 344.013 338.335 344.771C339.151 345.527 339.559 346.567 339.559 347.888C339.559 349.52 338.947 350.822 337.724 351.793C336.5 352.765 334.898 353.25 332.916 353.25C328.992 353.25 325.631 351.21 322.834 347.13L318.463 350.453C319.978 353.056 321.998 355.095 324.524 356.571C327.049 358.048 329.866 358.786 332.974 358.786C336.704 358.786 339.783 357.757 342.21 355.698C344.638 353.638 345.853 350.957 345.853 347.655C345.853 345.169 345.124 343.091 343.668 341.419C342.21 339.75 339.869 338.176 336.644 336.698Z" fill="white"/>
<path d="M378.721 324.694C383.733 324.694 387.656 326.908 390.492 331.337L395.155 327.899C393.484 325.18 391.192 323.024 388.278 321.431C385.364 319.837 382.159 319.04 378.663 319.04C373.145 318.964 368.367 320.886 364.326 324.811C360.285 328.735 358.323 333.435 358.44 338.914C358.323 344.392 360.286 349.094 364.326 353.017C368.367 356.941 373.145 358.864 378.663 358.787C382.198 358.787 385.413 357.999 388.308 356.427C391.202 354.853 393.484 352.688 395.156 349.928L390.493 346.49C387.657 350.919 383.734 353.133 378.722 353.133C374.759 353.133 371.456 351.784 368.814 349.083C366.171 346.382 364.852 342.992 364.852 338.914C364.852 334.835 366.171 331.444 368.814 328.744C371.455 326.044 374.757 324.694 378.721 324.694Z" fill="white"/>
<path d="M427.092 319.04C421.574 318.964 416.814 320.886 412.813 324.811C408.811 328.735 406.849 333.435 406.927 338.914C406.81 344.392 408.763 349.094 412.785 353.017C416.805 356.941 421.574 358.864 427.092 358.787C432.57 358.864 437.339 356.941 441.399 353.017C445.458 349.094 447.43 344.392 447.314 338.914C447.43 333.435 445.458 328.734 441.399 324.811C437.338 320.886 432.569 318.964 427.092 319.04ZM436.998 349.053C434.355 351.773 431.073 353.132 427.15 353.132C423.148 353.132 419.844 351.783 417.242 349.082C414.639 346.381 413.338 342.973 413.338 338.853C413.338 334.775 414.648 331.394 417.271 328.714C419.893 326.033 423.186 324.693 427.149 324.693C431.072 324.693 434.355 326.044 436.997 328.743C439.64 331.444 440.96 334.815 440.96 338.854C440.961 342.934 439.641 346.335 436.998 349.053Z" fill="white"/>
<path d="M486.855 338.098C488.156 336.194 488.808 333.979 488.808 331.453C488.808 327.995 487.602 325.169 485.194 322.974C482.784 320.779 479.637 319.681 475.753 319.681H461.709V358.144H467.887V343.284H474.937L485.894 358.144H492.946L481.407 342.293C483.738 341.4 485.554 340.002 486.855 338.098ZM475.638 337.805H467.888V325.159H475.638C477.736 325.159 479.397 325.742 480.62 326.908C481.843 328.073 482.456 329.609 482.456 331.511C482.456 333.415 481.843 334.941 480.62 336.086C479.397 337.234 477.735 337.805 475.638 337.805Z" fill="white"/>
<path d="M519.521 319.681H505.477V358.144H511.655V343.284H519.522C523.369 343.284 526.505 342.177 528.935 339.962C531.363 337.747 532.577 334.911 532.577 331.453C532.577 327.995 531.371 325.169 528.963 322.974C526.552 320.78 523.405 319.681 519.521 319.681ZM524.416 336.116C523.21 337.243 521.541 337.805 519.404 337.805H511.654V325.159H519.404C521.541 325.159 523.211 325.733 524.416 326.878C525.621 328.025 526.223 329.57 526.223 331.511C526.223 333.455 525.621 334.989 524.416 336.116Z" fill="white"/>
<path d="M552.622 319.681H546.444V358.144H552.622V319.681Z" fill="white"/>
<path d="M587.122 319.04C581.604 318.964 576.844 320.886 572.843 324.811C568.841 328.735 566.879 333.435 566.957 338.914C566.84 344.392 568.793 349.094 572.815 353.017C576.835 356.941 581.604 358.864 587.122 358.787C592.6 358.864 597.369 356.941 601.429 353.017C605.488 349.094 607.46 344.392 607.344 338.914C607.46 333.435 605.488 328.734 601.429 324.811C597.368 320.886 592.599 318.964 587.122 319.04ZM597.028 349.053C594.385 351.773 591.103 353.132 587.18 353.132C583.178 353.132 579.874 351.783 577.272 349.082C574.669 346.381 573.368 342.973 573.368 338.853C573.368 334.775 574.679 331.394 577.302 328.714C579.924 326.033 583.217 324.693 587.18 324.693C591.103 324.693 594.386 326.044 597.028 328.743C599.671 331.444 600.991 334.815 600.991 338.854C600.991 342.934 599.67 346.335 597.028 349.053Z" fill="white"/>
</svg>
