<svg width="668" height="479" viewBox="0 0 668 479" fill="none" xmlns="http://www.w3.org/2000/svg">
<path d="M173.215 449.301C172.87 449.221 172.526 449.168 172.182 449.168C170.434 449.168 168.818 450.334 168.341 452.108C167.784 454.227 169.029 456.426 171.149 456.982C171.494 457.088 171.838 457.115 172.182 457.115C173.93 457.115 175.546 455.949 176.023 454.175C176.103 453.83 176.156 453.487 176.156 453.142C176.156 451.393 174.99 449.777 173.215 449.301Z" fill="#E5320F"/>
<path d="M134.461 438.889C134.117 438.784 133.773 438.757 133.428 438.757C131.68 438.757 130.09 439.922 129.614 441.697C129.031 443.816 130.302 445.988 132.423 446.571C132.767 446.65 133.111 446.703 133.455 446.703C135.204 446.703 136.793 445.538 137.27 443.764C137.375 443.419 137.402 443.048 137.402 442.703C137.401 440.956 136.262 439.367 134.461 438.889Z" fill="#E5320F"/>
<path d="M195.919 462.598C196.686 461.75 196.978 460.611 196.713 459.498L196.024 456.664C195.15 457.193 194.461 458.015 194.169 459.074C193.773 460.61 194.302 462.174 195.441 463.127L195.919 462.598Z" fill="#E5320F"/>
<path d="M160.316 445.83C159.971 445.751 159.627 445.698 159.282 445.698C157.534 445.698 155.918 446.863 155.441 448.638C154.858 450.757 156.129 452.929 158.249 453.512C158.594 453.591 158.937 453.644 159.282 453.644C161.03 453.644 162.621 452.479 163.097 450.704C163.202 450.36 163.229 449.989 163.229 449.644C163.229 447.896 162.09 446.307 160.316 445.83Z" fill="#E5320F"/>
<path d="M147.387 442.359C147.043 442.279 146.699 442.227 146.355 442.227C144.606 442.227 142.991 443.393 142.513 445.167C141.957 447.286 143.202 449.458 145.322 450.041C145.666 450.121 146.01 450.173 146.355 450.173C148.103 450.173 149.718 449.008 150.196 447.234C150.275 446.889 150.329 446.546 150.329 446.201C150.329 444.453 149.163 442.836 147.387 442.359Z" fill="#E5320F"/>
<path d="M186.142 452.797C185.798 452.692 185.427 452.665 185.082 452.665C183.334 452.665 181.744 453.804 181.268 455.605C180.685 457.698 181.957 459.896 184.049 460.453C184.42 460.558 184.765 460.611 185.11 460.611C186.858 460.611 188.447 459.42 188.924 457.672C189.029 457.327 189.056 456.956 189.056 456.611C189.056 454.863 187.918 453.274 186.142 452.797Z" fill="#E5320F"/>
<path d="M388.843 147.368C389.531 147.183 390.167 146.785 390.671 146.255L388.843 147.368Z" fill="#E5320F"/>
<path d="M325.559 336.877C325.479 336.904 325.4 336.983 325.321 337.063C323.81 338.653 323.864 341.169 325.453 342.679C326.248 343.42 327.228 343.765 328.208 343.765C329.162 343.765 330.142 343.394 330.884 342.679C328.367 341.672 326.353 339.526 325.559 336.877Z" fill="#E5320F"/>
<path d="M319.174 345.327C318.114 345.327 317.055 345.752 316.287 346.572C314.777 348.162 314.856 350.678 316.445 352.215C317.213 352.931 318.194 353.301 319.174 353.301C320.234 353.301 321.293 352.877 322.062 352.056C322.778 351.288 323.148 350.308 323.148 349.327C323.148 348.267 322.724 347.208 321.903 346.414C321.135 345.698 320.155 345.327 319.174 345.327Z" fill="#E5320F"/>
<path d="M310.168 354.864C309.109 354.864 308.075 355.288 307.28 356.109C305.77 357.698 305.823 360.214 307.413 361.724C308.18 362.44 309.161 362.81 310.141 362.81C311.202 362.81 312.261 362.386 313.055 361.566C313.771 360.797 314.141 359.817 314.141 358.837C314.141 357.776 313.718 356.718 312.897 355.949C312.129 355.235 311.148 354.864 310.168 354.864Z" fill="#E5320F"/>
<path d="M416.844 115.659C416.844 114.785 416.578 113.91 415.995 113.196C415.226 112.189 414.061 111.687 412.869 111.687C412.021 111.687 411.148 111.951 410.406 112.534C408.684 113.885 408.392 116.375 409.743 118.097C410.538 119.104 411.703 119.635 412.869 119.635C413.717 119.635 414.592 119.342 415.334 118.786C416.34 118.016 416.844 116.824 416.844 115.659Z" fill="#E5320F"/>
<path d="M447.81 91.3945C447.81 90.5195 447.544 89.6455 446.962 88.9305C446.167 87.9245 445.028 87.3945 443.836 87.3945C442.988 87.3945 442.114 87.6865 441.398 88.2425C439.65 89.5935 439.359 92.1095 440.71 93.8315C441.505 94.8375 442.67 95.3415 443.836 95.3415C444.71 95.3415 445.558 95.0765 446.299 94.4935C447.306 93.7255 447.81 92.5605 447.81 91.3945Z" fill="#E5320F"/>
<path d="M437.479 99.474C437.479 98.6 437.213 97.726 436.631 97.011C435.836 96.004 434.697 95.501 433.505 95.501C432.657 95.501 431.783 95.766 431.067 96.349C429.345 97.7 429.028 100.19 430.379 101.912C431.174 102.919 432.339 103.449 433.505 103.449C434.379 103.449 435.227 103.157 435.968 102.601C436.975 101.805 437.479 100.64 437.479 99.474Z" fill="#E5320F"/>
<path d="M301.109 364.4C300.076 364.4 299.016 364.797 298.248 365.619C296.738 367.234 296.817 369.724 298.407 371.234C299.176 371.976 300.155 372.321 301.135 372.321C302.195 372.321 303.228 371.924 304.022 371.102C304.738 370.333 305.109 369.353 305.109 368.373C305.109 367.313 304.685 366.28 303.864 365.485C303.095 364.745 302.116 364.4 301.109 364.4Z" fill="#E5320F"/>
<path d="M402.274 122.68L406.432 122.998C406.327 122.389 406.088 121.806 405.664 121.303C404.869 120.296 403.73 119.766 402.538 119.766C401.69 119.766 400.816 120.057 400.1 120.614C399.915 120.746 399.756 120.905 399.623 121.091C400.208 122.017 401.187 122.573 402.274 122.68Z" fill="#E5320F"/>
<path d="M427.174 107.554C427.174 106.706 426.882 105.832 426.326 105.117C425.531 104.11 424.365 103.58 423.2 103.58C422.326 103.58 421.452 103.872 420.736 104.428C419.014 105.779 418.697 108.296 420.074 110.018C420.843 110.998 422.008 111.528 423.2 111.528C424.048 111.528 424.922 111.263 425.637 110.68C426.644 109.885 427.174 108.719 427.174 107.554Z" fill="#E5320F"/>
<path d="M247.016 421.512C245.956 421.512 244.923 421.936 244.128 422.757C242.618 424.346 242.672 426.862 244.287 428.372C245.056 429.114 246.036 429.459 247.016 429.459C248.076 429.459 249.109 429.062 249.904 428.214C250.619 427.445 250.99 426.465 250.99 425.485C250.99 424.425 250.566 423.392 249.745 422.597C248.976 421.884 247.997 421.512 247.016 421.512Z" fill="#E5320F"/>
<path d="M522.802 27.369L522.511 27.21C522.59 27.872 522.856 28.534 523.306 29.091C523.783 29.727 524.445 30.177 525.16 30.389C524.816 29.117 523.995 28.031 522.802 27.369Z" fill="#E5320F"/>
<path d="M237.958 431.049C236.925 431.049 235.865 431.446 235.098 432.268C233.588 433.884 233.666 436.401 235.255 437.911C236.024 438.626 237.005 438.997 237.985 438.997C239.045 438.997 240.104 438.573 240.873 437.752C241.614 436.983 241.959 436.004 241.959 435.023C241.959 433.963 241.562 432.904 240.714 432.135C239.945 431.393 238.964 431.049 237.958 431.049Z" fill="#E5320F"/>
<path d="M219.945 450.095C219.521 450.095 219.096 450.148 218.673 450.333C218.938 450.862 219.069 451.472 218.99 452.16L218.435 457.723C218.912 457.935 219.441 458.04 219.945 458.04C221.005 458.04 222.038 457.616 222.832 456.795C223.548 456.027 223.917 455.047 223.917 454.066C223.917 453.006 223.493 451.973 222.673 451.179C221.904 450.439 220.924 450.095 219.945 450.095Z" fill="#E5320F"/>
<path d="M265.056 402.467C263.996 402.467 262.963 402.891 262.168 403.712C260.658 405.301 260.737 407.817 262.327 409.327C263.096 410.069 264.075 410.413 265.056 410.413C266.116 410.413 267.149 410.016 267.943 409.195C268.659 408.426 269.03 407.42 269.03 406.439C269.03 405.379 268.606 404.347 267.785 403.552C267.016 402.837 266.036 402.467 265.056 402.467Z" fill="#E5320F"/>
<path d="M274.09 392.957C273.031 392.957 271.97 393.38 271.202 394.201C269.692 395.791 269.745 398.307 271.335 399.817C272.103 400.532 273.083 400.903 274.063 400.903C275.123 400.903 276.183 400.479 276.951 399.658C277.693 398.89 278.037 397.91 278.037 396.903C278.037 395.87 277.64 394.81 276.818 394.043C276.05 393.327 275.044 392.957 274.09 392.957Z" fill="#E5320F"/>
<path d="M283.095 383.42C282.035 383.42 280.976 383.844 280.208 384.665C278.697 386.255 278.777 388.771 280.366 390.281C281.134 391.022 282.115 391.367 283.095 391.367C284.155 391.367 285.188 390.97 285.983 390.122C286.698 389.38 287.069 388.4 287.069 387.42C287.069 386.36 286.645 385.301 285.824 384.506C285.056 383.791 284.076 383.42 283.095 383.42Z" fill="#E5320F"/>
<path d="M292.129 373.91C291.069 373.91 290.036 374.334 289.241 375.155C287.731 376.745 287.784 379.26 289.374 380.771C290.143 381.486 291.122 381.857 292.103 381.857C293.163 381.857 294.222 381.433 294.991 380.612C295.732 379.843 296.077 378.864 296.077 377.857C296.077 376.824 295.68 375.764 294.858 374.996C294.088 374.281 293.109 373.91 292.129 373.91Z" fill="#E5320F"/>
<path d="M256.023 412.003C254.963 412.003 253.903 412.4 253.134 413.248C251.624 414.837 251.704 417.353 253.294 418.863C254.063 419.579 255.042 419.95 256.023 419.95C257.083 419.95 258.141 419.525 258.91 418.705C259.651 417.936 259.997 416.956 259.997 415.976C259.997 414.916 259.6 413.857 258.752 413.088C257.983 412.347 257.003 412.003 256.023 412.003Z" fill="#E5320F"/>
<path d="M228.977 440.558C227.916 440.558 226.883 440.982 226.089 441.803C224.579 443.393 224.632 445.909 226.221 447.419C226.99 448.16 227.996 448.505 228.977 448.505C230.009 448.505 231.069 448.108 231.864 447.26C232.58 446.491 232.95 445.512 232.95 444.531C232.95 443.471 232.526 442.438 231.705 441.644C230.937 440.929 229.957 440.558 228.977 440.558Z" fill="#E5320F"/>
<path d="M369.003 237.461C369.268 237.514 369.532 237.54 369.771 237.54C371.625 237.54 373.294 236.242 373.665 234.361C373.718 234.096 373.744 233.832 373.744 233.566C373.744 231.712 372.446 230.07 370.565 229.672C370.3 229.619 370.036 229.592 369.797 229.592C367.916 229.592 366.247 230.917 365.876 232.798C365.453 234.944 366.831 237.037 369.003 237.461Z" fill="#E5320F"/>
<path d="M499.439 50.8923C499.439 50.0443 499.147 49.1973 498.591 48.4553C497.822 47.4493 496.63 46.9453 495.465 46.9453C494.591 46.9453 493.717 47.2103 493.001 47.7933C491.279 49.1443 490.988 51.6343 492.339 53.3823C493.108 54.3623 494.273 54.8923 495.465 54.8923C496.313 54.8923 497.187 54.6273 497.902 54.0443C498.909 53.2503 499.439 52.0843 499.439 50.8923Z" fill="#E5320F"/>
<path d="M489.108 58.9978C489.108 58.1498 488.816 57.2758 488.26 56.5608C487.465 55.5548 486.325 55.0508 485.134 55.0508C484.286 55.0508 483.412 55.3158 482.696 55.8988C480.948 57.2498 480.656 59.7398 482.008 61.4618C482.777 62.4678 483.968 62.9718 485.134 62.9718C485.982 62.9718 486.856 62.7068 487.571 62.1508C488.578 61.3558 489.108 60.1898 489.108 58.9978Z" fill="#E5320F"/>
<path d="M509.743 42.8389C509.743 41.9649 509.478 41.0899 508.895 40.3759C508.101 39.3689 506.935 38.8389 505.77 38.8389C504.922 38.8389 504.047 39.1309 503.332 39.6869C501.61 41.0379 501.293 43.5549 502.644 45.2759C503.439 46.2829 504.604 46.8119 505.77 46.8119C506.644 46.8119 507.492 46.5208 508.233 45.9648C509.24 45.1698 509.743 44.0049 509.743 42.8389Z" fill="#E5320F"/>
<path d="M366.433 250.335C366.698 250.388 366.936 250.414 367.201 250.414C369.055 250.414 370.724 249.116 371.096 247.235C371.149 246.97 371.175 246.706 371.175 246.44C371.175 244.586 369.877 242.918 367.996 242.546C367.731 242.493 367.466 242.467 367.201 242.467C365.347 242.467 363.679 243.765 363.307 245.672C362.883 247.818 364.26 249.911 366.433 250.335Z" fill="#E5320F"/>
<path d="M374.141 211.739C374.406 211.792 374.671 211.819 374.91 211.819C376.764 211.819 378.433 210.521 378.804 208.64C378.858 208.375 378.884 208.084 378.884 207.819C378.884 205.965 377.585 204.322 375.705 203.952C375.439 203.899 375.175 203.872 374.936 203.872C373.055 203.872 371.386 205.197 371.015 207.077C370.591 209.222 371.996 211.315 374.141 211.739Z" fill="#E5320F"/>
<path d="M363.413 263.102H363.439C363.465 263.076 363.465 263.076 363.493 263.102C363.519 263.076 363.546 263.076 363.572 263.102C363.651 263.156 363.758 263.182 363.863 263.208C363.996 263.234 364.155 263.261 364.313 263.261C364.34 263.235 364.367 263.261 364.367 263.261C364.446 263.287 364.553 263.287 364.632 263.287C366.486 263.287 368.155 261.963 368.527 260.082C368.58 259.817 368.606 259.553 368.606 259.313C368.606 257.459 367.308 255.791 365.401 255.419C365.135 255.366 364.871 255.34 364.606 255.34C362.752 255.34 361.109 256.638 360.739 258.519C360.34 260.533 361.532 262.44 363.413 263.102Z" fill="#E5320F"/>
<path d="M379.281 186.016C379.546 186.069 379.81 186.095 380.075 186.095C381.929 186.095 383.572 184.797 383.97 182.916C384.023 182.651 384.049 182.386 384.049 182.148C384.049 180.267 382.725 178.598 380.844 178.228C380.579 178.175 380.341 178.148 380.075 178.148C378.221 178.148 376.553 179.472 376.155 181.353C375.731 183.5 377.134 185.592 379.281 186.016Z" fill="#E5320F"/>
<path d="M520.075 34.7598C520.075 33.8858 519.809 33.0118 519.227 32.2968C518.432 31.2898 517.292 30.7598 516.101 30.7598C515.253 30.7598 514.379 31.0507 513.663 31.6077C511.915 32.9587 511.623 35.4758 512.975 37.1978C513.77 38.1778 514.935 38.7078 516.101 38.7078C516.975 38.7078 517.823 38.4427 518.564 37.8597C519.571 37.0907 520.075 35.9248 520.075 34.7598Z" fill="#E5320F"/>
<path d="M371.572 224.613C371.837 224.666 372.102 224.692 372.341 224.692C374.222 224.692 375.863 223.394 376.235 221.487C376.288 221.222 376.314 220.957 376.314 220.692C376.314 218.838 375.016 217.196 373.135 216.825C372.87 216.772 372.579 216.745 372.314 216.745C370.46 216.745 368.818 218.043 368.447 219.951C368.022 222.096 369.426 224.189 371.572 224.613Z" fill="#E5320F"/>
<path d="M376.711 198.891C376.977 198.944 377.241 198.97 377.506 198.97C379.36 198.97 381.003 197.672 381.401 195.765C381.454 195.5 381.48 195.262 381.48 194.997C381.48 193.143 380.156 191.474 378.275 191.103C378.009 191.05 377.745 191.023 377.48 191.023C375.626 191.023 373.983 192.321 373.585 194.228C373.162 196.375 374.565 198.467 376.711 198.891Z" fill="#E5320F"/>
<path d="M458.141 83.2885C458.141 82.4135 457.849 81.5395 457.293 80.8245C456.524 79.8185 455.332 79.3145 454.167 79.3145C453.293 79.3145 452.419 79.5794 451.703 80.1624C449.981 81.5134 449.69 84.0035 451.041 85.7255C451.81 86.7315 452.975 87.2614 454.167 87.2614C455.015 87.2614 455.889 86.9705 456.604 86.4135C457.611 85.6195 458.141 84.4545 458.141 83.2885Z" fill="#E5320F"/>
<path d="M385.982 152.507C385.717 152.454 385.453 152.428 385.214 152.428C383.36 152.428 381.691 153.726 381.32 155.633C380.87 157.779 382.274 159.872 384.42 160.296C384.685 160.349 384.95 160.375 385.215 160.375C387.07 160.375 388.738 159.077 389.109 157.196C389.162 156.931 389.189 156.666 389.189 156.428C389.188 154.547 387.863 152.878 385.982 152.507Z" fill="#E5320F"/>
<path d="M381.85 173.169C382.115 173.222 382.379 173.249 382.644 173.249C384.498 173.249 386.167 171.951 386.539 170.044C386.592 169.779 386.618 169.541 386.618 169.276C386.618 167.422 385.294 165.753 383.413 165.382C383.148 165.329 382.884 165.302 382.618 165.302C380.764 165.302 379.122 166.6 378.751 168.481C378.3 170.653 379.705 172.746 381.85 173.169Z" fill="#E5320F"/>
<path d="M478.777 67.1039C478.777 66.2559 478.511 65.3819 477.929 64.6409C477.16 63.6339 475.994 63.1309 474.829 63.1309C473.955 63.1309 473.081 63.3959 472.365 63.9789C470.617 65.3299 470.326 67.8199 471.677 69.5419C472.472 70.5489 473.637 71.0789 474.803 71.0789C475.677 71.0789 476.525 70.7869 477.266 70.2309C478.273 69.4619 478.777 68.2959 478.777 67.1039Z" fill="#E5320F"/>
<path d="M468.446 75.183C468.446 74.335 468.18 73.461 467.598 72.746C466.803 71.739 465.637 71.209 464.472 71.209C463.624 71.209 462.75 71.501 462.034 72.057C460.312 73.408 459.994 75.925 461.346 77.646C462.141 78.653 463.306 79.156 464.498 79.156C465.346 79.156 466.22 78.891 466.935 78.308C467.942 77.514 468.446 76.375 468.446 75.183Z" fill="#E5320F"/>
<path d="M634.06 101.805L633.557 101.54C633.477 102.467 633.716 103.421 634.325 104.216C634.908 105.01 635.703 105.514 636.577 105.726V105.646C636.419 104.031 635.491 102.6 634.06 101.805Z" fill="#E5320F"/>
<path d="M574.485 144.719C573.664 144.719 572.842 144.957 572.128 145.487C570.379 146.811 570.009 149.301 571.307 151.05C572.101 152.11 573.293 152.666 574.512 152.666C575.333 152.666 576.155 152.401 576.869 151.872C577.929 151.103 578.485 149.912 578.485 148.693C578.485 147.872 578.219 147.024 577.69 146.309C576.895 145.276 575.703 144.719 574.485 144.719Z" fill="#E5320F"/>
<path d="M626.988 105.7C626.167 105.7 625.345 105.938 624.631 106.468C622.882 107.766 622.511 110.282 623.81 112.031C624.605 113.09 625.796 113.62 627.015 113.62C627.836 113.62 628.658 113.382 629.372 112.852C630.432 112.058 630.988 110.866 630.988 109.647C630.988 108.826 630.722 108.004 630.193 107.289C629.424 106.256 628.206 105.7 626.988 105.7Z" fill="#E5320F"/>
<path d="M385.479 285.195C384.658 285.195 383.81 285.46 383.095 285.99C382.406 286.493 381.929 287.209 381.717 288.004C381.77 288.03 381.85 288.03 381.903 288.057L389.346 289.991C389.426 289.726 389.452 289.434 389.452 289.17C389.452 288.349 389.187 287.527 388.657 286.813C387.889 285.752 386.698 285.195 385.479 285.195Z" fill="#E5320F"/>
<path d="M605.981 121.303C605.16 121.303 604.339 121.541 603.625 122.071C601.877 123.395 601.506 125.885 602.804 127.634C603.599 128.694 604.79 129.25 606.008 129.25C606.829 129.25 607.652 128.985 608.366 128.455C609.426 127.687 609.981 126.495 609.981 125.276C609.981 124.455 609.716 123.607 609.186 122.892C608.419 121.859 607.2 121.303 605.981 121.303Z" fill="#E5320F"/>
<path d="M616.498 113.488C615.677 113.488 614.855 113.753 614.141 114.283C612.366 115.581 611.995 118.071 613.32 119.846C614.089 120.879 615.28 121.435 616.499 121.435C617.32 121.435 618.168 121.17 618.883 120.64C619.916 119.872 620.473 118.653 620.473 117.461C620.473 116.64 620.235 115.819 619.704 115.104C618.908 114.044 617.716 113.488 616.498 113.488Z" fill="#E5320F"/>
<path d="M595.491 129.117C594.671 129.117 593.848 129.355 593.134 129.885C591.36 131.183 591.015 133.673 592.313 135.448C593.082 136.481 594.3 137.037 595.519 137.037C596.339 137.037 597.161 136.798 597.876 136.268C598.909 135.474 599.465 134.281 599.465 133.063C599.465 132.242 599.227 131.42 598.697 130.706C597.902 129.673 596.71 129.117 595.491 129.117Z" fill="#E5320F"/>
<path d="M585.001 136.905C584.181 136.905 583.333 137.17 582.617 137.7C580.869 138.998 580.498 141.488 581.796 143.236C582.591 144.296 583.783 144.852 585.001 144.852C585.822 144.852 586.644 144.587 587.359 144.057C588.419 143.289 588.974 142.097 588.974 140.878C588.974 140.057 588.709 139.209 588.18 138.494C587.412 137.461 586.219 136.905 585.001 136.905Z" fill="#E5320F"/>
<path d="M448.472 238.361C447.651 238.361 446.829 238.626 446.115 239.156C444.34 240.454 443.996 242.944 445.294 244.719C446.089 245.779 447.28 246.309 448.499 246.309C449.32 246.309 450.142 246.071 450.856 245.54C451.889 244.745 452.446 243.554 452.446 242.335C452.446 241.514 452.207 240.692 451.677 239.978C450.882 238.918 449.691 238.361 448.472 238.361Z" fill="#E5320F"/>
<path d="M490.485 207.156C489.664 207.156 488.842 207.394 488.128 207.924C486.354 209.249 485.982 211.738 487.307 213.487C488.076 214.546 489.267 215.103 490.486 215.103C491.307 215.103 492.155 214.838 492.871 214.309C493.903 213.54 494.46 212.348 494.46 211.13C494.46 210.309 494.195 209.461 493.665 208.746C492.896 207.713 491.677 207.156 490.485 207.156Z" fill="#E5320F"/>
<path d="M479.995 214.944C479.174 214.944 478.327 215.209 477.611 215.738C475.863 217.063 475.492 219.526 476.79 221.301C477.585 222.361 478.777 222.917 479.995 222.917C480.816 222.917 481.638 222.652 482.353 222.122C483.413 221.354 483.968 220.162 483.968 218.943C483.968 218.095 483.703 217.274 483.173 216.559C482.406 215.5 481.213 214.944 479.995 214.944Z" fill="#E5320F"/>
<path d="M501.002 199.342C500.154 199.342 499.333 199.607 498.618 200.136C496.843 201.434 496.499 203.924 497.797 205.699C498.592 206.732 499.783 207.288 501.002 207.288C501.823 207.288 502.645 207.05 503.359 206.52C504.392 205.725 504.949 204.533 504.949 203.315C504.949 202.494 504.711 201.672 504.18 200.957C503.385 199.898 502.194 199.342 501.002 199.342Z" fill="#E5320F"/>
<path d="M563.995 152.507C563.174 152.507 562.352 152.772 561.638 153.302C559.863 154.6 559.492 157.09 560.817 158.865C561.586 159.898 562.803 160.454 563.996 160.454C564.817 160.454 565.665 160.216 566.38 159.686C567.413 158.891 567.97 157.699 567.97 156.48C567.97 155.659 567.732 154.838 567.201 154.123C566.405 153.064 565.213 152.507 563.995 152.507Z" fill="#E5320F"/>
<path d="M469.48 222.759C468.659 222.759 467.836 223.024 467.121 223.554C465.347 224.852 465.002 227.342 466.3 229.116C467.069 230.149 468.288 230.706 469.481 230.706C470.329 230.706 471.149 230.441 471.865 229.938C472.898 229.144 473.453 227.951 473.453 226.733C473.453 225.912 473.215 225.09 472.685 224.376C471.889 223.315 470.698 222.759 469.48 222.759Z" fill="#E5320F"/>
<path d="M458.962 230.573C458.141 230.573 457.319 230.811 456.604 231.342C454.856 232.666 454.485 235.156 455.784 236.905C456.578 237.965 457.77 238.521 458.989 238.521C459.809 238.521 460.631 238.256 461.346 237.726C462.406 236.957 462.962 235.766 462.962 234.547C462.962 233.726 462.696 232.878 462.167 232.163C461.399 231.13 460.18 230.573 458.962 230.573Z" fill="#E5320F"/>
<path d="M542.988 168.136C542.167 168.136 541.346 168.374 540.631 168.904C538.857 170.229 538.512 172.718 539.81 174.467C540.579 175.527 541.797 176.083 542.989 176.083C543.81 176.083 544.658 175.818 545.374 175.289C546.406 174.521 546.963 173.302 546.963 172.083C546.963 171.262 546.725 170.441 546.195 169.725C545.399 168.693 544.207 168.136 542.988 168.136Z" fill="#E5320F"/>
<path d="M553.504 160.322C552.683 160.322 551.835 160.587 551.12 161.117C549.371 162.415 549.001 164.905 550.299 166.654C551.094 167.714 552.285 168.27 553.504 168.27C554.325 168.27 555.147 168.005 555.861 167.476C556.921 166.707 557.477 165.515 557.477 164.297C557.477 163.476 557.212 162.628 556.682 161.913C555.916 160.878 554.723 160.322 553.504 160.322Z" fill="#E5320F"/>
<path d="M532.498 175.925C531.677 175.925 530.829 176.19 530.114 176.719C528.366 178.017 527.995 180.507 529.293 182.282C530.088 183.315 531.28 183.871 532.498 183.871C533.319 183.871 534.141 183.633 534.856 183.103C535.916 182.308 536.471 181.116 536.471 179.898C536.471 179.077 536.206 178.255 535.676 177.54C534.909 176.481 533.716 175.925 532.498 175.925Z" fill="#E5320F"/>
<path d="M521.982 183.739C521.161 183.739 520.339 184.004 519.624 184.534C517.85 185.832 517.505 188.322 518.803 190.07C519.572 191.13 520.79 191.686 521.983 191.686C522.831 191.686 523.652 191.421 524.367 190.892C525.4 190.123 525.956 188.905 525.956 187.686C525.956 186.865 525.718 186.044 525.188 185.329C524.392 184.295 523.2 183.739 521.982 183.739Z" fill="#E5320F"/>
<path d="M511.492 191.527C510.671 191.527 509.823 191.792 509.108 192.321C507.359 193.646 506.988 196.109 508.313 197.884C509.081 198.944 510.273 199.5 511.492 199.5C512.313 199.5 513.161 199.235 513.876 198.706C514.909 197.938 515.466 196.746 515.466 195.527C515.466 194.706 515.2 193.858 514.671 193.143C513.902 192.083 512.711 191.527 511.492 191.527Z" fill="#E5320F"/>
<path d="M427.465 253.99C426.644 253.99 425.822 254.228 425.108 254.759C423.36 256.083 422.989 258.573 424.287 260.322C425.082 261.382 426.274 261.938 427.492 261.938C428.313 261.938 429.135 261.673 429.85 261.143C430.909 260.375 431.465 259.183 431.465 257.964C431.465 257.143 431.2 256.295 430.67 255.58C429.877 254.547 428.684 253.99 427.465 253.99Z" fill="#E5320F"/>
<path d="M416.975 261.778C416.155 261.778 415.333 262.043 414.618 262.573C412.844 263.871 412.472 266.361 413.797 268.136C414.566 269.169 415.784 269.726 416.976 269.726C417.797 269.726 418.645 269.488 419.361 268.957C420.394 268.163 420.95 266.971 420.95 265.752C420.95 264.931 420.712 264.109 420.182 263.395C419.386 262.335 418.194 261.778 416.975 261.778Z" fill="#E5320F"/>
<path d="M395.969 277.407C395.148 277.407 394.326 277.645 393.612 278.176C391.837 279.5 391.466 281.99 392.791 283.739C393.559 284.799 394.751 285.355 395.97 285.355C396.791 285.355 397.639 285.09 398.354 284.56C399.387 283.792 399.944 282.574 399.944 281.355C399.944 280.534 399.705 279.712 399.175 278.998C398.379 277.964 397.188 277.407 395.969 277.407Z" fill="#E5320F"/>
<path d="M406.486 269.593C405.665 269.593 404.817 269.858 404.101 270.388C402.353 271.686 401.982 274.176 403.28 275.924C404.075 276.984 405.267 277.54 406.486 277.54C407.307 277.54 408.129 277.275 408.843 276.745C409.903 275.976 410.458 274.785 410.458 273.566C410.458 272.745 410.193 271.897 409.664 271.182C408.896 270.149 407.704 269.593 406.486 269.593Z" fill="#E5320F"/>
<path d="M437.982 246.175C437.161 246.175 436.339 246.44 435.625 246.97C433.851 248.268 433.479 250.758 434.804 252.533C435.573 253.566 436.764 254.123 437.983 254.123C438.804 254.123 439.652 253.858 440.34 253.328C441.4 252.559 441.956 251.368 441.956 250.149C441.956 249.328 441.691 248.506 441.161 247.792C440.393 246.732 439.201 246.175 437.982 246.175Z" fill="#E5320F"/>
<path d="M391.069 297.275L377.108 293.645C376.472 293.221 375.705 293.009 374.962 293.009C374.883 293.009 374.776 293.009 374.697 293.035L372.259 292.399L365.611 274.148C365.585 274.095 365.585 274.042 365.558 274.015C365.028 272.664 363.756 271.737 362.326 271.551C360.816 271.393 359.333 272.108 358.538 273.379L358.379 273.617L348.102 289.75L328.684 290.412C327.174 290.465 325.824 291.392 325.188 292.769C324.579 294.147 324.791 295.762 325.745 296.928L338.089 311.921L332.738 330.57C332.341 332.026 332.764 333.59 333.903 334.623C335.016 335.63 336.605 335.921 338.009 335.364L356.102 328.264L372.181 339.125C372.87 339.575 373.638 339.787 374.406 339.787C375.095 339.787 375.758 339.629 376.393 339.284C377.691 338.515 378.459 337.085 378.379 335.575L377.214 316.211L392.498 304.238C393.69 303.31 394.246 301.774 393.955 300.291C393.638 298.838 392.526 297.645 391.069 297.275Z" fill="white"/>
<path d="M130.196 432.506C130.01 431.658 129.348 431.023 128.527 430.811L117.851 428.268L113.877 418.016C113.586 417.222 112.845 416.665 111.996 416.586C111.148 416.506 110.328 416.93 109.877 417.646L104.155 427.023L93.1878 427.606C92.3138 427.659 91.5728 428.189 91.2278 428.983C90.9108 429.752 91.0418 430.678 91.5988 431.314L98.7238 439.659L95.9158 450.281C95.7838 450.705 95.8109 451.182 95.9699 451.58C96.0749 451.95 96.2869 452.295 96.6059 452.533C97.2419 453.116 98.1418 453.249 98.9368 452.93L109.083 448.718L118.301 454.678C119.017 455.156 119.944 455.156 120.686 454.732C121.401 454.281 121.825 453.46 121.772 452.612L121.03 443.156L120.898 441.673L124.474 438.785L129.427 434.759C130.089 434.201 130.381 433.327 130.196 432.506Z" fill="white"/>
<path d="M519.042 20.9589L523.863 23.6339L528.631 26.3099L528.949 29.7009L529.637 37.2509C529.716 38.0989 530.273 38.8399 531.094 39.1579C531.889 39.4499 532.789 39.2639 533.425 38.7079L541.478 31.2379L552.18 33.6219C552.63 33.7279 553.08 33.7009 553.504 33.5159C553.849 33.3829 554.166 33.1449 554.432 32.8529C554.961 32.1909 555.067 31.2639 554.723 30.4959L550.087 20.5359L555.703 11.0789C556.127 10.3369 556.099 9.40993 555.649 8.69493C555.172 7.97993 554.351 7.60891 553.503 7.68791L542.589 9.01293L535.331 0.774888C534.774 0.112888 533.874 -0.152077 533.053 0.0859233C532.232 0.297923 531.596 0.986908 531.437 1.80791L529.318 12.5889L519.226 16.9599C518.457 17.2769 517.927 18.0459 517.874 18.8939C517.849 19.7399 518.273 20.5609 519.042 20.9589Z" fill="white"/>
<path d="M666.908 83.1295C666.431 82.4145 665.61 82.0435 664.762 82.1235L653.848 83.4475L646.59 75.2095C646.033 74.5475 645.133 74.2825 644.312 74.5205C643.491 74.7325 642.855 75.4215 642.696 76.2425L640.577 87.0235L630.484 91.3945C629.716 91.7115 629.186 92.4805 629.133 93.3285C629.107 94.1765 629.53 94.9975 630.299 95.4215L635.623 98.3885L639.888 100.773L640.259 104.692L640.895 111.685C640.974 112.533 641.531 113.275 642.352 113.593C643.146 113.885 644.047 113.725 644.683 113.143L652.736 105.672L663.438 108.057C663.888 108.163 664.338 108.135 664.762 107.95C665.106 107.817 665.424 107.579 665.689 107.287C666.219 106.625 666.325 105.698 665.981 104.93L661.345 94.9705L666.96 85.5135C667.384 84.7725 667.358 83.8455 666.908 83.1295Z" fill="white"/>
<path d="M402.989 143.872C403.254 143.819 403.519 143.686 403.731 143.501C404.208 143.13 404.418 142.495 404.286 141.912L402.46 134.256L407.731 128.402C408.128 127.951 408.234 127.289 408.022 126.733C407.784 126.15 407.252 125.779 406.643 125.727L406.007 125.674L398.802 125.091L398.776 125.012L394.884 118.283C394.566 117.753 393.983 117.435 393.374 117.462C392.765 117.515 392.233 117.886 391.995 118.469L388.974 125.727L381.267 127.369C380.684 127.475 380.206 127.952 380.047 128.534C379.888 129.143 380.102 129.753 380.552 130.15L386.538 135.263L386.035 139.978L385.717 143.103C385.638 143.712 385.928 144.295 386.458 144.64C386.961 144.958 387.624 144.958 388.154 144.64L391.597 142.521L394.856 140.534L402.061 143.739C402.353 143.872 402.671 143.925 402.989 143.872Z" fill="white"/>
<path d="M215.44 460.982L216.076 454.942L216.235 453.379C216.261 453.193 216.235 453.008 216.182 452.823C216.182 452.823 216.182 452.823 216.182 452.796C216.102 452.426 215.864 452.108 215.52 451.896C215.016 451.579 214.38 451.579 213.877 451.896L207.36 455.87L200.367 452.77C199.81 452.505 199.175 452.611 198.724 452.982C198.273 453.353 198.062 453.962 198.195 454.545L198.591 456.16L199.969 461.988L198.088 464.081L194.857 467.657C194.46 468.107 194.353 468.743 194.565 469.3C194.777 469.856 195.307 470.227 195.889 470.279L203.519 470.888L207.333 477.511C207.491 477.776 207.73 478.014 207.995 478.147C208.233 478.252 208.524 478.305 208.79 478.279C209.399 478.253 209.902 477.882 210.141 477.326L213.081 470.279L220.552 468.69C221.134 468.557 221.612 468.107 221.743 467.55C221.902 466.968 221.69 466.359 221.24 465.961L215.44 460.982Z" fill="white"/>
<path d="M0 302.291H12.936V335.219H19.114V302.291H32.1111V296.755H0V302.291Z" fill="white"/>
<path d="M53.9072 296.113L36.9473 335.218H43.5333L46.2712 328.808H63.5813L66.3182 335.218H72.9633L56.0052 296.113H53.9072ZM48.4863 323.505L54.9563 307.594L61.3663 323.505H48.4863Z" fill="white"/>
<path d="M111.397 331.488C114.329 328.575 115.796 324.633 115.796 319.658V296.755H109.619V320.066C109.619 323.254 108.744 325.741 106.996 327.528C105.247 329.316 102.935 330.209 100.06 330.209C97.1471 330.209 94.8051 329.316 93.0381 327.528C91.2691 325.741 90.3871 323.254 90.3871 320.066V296.755H84.209V319.658C84.209 324.633 85.676 328.575 88.609 331.488C91.543 334.403 95.3591 335.86 100.06 335.86C104.685 335.86 108.463 334.403 111.397 331.488Z" fill="white"/>
<path d="M157.202 315.171C158.503 313.268 159.155 311.053 159.155 308.526C159.155 305.069 157.949 302.243 155.541 300.047C153.132 297.853 149.984 296.754 146.101 296.754H132.056V335.218H138.234V320.358H145.285L156.242 335.218H163.294L151.755 319.366C154.085 318.473 155.9 317.075 157.202 315.171ZM145.983 314.879H138.233V302.233H145.983C148.082 302.233 149.743 302.817 150.965 303.982C152.189 305.147 152.802 306.683 152.802 308.586C152.802 310.49 152.189 312.017 150.965 313.161C149.743 314.307 148.082 314.879 145.983 314.879Z" fill="white"/>
<path d="M205.836 319.658V296.755H199.658V320.066C199.658 323.254 198.784 325.741 197.035 327.528C195.286 329.316 192.974 330.209 190.099 330.209C187.186 330.209 184.845 329.316 183.077 327.528C181.309 325.741 180.426 323.254 180.426 320.066V296.755H174.248V319.658C174.248 324.633 175.715 328.575 178.649 331.488C181.583 334.403 185.4 335.86 190.1 335.86C194.724 335.86 198.502 334.403 201.436 331.488C204.368 328.575 205.836 324.633 205.836 319.658Z" fill="white"/>
<path d="M244.269 318.493C242.811 316.823 240.47 315.249 237.246 313.771L232.933 311.79C232.817 311.714 232.642 311.615 232.41 311.499C231.128 310.84 230.37 310.45 230.138 310.334C229.904 310.218 229.496 309.917 228.912 309.431C228.33 308.945 227.971 308.479 227.835 308.032C227.698 307.586 227.611 307.012 227.572 306.313C227.572 304.837 228.115 303.691 229.204 302.875C230.291 302.06 231.69 301.651 233.4 301.651C236.701 301.651 239.403 303.205 241.501 306.313L245.814 302.992C244.609 300.893 242.91 299.223 240.714 297.979C238.519 296.736 236.081 296.114 233.401 296.114C229.981 296.114 227.107 297.087 224.777 299.028C222.444 300.972 221.279 303.478 221.279 306.546C221.279 308.994 222.027 311.045 223.523 312.695C225.018 314.346 227.261 315.852 230.254 317.212L234.508 319.193C236.644 320.204 238.12 321.087 238.937 321.844C239.753 322.601 240.161 323.641 240.161 324.961C240.161 326.594 239.55 327.895 238.326 328.867C237.102 329.838 235.5 330.324 233.517 330.324C229.593 330.324 226.233 328.283 223.435 324.203L219.064 327.527C220.579 330.13 222.599 332.168 225.126 333.645C227.65 335.123 230.468 335.86 233.576 335.86C237.306 335.86 240.385 334.83 242.812 332.771C245.24 330.711 246.455 328.032 246.455 324.728C246.454 322.242 245.725 320.164 244.269 318.493Z" fill="white"/>
</svg>
