<svg width="758" height="344" viewBox="0 0 758 344" fill="none" xmlns="http://www.w3.org/2000/svg">
<path d="M68.8015 103.977C69.5165 103.977 70.2315 103.791 70.8675 103.394C72.0865 102.653 72.7755 101.328 72.7755 100.003C72.7755 99.2883 72.5895 98.5723 72.1925 97.9373C71.4505 96.7193 70.1265 96.0303 68.8015 96.0303C68.0865 96.0303 67.3715 96.2163 66.7355 96.6133C64.8555 97.7523 64.2725 100.216 65.4115 102.07C66.1525 103.288 67.4765 103.977 68.8015 103.977Z" fill="#E5320F"/>
<path d="M46.7888 117.434C47.5038 117.434 48.2198 117.248 48.8548 116.851C50.0728 116.11 50.7619 114.785 50.7619 113.434C50.7619 112.746 50.5758 112.03 50.1788 111.368C49.4368 110.149 48.1388 109.487 46.7878 109.487C46.0998 109.487 45.3838 109.673 44.7218 110.07C42.8418 111.209 42.2588 113.646 43.3978 115.527C44.1398 116.745 45.4638 117.434 46.7888 117.434Z" fill="#E5320F"/>
<path d="M134.813 63.6335C135.528 63.6335 136.244 63.4475 136.879 63.0505C136.985 62.9975 137.065 62.9175 137.144 62.8645C134.893 61.6985 133.674 58.8115 134.998 56.2155L135.263 55.7125C135.104 55.6865 134.972 55.6865 134.813 55.6865C134.124 55.6865 133.409 55.8725 132.747 56.2695C130.866 57.4085 130.283 59.8454 131.422 61.7264C132.164 62.9434 133.489 63.6335 134.813 63.6335Z" fill="#E5320F"/>
<path d="M57.808 110.705C58.497 110.705 59.212 110.519 59.874 110.122C61.092 109.381 61.781 108.056 61.781 106.705C61.781 106.017 61.596 105.301 61.199 104.665C60.431 103.447 59.133 102.758 57.781 102.758C57.092 102.758 56.377 102.944 55.715 103.341C53.86 104.481 53.251 106.917 54.417 108.798C55.159 110.017 56.458 110.705 57.808 110.705Z" fill="#E5320F"/>
<path d="M79.7947 97.2478C80.5097 97.2478 81.2256 97.0618 81.8876 96.6648C83.1056 95.9238 83.7687 94.6258 83.7687 93.2738C83.7687 92.5858 83.5826 91.8708 83.1856 91.2078C82.4436 89.9898 81.1467 89.3008 79.7947 89.3008C79.1057 89.3008 78.3906 89.4868 77.7286 89.8838C75.8476 91.0238 75.2647 93.4868 76.4037 95.3408C77.1717 96.5858 78.4697 97.2478 79.7947 97.2478Z" fill="#E5320F"/>
<path d="M112.827 77.0616C113.515 77.0616 114.231 76.8766 114.893 76.5056C116.112 75.7366 116.775 74.4396 116.775 73.0876C116.775 72.3996 116.589 71.6846 116.193 71.0226C115.451 69.8036 114.152 69.1416 112.801 69.1416C112.113 69.1416 111.398 69.3276 110.736 69.7246C108.855 70.8636 108.271 73.3007 109.41 75.1807C110.178 76.3997 111.476 77.0616 112.827 77.0616Z" fill="#E5320F"/>
<path d="M123.82 70.361C124.535 70.361 125.25 70.175 125.886 69.778C127.105 69.036 127.794 67.712 127.794 66.387C127.794 65.671 127.608 64.956 127.211 64.321C126.469 63.102 125.145 62.4141 123.82 62.4141C123.105 62.4141 122.389 62.5999 121.754 62.9969C119.873 64.1359 119.291 66.573 120.43 68.453C121.171 69.672 122.469 70.361 123.82 70.361Z" fill="#E5320F"/>
<path d="M35.7949 124.135C36.5099 124.135 37.2249 123.949 37.8609 123.552C39.0799 122.81 39.7679 121.512 39.7679 120.161C39.7679 119.473 39.5829 118.757 39.1849 118.095C38.4429 116.876 37.1189 116.188 35.7679 116.188C35.0799 116.188 34.3639 116.374 33.7289 116.771C31.8479 117.936 31.2659 120.375 32.4049 122.255C33.1459 123.474 34.4439 124.135 35.7949 124.135Z" fill="#E5320F"/>
<path d="M92.881 89.9373C94.1 89.1953 94.789 87.8973 94.789 86.5453C94.789 85.8573 94.603 85.1422 94.206 84.4802C93.464 83.2612 92.14 82.5723 90.815 82.5723C90.1 82.5723 89.384 82.7583 88.749 83.1553C86.868 84.2953 86.259 86.7583 87.424 88.6123C88.166 89.8573 89.464 90.5193 90.815 90.5193C91.53 90.5203 92.219 90.3343 92.881 89.9373Z" fill="#E5320F"/>
<path d="M103.875 83.2078C105.093 82.4668 105.782 81.1688 105.782 79.8168C105.782 79.1288 105.597 78.4137 105.199 77.7517C104.457 76.5327 103.133 75.8447 101.808 75.8447C101.093 75.8447 100.377 76.0308 99.7416 76.4268C97.8606 77.5928 97.2786 80.0298 98.4176 81.9098C99.1596 83.1288 100.484 83.7908 101.809 83.7908C102.523 83.7908 103.239 83.6048 103.875 83.2078Z" fill="#E5320F"/>
<path d="M28.7484 126.891C28.7484 126.573 28.7214 126.255 28.6424 125.937L26.8145 130.307C26.8415 130.307 26.8414 130.281 26.8674 130.281C28.0864 129.538 28.7484 128.241 28.7484 126.891Z" fill="#E5320F"/>
<path d="M235.926 101.725C236.403 101.037 236.641 100.242 236.641 99.4736C236.641 98.2026 236.059 96.9566 234.946 96.1886C234.257 95.7116 233.463 95.4736 232.668 95.4736C231.423 95.4736 230.178 96.0567 229.41 97.1687C228.138 98.9697 228.589 101.434 230.39 102.705C231.079 103.182 231.873 103.42 232.668 103.42C233.914 103.42 235.132 102.838 235.926 101.725Z" fill="#E5320F"/>
<path d="M181.755 63.712C182.232 63.024 182.47 62.229 182.47 61.434C182.47 60.163 181.887 58.944 180.775 58.176C180.086 57.672 179.292 57.46 178.497 57.46C177.252 57.46 176.007 58.043 175.239 59.129C173.994 60.931 174.418 63.421 176.219 64.665C176.908 65.169 177.702 65.381 178.497 65.381C179.742 65.381 180.986 64.798 181.755 63.712Z" fill="#E5320F"/>
<path d="M225.092 94.1221C225.569 93.4341 225.807 92.6391 225.807 91.8441C225.807 90.6001 225.224 89.3552 224.112 88.5862C223.423 88.1092 222.628 87.8711 221.834 87.8711C220.589 87.8711 219.344 88.4532 218.576 89.5662C217.331 91.3672 217.755 93.8312 219.556 95.1022C220.245 95.5792 221.039 95.8171 221.834 95.8171C223.079 95.8171 224.297 95.2351 225.092 94.1221Z" fill="#E5320F"/>
<path d="M411.157 133.62C411.157 131.421 409.382 129.646 407.184 129.646C404.985 129.646 403.21 131.42 403.21 133.62C403.21 135.818 404.985 137.594 407.184 137.594C409.382 137.594 411.157 135.818 411.157 133.62Z" fill="#E5320F"/>
<path d="M316.005 129.937L312.614 134.732C312.243 135.261 311.925 135.818 311.687 136.401C312.402 137.142 313.409 137.593 314.521 137.593C316.72 137.593 318.495 135.818 318.495 133.619C318.496 131.95 317.462 130.52 316.005 129.937Z" fill="#E5320F"/>
<path d="M354.231 129.646C352.032 129.646 350.257 131.42 350.257 133.62C350.257 135.818 352.032 137.594 354.231 137.594C356.43 137.594 358.205 135.819 358.205 133.62C358.204 131.42 356.429 129.646 354.231 129.646Z" fill="#E5320F"/>
<path d="M436.72 131.129C436.005 130.229 434.892 129.646 433.647 129.646C431.449 129.646 429.674 131.42 429.674 133.62C429.674 135.235 430.628 136.613 432.005 137.223L435.793 133.223C436.323 132.639 436.667 131.924 436.72 131.129Z" fill="#E5320F"/>
<path d="M341.012 129.646C338.813 129.646 337.012 131.42 337.012 133.62C337.012 135.818 338.813 137.594 341.012 137.594C343.184 137.594 344.985 135.819 344.985 133.62C344.985 131.42 343.184 129.646 341.012 129.646Z" fill="#E5320F"/>
<path d="M246.733 109.354C247.236 108.665 247.475 107.843 247.475 107.049C247.475 105.804 246.892 104.559 245.78 103.79C245.091 103.313 244.297 103.075 243.502 103.075C242.257 103.075 241.012 103.658 240.243 104.77C238.972 106.571 239.422 109.035 241.223 110.306C241.912 110.81 242.706 111.021 243.501 111.021C244.746 111.022 245.965 110.44 246.733 109.354Z" fill="#E5320F"/>
<path d="M197.887 79.897C198.576 80.374 199.37 80.6121 200.165 80.6121C201.41 80.6121 202.629 80.029 203.423 78.917C203.9 78.229 204.138 77.434 204.138 76.639C204.138 75.394 203.555 74.15 202.443 73.381C201.754 72.904 200.96 72.665 200.165 72.665C198.92 72.665 197.702 73.248 196.907 74.361C195.662 76.136 196.086 78.626 197.887 79.897Z" fill="#E5320F"/>
<path d="M208.72 87.4995C209.409 87.9765 210.203 88.2145 210.998 88.2145C212.243 88.2145 213.462 87.6325 214.256 86.5195C214.733 85.8315 214.971 85.0366 214.971 84.2416C214.971 82.9976 214.388 81.7525 213.276 80.9835C212.587 80.5065 211.793 80.2686 210.998 80.2686C209.753 80.2686 208.535 80.8505 207.74 81.9635C206.469 83.7645 206.919 86.2285 208.72 87.4995Z" fill="#E5320F"/>
<path d="M252.031 117.91C252.322 118.122 252.588 118.281 252.905 118.388H252.931L257.037 116.984C257.275 116.904 257.514 116.825 257.726 116.692C258.123 116.056 258.309 115.341 258.309 114.653C258.309 113.408 257.726 112.189 256.614 111.421C255.925 110.918 255.131 110.706 254.336 110.706C253.091 110.706 251.846 111.289 251.078 112.375C249.806 114.175 250.257 116.665 252.031 117.91Z" fill="#E5320F"/>
<path d="M367.476 137.594C369.675 137.594 371.449 135.819 371.449 133.62C371.449 131.421 369.675 129.646 367.476 129.646C365.277 129.646 363.502 131.42 363.502 133.62C363.502 135.818 365.277 137.594 367.476 137.594Z" fill="#E5320F"/>
<path d="M168.722 57.6462C169.57 57.4082 170.364 56.8782 170.921 56.1102C171.345 55.5012 171.583 54.7863 171.61 54.0703L171.319 54.2292C169.967 54.8912 169.013 56.1622 168.722 57.6462Z" fill="#E5320F"/>
<path d="M380.719 137.594C382.891 137.594 384.693 135.819 384.693 133.62C384.693 131.421 382.892 129.646 380.719 129.646C378.521 129.646 376.746 131.42 376.746 133.62C376.746 135.818 378.521 137.594 380.719 137.594Z" fill="#E5320F"/>
<path d="M187.053 72.2695C187.742 72.7725 188.536 73.0105 189.331 73.0105C190.576 73.0105 191.821 72.4016 192.589 71.3156C193.066 70.6276 193.304 69.8325 193.304 69.0375C193.304 67.7665 192.721 66.5485 191.609 65.7795C190.92 65.3025 190.126 65.0635 189.331 65.0635C188.086 65.0635 186.868 65.6465 186.073 66.7595C184.801 68.5335 185.252 71.0235 187.053 72.2695Z" fill="#E5320F"/>
<path d="M393.939 137.594C396.138 137.594 397.913 135.819 397.913 133.62C397.913 131.421 396.138 129.646 393.939 129.646C391.74 129.646 389.965 131.42 389.965 133.62C389.965 135.818 391.74 137.594 393.939 137.594Z" fill="#E5320F"/>
<path d="M420.428 137.594C422.6 137.594 424.402 135.819 424.402 133.62C424.402 131.421 422.601 129.646 420.428 129.646C418.229 129.646 416.455 131.42 416.455 133.62C416.455 135.818 418.229 137.594 420.428 137.594Z" fill="#E5320F"/>
<path d="M327.767 129.646C325.568 129.646 323.793 131.42 323.793 133.62C323.793 135.818 325.568 137.594 327.767 137.594C329.966 137.594 331.741 135.819 331.741 133.62C331.741 131.42 329.966 129.646 327.767 129.646Z" fill="#E5320F"/>
<path d="M489.275 87.2623C490.414 87.2623 491.527 86.7854 492.321 85.8584C492.957 85.1174 493.248 84.1894 493.248 83.2894C493.248 82.1504 492.771 81.0374 491.844 80.2424C491.102 79.6064 490.175 79.3154 489.274 79.3154C488.135 79.3154 487.022 79.7924 486.228 80.7194C484.824 82.4144 485.036 84.9314 486.704 86.3344C487.474 86.9704 488.374 87.2623 489.275 87.2623Z" fill="#E5320F"/>
<path d="M472.323 107.394C473.462 107.394 474.575 106.917 475.369 105.991C476.005 105.249 476.296 104.322 476.296 103.421C476.296 102.282 475.819 101.17 474.892 100.375C474.15 99.7392 473.223 99.4482 472.323 99.4482C471.184 99.4482 470.071 99.9252 469.277 100.851C467.873 102.546 468.085 105.063 469.754 106.467C470.521 107.103 471.422 107.394 472.323 107.394Z" fill="#E5320F"/>
<path d="M480.799 97.3269C481.938 97.3269 483.05 96.8498 483.845 95.9238C484.481 95.1818 484.772 94.2549 484.772 93.3549C484.772 92.2149 484.295 91.1029 483.368 90.3079C482.626 89.6719 481.7 89.3809 480.799 89.3809C479.66 89.3809 478.547 89.8579 477.753 90.7849C476.349 92.4789 476.561 94.9959 478.23 96.3999C478.998 97.0359 479.899 97.3269 480.799 97.3269Z" fill="#E5320F"/>
<path d="M497.752 77.1951C498.891 77.1951 500.003 76.718 500.798 75.791C501.434 75.05 501.725 74.122 501.725 73.222C501.725 72.083 501.248 70.97 500.321 70.176C499.579 69.567 498.652 69.248 497.752 69.248C496.639 69.248 495.501 69.726 494.706 70.679C493.302 72.348 493.514 74.838 495.209 76.269C495.951 76.904 496.851 77.1951 497.752 77.1951Z" fill="#E5320F"/>
<path d="M509.275 65.7256C509.911 64.9836 510.202 64.0566 510.202 63.1556C510.202 62.0166 509.725 60.9046 508.798 60.1096C508.056 59.5006 507.129 59.1816 506.228 59.1816C505.116 59.1816 503.977 59.6597 503.182 60.6127C501.778 62.2817 501.99 64.7716 503.659 66.2026C504.427 66.8386 505.328 67.1296 506.228 67.1296C507.368 67.1286 508.48 66.6516 509.275 65.7256Z" fill="#E5320F"/>
<path d="M463.845 117.46C464.984 117.46 466.097 116.983 466.891 116.056C467.527 115.315 467.818 114.388 467.818 113.487C467.818 112.348 467.341 111.235 466.414 110.441C465.673 109.805 464.746 109.513 463.845 109.513C462.706 109.513 461.594 109.991 460.799 110.917C459.395 112.612 459.607 115.129 461.302 116.533C462.043 117.142 462.944 117.46 463.845 117.46Z" fill="#E5320F"/>
<path d="M510.812 53.8838C510.971 54.7048 511.394 55.4738 512.109 56.0828C511.765 55.2878 511.342 54.5468 510.812 53.8838Z" fill="#E5320F"/>
<path d="M113.568 256.823C112.721 256.823 111.873 257.061 111.158 257.618C109.409 258.942 109.065 261.432 110.39 263.181C111.184 264.214 112.376 264.744 113.568 264.744C114.416 264.744 115.237 264.478 115.979 263.949C116.986 263.18 117.516 261.989 117.516 260.77C117.516 259.922 117.278 259.075 116.721 258.359C115.953 257.354 114.761 256.823 113.568 256.823Z" fill="#E5320F"/>
<path d="M92.6681 272.718C91.8201 272.718 90.9731 272.956 90.2571 273.512C88.5091 274.837 88.1651 277.326 89.4891 279.075C90.2841 280.108 91.4761 280.638 92.6681 280.638C93.5161 280.638 94.3371 280.373 95.0791 279.843C96.1121 279.075 96.6421 277.883 96.6421 276.691C96.6421 275.843 96.3771 274.969 95.8211 274.254C95.0521 273.247 93.8601 272.718 92.6681 272.718Z" fill="#E5320F"/>
<path d="M103.106 264.744C102.258 264.744 101.411 265.009 100.696 265.565C98.9478 266.889 98.6298 269.379 99.9538 271.128C100.723 272.161 101.915 272.691 103.106 272.691C103.954 272.691 104.801 272.426 105.517 271.897C106.55 271.128 107.08 269.91 107.08 268.718C107.08 267.87 106.842 267.049 106.285 266.333C105.49 265.3 104.298 264.744 103.106 264.744Z" fill="#E5320F"/>
<path d="M124.007 248.85C123.159 248.85 122.312 249.116 121.596 249.671C119.847 250.996 119.53 253.485 120.854 255.234C121.622 256.266 122.814 256.797 124.006 256.797C124.854 256.797 125.701 256.532 126.417 256.002C127.45 255.234 127.98 254.016 127.98 252.823C127.98 251.975 127.742 251.154 127.186 250.439C126.391 249.406 125.199 248.85 124.007 248.85Z" fill="#E5320F"/>
<path d="M82.2055 280.664C81.3575 280.664 80.5105 280.902 79.7945 281.459C78.0725 282.783 77.7285 285.273 79.0525 287.022C79.8205 288.055 81.0125 288.585 82.2045 288.585C83.0525 288.585 83.8995 288.32 84.6155 287.79C85.6485 287.021 86.1785 285.804 86.1785 284.611C86.1785 283.763 85.9395 282.916 85.3835 282.2C84.6155 281.194 83.4235 280.664 82.2055 280.664Z" fill="#E5320F"/>
<path d="M69.8076 289.114C70.8406 290.042 72.1126 290.73 73.5166 291.101L75.6096 291.63C75.5026 291.101 75.2646 290.623 74.9206 290.173C74.1526 289.14 72.9606 288.584 71.7686 288.584C71.0796 288.585 70.4166 288.744 69.8076 289.114Z" fill="#E5320F"/>
<path d="M163.025 251.499C162.919 251.499 162.839 251.499 162.734 251.525L162.999 252.77C163.529 255.207 162.178 257.379 160.191 258.28C160.985 259.049 161.966 259.446 162.999 259.446C164.005 259.446 165.012 259.075 165.78 258.333C166.574 257.539 166.972 256.506 166.972 255.473C166.972 254.466 166.601 253.459 165.86 252.692C165.091 251.896 164.059 251.499 163.025 251.499Z" fill="#E5320F"/>
<path d="M185.092 274.016C185.092 273.009 184.721 272.002 183.953 271.235C183.185 270.44 182.152 270.043 181.118 270.043C180.112 270.043 179.105 270.414 178.337 271.182C176.774 272.719 176.748 275.235 178.257 276.798C179.052 277.593 180.085 277.99 181.118 277.99C182.098 277.99 183.105 277.619 183.873 276.85C184.695 276.081 185.092 275.049 185.092 274.016Z" fill="#E5320F"/>
<path d="M172.086 260.771C171.079 260.771 170.073 261.142 169.278 261.91C167.715 263.447 167.689 265.963 169.225 267.526C169.993 268.321 171.026 268.718 172.059 268.718C173.066 268.718 174.073 268.346 174.841 267.604C175.636 266.836 176.033 265.804 176.033 264.771C176.033 263.764 175.662 262.757 174.894 261.963C174.126 261.168 173.119 260.771 172.086 260.771Z" fill="#E5320F"/>
<path d="M262.601 274.387C262.309 274.387 262.018 274.44 261.727 274.492C259.581 274.969 258.23 277.088 258.733 279.233C259.13 281.087 260.773 282.333 262.601 282.333C262.892 282.333 263.184 282.307 263.475 282.254C263.687 282.2 263.899 282.148 264.111 282.042C261.197 280.664 260.455 276.797 262.601 274.387Z" fill="#E5320F"/>
<path d="M249.913 277.221C249.648 277.221 249.357 277.274 249.065 277.326C246.92 277.804 245.568 279.949 246.045 282.068C246.469 283.922 248.085 285.194 249.913 285.194C250.205 285.194 250.496 285.141 250.787 285.088C252.641 284.664 253.913 283.049 253.913 281.221C253.913 280.929 253.86 280.638 253.807 280.347C253.383 278.492 251.741 277.221 249.913 277.221Z" fill="#E5320F"/>
<path d="M237.251 280.055C236.959 280.055 236.668 280.109 236.377 280.161C234.231 280.638 232.88 282.783 233.357 284.902C233.781 286.756 235.423 288.028 237.225 288.028C237.517 288.028 237.806 288.002 238.098 287.923C239.953 287.499 241.225 285.883 241.225 284.055C241.225 283.764 241.172 283.473 241.119 283.181C240.695 281.326 239.079 280.055 237.251 280.055Z" fill="#E5320F"/>
<path d="M211.899 285.75C211.607 285.75 211.316 285.804 211.024 285.856C210.203 286.042 209.488 286.465 208.984 287.048L212.772 290.306C213.646 291.075 214.043 292.08 213.964 293.087C215.129 292.372 215.871 291.101 215.871 289.723C215.871 289.432 215.818 289.14 215.765 288.849C215.343 286.995 213.727 285.75 211.899 285.75Z" fill="#E5320F"/>
<path d="M224.562 282.89C224.271 282.89 223.979 282.943 223.688 282.995C221.542 283.473 220.218 285.618 220.695 287.764C221.092 289.592 222.735 290.864 224.563 290.864C224.855 290.864 225.146 290.837 225.437 290.758C227.291 290.361 228.536 288.719 228.536 286.917C228.536 286.626 228.51 286.308 228.431 286.017C228.006 284.161 226.39 282.89 224.562 282.89Z" fill="#E5320F"/>
<path d="M284.324 192.877H284.139C281.967 192.982 280.272 194.837 280.377 197.036C280.483 199.155 282.231 200.824 284.351 200.824C284.404 200.824 284.457 200.797 284.537 200.797C286.656 200.692 288.299 198.943 288.299 196.824V196.638C288.218 194.52 286.443 192.877 284.324 192.877Z" fill="#E5320F"/>
<path d="M284.932 205.513H284.747C282.575 205.618 280.879 207.473 280.985 209.671C281.065 211.791 282.839 213.46 284.932 213.46H285.144C287.263 213.327 288.905 211.579 288.905 209.486V209.3C288.799 207.155 287.051 205.513 284.932 205.513Z" fill="#E5320F"/>
<path d="M290.708 247.208C290.602 245.089 288.854 243.446 286.735 243.446H286.549C284.377 243.551 282.681 245.406 282.787 247.604C282.893 249.724 284.641 251.392 286.734 251.392C286.813 251.392 286.866 251.392 286.946 251.366C289.065 251.261 290.707 249.512 290.707 247.393V247.208H290.708Z" fill="#E5320F"/>
<path d="M283.131 167.579H282.946C280.747 167.684 279.078 169.539 279.157 171.738C279.263 173.884 281.011 175.526 283.131 175.526H283.317C285.462 175.42 287.105 173.672 287.105 171.552V171.366C286.999 169.222 285.251 167.579 283.131 167.579Z" fill="#E5320F"/>
<path d="M283.713 180.215H283.554C281.356 180.32 279.66 182.201 279.766 184.373C279.872 186.519 281.62 188.161 283.739 188.161H283.925C286.071 188.056 287.713 186.307 287.713 184.188V184.002C287.607 181.856 285.806 180.215 283.713 180.215Z" fill="#E5320F"/>
<path d="M287.158 256.082C286.814 256.108 286.469 256.161 286.178 256.267L286.681 256.612C287.767 257.381 289.092 257.672 290.363 257.46C289.621 256.612 288.535 256.083 287.343 256.083L287.158 256.082Z" fill="#E5320F"/>
<path d="M286.151 230.812H285.965C283.766 230.917 282.071 232.771 282.177 234.97C282.283 237.089 284.032 238.731 286.151 238.731H286.337C288.483 238.626 290.125 236.877 290.125 234.757V234.573C290.019 232.454 288.244 230.812 286.151 230.812Z" fill="#E5320F"/>
<path d="M285.541 218.147H285.355C283.156 218.252 281.46 220.108 281.567 222.306C281.673 224.452 283.447 226.094 285.541 226.094H285.726C287.872 225.989 289.514 224.239 289.514 222.12V221.935C289.409 219.79 287.66 218.147 285.541 218.147Z" fill="#E5320F"/>
<path d="M425.302 228.135C424.931 228.135 424.56 228.188 424.189 228.294C422.096 228.93 420.878 231.128 421.513 233.247C422.017 234.97 423.606 236.082 425.328 236.082C425.699 236.082 426.07 236.028 426.44 235.923C428.189 235.394 429.301 233.804 429.301 232.109C429.301 231.738 429.248 231.367 429.142 230.997C428.613 229.247 427.024 228.135 425.302 228.135Z" fill="#E5320F"/>
<path d="M416.799 235.817C416.799 235.446 416.746 235.048 416.64 234.677C416.137 232.955 414.574 231.843 412.852 231.843C412.481 231.843 412.084 231.896 411.713 232.001C409.594 232.61 408.402 234.81 409.038 236.929C409.541 238.651 411.131 239.763 412.826 239.763C413.197 239.763 413.594 239.71 413.965 239.605C415.686 239.102 416.799 237.513 416.799 235.817Z" fill="#E5320F"/>
<path d="M384.058 244.294C384.561 246.042 386.151 247.154 387.872 247.154C388.243 247.154 388.614 247.101 388.985 246.996C390.707 246.466 391.82 244.903 391.82 243.181C391.82 242.811 391.767 242.413 391.661 242.042C391.158 240.32 389.568 239.208 387.847 239.208C387.476 239.208 387.105 239.261 386.735 239.366C384.641 239.976 383.422 242.201 384.058 244.294Z" fill="#E5320F"/>
<path d="M438.945 232.241C440.667 231.711 441.779 230.148 441.779 228.399C441.779 228.029 441.726 227.658 441.62 227.287C441.514 226.942 441.382 226.625 441.196 226.36L440.11 225.751C439.527 225.433 439.05 225.009 438.706 224.559H438.679C438.388 224.48 438.123 224.454 437.831 224.454C437.46 224.454 437.063 224.507 436.692 224.612C434.573 225.221 433.381 227.447 433.99 229.54C434.52 231.288 436.083 232.4 437.804 232.4C438.177 232.399 438.548 232.347 438.945 232.241Z" fill="#E5320F"/>
<path d="M325.41 257.646C325.039 257.646 324.667 257.698 324.296 257.804C322.177 258.44 320.986 260.638 321.595 262.757C322.125 264.479 323.715 265.593 325.41 265.593C325.781 265.593 326.177 265.539 326.548 265.433C328.27 264.93 329.382 263.341 329.382 261.646C329.382 261.275 329.329 260.876 329.223 260.506C328.72 258.757 327.131 257.646 325.41 257.646Z" fill="#E5320F"/>
<path d="M371.554 248.002C372.057 249.725 373.647 250.837 375.369 250.837C375.74 250.837 376.111 250.784 376.481 250.678C378.23 250.149 379.342 248.559 379.342 246.864C379.342 246.493 379.289 246.122 379.183 245.752C378.653 244.003 377.064 242.891 375.369 242.891C374.998 242.891 374.627 242.944 374.256 243.05C372.137 243.685 370.945 245.883 371.554 248.002Z" fill="#E5320F"/>
<path d="M304.244 267.87C304.112 267.446 303.926 267.074 303.688 266.729L303.131 268.557C302.787 269.643 302.839 270.783 303.237 271.816C303.979 271.075 304.402 270.068 304.402 269.008C304.403 268.638 304.35 268.24 304.244 267.87Z" fill="#E5320F"/>
<path d="M350.416 250.28C350.045 250.28 349.648 250.333 349.277 250.439C347.158 251.048 345.966 253.273 346.575 255.366C347.105 257.115 348.668 258.227 350.389 258.227C350.76 258.227 351.158 258.173 351.528 258.068C353.25 257.539 354.362 255.975 354.362 254.227C354.362 253.856 354.309 253.485 354.203 253.115C353.701 251.393 352.111 250.28 350.416 250.28Z" fill="#E5320F"/>
<path d="M312.932 261.354C312.561 261.354 312.164 261.407 311.793 261.512C309.701 262.121 308.482 264.348 309.118 266.441C309.621 268.163 311.211 269.301 312.932 269.301C313.303 269.301 313.674 269.248 314.045 269.115C315.793 268.612 316.906 267.023 316.906 265.301C316.906 264.931 316.853 264.559 316.747 264.188C316.216 262.466 314.654 261.354 312.932 261.354Z" fill="#E5320F"/>
<path d="M337.886 253.963C337.515 253.963 337.144 254.016 336.773 254.121C334.681 254.757 333.462 256.956 334.098 259.075C334.602 260.797 336.191 261.909 337.913 261.909C338.284 261.909 338.655 261.856 339.026 261.751C340.774 261.221 341.887 259.632 341.887 257.937C341.887 257.566 341.834 257.195 341.728 256.824C341.198 255.075 339.608 253.963 337.886 253.963Z" fill="#E5320F"/>
<path d="M366.865 250.519C366.865 250.175 366.812 249.804 366.706 249.433C366.176 247.711 364.613 246.599 362.892 246.599C362.521 246.599 362.123 246.652 361.752 246.757C359.66 247.366 358.441 249.592 359.077 251.685C359.58 253.407 361.17 254.519 362.865 254.519C363.263 254.519 363.633 254.466 364.004 254.361C365.726 253.856 366.865 252.24 366.865 250.519Z" fill="#E5320F"/>
<path d="M400.349 235.525C399.978 235.525 399.58 235.578 399.21 235.684C397.117 236.293 395.925 238.518 396.534 240.611C397.037 242.333 398.627 243.472 400.349 243.472C400.72 243.472 401.091 243.419 401.461 243.313C403.209 242.784 404.322 241.194 404.322 239.472C404.322 239.101 404.269 238.73 404.163 238.36C403.633 236.638 402.07 235.525 400.349 235.525Z" fill="#E5320F"/>
<path d="M455.977 187.552C456.216 187.552 456.454 187.526 456.692 187.499C458.599 187.155 459.95 185.459 459.95 183.578C459.95 183.339 459.924 183.101 459.871 182.863C459.553 180.956 457.884 179.604 455.977 179.604C455.739 179.604 455.5 179.604 455.262 179.657C453.117 180.054 451.686 182.122 452.056 184.294C452.428 186.201 454.097 187.552 455.977 187.552Z" fill="#E5320F"/>
<path d="M453.699 175.049C453.937 175.049 454.176 175.049 454.414 174.996C456.348 174.651 457.699 172.982 457.699 171.101C457.699 170.863 457.673 170.624 457.619 170.386C457.275 168.452 455.606 167.103 453.699 167.103C453.461 167.103 453.222 167.129 452.984 167.182C450.838 167.579 449.408 169.646 449.805 171.791C450.149 173.726 451.818 175.049 453.699 175.049Z" fill="#E5320F"/>
<path d="M452.137 162.52C454.071 162.175 455.422 160.506 455.422 158.599C455.422 158.361 455.396 158.122 455.342 157.884C454.998 155.977 453.302 154.625 451.422 154.625C451.184 154.625 450.972 154.652 450.733 154.679C448.561 155.075 447.13 157.142 447.527 159.315C447.872 161.222 449.54 162.573 451.421 162.573C451.66 162.572 451.899 162.546 452.137 162.52Z" fill="#E5320F"/>
<path d="M455.051 198.413C456.825 197.194 459.316 197.222 461.09 198.81C461.805 198.122 462.229 197.141 462.229 196.081C462.229 195.843 462.203 195.604 462.149 195.366C461.805 193.431 460.136 192.081 458.255 192.081C458.017 192.081 457.778 192.107 457.54 192.16C455.368 192.557 453.938 194.624 454.335 196.769C454.442 197.38 454.706 197.963 455.051 198.413Z" fill="#E5320F"/>
<path d="M617.804 250.996C617.512 250.942 617.221 250.89 616.956 250.89C615.128 250.89 613.486 252.188 613.062 254.016C612.585 256.162 613.963 258.281 616.108 258.757C616.373 258.837 616.664 258.863 616.956 258.863C618.784 258.863 620.426 257.592 620.824 255.737C620.877 255.446 620.93 255.154 620.93 254.863C620.93 253.035 619.659 251.419 617.804 250.996Z" fill="#E5320F"/>
<path d="M604.958 248.187C604.666 248.134 604.375 248.082 604.084 248.082C602.256 248.082 600.64 249.353 600.216 251.208C599.739 253.354 601.117 255.473 603.262 255.949C603.527 256.002 603.818 256.028 604.11 256.028C605.938 256.028 607.58 254.784 607.978 252.903C608.031 252.611 608.084 252.32 608.084 252.055C608.083 250.228 606.812 248.611 604.958 248.187Z" fill="#E5320F"/>
<path d="M579.261 242.546C578.969 242.492 578.678 242.44 578.387 242.44C576.559 242.44 574.943 243.711 574.519 245.566C574.042 247.712 575.42 249.831 577.565 250.307C577.83 250.361 578.122 250.387 578.413 250.387C580.241 250.387 581.883 249.142 582.281 247.287C582.334 246.996 582.387 246.704 582.387 246.413C582.387 244.585 581.116 242.969 579.261 242.546Z" fill="#E5320F"/>
<path d="M566.414 239.712C566.123 239.659 565.832 239.606 565.566 239.606C563.738 239.606 562.096 240.904 561.672 242.757C561.195 244.903 562.573 247.024 564.718 247.474C564.983 247.553 565.275 247.578 565.566 247.578C567.394 247.578 569.036 246.308 569.434 244.453C569.487 244.162 569.54 243.87 569.54 243.578C569.541 241.751 568.269 240.136 566.414 239.712Z" fill="#E5320F"/>
<path d="M592.11 245.354C591.818 245.3 591.527 245.248 591.262 245.248C589.434 245.248 587.792 246.547 587.368 248.4C586.891 250.546 588.269 252.665 590.414 253.116C590.679 253.195 590.97 253.221 591.262 253.221C593.09 253.221 594.732 251.95 595.13 250.095C595.183 249.804 595.236 249.513 595.236 249.221C595.236 247.394 593.964 245.777 592.11 245.354Z" fill="#E5320F"/>
<path d="M489.328 222.811C489.036 222.757 488.745 222.705 488.454 222.705C486.626 222.705 485.01 223.976 484.613 225.831C484.136 227.977 485.487 230.096 487.633 230.573C487.924 230.626 488.189 230.652 488.481 230.652C490.309 230.652 491.951 229.381 492.349 227.526C492.402 227.235 492.455 226.943 492.455 226.652C492.454 224.823 491.183 223.208 489.328 222.811Z" fill="#E5320F"/>
<path d="M682.732 222.175C682.652 222.943 682.812 223.738 683.209 224.453C683.95 225.751 685.275 226.466 686.679 226.466C687.342 226.466 688.004 226.307 688.613 225.963C689.196 225.618 689.673 225.168 689.99 224.638H688.877C686.388 224.638 684.268 223.685 682.732 222.175Z" fill="#E5320F"/>
<path d="M640.798 244.347C640.136 244.347 639.474 244.506 638.864 244.85C636.957 245.91 636.294 248.347 637.354 250.254C638.096 251.552 639.42 252.267 640.824 252.267C641.487 252.267 642.149 252.109 642.758 251.764C644.082 251.023 644.798 249.671 644.798 248.294C644.798 247.632 644.639 246.969 644.295 246.36C643.553 245.062 642.203 244.347 640.798 244.347Z" fill="#E5320F"/>
<path d="M652.267 237.883C651.605 237.883 650.943 238.042 650.333 238.387C648.426 239.473 647.737 241.883 648.823 243.79C649.538 245.089 650.889 245.83 652.293 245.83C652.956 245.83 653.618 245.671 654.227 245.3C655.525 244.585 656.24 243.235 656.24 241.83C656.24 241.168 656.081 240.506 655.737 239.896C655.022 238.599 653.671 237.883 652.267 237.883Z" fill="#E5320F"/>
<path d="M675.208 224.982C674.546 224.982 673.884 225.141 673.248 225.486C671.341 226.572 670.679 228.982 671.738 230.889C672.48 232.187 673.83 232.929 675.208 232.929C675.871 232.929 676.533 232.77 677.168 232.425C678.466 231.684 679.181 230.333 679.181 228.955C679.181 228.293 679.022 227.631 678.678 226.995C677.937 225.698 676.586 224.982 675.208 224.982Z" fill="#E5320F"/>
<path d="M501.328 225.513C499.5 225.513 497.858 226.811 497.434 228.638C496.984 230.784 498.334 232.904 500.48 233.38C500.772 233.459 501.036 233.486 501.328 233.486C503.156 233.486 504.798 232.214 505.222 230.36C505.275 230.068 505.301 229.803 505.301 229.539C505.301 227.685 504.03 226.042 502.176 225.618C501.884 225.565 501.593 225.513 501.328 225.513Z" fill="#E5320F"/>
<path d="M663.738 231.446C663.075 231.446 662.413 231.605 661.804 231.949C659.87 233.009 659.208 235.446 660.267 237.353C661.009 238.651 662.36 239.366 663.737 239.366C664.399 239.366 665.088 239.208 665.697 238.863C666.995 238.122 667.71 236.77 667.71 235.393C667.71 234.73 667.551 234.068 667.207 233.458C666.466 232.161 665.115 231.446 663.738 231.446Z" fill="#E5320F"/>
<path d="M629.354 250.784C628.692 250.784 628.03 250.942 627.394 251.287C625.487 252.373 624.824 254.784 625.884 256.69C626.626 257.989 627.977 258.73 629.354 258.73C630.017 258.73 630.679 258.544 631.288 258.201C632.612 257.485 633.327 256.135 633.327 254.73C633.327 254.068 633.168 253.406 632.824 252.796C632.083 251.499 630.732 250.784 629.354 250.784Z" fill="#E5320F"/>
<path d="M515.023 228.453C514.731 228.399 514.44 228.347 514.148 228.347C512.32 228.347 510.705 229.618 510.281 231.473C509.83 233.619 511.181 235.738 513.327 236.214C513.618 236.268 513.883 236.294 514.175 236.294C516.003 236.294 517.645 235.023 518.042 233.168C518.095 232.877 518.148 232.585 518.148 232.294C518.149 230.466 516.877 228.851 515.023 228.453Z" fill="#E5320F"/>
<path d="M539.897 233.989C538.042 233.989 536.4 235.26 535.977 237.115C535.526 239.261 536.877 241.38 539.023 241.83C539.314 241.909 539.579 241.936 539.871 241.936C541.699 241.936 543.341 240.664 543.738 238.81C543.791 238.518 543.844 238.227 543.844 237.936C543.844 236.108 542.573 234.492 540.718 234.068C540.427 234.016 540.162 233.989 539.897 233.989Z" fill="#E5320F"/>
<path d="M552.693 236.797C550.865 236.797 549.249 238.068 548.826 239.923C548.349 242.069 549.726 244.188 551.872 244.664C552.137 244.718 552.429 244.744 552.72 244.744C554.548 244.744 556.19 243.499 556.588 241.644C556.641 241.353 556.694 241.061 556.694 240.77C556.694 238.942 555.422 237.327 553.568 236.903C553.276 236.85 552.984 236.797 552.693 236.797Z" fill="#E5320F"/>
<path d="M530.892 236.002C530.945 235.711 530.998 235.42 530.998 235.128C530.998 233.301 529.727 231.685 527.873 231.261C527.581 231.208 527.29 231.155 526.998 231.155C525.17 231.155 523.555 232.426 523.131 234.281C522.68 236.427 524.031 238.547 526.177 239.023C526.442 239.076 526.734 239.102 527.025 239.102C528.852 239.102 530.494 237.856 530.892 236.002Z" fill="#E5320F"/>
<path d="M82.6559 300.293L63.8749 295.446L57.2259 277.194C56.6959 275.763 55.4249 274.757 53.9149 274.598C52.4319 274.44 50.9479 275.128 50.1529 276.4L39.6899 292.771L20.2989 293.459C18.7889 293.512 17.4379 294.413 16.8019 295.79C16.1929 297.168 16.4049 298.782 17.3589 299.948L29.7029 314.942L24.3519 333.618C23.9279 335.074 24.3779 336.638 25.4909 337.644C26.6299 338.676 28.2199 338.968 29.6229 338.412L47.6889 331.313L63.7949 342.146C64.4579 342.623 65.2519 342.834 66.0209 342.834C66.7099 342.834 67.3719 342.676 67.9809 342.306C69.3059 341.564 70.0739 340.132 69.9939 338.622L68.8019 319.231L84.1129 307.286C85.3049 306.358 85.8609 304.822 85.5699 303.339C85.2519 301.857 84.1389 300.69 82.6559 300.293Z" fill="white"/>
<path d="M755.419 202.28L739.764 190.81L740.347 171.393C740.4 169.883 739.579 168.479 738.228 167.764C736.903 167.048 735.288 167.155 734.043 168.029L718.281 179.393L700.003 172.824C698.599 172.32 696.983 172.665 695.897 173.698C694.811 174.758 694.414 176.346 694.89 177.777L700.798 196.267L688.903 211.631C687.976 212.822 687.817 214.439 688.479 215.817C689.142 217.168 690.519 218.015 692.029 218.042H694.705L701.539 218.068L711.446 218.122L722.386 234.175C723.234 235.42 724.717 236.082 726.227 235.87C727.71 235.658 728.982 234.625 729.432 233.194L735.525 214.731L754.174 209.3C754.942 209.088 755.631 208.638 756.108 208.029C756.558 207.499 756.85 206.863 756.982 206.175C757.247 204.691 756.638 203.182 755.419 202.28Z" fill="white"/>
<path d="M309.145 155.87L302.47 137.619L302.682 137.327L305.251 133.698L313.675 121.777C314.55 120.559 314.655 118.917 313.94 117.592C313.225 116.267 311.821 115.473 310.311 115.526L290.894 116.241L279.291 100.665C278.391 99.4474 276.88 98.8644 275.397 99.1294C273.914 99.3944 272.695 100.507 272.298 101.964L267.45 119.023H267.423L266.973 120.639L261.225 122.573L248.589 126.838C247.158 127.316 246.126 128.587 245.913 130.097C245.701 131.58 246.39 133.064 247.635 133.911L263.767 144.719L263.979 164.162C264.005 165.673 264.88 167.023 266.23 167.685C267.607 168.347 269.223 168.162 270.416 167.235L278.919 160.56L284.985 155.791L285.7 155.234L304.216 161.009C304.984 161.274 305.806 161.247 306.548 161.035C307.21 160.849 307.793 160.478 308.296 159.975C309.33 158.863 309.648 157.274 309.145 155.87Z" fill="white"/>
<path d="M528.799 67.526L540.561 52.083L559.952 52.983C560.747 53.036 561.541 52.824 562.203 52.4C562.786 52.056 563.263 51.552 563.607 50.943C564.349 49.619 564.269 48.0031 563.395 46.7581L552.322 30.7841L559.183 12.6381C559.713 11.2071 559.421 9.61701 558.388 8.50501C557.355 7.41901 555.765 6.99507 554.335 7.41907L535.739 13.035L520.587 0.875982C519.395 -0.0780177 517.779 -0.263947 516.402 0.373053C515.051 1.00905 514.15 2.38603 514.124 3.89503L513.7 23.312L497.462 33.9611C496.217 34.8091 495.528 36.266 495.714 37.775C495.899 39.285 496.906 40.556 498.336 41.033L516.667 47.444L517.435 50.199L518.521 54.173L521.806 66.173C522.203 67.63 523.395 68.742 524.879 69.033C526.362 69.302 527.898 68.745 528.799 67.526Z" fill="white"/>
<path d="M157.887 246.704C157.94 246.546 157.94 246.387 157.94 246.227C157.94 245.512 157.755 244.796 157.358 244.161L156.616 240.664L164.192 232.691C164.775 232.082 164.96 231.181 164.669 230.386C164.377 229.565 163.662 229.008 162.815 228.929L151.875 227.763L146.657 218.094C146.26 217.353 145.438 216.903 144.591 216.929C143.743 216.955 142.975 217.458 142.631 218.253L138.154 228.267L127.346 230.253C126.498 230.412 125.836 231.048 125.598 231.869C125.359 232.69 125.624 233.564 126.234 234.147L133.783 240.955L134.392 241.512L133.438 248.691L132.961 252.399C132.828 253.247 133.226 254.068 133.915 254.545C134.63 255.023 135.557 255.075 136.299 254.625L145.809 249.168L155.716 253.909C156.139 254.095 156.59 254.148 157.014 254.095C157.411 254.042 157.756 253.883 158.074 253.645C158.763 253.116 159.081 252.241 158.895 251.419L157.887 246.704Z" fill="white"/>
<path d="M25.5695 141.963C25.8875 141.989 26.2046 141.91 26.4696 141.751C26.7086 141.619 26.9205 141.434 27.0525 141.195C27.3705 140.665 27.3705 140.003 27.0525 139.499L22.8406 132.93L23.7675 130.732L25.8335 125.752C26.0716 125.196 25.9655 124.561 25.5686 124.083C25.1705 123.633 24.5615 123.447 23.9795 123.606L21.9136 124.136L21.8876 124.162L16.4305 125.565L10.5236 120.479C10.0736 120.082 9.41055 119.976 8.85455 120.214C8.29855 120.452 7.92755 120.983 7.90055 121.592L7.44955 129.38L0.774544 133.433C0.271544 133.75 -0.0464529 134.333 0.00554707 134.916C0.0585471 135.525 0.455551 136.055 1.01255 136.267L8.29754 139.102L10.0725 146.705C10.2045 147.288 10.6816 147.738 11.2646 147.87C11.8476 148.029 12.4826 147.817 12.8536 147.341L17.8075 141.301L25.5695 141.963Z" fill="white"/>
<path d="M298.84 272.611L298.178 271.79L300.298 265.061L301.463 261.299C301.728 260.479 301.489 259.604 300.854 258.995C300.245 258.412 299.344 258.226 298.549 258.517L291.105 261.246L288.244 262.306L283.555 258.968L279.264 255.948C278.575 255.445 277.648 255.391 276.906 255.815C276.138 256.212 275.688 257.007 275.714 257.855L276.138 268.848L267.317 275.391C266.682 275.869 266.364 276.636 266.443 277.431C266.443 277.457 266.443 277.484 266.469 277.51V277.616C266.469 277.669 266.496 277.721 266.522 277.748C266.681 278.517 267.29 279.152 268.058 279.364L278.628 282.357L282.125 292.768C282.284 293.192 282.549 293.563 282.893 293.828C283.211 294.066 283.555 294.225 283.953 294.278C284.801 294.383 285.648 294.013 286.125 293.298L292.244 284.186L303.237 284.053C304.085 284.053 304.853 283.55 305.224 282.782C305.595 282.014 305.489 281.087 304.959 280.425L298.84 272.611Z" fill="white"/>
<path d="M479.236 235.42C479.766 234.731 479.872 233.83 479.528 233.062L476.985 227.606L474.892 223.076L476.693 220.056L480.508 213.645C480.932 212.904 480.906 211.977 480.455 211.261C479.978 210.546 479.157 210.149 478.309 210.254L467.395 211.579L464.481 208.241L461.302 204.638L460.136 203.313C459.58 202.677 458.679 202.413 457.858 202.651C457.037 202.863 456.401 203.525 456.242 204.373L454.123 215.154L444.03 219.499C443.262 219.844 442.732 220.611 442.679 221.459C442.653 222.307 443.076 223.128 443.845 223.525L446.361 224.929L452.215 228.187L453.433 228.876L454.44 239.815C454.52 240.663 455.076 241.405 455.897 241.696C456.691 242.014 457.592 241.829 458.228 241.246L466.281 233.776L476.983 236.186C477.433 236.292 477.883 236.24 478.307 236.081C478.653 235.949 478.971 235.711 479.236 235.42Z" fill="white"/>
<path d="M436.481 136.4L436.428 136.453L434.574 138.413C434.15 138.864 434.017 139.499 434.229 140.082C434.441 140.665 434.971 141.062 435.58 141.115L443.395 141.936L445.249 145.327L447.156 148.85C447.315 149.141 447.553 149.38 447.818 149.512C448.083 149.645 448.348 149.698 448.639 149.698C449.248 149.672 449.804 149.301 450.043 148.744L452.295 143.684L453.249 141.538L460.984 140.107C461.567 140.002 462.07 139.551 462.229 138.968C462.388 138.359 462.203 137.723 461.752 137.325L455.898 132.054L456.534 127.339L456.931 124.266C457.01 123.657 456.719 123.048 456.216 122.703C455.713 122.358 455.051 122.358 454.521 122.65L451.475 124.398V124.424L447.713 126.596L440.614 123.205C440.057 122.94 439.395 123.019 438.918 123.417C438.441 123.788 438.203 124.397 438.336 125.007L439.979 132.689L436.481 136.4Z" fill="white"/>
<path d="M144.35 46.2288L139.317 56.0028C138.946 56.7448 138.999 57.6718 139.529 58.3608C140.032 59.0488 140.88 59.3938 141.728 59.2348L152.536 57.2738L160.271 65.0888C160.589 65.4058 160.986 65.6178 161.41 65.6968C161.807 65.7768 162.204 65.7508 162.575 65.6438C163.37 65.3528 163.979 64.6638 164.085 63.8158L165.039 56.7958L165.569 52.9288L170.046 50.6508L175.371 47.9748C176.139 47.6048 176.616 46.8098 176.616 45.9618C176.616 45.1138 176.113 44.3188 175.344 43.9478L165.463 39.1798L163.794 28.3188C163.662 27.4708 163.052 26.7829 162.257 26.5179C161.436 26.2519 160.535 26.4908 159.953 27.0998L152.35 35.0468L141.515 33.2727C140.667 33.1397 139.82 33.4848 139.316 34.1728C138.813 34.8878 138.76 35.7888 139.157 36.5568L144.35 46.2288Z" fill="white"/>
<path d="M207.9 289.566L204.138 286.333L204.933 278.73C205.012 278.121 204.721 277.565 204.218 277.247C203.715 276.929 203.079 276.902 202.576 277.221L196.033 281.221L189.066 278.095C188.51 277.857 187.874 277.936 187.423 278.333C186.973 278.704 186.761 279.313 186.894 279.896L187.105 280.796L188.588 286.942L188.668 287.313L183.556 293.009C183.159 293.459 183.053 294.069 183.264 294.624C183.476 295.181 184.006 295.577 184.589 295.603L192.218 296.212L196.033 302.834C196.192 303.126 196.43 303.338 196.695 303.471C196.934 303.576 197.198 303.656 197.49 303.629C198.073 303.576 198.603 303.205 198.841 302.676L201.781 295.603L209.251 294.014C209.674 293.934 210.019 293.669 210.231 293.325C210.337 293.193 210.39 293.034 210.443 292.875C210.575 292.292 210.39 291.684 209.94 291.312L207.9 289.566Z" fill="white"/>
<path d="M383.608 331.124L372.535 304.376H365.6L382.56 343.479H384.658L401.616 304.376H394.681L383.608 331.124Z" fill="white"/>
<path d="M420.906 304.376H414.728V342.838H420.906V304.376Z" fill="white"/>
<path d="M462.718 322.792C464.019 320.888 464.671 318.674 464.671 316.146C464.671 312.69 463.465 309.862 461.057 307.668C458.647 305.472 455.5 304.375 451.616 304.375H437.572V342.837H443.75V327.978H450.8L461.757 342.837H468.809L457.27 326.987C459.601 326.093 461.417 324.696 462.718 322.792ZM451.499 322.5H443.749V309.853H451.499C453.597 309.853 455.258 310.437 456.481 311.601C457.705 312.768 458.318 314.302 458.318 316.206C458.318 318.109 457.705 319.636 456.481 320.779C455.258 321.928 453.598 322.5 451.499 322.5Z" fill="white"/>
<path d="M498.356 327.979H510.186V332.116C507.66 336.002 503.833 337.944 498.705 337.944C494.587 337.944 491.197 336.573 488.536 333.837C485.874 331.097 484.544 327.669 484.544 323.549C484.544 319.472 485.835 316.09 488.419 313.41C491.002 310.727 494.314 309.388 498.355 309.388C503.133 309.388 506.961 311.409 509.836 315.45L514.323 311.779C510.476 306.416 505.173 303.736 498.413 303.736C492.819 303.658 488.01 305.581 483.99 309.505C479.969 313.43 478.016 318.13 478.132 323.609C478.054 329.128 480.006 333.838 483.99 337.742C487.972 341.645 492.779 343.559 498.413 343.482C502.26 343.482 505.775 342.569 508.961 340.743C512.146 338.917 514.613 336.451 516.362 333.342V322.503H498.355L498.356 327.979Z" fill="white"/>
<path d="M548.766 303.734C543.248 303.656 538.488 305.579 534.488 309.503C530.486 313.428 528.524 318.128 528.601 323.607C528.485 329.086 530.438 333.787 534.459 337.711C538.479 341.635 543.248 343.557 548.766 343.48C554.244 343.557 559.013 341.635 563.073 337.711C567.132 333.786 569.104 329.086 568.988 323.607C569.105 318.128 567.132 313.428 563.073 309.503C559.012 305.579 554.244 303.656 548.766 303.734ZM558.672 333.747C556.029 336.467 552.747 337.827 548.823 337.827C544.821 337.827 541.518 336.476 538.915 333.776C536.313 331.075 535.011 327.668 535.011 323.547C535.011 319.47 536.321 316.088 538.945 313.408C541.567 310.725 544.86 309.386 548.823 309.386C552.746 309.386 556.029 310.737 558.672 313.437C561.315 316.138 562.635 319.508 562.635 323.547C562.635 327.627 561.315 331.028 558.672 333.747Z" fill="white"/>
</svg>
